G04 DipTrace 3.0.0.1*
G04 brushless-driver_lay.GTO*
%MOIN*%
G04 #@! TF.FileFunction,Legend,Top*
G04 #@! TF.Part,Single*
%ADD10C,0.009843*%
%ADD26O,0.012802X0.013772*%
%ADD30C,0.01874*%
%ADD74C,0.00772*%
%ADD75C,0.006176*%
%FSLAX26Y26*%
G04*
G70*
G90*
G75*
G01*
G04 TopSilk*
%LPD*%
X1432290Y793873D2*
D10*
X1455930D1*
X1444110Y805669D2*
Y782043D1*
X1294110Y612763D2*
G02X1294110Y612763I150000J0D01*
G01*
X2066965Y1659636D2*
Y1691133D1*
X484513Y1621340D2*
X516009D1*
X1350361Y2275432D2*
X2350361D1*
Y2075432D1*
X1350361D1*
Y2275432D1*
X1947916Y1921110D2*
Y1903882D1*
Y1921110D2*
X1932027D1*
X1699189D2*
Y1903882D1*
Y1921110D2*
X1715077D1*
X1699189Y1670167D2*
Y1687396D1*
Y1670167D2*
X1715077D1*
X1957374Y1684587D2*
X1935085Y1660446D1*
D26*
X1970176Y1700114D3*
X1144080Y1312886D2*
D10*
X1319080D1*
Y1437885D1*
X1144080D1*
Y1312886D1*
D30*
X1128450Y1241020D3*
X850299Y1312886D2*
D10*
X1025299D1*
Y1437885D1*
X850299D1*
Y1312886D1*
D30*
X834669Y1241020D3*
X556518Y1312886D2*
D10*
X731518D1*
Y1437885D1*
X556518D1*
Y1312886D1*
D30*
X540888Y1241020D3*
G36*
X1190350Y919820D2*
Y943820D1*
X1207350Y953820D1*
X1264350D1*
X1281350Y943820D1*
Y919820D1*
D1*
X1190350D1*
G37*
G36*
X1207350Y965820D2*
Y987820D1*
X1218350Y994820D1*
Y1140820D1*
X1226350Y1138820D1*
X1253350Y1095820D1*
Y994820D1*
X1264350Y987820D1*
Y965820D1*
X1207350D1*
G37*
G36*
X1233350Y1147820D2*
X1221350Y1151820D1*
X1210350Y1161820D1*
X1206350Y1176820D1*
X1210350Y1191820D1*
X1221350Y1202820D1*
X1235350Y1206820D1*
X1250350Y1202820D1*
X1261350Y1191820D1*
X1265350Y1176820D1*
X1262350Y1165820D1*
X1353350Y1017820D1*
X1365350Y1013820D1*
X1376350Y1002820D1*
X1380350Y987820D1*
X1376350Y973820D1*
X1365350Y962820D1*
X1350350Y958820D1*
X1335350Y962820D1*
X1324350Y973820D1*
X1320350Y988820D1*
X1323350Y1000820D1*
X1233350Y1147820D1*
G37*
G36*
X1356350Y1032820D2*
X1359350Y1027820D1*
X1372350Y1023820D1*
X1383350Y1010820D1*
X1436350Y1098820D1*
Y1149820D1*
X1430350Y1154820D1*
D1*
X1356350Y1032820D1*
G37*
G36*
X1447350Y1153820D2*
X1439350Y1161820D1*
X1434350Y1176820D1*
X1438350Y1191820D1*
X1449350Y1202820D1*
X1464350Y1206820D1*
X1479350Y1202820D1*
X1490350Y1191820D1*
X1494350Y1176820D1*
X1490350Y1162820D1*
X1481350Y1153820D1*
Y1036820D1*
X1464350Y1041820D1*
X1447350Y1036820D1*
Y1153820D1*
G37*
G36*
X1433350Y993820D2*
X1434350Y988820D1*
X1446350Y975820D1*
X1450350Y974820D1*
X1447350Y971820D1*
Y922820D1*
X1430350Y919820D1*
X1418350Y979820D1*
X1433350Y993820D1*
G37*
G36*
X1444350Y1017820D2*
X1441350Y1005820D1*
X1444350Y993820D1*
X1453350Y984820D1*
X1464350Y981820D1*
X1470350Y983820D1*
X1482350Y970820D1*
X1481350Y922820D1*
X1499350Y919820D1*
X1510350Y979820D1*
X1487350Y1002820D1*
X1488350Y1006820D1*
X1485350Y1016820D1*
X1476350Y1025820D1*
X1464350Y1028820D1*
X1452350Y1025820D1*
X1444350Y1017820D1*
G37*
X2152689Y1816161D2*
D74*
X2121572D1*
Y1765921D1*
Y1792229D2*
X2140696D1*
X2196813Y1799414D2*
Y1765921D1*
Y1792229D2*
X2192060Y1797037D1*
X2187252Y1799414D1*
X2180122D1*
X2175313Y1797037D1*
X2170560Y1792229D1*
X2168128Y1785044D1*
Y1780291D1*
X2170560Y1773106D1*
X2175313Y1768353D1*
X2180122Y1765921D1*
X2187252D1*
X2192060Y1768353D1*
X2196813Y1773106D1*
X2212253Y1799414D2*
Y1775482D1*
X2214629Y1768353D1*
X2219438Y1765921D1*
X2226623D1*
X2231376Y1768353D1*
X2238561Y1775482D1*
Y1799414D2*
Y1765921D1*
X2254000Y1816161D2*
Y1765921D1*
X2276624Y1816161D2*
Y1775482D1*
X2279001Y1768353D1*
X2283809Y1765921D1*
X2288563D1*
X2269439Y1799414D2*
X2286186D1*
X446809Y1123222D2*
Y1144777D1*
X444432Y1151907D1*
X442001Y1154339D1*
X437247Y1156715D1*
X430062D1*
X425309Y1154339D1*
X422877Y1151907D1*
X420501Y1144777D1*
Y1123222D1*
X470741D1*
X437247Y1184093D2*
X439624Y1179340D1*
X444432Y1174531D1*
X451617Y1172155D1*
X456371D1*
X463556Y1174531D1*
X468309Y1179340D1*
X470741Y1184093D1*
Y1191278D1*
X468309Y1196086D1*
X463556Y1200840D1*
X456371Y1203271D1*
X451617D1*
X444432Y1200840D1*
X439624Y1196086D1*
X437247Y1191278D1*
Y1184093D1*
Y1218711D2*
X470741Y1228272D1*
X437247Y1237834D1*
X470741Y1247395D1*
X437247Y1256957D1*
X451617Y1272396D2*
Y1301081D1*
X446809D1*
X442001Y1298705D1*
X439624Y1296328D1*
X437247Y1291520D1*
Y1284335D1*
X439624Y1279581D1*
X444432Y1274773D1*
X451617Y1272396D1*
X456371D1*
X463556Y1274773D1*
X468309Y1279581D1*
X470741Y1284335D1*
Y1291520D1*
X468309Y1296328D1*
X463556Y1301081D1*
X437247Y1316521D2*
X470741Y1316520D1*
X451617D2*
X444432Y1318952D1*
X439624Y1323706D1*
X437247Y1328514D1*
Y1335699D1*
X1222276Y790818D2*
X1203097Y841058D1*
X1183974Y790818D1*
X1191159Y807565D2*
X1215091D1*
X1271208Y841058D2*
Y790818D1*
X1237715Y841058D1*
Y790818D1*
X1389765Y2318801D2*
D75*
X1385962Y2316900D1*
X1382115Y2313053D1*
X1380214Y2309250D1*
Y2301601D1*
X1382115Y2297754D1*
X1385962Y2293952D1*
X1389765Y2292006D1*
X1395513Y2290105D1*
X1405107D1*
X1410811Y2292006D1*
X1414658Y2293952D1*
X1418461Y2297754D1*
X1420406Y2301601D1*
Y2309250D1*
X1418461Y2313053D1*
X1414658Y2316900D1*
X1410811Y2318801D1*
X1380214Y2331152D2*
X1420406D1*
Y2354100D1*
X1585457Y2316877D2*
X1581655Y2314976D1*
X1577808Y2311129D1*
X1575907Y2307327D1*
Y2299677D1*
X1577808Y2295830D1*
X1581655Y2292028D1*
X1585457Y2290082D1*
X1591205Y2288181D1*
X1600800D1*
X1606504Y2290082D1*
X1610351Y2292028D1*
X1614153Y2295830D1*
X1616099Y2299677D1*
Y2307326D1*
X1614153Y2311129D1*
X1610351Y2314976D1*
X1606504Y2316877D1*
X1600800D1*
Y2307326D1*
X1575907Y2329228D2*
X1616099D1*
Y2342626D1*
X1614153Y2348374D1*
X1610351Y2352221D1*
X1606504Y2354122D1*
X1600800Y2356023D1*
X1591206D1*
X1585457Y2354122D1*
X1581655Y2352221D1*
X1577808Y2348374D1*
X1575907Y2342626D1*
Y2329228D1*
X1674071Y2290028D2*
X1714263D1*
Y2303425D1*
X1712317Y2309173D1*
X1708515Y2313020D1*
X1704668Y2314921D1*
X1698964Y2316822D1*
X1689370D1*
X1683622Y2314921D1*
X1679819Y2313020D1*
X1675972Y2309173D1*
X1674071Y2303425D1*
Y2290028D1*
Y2329174D2*
X1714263D1*
X1881239Y2289131D2*
X1921431D1*
Y2306375D1*
X1919485Y2312123D1*
X1917584Y2314025D1*
X1913782Y2315926D1*
X1908034D1*
X1904187Y2314025D1*
X1902286Y2312123D1*
X1900384Y2306375D1*
X1898439Y2312123D1*
X1896538Y2314025D1*
X1892735Y2315926D1*
X1888888D1*
X1885086Y2314025D1*
X1883140Y2312123D1*
X1881239Y2306375D1*
Y2289131D1*
X1900384D2*
Y2306375D1*
X1881239Y2328277D2*
X1921431D1*
X1881239Y2355072D2*
X1908034Y2328277D1*
X1898439Y2337828D2*
X1921431Y2355072D1*
X1994144Y2289131D2*
Y2306331D1*
X1992199Y2312079D1*
X1990297Y2314025D1*
X1986495Y2315926D1*
X1982648D1*
X1978846Y2314025D1*
X1976900Y2312079D1*
X1974999Y2306331D1*
Y2289131D1*
X2015191D1*
X1994144Y2302529D2*
X2015191Y2315926D1*
X1974999Y2341675D2*
X2015191D1*
X1974999Y2328277D2*
Y2355072D1*
X2080310Y2314976D2*
Y2290083D1*
X2120502D1*
X2099455D2*
Y2305381D1*
X2080310Y2340725D2*
X2120502D1*
X2080310Y2327327D2*
Y2354122D1*
X2188920Y2314024D2*
X2185073Y2310222D1*
X2183172Y2304474D1*
Y2296825D1*
X2185073Y2291076D1*
X2188920Y2287230D1*
X2192723D1*
X2196569Y2289175D1*
X2198471Y2291076D1*
X2200372Y2294879D1*
X2204219Y2306375D1*
X2206120Y2310222D1*
X2208065Y2312123D1*
X2211868Y2314024D1*
X2217616D1*
X2221419Y2310222D1*
X2223364Y2304474D1*
Y2296824D1*
X2221418Y2291076D1*
X2217616Y2287230D1*
X2183172Y2326376D2*
X2223364Y2341674D1*
X2183172Y2356973D1*
X1774005Y2314953D2*
Y2290104D1*
X1814197D1*
Y2314953D1*
X1793151Y2290104D2*
Y2305402D1*
X1774005Y2354099D2*
X1814197D1*
X1774005Y2327304D1*
X1814197D1*
X1580279Y2019272D2*
Y2000171D1*
X1597479Y1998270D1*
X1595578Y2000171D1*
X1593632Y2005919D1*
Y2011623D1*
X1595578Y2017371D1*
X1599380Y2021218D1*
X1605128Y2023119D1*
X1608931D1*
X1614679Y2021218D1*
X1618526Y2017371D1*
X1620427Y2011623D1*
Y2005919D1*
X1618526Y2000171D1*
X1616580Y1998270D1*
X1612778Y1996324D1*
X1580235Y2035470D2*
X1620427Y2050769D1*
X1580235Y2066067D1*
X1680245Y1990074D2*
X1720437D1*
X1720438Y2003471D1*
X1718492Y2009219D1*
X1714689Y2013066D1*
X1710843Y2014967D1*
X1705139Y2016868D1*
X1695544D1*
X1689796Y2014967D1*
X1685994Y2013066D1*
X1682147Y2009219D1*
X1680245Y2003471D1*
Y1990074D1*
Y2040716D2*
X1682147Y2036869D1*
X1685994Y2033066D1*
X1689796Y2031121D1*
X1695544Y2029220D1*
X1705139D1*
X1710843Y2031121D1*
X1714689Y2033066D1*
X1718492Y2036869D1*
X1720437Y2040716D1*
Y2048365D1*
X1718492Y2052167D1*
X1714689Y2056014D1*
X1710843Y2057915D1*
X1705139Y2059817D1*
X1695544D1*
X1689796Y2057915D1*
X1685994Y2056014D1*
X1682147Y2052167D1*
X1680245Y2048365D1*
Y2040716D1*
X1786507Y1977572D2*
X1826699D1*
Y1990970D1*
X1824753Y1996718D1*
X1820951Y2000564D1*
X1817104Y2002466D1*
X1811400Y2004367D1*
X1801805D1*
X1796057Y2002466D1*
X1792255Y2000564D1*
X1788408Y1996718D1*
X1786507Y1990970D1*
Y1977572D1*
Y2016718D2*
X1826699D1*
X1786507Y2055864D2*
X1826699D1*
X1786507Y2029070D1*
X1826699D1*
X1898516Y1979364D2*
X1894669Y1975562D1*
X1892768Y1969814D1*
Y1962164D1*
X1894669Y1956416D1*
X1898516Y1952570D1*
X1902318D1*
X1906165Y1954515D1*
X1908066Y1956416D1*
X1909968Y1960219D1*
X1913814Y1971715D1*
X1915716Y1975562D1*
X1917661Y1977463D1*
X1921464Y1979364D1*
X1927212D1*
X1931014Y1975562D1*
X1932960Y1969814D1*
Y1962164D1*
X1931014Y1956416D1*
X1927212Y1952570D1*
X1902318Y2020412D2*
X1898516Y2018510D1*
X1894669Y2014664D1*
X1892768Y2010861D1*
Y2003212D1*
X1894669Y1999365D1*
X1898516Y1995562D1*
X1902318Y1993617D1*
X1908066Y1991716D1*
X1917661D1*
X1923365Y1993617D1*
X1927212Y1995562D1*
X1931014Y1999365D1*
X1932960Y2003212D1*
Y2010861D1*
X1931014Y2014663D1*
X1927212Y2018510D1*
X1923365Y2020412D1*
X1898516Y2059558D2*
X1894669Y2055755D1*
X1892768Y2050007D1*
Y2042358D1*
X1894669Y2036610D1*
X1898516Y2032763D1*
X1902318D1*
X1906165Y2034708D1*
X1908066Y2036610D1*
X1909968Y2040412D1*
X1913814Y2051908D1*
X1915716Y2055755D1*
X1917661Y2057656D1*
X1921464Y2059558D1*
X1927212D1*
X1931014Y2055755D1*
X1932960Y2050007D1*
Y2042358D1*
X1931014Y2036610D1*
X1927212Y2032763D1*
X1979774Y1979364D2*
X1975928Y1975562D1*
X1974026Y1969814D1*
Y1962164D1*
X1975928Y1956416D1*
X1979774Y1952570D1*
X1983577D1*
X1987424Y1954515D1*
X1989325Y1956416D1*
X1991226Y1960219D1*
X1995073Y1971715D1*
X1996974Y1975562D1*
X1998920Y1977463D1*
X2002722Y1979364D1*
X2008470D1*
X2012273Y1975562D1*
X2014218Y1969814D1*
Y1962164D1*
X2012273Y1956416D1*
X2008470Y1952570D1*
X1983577Y2020412D2*
X1979774Y2018510D1*
X1975928Y2014664D1*
X1974026Y2010861D1*
Y2003212D1*
X1975928Y1999365D1*
X1979774Y1995562D1*
X1983577Y1993617D1*
X1989325Y1991716D1*
X1998920D1*
X2004624Y1993617D1*
X2008470Y1995562D1*
X2012273Y1999365D1*
X2014218Y2003212D1*
Y2010861D1*
X2012273Y2014663D1*
X2008470Y2018510D1*
X2004624Y2020412D1*
X1974026Y2032763D2*
X2014218D1*
X1974026Y2059558D2*
X2000821Y2032763D1*
X1991226Y2042313D2*
X2014218Y2059558D1*
X2157590Y1952570D2*
Y1969814D1*
X2155689Y1975517D1*
X2153743Y1977463D1*
X2149941Y1979364D1*
X2144193D1*
X2140390Y1977463D1*
X2138445Y1975517D1*
X2136543Y1969814D1*
Y1952570D1*
X2176735D1*
X2136543Y2003212D2*
X2138445Y1999365D1*
X2142291Y1995562D1*
X2146094Y1993617D1*
X2151842Y1991716D1*
X2161437D1*
X2167141Y1993617D1*
X2170987Y1995562D1*
X2174790Y1999365D1*
X2176735Y2003212D1*
Y2010861D1*
X2174790Y2014663D1*
X2170987Y2018510D1*
X2167141Y2020412D1*
X2161437Y2022313D1*
X2151842D1*
X2146094Y2020412D1*
X2142291Y2018510D1*
X2138445Y2014664D1*
X2136543Y2010861D1*
Y2003212D1*
Y2048062D2*
X2176735Y2048061D1*
X2136543Y2034664D2*
Y2061459D1*
M02*
