G04 DipTrace Beta 2.9.0.1*
G04 TopMask.gbr*
%MOIN*%
G04 #@! TF.FileFunction,Soldermask,Top*
G04 #@! TF.Part,Single*
%ADD25C,0.1405*%
%ADD26C,0.14*%
%ADD31R,0.08674X0.031622*%
%ADD33C,0.067055*%
%ADD35R,0.067055X0.067055*%
%ADD37R,0.04737X0.041465*%
%ADD39R,0.04737X0.051307*%
%ADD41R,0.051307X0.04737*%
%FSLAX26Y26*%
G04*
G70*
G90*
G75*
G01*
G04 TopMask*
%LPD*%
D41*
X1900408Y487760D3*
X1833479D3*
X1894157Y675280D3*
X1827228D3*
X1525369Y844047D3*
X1592298D3*
X681530Y975311D3*
X614601D3*
D39*
X962810Y925306D3*
Y992235D3*
D37*
X1650382Y562768D3*
Y487965D3*
X1728434Y525366D3*
X1644131Y750287D3*
Y675484D3*
X1722184Y712886D3*
D41*
X744037Y612773D3*
X810966D3*
D25*
X675280Y512762D3*
D26*
X1175580Y988253D3*
D25*
X1575580D3*
D35*
X600272Y887802D3*
D33*
Y809062D3*
Y730322D3*
X679012D3*
Y809062D3*
Y887802D3*
D35*
X1900408Y844047D3*
D33*
Y922787D3*
Y1001528D3*
X1821668D3*
Y922787D3*
Y844047D3*
D41*
X850298Y712783D3*
X917227D3*
X900303Y994063D3*
X833374D3*
X837797Y925306D3*
X904726D3*
X869050Y612773D3*
X935979D3*
X1569123Y675280D3*
X1502194D3*
X1900408Y562768D3*
X1833479D3*
X1894157Y750287D3*
X1827228D3*
X1569123D3*
X1502194D3*
X1575374Y562768D3*
X1508445D3*
X1575374Y487760D3*
X1508445D3*
D39*
X850298Y775290D3*
Y842219D3*
D31*
X1031567Y850298D3*
Y800298D3*
Y750298D3*
Y700298D3*
Y650298D3*
Y600298D3*
Y550298D3*
Y500298D3*
X1397709D3*
Y550298D3*
Y600298D3*
Y650298D3*
Y700298D3*
Y750298D3*
Y800298D3*
Y850298D3*
M02*
