G04 DipTrace 2.4.0.2*
%INV_C_monitor_V2.GBL*%
%MOIN*%
%ADD13C,0.013*%
%ADD15C,0.025*%
%ADD16R,0.0394X0.0433*%
%ADD17R,0.0591X0.0512*%
%ADD18R,0.0591X0.0591*%
%ADD19C,0.0591*%
%ADD21R,0.1181X0.1181*%
%ADD22C,0.1181*%
%ADD23R,0.0669X0.0669*%
%ADD24C,0.0669*%
%ADD27R,0.061X0.0236*%
%ADD29R,0.0846X0.128*%
%ADD30R,0.0846X0.0394*%
%ADD31C,0.04*%
%FSLAX44Y44*%
G04*
G70*
G90*
G75*
G01*
%LNBottom*%
%LPD*%
X22009Y6162D2*
D13*
X21215D1*
X21072Y6305D1*
X20385Y5850D2*
X21634D1*
X21947Y6162D1*
X22009D1*
X10884Y6723D2*
Y7352D1*
X18259Y5850D2*
X17657D1*
X16854Y5046D1*
X16499D1*
X10884Y8100D2*
Y7975D1*
X9887D1*
X9793Y7880D1*
X10884Y8100D2*
X11072D1*
Y8872D1*
X11424Y9225D1*
X8759Y7412D2*
X9227Y7880D1*
X9793D1*
X20385Y6350D2*
X19947D1*
X19634Y6662D1*
Y7725D1*
X20072Y8162D1*
X22259D1*
X23259Y7162D1*
Y6625D1*
X22796Y6162D1*
X14413Y7129D2*
Y7172D1*
X15680D1*
X15669Y7161D1*
X15169Y6661D1*
Y5850D1*
X15519Y5499D1*
X16873D1*
X17731Y6357D1*
X18251D1*
X18259Y6350D1*
X20385Y6850D2*
X20009D1*
X19884Y6975D1*
Y7537D1*
X20197Y7850D1*
X21896D1*
X22796Y6950D1*
X18259Y6850D2*
X17634D1*
X17509Y6725D1*
X15669Y6373D2*
Y6334D1*
X16176Y5826D1*
X16747D1*
X17646Y6725D1*
X17509D1*
X21072Y6975D2*
X21984D1*
X22009Y6950D1*
X20385Y7350D2*
X21884D1*
X22009Y7225D1*
Y6950D1*
X18259Y7350D2*
X17553D1*
X17509Y7394D1*
X9793Y6069D2*
X5102D1*
X5009Y6162D1*
X10884Y5975D2*
X9887D1*
X9793Y6069D1*
X16456Y6373D2*
X16488D1*
X17509Y7394D1*
X10884Y5975D2*
X11333D1*
X11834Y6476D1*
X14397D1*
X14413Y6460D1*
Y5720D1*
X14436Y5696D1*
D31*
X16499Y5046D3*
X8759Y7412D3*
X14436Y5696D3*
X6033Y11851D2*
D15*
X19358D1*
X6033Y11602D2*
X10944D1*
X11904D2*
X16163D1*
X17025D2*
X19358D1*
X6033Y11354D2*
X10690D1*
X12162D2*
X15878D1*
X17310D2*
X19358D1*
X6033Y11105D2*
X10573D1*
X12275D2*
X15753D1*
X17435D2*
X19358D1*
X7025Y10856D2*
X10546D1*
X12303D2*
X15714D1*
X17474D2*
X19358D1*
X7256Y10607D2*
X10589D1*
X12260D2*
X15749D1*
X17439D2*
X19358D1*
X7373Y10359D2*
X10721D1*
X12131D2*
X15870D1*
X17318D2*
X19362D1*
X7420Y10110D2*
X11022D1*
X11826D2*
X16139D1*
X17049D2*
X19362D1*
X7404Y9861D2*
X10827D1*
X12021D2*
X16030D1*
X17158D2*
X19362D1*
X7322Y9613D2*
X10635D1*
X12213D2*
X15823D1*
X17365D2*
X19362D1*
X7154Y9364D2*
X10557D1*
X12295D2*
X15729D1*
X17459D2*
X19362D1*
X6795Y9115D2*
X10549D1*
X12299D2*
X15717D1*
X17471D2*
X19362D1*
X6033Y8867D2*
X10624D1*
X12224D2*
X15780D1*
X17408D2*
X19362D1*
X6033Y8618D2*
X10299D1*
X12053D2*
X15940D1*
X17248D2*
X19362D1*
X6033Y8369D2*
X10299D1*
X11471D2*
X16350D1*
X16838D2*
X17319D1*
X6033Y8121D2*
X8975D1*
X11471D2*
X17315D1*
X6033Y7872D2*
X8667D1*
X11471D2*
X17022D1*
X6033Y7623D2*
X8319D1*
X11471D2*
X15327D1*
X16010D2*
X17022D1*
X6033Y7375D2*
X8272D1*
X9248D2*
X13924D1*
X16213D2*
X16999D1*
X6033Y7126D2*
X8370D1*
X9150D2*
X13924D1*
X16252D2*
X16749D1*
X6033Y6877D2*
X13924D1*
X6033Y6628D2*
X11495D1*
X10484Y6495D2*
X11388D1*
X11601Y6709D1*
X11703Y6779D1*
X11834Y6805D1*
X13947D1*
X13951Y6941D1*
Y7611D1*
X14874D1*
Y7505D1*
X15221Y7502D1*
X15309Y7591D1*
X15413Y7659D1*
X15530Y7703D1*
X15654Y7721D1*
X15778Y7710D1*
X15897Y7672D1*
X16004Y7609D1*
X16095Y7524D1*
X16165Y7420D1*
X16210Y7304D1*
X16229Y7161D1*
X16215Y7037D1*
X16174Y6919D1*
X16105Y6810D1*
X16201Y6872D1*
X16317Y6916D1*
X16441Y6933D1*
X16569Y6921D1*
X17048Y7399D1*
X17047Y7875D1*
X17340D1*
X17343Y8429D1*
X17405Y8534D1*
X17468Y8553D1*
X19386D1*
X19384Y12100D1*
X6009D1*
X6008Y10994D1*
X6241Y11053D1*
X6365Y11063D1*
X6490Y11058D1*
X6613Y11037D1*
X6733Y11002D1*
X6848Y10952D1*
X6955Y10888D1*
X7054Y10811D1*
X7142Y10723D1*
X7219Y10625D1*
X7283Y10518D1*
X7334Y10403D1*
X7370Y10284D1*
X7391Y10161D1*
X7397Y10051D1*
X7389Y9927D1*
X7366Y9804D1*
X7329Y9685D1*
X7276Y9571D1*
X7210Y9465D1*
X7132Y9368D1*
X7042Y9281D1*
X6942Y9206D1*
X6834Y9144D1*
X6719Y9096D1*
X6598Y9062D1*
X6475Y9043D1*
X6350Y9040D1*
X6226Y9052D1*
X6104Y9079D1*
X6004Y9115D1*
X6007Y8600D1*
X6006Y6400D1*
X9106Y6399D1*
X9104Y6531D1*
X10481D1*
Y6496D1*
X11212Y10052D2*
X11148Y10068D1*
X11033Y10117D1*
X10927Y10182D1*
X10831Y10262D1*
X10747Y10355D1*
X10678Y10459D1*
X10625Y10573D1*
X10589Y10692D1*
X10571Y10816D1*
Y10941D1*
X10589Y11064D1*
X10625Y11184D1*
X10678Y11297D1*
X10747Y11401D1*
X10831Y11494D1*
X10927Y11574D1*
X11033Y11639D1*
X11148Y11688D1*
X11269Y11719D1*
X11393Y11733D1*
X11518Y11729D1*
X11641Y11706D1*
X11759Y11666D1*
X11870Y11608D1*
X11972Y11536D1*
X12061Y11449D1*
X12138Y11350D1*
X12199Y11241D1*
X12244Y11125D1*
X12271Y11003D1*
X12280Y10878D1*
X12271Y10754D1*
X12244Y10632D1*
X12199Y10515D1*
X12138Y10406D1*
X12062Y10307D1*
X11972Y10221D1*
X11870Y10148D1*
X11759Y10091D1*
X11645Y10052D1*
X11759Y10012D1*
X11870Y9955D1*
X11972Y9882D1*
X12061Y9796D1*
X12138Y9697D1*
X12199Y9588D1*
X12244Y9471D1*
X12271Y9349D1*
X12280Y9225D1*
X12271Y9100D1*
X12244Y8978D1*
X12199Y8861D1*
X12138Y8753D1*
X12062Y8654D1*
X11972Y8567D1*
X11870Y8494D1*
X11759Y8437D1*
X11641Y8397D1*
X11518Y8374D1*
X11444Y8367D1*
Y7579D1*
X10479D1*
X10481Y7418D1*
X9235D1*
X9207Y7289D1*
X9158Y7174D1*
X9081Y7076D1*
X8980Y7003D1*
X8863Y6959D1*
X8739Y6948D1*
X8617Y6970D1*
X8504Y7023D1*
X8410Y7105D1*
X8341Y7209D1*
X8302Y7327D1*
X8296Y7451D1*
X8323Y7573D1*
X8381Y7683D1*
X8467Y7774D1*
X8573Y7838D1*
X8693Y7872D1*
X8752Y7873D1*
X8994Y8113D1*
X9100Y8184D1*
X9076Y8172D1*
X9104Y8293D1*
Y8342D1*
X10327D1*
X10324Y8620D1*
X10742D1*
X10741Y8711D1*
X10678Y8806D1*
X10625Y8919D1*
X10589Y9039D1*
X10571Y9162D1*
Y9287D1*
X10589Y9411D1*
X10625Y9530D1*
X10678Y9643D1*
X10747Y9747D1*
X10831Y9840D1*
X10927Y9920D1*
X11033Y9985D1*
X11148Y10034D1*
X11212Y10051D1*
X17440Y9072D2*
X17413Y8950D1*
X17368Y8833D1*
X17307Y8724D1*
X17231Y8625D1*
X17141Y8539D1*
X17039Y8466D1*
X16928Y8409D1*
X16810Y8368D1*
X16687Y8346D1*
X16562Y8341D1*
X16438Y8355D1*
X16318Y8386D1*
X16203Y8435D1*
X16096Y8500D1*
X16000Y8580D1*
X15917Y8673D1*
X15848Y8777D1*
X15795Y8890D1*
X15759Y9010D1*
X15741Y9134D1*
Y9258D1*
X15759Y9382D1*
X15795Y9502D1*
X15848Y9615D1*
X15917Y9719D1*
X16000Y9812D1*
X16096Y9892D1*
X16202Y9957D1*
X16317Y10006D1*
X16382Y10022D1*
X16203Y10089D1*
X16096Y10154D1*
X16000Y10234D1*
X15917Y10327D1*
X15848Y10431D1*
X15795Y10544D1*
X15759Y10664D1*
X15741Y10787D1*
Y10912D1*
X15759Y11036D1*
X15795Y11155D1*
X15848Y11268D1*
X15917Y11372D1*
X16000Y11465D1*
X16096Y11545D1*
X16202Y11610D1*
X16317Y11659D1*
X16438Y11691D1*
X16562Y11705D1*
X16687Y11700D1*
X16810Y11677D1*
X16928Y11637D1*
X17039Y11580D1*
X17141Y11507D1*
X17231Y11421D1*
X17307Y11322D1*
X17368Y11213D1*
X17413Y11096D1*
X17440Y10974D1*
X17449Y10850D1*
X17440Y10725D1*
X17413Y10603D1*
X17368Y10486D1*
X17307Y10378D1*
X17231Y10279D1*
X17141Y10192D1*
X17039Y10119D1*
X16928Y10062D1*
X16814Y10023D1*
X16928Y9983D1*
X17039Y9926D1*
X17141Y9854D1*
X17231Y9767D1*
X17307Y9668D1*
X17368Y9559D1*
X17413Y9443D1*
X17440Y9321D1*
X17449Y9196D1*
X17440Y9072D1*
D16*
X21072Y6975D3*
Y6305D3*
D17*
X10884Y8100D3*
Y7352D3*
Y5975D3*
Y6723D3*
D18*
X22009Y6162D3*
D19*
Y6950D3*
X22796D3*
Y6162D3*
D18*
X16456Y7161D3*
D19*
Y6373D3*
X15669D3*
Y7161D3*
D21*
X9259Y9225D3*
D22*
Y10878D3*
X11424D3*
Y9225D3*
D21*
X18759Y10850D3*
D22*
Y9196D3*
X16594D3*
Y10850D3*
D23*
X5009Y7162D3*
D24*
Y6162D3*
D16*
X14413Y7129D3*
Y6460D3*
X17509Y6725D3*
Y7394D3*
D27*
X18259Y7350D3*
Y6850D3*
Y6350D3*
Y5850D3*
X20385D3*
Y6350D3*
Y6850D3*
Y7350D3*
D29*
X7509Y6975D3*
D30*
X9793Y7880D3*
Y6975D3*
Y6069D3*
M02*
