M48
METRIC,0000.00
T01C0.508
T02C0.9
T03C1.1
T04C1.81
T05C3.0
%
T01
X+004191Y+001282
X+003667Y+001447
X+002225Y+001883
T02
X+005590Y+001565
X+005590Y+001765
X+005790Y+001765
X+005790Y+001565
X+004180Y+001619
X+004180Y+001819
X+003980Y+001819
X+003980Y+001619
T03
X+001272Y+001819
X+001272Y+001565
T04
X+002352Y+002343
X+002352Y+002763
X+002902Y+002763
X+002902Y+002343
X+004215Y+002336
X+004215Y+002756
X+004765Y+002756
X+004765Y+002336
T05
X+001622Y+002553
X+003231Y+001308
X+005495Y+002546
T00
M30
