G04 DipTrace 2.4.0.2*
%INV_C_monitor_V2.GBO*%
%MOIN*%
%ADD10C,0.0098*%
%ADD70C,0.0077*%
%ADD71C,0.0062*%
%ADD72C,0.0093*%
%FSLAX44Y44*%
G04*
G70*
G90*
G75*
G01*
%LNBotSilk*%
%LPD*%
X23269Y5690D2*
D10*
X21537D1*
Y7422D1*
X23269D1*
Y5690D1*
X15196Y7633D2*
X16928D1*
Y5901D1*
X15196D1*
Y7633D1*
X4509Y5662D2*
X5509D1*
Y7662D1*
X4509D1*
Y5662D1*
X18611Y7497D2*
X19021D1*
X18623Y7487D2*
Y5684D1*
X19985D1*
Y7509D1*
X19665D1*
X19686Y7519D2*
G02X18999Y7540I-344J-5D01*
G01*
X7962Y8254D2*
X9340D1*
X7962Y5695D2*
X9340D1*
G36*
X15469Y8616D2*
Y8856D1*
X15299Y8956D1*
X14729D1*
X14559Y8856D1*
Y8616D1*
D1*
X15469D1*
G37*
G36*
X15299Y9076D2*
Y9296D1*
X15189Y9366D1*
Y10826D1*
X15109Y10806D1*
X14839Y10376D1*
Y9366D1*
X14729Y9296D1*
Y9076D1*
X15299D1*
G37*
G36*
X15039Y10896D2*
X15159Y10936D1*
X15269Y11036D1*
X15309Y11186D1*
X15269Y11336D1*
X15159Y11446D1*
X15019Y11486D1*
X14869Y11446D1*
X14759Y11336D1*
X14719Y11186D1*
X14749Y11076D1*
X13839Y9596D1*
X13719Y9556D1*
X13609Y9446D1*
X13569Y9296D1*
X13609Y9156D1*
X13719Y9046D1*
X13869Y9006D1*
X14019Y9046D1*
X14129Y9156D1*
X14169Y9306D1*
X14139Y9426D1*
X15039Y10896D1*
G37*
G36*
X13809Y9746D2*
X13779Y9696D1*
X13649Y9656D1*
X13539Y9526D1*
X13009Y10406D1*
Y10916D1*
X13069Y10966D1*
D1*
X13809Y9746D1*
G37*
G36*
X12899Y10956D2*
X12979Y11036D1*
X13029Y11186D1*
X12989Y11336D1*
X12879Y11446D1*
X12729Y11486D1*
X12579Y11446D1*
X12469Y11336D1*
X12429Y11186D1*
X12469Y11046D1*
X12559Y10956D1*
Y9786D1*
X12729Y9836D1*
X12899Y9786D1*
Y10956D1*
G37*
G36*
X13039Y9356D2*
X13029Y9306D1*
X12909Y9176D1*
X12869Y9166D1*
X12899Y9136D1*
Y8646D1*
X13069Y8616D1*
X13189Y9216D1*
X13039Y9356D1*
G37*
G36*
X12929Y9596D2*
X12959Y9476D1*
X12929Y9356D1*
X12839Y9266D1*
X12729Y9236D1*
X12669Y9256D1*
X12549Y9126D1*
X12559Y8646D1*
X12379Y8616D1*
X12269Y9216D1*
X12499Y9446D1*
X12489Y9486D1*
X12519Y9586D1*
X12609Y9676D1*
X12729Y9706D1*
X12849Y9676D1*
X12929Y9596D1*
G37*
X22716Y12230D2*
D71*
X22754Y12268D1*
X22812Y12287D1*
X22888D1*
X22946Y12268D1*
X22984Y12230D1*
Y12192D1*
X22965Y12153D1*
X22946Y12134D1*
X22908Y12115D1*
X22793Y12077D1*
X22754Y12058D1*
X22735Y12038D1*
X22716Y12000D1*
Y11943D1*
X22754Y11905D1*
X22812Y11885D1*
X22888D1*
X22946Y11905D1*
X22984Y11943D1*
X22593Y12287D2*
Y11885D1*
Y12077D2*
X22535Y12134D1*
X22497Y12153D1*
X22439D1*
X22401Y12134D1*
X22382Y12077D1*
Y11885D1*
X22029Y12153D2*
Y11885D1*
Y12096D2*
X22067Y12134D1*
X22106Y12153D1*
X22163D1*
X22201Y12134D1*
X22239Y12096D1*
X22259Y12038D1*
Y12000D1*
X22239Y11943D1*
X22201Y11905D1*
X22163Y11885D1*
X22106D1*
X22067Y11905D1*
X22029Y11943D1*
X21906Y12153D2*
Y11885D1*
Y12077D2*
X21848Y12134D1*
X21810Y12153D1*
X21753D1*
X21714Y12134D1*
X21695Y12077D1*
Y11885D1*
Y12077D2*
X21638Y12134D1*
X21600Y12153D1*
X21542D1*
X21504Y12134D1*
X21485Y12077D1*
Y11885D1*
X21361Y12153D2*
Y11885D1*
Y12077D2*
X21304Y12134D1*
X21265Y12153D1*
X21208D1*
X21170Y12134D1*
X21151Y12077D1*
Y11885D1*
Y12077D2*
X21093Y12134D1*
X21055Y12153D1*
X20998D1*
X20959Y12134D1*
X20940Y12077D1*
Y11885D1*
X20587Y12153D2*
Y11885D1*
Y12096D2*
X20625Y12134D1*
X20663Y12153D1*
X20720D1*
X20759Y12134D1*
X20797Y12096D1*
X20816Y12038D1*
Y12000D1*
X20797Y11943D1*
X20759Y11905D1*
X20720Y11885D1*
X20663D1*
X20625Y11905D1*
X20587Y11943D1*
X20463Y12153D2*
Y11885D1*
Y12077D2*
X20406Y12134D1*
X20367Y12153D1*
X20310D1*
X20272Y12134D1*
X20253Y12077D1*
Y11885D1*
Y12077D2*
X20195Y12134D1*
X20157Y12153D1*
X20100D1*
X20061Y12134D1*
X20042Y12077D1*
Y11885D1*
X19689Y12153D2*
Y11885D1*
Y12096D2*
X19727Y12134D1*
X19765Y12153D1*
X19822D1*
X19861Y12134D1*
X19899Y12096D1*
X19918Y12038D1*
Y12000D1*
X19899Y11943D1*
X19861Y11905D1*
X19822Y11885D1*
X19765D1*
X19727Y11905D1*
X19689Y11943D1*
X19565Y12287D2*
Y11885D1*
Y12077D2*
X19508Y12134D1*
X19469Y12153D1*
X19412D1*
X19374Y12134D1*
X19355Y12077D1*
Y11885D1*
X18842Y12287D2*
Y11885D1*
X18575Y12287D2*
Y11885D1*
X18842Y12096D2*
X18575D1*
X18356Y12153D2*
X18394Y12134D1*
X18432Y12096D1*
X18451Y12038D1*
Y12000D1*
X18432Y11943D1*
X18394Y11905D1*
X18356Y11885D1*
X18298D1*
X18260Y11905D1*
X18222Y11943D1*
X18202Y12000D1*
Y12038D1*
X18222Y12096D1*
X18260Y12134D1*
X18298Y12153D1*
X18356D1*
X17868Y12096D2*
X17887Y12134D1*
X17945Y12153D1*
X18002D1*
X18060Y12134D1*
X18079Y12096D1*
X18060Y12058D1*
X18021Y12038D1*
X17926Y12019D1*
X17887Y12000D1*
X17868Y11962D1*
Y11943D1*
X17887Y11905D1*
X17945Y11885D1*
X18002D1*
X18060Y11905D1*
X18079Y11943D1*
X17534Y12096D2*
X17553Y12134D1*
X17611Y12153D1*
X17668D1*
X17726Y12134D1*
X17745Y12096D1*
X17726Y12058D1*
X17687Y12038D1*
X17592Y12019D1*
X17553Y12000D1*
X17534Y11962D1*
Y11943D1*
X17553Y11905D1*
X17611Y11885D1*
X17668D1*
X17726Y11905D1*
X17745Y11943D1*
X17181Y12153D2*
Y11885D1*
Y12096D2*
X17219Y12134D1*
X17258Y12153D1*
X17315D1*
X17353Y12134D1*
X17391Y12096D1*
X17411Y12038D1*
Y12000D1*
X17391Y11943D1*
X17353Y11905D1*
X17315Y11885D1*
X17258D1*
X17219Y11905D1*
X17181Y11943D1*
X17058Y12287D2*
X17039Y12268D1*
X17019Y12287D1*
X17039Y12307D1*
X17058Y12287D1*
X17039Y12153D2*
Y11885D1*
X16896Y12153D2*
Y11885D1*
Y12077D2*
X16838Y12134D1*
X16800Y12153D1*
X16743D1*
X16704Y12134D1*
X16685Y12077D1*
Y11885D1*
X9073Y12256D2*
Y11854D1*
X8805Y12256D2*
X9073Y11988D1*
X8977Y12084D2*
X8805Y11854D1*
X8452Y12122D2*
Y11854D1*
Y12064D2*
X8490Y12103D1*
X8528Y12122D1*
X8585D1*
X8624Y12103D1*
X8662Y12064D1*
X8681Y12007D1*
Y11969D1*
X8662Y11911D1*
X8624Y11873D1*
X8585Y11854D1*
X8528D1*
X8490Y11873D1*
X8452Y11911D1*
X8328Y12122D2*
Y11854D1*
Y12007D2*
X8309Y12064D1*
X8271Y12103D1*
X8232Y12122D1*
X8175D1*
X8051Y12007D2*
X7822D1*
Y12045D1*
X7841Y12084D1*
X7860Y12103D1*
X7898Y12122D1*
X7956D1*
X7994Y12103D1*
X8032Y12064D1*
X8051Y12007D1*
Y11969D1*
X8032Y11911D1*
X7994Y11873D1*
X7956Y11854D1*
X7898D1*
X7860Y11873D1*
X7822Y11911D1*
X7698Y12007D2*
X7469D1*
Y12045D1*
X7488Y12084D1*
X7507Y12103D1*
X7545Y12122D1*
X7603D1*
X7641Y12103D1*
X7679Y12064D1*
X7698Y12007D1*
Y11969D1*
X7679Y11911D1*
X7641Y11873D1*
X7603Y11854D1*
X7545D1*
X7507Y11873D1*
X7469Y11911D1*
X7345Y12122D2*
Y11854D1*
Y12045D2*
X7288Y12103D1*
X7250Y12122D1*
X7192D1*
X7154Y12103D1*
X7135Y12045D1*
Y11854D1*
Y12045D2*
X7078Y12103D1*
X7039Y12122D1*
X6982D1*
X6944Y12103D1*
X6924Y12045D1*
Y11854D1*
X6412Y12256D2*
Y11854D1*
X6144Y12256D2*
Y11854D1*
X6412Y12064D2*
X6144D1*
X5791Y12122D2*
Y11854D1*
Y12064D2*
X5829Y12103D1*
X5867Y12122D1*
X5924D1*
X5963Y12103D1*
X6001Y12064D1*
X6020Y12007D1*
Y11969D1*
X6001Y11911D1*
X5963Y11873D1*
X5924Y11854D1*
X5867D1*
X5829Y11873D1*
X5791Y11911D1*
X5667Y12256D2*
Y11854D1*
X5314Y12122D2*
Y11854D1*
Y12064D2*
X5352Y12103D1*
X5391Y12122D1*
X5448D1*
X5486Y12103D1*
X5524Y12064D1*
X5544Y12007D1*
Y11969D1*
X5524Y11911D1*
X5486Y11873D1*
X5448Y11854D1*
X5391D1*
X5352Y11873D1*
X5314Y11911D1*
X5191Y12256D2*
Y11854D1*
Y12064D2*
X5152Y12103D1*
X5114Y12122D1*
X5057D1*
X5019Y12103D1*
X4980Y12064D1*
X4961Y12007D1*
Y11969D1*
X4980Y11911D1*
X5019Y11873D1*
X5057Y11854D1*
X5114D1*
X5152Y11873D1*
X5191Y11911D1*
X4838Y12256D2*
X4819Y12237D1*
X4799Y12256D1*
X4819Y12275D1*
X4838Y12256D1*
X4819Y12122D2*
Y11854D1*
X23022Y5188D2*
D72*
X22792Y4585D1*
X22563Y5188D1*
X22377Y4585D2*
X21975Y5187D1*
X21360Y5045D2*
X21388Y5102D1*
X21446Y5159D1*
X21503Y5188D1*
X21618D1*
X21675Y5159D1*
X21732Y5102D1*
X21762Y5045D1*
X21790Y4958D1*
Y4814D1*
X21762Y4729D1*
X21732Y4671D1*
X21675Y4614D1*
X21618Y4585D1*
X21503D1*
X21446Y4614D1*
X21388Y4671D1*
X21360Y4729D1*
X20132Y4585D2*
Y5188D1*
X20362Y4585D1*
X20591Y5188D1*
Y4585D1*
X19804Y4987D2*
X19861Y4958D1*
X19918Y4901D1*
X19947Y4814D1*
Y4757D1*
X19918Y4671D1*
X19861Y4614D1*
X19804Y4585D1*
X19717D1*
X19660Y4614D1*
X19603Y4671D1*
X19574Y4757D1*
Y4814D1*
X19603Y4901D1*
X19660Y4958D1*
X19717Y4987D1*
X19804D1*
X19388D2*
Y4585D1*
Y4872D2*
X19302Y4958D1*
X19244Y4987D1*
X19159D1*
X19101Y4958D1*
X19073Y4872D1*
Y4585D1*
X18887Y5188D2*
X18859Y5159D1*
X18830Y5188D1*
X18859Y5217D1*
X18887Y5188D1*
X18859Y4987D2*
Y4585D1*
X18558Y5188D2*
Y4700D1*
X18530Y4614D1*
X18472Y4585D1*
X18415D1*
X18644Y4987D2*
X18443D1*
X18086D2*
X18143Y4958D1*
X18201Y4901D1*
X18230Y4814D1*
Y4757D1*
X18201Y4671D1*
X18143Y4614D1*
X18086Y4585D1*
X18000D1*
X17942Y4614D1*
X17885Y4671D1*
X17856Y4757D1*
Y4814D1*
X17885Y4901D1*
X17942Y4958D1*
X18000Y4987D1*
X18086D1*
X17671D2*
Y4585D1*
Y4814D2*
X17642Y4901D1*
X17585Y4958D1*
X17527Y4987D1*
X17441D1*
X10665Y5015D2*
D70*
Y5039D1*
X10641Y5087D1*
X10617Y5111D1*
X10569Y5135D1*
X10473D1*
X10426Y5111D1*
X10402Y5087D1*
X10378Y5039D1*
Y4991D1*
X10402Y4943D1*
X10450Y4872D1*
X10689Y4633D1*
X10354D1*
X10056Y5135D2*
X10128Y5111D1*
X10176Y5039D1*
X10200Y4920D1*
Y4848D1*
X10176Y4728D1*
X10128Y4657D1*
X10056Y4633D1*
X10008D1*
X9937Y4657D1*
X9889Y4728D1*
X9865Y4848D1*
Y4920D1*
X9889Y5039D1*
X9937Y5111D1*
X10008Y5135D1*
X10056D1*
X9889Y5039D2*
X10176Y4728D1*
X9710Y5039D2*
X9662Y5063D1*
X9590Y5135D1*
Y4633D1*
X9149Y5135D2*
X9388D1*
X9412Y4920D1*
X9388Y4943D1*
X9316Y4968D1*
X9245D1*
X9173Y4943D1*
X9125Y4896D1*
X9101Y4824D1*
Y4776D1*
X9125Y4705D1*
X9173Y4657D1*
X9245Y4633D1*
X9316D1*
X9388Y4657D1*
X9412Y4681D1*
X9436Y4728D1*
X8947Y4633D2*
X8612Y5135D1*
X8433Y5015D2*
Y5039D1*
X8409Y5087D1*
X8385Y5111D1*
X8337Y5135D1*
X8242D1*
X8194Y5111D1*
X8170Y5087D1*
X8146Y5039D1*
Y4991D1*
X8170Y4943D1*
X8218Y4872D1*
X8457Y4633D1*
X8122D1*
X7824Y5135D2*
X7896Y5111D1*
X7944Y5039D1*
X7968Y4920D1*
Y4848D1*
X7944Y4728D1*
X7896Y4657D1*
X7824Y4633D1*
X7777D1*
X7705Y4657D1*
X7657Y4728D1*
X7633Y4848D1*
Y4920D1*
X7657Y5039D1*
X7705Y5111D1*
X7777Y5135D1*
X7824D1*
X7657Y5039D2*
X7944Y4728D1*
X7479Y5039D2*
X7431Y5063D1*
X7359Y5135D1*
Y4633D1*
X6917Y5063D2*
X6941Y5111D1*
X7013Y5135D1*
X7061D1*
X7132Y5111D1*
X7181Y5039D1*
X7204Y4920D1*
Y4800D1*
X7181Y4705D1*
X7132Y4657D1*
X7061Y4633D1*
X7037D1*
X6966Y4657D1*
X6917Y4705D1*
X6894Y4776D1*
Y4800D1*
X6917Y4872D1*
X6966Y4920D1*
X7037Y4943D1*
X7061D1*
X7132Y4920D1*
X7181Y4872D1*
X7204Y4800D1*
M02*
