G04 DipTrace 3.0.0.1*
G04 Arm-shield_lay_V2.GBS*
%MOIN*%
G04 #@! TF.FileFunction,Soldermask,Bot*
G04 #@! TF.Part,Single*
%ADD27C,0.1004*%
%ADD28C,0.11811*%
%ADD35R,0.12611X0.12611*%
%ADD41C,0.12611*%
%ADD43C,0.074929*%
%ADD45R,0.074929X0.074929*%
%FSLAX26Y26*%
G04*
G70*
G90*
G75*
G01*
G04 BotMask*
%LPD*%
D27*
X2262946Y2262946D3*
X475259Y475259D3*
Y2262946D3*
X2262946Y475259D3*
D45*
X1656633Y2275448D3*
D43*
Y2175448D3*
X1556633Y2275448D3*
Y2175448D3*
X1456633Y2275448D3*
Y2175448D3*
X1356633Y2275448D3*
Y2175448D3*
X1256633Y2275448D3*
Y2175448D3*
D45*
X712783Y569018D3*
D43*
Y469018D3*
X812783Y569018D3*
Y469018D3*
X912783Y569018D3*
Y469018D3*
X1012783Y569018D3*
Y469018D3*
X1112783Y569018D3*
Y469018D3*
D45*
X962810Y2000419D3*
D43*
Y1900419D3*
X862810Y2000419D3*
Y1900419D3*
X762810Y2000419D3*
Y1900419D3*
D45*
X862799Y694031D3*
D43*
Y794031D3*
X962799Y694031D3*
Y794031D3*
X1062799Y694031D3*
Y794031D3*
D41*
X944058Y1319097D3*
D45*
X1256591Y2019171D3*
D43*
X1356591D3*
X1456591D3*
X1556591D3*
X1656591D3*
X1756591D3*
X1856591D3*
X1956591D3*
X2056591D3*
X2156591D3*
D45*
X1456591Y619171D3*
D43*
X1556591D3*
X1656591D3*
X1756591D3*
X1856591D3*
X1956591D3*
X2056591D3*
X2156591D3*
D35*
X1925411Y775290D3*
D41*
X2090765D3*
Y991825D3*
X1925411D3*
D28*
X2008088Y487888D3*
D41*
X1800398Y1325348D3*
Y1490702D3*
X1583862Y1159993D3*
Y1490702D3*
Y1325348D3*
D35*
X1800398Y1159993D3*
D28*
X2087799D3*
Y1490702D3*
D41*
X944058Y1153743D3*
X1160593Y1484451D3*
Y1153743D3*
Y1319097D3*
D35*
X944058Y1484451D3*
D28*
X656656D3*
Y1153743D3*
M02*
