M48
INCH
T01C0.018
T02C0.0433
T03C0.0709
T04C0.0713
T05C0.1004
T06C0.1181
%
T01
X+018066Y+018754
X+018066Y+018254
X+017504Y+018254
X+018629Y+018254
T02
X+016566Y+022754
X+016566Y+021754
X+015566Y+021754
X+015566Y+022754
X+014566Y+022754
X+014566Y+021754
X+013566Y+021754
X+013566Y+022754
X+012566Y+022754
X+012566Y+021754
X+012566Y+020192
X+013566Y+020192
X+014566Y+020192
X+015566Y+020192
X+016566Y+020192
X+017566Y+020192
X+018566Y+020192
X+019566Y+020192
X+020566Y+020192
X+021566Y+020192
X+009628Y+020004
X+009628Y+019004
X+008628Y+019004
X+008628Y+020004
X+007628Y+020004
X+007628Y+019004
X+008628Y+007940
X+008628Y+006940
X+009628Y+006940
X+009628Y+007940
X+010628Y+007940
X+010628Y+006940
X+011128Y+005690
X+010128Y+005690
X+009128Y+005690
X+008128Y+005690
X+008128Y+004690
X+009128Y+004690
X+010128Y+004690
X+011128Y+004690
X+014566Y+006192
X+015566Y+006192
X+016566Y+006192
X+017566Y+006192
X+018566Y+006192
X+019566Y+006192
X+020566Y+006192
X+021566Y+006192
X+007128Y+005690
X+007128Y+004690
T03
X+009441Y+013191
X+009441Y+011537
X+011606Y+011537
X+011606Y+013191
X+011606Y+014845
X+009441Y+014845
X+015839Y+014907
X+015839Y+013253
X+015839Y+011600
X+018004Y+011600
X+018004Y+013253
X+018004Y+014907
T04
X+019254Y+007753
X+020908Y+007753
X+020908Y+009918
X+019254Y+009918
T05
X+022629Y+022629
X+004753Y+022629
X+004753Y+004753
X+022629Y+004753
T06
X+020081Y+004879
X+020878Y+011600
X+020878Y+014907
X+006567Y+014845
X+006567Y+011537
T00
M30
