G04 DipTrace 3.0.0.1*
G04 drive-encoder-steven-version2.GTS*
%MOIN*%
G04 #@! TF.FileFunction,Soldermask,Top*
G04 #@! TF.Part,Single*
%ADD33C,0.1004*%
%ADD37R,0.08674X0.023748*%
%ADD39R,0.051307X0.028079*%
%ADD41R,0.069024X0.031622*%
%ADD43R,0.074929X0.027685*%
%ADD45R,0.027685X0.074929*%
%ADD47R,0.059181X0.08674*%
%ADD49R,0.051307X0.04737*%
%ADD51C,0.074929*%
%ADD53R,0.074929X0.074929*%
%ADD55R,0.041465X0.04737*%
%ADD57R,0.04737X0.051307*%
%FSLAX26Y26*%
G04*
G70*
G90*
G75*
G01*
G04 TopMask*
%LPD*%
D57*
X1113080Y1669108D3*
Y1736037D3*
X738080Y1450357D3*
Y1383428D3*
X1175579Y1669108D3*
Y1736037D3*
X713051Y1975434D3*
Y1908505D3*
X900571Y1975434D3*
Y1908505D3*
X1275579Y1769108D3*
Y1702178D3*
D55*
X563035Y594039D3*
X637839D3*
X600437Y672092D3*
X1263115Y599322D3*
X1337919D3*
X1300517Y677374D3*
X2106948Y599322D3*
X2181751D3*
X2144349Y677374D3*
X1406874Y600290D3*
X1481677D3*
X1444276Y678343D3*
D33*
X475251Y2262751D3*
X2262751Y2262749D3*
Y475251D3*
X475251D3*
D53*
X475238Y825257D3*
D51*
Y925257D3*
Y1025257D3*
Y1125257D3*
Y1225257D3*
Y1325257D3*
D53*
X1050587Y644045D3*
D51*
Y544045D3*
X950587Y644045D3*
Y544045D3*
X850587Y644045D3*
Y544045D3*
D53*
X1894425Y644045D3*
D51*
Y544045D3*
X1794425Y644045D3*
Y544045D3*
X1694425Y644045D3*
Y544045D3*
D53*
X1613089Y1481597D3*
D51*
X1513089D3*
X1613089Y1581597D3*
X1513089D3*
X1613089Y1681597D3*
X1513089D3*
D53*
X1169000Y2031503D3*
D51*
Y2131503D3*
X1269000Y2031503D3*
Y2131503D3*
X1369000Y2031503D3*
Y2131503D3*
X1469000Y2031503D3*
Y2131503D3*
X1569000Y2031503D3*
Y2131503D3*
X781808Y1056588D3*
Y956577D3*
X1169349Y931575D3*
X1188101Y1006583D3*
X475526Y2056693D3*
X644294Y1969184D3*
D57*
X813080Y1381606D3*
Y1448535D3*
X1275579Y1644108D3*
Y1577178D3*
X813080Y1594108D3*
Y1527178D3*
D49*
X2106948Y544034D3*
X2173877D3*
X1475631D3*
X1408702D3*
D57*
X813080Y1656608D3*
Y1723537D3*
D49*
X1331864Y544035D3*
X1264934D3*
X563035Y544034D3*
X629965D3*
D47*
X706801Y1525387D3*
Y1838379D3*
X529635D3*
Y1525387D3*
D45*
X988080Y1244108D3*
X1019576D3*
X1051072D3*
X1082568D3*
X1114064D3*
X1145560D3*
X1177056D3*
X1208552D3*
D43*
X1263671Y1299226D3*
Y1330722D3*
Y1362218D3*
Y1393714D3*
Y1425210D3*
Y1456706D3*
Y1488202D3*
Y1519698D3*
D45*
X1208552Y1574816D3*
X1177056D3*
X1145560D3*
X1114064D3*
X1082568D3*
X1051072D3*
X1019576D3*
X988080D3*
D43*
X932962Y1519698D3*
Y1488202D3*
Y1456706D3*
Y1425210D3*
Y1393714D3*
Y1362218D3*
Y1330722D3*
Y1299226D3*
D41*
X700550Y2031690D3*
Y2081690D3*
Y2131690D3*
Y2181690D3*
X913148D3*
Y2131690D3*
Y2081690D3*
Y2031690D3*
D39*
X863067Y1156598D3*
Y1106598D3*
Y1056598D3*
Y1006598D3*
Y956598D3*
Y906598D3*
Y856598D3*
Y806598D3*
X1059917D3*
Y856598D3*
Y906598D3*
Y956598D3*
Y1006598D3*
Y1056598D3*
Y1106598D3*
Y1156598D3*
D37*
X1294362Y1137846D3*
Y1185091D3*
Y1232335D3*
D33*
X2250713Y1963182D3*
M02*
