M48
INCH
T01C0.0191
T02C0.0433
T03C0.1004
%
T01
X+006693Y+013879
X+006568Y+015129
X+006068Y+015129
X+007631Y+015316
X+008631Y+017567
X+007693Y+019567
X+006505Y+018817
X+006443Y+022005
X+010131Y+019567
X+012256Y+016754
X+011141Y+013066
X+010506Y+013071
X+011131Y+011691
X+011131Y+011066
X+011068Y+010503
X+011131Y+009691
X+008193Y+010066
X+008193Y+008191
X+006255Y+006815
X+008318Y+012254
X+013694Y+012129
X+013765Y+007191
X+021069Y+006878
T02
X+004752Y+008253
X+004752Y+009253
X+004752Y+010253
X+004752Y+011253
X+004752Y+012253
X+004752Y+013253
X+007818Y+010566
X+007818Y+009566
X+008506Y+006440
X+009506Y+006440
X+009506Y+005440
X+008506Y+005440
X+010506Y+005440
X+010506Y+006440
X+011693Y+009316
X+011881Y+010066
X+015131Y+014816
X+016131Y+014816
X+016131Y+015816
X+015131Y+015816
X+015131Y+016816
X+016131Y+016816
X+015690Y+020315
X+014690Y+020315
X+013690Y+020315
X+012690Y+020315
X+012690Y+021315
X+011690Y+021315
X+011690Y+020315
X+013690Y+021315
X+014690Y+021315
X+015690Y+021315
X+006443Y+019692
X+004755Y+020567
X+016944Y+006440
X+017944Y+006440
X+018944Y+006440
X+018944Y+005440
X+017944Y+005440
X+016944Y+005440
T03
X+004753Y+022628
X+004753Y+004753
X+022628Y+004753
X+022507Y+019632
X+022628Y+022627
T00
M30
