G04 DipTrace 3.0.0.1*
G04 panel1.GTS*
%MOIN*%
G04 #@! TF.FileFunction,Soldermask,Top*
G04 #@! TF.Part,Single*
%AMOUTLINE1*
4,1,7,
-0.05126,0.049488,
0.05126,0.049488,
0.05126,-0.049488,
0.025512,-0.049488,
-7.9E-5,-0.049488,
-0.02567,-0.049488,
-0.05126,-0.049488,
-0.05126,0.049488,
0*%
%AMOUTLINE4*
4,1,7,
0.049488,0.05126,
0.049488,-0.05126,
-0.049488,-0.05126,
-0.049488,-0.025512,
-0.049488,7.9E-5,
-0.049488,0.02567,
-0.049488,0.05126,
0.049488,0.05126,
0*%
%AMOUTLINE7*
4,1,12,
0.063071,0.24811,
0.141811,0.24811,
0.141811,-0.24811,
0.063071,-0.24811,
0.063071,-0.318977,
-0.063071,-0.318977,
-0.063071,-0.24811,
-0.141811,-0.24811,
-0.141811,0.24811,
-0.063071,0.24811,
-0.063071,0.318977,
0.063071,0.318977,
0.063071,0.24811,
0*%
%AMOUTLINE10*
4,1,12,
0.068977,0.052244,
0.068977,0.03437,
0.042402,0.03437,
0.042402,-0.03437,
0.068977,-0.03437,
0.068977,-0.052244,
-0.068977,-0.052244,
-0.068977,-0.03437,
-0.042402,-0.03437,
-0.042402,0.03437,
-0.068977,0.03437,
-0.068977,0.052244,
0.068977,0.052244,
0*%
%AMOUTLINE13*
4,1,5,
0.020748,-0.009528,
-0.020748,-0.009528,
-0.020748,0.009528,
0.014459,0.009528,
0.020748,0.003238,
0.020748,-0.009528,
0*%
%ADD80C,0.108268*%
%ADD81C,0.11811*%
%ADD92R,0.03756X0.019056*%
%ADD94O,0.015906X0.041497*%
%ADD96R,0.025749X0.047402*%
%ADD98R,0.02378X0.078898*%
%ADD100R,0.086772X0.047402*%
%ADD102O,0.035591X0.015906*%
%ADD104O,0.015906X0.035591*%
%ADD106R,0.031654X0.086772*%
%ADD108R,0.051339X0.031654*%
%ADD110R,0.086772X0.031654*%
%ADD112R,0.031654X0.051339*%
%ADD114C,0.067087*%
%ADD116C,0.059213*%
%ADD118R,0.032835X0.025749*%
%ADD120R,0.025749X0.032835*%
%ADD122R,0.226536X0.250158*%
%ADD124R,0.047402X0.1163*%
%ADD126R,0.033623X0.049371*%
%ADD128R,0.250158X0.226536*%
%ADD130R,0.1163X0.047402*%
%ADD134R,0.120237X0.267875*%
%ADD136R,0.038032X0.068032*%
%ADD138R,0.308032X0.408032*%
%ADD140C,0.074961*%
%ADD142R,0.074961X0.074961*%
%ADD144C,0.047402*%
%ADD146R,0.06315X0.06315*%
%ADD148C,0.06315*%
%ADD150C,0.108032*%
%ADD152R,0.108032X0.108032*%
%ADD154R,0.119056X0.086772*%
%ADD156R,0.031654X0.031654*%
%ADD158R,0.071024X0.078898*%
%ADD160R,0.059213X0.067087*%
%ADD162R,0.185197X0.090709*%
%ADD164R,0.047402X0.051339*%
%ADD166R,0.051339X0.047402*%
%ADD168R,0.208032X0.108032*%
%ADD170C,0.408032*%
%ADD176OUTLINE1*%
%ADD179OUTLINE4*%
%ADD182OUTLINE7*%
%ADD185OUTLINE10*%
%ADD188OUTLINE13*%
%FSLAX26Y26*%
G04*
G70*
G90*
G75*
G01*
G04 TopMask*
%LPD*%
D170*
X3573544Y1198445D3*
D168*
Y848445D3*
Y1548445D3*
D166*
X1963264Y1748441D3*
X1896335D3*
X2190099Y2167189D3*
X2257028D3*
D164*
X2692293Y1835945D3*
Y1769016D3*
X3623544Y610945D3*
Y677874D3*
Y523445D3*
Y456516D3*
D166*
X1963257Y1967141D3*
X1896328D3*
D164*
X3179936Y2260920D3*
Y2193991D3*
D166*
X3507008Y710945D3*
X3440079D3*
X2640079Y960945D3*
X2707008D3*
Y848445D3*
X2640079D3*
Y1017194D3*
X2707008D3*
D162*
X2121378Y1385945D3*
X2475709D3*
D160*
X1967200Y1660840D3*
X1892397D3*
D158*
X2304794Y1998446D3*
X2194558D3*
D164*
X2492294Y2048445D3*
Y1981516D3*
D166*
X1963260Y1188603D3*
X1896331D3*
X2523544Y2142196D3*
X2456614D3*
D164*
X3196956Y2846244D3*
Y2779315D3*
X2096956Y2846244D3*
Y2779315D3*
X3196956Y3446244D3*
Y3379315D3*
X2096956Y3446244D3*
Y3379315D3*
D166*
X860960Y3492775D3*
X927889D3*
X710962Y3592780D3*
X777891D3*
X785961Y3111528D3*
X852890D3*
X721639D3*
X654710D3*
X635961Y2942778D3*
X702890D3*
X840390D3*
X773461D3*
X704709Y2992778D3*
X771638D3*
X960961Y2692777D3*
X1027890D3*
X1721330Y2160946D3*
X1788259D3*
X1721330Y2223446D3*
X1788259D3*
D156*
X2630236Y904696D3*
X2716851D3*
Y785945D3*
X2630236D3*
D164*
X3179936Y1842126D3*
Y1909055D3*
D166*
X1721330Y2098446D3*
X1788259D3*
D164*
X2934456Y2846244D3*
Y2779315D3*
X3384456Y2846244D3*
Y2779315D3*
X1834456Y2846244D3*
Y2779315D3*
X2284456Y2846244D3*
Y2779315D3*
X2934456Y3446244D3*
Y3379315D3*
X3384456Y3446244D3*
Y3379315D3*
X1834456Y3446244D3*
Y3379315D3*
X2284456Y3446244D3*
Y3379315D3*
D154*
X515658Y1741754D3*
X515697Y2132305D3*
X772390D3*
X772440Y1741754D3*
D80*
X3915276Y531811D3*
X1631811Y2460945D3*
Y531811D3*
X3915276Y2460945D3*
D152*
X1127907Y980778D3*
D150*
X972002D3*
X816096D3*
X660191D3*
D148*
X1736044Y1344065D3*
D146*
Y1422805D3*
D148*
Y1265324D3*
Y1186584D3*
Y848445D3*
D146*
Y769705D3*
D148*
Y927185D3*
D152*
X972002Y1980778D3*
D150*
X1127907D3*
D144*
X3567231Y2794029D3*
X3620381D3*
X3673530D3*
X3726680D3*
X2467231D3*
X2520381D3*
X2573530D3*
X2626680D3*
X3567231Y3394029D3*
X3620381D3*
X3673530D3*
X3726680D3*
X2467231D3*
X2520381D3*
X2573530D3*
X2626680D3*
D142*
X619418Y3755278D3*
D140*
Y3655278D3*
Y3555278D3*
Y3455278D3*
Y3355278D3*
Y3255278D3*
D138*
X1206924Y3442778D3*
Y2842778D3*
D142*
X1823544Y2410945D3*
D140*
X1923544D3*
X2023544D3*
X2123544D3*
X2223544D3*
X2323544D3*
X2423544D3*
X2523544D3*
X2623544D3*
X2723544D3*
X2823544D3*
X2923544D3*
X3023544D3*
X3123544D3*
X3223544D3*
X3323544D3*
X3423544D3*
X3523544D3*
X3623544D3*
X3723544D3*
D142*
X1823544Y2510945D3*
D140*
X1923544D3*
X2023544D3*
X2123544D3*
X2223544D3*
X2323544D3*
X2423544D3*
X2523544D3*
X2623544D3*
X2723544D3*
X2823544D3*
X2923544D3*
X3023544D3*
X3123544D3*
X3223544D3*
X3323544D3*
X3423544D3*
X3523544D3*
X3623544D3*
X3723544D3*
D136*
X2992424Y2092149D3*
X3029924D3*
D134*
X2079793Y1773445D3*
X2302234D3*
D130*
X966194Y1426792D3*
Y1247264D3*
D128*
X1229974Y1337028D3*
D126*
X2098458Y2231189D3*
X2023655D3*
X2061057Y2140638D3*
D130*
X966194Y1726790D3*
Y1547263D3*
D128*
X1229974Y1637027D3*
D124*
X529285Y1196672D3*
X708813D3*
D122*
X619049Y1460452D3*
D130*
X3169101Y3127544D3*
Y2948016D3*
D128*
X3432881Y3037780D3*
D130*
X2069101Y3127544D3*
Y2948016D3*
D128*
X2332881Y3037780D3*
D130*
X3169101Y3727544D3*
Y3548016D3*
D128*
X3432881Y3637780D3*
D130*
X2069101Y3727544D3*
Y3548016D3*
D128*
X2332881Y3637780D3*
D120*
X719915Y2624275D3*
X694718D3*
X669128D3*
X643537D3*
D176*
X681923Y2544353D3*
D118*
X894670Y2529786D3*
Y2554983D3*
Y2580574D3*
Y2606164D3*
D179*
X814748Y2567778D3*
D164*
X2048555Y1964929D3*
Y2031859D3*
X2111062D3*
Y1964929D3*
X1767293Y1990374D3*
Y1923445D3*
X1823542D3*
Y1990374D3*
X3179936Y1979641D3*
Y2046570D3*
D166*
X1925759Y2098446D3*
X1858830D3*
D160*
X1967197Y1382352D3*
X1892394D3*
D164*
X2342324Y2221206D3*
Y2288135D3*
D166*
X2113242Y2292146D3*
X2046313D3*
X3050740Y2192200D3*
X2983811D3*
X3050890Y2304670D3*
X2983961D3*
X3050890Y2248414D3*
X2983961D3*
D164*
X1973545Y1248889D3*
Y1315818D3*
X1886045Y1248889D3*
Y1315818D3*
X2598544Y688159D3*
Y621230D3*
D166*
X1925759Y2160946D3*
X1858830D3*
X1925759Y2223446D3*
X1858830D3*
D164*
X3059456Y2846244D3*
Y2779315D3*
X3134456Y2846244D3*
Y2779315D3*
X3259456D3*
Y2846244D3*
X2996956D3*
Y2779315D3*
X3321956D3*
Y2846244D3*
X1959456D3*
Y2779315D3*
X2034456Y2846244D3*
Y2779315D3*
X2159456D3*
Y2846244D3*
X1896956D3*
Y2779315D3*
X2221956D3*
Y2846244D3*
X3059456Y3446244D3*
Y3379315D3*
X3134456Y3446244D3*
Y3379315D3*
X3259456D3*
Y3446244D3*
X2996956D3*
Y3379315D3*
X3321956D3*
Y3446244D3*
X1959456D3*
Y3379315D3*
X2034456Y3446244D3*
Y3379315D3*
X2159456D3*
Y3446244D3*
X1896956D3*
Y3379315D3*
X2221956D3*
Y3446244D3*
D166*
X927889Y3592777D3*
X860960D3*
X777891Y3542778D3*
X710962D3*
Y3492778D3*
X777891D3*
X927889Y3542776D3*
X860960D3*
D160*
X700772Y2824028D3*
X775575D3*
D166*
X702890Y2886527D3*
X635961D3*
X773461D3*
X840390D3*
X685960Y2692777D3*
X752889D3*
X1027890Y2617778D3*
X960961D3*
Y2749028D3*
X1027890D3*
X685960D3*
X752889D3*
D116*
X1592293Y1707205D3*
Y1785945D3*
Y1864685D3*
D114*
Y1628465D3*
Y1943425D3*
D112*
X1892398Y1807792D3*
X1929799D3*
X1967201D3*
Y1914091D3*
X1929799D3*
X1892398D3*
D110*
X2773544Y1885945D3*
Y1835945D3*
Y1785945D3*
Y1735945D3*
X2986142D3*
Y1785945D3*
Y1835945D3*
Y1885945D3*
D108*
X2276725Y2217268D3*
Y2254670D3*
Y2292071D3*
X2170425D3*
Y2254670D3*
Y2217268D3*
D106*
X2904793Y2292244D3*
X2854793D3*
X2804793D3*
X2754793D3*
Y2079646D3*
X2804793D3*
X2854793D3*
X2904793D3*
D104*
X3434173Y499922D3*
X3449922D3*
X3465670D3*
X3481418D3*
X3497166D3*
D102*
X3534567Y521575D3*
Y537323D3*
Y553071D3*
Y568819D3*
Y584567D3*
D104*
X3497166Y621969D3*
X3481418D3*
X3465670D3*
X3449922D3*
X3434173D3*
D102*
X3412520Y584567D3*
Y568819D3*
Y553071D3*
Y537323D3*
Y521575D3*
X3534567Y600315D3*
X3412520D3*
D104*
X3512914Y499922D3*
Y621969D3*
D100*
X3279946Y2267170D3*
Y2208114D3*
Y2149059D3*
Y2090004D3*
Y2030949D3*
Y1971894D3*
Y1912839D3*
Y1853784D3*
Y1794729D3*
Y1735673D3*
X3909868D3*
Y2030949D3*
Y2267170D3*
D81*
X3614592Y2034886D3*
D110*
X1968370Y1035767D3*
Y985767D3*
Y935767D3*
Y885767D3*
Y835767D3*
Y785767D3*
Y735767D3*
Y685767D3*
Y635767D3*
Y585767D3*
X2503803D3*
Y635767D3*
Y685767D3*
Y735767D3*
Y785767D3*
Y835767D3*
Y885767D3*
Y935767D3*
Y985767D3*
Y1035767D3*
D182*
X2236087Y810767D3*
D98*
X2553907Y1821772D3*
X2579498D3*
X2605088D3*
X2630679D3*
Y2050118D3*
X2605088D3*
X2579498D3*
X2553907D3*
D96*
X2447658Y2191013D3*
X2473248D3*
X2498839D3*
X2524429D3*
Y2293376D3*
X2498839D3*
X2473248D3*
X2447658D3*
D94*
X817554Y3208772D3*
X833302D3*
X849050D3*
X864798D3*
X880546D3*
X896294D3*
Y3364284D3*
X880546D3*
X864798D3*
X849050D3*
X833302D3*
X817554D3*
D185*
X856924Y3286528D3*
D188*
X836255Y2718713D3*
D92*
X834286Y2699028D3*
Y2679343D3*
X879562D3*
Y2699028D3*
Y2718713D3*
G36*
X2871956Y3137780D2*
X3071956D1*
Y2937780D1*
X2871956D1*
Y3137780D1*
G37*
G36*
X3596956D2*
X3796956D1*
Y2937780D1*
X3596956D1*
Y3137780D1*
G37*
G36*
X1771956D2*
X1971956D1*
Y2937780D1*
X1771956D1*
Y3137780D1*
G37*
G36*
X2496956D2*
X2696956D1*
Y2937780D1*
X2496956D1*
Y3137780D1*
G37*
G36*
X2871956Y3737780D2*
X3071956D1*
Y3537780D1*
X2871956D1*
Y3737780D1*
G37*
G36*
X3596956D2*
X3796956D1*
Y3537780D1*
X3596956D1*
Y3737780D1*
G37*
G36*
X1771956D2*
X1971956D1*
Y3537780D1*
X1771956D1*
Y3737780D1*
G37*
G36*
X2496956D2*
X2696956D1*
Y3537780D1*
X2496956D1*
Y3737780D1*
G37*
M02*
