G04 DipTrace 3.0.0.1*
G04 panel1.GML*
%MOIN*%
G04 #@! TF.FileFunction,Profile*
G04 #@! TF.Part,Single*
%ADD11C,0.005512*%
%FSLAX26Y26*%
G04*
G70*
G90*
G75*
G01*
G04 BoardOutline*
%LPD*%
X1612126Y2598740D2*
D11*
G03X1494016Y2480630I43J-118153D01*
G01*
Y2080630D1*
G02X1394016Y2080630I-50000J0D01*
G01*
Y2330630D1*
X1144016D1*
G02X1144016Y2430630I0J50000D01*
G01*
X1394016D1*
Y3830630D1*
X544016D1*
Y2430630D1*
X794016D1*
G02X794016Y2330630I0J-50000D01*
G01*
X394016D1*
Y630630D1*
X1394016D1*
Y880630D1*
G02X1494016Y880630I50000J0D01*
G01*
Y512126D1*
G03X1612126Y394016I118108J-2D01*
G01*
X3934961D1*
G03X4053071Y512126I-21J118131D01*
G01*
Y2480630D1*
G03X3934961Y2598740I-118131J-21D01*
G01*
X3584961D1*
G02X3584961Y2698740I0J50000D01*
G01*
X3834961D1*
Y3198740D1*
X3584961D1*
G02X3584961Y3298740I0J50000D01*
G01*
X3834961D1*
Y3798740D1*
X2834961D1*
Y3648740D1*
G02X2734961Y3648740I-50000J0D01*
G01*
Y3798740D1*
X1734961D1*
Y3298740D1*
X1984961D1*
G02X1984961Y3198740I0J-50000D01*
G01*
X1734961D1*
Y2698740D1*
X1984961D1*
G02X1984961Y2598740I0J-50000D01*
G01*
X1612126D1*
X1494016Y1730630D2*
Y1230630D1*
Y1730630D2*
G03X1394016Y1730630I-50000J0D01*
G01*
X1494016Y1230630D2*
G02X1394016Y1230630I-50000J0D01*
G01*
Y1730630D2*
Y1230630D1*
X2734961Y3448740D2*
G02X2834961Y3448740I50000J0D01*
G01*
X2734961Y3048740D2*
G03X2834961Y3048740I50000J0D01*
G01*
X2734961Y2848740D2*
G02X2834961Y2848740I50000J0D01*
G01*
X2484961Y3298740D2*
G03X2484961Y3198740I0J-50000D01*
G01*
X3084961Y3298740D2*
G02X3084961Y3198740I0J-50000D01*
G01*
X2484961Y2698740D2*
G03X2484961Y2598740I0J-50000D01*
G01*
X3084961Y2698740D2*
G02X3084961Y2598740I0J-50000D01*
G01*
X2734961Y3448740D2*
Y3298740D1*
X2484961D1*
Y3198740D2*
X2734961D1*
Y3048740D1*
X2834961D2*
Y3198740D1*
X3084961D1*
Y3298740D2*
X2834961D1*
Y3448740D1*
X2734961Y2848740D2*
Y2698740D1*
X2484961D1*
X2834961Y2848740D2*
Y2698740D1*
X3084961D1*
Y2598740D2*
X2484961D1*
M02*
