G04 DipTrace 3.0.0.1*
G04 panel1.GTO*
%MOIN*%
G04 #@! TF.FileFunction,Legend,Top*
G04 #@! TF.Part,Single*
%ADD10C,0.009843*%
%ADD14C,0.008*%
%ADD16C,0.01*%
%ADD27C,0.031465*%
%ADD31C,0.009433*%
%ADD45C,0.015408*%
%ADD48C,0.015404*%
%ADD50C,0.01541*%
%ADD54C,0.015754*%
%ADD59C,0.015401*%
%ADD62C,0.015395*%
%ADD65C,0.015754*%
%ADD69C,0.01963*%
%ADD72C,0.015401*%
%ADD75C,0.007873*%
%ADD77C,0.007872*%
%ADD173C,0.006*%
%FSLAX26Y26*%
G04*
G70*
G90*
G75*
G01*
G04 TopSilk*
%LPD*%
X3323544Y1198445D2*
D14*
G02X3323544Y1198445I250000J0D01*
G01*
X2501309Y1588701D2*
D10*
Y1444988D1*
Y1588701D2*
X2160727D1*
X2501309Y1326903D2*
Y1183189D1*
X2160727D1*
X2095778Y1523738D2*
Y1444988D1*
Y1326903D2*
Y1248152D1*
Y1523738D2*
X2160727Y1588701D1*
X2095778Y1248152D2*
X2160727Y1183189D1*
D27*
X2062347Y1456808D3*
X2008559Y1686411D2*
D10*
Y1635269D1*
X2254007Y2029911D2*
Y1966982D1*
X2261456Y2029911D2*
Y1966982D1*
Y2029911D2*
X2237897D1*
X2261456Y1966982D2*
X2237897D1*
X1687865Y2145198D2*
Y2176694D1*
Y2207698D2*
Y2239194D1*
X2642042Y928317D2*
X2705034D1*
X2642042Y881074D2*
X2705034D1*
D31*
X2605034Y904696D3*
X2705045Y762324D2*
D10*
X2642054D1*
X2705045Y809567D2*
X2642054D1*
D31*
X2742053Y785945D3*
X3195684Y1808662D2*
D10*
X3164188D1*
X1687865Y2082698D2*
Y2114194D1*
X2918708Y2879709D2*
X2950204D1*
X3368708D2*
X3400204D1*
X1818708D2*
X1850204D1*
X2268708D2*
X2300204D1*
X2918708Y3479709D2*
X2950204D1*
X3368708D2*
X3400204D1*
X1818708D2*
X1850204D1*
X2268708D2*
X2300204D1*
X506232Y1799248D2*
Y2074811D1*
Y2192909D2*
Y2261832D1*
X781829D1*
Y2192909D1*
Y2074811D2*
Y1799248D1*
Y1681149D2*
Y1612226D1*
X506232D1*
Y1681149D1*
X1205845Y643270D2*
X582238D1*
Y1062038D1*
X1205845D1*
Y643270D1*
X894063Y2318287D2*
X1205846D1*
Y1899519D1*
X894063D1*
Y2318287D1*
X3777861Y2746391D2*
X3516050D1*
Y2880250D1*
X3777861D1*
Y2746391D1*
X2677861D2*
X2416050D1*
Y2880250D1*
X2677861D1*
Y2746391D1*
X3777861Y3346391D2*
X3516050D1*
Y3480250D1*
X3777861D1*
Y3346391D1*
X2677861D2*
X2416050D1*
Y3480250D1*
X2677861D1*
Y3346391D1*
X1772701Y2460947D2*
X3774386D1*
Y2360945D1*
X1772701D1*
Y2460947D1*
Y2560947D2*
X3774386D1*
Y2460945D1*
X1772701D1*
Y2560947D1*
X2961175Y2129649D2*
X2973675Y2142149D1*
X3048675D1*
X3061175Y2129649D1*
Y2054649D1*
X3048675Y2042149D2*
X3061175Y2054649D1*
X3048675Y2042149D2*
X2973675D1*
X2961175Y2054649D1*
Y2129649D1*
X2348498Y1930925D2*
X2033529D1*
X2348498Y1615965D2*
X2033529D1*
X1037081Y1466954D2*
Y1207112D1*
X1312670Y1466954D2*
X1037081D1*
X1312670D2*
Y1459089D1*
Y1207112D2*
X1037081D1*
X1312670D2*
Y1214977D1*
D45*
X922135Y1466021D3*
D48*
X2129307Y2245898D3*
X2120106Y2195756D2*
D10*
X2002002D1*
Y2176071D1*
X2120106D1*
Y2195756D1*
X1037081Y1766953D2*
Y1507110D1*
X1312670Y1766953D2*
X1037081D1*
X1312670D2*
Y1759088D1*
Y1507110D2*
X1037081D1*
X1312670D2*
Y1514976D1*
D45*
X922135Y1766020D3*
X489123Y1267559D2*
D10*
X748965D1*
X489123Y1543148D2*
Y1267559D1*
Y1543148D2*
X496988D1*
X748965D2*
Y1267559D1*
Y1543148D2*
X741100D1*
D50*
X490056Y1152613D3*
X3239988Y3167706D2*
D10*
Y2907864D1*
X3515577Y3167706D2*
X3239988D1*
X3515577D2*
Y3159841D1*
Y2907864D2*
X3239988D1*
X3515577D2*
Y2915729D1*
D45*
X3125042Y3166773D3*
X2139988Y3167706D2*
D10*
Y2907864D1*
X2415577Y3167706D2*
X2139988D1*
X2415577D2*
Y3159841D1*
Y2907864D2*
X2139988D1*
X2415577D2*
Y2915729D1*
D45*
X2025042Y3166773D3*
X3239988Y3767706D2*
D10*
Y3507864D1*
X3515577Y3767706D2*
X3239988D1*
X3515577D2*
Y3759841D1*
Y3507864D2*
X3239988D1*
X3515577D2*
Y3515729D1*
D45*
X3125042Y3766773D3*
X2139988Y3767706D2*
D10*
Y3507864D1*
X2415577Y3767706D2*
X2139988D1*
X2415577D2*
Y3759841D1*
Y3507864D2*
X2139988D1*
X2415577D2*
Y3515729D1*
D45*
X2025042Y3766773D3*
X752794Y2630777D2*
D10*
Y2504780D1*
X611057Y2630777D2*
Y2504780D1*
D54*
X752786Y2650453D3*
X901172Y2496908D2*
D10*
X775175D1*
X901172Y2638645D2*
X775175D1*
D54*
X920848Y2496915D3*
G36*
X2826166Y936545D2*
Y960545D1*
X2843166Y970545D1*
X2900166D1*
X2917166Y960545D1*
Y936545D1*
D1*
X2826166D1*
G37*
G36*
X2843166Y982545D2*
Y1004545D1*
X2854166Y1011545D1*
Y1157545D1*
X2862166Y1155545D1*
X2889166Y1112545D1*
Y1011545D1*
X2900166Y1004545D1*
Y982545D1*
X2843166D1*
G37*
G36*
X2869166Y1164545D2*
X2857166Y1168545D1*
X2846166Y1178545D1*
X2842166Y1193545D1*
X2846166Y1208545D1*
X2857166Y1219545D1*
X2871166Y1223545D1*
X2886166Y1219545D1*
X2897166Y1208545D1*
X2901166Y1193545D1*
X2898166Y1182545D1*
X2989166Y1034545D1*
X3001166Y1030545D1*
X3012166Y1019545D1*
X3016166Y1004545D1*
X3012166Y990545D1*
X3001166Y979545D1*
X2986166Y975545D1*
X2971166Y979545D1*
X2960166Y990545D1*
X2956166Y1005545D1*
X2959166Y1017545D1*
X2869166Y1164545D1*
G37*
G36*
X2992166Y1049545D2*
X2995166Y1044545D1*
X3008166Y1040545D1*
X3019166Y1027545D1*
X3072166Y1115545D1*
Y1166545D1*
X3066166Y1171545D1*
D1*
X2992166Y1049545D1*
G37*
G36*
X3083166Y1170545D2*
X3075166Y1178545D1*
X3070166Y1193545D1*
X3074166Y1208545D1*
X3085166Y1219545D1*
X3100166Y1223545D1*
X3115166Y1219545D1*
X3126166Y1208545D1*
X3130166Y1193545D1*
X3126166Y1179545D1*
X3117166Y1170545D1*
Y1053545D1*
X3100166Y1058545D1*
X3083166Y1053545D1*
Y1170545D1*
G37*
G36*
X3069166Y1010545D2*
X3070166Y1005545D1*
X3082166Y992545D1*
X3086166Y991545D1*
X3083166Y988545D1*
Y939545D1*
X3066166Y936545D1*
X3054166Y996545D1*
X3069166Y1010545D1*
G37*
G36*
X3080166Y1034545D2*
X3077166Y1022545D1*
X3080166Y1010545D1*
X3089166Y1001545D1*
X3100166Y998545D1*
X3106166Y1000545D1*
X3118166Y987545D1*
X3117166Y939545D1*
X3135166Y936545D1*
X3146166Y996545D1*
X3123166Y1019545D1*
X3124166Y1023545D1*
X3121166Y1033545D1*
X3112166Y1042545D1*
X3100166Y1045545D1*
X3088166Y1042545D1*
X3080166Y1034545D1*
G37*
D59*
X1865484Y1791166D3*
X1870747Y1845232D2*
D10*
X1988855D1*
X1870747Y1876722D2*
X1988855D1*
Y1845232D2*
Y1876722D1*
X1870747Y1845232D2*
Y1876722D1*
X2828655Y1909372D2*
Y1712518D1*
X2931031Y1909372D2*
Y1712518D1*
X2828655D2*
X2931031D1*
X2860148Y1909372D2*
X2828655D1*
X2899537D2*
X2931031D1*
X2860148D2*
G03X2899537Y1909372I19694J9D01*
G01*
D62*
X2293350Y2190354D3*
X2239285Y2195617D2*
D10*
Y2313725D1*
X2207794Y2195617D2*
Y2313725D1*
X2239285D2*
X2207794D1*
X2239285Y2195617D2*
X2207794D1*
X2928220Y2237133D2*
X2731366D1*
X2928220Y2134757D2*
X2731366D1*
Y2237133D2*
Y2134757D1*
X2928220Y2205640D2*
Y2237133D1*
Y2166251D2*
Y2134757D1*
Y2205640D2*
G03X2928220Y2166251I9J-19694D01*
G01*
X3418429Y501882D2*
X3414494Y505833D1*
X3532608Y501935D2*
X3528659D1*
X3532593Y501882D2*
Y505833D1*
X3532608Y619998D2*
X3528659D1*
X3532608D2*
X3532593Y616065D1*
X3414479Y619998D2*
X3418429D1*
X3414479D2*
X3414494Y616065D1*
D65*
X3434175Y466458D3*
X3309458Y2316372D2*
D10*
X3909836D1*
X3279978Y1686461D2*
X3909836D1*
Y2237617D2*
Y2060467D1*
Y2001417D2*
Y1765216D1*
D69*
X3279943Y2316372D3*
X2450679Y1125727D2*
D10*
Y495806D1*
X2021495D2*
X2157350D1*
X2314824D2*
X2450679D1*
X2021495Y1076530D2*
Y495806D1*
X2314824Y1125727D2*
X2450679D1*
X2157350D2*
X2068786D1*
X2021495Y1076530D2*
X2068786Y1125727D1*
X2533238Y1872961D2*
X2651348D1*
X2533238Y1998929D2*
X2651348D1*
Y1872961D2*
Y1998929D1*
X2533238Y1872961D2*
Y1916257D1*
Y1955633D2*
Y1998929D1*
Y1916257D2*
G03X2533238Y1955633I13J19688D01*
G01*
D72*
X2421728Y2176320D3*
X2426991Y2222517D2*
D10*
X2545099D1*
Y2261881D1*
X2426991D1*
Y2222517D1*
X805735Y3345583D2*
D14*
Y3365274D1*
X908100D2*
Y3345583D1*
X805735Y3207781D2*
Y3227473D1*
D75*
X805748Y3195980D3*
X908100Y3314081D2*
D14*
Y3258975D1*
X805735D2*
Y3314081D1*
X908100Y3227473D2*
Y3207781D1*
X825424Y2734463D2*
X888417D1*
X825424Y2663595D2*
X888417D1*
D77*
X813616Y2734460D3*
X1617293Y1498445D2*
D16*
X1798544D1*
Y1460945D2*
Y1498445D1*
X1617293Y1104696D2*
X1798544D1*
Y1142196D1*
Y960945D2*
Y1004694D1*
X1617293D1*
Y692196D2*
X1798544D1*
Y735945D1*
X1542293Y1954694D2*
X1511044D1*
Y1617194D1*
X1548544D1*
X1642294D2*
X1673544D1*
Y1954694D1*
X1642294D1*
X3134456Y3037780D2*
D14*
X3184456D1*
X3159456Y3025280D1*
X3184456Y3037780D2*
X3159456Y3050280D1*
X2034456Y3037780D2*
X2084456D1*
X2059456Y3025280D1*
X2084456Y3037780D2*
X2059456Y3050280D1*
X3134456Y3637780D2*
X3184456D1*
X3159456Y3625280D1*
X3184456Y3637780D2*
X3159456Y3650280D1*
X2034456Y3637780D2*
X2084456D1*
X2059456Y3625280D1*
X2084456Y3637780D2*
X2059456Y3650280D1*
X569424Y3805278D2*
D16*
X669425D1*
Y3205278D1*
X569424D1*
Y3805278D1*
X3092681Y2066310D2*
D14*
X3132874Y2073986D1*
X3092681Y2081626D1*
X3132874Y2089267D1*
X3092682Y2096943D1*
X3113728Y2109743D2*
Y2123538D1*
X3111827Y2128101D1*
X3109881Y2129657D1*
X3106079Y2131178D1*
X3100331D1*
X3096528Y2129657D1*
X3094583Y2128101D1*
X3092682Y2123538D1*
Y2109743D1*
X3132874D1*
X3984317Y732609D2*
Y749853D1*
X3981940Y755557D1*
X3979508Y757503D1*
X3974755Y759404D1*
X3967570D1*
X3962817Y757503D1*
X3960385Y755557D1*
X3958009Y749853D1*
Y732609D1*
X4008249D1*
X3969947Y800900D2*
X3965194Y798999D1*
X3960385Y795152D1*
X3958009Y791349D1*
Y783700D1*
X3960385Y779853D1*
X3965194Y776051D1*
X3969947Y774105D1*
X3977132Y772204D1*
X3989125D1*
X3996255Y774105D1*
X4001064Y776051D1*
X4005817Y779853D1*
X4008249Y783700D1*
Y791349D1*
X4005817Y795152D1*
X4001064Y798999D1*
X3996255Y800900D1*
X3958009Y813700D2*
X4008249D1*
Y830944D1*
X4005817Y836692D1*
X4003440Y838593D1*
X3998687Y840494D1*
X3991502D1*
X3986694Y838593D1*
X3984317Y836692D1*
X3981940Y830944D1*
X3979508Y836692D1*
X3977132Y838593D1*
X3972379Y840494D1*
X3967570D1*
X3962817Y838593D1*
X3960385Y836692D1*
X3958009Y830944D1*
Y813700D1*
X3981940D2*
Y830944D1*
X3958009Y907922D2*
Y904120D1*
X3960385Y900273D1*
X3967570Y898372D1*
X4008249D1*
X3974755Y892624D2*
Y906021D1*
Y920722D2*
X3998687D1*
X4005817Y922624D1*
X4008249Y926470D1*
Y932219D1*
X4005817Y936021D1*
X3998687Y941769D1*
X3974755D2*
X4008249D1*
X3958009Y954569D2*
X4008249D1*
X3958009Y982668D2*
Y978865D1*
X3960385Y975018D1*
X3967570Y973117D1*
X4008249D1*
X3974755Y967369D2*
Y980766D1*
X3958009Y995468D2*
X3960385Y997369D1*
X3958009Y999314D1*
X3955577Y997369D1*
X3958009Y995468D1*
X3974755Y997369D2*
X4008249D1*
X3958009Y1012114D2*
X4008249D1*
X3958009Y1024914D2*
X4008249D1*
X3989125Y1037714D2*
Y1060662D1*
X3984317D1*
X3979508Y1058761D1*
X3977132Y1056860D1*
X3974755Y1053013D1*
Y1047265D1*
X3977132Y1043462D1*
X3981940Y1039616D1*
X3989125Y1037714D1*
X3993879D1*
X4001064Y1039616D1*
X4005817Y1043462D1*
X4008249Y1047265D1*
Y1053013D1*
X4005817Y1056860D1*
X4001064Y1060662D1*
X3958009Y1096410D2*
X4008249D1*
X3981940D2*
X3977132Y1092608D1*
X3974755Y1088761D1*
Y1083013D1*
X3977132Y1079210D1*
X3981940Y1075364D1*
X3989125Y1073462D1*
X3993879D1*
X4001064Y1075364D1*
X4005817Y1079210D1*
X4008249Y1083013D1*
Y1088761D1*
X4005817Y1092608D1*
X4001064Y1096410D1*
X3958009Y1148540D2*
X4008249D1*
X3981940D2*
X3977132Y1152386D1*
X3974755Y1156189D1*
Y1161937D1*
X3977132Y1165740D1*
X3981940Y1169586D1*
X3989125Y1171488D1*
X3993879D1*
X4001064Y1169586D1*
X4005817Y1165740D1*
X4008249Y1161937D1*
Y1156189D1*
X4005817Y1152386D1*
X4001064Y1148540D1*
X3974755Y1186233D2*
X4008249Y1197685D1*
X4017810Y1193882D1*
X4022619Y1190036D1*
X4024995Y1186233D1*
Y1184288D1*
X3974755Y1209181D2*
X4008249Y1197685D1*
X3958009Y1286160D2*
Y1261310D1*
X4008249D1*
Y1286160D1*
X3981940Y1261310D2*
Y1276609D1*
X3958009Y1298960D2*
X4008249D1*
X3989125Y1311760D2*
Y1334707D1*
X3984317D1*
X3979508Y1332806D1*
X3977132Y1330905D1*
X3974755Y1327058D1*
Y1321310D1*
X3977132Y1317508D1*
X3981940Y1313661D1*
X3989125Y1311760D1*
X3993879D1*
X4001064Y1313661D1*
X4005817Y1317508D1*
X4008249Y1321310D1*
Y1327058D1*
X4005817Y1330905D1*
X4001064Y1334707D1*
X3981940Y1370500D2*
X3977132Y1366653D1*
X3974755Y1362806D1*
Y1357102D1*
X3977132Y1353255D1*
X3981940Y1349453D1*
X3989125Y1347507D1*
X3993879D1*
X4001064Y1349453D1*
X4005817Y1353255D1*
X4008249Y1357102D1*
Y1362806D1*
X4005817Y1366653D1*
X4001064Y1370500D1*
X3974755Y1383300D2*
X4008249D1*
X3989125D2*
X3981940Y1385245D1*
X3977132Y1389048D1*
X3974755Y1392894D1*
Y1398642D1*
Y1420993D2*
X3977132Y1417190D1*
X3981940Y1413344D1*
X3989125Y1411442D1*
X3993879D1*
X4001064Y1413344D1*
X4005817Y1417190D1*
X4008249Y1420993D1*
Y1426741D1*
X4005817Y1430588D1*
X4001064Y1434390D1*
X3993879Y1436336D1*
X3989125D1*
X3981940Y1434390D1*
X3977132Y1430588D1*
X3974755Y1426741D1*
Y1420993D1*
Y1449136D2*
X4008249Y1456785D1*
X3974755Y1464434D1*
X4008249Y1472084D1*
X3974755Y1479733D1*
X4003440Y1494434D2*
X4005872Y1492533D1*
X4008249Y1494434D1*
X4005872Y1496380D1*
X4003440Y1494434D1*
X3981940Y1532172D2*
X3977132Y1528325D1*
X3974755Y1524478D1*
Y1518775D1*
X3977132Y1514928D1*
X3981940Y1511125D1*
X3989125Y1509180D1*
X3993879D1*
X4001064Y1511125D1*
X4005817Y1514928D1*
X4008249Y1518775D1*
Y1524478D1*
X4005817Y1528325D1*
X4001064Y1532172D1*
X3974755Y1554522D2*
X3977132Y1550720D1*
X3981940Y1546873D1*
X3989125Y1544972D1*
X3993879D1*
X4001064Y1546873D1*
X4005817Y1550720D1*
X4008249Y1554522D1*
Y1560270D1*
X4005817Y1564117D1*
X4001064Y1567920D1*
X3993879Y1569865D1*
X3989125D1*
X3981940Y1567920D1*
X3977132Y1564117D1*
X3974755Y1560270D1*
Y1554522D1*
Y1582665D2*
X4008249D1*
X3984317D2*
X3977132Y1588413D1*
X3974755Y1592260D1*
Y1597964D1*
X3977132Y1601811D1*
X3984317Y1603712D1*
X4008249D1*
X3984317D2*
X3977132Y1609460D1*
X3974755Y1613307D1*
Y1619011D1*
X3977132Y1622857D1*
X3984317Y1624803D1*
X4008249D1*
X1542170Y2245642D2*
X1563172D1*
X1551720Y2230344D1*
X1557468D1*
X1561271Y2228442D1*
X1563172Y2226541D1*
X1565118Y2220793D1*
Y2216991D1*
X1563172Y2211243D1*
X1559370Y2207396D1*
X1553622Y2205494D1*
X1547874D1*
X1542170Y2207396D1*
X1540269Y2209341D1*
X1538323Y2213144D1*
X1581118Y2245687D2*
X1596416Y2205494D1*
X1611715Y2245687D1*
X1631562Y2245642D2*
X1652564D1*
X1641112Y2230344D1*
X1646860D1*
X1650663Y2228442D1*
X1652564Y2226541D1*
X1654510Y2220793D1*
Y2216991D1*
X1652564Y2211243D1*
X1648762Y2207396D1*
X1643014Y2205494D1*
X1637266D1*
X1631562Y2207396D1*
X1629660Y2209341D1*
X1627715Y2213144D1*
X1561271Y2183142D2*
X1542170D1*
X1540269Y2165942D1*
X1542170Y2167844D1*
X1547918Y2169789D1*
X1553622D1*
X1559370Y2167844D1*
X1563216Y2164041D1*
X1565118Y2158293D1*
Y2154491D1*
X1563216Y2148743D1*
X1559370Y2144896D1*
X1553622Y2142994D1*
X1547918D1*
X1542170Y2144896D1*
X1540269Y2146841D1*
X1538323Y2150644D1*
X1581118Y2183187D2*
X1596416Y2142994D1*
X1611715Y2183187D1*
X1639211Y2183142D2*
X1633463Y2181241D1*
X1629616Y2175493D1*
X1627715Y2165942D1*
Y2160194D1*
X1629616Y2150644D1*
X1633463Y2144896D1*
X1639211Y2142994D1*
X1643014D1*
X1648762Y2144896D1*
X1652564Y2150644D1*
X1654510Y2160194D1*
Y2165942D1*
X1652564Y2175493D1*
X1648762Y2181241D1*
X1643014Y2183142D1*
X1639211D1*
X1652564Y2175493D2*
X1629616Y2150644D1*
X1564323Y2118687D2*
X1579622Y2078494D1*
X1594920Y2118687D1*
X1610920D2*
Y2078494D1*
X1653715Y2118687D2*
Y2078494D1*
X1626920Y2118687D1*
Y2078494D1*
X1698520Y1874936D2*
X1695443Y1873035D1*
X1692400Y1869188D1*
X1690844Y1865385D1*
X1689323Y1859637D1*
Y1850042D1*
X1690844Y1844339D1*
X1692400Y1840492D1*
X1695443Y1836689D1*
X1698520Y1834744D1*
X1704639D1*
X1707681Y1836689D1*
X1710759Y1840492D1*
X1712280Y1844339D1*
X1713801Y1850042D1*
Y1859637D1*
X1712280Y1865385D1*
X1710759Y1869188D1*
X1707681Y1873035D1*
X1704639Y1874936D1*
X1698520D1*
X1748037D2*
Y1834744D1*
X1726601Y1874936D1*
Y1834744D1*
X1698520Y1743687D2*
X1695443Y1741785D1*
X1692400Y1737938D1*
X1690844Y1734136D1*
X1689323Y1728388D1*
Y1718793D1*
X1690844Y1713089D1*
X1692400Y1709243D1*
X1695443Y1705440D1*
X1698520Y1703494D1*
X1704639D1*
X1707681Y1705440D1*
X1710759Y1709243D1*
X1712280Y1713089D1*
X1713801Y1718793D1*
Y1728388D1*
X1712280Y1734136D1*
X1710759Y1737938D1*
X1707681Y1741785D1*
X1704639Y1743687D1*
X1698520D1*
X1746516D2*
X1726601D1*
Y1703494D1*
Y1724541D2*
X1738840D1*
X1779230Y1743687D2*
X1759316D1*
Y1703494D1*
Y1724541D2*
X1771554D1*
X3098931Y1861225D2*
Y1841310D1*
X3139123D1*
X3118076D2*
Y1853549D1*
X3098931Y1874025D2*
X3139123D1*
X3098931Y1886825D2*
X3139123Y1908260D1*
X3098931D2*
X3139123Y1886825D1*
X633016Y1120930D2*
X644490Y1090786D1*
X655964Y1120930D1*
X673423Y1113734D2*
Y1115160D1*
X674849Y1118045D1*
X676275Y1119471D1*
X679160Y1120896D1*
X684897D1*
X687749Y1119471D1*
X689175Y1118045D1*
X690634Y1115160D1*
Y1112308D1*
X689175Y1109423D1*
X686323Y1105145D1*
X671964Y1090786D1*
X692060D1*
X799703Y1112352D2*
X798277Y1115204D1*
X795392Y1118089D1*
X792540Y1119515D1*
X786803D1*
X783918Y1118089D1*
X781066Y1115204D1*
X779607Y1112352D1*
X778181Y1108041D1*
Y1100845D1*
X779607Y1096567D1*
X781066Y1093682D1*
X783918Y1090830D1*
X786803Y1089371D1*
X792540D1*
X795392Y1090830D1*
X798277Y1093682D1*
X799703Y1096567D1*
Y1100845D1*
X792540D1*
X835799Y1119515D2*
Y1089371D1*
X815703Y1119515D1*
Y1089371D1*
X851799Y1119515D2*
Y1089371D1*
X861847D1*
X866158Y1090830D1*
X869043Y1093682D1*
X870469Y1096567D1*
X871895Y1100845D1*
Y1108041D1*
X870469Y1112352D1*
X869043Y1115204D1*
X866158Y1118089D1*
X861847Y1119515D1*
X851799D1*
X943453Y1112352D2*
X942027Y1115204D1*
X939142Y1118089D1*
X936290Y1119515D1*
X930553D1*
X927668Y1118089D1*
X924816Y1115204D1*
X923357Y1112352D1*
X921931Y1108041D1*
Y1100845D1*
X923357Y1096567D1*
X924816Y1093682D1*
X927668Y1090830D1*
X930553Y1089371D1*
X936290D1*
X939142Y1090830D1*
X942027Y1093682D1*
X943453Y1096567D1*
Y1100845D1*
X936290D1*
X979549Y1119515D2*
Y1089371D1*
X959453Y1119515D1*
Y1089371D1*
X995549Y1119515D2*
Y1089371D1*
X1005597D1*
X1009908Y1090830D1*
X1012793Y1093682D1*
X1014219Y1096567D1*
X1015645Y1100845D1*
Y1108041D1*
X1014219Y1112352D1*
X1012793Y1115204D1*
X1009908Y1118089D1*
X1005597Y1119515D1*
X995549D1*
X1114466Y1120729D2*
X1125940Y1090585D1*
X1137414Y1120729D1*
X1153414Y1114959D2*
X1156299Y1116418D1*
X1160610Y1120696D1*
Y1090585D1*
X1000372Y1855419D2*
X1001798Y1852567D1*
X1004683Y1849682D1*
X1007535Y1848256D1*
X1013272D1*
X1016157Y1849682D1*
X1019009Y1852567D1*
X1020468Y1855419D1*
X1021894Y1859730D1*
Y1866926D1*
X1020468Y1871204D1*
X1019009Y1874089D1*
X1016157Y1876941D1*
X1013272Y1878400D1*
X1007535D1*
X1004683Y1876941D1*
X1001798Y1874089D1*
X1000372Y1871204D1*
Y1866926D1*
X1007535D1*
X964276Y1848256D2*
Y1878400D1*
X984372Y1848256D1*
Y1878400D1*
X948276Y1848256D2*
Y1878400D1*
X938228D1*
X933917Y1876941D1*
X931032Y1874089D1*
X929606Y1871204D1*
X928180Y1866926D1*
Y1859730D1*
X929606Y1855419D1*
X931032Y1852567D1*
X933917Y1849682D1*
X938228Y1848256D1*
X948276D1*
X1202403Y1847517D2*
X1190929Y1877661D1*
X1179455Y1847517D1*
X1154833D2*
X1157718Y1848943D1*
X1160570Y1851828D1*
X1162029Y1854680D1*
X1163455Y1858991D1*
Y1866187D1*
X1162029Y1870465D1*
X1160570Y1873350D1*
X1157718Y1876202D1*
X1154833Y1877661D1*
X1149096D1*
X1146244Y1876202D1*
X1143359Y1873350D1*
X1141933Y1870465D1*
X1140507Y1866187D1*
Y1858991D1*
X1141933Y1854680D1*
X1143359Y1851828D1*
X1146244Y1848943D1*
X1149096Y1847517D1*
X1154833D1*
X1124507D2*
Y1869039D1*
X1123081Y1873350D1*
X1120196Y1876202D1*
X1115885Y1877661D1*
X1113033D1*
X1108722Y1876202D1*
X1105837Y1873350D1*
X1104411Y1869039D1*
Y1847517D1*
X1078363D2*
Y1877661D1*
X1088411Y1847517D2*
X1068315D1*
X2899119Y2825163D2*
X2868975D1*
X2899119Y2796286D2*
X2868975D1*
X2899119Y2812363D1*
X2868975D1*
X3455368Y2843265D2*
X3453942Y2845573D1*
X3451057Y2847855D1*
X3448205Y2849022D1*
X3443894Y2850163D1*
X3436698D1*
X3432420Y2849022D1*
X3429535Y2847855D1*
X3426683Y2845573D1*
X3425224Y2843265D1*
Y2838676D1*
X3426683Y2836394D1*
X3429535Y2834086D1*
X3432420Y2832945D1*
X3436698Y2831805D1*
X3443894D1*
X3448205Y2832945D1*
X3451057Y2834086D1*
X3453942Y2836394D1*
X3455368Y2838676D1*
Y2843265D1*
Y2819005D2*
X3433846D1*
X3429535Y2817864D1*
X3426683Y2815556D1*
X3425224Y2812107D1*
Y2809825D1*
X3426683Y2806377D1*
X3429535Y2804069D1*
X3433846Y2802928D1*
X3455368D1*
Y2782089D2*
X3425224D1*
X3455368Y2790128D2*
Y2774051D1*
X1799119Y2825163D2*
X1768975D1*
X1799119Y2796286D2*
X1768975D1*
X1799119Y2812363D1*
X1768975D1*
X2355368Y2843265D2*
X2353942Y2845573D1*
X2351057Y2847855D1*
X2348205Y2849022D1*
X2343894Y2850163D1*
X2336698D1*
X2332420Y2849022D1*
X2329535Y2847855D1*
X2326683Y2845573D1*
X2325224Y2843265D1*
Y2838676D1*
X2326683Y2836394D1*
X2329535Y2834086D1*
X2332420Y2832945D1*
X2336698Y2831805D1*
X2343894D1*
X2348205Y2832945D1*
X2351057Y2834086D1*
X2353942Y2836394D1*
X2355368Y2838676D1*
Y2843265D1*
Y2819005D2*
X2333846D1*
X2329535Y2817864D1*
X2326683Y2815556D1*
X2325224Y2812107D1*
Y2809825D1*
X2326683Y2806377D1*
X2329535Y2804069D1*
X2333846Y2802928D1*
X2355368D1*
Y2782089D2*
X2325224D1*
X2355368Y2790128D2*
Y2774051D1*
X2899119Y3425163D2*
X2868975D1*
X2899119Y3396286D2*
X2868975D1*
X2899119Y3412363D1*
X2868975D1*
X3455368Y3443265D2*
X3453942Y3445573D1*
X3451057Y3447855D1*
X3448205Y3449022D1*
X3443894Y3450163D1*
X3436698D1*
X3432420Y3449022D1*
X3429535Y3447855D1*
X3426683Y3445573D1*
X3425224Y3443265D1*
Y3438676D1*
X3426683Y3436394D1*
X3429535Y3434086D1*
X3432420Y3432945D1*
X3436698Y3431805D1*
X3443894D1*
X3448205Y3432945D1*
X3451057Y3434086D1*
X3453942Y3436394D1*
X3455368Y3438676D1*
Y3443265D1*
Y3419005D2*
X3433846D1*
X3429535Y3417864D1*
X3426683Y3415556D1*
X3425224Y3412107D1*
Y3409825D1*
X3426683Y3406377D1*
X3429535Y3404069D1*
X3433846Y3402928D1*
X3455368D1*
Y3382089D2*
X3425224D1*
X3455368Y3390128D2*
Y3374051D1*
X1799119Y3425163D2*
X1768975D1*
X1799119Y3396286D2*
X1768975D1*
X1799119Y3412363D1*
X1768975D1*
X2355368Y3443265D2*
X2353942Y3445573D1*
X2351057Y3447855D1*
X2348205Y3449022D1*
X2343894Y3450163D1*
X2336698D1*
X2332420Y3449022D1*
X2329535Y3447855D1*
X2326683Y3445573D1*
X2325224Y3443265D1*
Y3438676D1*
X2326683Y3436394D1*
X2329535Y3434086D1*
X2332420Y3432945D1*
X2336698Y3431805D1*
X2343894D1*
X2348205Y3432945D1*
X2351057Y3434086D1*
X2353942Y3436394D1*
X2355368Y3438676D1*
Y3443265D1*
Y3419005D2*
X2333846D1*
X2329535Y3417864D1*
X2326683Y3415556D1*
X2325224Y3412107D1*
Y3409825D1*
X2326683Y3406377D1*
X2329535Y3404069D1*
X2333846Y3402928D1*
X2355368D1*
Y3382089D2*
X2325224D1*
X2355368Y3390128D2*
Y3374051D1*
X1262538Y3052840D2*
D173*
X1253359Y3082984D1*
X1244180Y3052840D1*
X1234580D2*
Y3082984D1*
X1224234D1*
X1220785Y3081525D1*
X1219644Y3080099D1*
X1218503Y3077247D1*
Y3072936D1*
X1219644Y3070051D1*
X1220785Y3068625D1*
X1224233Y3067199D1*
X1220785Y3065740D1*
X1219644Y3064314D1*
X1218503Y3061462D1*
Y3058577D1*
X1219644Y3055725D1*
X1220785Y3054266D1*
X1224233Y3052840D1*
X1234580D1*
Y3067199D2*
X1224233D1*
X1190518Y3082984D2*
X1199724Y3052840D1*
X1208903Y3082984D1*
X1205454Y3072936D2*
X1193967D1*
X1172880Y3052840D2*
Y3082984D1*
X1180918Y3052840D2*
X1164841D1*
X1155242Y3067929D2*
X1141977D1*
X1264987Y3182793D2*
X1255808Y3212937D1*
X1246629Y3182793D1*
X1237029D2*
Y3212937D1*
X1226682D1*
X1223234Y3211478D1*
X1222093Y3210052D1*
X1220952Y3207200D1*
Y3202889D1*
X1222093Y3200004D1*
X1223233Y3198578D1*
X1226682Y3197152D1*
X1223233Y3195693D1*
X1222093Y3194267D1*
X1220952Y3191415D1*
Y3188530D1*
X1222093Y3185678D1*
X1223233Y3184219D1*
X1226682Y3182793D1*
X1237029D1*
Y3197152D2*
X1226682D1*
X1192967Y3212937D2*
X1202173Y3182793D1*
X1211352Y3212937D1*
X1207903Y3202889D2*
X1196416D1*
X1175329Y3182793D2*
Y3212937D1*
X1183367Y3182793D2*
X1167290D1*
X1147370Y3184965D2*
Y3210798D1*
X1157690Y3197898D2*
X1137024D1*
M02*
