G04 DipTrace 3.0.0.1*
G04 panel1.GTP*
%MOIN*%
G04 #@! TF.FileFunction,Paste,Top*
G04 #@! TF.Part,Single*
%AMOUTLINE8*
4,1,12,
0.058955,0.243994,
0.137695,0.243994,
0.137695,-0.243994,
0.058955,-0.243994,
0.058955,-0.314861,
-0.058955,-0.314861,
-0.058955,-0.243994,
-0.137695,-0.243994,
-0.137695,0.243994,
-0.058955,0.243994,
-0.058955,0.314861,
0.058955,0.314861,
0.058955,0.243994,
0*%
%ADD97R,0.017517X0.03917*%
%ADD99R,0.015548X0.070666*%
%ADD101R,0.07854X0.03917*%
%ADD103O,0.027359X0.007674*%
%ADD105O,0.007674X0.027359*%
%ADD107R,0.023422X0.07854*%
%ADD109R,0.043107X0.023422*%
%ADD111R,0.07854X0.023422*%
%ADD113R,0.023422X0.043107*%
%ADD123R,0.218304X0.241926*%
%ADD125R,0.03917X0.108068*%
%ADD127R,0.025391X0.041139*%
%ADD129R,0.241926X0.218304*%
%ADD131R,0.108068X0.03917*%
%ADD135R,0.112005X0.259643*%
%ADD155R,0.110824X0.07854*%
%ADD157R,0.023422X0.023422*%
%ADD159R,0.062792X0.070666*%
%ADD161R,0.050981X0.058855*%
%ADD163R,0.176965X0.082477*%
%ADD165R,0.03917X0.043107*%
%ADD167R,0.043107X0.03917*%
%ADD169R,0.1998X0.0998*%
%ADD183OUTLINE8*%
%FSLAX26Y26*%
G04*
G70*
G90*
G75*
G01*
G04 TopPaste*
%LPD*%
D169*
X3573544Y848445D3*
Y1548445D3*
D167*
X1963264Y1748441D3*
X1896335D3*
X2190099Y2167189D3*
X2257028D3*
D165*
X2692293Y1835945D3*
Y1769016D3*
X3623544Y610945D3*
Y677874D3*
Y523445D3*
Y456516D3*
D167*
X1963257Y1967141D3*
X1896328D3*
D165*
X3179936Y2260920D3*
Y2193991D3*
D167*
X3507008Y710945D3*
X3440079D3*
X2640079Y960945D3*
X2707008D3*
Y848445D3*
X2640079D3*
Y1017194D3*
X2707008D3*
D163*
X2121378Y1385945D3*
X2475709D3*
D161*
X1967200Y1660840D3*
X1892397D3*
D159*
X2304794Y1998446D3*
X2194558D3*
D165*
X2492294Y2048445D3*
Y1981516D3*
D167*
X1963260Y1188603D3*
X1896331D3*
X2523544Y2142196D3*
X2456614D3*
D165*
X3196956Y2846244D3*
Y2779315D3*
X2096956Y2846244D3*
Y2779315D3*
X3196956Y3446244D3*
Y3379315D3*
X2096956Y3446244D3*
Y3379315D3*
D167*
X860960Y3492775D3*
X927889D3*
X710962Y3592780D3*
X777891D3*
X785961Y3111528D3*
X852890D3*
X721639D3*
X654710D3*
X635961Y2942778D3*
X702890D3*
X840390D3*
X773461D3*
X704709Y2992778D3*
X771638D3*
X960961Y2692777D3*
X1027890D3*
X1721330Y2160946D3*
X1788259D3*
X1721330Y2223446D3*
X1788259D3*
D157*
X2630236Y904696D3*
X2716851D3*
Y785945D3*
X2630236D3*
D165*
X3179936Y1842126D3*
Y1909055D3*
D167*
X1721330Y2098446D3*
X1788259D3*
D165*
X2934456Y2846244D3*
Y2779315D3*
X3384456Y2846244D3*
Y2779315D3*
X1834456Y2846244D3*
Y2779315D3*
X2284456Y2846244D3*
Y2779315D3*
X2934456Y3446244D3*
Y3379315D3*
X3384456Y3446244D3*
Y3379315D3*
X1834456Y3446244D3*
Y3379315D3*
X2284456Y3446244D3*
Y3379315D3*
D155*
X515658Y1741754D3*
X515697Y2132305D3*
X772390D3*
X772440Y1741754D3*
D135*
X2079793Y1773445D3*
X2302234D3*
D131*
X966194Y1426792D3*
Y1247264D3*
D129*
X1229974Y1337028D3*
D127*
X2098458Y2231189D3*
X2023655D3*
X2061057Y2140638D3*
D131*
X966194Y1726790D3*
Y1547263D3*
D129*
X1229974Y1637027D3*
D125*
X529285Y1196672D3*
X708813D3*
D123*
X619049Y1460452D3*
D131*
X3169101Y3127544D3*
Y2948016D3*
D129*
X3432881Y3037780D3*
D131*
X2069101Y3127544D3*
Y2948016D3*
D129*
X2332881Y3037780D3*
D131*
X3169101Y3727544D3*
Y3548016D3*
D129*
X3432881Y3637780D3*
D131*
X2069101Y3727544D3*
Y3548016D3*
D129*
X2332881Y3637780D3*
G36*
X701209Y2502421D2*
X687835D1*
Y2520135D1*
X701209D1*
Y2502421D1*
G37*
G36*
X675627D2*
X662237D1*
Y2520135D1*
X675627D1*
Y2502421D1*
G37*
G36*
X650029D2*
X636654D1*
Y2520135D1*
X650029D1*
Y2502421D1*
G37*
G36*
X726807D2*
X713417D1*
Y2520135D1*
X726807D1*
Y2502421D1*
G37*
G36*
Y2615422D2*
X713417D1*
Y2633137D1*
X726807D1*
Y2615422D1*
G37*
G36*
X701209D2*
X687835D1*
Y2633137D1*
X701209D1*
Y2615422D1*
G37*
G36*
X675627D2*
X662237D1*
Y2633137D1*
X675627D1*
Y2615422D1*
G37*
G36*
X650029D2*
X636654D1*
Y2633137D1*
X650029D1*
Y2615422D1*
G37*
G36*
X687236Y2585892D2*
X727391D1*
Y2529001D1*
X687236D1*
Y2585892D1*
G37*
G36*
X637238D2*
X677392D1*
Y2529001D1*
X637238D1*
Y2585892D1*
G37*
G36*
X772816Y2548492D2*
X790530D1*
Y2561867D1*
X772816D1*
Y2548492D1*
G37*
G36*
Y2574075D2*
X790530D1*
Y2587464D1*
X772816D1*
Y2574075D1*
G37*
G36*
Y2599672D2*
X790530D1*
Y2613047D1*
X772816D1*
Y2599672D1*
G37*
G36*
Y2522894D2*
X790530D1*
Y2536284D1*
X772816D1*
Y2522894D1*
G37*
G36*
X885817D2*
X903532D1*
Y2536284D1*
X885817D1*
Y2522894D1*
G37*
G36*
Y2548492D2*
X903532D1*
Y2561867D1*
X885817D1*
Y2548492D1*
G37*
G36*
Y2574075D2*
X903532D1*
Y2587464D1*
X885817D1*
Y2574075D1*
G37*
G36*
Y2599672D2*
X903532D1*
Y2613047D1*
X885817D1*
Y2599672D1*
G37*
G36*
X856287Y2562465D2*
X799396D1*
Y2522311D1*
X856287D1*
Y2562465D1*
G37*
G36*
Y2612464D2*
X799396D1*
Y2572309D1*
X856287D1*
Y2612464D1*
G37*
D165*
X2048555Y1964929D3*
Y2031859D3*
X2111062D3*
Y1964929D3*
X1767293Y1990374D3*
Y1923445D3*
X1823542D3*
Y1990374D3*
X3179936Y1979641D3*
Y2046570D3*
D167*
X1925759Y2098446D3*
X1858830D3*
D161*
X1967197Y1382352D3*
X1892394D3*
D165*
X2342324Y2221206D3*
Y2288135D3*
D167*
X2113242Y2292146D3*
X2046313D3*
X3050740Y2192200D3*
X2983811D3*
X3050890Y2304670D3*
X2983961D3*
X3050890Y2248414D3*
X2983961D3*
D165*
X1973545Y1248889D3*
Y1315818D3*
X1886045Y1248889D3*
Y1315818D3*
X2598544Y688159D3*
Y621230D3*
D167*
X1925759Y2160946D3*
X1858830D3*
X1925759Y2223446D3*
X1858830D3*
D165*
X3059456Y2846244D3*
Y2779315D3*
X3134456Y2846244D3*
Y2779315D3*
X3259456D3*
Y2846244D3*
X2996956D3*
Y2779315D3*
X3321956D3*
Y2846244D3*
X1959456D3*
Y2779315D3*
X2034456Y2846244D3*
Y2779315D3*
X2159456D3*
Y2846244D3*
X1896956D3*
Y2779315D3*
X2221956D3*
Y2846244D3*
X3059456Y3446244D3*
Y3379315D3*
X3134456Y3446244D3*
Y3379315D3*
X3259456D3*
Y3446244D3*
X2996956D3*
Y3379315D3*
X3321956D3*
Y3446244D3*
X1959456D3*
Y3379315D3*
X2034456Y3446244D3*
Y3379315D3*
X2159456D3*
Y3446244D3*
X1896956D3*
Y3379315D3*
X2221956D3*
Y3446244D3*
D167*
X927889Y3592777D3*
X860960D3*
X777891Y3542778D3*
X710962D3*
Y3492778D3*
X777891D3*
X927889Y3542776D3*
X860960D3*
D161*
X700772Y2824028D3*
X775575D3*
D167*
X702890Y2886527D3*
X635961D3*
X773461D3*
X840390D3*
X685960Y2692777D3*
X752889D3*
X1027890Y2617778D3*
X960961D3*
Y2749028D3*
X1027890D3*
X685960D3*
X752889D3*
D113*
X1892398Y1807792D3*
X1929799D3*
X1967201D3*
Y1914091D3*
X1929799D3*
X1892398D3*
D111*
X2773544Y1885945D3*
Y1835945D3*
Y1785945D3*
Y1735945D3*
X2986142D3*
Y1785945D3*
Y1835945D3*
Y1885945D3*
D109*
X2276725Y2217268D3*
Y2254670D3*
Y2292071D3*
X2170425D3*
Y2254670D3*
Y2217268D3*
D107*
X2904793Y2292244D3*
X2854793D3*
X2804793D3*
X2754793D3*
Y2079646D3*
X2804793D3*
X2854793D3*
X2904793D3*
D105*
X3434173Y499922D3*
X3449922D3*
X3465670D3*
X3481418D3*
X3497166D3*
D103*
X3534567Y521575D3*
Y537323D3*
Y553071D3*
Y568819D3*
Y584567D3*
D105*
X3497166Y621969D3*
X3481418D3*
X3465670D3*
X3449922D3*
X3434173D3*
D103*
X3412520Y584567D3*
Y568819D3*
Y553071D3*
Y537323D3*
Y521575D3*
X3534567Y600315D3*
X3412520D3*
D105*
X3512914Y499922D3*
Y621969D3*
D101*
X3279946Y2267170D3*
Y2208114D3*
Y2149059D3*
Y2090004D3*
Y2030949D3*
Y1971894D3*
Y1912839D3*
Y1853784D3*
Y1794729D3*
Y1735673D3*
X3909868D3*
Y2030949D3*
Y2267170D3*
D111*
X1968370Y1035767D3*
Y985767D3*
Y935767D3*
Y885767D3*
Y835767D3*
Y785767D3*
Y735767D3*
Y685767D3*
Y635767D3*
Y585767D3*
X2503803D3*
Y635767D3*
Y685767D3*
Y735767D3*
Y785767D3*
Y835767D3*
Y885767D3*
Y935767D3*
Y985767D3*
Y1035767D3*
D183*
X2236087Y810767D3*
D99*
X2553907Y1821772D3*
X2579498D3*
X2605088D3*
X2630679D3*
Y2050118D3*
X2605088D3*
X2579498D3*
X2553907D3*
D97*
X2447658Y2191013D3*
X2473248D3*
X2498839D3*
X2524429D3*
Y2293376D3*
X2498839D3*
X2473248D3*
X2447658D3*
G36*
X892354Y3329841D2*
X860861D1*
Y3290459D1*
X892354D1*
Y3329841D1*
G37*
G36*
Y3282597D2*
X860861D1*
Y3243214D1*
X892354D1*
Y3282597D1*
G37*
G36*
X852988D2*
X821495D1*
Y3243214D1*
X852988D1*
Y3282597D1*
G37*
G36*
Y3329841D2*
X821495D1*
Y3290459D1*
X852988D1*
Y3329841D1*
G37*
G36*
X920897Y3334755D2*
X900227D1*
Y3324909D1*
X920897D1*
Y3334755D1*
G37*
G36*
X900227Y3248147D2*
X920897D1*
Y3238301D1*
X900227D1*
Y3248147D1*
G37*
G36*
X813621Y3334755D2*
X792951D1*
Y3324909D1*
X813621D1*
Y3334755D1*
G37*
G36*
X792951Y3248147D2*
X813621D1*
Y3238301D1*
X792951D1*
Y3248147D1*
G37*
G36*
X892354Y3381016D2*
X900227D1*
Y3351498D1*
X892354D1*
Y3381016D1*
G37*
G36*
X876607D2*
X884480D1*
Y3351479D1*
X876607D1*
Y3381016D1*
G37*
G36*
X860861D2*
X868734D1*
Y3351479D1*
X860861D1*
Y3381016D1*
G37*
G36*
X845114D2*
X852988D1*
Y3351479D1*
X845114D1*
Y3381016D1*
G37*
G36*
X829368D2*
X837241D1*
Y3351479D1*
X829368D1*
Y3381016D1*
G37*
G36*
X813621D2*
X821495D1*
Y3351479D1*
X813621D1*
Y3381016D1*
G37*
G36*
X892354Y3221577D2*
X900227D1*
Y3192040D1*
X892354D1*
Y3221577D1*
G37*
G36*
X876607D2*
X884480D1*
Y3192040D1*
X876607D1*
Y3221577D1*
G37*
G36*
X860861D2*
X868734D1*
Y3192040D1*
X860861D1*
Y3221577D1*
G37*
G36*
X845114D2*
X852988D1*
Y3192040D1*
X845114D1*
Y3221577D1*
G37*
G36*
X829368D2*
X837241D1*
Y3192040D1*
X829368D1*
Y3221577D1*
G37*
G36*
X813621D2*
X821495D1*
Y3192040D1*
X813621D1*
Y3221577D1*
G37*
G36*
X865783Y2723632D2*
X893344D1*
Y2713795D1*
X865783D1*
Y2723632D1*
G37*
G36*
Y2703951D2*
X893344D1*
Y2694107D1*
X865783D1*
Y2703951D1*
G37*
G36*
Y2684263D2*
X893344D1*
Y2674419D1*
X865783D1*
Y2684263D1*
G37*
G36*
X820506Y2723632D2*
X848067D1*
Y2713795D1*
X820506D1*
Y2723632D1*
G37*
G36*
Y2703951D2*
X848067D1*
Y2694107D1*
X820506D1*
Y2703951D1*
G37*
G36*
Y2684263D2*
X848067D1*
Y2674419D1*
X820506D1*
Y2684263D1*
G37*
M02*
