G04 DipTrace 3.0.0.1*
G04 panel1.GTL*
%MOIN*%
G04 #@! TF.FileFunction,Copper,L1,Top*
G04 #@! TF.Part,Single*
%AMOUTLINE0*
4,1,16,
-0.047244,0.045472,
0.047244,0.045472,
0.047244,-0.045472,
0.029528,-0.045472,
0.029528,-0.029331,
0.021654,-0.029331,
0.021654,-0.045472,
0.003937,-0.045472,
0.003937,-0.029331,
-0.003937,-0.029331,
-0.003937,-0.045472,
-0.021654,-0.045472,
-0.021654,-0.029331,
-0.029528,-0.029331,
-0.029528,-0.045472,
-0.047244,-0.045472,
-0.047244,0.045472,
0*%
%AMOUTLINE3*
4,1,16,
0.045472,0.047244,
0.045472,-0.047244,
-0.045472,-0.047244,
-0.045472,-0.029528,
-0.029331,-0.029528,
-0.029331,-0.021654,
-0.045472,-0.021654,
-0.045472,-0.003937,
-0.029331,-0.003937,
-0.029331,0.003937,
-0.045472,0.003937,
-0.045472,0.021654,
-0.029331,0.021654,
-0.029331,0.029528,
-0.045472,0.029528,
-0.045472,0.047244,
0.045472,0.047244,
0*%
%AMOUTLINE6*
4,1,12,
0.059055,0.244094,
0.137795,0.244094,
0.137795,-0.244094,
0.059055,-0.244094,
0.059055,-0.314961,
-0.059055,-0.314961,
-0.059055,-0.244094,
-0.137795,-0.244094,
-0.137795,0.244094,
-0.059055,0.244094,
-0.059055,0.314961,
0.059055,0.314961,
0.059055,0.244094,
0*%
%AMOUTLINE9*
4,1,12,
0.064961,0.048228,
0.064961,0.038386,
0.038386,0.038386,
0.038386,-0.038386,
0.064961,-0.038386,
0.064961,-0.048228,
-0.064961,-0.048228,
-0.064961,-0.038386,
-0.038386,-0.038386,
-0.038386,0.038386,
-0.064961,0.038386,
-0.064961,0.048228,
0.064961,0.048228,
0*%
%AMOUTLINE12*
4,1,5,
0.016732,-0.005512,
-0.016732,-0.005512,
-0.016732,0.005512,
0.012795,0.005512,
0.016732,0.001575,
0.016732,-0.005512,
0*%
G04 #@! TA.AperFunction,Conductor*
%ADD14C,0.008*%
%ADD15C,0.02*%
%ADD16C,0.01*%
G04 #@! TA.AperFunction,CopperBalancing*
%ADD17C,0.025*%
G04 #@! TA.AperFunction,Conductor*
%ADD18C,0.03*%
%ADD19C,0.05*%
%ADD20C,0.007874*%
%ADD21C,0.06*%
%ADD23C,0.4*%
%ADD24R,0.2X0.1*%
%ADD25R,0.043307X0.03937*%
%ADD26R,0.03937X0.043307*%
%ADD28R,0.177165X0.082677*%
%ADD29R,0.051181X0.059055*%
%ADD30R,0.062992X0.070866*%
%ADD32R,0.023622X0.023622*%
%ADD33R,0.111024X0.07874*%
G04 #@! TA.AperFunction,ComponentPad*
%ADD34R,0.1X0.1*%
%ADD35C,0.1*%
%ADD36C,0.055118*%
%ADD37R,0.055118X0.055118*%
%ADD38C,0.03937*%
%ADD39R,0.066929X0.066929*%
%ADD40C,0.066929*%
%ADD41R,0.3X0.4*%
%ADD42R,0.03X0.06*%
%ADD43R,0.112205X0.259843*%
%ADD46R,0.108268X0.03937*%
%ADD47R,0.242126X0.218504*%
%ADD49R,0.025591X0.041339*%
%ADD51R,0.03937X0.108268*%
%ADD52R,0.218504X0.242126*%
%ADD55R,0.017717X0.024803*%
%ADD56R,0.024803X0.017717*%
G04 #@! TA.AperFunction,ComponentPad*
%ADD57C,0.051181*%
%ADD58C,0.059055*%
%ADD60R,0.023622X0.043307*%
%ADD61R,0.07874X0.023622*%
%ADD63R,0.043307X0.023622*%
%ADD64R,0.023622X0.07874*%
%ADD66O,0.007874X0.027559*%
%ADD67O,0.027559X0.007874*%
%ADD70R,0.07874X0.03937*%
%ADD71R,0.015748X0.070866*%
%ADD73R,0.017717X0.03937*%
%ADD76O,0.007874X0.033465*%
%ADD78R,0.029528X0.011024*%
%ADD175OUTLINE0*%
%ADD178OUTLINE3*%
%ADD181OUTLINE6*%
%ADD184OUTLINE9*%
%ADD187OUTLINE12*%
%FSLAX26Y26*%
G04*
G70*
G90*
G75*
G01*
G04 Top*
%LPD*%
X1925759Y2160946D2*
D14*
X1961045D1*
X1979793Y2179694D1*
Y2217194D1*
X1993788Y2231189D1*
X2023655D1*
X2170425Y2254670D2*
X2136019D1*
X2123544Y2242194D1*
Y2204696D1*
X2111044Y2192196D1*
X2036044D1*
X2023655Y2204584D1*
Y2231189D1*
X1823544Y2510945D2*
X1923544D1*
X1823544D2*
D15*
X1854793D1*
X1873544Y2492194D1*
Y2360945D1*
X1898544Y2335945D1*
X1948544D1*
X1979793Y2304696D1*
Y2279694D1*
Y2245184D1*
X1993788Y2231189D1*
X1948544Y2317194D2*
Y2335945D1*
X1986044Y2279694D2*
X1979793D1*
X966194Y1726790D2*
D16*
X1035537D1*
X1056549Y1705778D1*
Y1455778D1*
X1031549Y1430778D1*
X966194D1*
Y1426792D1*
X981549Y1780780D2*
Y1726790D1*
X966194D1*
X529285Y1196672D2*
Y1303515D1*
X544049Y1318278D1*
X731549D1*
X756549Y1343278D1*
X2503803Y685767D2*
D14*
X2429971D1*
X2042294D2*
X1968370D1*
X1861044Y710945D2*
Y898445D1*
X1898544Y935945D1*
X1968192D1*
X1968370Y935767D1*
X2503803Y685767D2*
X2596151D1*
X2598544Y688159D1*
X2506196D1*
X2503803Y685767D1*
X2548544Y1898445D2*
X2529793Y1879694D1*
Y1685945D1*
X2823544Y1392194D1*
Y792196D1*
X2723544Y692196D1*
X2602580D1*
X2598544Y688159D1*
X1721330Y2223446D2*
Y2160946D1*
Y2098446D2*
Y2160946D1*
Y2223446D2*
Y2273446D1*
X2048555Y2031859D2*
X2011042D1*
Y2029696D1*
X2194558Y1998446D2*
D17*
X2179793Y2013212D1*
X2194558Y1998446D2*
X2179793Y1983681D1*
Y1942194D1*
X2194558Y1998446D2*
X2211044Y1981961D1*
Y1942194D1*
X2475709Y1385945D2*
D14*
X2517294Y1344360D1*
Y1310945D1*
Y1279694D1*
Y1248445D1*
X2486044D1*
Y1279696D1*
Y1310945D1*
X2454794D1*
Y1279696D1*
Y1248445D1*
X2423544D1*
Y1279696D1*
Y1310945D1*
X1892397Y1660840D2*
X1892290Y1660946D1*
X1848544D1*
X1811042D1*
X1848544D2*
Y1698445D1*
Y1735945D1*
Y1773445D1*
Y1810945D1*
X1811044D1*
Y1773445D1*
Y1735945D1*
Y1698445D1*
X1811042D1*
X2179794Y1910944D2*
X2179793Y1942194D1*
X2211044D2*
Y1910944D1*
X2257028Y2167189D2*
X2298537D1*
X2342324Y2221206D2*
X2342294D1*
Y2167196D1*
X2498839Y2191013D2*
X2498544D1*
Y2235945D1*
X2046313Y2292146D2*
Y2275676D1*
X2061044Y2260945D1*
Y2242196D1*
X2492294Y1981516D2*
X2448544D1*
X2456614Y2142196D2*
Y2100267D1*
X2454793Y2098445D1*
X2707008Y960945D2*
Y1017194D1*
X2704793D1*
Y1054696D1*
X2754793Y2292244D2*
X2804793D1*
X2854793D1*
X2904793D1*
X2754793D2*
Y2292196D1*
X2711044D1*
X3029924Y2092149D2*
X3029793D1*
Y2148445D1*
X3179936Y2193991D2*
X3140496D1*
X3129793Y2204694D1*
X3179936Y1842126D2*
X3268289D1*
X3279946Y1853784D1*
X3343205D1*
X3342293Y1854696D1*
X3573544Y1198445D2*
X3836044D1*
X1823542Y1990374D2*
X1852971D1*
X1867293Y2004696D1*
X2692293Y1769016D2*
Y1729694D1*
X2686044Y1723445D1*
X2630679Y2050118D2*
Y2103810D1*
X2629794Y2104694D1*
X2986142Y1735945D2*
X2917294D1*
X3279946Y2149059D2*
X3216679D1*
X3211044Y2154694D1*
X3909868Y2267170D2*
X3973517D1*
X3909868Y2030949D2*
X3966041D1*
X3967294Y2029696D1*
X3909868Y1735673D2*
X3967021Y1735945D1*
X3623544Y677874D2*
X3602973D1*
X3586044Y660945D1*
Y598445D1*
X3572166Y584567D1*
X3534567D1*
X3434173Y621969D2*
Y705040D1*
X3440079Y710945D1*
X3412520Y584567D2*
X3387423D1*
X3342294Y629696D1*
Y729694D1*
X3440079Y710945D2*
Y738160D1*
X3423544Y754696D1*
X3623544Y677874D2*
X3650364D1*
X3667293Y660945D1*
X3623544Y456516D2*
X3669114D1*
X1968370Y735767D2*
X1929616D1*
X1911044Y717194D1*
Y523445D1*
X1973544Y460945D1*
X2623544D1*
X2854793Y692194D1*
Y1404696D1*
X2554793Y1704696D1*
Y1822658D1*
X2553907Y1821772D1*
X2579498D2*
Y1723740D1*
X2886044Y1417194D1*
Y673444D1*
X2642294Y429694D1*
X1967294D1*
X1892293Y504696D1*
Y860945D1*
X1917114Y885767D1*
X1968370D1*
X2503803Y735767D2*
X2723365D1*
X2792293Y804694D1*
Y1379696D1*
X2504793Y1667196D1*
Y1904693D1*
X2529794Y1929694D1*
X2586045D1*
X2604793Y1910946D1*
Y1822067D1*
X2605088Y1821772D1*
X2854793Y2079646D2*
Y2167194D1*
X2873544Y2185945D1*
X2977557D1*
X2983811Y2192200D1*
X2992424Y2092149D2*
Y2183587D1*
X2983811Y2192200D1*
X2503803Y835767D2*
X2561222D1*
X2586044Y810945D1*
X2661044D1*
X2673544Y823445D1*
Y992194D1*
X2648544Y1017194D1*
X2640079D1*
X1858830Y2098446D2*
X1788259D1*
X3534567Y568819D2*
X3606418D1*
X3623544Y585945D1*
Y610945D1*
X3567231Y2794029D2*
D16*
Y2830004D1*
X3521956Y2875280D1*
X3434456D1*
X3405420Y2846244D1*
X3384456D1*
X3567231Y2794029D2*
X3620381D1*
X2934456Y2846244D2*
Y2850280D1*
X2871956D1*
X1892398Y1914091D2*
D14*
Y1963210D1*
X1896328Y1967141D1*
X1929799Y1807792D2*
D18*
Y1842202D1*
X1948544Y1860946D1*
X2073544D1*
Y1773445D1*
X2079793D1*
X1963257Y1967141D2*
D14*
X1967238D1*
X1998544Y1998446D1*
X2136041D1*
X2142293Y1992194D1*
Y1904696D1*
X2098542Y1860945D1*
Y1773445D1*
X2079793D1*
X1823542Y1923445D2*
X1767293D1*
X1929799Y1914091D2*
X1929793Y1914084D1*
Y1892194D1*
X1904794Y1867196D1*
X1861042D1*
X1823542Y1904696D1*
Y1923445D1*
X1592293Y1785945D2*
X1729793Y1923445D1*
X1767293D1*
X2048555Y1964929D2*
X2111062D1*
X1967201Y1914091D2*
X2026689D1*
X2048555Y1935957D1*
Y1964929D1*
X3726680Y2794029D2*
D16*
Y2792503D1*
X3665706Y2731529D1*
X3303206D1*
X3259456Y2775280D1*
Y2779315D1*
X3134456Y2846244D2*
Y2825280D1*
X3146956Y2812780D1*
X3484454D1*
X3540705Y2756529D1*
X3636030D1*
X3673530Y2794029D1*
X1886045Y1315818D2*
D14*
X1909666D1*
X1917293Y1323445D1*
Y1357453D1*
X1892394Y1382352D1*
X1963260Y1188603D2*
Y1238604D1*
X1973545Y1248889D1*
X1963260Y1188603D2*
X1957452D1*
X1936044Y1167194D1*
Y1135945D1*
X1948544Y1123445D1*
X2011044D1*
X2073544Y1185945D1*
X2236044D1*
X2286044Y1235945D1*
Y1517196D1*
X2404793Y1635945D1*
Y2148445D1*
X2379793Y2173445D1*
Y2223444D1*
X2404794Y2248445D1*
X2448544D1*
X2473544Y2223445D1*
Y2191309D1*
X2473248Y2191013D1*
X1896331Y1188603D2*
Y1238603D1*
X1886045Y1248889D1*
X1896331Y1188603D2*
Y1188156D1*
X1917293Y1167194D1*
Y1129696D1*
X1942293Y1104696D1*
X2017294D1*
X2079794Y1167196D1*
X2242294D1*
X2304793Y1229694D1*
Y1510944D1*
X2423544Y1629694D1*
Y2160945D1*
X2398544Y2185945D1*
Y2217194D1*
X2411044Y2229694D1*
X2442294D1*
X2448544Y2223445D1*
Y2191899D1*
X2447658Y2191013D1*
X1823544Y2410945D2*
Y2285945D1*
X1848544Y2260945D1*
X1886044D1*
X1923544Y2223445D1*
Y2225662D1*
X1925759Y2223446D1*
X2996956Y2779315D2*
D16*
X2934456D1*
X3321956D2*
X3384456D1*
X3059456Y2846244D2*
Y2900280D1*
X3107192Y2948016D1*
X3169101D1*
X2996956Y2846244D2*
X3059456D1*
X2467231Y2794029D2*
Y2830004D1*
X2421956Y2875280D1*
X2334456D1*
X2305420Y2846244D1*
X2284456D1*
X2467231Y2794029D2*
X2520381D1*
X1834456Y2846244D2*
Y2850280D1*
X1771956D1*
X2626680Y2794029D2*
Y2792503D1*
X2565706Y2731529D1*
X2203206D1*
X2159456Y2775280D1*
Y2779315D1*
X2034456Y2846244D2*
Y2825280D1*
X2046956Y2812780D1*
X2384454D1*
X2440705Y2756529D1*
X2536030D1*
X2573530Y2794029D1*
X1896956Y2779315D2*
X1834456D1*
X2716851Y785945D2*
D14*
Y798889D1*
X2707008Y808731D1*
Y848445D1*
Y863159D1*
X2717294Y873445D1*
Y904252D1*
X2716851Y904696D1*
X2630236D2*
Y951103D1*
X2640079Y960945D1*
X2630236Y904696D2*
X2592293D1*
X2561222Y935767D1*
X2503803D1*
Y885767D2*
X2561222D1*
X2598544Y848445D1*
X2640079D1*
X2221956Y2779315D2*
D16*
X2284456D1*
X1973545Y1315818D2*
D14*
X1949920D1*
X1942293Y1323445D1*
Y1357448D1*
X1967197Y1382352D1*
X1968370Y635767D2*
X2035865D1*
X2036044Y635945D1*
X2067293D1*
Y604696D1*
Y573445D1*
X2036044Y635945D2*
Y604696D1*
Y573445D1*
X2503803Y635767D2*
X2436222D1*
X2436044Y635945D1*
X2404793D1*
X2436044D2*
Y604696D1*
Y573445D1*
X2404793Y635945D2*
Y604696D1*
Y573445D1*
X2404794D1*
X2117293Y1242194D2*
X2148544D1*
X1967201Y1807792D2*
D18*
Y1752378D1*
X1963264Y1748441D1*
X1967200Y1660840D2*
D14*
X1961044Y1654684D1*
Y1579694D1*
X1954794Y1573445D1*
X1567294D1*
X1536044Y1604696D1*
Y1985945D1*
X1567294Y2017196D1*
X1748544D1*
X1767293Y1998446D1*
Y1990374D1*
Y1998446D2*
Y2010944D1*
X1792294Y2035945D1*
X1904793D1*
X1925759Y2056911D1*
Y2098446D1*
X2630236Y785945D2*
X2567293D1*
X1959456Y2846244D2*
D16*
Y2900280D1*
X2007192Y2948016D1*
X2069101D1*
X1896956Y2846244D2*
X1959456D1*
X2113242Y2292146D2*
D14*
X2098458Y2277362D1*
Y2231189D1*
X2113242Y2292146D2*
X2113317Y2292071D1*
X2170425D1*
X2276725Y2217268D2*
Y2254670D1*
Y2292071D1*
X2338389D1*
X2342324Y2288135D1*
X2096956Y2779315D2*
D16*
X2071956D1*
X2034456D1*
X1996956D1*
X1959456D1*
X2069101Y3127544D2*
X2157192D1*
X2184456Y3100280D1*
Y2912780D1*
X2159456Y2887780D1*
X2014062D1*
X1996956Y2870673D1*
Y2779315D1*
X2221956Y2846244D2*
Y2926855D1*
X2332881Y3037780D1*
X2221956Y2846244D2*
X2159456D1*
X2096956D1*
X3567231Y3394029D2*
Y3430004D1*
X3521956Y3475280D1*
X3434456D1*
X3405420Y3446244D1*
X3384456D1*
X3567231Y3394029D2*
X3620381D1*
X2934456Y3446244D2*
Y3450280D1*
X2871956D1*
X3726680Y3394029D2*
Y3392503D1*
X3665706Y3331529D1*
X3303206D1*
X3259456Y3375280D1*
Y3379315D1*
X3134456Y3446244D2*
Y3425280D1*
X3146956Y3412780D1*
X3484454D1*
X3540705Y3356529D1*
X3636030D1*
X3673530Y3394029D1*
X2996956Y3379315D2*
X2934456D1*
X3321956D2*
X3384456D1*
X3059456Y3446244D2*
Y3500280D1*
X3107192Y3548016D1*
X3169101D1*
X2996956Y3446244D2*
X3059456D1*
X3196956Y3379315D2*
X3171956D1*
X3134456D1*
X3096956D1*
X3059456D1*
X3169101Y3727544D2*
X3257192D1*
X3284456Y3700280D1*
Y3512780D1*
X3259456Y3487780D1*
X3114062D1*
X3096956Y3470673D1*
Y3379315D1*
X3321956Y3446244D2*
Y3526855D1*
X3432881Y3637780D1*
X3321956Y3446244D2*
X3259456D1*
X3196956D1*
X2467231Y3394029D2*
Y3430004D1*
X2421956Y3475280D1*
X2334456D1*
X2305420Y3446244D1*
X2284456D1*
X2467231Y3394029D2*
X2520381D1*
X1834456Y3446244D2*
Y3450280D1*
X1771956D1*
X2626680Y3394029D2*
Y3392503D1*
X2565706Y3331529D1*
X2203206D1*
X2159456Y3375280D1*
Y3379315D1*
X1858830Y2160946D2*
D14*
X1788259D1*
X1858830Y2223446D2*
X1788259D1*
X2034456Y3446244D2*
D16*
Y3425280D1*
X2046956Y3412780D1*
X2384454D1*
X2440705Y3356529D1*
X2536030D1*
X2573530Y3394029D1*
X1896956Y3379315D2*
X1834456D1*
X2221956D2*
X2284456D1*
X1959456Y3446244D2*
Y3500280D1*
X2007192Y3548016D1*
X2069101D1*
X1896956Y3446244D2*
X1959456D1*
X2096956Y3379315D2*
X2071956D1*
X2034456D1*
X1996956D1*
X1959456D1*
X2069101Y3727544D2*
X2157192D1*
X2184456Y3700280D1*
Y3512780D1*
X2159456Y3487780D1*
X2014062D1*
X1996956Y3470673D1*
Y3379315D1*
X2221956Y3446244D2*
Y3526855D1*
X2332881Y3637780D1*
X2221956Y3446244D2*
X2159456D1*
X2096956D1*
X775575Y2824028D2*
D14*
X750673Y2848929D1*
Y2867776D1*
X769424Y2886527D1*
X773461D1*
Y2942778D1*
X702890D1*
X619418Y3655278D2*
D19*
X625677D1*
X650676Y3680277D1*
X963177D1*
X1025675Y3617780D1*
Y3280277D1*
X1000675Y3255277D1*
Y2867776D1*
X956927Y2824028D1*
X775575D1*
X927889Y3492775D2*
D14*
Y3492778D1*
X975675D1*
X927889Y3592777D2*
Y3630278D1*
X925673D1*
X777891Y3592780D2*
X775676Y3594995D1*
Y3630277D1*
X875675Y3255278D2*
X866301Y3264652D1*
Y3277151D1*
X856924Y3286528D1*
X875675Y3305278D1*
Y3317777D1*
X856924Y3286528D2*
X875675D1*
X856924D2*
X838175Y3305277D1*
Y3317777D1*
X856924Y3286528D2*
X838175D1*
X856924D2*
X838175Y3267778D1*
Y3255278D1*
X856924Y3286528D2*
X875675Y3267777D1*
Y3255278D1*
X852890Y3111528D2*
X900676D1*
X654710D2*
Y3174028D1*
X650676D1*
X896294Y3208772D2*
Y3247158D1*
X856924Y3286528D1*
X869424Y3155278D2*
X880546Y3166401D1*
Y3208772D1*
X800676Y3167777D2*
X813175D1*
X833302Y3187904D1*
Y3208772D1*
X721639Y3111528D2*
X725675D1*
Y3124027D1*
X769425Y3167777D1*
X800676D1*
X777891Y3492778D2*
X819425D1*
X894670Y2606164D2*
X949347D1*
X960961Y2617778D1*
X834286Y2679343D2*
Y2659168D1*
X844427Y2649028D1*
X875676D1*
X894424Y2630280D1*
Y2606410D1*
X894670Y2606164D1*
X834286Y2699028D2*
X759139D1*
X752889Y2692777D1*
X643537Y2624275D2*
X619177D1*
X606924Y2636528D1*
X750673Y2655278D2*
Y2690562D1*
X752889Y2692777D1*
X1968370Y785767D2*
X2035865D1*
X2036044Y785945D1*
X2067294D1*
Y748445D1*
X2036044Y785945D2*
Y748445D1*
X1968370Y835767D2*
X2035865D1*
X2036044Y835945D1*
X2067293D1*
Y867194D1*
X2036044Y835945D2*
Y867194D1*
X2503803Y785767D2*
X2436222D1*
X2436044Y785945D1*
X2404794D1*
Y754696D1*
X2436044D1*
X1027890Y2617778D2*
Y2692777D1*
X1056923D1*
X1206924Y2842778D1*
X879562Y2679343D2*
X901609D1*
X925673Y2655278D1*
X990390D1*
X1027890Y2617778D1*
X860960Y3592777D2*
Y3542776D1*
X777891Y3542778D2*
X860960D1*
Y3542776D1*
X710962Y3592780D2*
X669424D1*
X656925Y3605278D1*
X588173D1*
X569424Y3586529D1*
Y3305272D1*
X619418Y3255278D1*
X725676D1*
X769427Y3211528D1*
X814798D1*
D20*
X817554Y3208772D1*
X710962Y3592780D2*
D14*
Y3492778D1*
Y3542778D2*
Y3492778D1*
X927889Y3542776D2*
X900673D1*
X894427Y3536529D1*
Y3499029D1*
X888172Y3492775D1*
X860960D1*
X864798Y3364284D2*
Y3492775D1*
X860960D1*
X681923Y2544353D2*
D21*
X727251D1*
X750676Y2567778D1*
X814748D1*
X960961Y2749028D2*
D14*
Y2692777D1*
X879562Y2699028D2*
X954710D1*
X960961Y2692777D1*
X817554Y3364284D2*
Y3388399D1*
X794425Y3411528D1*
X656925D1*
X619418Y3374020D1*
Y3355278D1*
X879562Y2718713D2*
Y2738890D1*
X869424Y2749028D1*
X752889D1*
X833302Y3364284D2*
Y3397652D1*
X800676Y3430278D1*
X681925D1*
X656925Y3455278D1*
X619418D1*
X849050Y3364284D2*
Y3406903D1*
X806925Y3449028D1*
X688176D1*
X669425Y3467778D1*
Y3542780D1*
X656927Y3555278D1*
X619418D1*
X3279946Y2030949D2*
X3195557D1*
X3179936Y2046570D1*
Y1909055D2*
Y1979641D1*
X2223544Y2510945D2*
X2273544Y2560945D1*
X2642294D1*
X2673544Y2529696D1*
Y2079696D1*
X2729794Y2023445D1*
X3067294D1*
X3142293Y1948446D1*
Y1804696D1*
X3154793Y1792196D1*
X3277414D1*
X3279946Y1794729D1*
X2023544Y2410945D2*
X2029793D1*
X2073544Y2367194D1*
X2479794D1*
X2523544Y2323445D1*
Y2294261D1*
X2524429Y2293376D1*
X2523544Y2292490D2*
Y2279696D1*
X2536044Y2267196D1*
X2598544D1*
X2634736Y2231003D1*
Y2159638D1*
X2604793Y2129694D1*
Y2050414D1*
X2605088Y2050118D1*
Y2004399D1*
X2661042Y1948445D1*
X2867293D1*
X2929793Y1885945D1*
X2986142D1*
X3412520Y537323D2*
X3378416D1*
X3273696Y642044D1*
Y948281D1*
X3123544Y1098433D1*
Y1698445D1*
X3067293Y1754696D1*
Y1842196D1*
X3023544Y1885945D1*
X2986142D1*
X2804793Y2079646D2*
Y2192194D1*
X2817293Y2204694D1*
X2929793D1*
X2961044Y2235945D1*
X2971492D1*
X2983961Y2248414D1*
X3011012D1*
X3017293Y2254694D1*
Y2329694D1*
X3029794Y2342196D1*
X3142294D1*
X3173544Y2373445D1*
Y2460945D1*
X3123544Y2510945D1*
X2447658Y2293376D2*
X2473248D1*
X2498839D1*
X1923544Y2410945D2*
X1954793D1*
X2017293Y2348445D1*
X2467294D1*
X2498544Y2317196D1*
Y2293671D1*
X2498839Y2293376D2*
Y2273150D1*
X2523544Y2248445D1*
X2592294D1*
X2617294Y2223445D1*
Y2173445D1*
X2579793Y2135944D1*
Y2050414D1*
X2579498Y2050118D1*
Y1986240D1*
X2642293Y1923445D1*
X2848544D1*
X2936044Y1835945D1*
X2986142D1*
X3412520Y521575D2*
X3362914D1*
X3236192Y648297D1*
Y935780D1*
X3086176Y1085796D1*
Y1692062D1*
X3042293Y1735945D1*
Y1817196D1*
X3023544Y1835945D1*
X2986142D1*
X3123544Y2410945D2*
Y2373445D1*
X3111044Y2360945D1*
X3011044D1*
X2986044Y2335945D1*
Y2302587D1*
X2983961Y2304670D1*
X2967268D1*
X2942293Y2279694D1*
Y2254694D1*
X2917293Y2229694D1*
X2779793D1*
X2754793Y2204694D1*
Y2079646D1*
X840390Y2886527D2*
Y2942778D1*
Y2971810D1*
X819422Y2992778D1*
X771638D1*
X880546Y3364284D2*
Y3391398D1*
X900676Y3411528D1*
X938175D1*
X956923Y3392780D1*
Y3074027D1*
X919425Y3036529D1*
X756927D1*
X750673Y3030276D1*
Y3013743D1*
X771638Y2992778D1*
X635961Y2886527D2*
Y2942778D1*
Y2971814D1*
X656925Y2992778D1*
X704709D1*
X896294Y3364284D2*
D20*
Y3382146D1*
D14*
X906927Y3392778D1*
X931927D1*
X938176Y3386529D1*
Y3086529D1*
X906924Y3055277D1*
X750673D1*
X731924Y3036528D1*
Y3017778D1*
X706924Y2992778D1*
X704709D1*
X2123544Y2510945D2*
X2173544Y2460945D1*
X2542294D1*
X2573544Y2429696D1*
Y2329694D1*
X2654793Y2248445D1*
Y2067196D1*
X2723544Y1998445D1*
X3054794D1*
X3117293Y1935946D1*
Y1785945D1*
X3148542Y1754696D1*
X3260924D1*
X3279946Y1735673D1*
X1006549Y1368278D2*
D16*
Y1355778D1*
X731549Y1280778D2*
Y1268278D1*
X756549Y1243278D1*
X2986142Y1785945D2*
D14*
X2904794D1*
X2873544Y1817196D1*
X3217294Y2092196D2*
X3277755D1*
X3279946Y2090004D1*
X3400734D1*
X3573544Y1917194D1*
Y1548445D1*
X1027890Y2749028D2*
Y2813743D1*
X1044424Y2830277D1*
Y3236528D1*
X1206924Y3399028D1*
Y3442778D1*
X849050Y3208772D2*
D20*
Y3180278D1*
X864798D1*
Y3208772D1*
X619418Y3755278D2*
D21*
X1106975D1*
X1206924Y3655330D1*
Y3442778D1*
X600673Y3167777D2*
D14*
Y3092780D1*
X619424Y3074029D1*
X756929D1*
X785961Y3103061D1*
Y3111528D1*
X849050Y3208772D2*
Y3178652D1*
X785961Y3115563D1*
Y3111528D1*
X700772Y2824028D2*
X725675Y2848931D1*
Y2867778D1*
X706927Y2886527D1*
X702890D1*
X2524429Y2191013D2*
Y2143082D1*
X2523544Y2142196D1*
X2586044Y2217194D2*
Y2167194D1*
X2561044Y2142194D1*
Y2117194D1*
X2548544Y2104694D1*
X2504793D1*
X2492294Y2092196D1*
Y2048445D1*
X2552234D1*
X2553907Y2050118D1*
X2523544Y2142196D2*
X2561044Y2142194D1*
X2904793Y2079646D2*
X2936093D1*
X2973544Y2042196D1*
X3048544D1*
X3061044Y2054696D1*
Y2181897D1*
X3050740Y2192200D1*
Y2248264D1*
X3050890Y2248414D1*
Y2304670D1*
X3173544Y2323445D2*
Y2267313D1*
X3179936Y2260920D1*
X3273697D1*
X3279946Y2267170D1*
X2904793Y2154694D2*
Y2079646D1*
X2686044Y1879696D2*
Y1842194D1*
X2692293Y1835945D1*
X2773544D1*
X3512914Y621969D2*
Y705040D1*
X3507008Y710945D1*
X3534567Y537323D2*
X3584666D1*
X3586044D1*
X3609666D1*
X3623544Y523445D1*
X3534567Y553071D2*
X3568918D1*
X3584666Y537323D1*
X3507008Y710945D2*
X3661044D1*
X3698544Y673445D1*
Y567196D1*
X3667293Y535945D1*
X3636044D1*
X3623544Y523445D1*
X3586044Y537323D2*
Y535945D1*
X3561044Y510945D1*
Y485945D1*
X3536044Y460945D1*
X3448544D1*
X3434173Y475315D1*
Y499922D1*
X3412520Y553071D2*
X3387668D1*
X3311044Y629696D1*
Y748445D1*
X3395419Y832820D1*
X3507008Y721231D1*
Y710945D1*
X3395419Y832820D2*
Y876563D1*
X3161044Y1110939D1*
Y1704694D1*
X3092293Y1773445D1*
Y1892196D1*
X3011044Y1973445D1*
X2711045D1*
X2667294Y2017196D1*
X3196956Y2779315D2*
D16*
X3171956D1*
X3134456D1*
X3096956D1*
X3059456D1*
X3169101Y3127544D2*
X3257192D1*
X3284456Y3100280D1*
Y2912780D1*
X3259456Y2887780D1*
X3114062D1*
X3096956Y2870673D1*
Y2779315D1*
X3321956Y2846244D2*
Y2926855D1*
X3432881Y3037780D1*
X3321956Y2846244D2*
X3259456D1*
X3196956D1*
D17*
X981549Y1780780D3*
X756549Y1343278D3*
X2429971Y685767D3*
X2042294D3*
X1861044Y710945D3*
X2548544Y1898445D3*
X1721330Y2273446D3*
X2011042Y2029696D3*
X2179793Y1942194D3*
X2211044D3*
X2298537Y2167189D3*
X2342294Y2167196D3*
X2498544Y2235945D3*
X2061044Y2242196D3*
X2448544Y1981516D3*
X2454793Y2098445D3*
X2704793Y1054696D3*
X2711044Y2292196D3*
X3029793Y2148445D3*
X3129793Y2204694D3*
X3342293Y1854696D3*
X3836044Y1198445D3*
X1867293Y2004696D3*
X2686044Y1723445D3*
X2629794Y2104694D3*
X2917294Y1735945D3*
X3211044Y2154694D3*
X3973517Y2267170D3*
X3967294Y2029696D3*
X3967021Y1735945D3*
X3342294Y729694D3*
X3423544Y754696D3*
X3667293Y660945D3*
X3669114Y456516D3*
X2871956Y2850280D3*
X1771956D3*
X2567293Y785945D3*
X2871956Y3450280D3*
X1771956D3*
X975675Y3492778D3*
X925673Y3630278D3*
X775676Y3630277D3*
X900676Y3111528D3*
X650676Y3174028D3*
X819425Y3492778D3*
X606924Y2636528D3*
X750673Y2655278D3*
X1006549Y1368278D3*
X731549Y1280778D3*
X2873544Y1817196D3*
X3217294Y2092196D3*
X600673Y3167777D3*
X2586044Y2217194D3*
X3173544Y2323445D3*
X2904793Y2154694D3*
X2686044Y1879696D3*
X2667294Y2017196D3*
X2117293Y1304694D3*
X2148544D3*
X2179794D3*
X2211044D3*
X2036044Y835945D3*
X2211044Y1273445D3*
X2179794D3*
X2117293D3*
X2148544D3*
X2211044Y1242196D3*
X2179794D3*
X2148544Y1242194D3*
X2067293Y835945D3*
Y867194D3*
X2036044D3*
Y785945D3*
X2067294D3*
Y748445D3*
X2036044D3*
Y635945D3*
X2067293D3*
X2036044Y604696D3*
X2067293D3*
X2036044Y573445D3*
X2067293D3*
X2404793Y635945D3*
X2436044D3*
X2404793Y604696D3*
X2436044D3*
X2404794Y573445D3*
X2436044D3*
X2117293Y1242194D3*
X2423544Y1310945D3*
X2454794D3*
X2486044D3*
X2517294D3*
Y1279694D3*
X2486044Y1279696D3*
X2423544D3*
X2454794D3*
X2423544Y1248445D3*
X2454794D3*
X2486044D3*
X2517294D3*
X1848544Y1773445D3*
Y1735945D3*
Y1698445D3*
X1811042D3*
X1848544Y1660946D3*
X1811042D3*
X2179794Y1910944D3*
X2211044D3*
X1811044Y1735945D3*
Y1773445D3*
Y1810945D3*
X1848544D3*
X1986044Y2317194D3*
X1948544D3*
Y2279694D3*
X1986044D3*
X2436044Y785945D3*
X2404794D3*
Y754696D3*
X2436044D3*
X894049Y1780780D3*
X869424Y3155278D3*
X800676Y3167777D3*
X838175Y3317777D3*
Y3286528D3*
Y3255278D3*
X875675D3*
Y3286528D3*
Y3317777D3*
X2032334Y848406D2*
X2071083D1*
X1979809Y841973D2*
Y829473D1*
X2073608Y829517D1*
X2073571Y873317D1*
X2029814Y873275D1*
X2029660Y852566D1*
X2028452Y848847D1*
X2026152Y845683D1*
X2022988Y843383D1*
X2019269Y842175D1*
X1979765Y842021D1*
X2033750Y767147D2*
X2071083D1*
X2029181Y771078D2*
X2031240D1*
Y748275D1*
X2073571Y748259D1*
Y792058D1*
X1979772Y792016D1*
X1979809Y779467D1*
X2019269Y779359D1*
X2022988Y778150D1*
X2026152Y775851D1*
X2028452Y772687D1*
X2028864Y771792D1*
X2401128Y767147D2*
X2438412D1*
X2440933Y748259D2*
Y771078D1*
X2443033D1*
X2444747Y774360D1*
X2447512Y777125D1*
X2450998Y778901D1*
X2454860Y779512D1*
X2492408D1*
X2492365Y792061D1*
X2398566Y792016D1*
X2398603Y748217D1*
X2440936Y748259D1*
X2033750Y617131D2*
X2071083D1*
X2033750Y592263D2*
X2071083D1*
X2033750Y567394D2*
X2071083D1*
X2029084Y621078D2*
X2031240D1*
Y567025D1*
X2073571Y566990D1*
Y642038D1*
X1979765Y642000D1*
X1979809Y629452D1*
X2019269Y629343D1*
X2022988Y628134D1*
X2026152Y625835D1*
X2028452Y622671D1*
X2028864Y621776D1*
X2401103Y617131D2*
X2438412D1*
X2401103Y592263D2*
X2438412D1*
X2401103Y567394D2*
X2438412D1*
X2440933Y567008D2*
Y621078D1*
X2443033D1*
X2444747Y624344D1*
X2447512Y627109D1*
X2450998Y628885D1*
X2454860Y629496D1*
X2492408D1*
X2492365Y642045D1*
X2398561Y642000D1*
X2398603Y566990D1*
X2440936D1*
X1788567Y1386076D2*
X1877268D1*
X1788567Y1361208D2*
X1839818D1*
X1788567Y1336339D2*
X1839818D1*
X1788567Y1311470D2*
X1839818D1*
X1788567Y1286601D2*
X1839818D1*
X1694818Y1261733D2*
X1839818D1*
X1694818Y1236864D2*
X1839818D1*
X1694818Y1211995D2*
X1839818D1*
X1694818Y1187126D2*
X1829563D1*
X1694818Y1162257D2*
X1804662D1*
X1692341Y1148445D2*
X1793343D1*
X1842289Y1197368D1*
X1842448Y1356650D1*
X1843656Y1360369D1*
X1845956Y1363533D1*
X1849120Y1365832D1*
X1852839Y1367041D1*
X1879746Y1367194D1*
X1879793Y1410994D1*
X1786092Y1410945D1*
X1785890Y1296490D1*
X1784681Y1292771D1*
X1782382Y1289607D1*
X1779218Y1287307D1*
X1775499Y1286099D1*
X1736044Y1285945D1*
X1692244D1*
X1692293Y1148494D1*
X1951068Y1736076D2*
X1996019D1*
X1951068Y1711208D2*
X1996019D1*
X1951068Y1686339D2*
X1996019D1*
X1951068Y1661470D2*
X1996019D1*
X1951068Y1636601D2*
X1996019D1*
X1951068Y1611733D2*
X1996019D1*
X1951068Y1586864D2*
X1996068D1*
X1951068Y1561995D2*
X2221019D1*
X1951068Y1537126D2*
X2221019D1*
X1951068Y1512257D2*
X2221019D1*
X1951068Y1487389D2*
X2221019D1*
X1982269Y1462520D2*
X2221019D1*
X1982269Y1437651D2*
X2221019D1*
X1982269Y1412782D2*
X2221019D1*
X1982269Y1387914D2*
X2221019D1*
X1982269Y1363045D2*
X2221019D1*
X2031830Y1338176D2*
X2221019D1*
X2031927Y1313307D2*
X2221019D1*
X2032025Y1288439D2*
X2221019D1*
X2032122Y1263570D2*
X2221019D1*
X2032221Y1238701D2*
X2221019D1*
X1979793Y1454696D2*
X1979887Y1360849D1*
X2018831Y1360398D1*
X2022541Y1359162D1*
X2025687Y1356839D1*
X2027962Y1353656D1*
X2029142Y1349928D1*
X2029487Y1298120D1*
X2029794Y1235945D1*
X2223495D1*
X2223544Y1585897D1*
X2009088Y1586099D1*
X2005369Y1587307D1*
X2002205Y1589607D1*
X1999906Y1592771D1*
X1998697Y1596490D1*
X1998544Y1635945D1*
Y1760897D1*
X1948592Y1760945D1*
X1948544Y1479744D1*
X1969248Y1479542D1*
X1972967Y1478334D1*
X1976131Y1476034D1*
X1978431Y1472870D1*
X1979639Y1469151D1*
X1979793Y1454696D1*
X2406780Y1567326D2*
X2559055D1*
X2381927Y1542457D2*
X2583910D1*
X2357074Y1517588D2*
X2608567D1*
X2337786Y1492719D2*
X2608567D1*
X2337786Y1467851D2*
X2608567D1*
X2337786Y1442982D2*
X2608567D1*
X2337786Y1418113D2*
X2608567D1*
X2337786Y1393244D2*
X2608567D1*
X2337786Y1368376D2*
X2608567D1*
X2337786Y1343507D2*
X2608567D1*
X2337786Y1318638D2*
X2608567D1*
X2337786Y1293769D2*
X2608567D1*
X2337786Y1268901D2*
X2608567D1*
X2337786Y1244032D2*
X2608567D1*
X2335931Y1219163D2*
X2608567D1*
X2326067Y1194294D2*
X2608567D1*
X2326067Y1169425D2*
X2608567D1*
X2326067Y1144557D2*
X2608567D1*
X1857512Y1119688D2*
X1886008D1*
X2077923D2*
X2608567D1*
X1857756Y1094819D2*
X1906566D1*
X2053020D2*
X2608567D1*
X1857952Y1069950D2*
X2608567D1*
X1858196Y1045082D2*
X2589427D1*
X1858440Y1020213D2*
X2589427D1*
X1858684Y995344D2*
X2589427D1*
X1858928Y970475D2*
X1900023D1*
X2036712D2*
X2435423D1*
X2572162D2*
X2589395D1*
X2036712Y945607D2*
X2435423D1*
X2036712Y920738D2*
X2435423D1*
X2113079Y895869D2*
X2435423D1*
X2115082Y871000D2*
X2435423D1*
X2115082Y846131D2*
X2435423D1*
X2115082Y821263D2*
X2363059D1*
X2115082Y796394D2*
X2357103D1*
X2115082Y771525D2*
X2357103D1*
X2115082Y746656D2*
X2357103D1*
X2111078Y721788D2*
X2361107D1*
X2082171Y696919D2*
X2390110D1*
X2108440Y672050D2*
X2363743D1*
X2115082Y647181D2*
X2357103D1*
X2115082Y622313D2*
X2357103D1*
X2572162D2*
X2608567D1*
X2115082Y597444D2*
X2357103D1*
X2525238D2*
X2608567D1*
X1944036Y572575D2*
X1988303D1*
X2115082D2*
X2357103D1*
X2483831D2*
X2608567D1*
X1944036Y547706D2*
X1989183D1*
X2114202D2*
X2357982D1*
X2482952D2*
X2608567D1*
X1957268Y522838D2*
X2608567D1*
X1982122Y497969D2*
X2608567D1*
X2591933Y948215D2*
Y1063372D1*
X2611025D1*
X2611044Y1517831D1*
X2536675Y1592191D1*
X2429159Y1592194D1*
X2335276Y1498303D1*
X2335191Y1227302D1*
X2333793Y1220272D1*
X2330792Y1213763D1*
X2326355Y1208133D1*
X2323558Y1205336D1*
X2323390Y1140239D1*
X2322181Y1136520D1*
X2319882Y1133356D1*
X2316718Y1131057D1*
X2312999Y1129848D1*
X2273544Y1129694D1*
X2085408D1*
X2037097Y1081509D1*
X2031138Y1077527D1*
X2024412Y1075046D1*
X2017294Y1074204D1*
X1939901Y1074298D1*
X1932870Y1075696D1*
X1926361Y1078697D1*
X1920731Y1083134D1*
X1894107Y1109893D1*
X1890124Y1115853D1*
X1887643Y1122578D1*
X1886894Y1127313D1*
X1879794Y1129694D1*
X1854941D1*
X1856727Y937292D1*
X1878740Y959131D1*
X1884701Y963114D1*
X1891425Y965595D1*
X1898544Y966437D1*
X1902499D1*
X1902508Y974070D1*
X2034233D1*
Y912302D1*
X2088150Y912185D1*
X2094257Y910970D1*
X2099914Y908362D1*
X2104803Y904507D1*
X2108659Y899617D1*
X2111267Y893961D1*
X2112482Y887853D1*
Y814939D1*
X2111831Y810701D1*
X2112563Y804516D1*
X2112482Y733680D1*
X2111267Y727572D1*
X2108659Y721916D1*
X2104803Y717027D1*
X2099914Y713171D1*
X2094257Y710563D1*
X2088150Y709348D1*
X2073424Y709267D1*
X2077037Y703469D1*
X2079378Y697817D1*
X2080806Y691866D1*
X2081286Y685767D1*
X2080962Y680986D1*
X2090215Y680667D1*
X2096209Y678975D1*
X2101643Y675933D1*
X2106215Y671705D1*
X2109676Y666528D1*
X2111831Y660685D1*
X2112563Y654500D1*
X2112482Y552411D1*
X2111267Y546303D1*
X2108659Y540647D1*
X2104803Y535757D1*
X2099914Y531902D1*
X2094257Y529294D1*
X2088150Y528079D1*
X2015235D1*
X2009128Y529294D1*
X2003471Y531902D1*
X1998582Y535757D1*
X1994726Y540647D1*
X1992118Y546303D1*
X1990903Y552411D1*
X1990822Y590477D1*
X1963164Y590830D1*
X1957171Y592521D1*
X1951736Y595563D1*
X1950097Y596857D1*
X1946733Y597464D1*
X1941508D1*
X1941536Y536091D1*
X1985397Y492215D1*
X2610995Y492196D1*
X2611044Y639999D1*
X2569672Y640013D1*
X2569666Y597464D1*
X2522742D1*
X2518708Y594408D1*
X2513051Y591801D1*
X2506944Y590586D1*
X2481378Y590504D1*
X2481271Y552411D1*
X2480055Y546303D1*
X2477448Y540647D1*
X2473592Y535757D1*
X2468702Y531902D1*
X2463046Y529294D1*
X2456939Y528079D1*
X2384024D1*
X2377916Y529294D1*
X2372260Y531902D1*
X2367370Y535757D1*
X2363515Y540647D1*
X2360907Y546303D1*
X2359692Y552411D1*
Y656579D1*
X2360907Y662687D1*
X2363515Y668343D1*
X2367370Y673233D1*
X2372260Y677088D1*
X2377916Y679696D1*
X2384024Y680911D1*
X2391230Y680992D1*
X2391100Y688826D1*
X2392057Y694869D1*
X2393948Y700688D1*
X2396725Y706139D1*
X2398878Y709259D1*
X2381958Y709593D1*
X2375965Y711284D1*
X2370530Y714326D1*
X2365958Y718554D1*
X2362498Y723731D1*
X2360343Y729574D1*
X2359610Y735759D1*
X2359692Y806595D1*
X2360907Y812702D1*
X2363515Y818359D1*
X2367370Y823248D1*
X2372260Y827104D1*
X2377916Y829712D1*
X2384024Y830927D1*
X2437910Y831008D1*
X2437941Y974070D1*
X2569666D1*
Y965037D1*
X2575065Y962936D1*
X2581025Y958953D1*
X2591933Y948179D1*
X2582789Y957320D1*
X2151067Y2192326D2*
X2208567D1*
X2151067Y2167457D2*
X2208567D1*
X2019818Y2142588D2*
X2208567D1*
X2019818Y2117719D2*
X2364818D1*
X2019818Y2092851D2*
X2364818D1*
X2092034Y2067982D2*
X2364818D1*
X2092034Y2043113D2*
X2127268D1*
X2257318D2*
X2364818D1*
X2257318Y2018244D2*
X2364818D1*
X2257318Y1993376D2*
X2364818D1*
X2257318Y1968507D2*
X2364818D1*
X2257318Y1943638D2*
X2364818D1*
X2257318Y1918769D2*
X2364818D1*
X2257318Y1893901D2*
X2364818D1*
X2257318Y1869032D2*
X2364818D1*
X2257318Y1844163D2*
X2364818D1*
X2257318Y1819294D2*
X2364818D1*
X2257318Y1794425D2*
X2364818D1*
X2257318Y1769557D2*
X2364818D1*
X2257318Y1744688D2*
X2364818D1*
X2257318Y1719819D2*
X2364818D1*
X2257318Y1694950D2*
X2364818D1*
X2257318Y1670082D2*
X2364818D1*
X2215736Y2126204D2*
X2214074D1*
X2214038Y2127827D1*
X2211995Y2131162D1*
X2211082Y2134965D1*
X2211045Y2217146D1*
X2148886Y2217194D1*
X2148544Y2173445D1*
X2147932Y2169583D1*
X2146156Y2166099D1*
X2143391Y2163332D1*
X2139907Y2161557D1*
X2136044Y2160945D1*
X2017294D1*
X2017293Y2074764D1*
X2089541Y2074811D1*
Y2042243D1*
X2129744Y2042196D1*
X2130138Y2051364D1*
X2131635Y2054977D1*
X2134175Y2057950D1*
X2137509Y2059994D1*
X2141313Y2060907D1*
X2244248Y2060792D1*
X2247967Y2059583D1*
X2251131Y2057284D1*
X2253431Y2054120D1*
X2254639Y2050401D1*
X2254793Y2010945D1*
Y1654646D1*
X2367294Y1654696D1*
Y2123397D1*
X2221588Y2123599D1*
X2217869Y2124807D1*
X2216193Y2125835D1*
X1776068Y1798576D2*
X1889769D1*
X1776068Y1773708D2*
X1889769D1*
X1776068Y1748839D2*
X1908519D1*
X1776068Y1723970D2*
X1908519D1*
X1776068Y1699101D2*
X1908519D1*
X1776068Y1674233D2*
X1908519D1*
X1776068Y1649364D2*
X1908519D1*
X1911007Y1764838D2*
X1896688D1*
X1896675Y1770191D1*
X1894135Y1773164D1*
X1892638Y1776777D1*
X1892293Y1779696D1*
Y1823397D1*
X1773592Y1823445D1*
X1773544Y1635994D1*
X1910995Y1635945D1*
X1911044Y1764802D1*
X1896675Y1770191D1*
X1894135Y1773164D1*
X1892638Y1776777D1*
X1892293Y1779700D1*
X2170112Y1929826D2*
X2214769D1*
X2170112Y1904957D2*
X2214769D1*
X2167593Y1954646D2*
X2167592Y1904688D1*
X2217246Y1904694D1*
X2217294Y1954646D1*
X2167635Y1954694D1*
X1794819Y2517327D2*
X1946020D1*
X1794819Y2492458D2*
X1946020D1*
X1794819Y2467589D2*
X1946020D1*
X1851361Y2343246D2*
X1977319D1*
X1851361Y2318377D2*
X1996020D1*
X1854243Y2293508D2*
X1996020D1*
X1916645Y2268639D2*
X1996020D1*
X1971235Y2243771D2*
X2021020D1*
X1971235Y2218902D2*
X2021020D1*
X1792265Y2465710D2*
X1878309D1*
Y2441832D1*
X1884819Y2449670D1*
X1891353Y2455251D1*
X1898681Y2459740D1*
X1906621Y2463029D1*
X1914977Y2465036D1*
X1923544Y2465710D1*
X1932110Y2465036D1*
X1940466Y2463029D1*
X1948538Y2459667D1*
X1948544Y2542147D1*
X1792343Y2542196D1*
X1792294Y2465683D1*
X1878309Y2380114D2*
Y2356180D1*
X1848865D1*
X1848844Y2296444D1*
X1859008Y2286261D1*
X1890002Y2285933D1*
X1895726Y2284319D1*
X1900915Y2281414D1*
X1903933Y2278835D1*
X1915568Y2267200D1*
X1956748Y2267041D1*
X1960467Y2265832D1*
X1962143Y2264805D1*
X1968713Y2264432D1*
Y2198465D1*
X2023592Y2198445D1*
X2023544Y2248397D1*
X2008125Y2248790D1*
X2004512Y2250288D1*
X2001538Y2252827D1*
X1999495Y2256162D1*
X1998582Y2259965D1*
X1998544Y2324495D1*
X1956128Y2366933D1*
X1948406Y2362150D1*
X1940466Y2358861D1*
X1932110Y2356855D1*
X1923544Y2356180D1*
X1914977Y2356855D1*
X1906621Y2358861D1*
X1898681Y2362150D1*
X1891353Y2366639D1*
X1884819Y2372221D1*
X1879238Y2378755D1*
X1878314Y2380138D1*
X921574Y1355910D2*
X1074288D1*
X921574Y1331041D2*
X1074288D1*
X921574Y1306172D2*
X1074288D1*
X921574Y1281303D2*
X1074288D1*
X921574Y1256435D2*
X1074288D1*
X921574Y1231566D2*
X1074288D1*
X921574Y1206697D2*
X1074923D1*
X921574Y1181828D2*
X1354024D1*
X921574Y1156960D2*
X1354024D1*
X921574Y1132091D2*
X1354024D1*
X921574Y1107222D2*
X1354024D1*
X921574Y1082353D2*
X1354024D1*
X921574Y1057485D2*
X1354024D1*
X1026603Y1032616D2*
X1354024D1*
X1042862Y1007747D2*
X1354024D1*
X1047990Y982878D2*
X1354024D1*
X1044376Y958009D2*
X1354024D1*
X1030460Y933141D2*
X1354024D1*
X921574Y908272D2*
X957443D1*
X986563D2*
X1354024D1*
X921574Y883403D2*
X1354024D1*
X921574Y858534D2*
X1354024D1*
X921574Y833666D2*
X1354024D1*
X921574Y808797D2*
X1354024D1*
X921574Y783928D2*
X1354024D1*
X921574Y759059D2*
X1354024D1*
X921574Y734191D2*
X1273702D1*
X921574Y709322D2*
X1273702D1*
X921574Y684453D2*
X1273702D1*
X1045275Y975012D2*
X1043471Y963620D1*
X1039907Y952651D1*
X1034671Y942374D1*
X1027891Y933044D1*
X1019736Y924889D1*
X1010406Y918109D1*
X1000129Y912873D1*
X989160Y909309D1*
X977768Y907506D1*
X966235D1*
X954843Y909309D1*
X943874Y912873D1*
X933597Y918109D1*
X924267Y924889D1*
X919034Y929882D1*
X919049Y668327D1*
X1276226Y668278D1*
X1276183Y744790D1*
X1356506D1*
X1356549Y1188542D1*
X1098456Y1188600D1*
X1093037Y1189677D1*
X1088021Y1191991D1*
X1083683Y1195411D1*
X1080263Y1199750D1*
X1077949Y1204765D1*
X1076872Y1210184D1*
X1076799Y1380827D1*
X919097Y1380778D1*
X919049Y1031706D1*
X924267Y1036668D1*
X933597Y1043448D1*
X943874Y1048684D1*
X954843Y1052248D1*
X966235Y1054051D1*
X977768D1*
X989160Y1052248D1*
X1000129Y1048684D1*
X1010406Y1043448D1*
X1019736Y1036668D1*
X1027891Y1028513D1*
X1034671Y1019183D1*
X1039907Y1008906D1*
X1043471Y997937D1*
X1045275Y986545D1*
Y975012D1*
X1084074Y1818411D2*
X1354024D1*
X1084074Y1793542D2*
X1354024D1*
X1084074Y1768673D2*
X1354024D1*
X1084074Y1743805D2*
X1349971D1*
X1084318Y1718936D2*
X1348995D1*
X1087540Y1694067D2*
X1348995D1*
X1087540Y1669198D2*
X1348995D1*
X1087540Y1644330D2*
X1348995D1*
X1087540Y1619461D2*
X1348995D1*
X1087540Y1594592D2*
X1348995D1*
X1087540Y1569723D2*
X1348995D1*
X1087540Y1544855D2*
X1348995D1*
X1087540Y1519986D2*
X1348995D1*
X1087540Y1495117D2*
X1348995D1*
X1087540Y1470248D2*
X1348995D1*
X1085587Y1445380D2*
X1348995D1*
X1115323Y1420511D2*
X1348995D1*
X1115323Y1395642D2*
X1348995D1*
X1115323Y1370773D2*
X1348995D1*
X1115323Y1345904D2*
X1348995D1*
X1115323Y1321036D2*
X1348995D1*
X1115323Y1296167D2*
X1348995D1*
X1115323Y1271298D2*
X1348995D1*
X1115323Y1246429D2*
X1348995D1*
X1353610Y1749725D2*
X1355475Y1757233D1*
X1356554Y1760410D1*
X1356549Y1843327D1*
X1081597Y1843280D1*
X1081549Y1719500D1*
X1083654Y1714586D1*
X1084961Y1708015D1*
X1085049Y1455778D1*
X1084261Y1449125D1*
X1081939Y1442832D1*
X1081549Y1430731D1*
X1102255Y1430625D1*
X1105974Y1429416D1*
X1109138Y1427117D1*
X1111437Y1423953D1*
X1112646Y1420234D1*
X1112799Y1380778D1*
Y1224528D1*
X1351813D1*
X1351516Y1243130D1*
Y1730643D1*
X1352238Y1742152D1*
X1353610Y1749725D1*
X434074Y1355910D2*
X486007D1*
X790422D2*
X866524D1*
X434074Y1331041D2*
X486007D1*
X790567D2*
X866524D1*
X434074Y1306172D2*
X500607D1*
X759122D2*
X866524D1*
X434074Y1281303D2*
X500508D1*
X558096D2*
X866524D1*
X434074Y1256435D2*
X485811D1*
X572794D2*
X866524D1*
X434074Y1231566D2*
X485811D1*
X572794D2*
X866524D1*
X434074Y1206697D2*
X485811D1*
X572794D2*
X866524D1*
X434074Y1181828D2*
X485811D1*
X572794D2*
X866524D1*
X434074Y1156960D2*
X485811D1*
X572794D2*
X866524D1*
X434074Y1132091D2*
X485811D1*
X572794D2*
X866524D1*
X434074Y1107222D2*
X866524D1*
X434074Y1082353D2*
X866524D1*
X434074Y1057485D2*
X866524D1*
X434074Y1032616D2*
X764620D1*
X434074Y1007747D2*
X747579D1*
X512198Y982878D2*
X742306D1*
X512198Y958009D2*
X746016D1*
X512198Y933141D2*
X760567D1*
X512198Y908272D2*
X866524D1*
X512198Y883403D2*
X866524D1*
X512198Y858534D2*
X866524D1*
X512198Y833666D2*
X866524D1*
X512198Y808797D2*
X866524D1*
X512198Y783928D2*
X866524D1*
X512198Y759059D2*
X866524D1*
X512198Y734191D2*
X866524D1*
X512198Y709322D2*
X866524D1*
X512198Y684453D2*
X866524D1*
X869051Y933108D2*
X862402Y926562D1*
X853351Y919986D1*
X843381Y914906D1*
X832740Y911449D1*
X821691Y909698D1*
X810502D1*
X799452Y911449D1*
X788811Y914906D1*
X778841Y919986D1*
X769790Y926562D1*
X761880Y934473D1*
X755303Y943524D1*
X750223Y953494D1*
X746767Y964134D1*
X745016Y975184D1*
Y986373D1*
X746767Y997423D1*
X750223Y1008063D1*
X755303Y1018033D1*
X761880Y1027084D1*
X769790Y1034995D1*
X778841Y1041571D1*
X788811Y1046651D1*
X799452Y1050108D1*
X810502Y1051859D1*
X821691D1*
X832740Y1050108D1*
X843381Y1046651D1*
X853351Y1041571D1*
X862402Y1034995D1*
X869051Y1028449D1*
X869049Y1380730D1*
X749566Y1380778D1*
X749601Y1376399D1*
X756549Y1377079D1*
X764440Y1376145D1*
X771894Y1373394D1*
X778500Y1368981D1*
X783894Y1363146D1*
X787776Y1356213D1*
X789933Y1348566D1*
X790244Y1340626D1*
X788694Y1332834D1*
X785368Y1325618D1*
X780449Y1319378D1*
X774209Y1314460D1*
X766994Y1311133D1*
X760158Y1309696D1*
X747008Y1297002D1*
X741613Y1293981D1*
X735663Y1292302D1*
X731549Y1291978D1*
X555621D1*
X555586Y1272118D1*
X570271Y1272107D1*
Y1121238D1*
X488299D1*
Y1272107D1*
X502998D1*
X503309Y1307629D1*
X504987Y1313579D1*
X506865Y1317263D1*
X499601Y1318088D1*
X488496D1*
Y1380735D1*
X431597Y1380778D1*
X431549Y999773D1*
X509709Y999755D1*
Y668260D1*
X869000Y668278D1*
X869049Y933074D1*
X434074Y1818411D2*
X1029024D1*
X434074Y1793542D2*
X947775D1*
X1015323D2*
X1029012D1*
X434074Y1768673D2*
X947482D1*
X1015616D2*
X1029013D1*
X434074Y1743805D2*
X888254D1*
X434074Y1718936D2*
X888254D1*
X434074Y1694067D2*
X888254D1*
X434074Y1669198D2*
X1027755D1*
X434074Y1644330D2*
X1027755D1*
X434074Y1619461D2*
X1027755D1*
X434074Y1594592D2*
X1027755D1*
X434074Y1569723D2*
X1027755D1*
X434074Y1544855D2*
X1027755D1*
X434074Y1519986D2*
X1027755D1*
X434074Y1495117D2*
X1027755D1*
X434074Y1470248D2*
X1027755D1*
X434074Y1445380D2*
X888254D1*
X903260Y1467777D2*
X1030263D1*
X1030248Y1685807D1*
X890760Y1685805D1*
Y1767776D1*
X950322Y1767845D1*
X948164Y1775492D1*
X947853Y1783432D1*
X949403Y1791225D1*
X952730Y1798440D1*
X957649Y1804680D1*
X963889Y1809599D1*
X971104Y1812925D1*
X978897Y1814475D1*
X986836Y1814164D1*
X994483Y1812007D1*
X1001416Y1808125D1*
X1007251Y1802731D1*
X1011664Y1796125D1*
X1014415Y1788671D1*
X1015349Y1780780D1*
X1014415Y1772889D1*
X1012746Y1767780D1*
X1031532Y1767776D1*
X1031549Y1843327D1*
X431597Y1843280D1*
X431549Y1430731D1*
X890777Y1430778D1*
X890760Y1467777D1*
X903260D1*
X434074Y2268410D2*
X1280538D1*
X434074Y2243541D2*
X1280538D1*
X434074Y2218672D2*
X1280538D1*
X434074Y2193803D2*
X1280538D1*
X434074Y2168935D2*
X1280538D1*
X434074Y2144066D2*
X1280538D1*
X434074Y2119197D2*
X1280538D1*
X434074Y2094328D2*
X1280538D1*
X434074Y2069460D2*
X1280538D1*
X434074Y2044591D2*
X896016D1*
X1047990D2*
X1280538D1*
X434074Y2019722D2*
X896016D1*
X1047990D2*
X1280538D1*
X434074Y1994853D2*
X896016D1*
X1047990D2*
X1280538D1*
X434074Y1969985D2*
X896016D1*
X1047990D2*
X1280538D1*
X434074Y1945116D2*
X896016D1*
X1047990D2*
X1280538D1*
X434074Y1920247D2*
X896016D1*
X1047990D2*
X1280538D1*
X434074Y1895378D2*
X1280538D1*
X911002Y2054278D2*
X1045502D1*
Y1907278D1*
X898502D1*
Y2054278D1*
X911002D1*
X1283049Y1893267D2*
Y2293267D1*
X431597Y2293278D1*
X431549Y1893327D1*
X1283062Y1893280D1*
X2879949Y3137911D2*
X3088962D1*
X2879949Y3113042D2*
X3088962D1*
X2879949Y3088173D2*
X3088962D1*
X2879949Y3063305D2*
X3253465D1*
X2879362Y3038436D2*
X3253465D1*
X2874481Y3013567D2*
X3253465D1*
X2874481Y2988698D2*
X3253465D1*
X2874481Y2963830D2*
X3253465D1*
X2874481Y2938961D2*
X3253465D1*
X2874481Y2914092D2*
X3100633D1*
X3246735Y3097730D2*
Y3084359D1*
X3091467D1*
Y3156575D1*
X3059961Y3156240D1*
X2877490D1*
X2877370Y3045961D1*
X2876739Y3037218D1*
X2874158Y3024251D1*
X2871956Y3017582D1*
Y2912828D1*
X3100423Y2912780D1*
X3105255Y2914885D1*
X3111826Y2916192D1*
X3247607Y2916280D1*
X3255979Y2924609D1*
X3255956Y3088512D1*
X3246729Y3097701D1*
X3424481Y3137911D2*
X3794431D1*
X3424481Y3113042D2*
X3794431D1*
X3424481Y3088173D2*
X3794431D1*
X3424481Y3063305D2*
X3794431D1*
X3424481Y3038436D2*
X3794431D1*
X3424481Y3013567D2*
X3794431D1*
X3424481Y2988698D2*
X3794431D1*
X3424481Y2963830D2*
X3794431D1*
X3424481Y2938961D2*
X3794431D1*
X3424481Y2914092D2*
X3794431D1*
X3796907Y3162780D2*
X3422004D1*
X3421956Y2912828D1*
X3796907Y2912780D1*
X3796956Y3162731D1*
X1774481Y3137911D2*
X1988962D1*
X1774481Y3113042D2*
X1988962D1*
X1774481Y3088173D2*
X1988962D1*
X1774481Y3063305D2*
X2153465D1*
X1774481Y3038436D2*
X2153465D1*
X1774481Y3013567D2*
X2153465D1*
X1774481Y2988698D2*
X2153465D1*
X1774481Y2963830D2*
X2153465D1*
X1774481Y2938961D2*
X2153465D1*
X1774481Y2914092D2*
X2000633D1*
X2146735Y3097730D2*
Y3084359D1*
X1991467D1*
Y3162778D1*
X1772004Y3162780D1*
X1771956Y2912828D1*
X2000423Y2912780D1*
X2005255Y2914885D1*
X2011826Y2916192D1*
X2147607Y2916280D1*
X2155979Y2924609D1*
X2155956Y3088512D1*
X2146729Y3097701D1*
X2324481Y3137911D2*
X2689939D1*
X2324481Y3113042D2*
X2689939D1*
X2324481Y3088173D2*
X2689939D1*
X2324481Y3063305D2*
X2689939D1*
X2324481Y3038436D2*
X2690574D1*
X2324481Y3013567D2*
X2694431D1*
X2324481Y2988698D2*
X2694431D1*
X2324481Y2963830D2*
X2694431D1*
X2324481Y2938961D2*
X2694431D1*
X2324481Y2914092D2*
X2694431D1*
X2692694Y3043785D2*
X2692461Y3073740D1*
Y3156212D1*
X2482181Y3156331D1*
X2473440Y3156962D1*
X2460471Y3159544D1*
X2452154Y3162306D1*
X2446956Y3162780D1*
X2322004D1*
X2321956Y2912828D1*
X2696907Y2912780D1*
X2696956Y3020544D1*
X2694981Y3027508D1*
X2693328Y3036116D1*
X2692694Y3043785D1*
X2874481Y3737911D2*
X3088962D1*
X2874481Y3713042D2*
X3088962D1*
X2874481Y3688173D2*
X3088962D1*
X2874481Y3663305D2*
X3253465D1*
X2874481Y3638436D2*
X3253465D1*
X2874481Y3613567D2*
X3253465D1*
X2874481Y3588698D2*
X3253465D1*
X2874481Y3563830D2*
X3253465D1*
X2874481Y3538961D2*
X3253465D1*
X2874481Y3514092D2*
X3100633D1*
X3246735Y3697730D2*
Y3684359D1*
X3091467D1*
Y3762778D1*
X2872004Y3762780D1*
X2871956Y3512828D1*
X3100423Y3512780D1*
X3105255Y3514885D1*
X3111826Y3516192D1*
X3247607Y3516280D1*
X3255979Y3524609D1*
X3255956Y3688512D1*
X3246729Y3697701D1*
X3424481Y3737911D2*
X3794431D1*
X3424481Y3713042D2*
X3794431D1*
X3424481Y3688173D2*
X3794431D1*
X3424481Y3663305D2*
X3794431D1*
X3424481Y3638436D2*
X3794431D1*
X3424481Y3613567D2*
X3794431D1*
X3424481Y3588698D2*
X3794431D1*
X3424481Y3563830D2*
X3794431D1*
X3424481Y3538961D2*
X3794431D1*
X3424481Y3514092D2*
X3794431D1*
X3796907Y3762780D2*
X3422004D1*
X3421956Y3512828D1*
X3796907Y3512780D1*
X3796956Y3762731D1*
X1774481Y3737911D2*
X1988962D1*
X1774481Y3713042D2*
X1988962D1*
X1774481Y3688173D2*
X1988962D1*
X1774481Y3663305D2*
X2153465D1*
X1774481Y3638436D2*
X2153465D1*
X1774481Y3613567D2*
X2153465D1*
X1774481Y3588698D2*
X2153465D1*
X1774481Y3563830D2*
X2153465D1*
X1774481Y3538961D2*
X2153465D1*
X1774481Y3514092D2*
X2000633D1*
X2146735Y3697730D2*
Y3684359D1*
X1991467D1*
Y3762778D1*
X1772004Y3762780D1*
X1771956Y3512828D1*
X2000423Y3512780D1*
X2005255Y3514885D1*
X2011826Y3516192D1*
X2147607Y3516280D1*
X2155979Y3524609D1*
X2155956Y3688512D1*
X2146729Y3697701D1*
X2324481Y3737911D2*
X2694431D1*
X2324481Y3713042D2*
X2694431D1*
X2324481Y3688173D2*
X2694431D1*
X2324481Y3663305D2*
X2694431D1*
X2324481Y3638436D2*
X2694431D1*
X2324481Y3613567D2*
X2694431D1*
X2324481Y3588698D2*
X2694431D1*
X2324481Y3563830D2*
X2694431D1*
X2324481Y3538961D2*
X2694431D1*
X2324481Y3514092D2*
X2694431D1*
X2696907Y3762780D2*
X2322004D1*
X2321956Y3512828D1*
X2696907Y3512780D1*
X2696956Y3762731D1*
X1009450Y2655410D2*
X1110650D1*
X1009450Y2630540D2*
X1110650D1*
X1009450Y2605672D2*
X1110650D1*
X1009450Y2580802D2*
X1110650D1*
X903173Y2555935D2*
X1087410D1*
X903173Y2531066D2*
X1062553D1*
X903173Y2506197D2*
X1037651D1*
X1003914Y2578398D2*
Y2576792D1*
X1001773Y2576416D1*
X998288Y2574641D1*
X994425Y2574027D1*
X900626D1*
X900673Y2499027D1*
X1032949D1*
X1113204Y2579233D1*
X1113176Y2680326D1*
X1006975Y2680278D1*
X1006773Y2584572D1*
X1005562Y2580853D1*
X1003928Y2578406D1*
X1000099Y2575391D1*
X996380Y2574183D1*
X994422Y2574028D1*
X1004537Y2579181D1*
X1003931Y2578408D1*
X584449Y2805410D2*
X704399D1*
X584449Y2780540D2*
X704399D1*
X584449Y2755672D2*
X704399D1*
X584449Y2730803D2*
X704399D1*
X584449Y2705933D2*
X704399D1*
X584449Y2681066D2*
X704399D1*
X678394Y2656197D2*
X704399D1*
X684450Y2631327D2*
X704377D1*
X634080Y2660176D2*
X675897D1*
X675956Y2653437D1*
X678931Y2650897D1*
X680973Y2647562D1*
X681889Y2643760D1*
X681928Y2630278D1*
X706880D1*
X706924Y2825078D1*
X701748Y2830277D1*
X581974Y2830278D1*
X581927Y2662456D1*
X588114Y2667223D1*
X593149Y2669788D1*
X598519Y2671533D1*
X604100Y2672416D1*
X609750D1*
X615328Y2671533D1*
X620701Y2669788D1*
X625735Y2667223D1*
X630305Y2663901D1*
X634053Y2660176D1*
D23*
X3573544Y1198445D3*
D24*
Y848445D3*
Y1548445D3*
D25*
X1963264Y1748441D3*
X1896335D3*
X2190099Y2167189D3*
X2257028D3*
D26*
X2692293Y1835945D3*
Y1769016D3*
X3623544Y610945D3*
Y677874D3*
Y523445D3*
Y456516D3*
D25*
X1963257Y1967141D3*
X1896328D3*
D26*
X3179936Y2260920D3*
Y2193991D3*
D25*
X3507008Y710945D3*
X3440079D3*
X2640079Y960945D3*
X2707008D3*
Y848445D3*
X2640079D3*
Y1017194D3*
X2707008D3*
D28*
X2121378Y1385945D3*
X2475709D3*
D29*
X1967200Y1660840D3*
X1892397D3*
D30*
X2304794Y1998446D3*
X2194558D3*
D26*
X2492294Y2048445D3*
Y1981516D3*
D25*
X1963260Y1188603D3*
X1896331D3*
X2523544Y2142196D3*
X2456614D3*
D26*
X3196956Y2846244D3*
Y2779315D3*
X2096956Y2846244D3*
Y2779315D3*
X3196956Y3446244D3*
Y3379315D3*
X2096956Y3446244D3*
Y3379315D3*
D25*
X860960Y3492775D3*
X927889D3*
X710962Y3592780D3*
X777891D3*
X785961Y3111528D3*
X852890D3*
X721639D3*
X654710D3*
X635961Y2942778D3*
X702890D3*
X840390D3*
X773461D3*
X704709Y2992778D3*
X771638D3*
X960961Y2692777D3*
X1027890D3*
X1721330Y2160946D3*
X1788259D3*
X1721330Y2223446D3*
X1788259D3*
D32*
X2630236Y904696D3*
X2716851D3*
Y785945D3*
X2630236D3*
D26*
X3179936Y1842126D3*
Y1909055D3*
D25*
X1721330Y2098446D3*
X1788259D3*
D26*
X2934456Y2846244D3*
Y2779315D3*
X3384456Y2846244D3*
Y2779315D3*
X1834456Y2846244D3*
Y2779315D3*
X2284456Y2846244D3*
Y2779315D3*
X2934456Y3446244D3*
Y3379315D3*
X3384456Y3446244D3*
Y3379315D3*
X1834456Y3446244D3*
Y3379315D3*
X2284456Y3446244D3*
Y3379315D3*
D33*
X515658Y1741754D3*
X515697Y2132305D3*
X772390D3*
X772440Y1741754D3*
D34*
X1127907Y980778D3*
D35*
X972002D3*
X816096D3*
X660191D3*
D36*
X1736044Y1344065D3*
D37*
Y1422805D3*
D36*
Y1265324D3*
Y1186584D3*
Y848445D3*
D37*
Y769705D3*
D36*
Y927185D3*
D34*
X972002Y1980778D3*
D35*
X1127907D3*
D38*
X3567231Y2794029D3*
X3620381D3*
X3673530D3*
X3726680D3*
X2467231D3*
X2520381D3*
X2573530D3*
X2626680D3*
X3567231Y3394029D3*
X3620381D3*
X3673530D3*
X3726680D3*
X2467231D3*
X2520381D3*
X2573530D3*
X2626680D3*
D39*
X619418Y3755278D3*
D40*
Y3655278D3*
Y3555278D3*
Y3455278D3*
Y3355278D3*
Y3255278D3*
D41*
X1206924Y3442778D3*
Y2842778D3*
D39*
X1823544Y2410945D3*
D40*
X1923544D3*
X2023544D3*
X2123544D3*
X2223544D3*
X2323544D3*
X2423544D3*
X2523544D3*
X2623544D3*
X2723544D3*
X2823544D3*
X2923544D3*
X3023544D3*
X3123544D3*
X3223544D3*
X3323544D3*
X3423544D3*
X3523544D3*
X3623544D3*
X3723544D3*
D39*
X1823544Y2510945D3*
D40*
X1923544D3*
X2023544D3*
X2123544D3*
X2223544D3*
X2323544D3*
X2423544D3*
X2523544D3*
X2623544D3*
X2723544D3*
X2823544D3*
X2923544D3*
X3023544D3*
X3123544D3*
X3223544D3*
X3323544D3*
X3423544D3*
X3523544D3*
X3623544D3*
X3723544D3*
D42*
X2992424Y2092149D3*
X3029924D3*
D43*
X2079793Y1773445D3*
X2302234D3*
D46*
X966194Y1426792D3*
Y1247264D3*
D47*
X1229974Y1337028D3*
D49*
X2098458Y2231189D3*
X2023655D3*
X2061057Y2140638D3*
D46*
X966194Y1726790D3*
Y1547263D3*
D47*
X1229974Y1637027D3*
D51*
X529285Y1196672D3*
X708813D3*
D52*
X619049Y1460452D3*
D46*
X3169101Y3127544D3*
Y2948016D3*
D47*
X3432881Y3037780D3*
D46*
X2069101Y3127544D3*
Y2948016D3*
D47*
X2332881Y3037780D3*
D46*
X3169101Y3727544D3*
Y3548016D3*
D47*
X3432881Y3637780D3*
D46*
X2069101Y3727544D3*
Y3548016D3*
D47*
X2332881Y3637780D3*
D55*
X719915Y2624275D3*
X694718D3*
X669128D3*
X643537D3*
D175*
X681923Y2544353D3*
D56*
X894670Y2529786D3*
Y2554983D3*
Y2580574D3*
Y2606164D3*
D178*
X814748Y2567778D3*
D26*
X2048555Y1964929D3*
Y2031859D3*
X2111062D3*
Y1964929D3*
X1767293Y1990374D3*
Y1923445D3*
X1823542D3*
Y1990374D3*
X3179936Y1979641D3*
Y2046570D3*
D25*
X1925759Y2098446D3*
X1858830D3*
D29*
X1967197Y1382352D3*
X1892394D3*
D26*
X2342324Y2221206D3*
Y2288135D3*
D25*
X2113242Y2292146D3*
X2046313D3*
X3050740Y2192200D3*
X2983811D3*
X3050890Y2304670D3*
X2983961D3*
X3050890Y2248414D3*
X2983961D3*
D26*
X1973545Y1248889D3*
Y1315818D3*
X1886045Y1248889D3*
Y1315818D3*
X2598544Y688159D3*
Y621230D3*
D25*
X1925759Y2160946D3*
X1858830D3*
X1925759Y2223446D3*
X1858830D3*
D26*
X3059456Y2846244D3*
Y2779315D3*
X3134456Y2846244D3*
Y2779315D3*
X3259456D3*
Y2846244D3*
X2996956D3*
Y2779315D3*
X3321956D3*
Y2846244D3*
X1959456D3*
Y2779315D3*
X2034456Y2846244D3*
Y2779315D3*
X2159456D3*
Y2846244D3*
X1896956D3*
Y2779315D3*
X2221956D3*
Y2846244D3*
X3059456Y3446244D3*
Y3379315D3*
X3134456Y3446244D3*
Y3379315D3*
X3259456D3*
Y3446244D3*
X2996956D3*
Y3379315D3*
X3321956D3*
Y3446244D3*
X1959456D3*
Y3379315D3*
X2034456Y3446244D3*
Y3379315D3*
X2159456D3*
Y3446244D3*
X1896956D3*
Y3379315D3*
X2221956D3*
Y3446244D3*
D25*
X927889Y3592777D3*
X860960D3*
X777891Y3542778D3*
X710962D3*
Y3492778D3*
X777891D3*
X927889Y3542776D3*
X860960D3*
D29*
X700772Y2824028D3*
X775575D3*
D25*
X702890Y2886527D3*
X635961D3*
X773461D3*
X840390D3*
X685960Y2692777D3*
X752889D3*
X1027890Y2617778D3*
X960961D3*
Y2749028D3*
X1027890D3*
X685960D3*
X752889D3*
D57*
X1592293Y1707205D3*
Y1785945D3*
Y1864685D3*
D58*
Y1628465D3*
Y1943425D3*
D60*
X1892398Y1807792D3*
X1929799D3*
X1967201D3*
Y1914091D3*
X1929799D3*
X1892398D3*
D61*
X2773544Y1885945D3*
Y1835945D3*
Y1785945D3*
Y1735945D3*
X2986142D3*
Y1785945D3*
Y1835945D3*
Y1885945D3*
D63*
X2276725Y2217268D3*
Y2254670D3*
Y2292071D3*
X2170425D3*
Y2254670D3*
Y2217268D3*
D64*
X2904793Y2292244D3*
X2854793D3*
X2804793D3*
X2754793D3*
Y2079646D3*
X2804793D3*
X2854793D3*
X2904793D3*
D66*
X3434173Y499922D3*
X3449922D3*
X3465670D3*
X3481418D3*
X3497166D3*
D67*
X3534567Y521575D3*
Y537323D3*
Y553071D3*
Y568819D3*
Y584567D3*
D66*
X3497166Y621969D3*
X3481418D3*
X3465670D3*
X3449922D3*
X3434173D3*
D67*
X3412520Y584567D3*
Y568819D3*
Y553071D3*
Y537323D3*
Y521575D3*
X3534567Y600315D3*
X3412520D3*
D66*
X3512914Y499922D3*
Y621969D3*
D70*
X3279946Y2267170D3*
Y2208114D3*
Y2149059D3*
Y2090004D3*
Y2030949D3*
Y1971894D3*
Y1912839D3*
Y1853784D3*
Y1794729D3*
Y1735673D3*
X3909868D3*
Y2030949D3*
Y2267170D3*
D61*
X1968370Y1035767D3*
Y985767D3*
Y935767D3*
Y885767D3*
Y835767D3*
Y785767D3*
Y735767D3*
Y685767D3*
Y635767D3*
Y585767D3*
X2503803D3*
Y635767D3*
Y685767D3*
Y735767D3*
Y785767D3*
Y835767D3*
Y885767D3*
Y935767D3*
Y985767D3*
Y1035767D3*
D181*
X2236087Y810767D3*
D71*
X2553907Y1821772D3*
X2579498D3*
X2605088D3*
X2630679D3*
Y2050118D3*
X2605088D3*
X2579498D3*
X2553907D3*
D73*
X2447658Y2191013D3*
X2473248D3*
X2498839D3*
X2524429D3*
Y2293376D3*
X2498839D3*
X2473248D3*
X2447658D3*
D76*
X817554Y3208772D3*
X833302D3*
X849050D3*
X864798D3*
X880546D3*
X896294D3*
Y3364284D3*
X880546D3*
X864798D3*
X849050D3*
X833302D3*
X817554D3*
D184*
X856924Y3286528D3*
D187*
X836255Y2718713D3*
D78*
X834286Y2699028D3*
Y2679343D3*
X879562D3*
Y2699028D3*
Y2718713D3*
X442791Y671146D2*
D14*
X472935D1*
Y688357D1*
X452839Y711520D2*
X454265Y708668D1*
X457150Y705783D1*
X461461Y704357D1*
X464313D1*
X468624Y705783D1*
X471476Y708668D1*
X472935Y711520D1*
Y715831D1*
X471476Y718716D1*
X468624Y721568D1*
X464313Y723027D1*
X461461D1*
X457150Y721568D1*
X454265Y718716D1*
X452839Y715831D1*
Y711520D1*
Y756238D2*
X472935D1*
X457150D2*
X454265Y753386D1*
X452839Y750501D1*
Y746223D1*
X454265Y743338D1*
X457150Y740486D1*
X461461Y739027D1*
X464313D1*
X468624Y740486D1*
X471476Y743338D1*
X472935Y746223D1*
Y750501D1*
X471476Y753386D1*
X468624Y756238D1*
X442791Y789449D2*
X472935D1*
X457150D2*
X454265Y786597D1*
X452839Y783712D1*
Y779401D1*
X454265Y776549D1*
X457150Y773664D1*
X461461Y772238D1*
X464313D1*
X468624Y773664D1*
X471476Y776549D1*
X472935Y779401D1*
Y783712D1*
X471476Y786597D1*
X468624Y789449D1*
X457150Y821234D2*
X454265Y819808D1*
X452839Y815497D1*
Y811186D1*
X454265Y806875D1*
X457150Y805449D1*
X460002Y806875D1*
X461461Y809760D1*
X462887Y816923D1*
X464313Y819808D1*
X467198Y821234D1*
X468624D1*
X471476Y819808D1*
X472935Y815497D1*
Y811186D1*
X471476Y806875D1*
X468624Y805449D1*
X442791Y837234D2*
X472935D1*
X458576D2*
X454265Y841545D1*
X452839Y844430D1*
Y848741D1*
X454265Y851593D1*
X458576Y853019D1*
X472935D1*
X452839Y886230D2*
X472935D1*
X457150D2*
X454265Y883378D1*
X452839Y880493D1*
Y876215D1*
X454265Y873330D1*
X457150Y870478D1*
X461461Y869019D1*
X464313D1*
X468624Y870478D1*
X471476Y873330D1*
X472935Y876215D1*
Y880493D1*
X471476Y883378D1*
X468624Y886230D1*
X452839Y902230D2*
X472935D1*
X461461D2*
X457150Y903689D1*
X454265Y906541D1*
X452839Y909426D1*
Y913737D1*
X461461Y929737D2*
Y946948D1*
X458576D1*
X455691Y945522D1*
X454265Y944096D1*
X452839Y941211D1*
Y936900D1*
X454265Y934048D1*
X457150Y931163D1*
X461461Y929737D1*
X464313D1*
X468624Y931163D1*
X471476Y934048D1*
X472935Y936900D1*
Y941211D1*
X471476Y944096D1*
X468624Y946948D1*
X452839Y962948D2*
X472935D1*
X461461D2*
X457150Y964407D1*
X454265Y967259D1*
X452839Y970144D1*
Y974455D1*
X1311542Y671146D2*
X1341686Y682620D1*
X1311542Y694094D1*
X1317312Y710094D2*
X1315853Y712979D1*
X1311575Y717290D1*
X1341686D1*
X1318408Y1915917D2*
Y1897280D1*
X1348552D1*
Y1915917D1*
X1332767Y1897280D2*
Y1908754D1*
X1345667Y1933343D2*
X1347126Y1931917D1*
X1348552Y1933343D1*
X1347126Y1934802D1*
X1345667Y1933343D1*
X1318408Y1950802D2*
X1348552D1*
X1318408Y1970898D2*
X1338504Y1950802D1*
X1331308Y1957965D2*
X1348552Y1970898D1*
X1318408Y2166383D2*
X1348552D1*
Y2179316D1*
X1347093Y2183627D1*
X1345667Y2185053D1*
X1342815Y2186479D1*
X1338504D1*
X1335619Y2185053D1*
X1334193Y2183627D1*
X1332767Y2179316D1*
X1331308Y2183627D1*
X1329882Y2185053D1*
X1327030Y2186479D1*
X1324145D1*
X1321293Y2185053D1*
X1319834Y2183627D1*
X1318408Y2179316D1*
Y2166383D1*
X1332767D2*
Y2179316D1*
X1345667Y2203905D2*
X1347126Y2202479D1*
X1348552Y2203905D1*
X1347126Y2205364D1*
X1345667Y2203905D1*
X1325571Y2242886D2*
X1322719Y2241460D1*
X1319834Y2238575D1*
X1318408Y2235723D1*
Y2229986D1*
X1319834Y2227101D1*
X1322719Y2224249D1*
X1325571Y2222790D1*
X1329882Y2221364D1*
X1337078D1*
X1341356Y2222790D1*
X1344241Y2224249D1*
X1347093Y2227101D1*
X1348552Y2229986D1*
Y2235723D1*
X1347093Y2238575D1*
X1344241Y2241460D1*
X1341356Y2242886D1*
X1345667Y2260312D2*
X1347126Y2258886D1*
X1348552Y2260312D1*
X1347126Y2261771D1*
X1345667Y2260312D1*
X1318408Y2277771D2*
X1348552D1*
Y2294982D1*
M02*
