G04 DipTrace 3.0.0.1*
G04 brushless-driver_lay.GTS*
%MOIN*%
G04 #@! TF.FileFunction,Soldermask,Top*
G04 #@! TF.Part,Single*
%ADD32C,0.11811*%
%ADD35C,0.1004*%
%ADD36C,0.1181*%
%ADD43C,0.12611*%
%ADD45R,0.029654X0.067055*%
%ADD47R,0.11115X0.146583*%
%ADD49O,0.021X0.041465*%
%ADD51O,0.041465X0.021*%
%ADD55C,0.074929*%
%ADD57R,0.074929X0.074929*%
%ADD59C,0.12611*%
%ADD61R,0.12611X0.12611*%
%ADD65R,0.04737X0.051307*%
%ADD67R,0.070992X0.070992*%
%ADD69C,0.070992*%
%ADD71R,0.051307X0.04737*%
%FSLAX26Y26*%
G04*
G70*
G90*
G75*
G01*
G04 TopMask*
%LPD*%
D71*
X1481614Y1994168D3*
X1548543D3*
X1237839Y2281698D3*
X1304768D3*
X1237839Y2056675D3*
X1304768D3*
X1237839Y2169186D3*
X1304768D3*
D69*
X1444110Y512762D3*
D67*
Y712762D3*
D71*
X1537870Y1675385D3*
X1604799D3*
X1454783D3*
X1387854D3*
X1550371Y1806648D3*
X1483442D3*
X1550371Y1900408D3*
X1483442D3*
D65*
X1306596Y1744142D3*
Y1677213D3*
D71*
X2312951Y1569123D3*
X2246022D3*
X2100429Y1675385D3*
X2167358D3*
D65*
X500261Y1587875D3*
Y1520946D3*
D61*
X1962915Y1375353D3*
D59*
X862799Y812794D3*
D57*
X1400361Y2125432D3*
D55*
Y2225432D3*
X1500361Y2125432D3*
Y2225432D3*
X1600361Y2125432D3*
Y2225432D3*
X1700361Y2125432D3*
Y2225432D3*
X1800361Y2125432D3*
Y2225432D3*
X1900361Y2125432D3*
Y2225432D3*
X2000361Y2125432D3*
Y2225432D3*
X2100361Y2125432D3*
Y2225432D3*
X2200361Y2125432D3*
Y2225432D3*
X2300361Y2125432D3*
Y2225432D3*
D59*
X1894157Y812794D3*
D71*
X1373525Y1950413D3*
X1306596D3*
D65*
X1162831Y2312951D3*
Y2246022D3*
Y2025421D3*
Y1958492D3*
Y2169186D3*
Y2102257D3*
D71*
X1308424Y1844152D3*
X1375353D3*
X2244194Y1675385D3*
X2311123D3*
X2100429Y1569123D3*
X2167358D3*
D65*
X500261Y1400356D3*
Y1467285D3*
D51*
X1944163Y1706638D3*
X1943769Y1726740D3*
Y1746425D3*
Y1766110D3*
Y1785795D3*
Y1805480D3*
Y1825165D3*
Y1844850D3*
Y1864535D3*
Y1884220D3*
D49*
X1914241Y1913748D3*
X1894556D3*
X1874871D3*
X1855186D3*
X1835501D3*
X1815816D3*
X1796131D3*
X1776446D3*
X1756761D3*
X1737076D3*
D51*
X1707549Y1884220D3*
Y1864535D3*
Y1844850D3*
Y1825165D3*
Y1805480D3*
Y1785795D3*
Y1766110D3*
Y1746425D3*
Y1726740D3*
Y1707055D3*
D49*
X1737076Y1677528D3*
X1756761D3*
X1776446D3*
X1796131D3*
X1815816D3*
X1835501D3*
X1855186D3*
X1874871D3*
X1894556D3*
X1914241D3*
D47*
X1830161Y1795638D3*
D45*
X1156580Y1269092D3*
X1206580D3*
X1256580D3*
X1306580D3*
Y1481690D3*
X1256580D3*
X1206580D3*
X1156580D3*
X862799Y1269092D3*
X912799D3*
X962799D3*
X1012799D3*
Y1481690D3*
X962799D3*
X912799D3*
X862799D3*
X569018Y1269092D3*
X619018D3*
X669018D3*
X719018D3*
Y1481690D3*
X669018D3*
X619018D3*
X569018D3*
D35*
X2269197Y1981667D3*
X2275448Y481509D3*
X481509D3*
D43*
X994063Y1756643D3*
X663354Y1973178D3*
X828709D3*
X994063D3*
X498000Y1756643D3*
X663354D3*
X828709D3*
D61*
X498000Y1973178D3*
D32*
Y2260580D3*
X994063D3*
D59*
X1962915Y1209999D3*
X1746379D3*
Y1375353D3*
D36*
X2250647Y1292676D3*
D59*
X1894157Y647440D3*
X1677622Y978148D3*
Y647440D3*
Y812794D3*
D61*
X1894157Y978148D3*
D32*
X2181559D3*
Y647440D3*
D59*
X862799Y978148D3*
X1079335Y647440D3*
Y978148D3*
Y812794D3*
D61*
X862799Y647440D3*
D32*
X575398D3*
Y978148D3*
M02*
