G04 DipTrace 3.0.0.2*
G04 Power_Board.GTS*
%MOIN*%
G04 #@! TF.FileFunction,Soldermask,Top*
G04 #@! TF.Part,Single*
%ADD28C,0.125984*%
%ADD47C,0.11811*%
%ADD48C,0.059055*%
%ADD49C,0.03937*%
%ADD50C,0.18*%
%ADD51C,0.128346*%
%ADD63R,0.059055X0.066929*%
%ADD65R,0.051181X0.031496*%
%ADD67R,0.322835X0.125984*%
%ADD69R,0.047244X0.051181*%
%ADD73C,0.145669*%
%ADD75R,0.26378X0.251969*%
%ADD77R,0.116142X0.066929*%
%ADD79R,0.019685X0.062992*%
%ADD81R,0.066929X0.059055*%
%ADD83R,0.314961X0.204724*%
%ADD85R,0.204724X0.314961*%
%ADD87C,0.204724*%
%ADD89C,0.133858*%
%ADD90C,0.070866*%
%ADD92R,0.070866X0.070866*%
%ADD94R,0.022835X0.066929*%
%ADD96C,0.074803*%
%ADD98R,0.074803X0.074803*%
%ADD101R,0.125984X0.125984*%
%ADD103R,0.051181X0.047244*%
%FSLAX26Y26*%
G04*
G70*
G90*
G75*
G01*
G04 TopMask*
%LPD*%
D103*
X2091535Y2770669D3*
X2024606D3*
X2091535Y2824803D3*
X2024606D3*
X2091535Y2878937D3*
X2024606D3*
D101*
X3813976Y802165D3*
D28*
X3648622D3*
Y1018701D3*
X3813976D3*
D47*
X3731299Y514764D3*
D101*
X4453740Y802165D3*
D28*
X4288386D3*
Y1018701D3*
X4453740D3*
D47*
X4371063Y514764D3*
D101*
X5093504Y802165D3*
D28*
X4928150D3*
Y1018701D3*
X5093504D3*
D47*
X5010827Y514764D3*
D101*
X5730610Y802165D3*
D28*
X5565256D3*
Y1018701D3*
X5730610D3*
D47*
X5647933Y514764D3*
D101*
X6368110Y802165D3*
D28*
X6202756D3*
Y1018701D3*
X6368110D3*
D47*
X6285433Y514764D3*
D101*
X6077756Y2937992D3*
D28*
X6243110D3*
Y2721457D3*
X6077756D3*
D101*
X3162402Y2977362D3*
D28*
X2997047D3*
Y3193898D3*
X3162402D3*
D101*
X6781496Y3260827D3*
D28*
Y3095472D3*
X6564961D3*
Y3260827D3*
D101*
X2253937Y2767717D3*
D28*
Y2933071D3*
X2470472D3*
Y2767717D3*
D101*
X6186024Y2357283D3*
D28*
X6351378D3*
Y2140748D3*
X6186024D3*
D101*
X1496063Y802165D3*
D28*
X1330709D3*
X1165354D3*
X1000000D3*
Y1018701D3*
X1165354D3*
X1330709D3*
X1496063D3*
D47*
X1000000Y514764D3*
X1496063D3*
D101*
X2573819Y802165D3*
D28*
X2408465D3*
X2243110D3*
X2077756D3*
Y1018701D3*
X2243110D3*
X2408465D3*
X2573819D3*
D47*
X2077756Y514764D3*
X2573819D3*
D98*
X646654Y2872441D3*
D96*
Y2972441D3*
X746654Y2872441D3*
Y2972441D3*
X846654Y2872441D3*
Y2972441D3*
X946654Y2872441D3*
Y2972441D3*
X1046654Y2872441D3*
Y2972441D3*
X1146654Y2872441D3*
Y2972441D3*
D98*
X1377953Y2874016D3*
D96*
Y2974016D3*
X1277953Y2874016D3*
Y2974016D3*
D94*
X1838631Y3257857D3*
X1807135D3*
X1775639D3*
X1744143D3*
X1712647D3*
X1681151D3*
X1649655D3*
X1618159D3*
X1586663D3*
X1555167D3*
X1523671D3*
X1492175D3*
X1460678D3*
X1429182D3*
X1397686D3*
X1366190D3*
X1334694D3*
X1303198D3*
X1271702D3*
X1240206D3*
X1208710D3*
X1177214D3*
X1145718D3*
X1114222D3*
X1082726D3*
X1051230D3*
X1019734D3*
X988238D3*
X956741D3*
X925245D3*
X893749D3*
X862253D3*
X830757D3*
X799261D3*
X767765D3*
X736269D3*
X704773D3*
X673277D3*
X641781D3*
X610285D3*
Y3112188D3*
X641781D3*
X673277D3*
X704773D3*
X736269D3*
X767765D3*
X799261D3*
X830757D3*
X862253D3*
X893749D3*
X925245D3*
X956741D3*
X988238D3*
X1019734D3*
X1051230D3*
X1082726D3*
X1114222D3*
X1145718D3*
X1177214D3*
X1208710D3*
X1240206D3*
X1271702D3*
X1303198D3*
X1334694D3*
X1366190D3*
X1397686D3*
X1429182D3*
X1460678D3*
X1492175D3*
X1523671D3*
X1555167D3*
X1586663D3*
X1618159D3*
X1649655D3*
X1681151D3*
X1712647D3*
X1744143D3*
X1775639D3*
X1807135D3*
X1838631D3*
D48*
X1887844Y3222424D3*
X561072D3*
D49*
X503001Y3139747D3*
X1945915D3*
D50*
X1811827Y1977526D3*
D92*
X2539370Y3149606D3*
D90*
X2440945D3*
X2362205D3*
X2263780D3*
D89*
X2660236Y3255906D3*
X2142913D3*
D103*
X1968504Y2770669D3*
X1901575D3*
X1968504Y2824803D3*
X1901575D3*
X1968504Y2878937D3*
X1901575D3*
D87*
X3892717Y3056102D3*
D85*
Y2902559D3*
D87*
Y2749016D3*
X4223425Y2528543D3*
X3562008D3*
D83*
X3892717Y2197835D3*
D87*
X3739173D3*
X4046260D3*
D81*
X1732283Y1020648D3*
Y1095451D3*
X1845472Y1020648D3*
Y1095451D3*
D79*
X2947835Y1648622D3*
X2967520D3*
X2987205D3*
X3006890D3*
X3026575D3*
Y1821850D3*
X3006890D3*
X2987205D3*
X2967520D3*
X2947835D3*
D77*
X2283465Y2189961D3*
X2283484Y2008858D3*
D75*
X2547244Y2099409D3*
D77*
X3125000Y2012795D3*
X3124980Y2193898D3*
D75*
X2861220Y2103346D3*
D77*
X2283465Y2490157D3*
X2283484Y2309055D3*
D75*
X2547244Y2399606D3*
D77*
X3125000Y2312992D3*
X3124980Y2494094D3*
D75*
X2861220Y2403543D3*
D103*
X2957677Y1569882D3*
X2890748D3*
X3085630D3*
X3018701D3*
D81*
X1732283Y1242105D3*
Y1167302D3*
X1845472Y1243089D3*
Y1168286D3*
X4040354Y688976D3*
Y763780D3*
D73*
X3799213Y1825787D3*
X3665354Y1295472D3*
Y1825787D3*
X3799213Y1295472D3*
D81*
X4040354Y910433D3*
Y835630D3*
X4680118Y688976D3*
Y763780D3*
D73*
X4434055Y1825787D3*
X4300197Y1295472D3*
Y1825787D3*
X4434055Y1295472D3*
D81*
X4680118Y910433D3*
Y835630D3*
X5319882Y688976D3*
Y763780D3*
D73*
X5073819Y1825787D3*
X4939961Y1295472D3*
Y1825787D3*
X5073819Y1295472D3*
D81*
X5319882Y910433D3*
Y835630D3*
X5954724Y688976D3*
Y763780D3*
D73*
X5708661Y1825787D3*
X5574803Y1295472D3*
Y1825787D3*
X5708661Y1295472D3*
D81*
X5954724Y906496D3*
Y831693D3*
X6594488Y684055D3*
Y758858D3*
D73*
X6343504Y1825787D3*
X6209646Y1295472D3*
Y1825787D3*
X6343504Y1295472D3*
D81*
X6594488Y901575D3*
Y826772D3*
X6432087Y2947835D3*
Y2873031D3*
D73*
X5752953Y3252953D3*
X5619094Y2722638D3*
Y3252953D3*
X5752953Y2722638D3*
D81*
X6432087Y2721457D3*
Y2796260D3*
X723425Y1481299D3*
Y1556102D3*
D69*
X757874Y1240157D3*
Y1173228D3*
D67*
X1412402Y1240157D3*
Y1555118D3*
X1097441Y1240157D3*
Y1555118D3*
D81*
X644685Y1392717D3*
Y1317913D3*
X565945Y1471457D3*
Y1396654D3*
X644685Y1555118D3*
Y1480315D3*
D69*
X821850Y1176181D3*
Y1243110D3*
D65*
Y1309055D3*
Y1346457D3*
Y1383858D3*
X715551D3*
Y1309055D3*
D63*
X2931102Y1055118D3*
X2856299D3*
D69*
X2785433Y1289370D3*
Y1222441D3*
D67*
X2480315Y1240157D3*
Y1555118D3*
X2165354Y1240157D3*
Y1555118D3*
D81*
X2952756Y1358268D3*
Y1433071D3*
Y1215551D3*
Y1290354D3*
D63*
X2856299Y1134843D3*
X2931102D3*
D69*
X2839567Y1220472D3*
Y1287402D3*
D65*
Y1358268D3*
Y1395669D3*
Y1433071D3*
X2733268D3*
Y1358268D3*
D87*
X4911417Y2194882D3*
D85*
Y2348425D3*
D87*
Y2501969D3*
X4580709Y2722441D3*
X5242126D3*
D83*
X4911417Y3053150D3*
D87*
X5064961D3*
X4757874D3*
D51*
X6696850Y2755906D3*
Y1181102D3*
X590551Y787402D3*
Y2362205D3*
M02*
