M48
INCH
T01C0.02
T02C0.0354
T03C0.0433
T04C0.063
T05C0.0713
T06C0.0787
T07C0.1181
T08C0.1417
%
T01
X+021774Y+035150
X+021124Y+033087
X+019408Y+027410
X+023711Y+018791
X+022149Y+016916
X+019524Y+017291
X+026336Y+017603
X+029197Y+027405
X+030913Y+033082
X+031562Y+035145
X+040680Y+033082
X+041330Y+035145
X+038964Y+027405
X+012070Y+035149
X+011420Y+033086
X+009704Y+027409
T02
X+020658Y+040660
X+019871Y+040660
X+019871Y+041447
X+020658Y+041447
X+020447Y+035106
X+019660Y+035106
X+019660Y+034319
X+020447Y+034319
X+029448Y+034314
X+029448Y+035102
X+030235Y+035102
X+030235Y+034314
X+030447Y+040655
X+029659Y+040655
X+029659Y+041442
X+030447Y+041442
X+039427Y+041442
X+039427Y+040655
X+040214Y+040655
X+040214Y+041442
X+040003Y+035102
X+039216Y+035102
X+039216Y+034314
X+040003Y+034314
X+035336Y+019853
X+035336Y+017853
X+032086Y+017853
X+032086Y+019853
X+025524Y+020228
X+024711Y+020228
X+017649Y+018853
X+017649Y+018103
X+012211Y+007166
X+012211Y+005166
X+008836Y+005228
X+008836Y+007228
X+006336Y+005641
X+006336Y+004853
X+009956Y+034318
X+010743Y+034318
X+010743Y+035106
X+009956Y+035106
X+010167Y+040659
X+010167Y+041446
X+010954Y+041446
X+010954Y+040659
X+037899Y+004853
X+039211Y+004853
T03
X+019658Y+023660
X+020658Y+023660
X+029447Y+023655
X+030447Y+023655
X+039214Y+023655
X+040214Y+023655
X+010954Y+023659
X+009954Y+023659
T04
X+038775Y+007603
X+040114Y+007642
X+040114Y+011548
X+038775Y+011548
T05
X+017596Y+027910
X+015942Y+027910
X+015942Y+030075
X+017596Y+030075
X+017624Y+035244
X+015971Y+035244
X+015971Y+037410
X+017624Y+037410
X+025759Y+037405
X+027413Y+037405
X+027413Y+035239
X+025759Y+035239
X+025731Y+030070
X+027384Y+030070
X+027384Y+027905
X+025731Y+027905
X+035498Y+027905
X+037152Y+027905
X+037152Y+030070
X+035498Y+030070
X+035527Y+035239
X+037180Y+035239
X+037180Y+037405
X+035527Y+037405
X+038336Y+015291
X+039990Y+015291
X+039990Y+013125
X+038336Y+013125
X+008490Y+013063
X+006836Y+013063
X+006836Y+015228
X+008490Y+015228
X+007892Y+027909
X+006238Y+027909
X+006238Y+030074
X+007892Y+030074
X+007920Y+035243
X+006267Y+035243
X+006267Y+037409
X+007920Y+037409
T06
X+030712Y+009791
X+037011Y+009791
T07
X+016769Y+025036
X+011968Y+031369
X+007065Y+025035
X+007663Y+018102
X+022399Y+005978
X+026557Y+025031
X+021671Y+031370
X+031460Y+031365
X+036325Y+025031
X+039163Y+018165
X+041228Y+031365
X+036354Y+040279
X+026586Y+040279
X+016797Y+040284
X+007094Y+040283
T08
X+028559Y+018764
X+015961Y+018764
X+015918Y+006166
X+028559Y+006166
T00
M30
