G04 DipTrace 2.4.0.2*
%INMRR_Power_V2.GTO*%
%MOIN*%
%ADD10C,0.0098*%
%ADD34C,0.0154*%
%ADD39C,0.0039*%
%FSLAX44Y44*%
G04*
G70*
G90*
G75*
G01*
%LNTopSilk*%
%LPD*%
X20846Y27660D2*
D10*
X20721Y27535D1*
X19596D1*
X19471Y27660D1*
Y28410D1*
X19596Y28535D1*
X20721D1*
X20846Y28410D1*
Y27660D1*
Y26410D2*
X20721Y26285D1*
X19596D1*
X19471Y26410D1*
Y27160D1*
X19596Y27285D1*
X20721D1*
X20846Y27160D1*
Y26410D1*
X18659Y27476D2*
X18422D1*
X14879D2*
X15155D1*
X18659D2*
Y22437D1*
X14879Y27476D2*
Y22437D1*
X18659D2*
X14879D1*
X14908Y37843D2*
X15144D1*
X18687D2*
X18412D1*
X14908D2*
Y42882D1*
X18687Y37843D2*
Y42882D1*
X14908D2*
X18687D1*
X16755Y32008D2*
Y33266D1*
X17937Y32008D2*
Y33266D1*
X15505Y32008D2*
Y33266D1*
X16687Y32008D2*
Y33266D1*
X19124Y31906D2*
X20305D1*
Y32772D2*
X19124D1*
X20305D2*
Y31906D1*
X19124D2*
Y32181D1*
Y32496D2*
Y32772D1*
Y32181D2*
G03X19124Y32496I0J158D01*
G01*
X32204Y17042D2*
X31968D1*
X32086Y16924D2*
Y17161D1*
X30586Y18853D2*
G02X30586Y18853I1500J0D01*
G01*
X35454Y17042D2*
X35218D1*
X35336Y16924D2*
Y17161D1*
X33836Y18853D2*
G02X33836Y18853I1500J0D01*
G01*
X12093Y7977D2*
X12329D1*
X12211Y8095D2*
Y7859D1*
X10711Y6166D2*
G02X10711Y6166I1500J0D01*
G01*
X8718Y8039D2*
X8954D1*
X8836Y8157D2*
Y7921D1*
X7336Y6228D2*
G02X7336Y6228I1500J0D01*
G01*
X24156Y13424D2*
Y9408D1*
Y13424D2*
X25180D1*
X24156Y9408D2*
X25180D1*
D34*
X22574Y12903D3*
X6431Y8581D2*
D10*
X6116D1*
X5773Y15662D2*
X6009D1*
X9553D2*
X9277D1*
X5773D2*
Y20701D1*
X9553Y15662D2*
Y20701D1*
X5773D2*
X9553D1*
X37273Y15724D2*
X37509D1*
X41053D2*
X40777D1*
X37273D2*
Y20763D1*
X41053Y15724D2*
Y20763D1*
X37273D2*
X41053D1*
X6808Y4381D2*
X5864D1*
Y6113D1*
X6808D1*
Y4381D1*
X11595Y15854D2*
X18348D1*
X11595Y9102D2*
X18348D1*
X35830Y4771D2*
X31893D1*
Y14810D1*
X35830D1*
Y4771D1*
X20116Y14756D2*
D39*
X21415D1*
Y16056D1*
X20116D1*
Y14756D1*
X20363Y17887D2*
D10*
X19104D1*
X20363Y19069D2*
X19104D1*
X24564Y17415D2*
D39*
X25560D1*
Y18577D1*
X24564D1*
Y17415D1*
X25283Y17594D2*
G02X25283Y17594I85J0D01*
G01*
X40736Y6981D2*
D10*
X38137D1*
Y12178D1*
X40736D1*
Y6981D1*
X11142Y27659D2*
X11017Y27534D1*
X9892D1*
X9767Y27659D1*
Y28409D1*
X9892Y28534D1*
X11017D1*
X11142Y28409D1*
Y27659D1*
Y26409D2*
X11017Y26284D1*
X9892D1*
X9767Y26409D1*
Y27159D1*
X9892Y27284D1*
X11017D1*
X11142Y27159D1*
Y26409D1*
X8955Y27475D2*
X8719D1*
X5175D2*
X5451D1*
X8955D2*
Y22436D1*
X5175Y27475D2*
Y22436D1*
X8955D2*
X5175D1*
X5204Y37842D2*
X5440D1*
X8983D2*
X8708D1*
X5204D2*
Y42881D1*
X8983Y37842D2*
Y42881D1*
X5204D2*
X8983D1*
X7051Y32007D2*
Y33265D1*
X8233Y32007D2*
Y33265D1*
X5801Y32007D2*
Y33265D1*
X6983Y32007D2*
Y33265D1*
X9420Y31905D2*
X10602D1*
Y32771D2*
X9420D1*
X10602D2*
Y31905D1*
X9420D2*
Y32180D1*
Y32495D2*
Y32771D1*
Y32180D2*
G03X9420Y32495I0J158D01*
G01*
X30634Y27655D2*
X30509Y27530D1*
X29384D1*
X29259Y27655D1*
Y28405D1*
X29384Y28530D1*
X30509D1*
X30634Y28405D1*
Y27655D1*
Y26405D2*
X30509Y26280D1*
X29384D1*
X29259Y26405D1*
Y27155D1*
X29384Y27280D1*
X30509D1*
X30634Y27155D1*
Y26405D1*
X28447Y27471D2*
X28211D1*
X24668D2*
X24943D1*
X28447D2*
Y22432D1*
X24668Y27471D2*
Y22432D1*
X28447D2*
X24668D1*
X24696Y37838D2*
X24932D1*
X28476D2*
X28200D1*
X24696D2*
Y42877D1*
X28476Y37838D2*
Y42877D1*
X24696D2*
X28476D1*
X26543Y32003D2*
Y33261D1*
X27725Y32003D2*
Y33261D1*
X25293Y32003D2*
Y33261D1*
X26475Y32003D2*
Y33261D1*
X28913Y31901D2*
X30094D1*
Y32767D2*
X28913D1*
X30094D2*
Y31901D1*
X28913D2*
Y32176D1*
Y32491D2*
Y32767D1*
Y32176D2*
G03X28913Y32491I0J158D01*
G01*
X40402Y27655D2*
X40277Y27530D1*
X39152D1*
X39027Y27655D1*
Y28405D1*
X39152Y28530D1*
X40277D1*
X40402Y28405D1*
Y27655D1*
Y26405D2*
X40277Y26280D1*
X39152D1*
X39027Y26405D1*
Y27155D1*
X39152Y27280D1*
X40277D1*
X40402Y27155D1*
Y26405D1*
X38215Y27471D2*
X37979D1*
X34435D2*
X34711D1*
X38215D2*
Y22432D1*
X34435Y27471D2*
Y22432D1*
X38215D2*
X34435D1*
X34464Y37838D2*
X34700D1*
X38243D2*
X37968D1*
X34464D2*
Y42877D1*
X38243Y37838D2*
Y42877D1*
X34464D2*
X38243D1*
X36311Y32003D2*
Y33261D1*
X37493Y32003D2*
Y33261D1*
X35061Y32003D2*
Y33261D1*
X36243Y32003D2*
Y33261D1*
X38680Y31901D2*
X39861D1*
Y32767D2*
X38680D1*
X39861D2*
Y31901D1*
X38680D2*
Y32176D1*
Y32491D2*
Y32767D1*
Y32176D2*
G03X38680Y32491I0J158D01*
G01*
X21502Y24974D2*
D34*
X22363D1*
X21933Y24544D2*
Y25405D1*
X21984Y39477D2*
Y40029D1*
X11798Y24973D2*
X12659D1*
X12229Y24543D2*
Y25404D1*
X12280Y39476D2*
Y40028D1*
X31290Y24969D2*
X32151D1*
X31721Y24539D2*
Y25400D1*
X31772Y39472D2*
Y40024D1*
X41058Y24969D2*
X41919D1*
X41489Y24539D2*
Y25400D1*
X41540Y39472D2*
Y40024D1*
M02*
