G04 DipTrace 2.4.0.2*
%INMRR_Power_V2.GML*%
%MOIN*%
%ADD11C,0.0055*%
%FSLAX44Y44*%
G04*
G70*
G90*
G75*
G01*
%LNBoardOutline*%
%LPD*%
X3940Y3940D2*
D11*
Y21558D1*
X4334D1*
G03X4334Y22149I0J295D01*
G01*
X3940D1*
Y43310D1*
X13586D1*
Y42917D1*
G03X14176Y42917I295J0D01*
G01*
Y43310D1*
X23231D1*
Y42818D1*
G03X23822Y42818I295J0D01*
G01*
Y43310D1*
X33074D1*
Y42917D1*
G03X33665Y42917I295J0D01*
G01*
Y43310D1*
X43310D1*
Y22149D1*
X42917D1*
G03X42917Y21558I0J-295D01*
G01*
X43310D1*
Y3940D1*
X3940D1*
X5318Y22149D2*
X13094D1*
X5318D2*
G03X5318Y21558I-16J-295D01*
G01*
X13094D1*
G03X13094Y22149I0J295D01*
G01*
X14570D2*
X22838D1*
X14570D2*
G03X14570Y21558I-11J-295D01*
G01*
X22838D1*
G03X22838Y22149I10J295D01*
G01*
X24314D2*
X32680D1*
X24314D2*
G03X24314Y21558I0J-295D01*
G01*
X32680D1*
G03X32680Y22149I0J295D01*
G01*
X34157D2*
X41932D1*
X34157D2*
G03X34157Y21558I-34J-295D01*
G01*
X41932D1*
X41901Y21560D2*
G03X41932Y22149I12J295D01*
G01*
X33074Y33172D2*
Y41932D1*
Y33172D2*
G03X33665Y33172I295J0D01*
G01*
Y41932D1*
G03X33074Y41932I-295J0D01*
G01*
Y23035D2*
Y32090D1*
Y23035D2*
G03X33665Y23035I295J0D01*
G01*
Y32090D1*
G03X33074Y32090I-295J0D01*
G01*
X23231Y22936D2*
Y31991D1*
Y22936D2*
G03X23822Y22936I295J0D01*
G01*
Y31991D1*
G03X23231Y31991I-295J0D01*
G01*
Y33074D2*
Y41834D1*
Y33074D2*
G03X23822Y33074I295J0D01*
G01*
Y41834D1*
G03X23231Y41834I-295J0D01*
G01*
X13586Y33172D2*
Y41932D1*
Y33172D2*
G03X14176Y33172I295J0D01*
G01*
Y41932D1*
G03X13586Y41932I-295J0D01*
G01*
Y23035D2*
Y32090D1*
Y23035D2*
G03X14176Y23035I295J0D01*
G01*
Y32090D1*
G03X13586Y32090I-295J0D01*
G01*
M02*
