G04 DipTrace 2.4.0.2*
%INMRR_Power_V2.GTS*%
%MOIN*%
%ADD50C,0.1181*%
%ADD51C,0.1417*%
%ADD59C,0.1025*%
%ADD61C,0.0671*%
%ADD63R,0.0454X0.0204*%
%ADD65R,0.0789X0.134*%
%ADD67R,0.0671X0.0592*%
%ADD69R,0.0356X0.0238*%
%ADD71R,0.0257X0.0435*%
%ADD73R,0.1045X0.1065*%
%ADD75C,0.1655*%
%ADD77R,0.1586X0.4931*%
%ADD79R,0.3899X0.4175*%
%ADD81R,0.1635X0.0671*%
%ADD83R,0.071X0.071*%
%ADD85C,0.071*%
%ADD91R,0.0198X0.0631*%
%ADD95R,0.134X0.0789*%
%ADD97R,0.0474X0.0513*%
%ADD99C,0.075*%
%ADD101R,0.075X0.075*%
%ADD103C,0.1261*%
%ADD105R,0.1261X0.1261*%
%ADD107R,0.033X0.068*%
%ADD109C,0.0671*%
%ADD111R,0.0671X0.0671*%
%ADD113R,0.0592X0.0671*%
%ADD115R,0.0513X0.0474*%
%FSLAX44Y44*%
G04*
G70*
G90*
G75*
G01*
%LNTopMask*%
%LPD*%
D111*
X20658Y40660D3*
D109*
X19871D3*
Y41447D3*
X20658D3*
D111*
X19660Y35106D3*
D109*
X20447D3*
Y34319D3*
X19660D3*
D107*
X20533Y28035D3*
X20158D3*
X19783D3*
X20533Y26785D3*
X20158D3*
X19783D3*
D105*
X17596Y27910D3*
D103*
X15942D3*
Y30075D3*
X17596D3*
D50*
X16769Y25036D3*
D105*
X15971Y37410D3*
D103*
X17624D3*
Y35244D3*
X15971D3*
D50*
X16797Y40284D3*
D101*
X19658Y23660D3*
D99*
X20658D3*
D97*
X20596Y29597D3*
Y28928D3*
D95*
X17346Y31535D3*
Y33739D3*
X16096Y31535D3*
Y33739D3*
D91*
X19321Y31473D3*
X19518D3*
X19715D3*
X19912D3*
X20108D3*
Y33205D3*
X19912D3*
X19715D3*
X19518D3*
X19321D3*
D50*
X21671Y31370D3*
D97*
X38836Y6335D3*
Y5666D3*
X38211Y6335D3*
Y5666D3*
D85*
X32086Y19853D3*
D83*
Y17853D3*
D85*
X35336Y19853D3*
D83*
Y17853D3*
D115*
X23711Y16853D3*
X23042D3*
D85*
X12211Y5166D3*
D83*
Y7166D3*
D85*
X8836Y5228D3*
D83*
Y7228D3*
D97*
X10086Y16228D3*
Y16898D3*
X10586Y16228D3*
Y16898D3*
X26274Y18872D3*
Y19541D3*
D115*
X22836Y17478D3*
X22167D3*
D81*
X23211Y12416D3*
Y10416D3*
D79*
X27266Y11416D3*
D97*
X6274Y8916D3*
Y9585D3*
D105*
X6836Y15228D3*
D103*
X8490D3*
Y13063D3*
X6836D3*
D50*
X7663Y18102D3*
D105*
X38336Y15291D3*
D103*
X39990D3*
Y13125D3*
X38336D3*
D50*
X39163Y18165D3*
D111*
X6336Y5641D3*
D109*
Y4853D3*
D77*
X11774Y12478D3*
X18169D3*
D75*
X30712Y9791D3*
X37011D3*
D73*
X20774Y15166D3*
D71*
X20388Y16056D3*
X20644Y16054D3*
X20900D3*
X21155Y16052D3*
D69*
X21352Y15453D3*
X20181Y15457D3*
D67*
X26899Y18853D3*
Y19601D3*
Y17353D3*
Y18101D3*
D113*
X23274Y19541D3*
X24022D3*
X22961Y16228D3*
X23709D3*
D65*
X20836Y18478D3*
X18631D3*
D97*
X19501Y16688D3*
Y16019D3*
D115*
X22836Y18041D3*
X22167D3*
D97*
X6274Y11004D3*
Y10335D3*
D63*
X25836Y17603D3*
X25835Y17859D3*
X25837Y18114D3*
Y18368D3*
X24281Y17603D3*
X24282Y17858D3*
X24281Y18112D3*
Y18370D3*
D61*
X17649Y18853D3*
Y18103D3*
X37899Y4853D3*
X39211D3*
X24711Y20228D3*
X25524D3*
D51*
X28559Y18764D3*
X15961D3*
X28559Y6166D3*
X15918D3*
D50*
X22399Y5978D3*
D59*
X38775Y7603D3*
Y11548D3*
X40114D3*
Y7642D3*
D111*
X10954Y40659D3*
D109*
X10167D3*
Y41446D3*
X10954D3*
D111*
X9956Y35106D3*
D109*
X10743D3*
Y34318D3*
X9956D3*
D107*
X10829Y28034D3*
X10454D3*
X10079D3*
X10829Y26784D3*
X10454D3*
X10079D3*
D105*
X7892Y27909D3*
D103*
X6238D3*
Y30074D3*
X7892D3*
D50*
X7065Y25035D3*
D105*
X6267Y37409D3*
D103*
X7920D3*
Y35243D3*
X6267D3*
D50*
X7094Y40283D3*
D101*
X9954Y23659D3*
D99*
X10954D3*
D97*
X10892Y29596D3*
Y28927D3*
D95*
X7642Y31534D3*
Y33738D3*
X6392Y31534D3*
Y33738D3*
D91*
X9617Y31472D3*
X9814D3*
X10011D3*
X10208D3*
X10405D3*
Y33204D3*
X10208D3*
X10011D3*
X9814D3*
X9617D3*
D50*
X11968Y31369D3*
D111*
X30447Y40655D3*
D109*
X29659D3*
Y41442D3*
X30447D3*
D111*
X29448Y35102D3*
D109*
X30235D3*
Y34314D3*
X29448D3*
D107*
X30322Y28030D3*
X29947D3*
X29572D3*
X30322Y26780D3*
X29947D3*
X29572D3*
D105*
X27384Y27905D3*
D103*
X25731D3*
Y30070D3*
X27384D3*
D50*
X26557Y25031D3*
D105*
X25759Y37405D3*
D103*
X27413D3*
Y35239D3*
X25759D3*
D50*
X26586Y40279D3*
D101*
X29447Y23655D3*
D99*
X30447D3*
D97*
X30384Y29592D3*
Y28923D3*
D95*
X27134Y31530D3*
Y33734D3*
X25884Y31530D3*
Y33734D3*
D91*
X29109Y31468D3*
X29306D3*
X29503D3*
X29700D3*
X29897D3*
Y33200D3*
X29700D3*
X29503D3*
X29306D3*
X29109D3*
D50*
X31460Y31365D3*
D111*
X40214Y40655D3*
D109*
X39427D3*
Y41442D3*
X40214D3*
D111*
X39216Y35102D3*
D109*
X40003D3*
Y34314D3*
X39216D3*
D107*
X40089Y28030D3*
X39714D3*
X39339D3*
X40089Y26780D3*
X39714D3*
X39339D3*
D105*
X37152Y27905D3*
D103*
X35498D3*
Y30070D3*
X37152D3*
D50*
X36325Y25031D3*
D105*
X35527Y37405D3*
D103*
X37180D3*
Y35239D3*
X35527D3*
D50*
X36354Y40279D3*
D101*
X39214Y23655D3*
D99*
X40214D3*
D97*
X40152Y29592D3*
Y28923D3*
D95*
X36902Y31530D3*
Y33734D3*
X35652Y31530D3*
Y33734D3*
D91*
X38877Y31468D3*
X39074D3*
X39271D3*
X39468D3*
X39665D3*
Y33200D3*
X39468D3*
X39271D3*
X39074D3*
X38877D3*
D50*
X41228Y31365D3*
M02*
