G04 DipTrace 3.0.0.1*
G04 arm_arduino_shield_lay_V9.GTO*
%MOIN*%
G04 #@! TF.FileFunction,Legend,Top*
G04 #@! TF.Part,Single*
%ADD10C,0.009843*%
%ADD35C,0.006176*%
%ADD36C,0.009264*%
%FSLAX26Y26*%
G04*
G70*
G90*
G75*
G01*
G04 TopSilk*
%LPD*%
X550273Y2350414D2*
D10*
X450272D1*
Y1550487D1*
X550273D1*
Y2350414D1*
X550271Y1469071D2*
X450269D1*
Y669144D1*
X550271D1*
Y1469071D1*
X2331715Y875342D2*
X2431717D1*
Y1675269D1*
X2331715D1*
Y875342D1*
X2431717Y487776D2*
X631717D1*
Y687776D1*
X2431717D1*
Y487776D1*
X1106567Y3069276D2*
X906567D1*
Y2569276D1*
X1106567D1*
Y3069276D1*
X1975408D2*
X1775408D1*
Y2569276D1*
X1975408D1*
Y3069276D1*
X1106500Y2269010D2*
X906500D1*
Y1769010D1*
X1106500D1*
Y2269010D1*
X1975249D2*
X1775249D1*
Y1769010D1*
X1975249D1*
Y2269010D1*
X1106500Y1469004D2*
X906500D1*
Y969004D1*
X1106500D1*
Y1469004D1*
X1975249D2*
X1775249D1*
Y969004D1*
X1975249D1*
Y1469004D1*
X550271Y3231756D2*
X450269D1*
Y2431829D1*
X550271D1*
Y3231756D1*
X2325464Y2606717D2*
X2425466D1*
Y3606758D1*
X2325464D1*
Y2606717D1*
Y1756685D2*
X2425466D1*
Y2556612D1*
X2325464D1*
Y1756685D1*
X2081680Y3381829D2*
X1781680D1*
Y3581829D1*
X2081680D1*
Y3381829D1*
G36*
X1302870Y2282463D2*
Y2306463D1*
X1319870Y2316463D1*
X1376870D1*
X1393870Y2306463D1*
Y2282463D1*
D1*
X1302870D1*
G37*
G36*
X1319870Y2328463D2*
Y2350463D1*
X1330870Y2357463D1*
Y2503463D1*
X1338870Y2501463D1*
X1365870Y2458463D1*
Y2357463D1*
X1376870Y2350463D1*
Y2328463D1*
X1319870D1*
G37*
G36*
X1345870Y2510463D2*
X1333870Y2514463D1*
X1322870Y2524463D1*
X1318870Y2539463D1*
X1322870Y2554463D1*
X1333870Y2565463D1*
X1347870Y2569463D1*
X1362870Y2565463D1*
X1373870Y2554463D1*
X1377870Y2539463D1*
X1374870Y2528463D1*
X1465870Y2380463D1*
X1477870Y2376463D1*
X1488870Y2365463D1*
X1492870Y2350463D1*
X1488870Y2336463D1*
X1477870Y2325463D1*
X1462870Y2321463D1*
X1447870Y2325463D1*
X1436870Y2336463D1*
X1432870Y2351463D1*
X1435870Y2363463D1*
X1345870Y2510463D1*
G37*
G36*
X1468870Y2395463D2*
X1471870Y2390463D1*
X1484870Y2386463D1*
X1495870Y2373463D1*
X1548870Y2461463D1*
Y2512463D1*
X1542870Y2517463D1*
D1*
X1468870Y2395463D1*
G37*
G36*
X1559870Y2516463D2*
X1551870Y2524463D1*
X1546870Y2539463D1*
X1550870Y2554463D1*
X1561870Y2565463D1*
X1576870Y2569463D1*
X1591870Y2565463D1*
X1602870Y2554463D1*
X1606870Y2539463D1*
X1602870Y2525463D1*
X1593870Y2516463D1*
Y2399463D1*
X1576870Y2404463D1*
X1559870Y2399463D1*
Y2516463D1*
G37*
G36*
X1545870Y2356463D2*
X1546870Y2351463D1*
X1558870Y2338463D1*
X1562870Y2337463D1*
X1559870Y2334463D1*
Y2285463D1*
X1542870Y2282463D1*
X1530870Y2342463D1*
X1545870Y2356463D1*
G37*
G36*
X1556870Y2380463D2*
X1553870Y2368463D1*
X1556870Y2356463D1*
X1565870Y2347463D1*
X1576870Y2344463D1*
X1582870Y2346463D1*
X1594870Y2333463D1*
X1593870Y2285463D1*
X1611870Y2282463D1*
X1622870Y2342463D1*
X1599870Y2365463D1*
X1600870Y2369463D1*
X1597870Y2379463D1*
X1588870Y2388463D1*
X1576870Y2391463D1*
X1564870Y2388463D1*
X1556870Y2380463D1*
G37*
X593963Y3581531D2*
D10*
X1593963D1*
Y3381542D1*
X593963D1*
Y3581531D1*
X1125335Y3019003D2*
D35*
X1142579D1*
X1148282Y3020904D1*
X1150228Y3022850D1*
X1152129Y3026653D1*
Y3032401D1*
X1150228Y3036203D1*
X1148282Y3038149D1*
X1142579Y3040050D1*
X1125335D1*
Y2999858D1*
X1164481Y3040050D2*
X1174075Y2999858D1*
X1183626Y3040050D1*
X1193177Y2999858D1*
X1202771Y3040050D1*
X1245720Y2999858D2*
Y3040050D1*
X1230421Y2999858D1*
X1215123Y3040050D1*
Y2999858D1*
X1258071Y3019932D2*
X1280179D1*
X1292531Y3032356D2*
X1296377Y3034302D1*
X1302125Y3040006D1*
Y2999858D1*
X1325973Y3040006D2*
X1320225Y3038104D1*
X1316378Y3032356D1*
X1314477Y3022806D1*
Y3017058D1*
X1316378Y3007507D1*
X1320225Y3001759D1*
X1325973Y2999858D1*
X1329775D1*
X1335523Y3001759D1*
X1339326Y3007507D1*
X1341271Y3017058D1*
Y3022806D1*
X1339326Y3032356D1*
X1335523Y3038104D1*
X1329775Y3040006D1*
X1325973D1*
X1339326Y3032356D2*
X1316378Y3007507D1*
X842000Y2846235D2*
X822899D1*
X820998Y2829035D1*
X822899Y2830937D1*
X828647Y2832882D1*
X834351D1*
X840099Y2830937D1*
X843946Y2827134D1*
X845847Y2821386D1*
Y2817584D1*
X843946Y2811836D1*
X840099Y2807989D1*
X834351Y2806087D1*
X828647D1*
X822899Y2807989D1*
X820998Y2809934D1*
X819052Y2813737D1*
X858198Y2846280D2*
X873497Y2806087D1*
X888796Y2846280D1*
X1160281Y2836729D2*
X1158380Y2840531D1*
X1154533Y2844378D1*
X1150731Y2846280D1*
X1143081D1*
X1139235Y2844378D1*
X1135432Y2840531D1*
X1133486Y2836729D1*
X1131585Y2830981D1*
Y2821386D1*
X1133486Y2815682D1*
X1135432Y2811836D1*
X1139235Y2808033D1*
X1143081Y2806087D1*
X1150731D1*
X1154533Y2808033D1*
X1158380Y2811836D1*
X1160281Y2815682D1*
Y2821386D1*
X1150731D1*
X1199427Y2846280D2*
Y2806087D1*
X1172633Y2846280D1*
Y2806087D1*
X1211779Y2846280D2*
Y2806087D1*
X1225176D1*
X1230924Y2808033D1*
X1234771Y2811836D1*
X1236672Y2815682D1*
X1238573Y2821386D1*
Y2830981D1*
X1236672Y2836729D1*
X1234771Y2840531D1*
X1230924Y2844378D1*
X1225176Y2846280D1*
X1211779D1*
X1125335Y2218919D2*
X1142579D1*
X1148282Y2220820D1*
X1150228Y2222766D1*
X1152129Y2226569D1*
Y2232317D1*
X1150228Y2236119D1*
X1148282Y2238065D1*
X1142579Y2239966D1*
X1125335D1*
Y2199774D1*
X1164481Y2239966D2*
X1174075Y2199774D1*
X1183626Y2239966D1*
X1193177Y2199774D1*
X1202771Y2239966D1*
X1245720Y2199774D2*
Y2239966D1*
X1230421Y2199774D1*
X1215123Y2239966D1*
Y2199774D1*
X1258071Y2219848D2*
X1280179D1*
X1311676Y2199774D2*
Y2239922D1*
X1292531Y2213171D1*
X1321227D1*
X1131585Y1412585D2*
X1148829D1*
X1154533Y1414486D1*
X1156479Y1416431D1*
X1158380Y1420234D1*
Y1425982D1*
X1156479Y1429784D1*
X1154533Y1431730D1*
X1148829Y1433631D1*
X1131585D1*
Y1393439D1*
X1170731Y1433631D2*
X1180326Y1393439D1*
X1189877Y1433631D1*
X1199427Y1393439D1*
X1209022Y1433631D1*
X1251971Y1393439D2*
Y1433631D1*
X1236672Y1393439D1*
X1221373Y1433631D1*
Y1393439D1*
X1264322Y1413513D2*
X1286430D1*
X1302628Y1433587D2*
X1323630D1*
X1312179Y1418288D1*
X1317927D1*
X1321729Y1416387D1*
X1323630Y1414486D1*
X1325576Y1408738D1*
Y1404935D1*
X1323630Y1399187D1*
X1319828Y1395340D1*
X1314080Y1393439D1*
X1308332D1*
X1302628Y1395340D1*
X1300727Y1397286D1*
X1298781Y1401089D1*
X1994176Y3012753D2*
X2011420D1*
X2017124Y3014654D1*
X2019069Y3016599D1*
X2020970Y3020402D1*
Y3026150D1*
X2019069Y3029952D1*
X2017124Y3031898D1*
X2011420Y3033799D1*
X1994176D1*
Y2993607D1*
X2033322Y3033799D2*
X2042917Y2993607D1*
X2052467Y3033799D1*
X2062018Y2993607D1*
X2071613Y3033799D1*
X2114561Y2993607D2*
Y3033799D1*
X2099263Y2993607D1*
X2083964Y3033799D1*
Y2993607D1*
X2126913Y3013681D2*
X2149020D1*
X2170922Y3033755D2*
X2165219Y3031854D1*
X2163273Y3028051D1*
Y3024204D1*
X2165219Y3020402D1*
X2169021Y3018456D1*
X2176670Y3016555D1*
X2182418Y3014654D1*
X2186221Y3010807D1*
X2188122Y3007005D1*
Y3001256D1*
X2186221Y2997454D1*
X2184320Y2995508D1*
X2178572Y2993607D1*
X2170922D1*
X2165219Y2995508D1*
X2163273Y2997454D1*
X2161372Y3001256D1*
Y3007005D1*
X2163273Y3010807D1*
X2167120Y3014654D1*
X2172824Y3016555D1*
X2180473Y3018456D1*
X2184320Y3020402D1*
X2186221Y3024204D1*
Y3028051D1*
X2184320Y3031854D1*
X2178572Y3033755D1*
X2170922D1*
X2003514Y2215831D2*
X2020758D1*
X2026462Y2217733D1*
X2028408Y2219678D1*
X2030309Y2223481D1*
Y2229229D1*
X2028408Y2233031D1*
X2026462Y2234977D1*
X2020758Y2236878D1*
X2003514D1*
Y2196686D1*
X2042660Y2236878D2*
X2052255Y2196686D1*
X2061806Y2236878D1*
X2071356Y2196686D1*
X2080951Y2236878D1*
X2123900Y2196686D2*
Y2236878D1*
X2108601Y2196686D1*
X2093303Y2236878D1*
Y2196686D1*
X2136251Y2216760D2*
X2158359D1*
X2193658Y2236834D2*
X2174557D1*
X2172656Y2219634D1*
X2174557Y2221535D1*
X2180305Y2223481D1*
X2186009D1*
X2191757Y2221535D1*
X2195604Y2217733D1*
X2197505Y2211985D1*
Y2208182D1*
X2195604Y2202434D1*
X2191757Y2198587D1*
X2186009Y2196686D1*
X2180305D1*
X2174557Y2198587D1*
X2172656Y2200533D1*
X2170710Y2204335D1*
X1997264Y1421998D2*
X2014508D1*
X2020212Y1423899D1*
X2022157Y1425845D1*
X2024058Y1429647D1*
Y1435395D1*
X2022157Y1439198D1*
X2020212Y1441143D1*
X2014508Y1443045D1*
X1997264D1*
Y1402853D1*
X2036410Y1443045D2*
X2046005Y1402853D1*
X2055555Y1443045D1*
X2065106Y1402853D1*
X2074701Y1443045D1*
X2117649Y1402853D2*
Y1443045D1*
X2102351Y1402853D1*
X2087052Y1443045D1*
Y1402853D1*
X2130001Y1422926D2*
X2152108D1*
X2166405Y1433450D2*
Y1435351D1*
X2168306Y1439198D1*
X2170208Y1441099D1*
X2174055Y1443000D1*
X2181704D1*
X2185506Y1441099D1*
X2187408Y1439198D1*
X2189353Y1435351D1*
Y1431549D1*
X2187408Y1427702D1*
X2183605Y1421998D1*
X2164460Y1402853D1*
X2191254D1*
X1154031Y2030394D2*
X1152129Y2034197D1*
X1148282Y2038044D1*
X1144480Y2039945D1*
X1136831D1*
X1132984Y2038044D1*
X1129181Y2034197D1*
X1127236Y2030394D1*
X1125335Y2024646D1*
Y2015051D1*
X1127236Y2009348D1*
X1129181Y2005501D1*
X1132984Y2001698D1*
X1136831Y1999753D1*
X1144480D1*
X1148282Y2001698D1*
X1152129Y2005501D1*
X1154031Y2009348D1*
Y2015051D1*
X1144480D1*
X1193177Y2039945D2*
Y1999753D1*
X1166382Y2039945D1*
Y1999753D1*
X1205528Y2039945D2*
Y1999753D1*
X1218925D1*
X1224673Y2001698D1*
X1228520Y2005501D1*
X1230421Y2009348D1*
X1232323Y2015051D1*
Y2024646D1*
X1230421Y2030394D1*
X1228520Y2034197D1*
X1224673Y2038044D1*
X1218925Y2039945D1*
X1205528D1*
X1147780Y1224060D2*
X1145879Y1227862D1*
X1142032Y1231709D1*
X1138229Y1233610D1*
X1130580D1*
X1126733Y1231709D1*
X1122931Y1227862D1*
X1120985Y1224060D1*
X1119084Y1218312D1*
Y1208717D1*
X1120985Y1203013D1*
X1122931Y1199166D1*
X1126733Y1195364D1*
X1130580Y1193418D1*
X1138229D1*
X1142032Y1195364D1*
X1145879Y1199166D1*
X1147780Y1203013D1*
Y1208717D1*
X1138229D1*
X1186926Y1233610D2*
Y1193418D1*
X1160131Y1233610D1*
Y1193418D1*
X1199277Y1233610D2*
Y1193418D1*
X1212675D1*
X1218423Y1195364D1*
X1222269Y1199166D1*
X1224171Y1203013D1*
X1226072Y1208717D1*
Y1218312D1*
X1224171Y1224060D1*
X1222269Y1227862D1*
X1218423Y1231709D1*
X1212675Y1233610D1*
X1199277D1*
X2022872Y1230310D2*
X2020970Y1234113D1*
X2017124Y1237960D1*
X2013321Y1239861D1*
X2005672D1*
X2001825Y1237960D1*
X1998023Y1234113D1*
X1996077Y1230310D1*
X1994176Y1224562D1*
Y1214967D1*
X1996077Y1209264D1*
X1998023Y1205417D1*
X2001825Y1201614D1*
X2005672Y1199669D1*
X2013321D1*
X2017124Y1201614D1*
X2020970Y1205417D1*
X2022872Y1209264D1*
Y1214967D1*
X2013321D1*
X2062018Y1239861D2*
Y1199669D1*
X2035223Y1239861D1*
Y1199669D1*
X2074369Y1239861D2*
Y1199669D1*
X2087767D1*
X2093515Y1201614D1*
X2097361Y1205417D1*
X2099263Y1209264D1*
X2101164Y1214967D1*
Y1224562D1*
X2099263Y1230310D1*
X2097361Y1234113D1*
X2093515Y1237960D1*
X2087767Y1239861D1*
X2074369D1*
X2029122Y2036645D2*
X2027221Y2040447D1*
X2023374Y2044294D1*
X2019572Y2046196D1*
X2011922D1*
X2008076Y2044294D1*
X2004273Y2040447D1*
X2002328Y2036645D1*
X2000426Y2030897D1*
Y2021302D1*
X2002328Y2015598D1*
X2004273Y2011752D1*
X2008076Y2007949D1*
X2011922Y2006004D1*
X2019572D1*
X2023374Y2007949D1*
X2027221Y2011752D1*
X2029122Y2015598D1*
Y2021302D1*
X2019572D1*
X2068268Y2046196D2*
Y2006004D1*
X2041474Y2046196D1*
Y2006004D1*
X2080620Y2046196D2*
Y2006004D1*
X2094017D1*
X2099765Y2007949D1*
X2103612Y2011752D1*
X2105513Y2015598D1*
X2107415Y2021302D1*
Y2030897D1*
X2105513Y2036645D1*
X2103612Y2040447D1*
X2099765Y2044294D1*
X2094017Y2046196D1*
X2080620D1*
X2029122Y2836729D2*
X2027221Y2840531D1*
X2023374Y2844378D1*
X2019572Y2846280D1*
X2011922D1*
X2008076Y2844378D1*
X2004273Y2840531D1*
X2002328Y2836729D1*
X2000426Y2830981D1*
Y2821386D1*
X2002328Y2815682D1*
X2004273Y2811836D1*
X2008076Y2808033D1*
X2011922Y2806087D1*
X2019572D1*
X2023374Y2808033D1*
X2027221Y2811836D1*
X2029122Y2815682D1*
Y2821386D1*
X2019572D1*
X2068268Y2846280D2*
Y2806087D1*
X2041474Y2846280D1*
Y2806087D1*
X2080620Y2846280D2*
Y2806087D1*
X2094017D1*
X2099765Y2808033D1*
X2103612Y2811836D1*
X2105513Y2815682D1*
X2107415Y2821386D1*
Y2830981D1*
X2105513Y2836729D1*
X2103612Y2840531D1*
X2099765Y2844378D1*
X2094017Y2846280D1*
X2080620D1*
X1128422Y1133600D2*
Y1093408D1*
X1141820D1*
X1147568Y1095353D1*
X1151415Y1099156D1*
X1153316Y1103002D1*
X1155217Y1108706D1*
Y1118301D1*
X1153316Y1124049D1*
X1151415Y1127852D1*
X1147568Y1131698D1*
X1141820Y1133600D1*
X1128422D1*
X1180966Y1144079D2*
X1177119Y1140276D1*
X1173317Y1134528D1*
X1169470Y1126879D1*
X1167569Y1117284D1*
Y1109635D1*
X1169470Y1100084D1*
X1173317Y1092435D1*
X1177119Y1086687D1*
X1180966Y1082884D1*
X1220112Y1127852D2*
X1216309Y1131698D1*
X1210561Y1133600D1*
X1202912D1*
X1197164Y1131698D1*
X1193317Y1127852D1*
Y1124049D1*
X1195263Y1120202D1*
X1197164Y1118301D1*
X1200967Y1116400D1*
X1212463Y1112553D1*
X1216309Y1110652D1*
X1218211Y1108706D1*
X1220112Y1104904D1*
Y1099156D1*
X1216309Y1095353D1*
X1210561Y1093408D1*
X1202912D1*
X1197164Y1095353D1*
X1193317Y1099156D1*
X1261159Y1124049D2*
X1259258Y1127852D1*
X1255411Y1131698D1*
X1251609Y1133600D1*
X1243959D1*
X1240113Y1131698D1*
X1236310Y1127852D1*
X1234365Y1124049D1*
X1232463Y1118301D1*
Y1108706D1*
X1234365Y1103002D1*
X1236310Y1099156D1*
X1240113Y1095353D1*
X1243959Y1093408D1*
X1251609D1*
X1255411Y1095353D1*
X1259258Y1099156D1*
X1261159Y1103002D1*
X1273511Y1133600D2*
Y1093408D1*
X1300305Y1133600D2*
X1273511Y1106805D1*
X1283061Y1116400D2*
X1300305Y1093408D1*
X1312657Y1144079D2*
X1316504Y1140276D1*
X1320306Y1134528D1*
X1324153Y1126879D1*
X1326054Y1117284D1*
Y1109635D1*
X1324153Y1100084D1*
X1320306Y1092435D1*
X1316504Y1086687D1*
X1312657Y1082884D1*
X1125335Y1939934D2*
Y1899742D1*
X1138732D1*
X1144480Y1901688D1*
X1148327Y1905490D1*
X1150228Y1909337D1*
X1152129Y1915041D1*
Y1924636D1*
X1150228Y1930384D1*
X1148327Y1934186D1*
X1144480Y1938033D1*
X1138732Y1939934D1*
X1125335D1*
X1177878Y1950413D2*
X1174031Y1946611D1*
X1170229Y1940863D1*
X1166382Y1933214D1*
X1164481Y1923619D1*
Y1915969D1*
X1166382Y1906419D1*
X1170229Y1898770D1*
X1174031Y1893022D1*
X1177878Y1889219D1*
X1217024Y1934186D2*
X1213221Y1938033D1*
X1207473Y1939934D1*
X1199824D1*
X1194076Y1938033D1*
X1190229Y1934186D1*
Y1930384D1*
X1192175Y1926537D1*
X1194076Y1924636D1*
X1197879Y1922734D1*
X1209375Y1918888D1*
X1213221Y1916986D1*
X1215123Y1915041D1*
X1217024Y1911238D1*
Y1905490D1*
X1213221Y1901688D1*
X1207473Y1899742D1*
X1199824D1*
X1194076Y1901688D1*
X1190229Y1905490D1*
X1258071Y1930384D2*
X1256170Y1934186D1*
X1252323Y1938033D1*
X1248521Y1939934D1*
X1240871D1*
X1237025Y1938033D1*
X1233222Y1934186D1*
X1231277Y1930384D1*
X1229375Y1924636D1*
Y1915041D1*
X1231277Y1909337D1*
X1233222Y1905490D1*
X1237025Y1901688D1*
X1240871Y1899742D1*
X1248521D1*
X1252323Y1901688D1*
X1256170Y1905490D1*
X1258071Y1909337D1*
X1270423Y1939934D2*
Y1899742D1*
X1297217Y1939934D2*
X1270423Y1913140D1*
X1279973Y1922734D2*
X1297217Y1899742D1*
X1309569Y1950413D2*
X1313416Y1946611D1*
X1317218Y1940863D1*
X1321065Y1933214D1*
X1322966Y1923619D1*
Y1915969D1*
X1321065Y1906419D1*
X1317218Y1898770D1*
X1313416Y1893022D1*
X1309569Y1889219D1*
X1128422Y2721266D2*
Y2681074D1*
X1141820D1*
X1147568Y2683020D1*
X1151415Y2686822D1*
X1153316Y2690669D1*
X1155217Y2696373D1*
Y2705968D1*
X1153316Y2711716D1*
X1151415Y2715518D1*
X1147568Y2719365D1*
X1141820Y2721266D1*
X1128422D1*
X1180966Y2731745D2*
X1177119Y2727943D1*
X1173317Y2722195D1*
X1169470Y2714546D1*
X1167569Y2704951D1*
Y2697302D1*
X1169470Y2687751D1*
X1173317Y2680102D1*
X1177119Y2674354D1*
X1180966Y2670551D1*
X1220112Y2715518D2*
X1216309Y2719365D1*
X1210561Y2721266D1*
X1202912D1*
X1197164Y2719365D1*
X1193317Y2715518D1*
Y2711716D1*
X1195263Y2707869D1*
X1197164Y2705968D1*
X1200967Y2704067D1*
X1212463Y2700220D1*
X1216309Y2698318D1*
X1218211Y2696373D1*
X1220112Y2692570D1*
Y2686822D1*
X1216309Y2683020D1*
X1210561Y2681074D1*
X1202912D1*
X1197164Y2683020D1*
X1193317Y2686822D1*
X1261159Y2711716D2*
X1259258Y2715518D1*
X1255411Y2719365D1*
X1251609Y2721266D1*
X1243959D1*
X1240113Y2719365D1*
X1236310Y2715518D1*
X1234365Y2711716D1*
X1232463Y2705968D1*
Y2696373D1*
X1234365Y2690669D1*
X1236310Y2686822D1*
X1240113Y2683020D1*
X1243959Y2681074D1*
X1251609D1*
X1255411Y2683020D1*
X1259258Y2686822D1*
X1261159Y2690669D1*
X1273511Y2721266D2*
Y2681074D1*
X1300305Y2721266D2*
X1273511Y2694472D1*
X1283061Y2704067D2*
X1300305Y2681074D1*
X1312657Y2731745D2*
X1316504Y2727943D1*
X1320306Y2722195D1*
X1324153Y2714546D1*
X1326054Y2704951D1*
Y2697302D1*
X1324153Y2687751D1*
X1320306Y2680102D1*
X1316504Y2674354D1*
X1312657Y2670551D1*
X1991013Y2733768D2*
Y2693576D1*
X2004410D1*
X2010158Y2695521D1*
X2014005Y2699324D1*
X2015906Y2703170D1*
X2017808Y2708874D1*
Y2718469D1*
X2015906Y2724217D1*
X2014005Y2728020D1*
X2010158Y2731866D1*
X2004410Y2733768D1*
X1991013D1*
X2043556Y2744247D2*
X2039710Y2740444D1*
X2035907Y2734696D1*
X2032060Y2727047D1*
X2030159Y2717452D1*
Y2709803D1*
X2032060Y2700252D1*
X2035907Y2692603D1*
X2039710Y2686855D1*
X2043556Y2683052D1*
X2082703Y2728020D2*
X2078900Y2731866D1*
X2073152Y2733768D1*
X2065503D1*
X2059755Y2731866D1*
X2055908Y2728020D1*
Y2724217D1*
X2057853Y2720370D1*
X2059755Y2718469D1*
X2063557Y2716568D1*
X2075053Y2712721D1*
X2078900Y2710820D1*
X2080801Y2708874D1*
X2082703Y2705072D1*
Y2699324D1*
X2078900Y2695521D1*
X2073152Y2693576D1*
X2065503D1*
X2059755Y2695521D1*
X2055908Y2699324D1*
X2123750Y2724217D2*
X2121849Y2728020D1*
X2118002Y2731866D1*
X2114199Y2733768D1*
X2106550D1*
X2102703Y2731866D1*
X2098901Y2728020D1*
X2096955Y2724217D1*
X2095054Y2718469D1*
Y2708874D1*
X2096955Y2703170D1*
X2098901Y2699324D1*
X2102703Y2695521D1*
X2106550Y2693576D1*
X2114199D1*
X2118002Y2695521D1*
X2121849Y2699324D1*
X2123750Y2703170D1*
X2136101Y2733768D2*
Y2693576D1*
X2162896Y2733768D2*
X2136101Y2706973D1*
X2145652Y2716568D2*
X2162896Y2693576D1*
X2175247Y2744247D2*
X2179094Y2740444D1*
X2182897Y2734696D1*
X2186743Y2727047D1*
X2188645Y2717452D1*
Y2709803D1*
X2186743Y2700252D1*
X2182897Y2692603D1*
X2179094Y2686855D1*
X2175247Y2683052D1*
X1991013Y1939934D2*
Y1899742D1*
X2004410D1*
X2010158Y1901688D1*
X2014005Y1905490D1*
X2015906Y1909337D1*
X2017808Y1915041D1*
Y1924636D1*
X2015906Y1930384D1*
X2014005Y1934186D1*
X2010158Y1938033D1*
X2004410Y1939934D1*
X1991013D1*
X2043556Y1950413D2*
X2039710Y1946611D1*
X2035907Y1940863D1*
X2032060Y1933214D1*
X2030159Y1923619D1*
Y1915969D1*
X2032060Y1906419D1*
X2035907Y1898770D1*
X2039710Y1893022D1*
X2043556Y1889219D1*
X2082703Y1934186D2*
X2078900Y1938033D1*
X2073152Y1939934D1*
X2065503D1*
X2059755Y1938033D1*
X2055908Y1934186D1*
Y1930384D1*
X2057853Y1926537D1*
X2059755Y1924636D1*
X2063557Y1922734D1*
X2075053Y1918888D1*
X2078900Y1916986D1*
X2080801Y1915041D1*
X2082703Y1911238D1*
Y1905490D1*
X2078900Y1901688D1*
X2073152Y1899742D1*
X2065503D1*
X2059755Y1901688D1*
X2055908Y1905490D1*
X2123750Y1930384D2*
X2121849Y1934186D1*
X2118002Y1938033D1*
X2114199Y1939934D1*
X2106550D1*
X2102703Y1938033D1*
X2098901Y1934186D1*
X2096955Y1930384D1*
X2095054Y1924636D1*
Y1915041D1*
X2096955Y1909337D1*
X2098901Y1905490D1*
X2102703Y1901688D1*
X2106550Y1899742D1*
X2114199D1*
X2118002Y1901688D1*
X2121849Y1905490D1*
X2123750Y1909337D1*
X2136101Y1939934D2*
Y1899742D1*
X2162896Y1939934D2*
X2136101Y1913140D1*
X2145652Y1922734D2*
X2162896Y1899742D1*
X2175247Y1950413D2*
X2179094Y1946611D1*
X2182897Y1940863D1*
X2186743Y1933214D1*
X2188645Y1923619D1*
Y1915969D1*
X2186743Y1906419D1*
X2182897Y1898770D1*
X2179094Y1893022D1*
X2175247Y1889219D1*
X1991013Y1139850D2*
Y1099658D1*
X2004410D1*
X2010158Y1101604D1*
X2014005Y1105406D1*
X2015906Y1109253D1*
X2017808Y1114957D1*
Y1124552D1*
X2015906Y1130300D1*
X2014005Y1134102D1*
X2010158Y1137949D1*
X2004410Y1139850D1*
X1991013D1*
X2043556Y1150329D2*
X2039710Y1146527D1*
X2035907Y1140779D1*
X2032060Y1133130D1*
X2030159Y1123535D1*
Y1115886D1*
X2032060Y1106335D1*
X2035907Y1098686D1*
X2039710Y1092938D1*
X2043556Y1089135D1*
X2082703Y1134102D2*
X2078900Y1137949D1*
X2073152Y1139850D1*
X2065503D1*
X2059755Y1137949D1*
X2055908Y1134102D1*
Y1130300D1*
X2057853Y1126453D1*
X2059755Y1124552D1*
X2063557Y1122650D1*
X2075053Y1118804D1*
X2078900Y1116902D1*
X2080801Y1114957D1*
X2082703Y1111154D1*
Y1105406D1*
X2078900Y1101604D1*
X2073152Y1099658D1*
X2065503D1*
X2059755Y1101604D1*
X2055908Y1105406D1*
X2123750Y1130300D2*
X2121849Y1134102D1*
X2118002Y1137949D1*
X2114199Y1139850D1*
X2106550D1*
X2102703Y1137949D1*
X2098901Y1134102D1*
X2096955Y1130300D1*
X2095054Y1124552D1*
Y1114957D1*
X2096955Y1109253D1*
X2098901Y1105406D1*
X2102703Y1101604D1*
X2106550Y1099658D1*
X2114199D1*
X2118002Y1101604D1*
X2121849Y1105406D1*
X2123750Y1109253D1*
X2136101Y1139850D2*
Y1099658D1*
X2162896Y1139850D2*
X2136101Y1113056D1*
X2145652Y1122650D2*
X2162896Y1099658D1*
X2175247Y1150329D2*
X2179094Y1146527D1*
X2182897Y1140779D1*
X2186743Y1133130D1*
X2188645Y1123535D1*
Y1115886D1*
X2186743Y1106335D1*
X2182897Y1098686D1*
X2179094Y1092938D1*
X2175247Y1089135D1*
X696471Y1399690D2*
Y1439882D1*
X681173Y1399690D1*
X665874Y1439882D1*
Y1399690D1*
X720319Y1439882D2*
X716472Y1437981D1*
X712669Y1434134D1*
X710724Y1430331D1*
X708823Y1424583D1*
Y1414988D1*
X710724Y1409285D1*
X712669Y1405438D1*
X716472Y1401635D1*
X720319Y1399690D1*
X727968D1*
X731770Y1401635D1*
X735617Y1405438D1*
X737518Y1409285D1*
X739420Y1414988D1*
Y1424583D1*
X737518Y1430331D1*
X735617Y1434134D1*
X731770Y1437981D1*
X727968Y1439882D1*
X720319D1*
X778566Y1434134D2*
X774763Y1437981D1*
X769015Y1439882D1*
X761366D1*
X755618Y1437981D1*
X751771Y1434134D1*
Y1430331D1*
X753717Y1426485D1*
X755618Y1424583D1*
X759420Y1422682D1*
X770917Y1418835D1*
X774763Y1416934D1*
X776665Y1414988D1*
X778566Y1411186D1*
Y1405438D1*
X774763Y1401635D1*
X769015Y1399690D1*
X761366D1*
X755618Y1401635D1*
X751771Y1405438D1*
X790917Y1419764D2*
X813025D1*
X844522Y1399690D2*
Y1439838D1*
X825376Y1413087D1*
X854072D1*
X889372Y1434134D2*
X887470Y1437936D1*
X881722Y1439838D1*
X877920D1*
X872172Y1437936D1*
X868325Y1432188D1*
X866424Y1422638D1*
Y1413087D1*
X868325Y1405438D1*
X872172Y1401591D1*
X877920Y1399690D1*
X879821D1*
X885525Y1401591D1*
X889372Y1405438D1*
X891273Y1411186D1*
Y1413087D1*
X889372Y1418835D1*
X885525Y1422638D1*
X879821Y1424539D1*
X877920D1*
X872172Y1422638D1*
X868325Y1418835D1*
X866424Y1413087D1*
X1565312Y1393439D2*
Y1433631D1*
X1550014Y1393439D1*
X1534715Y1433631D1*
Y1393439D1*
X1589160Y1433631D2*
X1585313Y1431730D1*
X1581511Y1427883D1*
X1579565Y1424081D1*
X1577664Y1418333D1*
Y1408738D1*
X1579565Y1403034D1*
X1581511Y1399187D1*
X1585313Y1395385D1*
X1589160Y1393439D1*
X1596809D1*
X1600612Y1395385D1*
X1604458Y1399187D1*
X1606360Y1403034D1*
X1608261Y1408738D1*
Y1418333D1*
X1606360Y1424081D1*
X1604458Y1427883D1*
X1600612Y1431730D1*
X1596809Y1433631D1*
X1589160D1*
X1647407Y1427883D2*
X1643604Y1431730D1*
X1637856Y1433631D1*
X1630207D1*
X1624459Y1431730D1*
X1620612Y1427883D1*
Y1424081D1*
X1622558Y1420234D1*
X1624459Y1418333D1*
X1628262Y1416431D1*
X1639758Y1412585D1*
X1643604Y1410683D1*
X1645506Y1408738D1*
X1647407Y1404935D1*
Y1399187D1*
X1643604Y1395385D1*
X1637856Y1393439D1*
X1630207D1*
X1624459Y1395385D1*
X1620612Y1399187D1*
X1659758Y1413513D2*
X1681866D1*
X1698064Y1433587D2*
X1719067D1*
X1707615Y1418288D1*
X1713363D1*
X1717166Y1416387D1*
X1719067Y1414486D1*
X1721012Y1408738D1*
Y1404935D1*
X1719067Y1399187D1*
X1715264Y1395340D1*
X1709516Y1393439D1*
X1703768D1*
X1698064Y1395340D1*
X1696163Y1397286D1*
X1694218Y1401089D1*
X1741013Y1393439D2*
X1760158Y1433587D1*
X1733364D1*
X1559062Y2193523D2*
Y2233715D1*
X1543763Y2193523D1*
X1528464Y2233715D1*
Y2193523D1*
X1582909Y2233715D2*
X1579062Y2231814D1*
X1575260Y2227967D1*
X1573314Y2224165D1*
X1571413Y2218417D1*
Y2208822D1*
X1573314Y2203118D1*
X1575260Y2199271D1*
X1579062Y2195469D1*
X1582909Y2193523D1*
X1590558D1*
X1594361Y2195469D1*
X1598208Y2199271D1*
X1600109Y2203118D1*
X1602010Y2208822D1*
Y2218417D1*
X1600109Y2224165D1*
X1598208Y2227967D1*
X1594361Y2231814D1*
X1590558Y2233715D1*
X1582909D1*
X1641156Y2227967D2*
X1637354Y2231814D1*
X1631606Y2233715D1*
X1623957D1*
X1618208Y2231814D1*
X1614362Y2227967D1*
Y2224165D1*
X1616307Y2220318D1*
X1618208Y2218417D1*
X1622011Y2216515D1*
X1633507Y2212669D1*
X1637354Y2210767D1*
X1639255Y2208822D1*
X1641156Y2205019D1*
Y2199271D1*
X1637354Y2195469D1*
X1631606Y2193523D1*
X1623957D1*
X1618208Y2195469D1*
X1614362Y2199271D1*
X1653508Y2213597D2*
X1675616D1*
X1691814Y2233671D2*
X1712816D1*
X1701364Y2218372D1*
X1707112D1*
X1710915Y2216471D1*
X1712816Y2214570D1*
X1714762Y2208822D1*
Y2205019D1*
X1712816Y2199271D1*
X1709014Y2195424D1*
X1703266Y2193523D1*
X1697518D1*
X1691814Y2195424D1*
X1689912Y2197370D1*
X1687967Y2201172D1*
X1729059Y2224120D2*
Y2226022D1*
X1730960Y2229868D1*
X1732861Y2231770D1*
X1736708Y2233671D1*
X1744357D1*
X1748160Y2231770D1*
X1750061Y2229868D1*
X1752006Y2226022D1*
Y2222219D1*
X1750061Y2218372D1*
X1746258Y2212669D1*
X1727113Y2193523D1*
X1753908D1*
X665218D2*
Y2233715D1*
X649919Y2193523D1*
X634621Y2233715D1*
Y2193523D1*
X689065Y2233715D2*
X685219Y2231814D1*
X681416Y2227967D1*
X679471Y2224165D1*
X677569Y2218417D1*
Y2208822D1*
X679471Y2203118D1*
X681416Y2199271D1*
X685219Y2195469D1*
X689065Y2193523D1*
X696715D1*
X700517Y2195469D1*
X704364Y2199271D1*
X706265Y2203118D1*
X708166Y2208822D1*
Y2218417D1*
X706265Y2224165D1*
X704364Y2227967D1*
X700517Y2231814D1*
X696715Y2233715D1*
X689065D1*
X747313Y2227967D2*
X743510Y2231814D1*
X737762Y2233715D1*
X730113D1*
X724365Y2231814D1*
X720518Y2227967D1*
Y2224165D1*
X722463Y2220318D1*
X724365Y2218417D1*
X728167Y2216515D1*
X739663Y2212669D1*
X743510Y2210767D1*
X745411Y2208822D1*
X747313Y2205019D1*
Y2199271D1*
X743510Y2195469D1*
X737762Y2193523D1*
X730113D1*
X724365Y2195469D1*
X720518Y2199271D1*
X759664Y2213597D2*
X781772D1*
X824765Y2193523D2*
X809422Y2233715D1*
X794123Y2193523D1*
X799871Y2206921D2*
X819017D1*
X837116Y2226022D2*
X840963Y2227967D1*
X846711Y2233671D1*
Y2193523D1*
X862909Y2233671D2*
X883911D1*
X872460Y2218372D1*
X878208D1*
X882010Y2216471D1*
X883911Y2214570D1*
X885857Y2208822D1*
Y2205019D1*
X883911Y2199271D1*
X880109Y2195424D1*
X874361Y2193523D1*
X868613D1*
X862909Y2195424D1*
X861008Y2197370D1*
X859062Y2201172D1*
X683970Y2999858D2*
Y3040050D1*
X668671Y2999858D1*
X653373Y3040050D1*
Y2999858D1*
X707817Y3040050D2*
X703971Y3038149D1*
X700168Y3034302D1*
X698223Y3030499D1*
X696321Y3024751D1*
Y3015156D1*
X698223Y3009453D1*
X700168Y3005606D1*
X703971Y3001803D1*
X707817Y2999858D1*
X715467D1*
X719269Y3001803D1*
X723116Y3005606D1*
X725017Y3009453D1*
X726918Y3015156D1*
Y3024751D1*
X725017Y3030499D1*
X723116Y3034302D1*
X719269Y3038149D1*
X715467Y3040050D1*
X707817D1*
X766065Y3034302D2*
X762262Y3038149D1*
X756514Y3040050D1*
X748865D1*
X743117Y3038149D1*
X739270Y3034302D1*
Y3030499D1*
X741215Y3026653D1*
X743117Y3024751D1*
X746919Y3022850D1*
X758415Y3019003D1*
X762262Y3017102D1*
X764163Y3015156D1*
X766065Y3011354D1*
Y3005606D1*
X762262Y3001803D1*
X756514Y2999858D1*
X748865D1*
X743117Y3001803D1*
X739270Y3005606D1*
X778416Y3019932D2*
X800524D1*
X843517Y2999858D2*
X828174Y3040050D1*
X812875Y2999858D1*
X818623Y3013255D2*
X837769D1*
X865419Y3040006D2*
X859715Y3038104D1*
X857769Y3034302D1*
Y3030455D1*
X859715Y3026653D1*
X863517Y3024707D1*
X871167Y3022806D1*
X876915Y3020904D1*
X880717Y3017058D1*
X882618Y3013255D1*
Y3007507D1*
X880717Y3003705D1*
X878816Y3001759D1*
X873068Y2999858D1*
X865419D1*
X859715Y3001759D1*
X857769Y3003705D1*
X855868Y3007507D1*
Y3013255D1*
X857769Y3017058D1*
X861616Y3020904D1*
X867320Y3022806D1*
X874969Y3024707D1*
X878816Y3026653D1*
X880717Y3030455D1*
Y3034302D1*
X878816Y3038104D1*
X873068Y3040006D1*
X865419D1*
X1704591Y2839985D2*
X1685490D1*
X1683588Y2822785D1*
X1685490Y2824686D1*
X1691238Y2826632D1*
X1696942D1*
X1702690Y2824686D1*
X1706536Y2820883D1*
X1708438Y2815135D1*
Y2811333D1*
X1706536Y2805585D1*
X1702690Y2801738D1*
X1696942Y2799837D1*
X1691238D1*
X1685490Y2801738D1*
X1683588Y2803684D1*
X1681643Y2807486D1*
X1720789Y2840029D2*
X1736088Y2799837D1*
X1751386Y2840029D1*
X835750Y2039901D2*
X816649D1*
X814747Y2022701D1*
X816649Y2024602D1*
X822397Y2026548D1*
X828100D1*
X833848Y2024602D1*
X837695Y2020799D1*
X839596Y2015051D1*
Y2011249D1*
X837695Y2005501D1*
X833848Y2001654D1*
X828100Y1999753D1*
X822397D1*
X816649Y2001654D1*
X814747Y2003600D1*
X812802Y2007402D1*
X851948Y2039945D2*
X867246Y1999753D1*
X882545Y2039945D1*
X1710842Y2033650D2*
X1691740D1*
X1689839Y2016450D1*
X1691740Y2018351D1*
X1697488Y2020297D1*
X1703192D1*
X1708940Y2018351D1*
X1712787Y2014549D1*
X1714688Y2008801D1*
Y2004998D1*
X1712787Y1999250D1*
X1708940Y1995403D1*
X1703192Y1993502D1*
X1697488D1*
X1691740Y1995403D1*
X1689839Y1997349D1*
X1687894Y2001152D1*
X1727040Y2033694D2*
X1742338Y1993502D1*
X1757637Y2033694D1*
X829499Y1233566D2*
X810398D1*
X808497Y1216366D1*
X810398Y1218267D1*
X816146Y1220213D1*
X821850D1*
X827598Y1218267D1*
X831445Y1214465D1*
X833346Y1208717D1*
Y1204914D1*
X831445Y1199166D1*
X827598Y1195319D1*
X821850Y1193418D1*
X816146D1*
X810398Y1195319D1*
X808497Y1197265D1*
X806551Y1201068D1*
X845697Y1233610D2*
X860996Y1193418D1*
X876294Y1233610D1*
X1704591Y1239817D2*
X1685490D1*
X1683588Y1222617D1*
X1685490Y1224518D1*
X1691238Y1226464D1*
X1696942D1*
X1702690Y1224518D1*
X1706536Y1220716D1*
X1708438Y1214967D1*
Y1211165D1*
X1706536Y1205417D1*
X1702690Y1201570D1*
X1696942Y1199669D1*
X1691238D1*
X1685490Y1201570D1*
X1683588Y1203516D1*
X1681643Y1207318D1*
X1720789Y1239861D2*
X1736088Y1199669D1*
X1751386Y1239861D1*
X672125Y1114454D2*
X689324D1*
X695073Y1116400D1*
X697018Y1118301D1*
X698919Y1122104D1*
Y1125950D1*
X697018Y1129753D1*
X695073Y1131698D1*
X689324Y1133600D1*
X672125D1*
Y1093408D1*
X685522Y1114454D2*
X698919Y1093408D1*
X724668Y1144079D2*
X720821Y1140276D1*
X717019Y1134528D1*
X713172Y1126879D1*
X711271Y1117284D1*
Y1109635D1*
X713172Y1100084D1*
X717019Y1092435D1*
X720821Y1086687D1*
X724668Y1082884D1*
X767617Y1093408D2*
Y1133600D1*
X752318Y1093408D1*
X737019Y1133600D1*
Y1093408D1*
X779968Y1133600D2*
Y1093408D1*
X819114Y1127852D2*
X815312Y1131698D1*
X809563Y1133600D1*
X801914D1*
X796166Y1131698D1*
X792319Y1127852D1*
Y1124049D1*
X794265Y1120202D1*
X796166Y1118301D1*
X799969Y1116400D1*
X811465Y1112553D1*
X815312Y1110652D1*
X817213Y1108706D1*
X819114Y1104904D1*
Y1099156D1*
X815312Y1095353D1*
X809563Y1093408D1*
X801914D1*
X796166Y1095353D1*
X792319Y1099156D1*
X842962Y1133600D2*
X839115Y1131698D1*
X835312Y1127852D1*
X833367Y1124049D1*
X831465Y1118301D1*
Y1108706D1*
X833367Y1103002D1*
X835312Y1099156D1*
X839115Y1095353D1*
X842962Y1093408D1*
X850611D1*
X854413Y1095353D1*
X858260Y1099156D1*
X860161Y1103002D1*
X862063Y1108706D1*
Y1118301D1*
X860161Y1124049D1*
X858260Y1127852D1*
X854413Y1131698D1*
X850611Y1133600D1*
X842962D1*
X874414Y1144079D2*
X878261Y1140276D1*
X882063Y1134528D1*
X885910Y1126879D1*
X887811Y1117284D1*
Y1109635D1*
X885910Y1100084D1*
X882063Y1092435D1*
X878261Y1086687D1*
X874414Y1082884D1*
X1540966Y1114454D2*
X1558166D1*
X1563914Y1116400D1*
X1565859Y1118301D1*
X1567760Y1122104D1*
Y1125950D1*
X1565859Y1129753D1*
X1563914Y1131698D1*
X1558166Y1133600D1*
X1540966D1*
Y1093408D1*
X1554363Y1114454D2*
X1567760Y1093408D1*
X1593509Y1144079D2*
X1589662Y1140276D1*
X1585860Y1134528D1*
X1582013Y1126879D1*
X1580112Y1117284D1*
Y1109635D1*
X1582013Y1100084D1*
X1585860Y1092435D1*
X1589662Y1086687D1*
X1593509Y1082884D1*
X1636458Y1093408D2*
Y1133600D1*
X1621159Y1093408D1*
X1605861Y1133600D1*
Y1093408D1*
X1648809Y1133600D2*
Y1093408D1*
X1687955Y1127852D2*
X1684153Y1131698D1*
X1678405Y1133600D1*
X1670755D1*
X1665007Y1131698D1*
X1661161Y1127852D1*
Y1124049D1*
X1663106Y1120202D1*
X1665007Y1118301D1*
X1668810Y1116400D1*
X1680306Y1112553D1*
X1684153Y1110652D1*
X1686054Y1108706D1*
X1687955Y1104904D1*
Y1099156D1*
X1684153Y1095353D1*
X1678405Y1093408D1*
X1670755D1*
X1665007Y1095353D1*
X1661161Y1099156D1*
X1711803Y1133600D2*
X1707956Y1131698D1*
X1704153Y1127852D1*
X1702208Y1124049D1*
X1700307Y1118301D1*
Y1108706D1*
X1702208Y1103002D1*
X1704153Y1099156D1*
X1707956Y1095353D1*
X1711803Y1093408D1*
X1719452D1*
X1723255Y1095353D1*
X1727101Y1099156D1*
X1729003Y1103002D1*
X1730904Y1108706D1*
Y1118301D1*
X1729003Y1124049D1*
X1727101Y1127852D1*
X1723255Y1131698D1*
X1719452Y1133600D1*
X1711803D1*
X1743255Y1144079D2*
X1747102Y1140276D1*
X1750905Y1134528D1*
X1754751Y1126879D1*
X1756653Y1117284D1*
Y1109635D1*
X1754751Y1100084D1*
X1750905Y1092435D1*
X1747102Y1086687D1*
X1743255Y1082884D1*
X672125Y1920789D2*
X689324D1*
X695073Y1922734D1*
X697018Y1924636D1*
X698919Y1928438D1*
Y1932285D1*
X697018Y1936088D1*
X695073Y1938033D1*
X689324Y1939934D1*
X672125D1*
Y1899742D1*
X685522Y1920789D2*
X698919Y1899742D1*
X724668Y1950413D2*
X720821Y1946611D1*
X717019Y1940863D1*
X713172Y1933214D1*
X711271Y1923619D1*
Y1915969D1*
X713172Y1906419D1*
X717019Y1898770D1*
X720821Y1893022D1*
X724668Y1889219D1*
X767617Y1899742D2*
Y1939934D1*
X752318Y1899742D1*
X737019Y1939934D1*
Y1899742D1*
X779968Y1939934D2*
Y1899742D1*
X819114Y1934186D2*
X815312Y1938033D1*
X809563Y1939934D1*
X801914D1*
X796166Y1938033D1*
X792319Y1934186D1*
Y1930384D1*
X794265Y1926537D1*
X796166Y1924636D1*
X799969Y1922734D1*
X811465Y1918888D1*
X815312Y1916986D1*
X817213Y1915041D1*
X819114Y1911238D1*
Y1905490D1*
X815312Y1901688D1*
X809563Y1899742D1*
X801914D1*
X796166Y1901688D1*
X792319Y1905490D1*
X842962Y1939934D2*
X839115Y1938033D1*
X835312Y1934186D1*
X833367Y1930384D1*
X831465Y1924636D1*
Y1915041D1*
X833367Y1909337D1*
X835312Y1905490D1*
X839115Y1901688D1*
X842962Y1899742D1*
X850611D1*
X854413Y1901688D1*
X858260Y1905490D1*
X860161Y1909337D1*
X862063Y1915041D1*
Y1924636D1*
X860161Y1930384D1*
X858260Y1934186D1*
X854413Y1938033D1*
X850611Y1939934D1*
X842962D1*
X874414Y1950413D2*
X878261Y1946611D1*
X882063Y1940863D1*
X885910Y1933214D1*
X887811Y1923619D1*
Y1915969D1*
X885910Y1906419D1*
X882063Y1898770D1*
X878261Y1893022D1*
X874414Y1889219D1*
X1540966Y1927040D2*
X1558166D1*
X1563914Y1928985D1*
X1565859Y1930886D1*
X1567760Y1934689D1*
Y1938536D1*
X1565859Y1942338D1*
X1563914Y1944284D1*
X1558166Y1946185D1*
X1540966D1*
Y1905993D1*
X1554363Y1927040D2*
X1567760Y1905993D1*
X1593509Y1956664D2*
X1589662Y1952862D1*
X1585860Y1947114D1*
X1582013Y1939464D1*
X1580112Y1929869D1*
Y1922220D1*
X1582013Y1912670D1*
X1585860Y1905020D1*
X1589662Y1899272D1*
X1593509Y1895470D1*
X1636458Y1905993D2*
Y1946185D1*
X1621159Y1905993D1*
X1605861Y1946185D1*
Y1905993D1*
X1648809Y1946185D2*
Y1905993D1*
X1687955Y1940437D2*
X1684153Y1944284D1*
X1678405Y1946185D1*
X1670755D1*
X1665007Y1944284D1*
X1661161Y1940437D1*
Y1936634D1*
X1663106Y1932788D1*
X1665007Y1930886D1*
X1668810Y1928985D1*
X1680306Y1925138D1*
X1684153Y1923237D1*
X1686054Y1921292D1*
X1687955Y1917489D1*
Y1911741D1*
X1684153Y1907938D1*
X1678405Y1905993D1*
X1670755D1*
X1665007Y1907938D1*
X1661161Y1911741D1*
X1711803Y1946185D2*
X1707956Y1944284D1*
X1704153Y1940437D1*
X1702208Y1936634D1*
X1700307Y1930886D1*
Y1921292D1*
X1702208Y1915588D1*
X1704153Y1911741D1*
X1707956Y1907938D1*
X1711803Y1905993D1*
X1719452D1*
X1723255Y1907938D1*
X1727101Y1911741D1*
X1729003Y1915588D1*
X1730904Y1921292D1*
Y1930886D1*
X1729003Y1936634D1*
X1727101Y1940437D1*
X1723255Y1944284D1*
X1719452Y1946185D1*
X1711803D1*
X1743255Y1956664D2*
X1747102Y1952862D1*
X1750905Y1947114D1*
X1754751Y1939464D1*
X1756653Y1929869D1*
Y1922220D1*
X1754751Y1912670D1*
X1750905Y1905020D1*
X1747102Y1899272D1*
X1743255Y1895470D1*
X672125Y2708372D2*
X689324D1*
X695073Y2710317D1*
X697018Y2712218D1*
X698919Y2716021D1*
Y2719868D1*
X697018Y2723670D1*
X695073Y2725616D1*
X689324Y2727517D1*
X672125D1*
Y2687325D1*
X685522Y2708372D2*
X698919Y2687325D1*
X724668Y2737996D2*
X720821Y2734194D1*
X717019Y2728446D1*
X713172Y2720796D1*
X711271Y2711201D1*
Y2703552D1*
X713172Y2694002D1*
X717019Y2686352D1*
X720821Y2680604D1*
X724668Y2676802D1*
X767617Y2687325D2*
Y2727517D1*
X752318Y2687325D1*
X737019Y2727517D1*
Y2687325D1*
X779968Y2727517D2*
Y2687325D1*
X819114Y2721769D2*
X815312Y2725616D1*
X809563Y2727517D1*
X801914D1*
X796166Y2725616D1*
X792319Y2721769D1*
Y2717966D1*
X794265Y2714120D1*
X796166Y2712218D1*
X799969Y2710317D1*
X811465Y2706470D1*
X815312Y2704569D1*
X817213Y2702624D1*
X819114Y2698821D1*
Y2693073D1*
X815312Y2689271D1*
X809563Y2687325D1*
X801914D1*
X796166Y2689271D1*
X792319Y2693073D1*
X842962Y2727517D2*
X839115Y2725616D1*
X835312Y2721769D1*
X833367Y2717966D1*
X831465Y2712218D1*
Y2702624D1*
X833367Y2696920D1*
X835312Y2693073D1*
X839115Y2689271D1*
X842962Y2687325D1*
X850611D1*
X854413Y2689271D1*
X858260Y2693073D1*
X860161Y2696920D1*
X862063Y2702624D1*
Y2712218D1*
X860161Y2717966D1*
X858260Y2721769D1*
X854413Y2725616D1*
X850611Y2727517D1*
X842962D1*
X874414Y2737996D2*
X878261Y2734194D1*
X882063Y2728446D1*
X885910Y2720796D1*
X887811Y2711201D1*
Y2703552D1*
X885910Y2694002D1*
X882063Y2686352D1*
X878261Y2680604D1*
X874414Y2676802D1*
X1540966Y2714622D2*
X1558166D1*
X1563914Y2716568D1*
X1565859Y2718469D1*
X1567760Y2722272D1*
Y2726118D1*
X1565859Y2729921D1*
X1563914Y2731866D1*
X1558166Y2733768D1*
X1540966D1*
Y2693576D1*
X1554363Y2714622D2*
X1567760Y2693576D1*
X1593509Y2744247D2*
X1589662Y2740444D1*
X1585860Y2734696D1*
X1582013Y2727047D1*
X1580112Y2717452D1*
Y2709803D1*
X1582013Y2700252D1*
X1585860Y2692603D1*
X1589662Y2686855D1*
X1593509Y2683052D1*
X1636458Y2693576D2*
Y2733768D1*
X1621159Y2693576D1*
X1605861Y2733768D1*
Y2693576D1*
X1648809Y2733768D2*
Y2693576D1*
X1687955Y2728020D2*
X1684153Y2731866D1*
X1678405Y2733768D1*
X1670755D1*
X1665007Y2731866D1*
X1661161Y2728020D1*
Y2724217D1*
X1663106Y2720370D1*
X1665007Y2718469D1*
X1668810Y2716568D1*
X1680306Y2712721D1*
X1684153Y2710820D1*
X1686054Y2708874D1*
X1687955Y2705072D1*
Y2699324D1*
X1684153Y2695521D1*
X1678405Y2693576D1*
X1670755D1*
X1665007Y2695521D1*
X1661161Y2699324D1*
X1711803Y2733768D2*
X1707956Y2731866D1*
X1704153Y2728020D1*
X1702208Y2724217D1*
X1700307Y2718469D1*
Y2708874D1*
X1702208Y2703170D1*
X1704153Y2699324D1*
X1707956Y2695521D1*
X1711803Y2693576D1*
X1719452D1*
X1723255Y2695521D1*
X1727101Y2699324D1*
X1729003Y2703170D1*
X1730904Y2708874D1*
Y2718469D1*
X1729003Y2724217D1*
X1727101Y2728020D1*
X1723255Y2731866D1*
X1719452Y2733768D1*
X1711803D1*
X1743255Y2744247D2*
X1747102Y2740444D1*
X1750905Y2734696D1*
X1754751Y2727047D1*
X1756653Y2717452D1*
Y2709803D1*
X1754751Y2700252D1*
X1750905Y2692603D1*
X1747102Y2686855D1*
X1743255Y2683052D1*
X1562881Y2139955D2*
Y2099763D1*
X1602027Y2139955D2*
Y2099763D1*
X1575232Y2139955D1*
Y2099763D1*
X1645019D2*
X1629677Y2139955D1*
X1614378Y2099763D1*
X1620126Y2113161D2*
X1639271D1*
X1657371Y2119837D2*
X1679479D1*
X1695677Y2139911D2*
X1716679D1*
X1705227Y2124613D1*
X1710975D1*
X1714778Y2122711D1*
X1716679Y2120810D1*
X1718625Y2115062D1*
Y2111259D1*
X1716679Y2105511D1*
X1712877Y2101665D1*
X1707129Y2099763D1*
X1701381D1*
X1695677Y2101665D1*
X1693775Y2103610D1*
X1691830Y2107413D1*
X1734823Y2139911D2*
X1755825D1*
X1744373Y2124613D1*
X1750121D1*
X1753924Y2122711D1*
X1755825Y2120810D1*
X1757771Y2115062D1*
Y2111259D1*
X1755825Y2105511D1*
X1752023Y2101665D1*
X1746275Y2099763D1*
X1740527D1*
X1734823Y2101665D1*
X1732922Y2103610D1*
X1730976Y2107413D1*
X1994176Y2133705D2*
Y2093513D1*
X2033322Y2133705D2*
Y2093513D1*
X2006527Y2133705D1*
Y2093513D1*
X2045673Y2133705D2*
Y2093513D1*
X2062917D1*
X2068665Y2095458D1*
X2070567Y2097359D1*
X2072468Y2101162D1*
Y2106910D1*
X2070567Y2110757D1*
X2068665Y2112658D1*
X2062917Y2114559D1*
X2068665Y2116505D1*
X2070567Y2118406D1*
X2072468Y2122209D1*
Y2126055D1*
X2070567Y2129858D1*
X2068665Y2131803D1*
X2062917Y2133705D1*
X2045673D1*
Y2114559D2*
X2062917D1*
X2084819Y2113587D2*
X2106927D1*
X2123125Y2133660D2*
X2144128D1*
X2132676Y2118362D1*
X2138424D1*
X2142226Y2116461D1*
X2144128Y2114559D1*
X2146073Y2108811D1*
Y2105009D1*
X2144128Y2099261D1*
X2140325Y2095414D1*
X2134577Y2093513D1*
X2128829D1*
X2123125Y2095414D1*
X2121224Y2097359D1*
X2119279Y2101162D1*
X2177570Y2093513D2*
Y2133660D1*
X2158425Y2106910D1*
X2187121D1*
X1578470Y1827423D2*
Y1787231D1*
X1591867D1*
X1597615Y1789176D1*
X1601462Y1792979D1*
X1603363Y1796825D1*
X1605264Y1802529D1*
Y1812124D1*
X1603363Y1817872D1*
X1601462Y1821675D1*
X1597615Y1825521D1*
X1591867Y1827423D1*
X1578470D1*
X1642465D2*
X1617616D1*
Y1787231D1*
X1642465D1*
X1617616Y1808277D2*
X1632914D1*
X1654816Y1807304D2*
X1676924D1*
X1693122Y1827378D2*
X1714125D1*
X1702673Y1812080D1*
X1708421D1*
X1712224Y1810178D1*
X1714125Y1808277D1*
X1716070Y1802529D1*
Y1798727D1*
X1714125Y1792979D1*
X1710322Y1789132D1*
X1704574Y1787231D1*
X1698826D1*
X1693122Y1789132D1*
X1691221Y1791077D1*
X1689276Y1794880D1*
X1751370Y1821675D2*
X1749468Y1825477D1*
X1743720Y1827378D1*
X1739918D1*
X1734170Y1825477D1*
X1730323Y1819729D1*
X1728422Y1810178D1*
Y1800628D1*
X1730323Y1792979D1*
X1734170Y1789132D1*
X1739918Y1787231D1*
X1741819D1*
X1747523Y1789132D1*
X1751370Y1792979D1*
X1753271Y1798727D1*
Y1800628D1*
X1751370Y1806376D1*
X1747523Y1810178D1*
X1741819Y1812080D1*
X1739918D1*
X1734170Y1810178D1*
X1730323Y1806376D1*
X1728422Y1800628D1*
X1991013Y1820778D2*
X2008213D1*
X2013961Y1822724D1*
X2015906Y1824625D1*
X2017808Y1828428D1*
Y1832275D1*
X2015906Y1836077D1*
X2013961Y1838023D1*
X2008213Y1839924D1*
X1991013D1*
Y1799732D1*
X2004410Y1820778D2*
X2017808Y1799732D1*
X2055008Y1839924D2*
X2030159D1*
Y1799732D1*
X2055008D1*
X2030159Y1820778D2*
X2045458D1*
X2067360Y1819806D2*
X2089468D1*
X2105666Y1839880D2*
X2126668D1*
X2115216Y1824581D1*
X2120964D1*
X2124767Y1822680D1*
X2126668Y1820778D1*
X2128614Y1815030D1*
Y1811228D1*
X2126668Y1805480D1*
X2122866Y1801633D1*
X2117118Y1799732D1*
X2111369D1*
X2105666Y1801633D1*
X2103764Y1803579D1*
X2101819Y1807381D1*
X2163913Y1839880D2*
X2144812D1*
X2142910Y1822680D1*
X2144812Y1824581D1*
X2150560Y1826527D1*
X2156264D1*
X2162012Y1824581D1*
X2165858Y1820778D1*
X2167760Y1815030D1*
Y1811228D1*
X2165858Y1805480D1*
X2162012Y1801633D1*
X2156264Y1799732D1*
X2150560D1*
X2144812Y1801633D1*
X2142910Y1803579D1*
X2140965Y1807381D1*
X1587883Y1033589D2*
Y993397D1*
X1601280D1*
X1607028Y995343D1*
X1610875Y999145D1*
X1612777Y1002992D1*
X1614678Y1008696D1*
Y1018291D1*
X1612777Y1024039D1*
X1610875Y1027841D1*
X1607028Y1031688D1*
X1601280Y1033589D1*
X1587883D1*
X1651878D2*
X1627029D1*
Y993397D1*
X1651878D1*
X1627029Y1014444D2*
X1642328D1*
X1664230Y1013471D2*
X1686338D1*
X1717834Y993397D2*
Y1033545D1*
X1698689Y1006795D1*
X1727385D1*
X1739736Y1025896D2*
X1743583Y1027841D1*
X1749331Y1033545D1*
Y993397D1*
X706541Y1033589D2*
Y993397D1*
X719938D1*
X725686Y995343D1*
X729533Y999145D1*
X731434Y1002992D1*
X733335Y1008696D1*
Y1018291D1*
X731434Y1024039D1*
X729533Y1027841D1*
X725686Y1031688D1*
X719938Y1033589D1*
X706541D1*
X770536D2*
X745687D1*
Y993397D1*
X770536D1*
X745687Y1014444D2*
X760985D1*
X782887Y1013471D2*
X804995D1*
X836492Y993397D2*
Y1033545D1*
X817346Y1006795D1*
X846042D1*
X862241Y1033545D2*
X883243D1*
X871791Y1018246D1*
X877539D1*
X881342Y1016345D1*
X883243Y1014444D1*
X885188Y1008696D1*
Y1004893D1*
X883243Y999145D1*
X879440Y995298D1*
X873692Y993397D1*
X867944D1*
X862241Y995298D1*
X860339Y997244D1*
X858394Y1001047D1*
X700290Y1839924D2*
Y1799732D1*
X713687D1*
X719435Y1801677D1*
X723282Y1805480D1*
X725183Y1809327D1*
X727085Y1815030D1*
Y1824625D1*
X725183Y1830373D1*
X723282Y1834176D1*
X719435Y1838023D1*
X713687Y1839924D1*
X700290D1*
X764285D2*
X739436D1*
Y1799732D1*
X764285D1*
X739436Y1820778D2*
X754735D1*
X776637Y1819806D2*
X798744D1*
X830241Y1799732D2*
Y1839880D1*
X811096Y1813129D1*
X839792D1*
X859792Y1799732D2*
X878938Y1839880D1*
X852143D1*
X697127Y2627507D2*
Y2587315D1*
X710525D1*
X716273Y2589260D1*
X720119Y2593063D1*
X722021Y2596909D1*
X723922Y2602613D1*
Y2612208D1*
X722021Y2617956D1*
X720119Y2621759D1*
X716273Y2625605D1*
X710525Y2627507D1*
X697127D1*
X761122D2*
X736273D1*
Y2587315D1*
X761122D1*
X736273Y2608361D2*
X751572D1*
X773474Y2607388D2*
X795582D1*
X838575Y2587315D2*
X823232Y2627507D1*
X807933Y2587315D1*
X813681Y2600712D2*
X832826D1*
X850926Y2619813D2*
X854773Y2621759D1*
X860521Y2627462D1*
Y2587315D1*
X872872Y2619813D2*
X876719Y2621759D1*
X882467Y2627462D1*
Y2587315D1*
X1575382Y2633757D2*
Y2593565D1*
X1588779D1*
X1594527Y2595511D1*
X1598374Y2599313D1*
X1600275Y2603160D1*
X1602176Y2608864D1*
Y2618459D1*
X1600275Y2624207D1*
X1598374Y2628009D1*
X1594527Y2631856D1*
X1588779Y2633757D1*
X1575382D1*
X1639377D2*
X1614528D1*
Y2593565D1*
X1639377D1*
X1614528Y2614612D2*
X1629826D1*
X1651728Y2613639D2*
X1673836D1*
X1690034Y2633713D2*
X1711037D1*
X1699585Y2618414D1*
X1705333D1*
X1709136Y2616513D1*
X1711037Y2614612D1*
X1712982Y2608864D1*
Y2605061D1*
X1711037Y2599313D1*
X1707234Y2595466D1*
X1701486Y2593565D1*
X1695738D1*
X1690034Y2595466D1*
X1688133Y2597412D1*
X1686188Y2601214D1*
X1736830Y2633713D2*
X1731082Y2631812D1*
X1727235Y2626064D1*
X1725334Y2616513D1*
Y2610765D1*
X1727235Y2601214D1*
X1731082Y2595466D1*
X1736830Y2593565D1*
X1740632D1*
X1746380Y2595466D1*
X1750183Y2601214D1*
X1752128Y2610765D1*
Y2616513D1*
X1750183Y2626064D1*
X1746380Y2631812D1*
X1740632Y2633713D1*
X1736830D1*
X1750183Y2626064D2*
X1727235Y2601214D1*
X1122172Y1820778D2*
X1139372D1*
X1145120Y1822724D1*
X1147065Y1824625D1*
X1148967Y1828428D1*
Y1832275D1*
X1147065Y1836077D1*
X1145120Y1838023D1*
X1139372Y1839924D1*
X1122172D1*
Y1799732D1*
X1135569Y1820778D2*
X1148967Y1799732D1*
X1186167Y1839924D2*
X1161318D1*
Y1799732D1*
X1186167D1*
X1161318Y1820778D2*
X1176617D1*
X1198518Y1819806D2*
X1220626D1*
X1252123Y1799732D2*
Y1839880D1*
X1232978Y1813129D1*
X1261674D1*
X1283576Y1839880D2*
X1277872Y1837978D1*
X1275926Y1834176D1*
Y1830329D1*
X1277872Y1826527D1*
X1281674Y1824581D1*
X1289324Y1822680D1*
X1295072Y1820778D1*
X1298874Y1816932D1*
X1300775Y1813129D1*
Y1807381D1*
X1298874Y1803579D1*
X1296973Y1801633D1*
X1291225Y1799732D1*
X1283576D1*
X1277872Y1801633D1*
X1275926Y1803579D1*
X1274025Y1807381D1*
Y1813129D1*
X1275926Y1816932D1*
X1279773Y1820778D1*
X1285477Y1822680D1*
X1293126Y1824581D1*
X1296973Y1826527D1*
X1298874Y1830329D1*
Y1834176D1*
X1296973Y1837978D1*
X1291225Y1839880D1*
X1283576D1*
X1128422Y1026945D2*
X1145622D1*
X1151370Y1028891D1*
X1153316Y1030792D1*
X1155217Y1034594D1*
Y1038441D1*
X1153316Y1042244D1*
X1151370Y1044189D1*
X1145622Y1046091D1*
X1128422D1*
Y1005899D1*
X1141820Y1026945D2*
X1155217Y1005899D1*
X1192418Y1046091D2*
X1167569D1*
Y1005899D1*
X1192418D1*
X1167569Y1026945D2*
X1182867D1*
X1204769Y1025972D2*
X1226877D1*
X1258374Y1005899D2*
Y1046046D1*
X1239228Y1019296D1*
X1267924D1*
X1282221Y1036496D2*
Y1038397D1*
X1284122Y1042244D1*
X1286024Y1044145D1*
X1289870Y1046046D1*
X1297520D1*
X1301322Y1044145D1*
X1303224Y1042244D1*
X1305169Y1038397D1*
Y1034594D1*
X1303224Y1030748D1*
X1299421Y1025044D1*
X1280276Y1005899D1*
X1307070D1*
X1991013Y1017607D2*
X2008213D1*
X2013961Y1019552D1*
X2015906Y1021453D1*
X2017808Y1025256D1*
Y1029103D1*
X2015906Y1032905D1*
X2013961Y1034851D1*
X2008213Y1036752D1*
X1991013D1*
Y996560D1*
X2004410Y1017607D2*
X2017808Y996560D1*
X2055008Y1036752D2*
X2030159D1*
Y996560D1*
X2055008D1*
X2030159Y1017607D2*
X2045458D1*
X2067360Y1016634D2*
X2089468D1*
X2120964Y996560D2*
Y1036708D1*
X2101819Y1009957D1*
X2130515D1*
X2154362Y1036708D2*
X2148614Y1034806D1*
X2144768Y1029058D1*
X2142866Y1019508D1*
Y1013760D1*
X2144768Y1004209D1*
X2148614Y998461D1*
X2154362Y996560D1*
X2158165D1*
X2163913Y998461D1*
X2167715Y1004209D1*
X2169661Y1013760D1*
Y1019508D1*
X2167715Y1029058D1*
X2163913Y1034806D1*
X2158165Y1036708D1*
X2154362D1*
X2167715Y1029058D2*
X2144768Y1004209D1*
X1991013Y2627113D2*
X2008213D1*
X2013961Y2629059D1*
X2015906Y2630960D1*
X2017808Y2634762D1*
Y2638609D1*
X2015906Y2642412D1*
X2013961Y2644357D1*
X2008213Y2646259D1*
X1991013D1*
Y2606067D1*
X2004410Y2627113D2*
X2017808Y2606067D1*
X2055008Y2646259D2*
X2030159D1*
Y2606067D1*
X2055008D1*
X2030159Y2627113D2*
X2045458D1*
X2067360Y2626140D2*
X2089468D1*
X2105666Y2646214D2*
X2126668D1*
X2115216Y2630916D1*
X2120964D1*
X2124767Y2629014D1*
X2126668Y2627113D1*
X2128614Y2621365D1*
Y2617563D1*
X2126668Y2611815D1*
X2122866Y2607968D1*
X2117118Y2606067D1*
X2111369D1*
X2105666Y2607968D1*
X2103764Y2609913D1*
X2101819Y2613716D1*
X2140965Y2638565D2*
X2144812Y2640510D1*
X2150560Y2646214D1*
Y2606067D1*
X1128422Y2608361D2*
X1145622D1*
X1151370Y2610307D1*
X1153316Y2612208D1*
X1155217Y2616010D1*
Y2619857D1*
X1153316Y2623660D1*
X1151370Y2625605D1*
X1145622Y2627507D1*
X1128422D1*
Y2587315D1*
X1141820Y2608361D2*
X1155217Y2587315D1*
X1192418Y2627507D2*
X1167569D1*
Y2587315D1*
X1192418D1*
X1167569Y2608361D2*
X1182867D1*
X1204769Y2607388D2*
X1226877D1*
X1269870Y2587315D2*
X1254527Y2627507D1*
X1239228Y2587315D1*
X1244976Y2600712D2*
X1264122D1*
X1282221Y2619813D2*
X1286068Y2621759D1*
X1291816Y2627462D1*
Y2587315D1*
X1306113Y2617912D2*
Y2619813D1*
X1308014Y2623660D1*
X1309915Y2625561D1*
X1313762Y2627462D1*
X1321411D1*
X1325214Y2625561D1*
X1327115Y2623660D1*
X1329061Y2619813D1*
Y2616010D1*
X1327115Y2612164D1*
X1323313Y2606460D1*
X1304167Y2587315D1*
X1330962D1*
X669037Y2139955D2*
Y2099763D1*
X708183Y2139955D2*
Y2099763D1*
X681388Y2139955D1*
Y2099763D1*
X751176D2*
X735833Y2139955D1*
X720534Y2099763D1*
X726282Y2113161D2*
X745428D1*
X763527Y2119837D2*
X785635D1*
X828628Y2099763D2*
X813285Y2139955D1*
X797986Y2099763D1*
X803734Y2113161D2*
X822880D1*
X840979Y2132262D2*
X844826Y2134207D1*
X850574Y2139911D1*
Y2099763D1*
X882071D2*
Y2139911D1*
X862925Y2113161D1*
X891621D1*
X687789Y2933789D2*
Y2893597D1*
X726935Y2933789D2*
Y2893597D1*
X700140Y2933789D1*
Y2893597D1*
X769928D2*
X754585Y2933789D1*
X739286Y2893597D1*
X745034Y2906994D2*
X764179D1*
X782279Y2913671D2*
X804387D1*
X847380Y2893597D2*
X832037Y2933789D1*
X816738Y2893597D1*
X822486Y2906994D2*
X841632D1*
X884624Y2920391D2*
X882679Y2914643D1*
X878876Y2910797D1*
X873128Y2908895D1*
X871227D1*
X865479Y2910797D1*
X861676Y2914643D1*
X859731Y2920391D1*
Y2922293D1*
X861676Y2928041D1*
X865479Y2931843D1*
X871227Y2933744D1*
X873128D1*
X878876Y2931843D1*
X882679Y2928041D1*
X884624Y2920391D1*
Y2910797D1*
X882679Y2901246D1*
X878876Y2895498D1*
X873128Y2893597D1*
X869326D1*
X863578Y2895498D1*
X861676Y2899345D1*
X1562881Y2946290D2*
Y2906098D1*
X1602027Y2946290D2*
Y2906098D1*
X1575232Y2946290D1*
Y2906098D1*
X1645019D2*
X1629677Y2946290D1*
X1614378Y2906098D1*
X1620126Y2919495D2*
X1639271D1*
X1657371Y2926172D2*
X1679479D1*
X1693775Y2936695D2*
Y2938596D1*
X1695677Y2942443D1*
X1697578Y2944345D1*
X1701425Y2946246D1*
X1709074D1*
X1712877Y2944345D1*
X1714778Y2942443D1*
X1716723Y2938596D1*
Y2934794D1*
X1714778Y2930947D1*
X1710975Y2925243D1*
X1691830Y2906098D1*
X1718625D1*
X1740527Y2946246D2*
X1734823Y2944345D1*
X1732877Y2940542D1*
Y2936695D1*
X1734823Y2932893D1*
X1738625Y2930947D1*
X1746275Y2929046D1*
X1752023Y2927145D1*
X1755825Y2923298D1*
X1757727Y2919495D1*
Y2913747D1*
X1755825Y2909945D1*
X1753924Y2907999D1*
X1748176Y2906098D1*
X1740527D1*
X1734823Y2907999D1*
X1732877Y2909945D1*
X1730976Y2913747D1*
Y2919495D1*
X1732877Y2923298D1*
X1736724Y2927145D1*
X1742428Y2929046D1*
X1750077Y2930947D1*
X1753924Y2932893D1*
X1755825Y2936695D1*
Y2940542D1*
X1753924Y2944345D1*
X1748176Y2946246D1*
X1740527D1*
X1562881Y1333621D2*
Y1293429D1*
X1602027Y1333621D2*
Y1293429D1*
X1575232Y1333621D1*
Y1293429D1*
X1645019D2*
X1629677Y1333621D1*
X1614378Y1293429D1*
X1620126Y1306826D2*
X1639271D1*
X1657371Y1313503D2*
X1679479D1*
X1695677Y1333576D2*
X1716679D1*
X1705227Y1318278D1*
X1710975D1*
X1714778Y1316377D1*
X1716679Y1314475D1*
X1718625Y1308727D1*
Y1304925D1*
X1716679Y1299177D1*
X1712877Y1295330D1*
X1707129Y1293429D1*
X1701381D1*
X1695677Y1295330D1*
X1693775Y1297275D1*
X1691830Y1301078D1*
X1740527Y1333576D2*
X1734823Y1331675D1*
X1732877Y1327873D1*
Y1324026D1*
X1734823Y1320223D1*
X1738625Y1318278D1*
X1746275Y1316377D1*
X1752023Y1314475D1*
X1755825Y1310629D1*
X1757727Y1306826D1*
Y1301078D1*
X1755825Y1297275D1*
X1753924Y1295330D1*
X1748176Y1293429D1*
X1740527D1*
X1734823Y1295330D1*
X1732877Y1297275D1*
X1730976Y1301078D1*
Y1306826D1*
X1732877Y1310629D1*
X1736724Y1314475D1*
X1742428Y1316377D1*
X1750077Y1318278D1*
X1753924Y1320223D1*
X1755825Y1324026D1*
Y1327873D1*
X1753924Y1331675D1*
X1748176Y1333576D1*
X1740527D1*
X694039Y1333621D2*
Y1293429D1*
X733185Y1333621D2*
Y1293429D1*
X706391Y1333621D1*
Y1293429D1*
X776178D2*
X760835Y1333621D1*
X745537Y1293429D1*
X751285Y1306826D2*
X770430D1*
X788530Y1313503D2*
X810637D1*
X842134Y1293429D2*
Y1333576D1*
X822989Y1306826D1*
X851685D1*
X886984Y1333576D2*
X867883D1*
X865982Y1316377D1*
X867883Y1318278D1*
X873631Y1320223D1*
X879335D1*
X885083Y1318278D1*
X888930Y1314475D1*
X890831Y1308727D1*
Y1304925D1*
X888930Y1299177D1*
X885083Y1295330D1*
X879335Y1293429D1*
X873631D1*
X867883Y1295330D1*
X865982Y1297275D1*
X864036Y1301078D1*
X1994176Y1339871D2*
Y1299679D1*
X2033322Y1339871D2*
Y1299679D1*
X2006527Y1339871D1*
Y1299679D1*
X2045673Y1339871D2*
Y1299679D1*
X2062917D1*
X2068665Y1301625D1*
X2070567Y1303526D1*
X2072468Y1307329D1*
Y1313077D1*
X2070567Y1316923D1*
X2068665Y1318825D1*
X2062917Y1320726D1*
X2068665Y1322671D1*
X2070567Y1324573D1*
X2072468Y1328375D1*
Y1332222D1*
X2070567Y1336025D1*
X2068665Y1337970D1*
X2062917Y1339871D1*
X2045673D1*
Y1320726D2*
X2062917D1*
X2084819Y1319753D2*
X2106927D1*
X2123125Y1339827D2*
X2144128D1*
X2132676Y1324529D1*
X2138424D1*
X2142226Y1322627D1*
X2144128Y1320726D1*
X2146073Y1314978D1*
Y1311175D1*
X2144128Y1305427D1*
X2140325Y1301581D1*
X2134577Y1299679D1*
X2128829D1*
X2123125Y1301581D1*
X2121224Y1303526D1*
X2119279Y1307329D1*
X2183318Y1326474D2*
X2181372Y1320726D1*
X2177570Y1316879D1*
X2171822Y1314978D1*
X2169921D1*
X2164173Y1316879D1*
X2160370Y1320726D1*
X2158425Y1326474D1*
Y1328375D1*
X2160370Y1334123D1*
X2164173Y1337926D1*
X2169921Y1339827D1*
X2171822D1*
X2177570Y1337926D1*
X2181372Y1334123D1*
X2183318Y1326474D1*
Y1316879D1*
X2181372Y1307329D1*
X2177570Y1301581D1*
X2171822Y1299679D1*
X2168019D1*
X2162271Y1301581D1*
X2160370Y1305427D1*
X1125335Y1339871D2*
Y1299679D1*
X1164481Y1339871D2*
Y1299679D1*
X1137686Y1339871D1*
Y1299679D1*
X1176832Y1339871D2*
Y1299679D1*
X1194076D1*
X1199824Y1301625D1*
X1201725Y1303526D1*
X1203627Y1307329D1*
Y1313077D1*
X1201725Y1316923D1*
X1199824Y1318825D1*
X1194076Y1320726D1*
X1199824Y1322671D1*
X1201725Y1324573D1*
X1203627Y1328375D1*
Y1332222D1*
X1201725Y1336025D1*
X1199824Y1337970D1*
X1194076Y1339871D1*
X1176832D1*
Y1320726D2*
X1194076D1*
X1215978Y1319753D2*
X1238086D1*
X1269583Y1299679D2*
Y1339827D1*
X1250437Y1313077D1*
X1279133D1*
X1310630Y1299679D2*
Y1339827D1*
X1291485Y1313077D1*
X1320181D1*
X1125335Y2139955D2*
Y2099763D1*
X1164481Y2139955D2*
Y2099763D1*
X1137686Y2139955D1*
Y2099763D1*
X1176832Y2139955D2*
Y2099763D1*
X1194076D1*
X1199824Y2101709D1*
X1201725Y2103610D1*
X1203627Y2107413D1*
Y2113161D1*
X1201725Y2117007D1*
X1199824Y2118909D1*
X1194076Y2120810D1*
X1199824Y2122755D1*
X1201725Y2124657D1*
X1203627Y2128459D1*
Y2132306D1*
X1201725Y2136109D1*
X1199824Y2138054D1*
X1194076Y2139955D1*
X1176832D1*
Y2120810D2*
X1194076D1*
X1215978Y2119837D2*
X1238086D1*
X1281079Y2099763D2*
X1265736Y2139955D1*
X1250437Y2099763D1*
X1256185Y2113161D2*
X1275331D1*
X1293430Y2132262D2*
X1297277Y2134207D1*
X1303025Y2139911D1*
Y2099763D1*
X1338324Y2139911D2*
X1319223D1*
X1317322Y2122711D1*
X1319223Y2124613D1*
X1324971Y2126558D1*
X1330675D1*
X1336423Y2124613D1*
X1340270Y2120810D1*
X1342171Y2115062D1*
Y2111259D1*
X1340270Y2105511D1*
X1336423Y2101665D1*
X1330675Y2099763D1*
X1324971D1*
X1319223Y2101665D1*
X1317322Y2103610D1*
X1315376Y2107413D1*
X1125335Y2940039D2*
Y2899847D1*
X1164481Y2940039D2*
Y2899847D1*
X1137686Y2940039D1*
Y2899847D1*
X1176832Y2940039D2*
Y2899847D1*
X1194076D1*
X1199824Y2901793D1*
X1201725Y2903694D1*
X1203627Y2907497D1*
Y2913245D1*
X1201725Y2917091D1*
X1199824Y2918993D1*
X1194076Y2920894D1*
X1199824Y2922839D1*
X1201725Y2924741D1*
X1203627Y2928543D1*
Y2932390D1*
X1201725Y2936193D1*
X1199824Y2938138D1*
X1194076Y2940039D1*
X1176832D1*
Y2920894D2*
X1194076D1*
X1215978Y2919921D2*
X1238086D1*
X1281079Y2899847D2*
X1265736Y2940039D1*
X1250437Y2899847D1*
X1256185Y2913245D2*
X1275331D1*
X1293430Y2932346D2*
X1297277Y2934291D1*
X1303025Y2939995D1*
Y2899847D1*
X1326872Y2939995D2*
X1321124Y2938094D1*
X1317278Y2932346D1*
X1315376Y2922795D1*
Y2917047D1*
X1317278Y2907497D1*
X1321124Y2901749D1*
X1326872Y2899847D1*
X1330675D1*
X1336423Y2901749D1*
X1340226Y2907497D1*
X1342171Y2917047D1*
Y2922795D1*
X1340226Y2932346D1*
X1336423Y2938094D1*
X1330675Y2939995D1*
X1326872D1*
X1340226Y2932346D2*
X1317278Y2907497D1*
X2000426Y2927538D2*
Y2887346D1*
X2039572Y2927538D2*
Y2887346D1*
X2012778Y2927538D1*
Y2887346D1*
X2051924Y2927538D2*
Y2887346D1*
X2069168D1*
X2074916Y2889292D1*
X2076817Y2891193D1*
X2078719Y2894995D1*
Y2900743D1*
X2076817Y2904590D1*
X2074916Y2906491D1*
X2069168Y2908393D1*
X2074916Y2910338D1*
X2076817Y2912239D1*
X2078719Y2916042D1*
Y2919889D1*
X2076817Y2923691D1*
X2074916Y2925637D1*
X2069168Y2927538D1*
X2051924D1*
Y2908393D2*
X2069168D1*
X2091070Y2907420D2*
X2113178D1*
X2127475Y2917943D2*
Y2919845D1*
X2129376Y2923691D1*
X2131277Y2925593D1*
X2135124Y2927494D1*
X2142773D1*
X2146576Y2925593D1*
X2148477Y2923691D1*
X2150423Y2919845D1*
Y2916042D1*
X2148477Y2912195D1*
X2144675Y2906491D1*
X2125529Y2887346D1*
X2152324D1*
X2189569Y2914141D2*
X2187623Y2908393D1*
X2183821Y2904546D1*
X2178073Y2902645D1*
X2176171D1*
X2170423Y2904546D1*
X2166621Y2908393D1*
X2164675Y2914141D1*
Y2916042D1*
X2166621Y2921790D1*
X2170423Y2925593D1*
X2176171Y2927494D1*
X2178073D1*
X2183821Y2925593D1*
X2187623Y2921790D1*
X2189569Y2914141D1*
Y2904546D1*
X2187623Y2894995D1*
X2183821Y2889247D1*
X2178073Y2887346D1*
X2174270D1*
X2168522Y2889247D1*
X2166621Y2893094D1*
X1559062Y3006108D2*
Y3046301D1*
X1543763Y3006108D1*
X1528464Y3046301D1*
Y3006108D1*
X1582909Y3046301D2*
X1579062Y3044399D1*
X1575260Y3040552D1*
X1573314Y3036750D1*
X1571413Y3031002D1*
Y3021407D1*
X1573314Y3015703D1*
X1575260Y3011857D1*
X1579062Y3008054D1*
X1582909Y3006108D1*
X1590558D1*
X1594361Y3008054D1*
X1598208Y3011857D1*
X1600109Y3015703D1*
X1602010Y3021407D1*
Y3031002D1*
X1600109Y3036750D1*
X1598208Y3040552D1*
X1594361Y3044399D1*
X1590558Y3046301D1*
X1582909D1*
X1641156Y3040552D2*
X1637354Y3044399D1*
X1631606Y3046301D1*
X1623957D1*
X1618208Y3044399D1*
X1614362Y3040552D1*
Y3036750D1*
X1616307Y3032903D1*
X1618208Y3031002D1*
X1622011Y3029101D1*
X1633507Y3025254D1*
X1637354Y3023353D1*
X1639255Y3021407D1*
X1641156Y3017605D1*
Y3011857D1*
X1637354Y3008054D1*
X1631606Y3006108D1*
X1623957D1*
X1618208Y3008054D1*
X1614362Y3011857D1*
X1653508Y3026182D2*
X1675616D1*
X1689912Y3036706D2*
Y3038607D1*
X1691814Y3042454D1*
X1693715Y3044355D1*
X1697562Y3046256D1*
X1705211D1*
X1709014Y3044355D1*
X1710915Y3042454D1*
X1712860Y3038607D1*
Y3034804D1*
X1710915Y3030958D1*
X1707112Y3025254D1*
X1687967Y3006108D1*
X1714762D1*
X1734762D2*
X1753908Y3046256D1*
X1727113D1*
X1449489Y2146272D2*
D36*
X1426475Y2206560D1*
X1403527Y2146272D1*
X1412149Y2166368D2*
X1440867D1*
X1508208Y2197938D2*
X1502504Y2203708D1*
X1493882Y2206560D1*
X1482408D1*
X1473786Y2203708D1*
X1468016Y2197938D1*
Y2192234D1*
X1470934Y2186464D1*
X1473786Y2183612D1*
X1479490Y2180761D1*
X1496734Y2174990D1*
X1502504Y2172138D1*
X1505356Y2169220D1*
X1508208Y2163516D1*
Y2154894D1*
X1502504Y2149191D1*
X1493882Y2146272D1*
X1482408D1*
X1473786Y2149191D1*
X1468016Y2154894D1*
M02*
