G04 DipTrace 3.0.0.1*
G04 Arm-shield_lay_V2.GTL*
%MOIN*%
G04 #@! TF.FileFunction,Copper,L1,Top*
G04 #@! TF.Part,Single*
G04 #@! TA.AperFunction,Conductor*
%ADD14C,0.03*%
%ADD15C,0.012992*%
G04 #@! TA.AperFunction,CopperBalancing*
%ADD16C,0.025*%
G04 #@! TA.AperFunction,ComponentPad*
%ADD18R,0.066929X0.066929*%
%ADD19C,0.066929*%
%ADD20C,0.11811*%
%ADD21R,0.06X0.025*%
%ADD23R,0.059055X0.021654*%
G04 #@! TA.AperFunction,ComponentPad*
%ADD24R,0.11811X0.11811*%
G04 #@! TA.AperFunction,ViaPad*
%ADD25C,0.04*%
%FSLAX26Y26*%
G04*
G70*
G90*
G75*
G01*
G04 Top*
%LPD*%
X975311Y1031559D2*
D14*
Y1056570D1*
X1044068Y1125327D1*
Y1367927D1*
X1160593Y1484451D1*
X862799Y794031D2*
D15*
X875311D1*
X912804Y756538D1*
Y644026D1*
X912783Y644005D1*
Y569018D1*
X862799Y694031D2*
X881551Y675280D1*
Y700282D1*
X869050D1*
X862799Y694031D1*
Y481509D1*
X875290Y469018D1*
X912783D1*
X1806648Y1725395D2*
X1725385D1*
X1694136Y1756643D1*
Y1962915D1*
X1706638Y1975416D1*
Y2225442D1*
X1656633Y2275448D1*
X962799Y794031D2*
Y781551D1*
X1012783Y731567D1*
Y569018D1*
X2019247Y1775395D2*
D14*
X1962915D1*
X1925411Y1737891D1*
Y1575374D1*
X1969165Y1531619D1*
Y1131577D1*
X2106680Y994063D1*
Y944058D1*
X2090765Y959972D1*
Y991825D1*
X1062799Y794031D2*
Y787812D1*
X975311Y875301D1*
Y956559D1*
X862810Y1900419D2*
D15*
Y1906669D1*
X912804Y1956664D1*
Y2087928D1*
X1050319Y2225442D1*
X1306627D1*
X1356633Y2275448D1*
X1925411Y991825D2*
D14*
X1322510D1*
X1160593Y1153743D1*
X975311Y994059D2*
X1031571D1*
X1056570Y969060D1*
Y887802D1*
X1187833Y756538D1*
Y544068D1*
X1112783Y469018D1*
X1062799Y694031D2*
D15*
Y619003D1*
X1112783Y569018D1*
X962799Y694031D2*
X956559D1*
Y675280D1*
X962810Y669029D1*
Y481509D1*
X975301Y469018D1*
X1012783D1*
D25*
X1806648Y1875406D3*
X1750392Y1825400D3*
X1806648D3*
X1862904D3*
X1451920Y1694272D2*
D16*
X1667573D1*
X1427066Y1669403D2*
X1685396D1*
X1402164Y1644534D2*
X1685396D1*
X1377310Y1619665D2*
X1685396D1*
X1352457Y1594797D2*
X1685396D1*
X1327554Y1569928D2*
X1685396D1*
X1302701Y1545059D2*
X1685396D1*
X1277848Y1520190D2*
X1685396D1*
X1252993Y1495322D2*
X1685396D1*
X1247476Y1470453D2*
X1685396D1*
X1239322Y1445584D2*
X1685396D1*
X1220133Y1420715D2*
X1685396D1*
X1153482Y1395846D2*
X1685396D1*
X1128629Y1370978D2*
X1685396D1*
X1103776Y1346109D2*
X1685396D1*
X1102848Y1321240D2*
X1685396D1*
X1102848Y1296371D2*
X1685396D1*
X1102848Y1271503D2*
X1685396D1*
X1102848Y1246634D2*
X1685396D1*
X1102848Y1221765D2*
X1522164D1*
X1645524D2*
X1685396D1*
X1102848Y1196896D2*
X1504196D1*
X1663541D2*
X1685396D1*
X1102848Y1172028D2*
X1496676D1*
X1671060D2*
X1685396D1*
X1102848Y1147159D2*
X1496773D1*
X1670962D2*
X1685396D1*
X1102848Y1122290D2*
X1504585D1*
X1663150D2*
X1685396D1*
X1102848Y1097421D2*
X1523042D1*
X1644693D2*
X1685396D1*
X1102848Y1072552D2*
X1685396D1*
X1102848Y1047684D2*
X1685396D1*
X1102848Y1022815D2*
X2004196D1*
X1102848Y997946D2*
X2002925D1*
X1102848Y973077D2*
X2004196D1*
X1102848Y948209D2*
X2004196D1*
X1102848Y923340D2*
X2004196D1*
X1107096Y898471D2*
X2004196D1*
X1131949Y873602D2*
X2004196D1*
X1156802Y848734D2*
X1784908D1*
X1181705Y823865D2*
X1760054D1*
X1206558Y798996D2*
X1735152D1*
X1227896Y774127D2*
X1710298D1*
X1246549Y749259D2*
X1685445D1*
X1271402Y724390D2*
X1660542D1*
X1277848Y699521D2*
X1635689D1*
X1277848Y674652D2*
X1610836D1*
X1277848Y649783D2*
X1585933D1*
X1277848Y624915D2*
X1585396D1*
X1277848Y600046D2*
X1585396D1*
X1277848Y575177D2*
X1585396D1*
X1277848Y550308D2*
X1585396D1*
X1245877Y1477739D2*
X1243777Y1464480D1*
X1239629Y1451714D1*
X1233534Y1439753D1*
X1225644Y1428892D1*
X1216152Y1419400D1*
X1205291Y1411510D1*
X1193331Y1405416D1*
X1180564Y1401268D1*
X1167306Y1399168D1*
X1154327Y1399151D1*
X1100333Y1345182D1*
X1100323Y902743D1*
X1219385Y783486D1*
X1223211Y778218D1*
X1226167Y772416D1*
X1228181Y766211D1*
X1229244Y764058D1*
X1272954Y720131D1*
X1274730Y716646D1*
X1275341Y712783D1*
Y550235D1*
X1587890Y550265D1*
X1588030Y645982D1*
X1589239Y649701D1*
X1591538Y652865D1*
X1805551Y866661D1*
X1809037Y868437D1*
X1812899Y869049D1*
X2006698D1*
X2006671Y976129D1*
X2005482Y985113D1*
Y998538D1*
X2006676Y1007241D1*
X2006630Y1035434D1*
X1997963Y1044101D1*
X1698432Y1044223D1*
X1694713Y1045432D1*
X1691549Y1047731D1*
X1689249Y1050895D1*
X1688041Y1054614D1*
X1687887Y1094070D1*
Y1676442D1*
X1645198Y1719147D1*
X1474280Y1719140D1*
X1245898Y1490748D1*
X1245877Y1477739D1*
X1669146Y1153281D2*
X1667046Y1140022D1*
X1662898Y1127256D1*
X1656803Y1115295D1*
X1648913Y1104434D1*
X1639421Y1094942D1*
X1628560Y1087052D1*
X1616600Y1080958D1*
X1603833Y1076810D1*
X1590575Y1074710D1*
X1577150D1*
X1563891Y1076810D1*
X1551125Y1080958D1*
X1539164Y1087052D1*
X1528303Y1094942D1*
X1518811Y1104434D1*
X1510921Y1115295D1*
X1504827Y1127256D1*
X1500678Y1140022D1*
X1498579Y1153281D1*
Y1166706D1*
X1500678Y1179965D1*
X1504827Y1192731D1*
X1510921Y1204692D1*
X1518811Y1215552D1*
X1528303Y1225045D1*
X1539164Y1232934D1*
X1551125Y1239029D1*
X1563891Y1243177D1*
X1577150Y1245277D1*
X1590575D1*
X1603833Y1243177D1*
X1616600Y1239029D1*
X1628560Y1232934D1*
X1639421Y1225045D1*
X1648913Y1215552D1*
X1656803Y1204692D1*
X1662898Y1192731D1*
X1667046Y1179965D1*
X1669146Y1166706D1*
Y1153281D1*
X1734164Y1863039D2*
X1872913D1*
X1734164Y1838171D2*
X1872913D1*
X1734164Y1813302D2*
X1872913D1*
X1734164Y1788433D2*
X1872913D1*
X1736361Y1763564D2*
X1872913D1*
X1875407Y1762941D2*
Y1887941D1*
X1731608Y1887908D1*
X1731639Y1765789D1*
X1744139Y1762892D1*
X1875438D1*
X1965438Y1769280D2*
X2066688D1*
X1965438Y1744411D2*
X2066688D1*
X1965438Y1719542D2*
X2066688D1*
X1962913Y1794100D2*
Y1712849D1*
X2069213Y1712887D1*
X2069177Y1794186D1*
X1962878Y1794148D1*
D18*
X1656633Y2275448D3*
D19*
Y2175448D3*
X1556633Y2275448D3*
Y2175448D3*
X1456633Y2275448D3*
Y2175448D3*
X1356633Y2275448D3*
Y2175448D3*
X1256633Y2275448D3*
Y2175448D3*
D18*
X712783Y569018D3*
D19*
Y469018D3*
X812783Y569018D3*
Y469018D3*
X912783Y569018D3*
Y469018D3*
X1012783Y569018D3*
Y469018D3*
X1112783Y569018D3*
Y469018D3*
D18*
X962810Y2000419D3*
D19*
Y1900419D3*
X862810Y2000419D3*
Y1900419D3*
X762810Y2000419D3*
Y1900419D3*
D18*
X862799Y694031D3*
D19*
Y794031D3*
X962799Y694031D3*
Y794031D3*
X1062799Y694031D3*
Y794031D3*
D20*
X944058Y1319097D3*
D21*
X975311Y956559D3*
Y994059D3*
Y1031559D3*
D18*
X1256591Y2019171D3*
D19*
X1356591D3*
X1456591D3*
X1556591D3*
X1656591D3*
X1756591D3*
X1856591D3*
X1956591D3*
X2056591D3*
X2156591D3*
D18*
X1456591Y619171D3*
D19*
X1556591D3*
X1656591D3*
X1756591D3*
X1856591D3*
X1956591D3*
X2056591D3*
X2156591D3*
D23*
X1806648Y1775395D3*
Y1725395D3*
Y1675395D3*
Y1625395D3*
X2019247D3*
Y1675395D3*
Y1725395D3*
Y1775395D3*
D24*
X1925411Y775290D3*
D20*
X2090765D3*
Y991825D3*
X1925411D3*
X1800398Y1325348D3*
Y1490702D3*
X1583862Y1159993D3*
Y1490702D3*
Y1325348D3*
D24*
X1800398Y1159993D3*
D20*
X944058Y1153743D3*
X1160593Y1484451D3*
Y1153743D3*
Y1319097D3*
D24*
X944058Y1484451D3*
M02*
