G04 DipTrace 3.0.0.1*
G04 mpu9250.GBL*
%MOIN*%
G04 #@! TF.FileFunction,Copper,L2,Bot*
G04 #@! TF.Part,Single*
G04 #@! TA.AperFunction,Conductor*
%ADD14C,0.008*%
%ADD17R,0.043307X0.03937*%
G04 #@! TA.AperFunction,ComponentPad*
%ADD19R,0.066929X0.066929*%
%ADD20C,0.066929*%
G04 #@! TA.AperFunction,ViaPad*
%ADD25C,0.025*%
%FSLAX26Y26*%
G04*
G70*
G90*
G75*
G01*
G04 Bottom*
%LPD*%
X620916Y674950D2*
D14*
Y768701D1*
X618701D1*
Y824950D1*
X574950Y868701D1*
X468701D1*
X818701Y756201D2*
X843701Y731201D1*
Y618701D1*
X874950Y668701D2*
Y737452D1*
X824952Y787450D1*
X665575Y778076D2*
X662450Y781201D1*
X668700Y787450D1*
X824952D1*
X649950Y724950D2*
Y712452D1*
X656201Y706201D1*
Y506201D1*
X618701Y468701D1*
X468701D1*
Y668701D2*
X553986D1*
Y674950D1*
X599951Y618701D2*
X587451Y631201D1*
Y737451D1*
X556201Y768701D1*
X468701D1*
X553986D1*
D25*
X818701Y756201D3*
X843701Y618701D3*
X618701Y824950D3*
X843701Y618701D3*
X874950Y668701D3*
X665575Y778076D3*
X649950Y724950D3*
X599951Y618701D3*
X824952Y787450D3*
D19*
X468701Y868701D3*
D20*
Y768701D3*
Y668701D3*
Y568701D3*
Y468701D3*
D17*
X553986Y768701D3*
X620916D3*
X553986Y674950D3*
X620916D3*
M02*
