M48
INCH
T01C0.018
T02C0.0354
T03C0.1004
%
T01
X+010316Y+004690
X+013977Y+004690
X+014629Y+008128
X+017753Y+007253
X+017879Y+005378
X+009253Y+008690
X+007940Y+007878
X+007315Y+009941
X+005690Y+009878
T02
X+006003Y+009003
X+006003Y+008216
X+006003Y+007428
X+006790Y+007428
X+006790Y+008216
X+006790Y+009003
X+018217Y+009353
X+019004Y+009353
X+019004Y+010140
X+018217Y+010140
X+018217Y+008565
X+019004Y+008565
T03
X+006756Y+005258
X+011756Y+010008
X+015756Y+010008
T00
M30
