G04 DipTrace 3.0.0.2*
G04 Power_Current.GTL*
%MOMM*%
G04 #@! TF.FileFunction,Copper,L1,Top*
G04 #@! TF.Part,Single*
G04 #@! TA.AperFunction,Conductor*
%ADD14C,0.33*%
%ADD15C,0.3*%
%ADD16C,2.54*%
%ADD18C,0.6604*%
G04 #@! TA.AperFunction,CopperBalancing*
%ADD19C,0.635*%
%ADD20R,1.1X1.0*%
G04 #@! TA.AperFunction,ComponentPad*
%ADD21R,3.0X3.0*%
%ADD22C,3.0*%
%ADD23R,1.7X1.7*%
%ADD24C,1.7*%
%ADD26R,0.38X1.5*%
G04 #@! TA.AperFunction,ComponentPad*
%ADD27R,1.6X1.6*%
%ADD28C,1.6*%
%ADD29C,3.2*%
%ADD30C,5.0*%
%ADD31R,5.0X7.8*%
%ADD32R,7.8X5.0*%
%ADD33R,1.5X1.3*%
%ADD34R,0.3X1.4*%
%ADD36R,2.75X1.5*%
%ADD37R,6.5X6.2*%
G04 #@! TA.AperFunction,ComponentPad*
%ADD38C,3.5*%
%ADD41R,1.0X1.1*%
%ADD42R,8.0X3.0*%
%ADD44R,1.1X0.6*%
%ADD45R,1.3X1.5*%
%ADD46R,3.0X8.0*%
%ADD48R,0.6X1.1*%
G04 #@! TA.AperFunction,ViaPad*
%ADD49C,1.016*%
%FSLAX35Y35*%
G04*
G71*
G90*
G75*
G01*
G04 Top*
%LPD*%
X3950123Y7904957D2*
D14*
Y7725000D1*
X4030123Y7904957D2*
Y7792623D1*
X3962500Y7725000D1*
X3950123D1*
X4110123Y7904957D2*
Y7772623D1*
X4062500Y7725000D1*
X3950123D1*
X3870123Y7904957D2*
Y7779877D1*
X3925000Y7725000D1*
X3950123D1*
X4190123Y7904957D2*
Y7652623D1*
X4150000Y7612500D1*
X2670123Y8274957D2*
Y7904957D1*
X1710123Y8274957D2*
Y7904957D1*
X2910123D2*
Y8274957D1*
X2830123D2*
Y7904957D1*
X2750123D2*
Y8274957D1*
X1837500Y3952500D2*
X1640000D1*
X1637500Y3950000D1*
X2087500Y2987500D2*
X1932500D1*
X1925000Y2980000D1*
X7255000Y2680000D2*
Y2882500D1*
X7075000Y3105000D2*
X7212500D1*
Y3100000D1*
X15125000Y1750000D2*
X14637500D1*
X14562500Y1825000D1*
Y2030750D1*
X14555750Y2037500D1*
X16750000Y1737500D2*
X16275000D1*
X16187500Y1825000D1*
Y2025000D1*
X16175000Y2037500D1*
X13512500Y1750000D2*
X13025000D1*
X12950000Y1825000D1*
Y2025000D1*
X12937500Y2037500D1*
X11887500Y1750000D2*
X11387500D1*
X11312500Y1825000D1*
Y2037500D1*
X10262500Y1750000D2*
X9750000D1*
X9687500Y1812500D1*
Y2037500D1*
X1637500Y3950000D2*
Y4075000D1*
X1925000Y2980000D2*
X1787500D1*
X2087500Y3420000D2*
X2227500D1*
X7212500Y3545000D2*
X7337500D1*
X7075000Y3105000D2*
X7070000Y3100000D1*
X6950000D1*
X7255000Y2680000D2*
Y2687500D1*
X7112500D1*
X16337500Y7487500D2*
X15882500D1*
X15857500Y7462500D1*
X4400000Y2592447D2*
Y2225000D1*
X4212500Y2037500D1*
X3800000D1*
X4687500Y2592447D2*
Y2225000D1*
X4875000Y2037500D1*
X5277500D1*
X7587500Y4187500D2*
D15*
Y4274000D1*
D14*
Y4312500D1*
X7662500Y4387500D1*
X7750000D1*
X7837500Y3987500D2*
Y3862500D1*
X4270123Y8274957D2*
Y8129877D1*
X4312500Y8087500D1*
X4350123Y8274957D2*
Y8125123D1*
X4312500Y8087500D1*
X4270123Y7904957D2*
Y8045123D1*
X4312500Y8087500D1*
X4350123Y7904957D2*
Y8049877D1*
X4312500Y8087500D1*
X4270123Y7904957D2*
Y7767377D1*
X4312500Y7725000D1*
X4350123Y7904957D2*
Y7762623D1*
X4312500Y7725000D1*
X4270123Y8274957D2*
Y8407623D1*
X4312500Y8450000D1*
X4350123Y8274957D2*
Y8412377D1*
X4312500Y8450000D1*
X5312500Y7312500D2*
Y7175000D1*
Y7037500D2*
Y7175000D1*
Y7312500D2*
Y7450000D1*
Y7037500D2*
Y6900000D1*
X14065627Y9514623D2*
X13922750D1*
X14716250Y9494127D2*
Y9605503D1*
X14684750Y9637003D1*
X14494250D1*
X13922750Y9514623D2*
Y9398877D1*
X14065627Y9514623D2*
Y9398877D1*
X8578127Y9514623D2*
X8435250D1*
X9228750Y9494127D2*
Y9605503D1*
X9197250Y9637003D1*
X9006750D1*
X8435250Y9514623D2*
Y9398877D1*
X8578127Y9514623D2*
Y9398877D1*
X3103127Y9514623D2*
X2960250D1*
X3753750Y9494127D2*
Y9605503D1*
X3722250Y9637003D1*
X3531750D1*
X2960250Y9514623D2*
Y9398877D1*
X3103127Y9514623D2*
Y9398877D1*
X2270123Y7904957D2*
Y8274957D1*
X1630123Y7904957D2*
Y8274957D1*
X1790123Y7904957D2*
Y8274957D1*
X7687500Y4627500D2*
D15*
Y4714000D1*
D14*
Y4812500D1*
X7737500Y4862500D1*
X7850000D1*
X7937500Y4950000D1*
Y5112500D1*
X6012500Y5562500D2*
X5800000D1*
X4687500Y3157447D2*
Y4375000D1*
X5162500Y5562500D2*
X5800000D1*
X1550123Y8274957D2*
Y7904957D1*
X15772500Y4637500D2*
X16112500D1*
X9133750Y9764127D2*
Y9900837D1*
Y10018000D1*
X8848000Y10303750D1*
X8863873Y9684623D2*
Y10287877D1*
X8848000Y10303750D1*
X9133750Y9764127D2*
Y9748127D1*
X9197250D1*
X9324250Y9621127D1*
Y9494627D1*
X9323750Y9494127D1*
Y9764127D2*
Y9906377D1*
Y10017500D1*
X9610000Y10303750D1*
X9648000D1*
X4400000Y3154947D2*
Y4437500D1*
X5525000Y6350000D2*
X5800000D1*
Y6325000D1*
X7487500Y4627500D2*
D15*
Y4714000D1*
D14*
Y4775000D1*
X7450000Y4812500D1*
X7287500D1*
X8175000Y5875000D2*
X7937500D1*
X8435250Y9684623D2*
X8578127D1*
X8721000D1*
X8435250D2*
X8403493D1*
X8292373Y9573503D1*
Y9367127D1*
X8355873Y9303627D1*
X10451373D1*
X10594250Y9446503D1*
X8721000Y9514623D2*
X8863873D1*
X9133750Y9494127D2*
Y9414750D1*
X9165500Y9383000D1*
X9414877D1*
X9514750Y9482873D1*
X9673500D1*
X10106747D1*
X10197377Y9573503D1*
X10721250D1*
X10848250Y9446503D1*
X14621250Y9764127D2*
Y9900837D1*
Y10018000D1*
X14335500Y10303750D1*
X14351373Y9684623D2*
Y10287877D1*
X14335500Y10303750D1*
X14621250Y9764127D2*
Y9748127D1*
X14684750D1*
X14811750Y9621127D1*
Y9494627D1*
X14811250Y9494127D1*
Y9764127D2*
Y9906377D1*
Y10017500D1*
X15097500Y10303750D1*
X15135500D1*
X1817500Y3515000D2*
X1902500D1*
X2025000Y3637500D1*
X2700000D1*
X2775000Y3712500D1*
Y3950000D1*
X2787500D1*
X7537500Y4627500D2*
D15*
Y4541000D1*
D14*
Y4512500D1*
X7437500Y4412500D1*
X7275000D1*
X5525000Y5862500D2*
X5797550D1*
X5800050Y5865000D1*
X7342500Y3987500D2*
Y4107500D1*
X7337500Y4112500D1*
X6300000Y3950000D2*
Y3762500D1*
X6425000Y3637500D1*
X6940000D1*
X6942500Y3640000D1*
X5500000Y3950000D2*
X6300000D1*
X7637500Y4627500D2*
D15*
Y4541000D1*
D14*
Y4512500D1*
X7437500Y4312500D1*
X6662500D1*
X6300000Y3950000D1*
X9887500Y7762500D2*
Y7372500D1*
Y6982500D1*
X12475000Y5965000D2*
Y5575000D1*
X7587500Y4627500D2*
D15*
Y4714000D1*
D14*
Y4800000D1*
X8200000Y5575000D2*
X7939950D1*
X7937450Y5572500D1*
X6275000Y7030000D2*
D16*
X5725000D1*
X6275000D2*
X9545000D1*
X9887500Y7372500D1*
X10277500Y5582500D2*
D14*
X9887500D1*
X9497500D2*
X9887500D1*
X14500000Y4637500D2*
X14160000D1*
X12887500D2*
X12547500D1*
X11262500D2*
X10922500D1*
X9650000D2*
X9310000D1*
X9650000D2*
X10922500D1*
X11262500D2*
X12547500D1*
X12887500D2*
X14160000D1*
X12085000Y7755000D2*
X12475000D1*
X12865000D1*
X3658750Y9764127D2*
Y9900837D1*
Y10018000D1*
X3373000Y10303750D1*
X3388873Y9684623D2*
Y10287877D1*
X3373000Y10303750D1*
X3658750Y9764127D2*
Y9748127D1*
X3722250D1*
X3849250Y9621127D1*
Y9494627D1*
X3848750Y9494127D1*
Y9764127D2*
Y9906377D1*
Y10017500D1*
X4135000Y10303750D1*
X4173000D1*
X2960250Y9684623D2*
X3103127D1*
X3246000D1*
X2960250D2*
X2928493D1*
X2817373Y9573503D1*
Y9367127D1*
X2880873Y9303627D1*
X4976373D1*
X5119250Y9446503D1*
X3246000Y9514623D2*
X3388873D1*
X3658750Y9494127D2*
Y9414750D1*
X3690500Y9383000D1*
X3939877D1*
X4039750Y9482873D1*
X4198500D1*
X4631747D1*
X4722377Y9573503D1*
X5246250D1*
X5373250Y9446503D1*
X7537500Y4187500D2*
D15*
Y4101000D1*
D14*
Y4012500D1*
X7512500Y3987500D1*
X7637500Y4187500D2*
D15*
Y4101000D1*
D14*
Y4017500D1*
X7667500Y3987500D1*
X13922750Y9684623D2*
X14065627D1*
X14208500D1*
X13922750D2*
X13890993D1*
X13779873Y9573503D1*
Y9367127D1*
X13843373Y9303627D1*
X15938873D1*
X16081750Y9446503D1*
X14208500Y9514623D2*
X14351373D1*
X14621250Y9494127D2*
Y9414750D1*
X14653000Y9383000D1*
X14902377D1*
X15002250Y9482873D1*
X15161000D1*
X15594247D1*
X15684877Y9573503D1*
X16208750D1*
X16335750Y9446503D1*
X10262500Y2312500D2*
Y2450000D1*
X10125000Y2587500D1*
X9687500D1*
X11887500Y2312500D2*
Y2450000D1*
X11750000Y2587500D1*
X11312500D1*
X13512500Y2312500D2*
Y2475000D1*
X13375000Y2612500D1*
X12962500D1*
X12937500Y2587500D1*
X15125000Y2302500D2*
Y2475000D1*
X15000000Y2600000D1*
X14568250D1*
X14555750Y2587500D1*
X16750000Y2290000D2*
Y2475000D1*
X16637500Y2587500D1*
X16175000D1*
X15437500Y6912500D2*
X15857500D1*
X16337500D1*
X3550000Y6400000D2*
Y7250000D1*
X3500000Y7300000D1*
X2087500Y3157500D2*
Y3325000D1*
Y3157500D2*
X1932500D1*
X1925000Y3150000D1*
X2350123Y8274957D2*
Y7904957D1*
Y8274957D2*
Y8400123D1*
X2387500Y8437500D1*
X1925000Y3150000D2*
X1537500D1*
X1312500Y3375000D1*
Y4975000D1*
X1937500Y5600000D1*
Y6250000D1*
X1350000Y6837500D1*
Y7637500D1*
X7212500Y3270000D2*
X7075000D1*
Y3275000D1*
X7212500Y3450000D2*
Y3270000D1*
X2430123Y7904957D2*
Y8274957D1*
Y7904957D2*
Y7805123D1*
X2187500Y7562500D1*
X2163000D1*
X2150500Y7550000D1*
X7212500Y3270000D2*
X7295000D1*
X7350000Y3325000D1*
X5187500Y6262500D2*
Y6787500D1*
X5075000Y6900000D1*
X4187500D1*
X4025000Y7062500D1*
X3850000D1*
X1637500Y3760000D2*
X1835000D1*
X1837500Y3762500D1*
X2510123Y8274957D2*
Y7904957D1*
Y7697623D1*
X2404500Y7592000D1*
Y7550000D1*
X1637500Y3760000D2*
X1460000D1*
X1437500Y3737500D1*
X2510123Y8274957D2*
Y8464877D1*
X2450000Y8525000D1*
X1500000D1*
X1275000Y8300000D1*
Y8137500D1*
X1437500Y7975000D1*
Y6825000D1*
X1987500Y6275000D1*
Y5562500D1*
X1400000Y4975000D1*
Y3762500D1*
X1412500D1*
X1437500Y3737500D1*
X7445000Y2882500D2*
X7462500D1*
Y3050000D1*
X7500000Y3087500D1*
X7445000Y2680000D2*
Y2882500D1*
X2590123Y7904957D2*
Y8274957D1*
Y7904957D2*
Y7672377D1*
X2658500Y7604000D1*
Y7550000D1*
X3737500Y7175000D2*
Y7150000D1*
X4012500D1*
X4212500Y6950000D1*
X5100000D1*
X5312500Y6737500D1*
Y6262500D1*
X7662500Y3087500D2*
X7500000D1*
X1870123Y8274957D2*
Y7904957D1*
Y7732623D1*
X1775000Y7637500D1*
Y7417500D1*
X1896500Y7296000D1*
X3300000Y6675000D2*
X3112500D1*
X2937500Y6500000D1*
X2062500D1*
X1900000Y6662500D1*
Y7292500D1*
X1896500Y7296000D1*
X1950123Y7904957D2*
Y8274957D1*
Y7904957D2*
Y7724877D1*
X2025000Y7650000D1*
Y7421500D1*
X2150500Y7296000D1*
X2937500Y6675000D2*
X2850000Y6587500D1*
X2087500D1*
X2012500Y6662500D1*
Y6925000D1*
X2150000Y7062500D1*
Y7295500D1*
X2150500Y7296000D1*
X2030123Y8274957D2*
Y7904957D1*
Y7782377D1*
X2112500Y7700000D1*
X2550000Y6875000D2*
Y7150500D1*
X2404500Y7296000D1*
X1817500Y3325000D2*
X1660000D1*
X1637500Y3347500D1*
X1817500Y3325000D2*
X1900000D1*
X1950000Y3375000D1*
Y3462500D1*
X2000000Y3512500D1*
X2085000D1*
X2087500Y3515000D1*
X2710000D1*
X2787500Y3437500D1*
Y3150000D1*
X7212500Y3640000D2*
X7127500D1*
X7075000Y3587500D1*
Y3500000D1*
X7025000Y3450000D1*
X6942500D1*
X6300000Y3150000D2*
Y3325000D1*
X6425000Y3450000D1*
X6942500D1*
X7212500Y3640000D2*
X7500000D1*
X4400000Y2964947D2*
Y2782447D1*
X4687500Y2967447D2*
Y2782447D1*
X2110123Y7904957D2*
Y8274957D1*
Y8377377D1*
X2050000Y8437500D1*
X2225000Y6787500D2*
X2587500D1*
X2662500Y6862500D1*
Y7292000D1*
X2658500Y7296000D1*
X2190123Y8274957D2*
Y7904957D1*
Y8274957D2*
Y8390123D1*
X2237500Y8437500D1*
X2125000Y6687500D2*
X2762500D1*
X2912500Y6837500D1*
Y7296000D1*
X5000000Y7037500D2*
X5142500D1*
Y7175000D2*
X5000000D1*
X5142500Y7312500D2*
X5000000D1*
X1637500Y3537500D2*
X1447500D1*
X1437500Y3547500D1*
X7500000Y3277500D2*
Y3450000D1*
X10262500Y2122500D2*
Y1940000D1*
X11887500D2*
Y2122500D1*
X13512500Y1940000D2*
Y2122500D1*
X15125000Y1940000D2*
Y2112500D1*
X16750000Y1927500D2*
Y2100000D1*
X16337500Y7102500D2*
Y7297500D1*
X3790123Y7904957D2*
Y7697377D1*
X4175000Y7312500D1*
X4830000D1*
X3710123Y7904957D2*
Y7664877D1*
X4200000Y7175000D1*
X4830000D1*
X3630123Y7904957D2*
Y7607377D1*
X4200000Y7037500D1*
X4830000D1*
X4510123Y8274957D2*
Y7904957D1*
Y7752377D1*
X4587500Y7675000D1*
X5200000D1*
X5387500Y7862500D1*
X5887500D1*
X5987500Y7962500D1*
Y8000000D1*
X6000000D1*
X4430123Y7904957D2*
Y8274957D1*
Y7904957D2*
Y7732377D1*
X4550000Y7612500D1*
X5225000D1*
X5412500Y7800000D1*
X6000000D1*
X6200000Y8000000D1*
X4590123Y8274957D2*
Y7904957D1*
X4670123D2*
Y8274957D1*
X6450000Y8000000D2*
D18*
Y8337500D1*
X6275000Y8512500D1*
X4750000D1*
X4662500Y8425000D1*
D49*
X3950123Y7725000D3*
X4150000Y7612500D3*
X1637500Y4075000D3*
X1787500Y2980000D3*
X2227500Y3420000D3*
X7337500Y3545000D3*
X6950000Y3100000D3*
X7112500Y2687500D3*
X7750000Y4387500D3*
X7837500Y3862500D3*
X4312500Y8087500D3*
Y7725000D3*
Y8450000D3*
X5312500Y7450000D3*
Y6900000D3*
X14494250Y9637003D3*
X13922750Y9398877D3*
X14065627D3*
X13922750D3*
X9006750Y9637003D3*
X8435250Y9398877D3*
X8578127D3*
X8435250D3*
X3531750Y9637003D3*
X2960250Y9398877D3*
X3103127D3*
X2960250D3*
X6012500Y5562500D3*
X7850000Y4862500D3*
X4687500Y4375000D3*
X5162500Y5562500D3*
X9133750Y9900837D3*
X9323750Y9906377D3*
X4400000Y4437500D3*
X5525000Y6350000D3*
X7287500Y4812500D3*
X8175000Y5875000D3*
X7287500Y4812500D3*
X14621250Y9900837D3*
X14811250Y9906377D3*
X7275000Y4412500D3*
X5525000Y5862500D3*
X7337500Y4112500D3*
X7275000Y4412500D3*
X7587500Y4800000D3*
X8200000Y5575000D3*
X3658750Y9900837D3*
X3848750Y9906377D3*
X3550000Y6400000D3*
X2387500Y8437500D3*
X1350000Y7637500D3*
X7350000Y3325000D3*
X5187500Y6262500D3*
X3850000Y7062500D3*
X3737500Y7175000D3*
X5312500Y6262500D3*
X7662500Y3087500D3*
X3300000Y6675000D3*
X2937500D3*
X2112500Y7700000D3*
X2550000Y6875000D3*
X2050000Y8437500D3*
X2225000Y6787500D3*
X2237500Y8437500D3*
X2125000Y6687500D3*
X15488100Y3505083D2*
D19*
X16411839D1*
X15488100Y3441917D2*
X16411839D1*
X15488100Y3378750D2*
X16411839D1*
X15488100Y3315583D2*
X16411839D1*
X15488100Y3252417D2*
X16411839D1*
X15488100Y3189250D2*
X16411839D1*
X15488100Y3126083D2*
X16411839D1*
X15488100Y3062917D2*
X16411839D1*
X15488100Y2999750D2*
X16411839D1*
X15488100Y2936583D2*
X16411839D1*
X15488100Y2873417D2*
X16411839D1*
X15488100Y2810250D2*
X16411839D1*
X15488100Y2747083D2*
X16411839D1*
X15488100Y2683917D2*
X16411839D1*
X15488100Y2620750D2*
X16411839D1*
X15488100Y2557583D2*
X16411839D1*
X15488100Y2494417D2*
X16411839D1*
X15488100Y2431250D2*
X16411839D1*
X15488100Y2368083D2*
X16411839D1*
X15513500Y2331750D2*
X16418250D1*
Y3568250D1*
X15481750D1*
Y2331750D1*
X15513500D1*
X13875600Y3492583D2*
X14799339D1*
X13875600Y3429417D2*
X14799339D1*
X13875600Y3366250D2*
X14799339D1*
X13875600Y3303083D2*
X14799339D1*
X13875600Y3239917D2*
X14799339D1*
X13875600Y3176750D2*
X14799339D1*
X13875600Y3113583D2*
X14799339D1*
X13875600Y3050417D2*
X14799339D1*
X13875600Y2987250D2*
X14799339D1*
X13875600Y2924083D2*
X14799339D1*
X13875600Y2860917D2*
X14799339D1*
X13875600Y2797750D2*
X14799339D1*
X13875600Y2734583D2*
X14799339D1*
X13875600Y2671417D2*
X14799339D1*
X13875600Y2608250D2*
X14799339D1*
X13875600Y2545083D2*
X14799339D1*
X13875600Y2481917D2*
X14799339D1*
X13875600Y2418750D2*
X14799339D1*
X13875600Y2355583D2*
X14799339D1*
X13901000Y2319250D2*
X14805750D1*
Y3555750D1*
X13869250D1*
Y2319250D1*
X13901000D1*
X12250600Y3467583D2*
X13174339D1*
X12250600Y3404417D2*
X13174339D1*
X12250600Y3341250D2*
X13174339D1*
X12250600Y3278083D2*
X13174339D1*
X12250600Y3214917D2*
X13174339D1*
X12250600Y3151750D2*
X13174339D1*
X12250600Y3088583D2*
X13174339D1*
X12250600Y3025417D2*
X13174339D1*
X12250600Y2962250D2*
X13174339D1*
X12250600Y2899083D2*
X13174339D1*
X12250600Y2835917D2*
X13174339D1*
X12250600Y2772750D2*
X13174339D1*
X12250600Y2709583D2*
X13174339D1*
X12250600Y2646417D2*
X13174339D1*
X12250600Y2583250D2*
X13174339D1*
X12250600Y2520083D2*
X13174339D1*
X12250600Y2456917D2*
X13174339D1*
X12250600Y2393750D2*
X13174339D1*
X12250600Y2330583D2*
X13174339D1*
X12276000Y2294250D2*
X13180750D1*
Y3530750D1*
X12244250D1*
Y2294250D1*
X12276000D1*
X10638100Y3455083D2*
X11561839D1*
X10638100Y3391917D2*
X11561839D1*
X10638100Y3328750D2*
X11561839D1*
X10638100Y3265583D2*
X11561839D1*
X10638100Y3202417D2*
X11561839D1*
X10638100Y3139250D2*
X11561839D1*
X10638100Y3076083D2*
X11561839D1*
X10638100Y3012917D2*
X11561839D1*
X10638100Y2949750D2*
X11561839D1*
X10638100Y2886583D2*
X11561839D1*
X10638100Y2823417D2*
X11561839D1*
X10638100Y2760250D2*
X11561839D1*
X10638100Y2697083D2*
X11561839D1*
X10638100Y2633917D2*
X11561839D1*
X10638100Y2570750D2*
X11561839D1*
X10638100Y2507583D2*
X11561839D1*
X10638100Y2444417D2*
X11561839D1*
X10638100Y2381250D2*
X11561839D1*
X10638100Y2318083D2*
X11561839D1*
X10663500Y2281750D2*
X11568250D1*
Y3518250D1*
X10631750D1*
Y2281750D1*
X10663500D1*
X9025600Y3455083D2*
X9949339D1*
X9025600Y3391917D2*
X9949339D1*
X9025600Y3328750D2*
X9949339D1*
X9025600Y3265583D2*
X9949339D1*
X9025600Y3202417D2*
X9949339D1*
X9025600Y3139250D2*
X9949339D1*
X9025600Y3076083D2*
X9949339D1*
X9025600Y3012917D2*
X9949339D1*
X9025600Y2949750D2*
X9949339D1*
X9025600Y2886583D2*
X9949339D1*
X9025600Y2823417D2*
X9949339D1*
X9025600Y2760250D2*
X9949339D1*
X9025600Y2697083D2*
X9949339D1*
X9025600Y2633917D2*
X9949339D1*
X9025600Y2570750D2*
X9949339D1*
X9025600Y2507583D2*
X9949339D1*
X9025600Y2444417D2*
X9949339D1*
X9025600Y2381250D2*
X9949339D1*
X9025600Y2318083D2*
X9949339D1*
X9051000Y2281750D2*
X9955750D1*
Y3518250D1*
X9019250D1*
Y2281750D1*
X9051000D1*
X5063100Y3280083D2*
X6736933D1*
X5063100Y3216917D2*
X6736933D1*
X5063100Y3153750D2*
X6736933D1*
X5063100Y3090583D2*
X6736933D1*
X5063100Y3027417D2*
X6736933D1*
X5063100Y2964250D2*
X6736933D1*
X5063100Y2901083D2*
X6736933D1*
X5063100Y2837917D2*
X6736933D1*
X5063100Y2774750D2*
X6736933D1*
X5063100Y2711583D2*
X6736933D1*
X5063100Y2648417D2*
X6736933D1*
X5063100Y2585250D2*
X6736933D1*
X5063100Y2522083D2*
X6736933D1*
X5063100Y2458917D2*
X6736933D1*
X5063100Y2395750D2*
X6736933D1*
X6711500Y3343250D2*
X5056750D1*
Y2369250D1*
X6743250D1*
Y3343250D1*
X6711500D1*
X2363100Y3292583D2*
X4036933D1*
X2363100Y3229417D2*
X4036933D1*
X2363100Y3166250D2*
X4036933D1*
X2363100Y3103083D2*
X4036933D1*
X2363100Y3039917D2*
X4036933D1*
X2363100Y2976750D2*
X4036933D1*
X2363100Y2913583D2*
X4036933D1*
X2363100Y2850417D2*
X4036933D1*
X2363100Y2787250D2*
X4036933D1*
X2363100Y2724083D2*
X4036933D1*
X2363100Y2660917D2*
X4036933D1*
X2363100Y2597750D2*
X4036933D1*
X2363100Y2534583D2*
X4036933D1*
X2363100Y2471417D2*
X4036933D1*
X2363100Y2408250D2*
X4036933D1*
X4011500Y3355750D2*
X2356750D1*
Y2381750D1*
X4043250D1*
Y3355750D1*
X4011500D1*
X3412994Y6067583D2*
X5961874D1*
X3355695Y6004417D2*
X5961874D1*
X3298272Y5941250D2*
X5961874D1*
X3240974Y5878083D2*
X5961874D1*
X3183551Y5814917D2*
X5961874D1*
X3126252Y5751750D2*
X5961874D1*
X3068829Y5688583D2*
X4429689D1*
X3011530Y5625417D2*
X4345477D1*
X2954107Y5562250D2*
X4261265D1*
X2896808Y5499083D2*
X4177053D1*
X2839386Y5435917D2*
X4092841D1*
X2781963Y5372750D2*
X4008505D1*
X2724664Y5309583D2*
X3999451D1*
X2667241Y5246417D2*
X3999451D1*
X2609942Y5183250D2*
X3999451D1*
X2552519Y5120083D2*
X3999451D1*
X2495221Y5056917D2*
X3999451D1*
X2437798Y4993750D2*
X3999451D1*
X2380499Y4930583D2*
X3999451D1*
X2375600Y4867417D2*
X3999451D1*
X2375600Y4804250D2*
X3999451D1*
X2375600Y4741083D2*
X3999451D1*
X2375600Y4677917D2*
X3999451D1*
X2375600Y4614750D2*
X3999451D1*
X2375600Y4551583D2*
X3999451D1*
X2375600Y4488417D2*
X3999451D1*
X2375600Y4425250D2*
X3999451D1*
X2375600Y4362083D2*
X3999451D1*
X2375600Y4298917D2*
X3999451D1*
X2375600Y4235750D2*
X3999451D1*
X2375600Y4172583D2*
X3999451D1*
X2375600Y4109417D2*
X3999451D1*
X2375600Y4046250D2*
X3999451D1*
X2375600Y3983083D2*
X3999451D1*
X2375600Y3919917D2*
X3999451D1*
X2375600Y3856750D2*
X3999451D1*
X2369126Y3806750D2*
X4005750D1*
X4006141Y5354967D1*
X4009210Y5364414D1*
X4015049Y5372451D1*
X4094650Y5432550D1*
X4472658Y5715568D1*
X4482058Y5718780D1*
X4519250Y5719250D1*
X5968250D1*
Y6130750D1*
X3464093D1*
X2369296Y4925284D1*
X2369250Y3806778D1*
X5413032Y5192583D2*
X5961910D1*
X5386243Y5129417D2*
X5961910D1*
X5359330Y5066250D2*
X5961910D1*
X5332541Y5003083D2*
X5961910D1*
X5305752Y4939917D2*
X5961910D1*
X5278963Y4876750D2*
X5990932D1*
X5252050Y4813583D2*
X6092011D1*
X5225261Y4750417D2*
X6505753D1*
X5198472Y4687250D2*
X6607824D1*
X5171558Y4624083D2*
X6709772D1*
X5144769Y4560917D2*
X6736933D1*
X5117980Y4497750D2*
X6736933D1*
X5091191Y4434583D2*
X6736933D1*
X5064278Y4371417D2*
X6736933D1*
X5063100Y4308250D2*
X6736933D1*
X5063100Y4245083D2*
X6736933D1*
X5063100Y4181917D2*
X6736933D1*
X5063100Y4118750D2*
X6736933D1*
X5063100Y4055583D2*
X6736933D1*
X5063100Y3992417D2*
X6736933D1*
X5063100Y3929250D2*
X6736933D1*
X5063100Y3866083D2*
X6736933D1*
X5063100Y3802917D2*
X6736933D1*
X5088500Y3781750D2*
X6743250D1*
Y4607319D1*
X6503343Y4755827D1*
X6195033Y4756141D1*
X6185586Y4759210D1*
X5981112Y4886979D1*
X5974150Y4894065D1*
X5969718Y4902955D1*
X5968283Y4913451D1*
X5968250Y5255750D1*
X5433585D1*
X5056713Y4368451D1*
X5056750Y3781750D1*
X5088500D1*
X6088100Y6430083D2*
X7649443D1*
X6088100Y6366917D2*
X7649443D1*
X6088100Y6303750D2*
X7649443D1*
X6088100Y6240583D2*
X7649443D1*
X6088100Y6177417D2*
X7649443D1*
X6088100Y6114250D2*
X7649443D1*
X6088100Y6051083D2*
X7649443D1*
X6088100Y5987917D2*
X7649443D1*
X6088100Y5924750D2*
X7649443D1*
X6088100Y5861583D2*
X7649443D1*
X6088100Y5798417D2*
X7649443D1*
X7624000Y6493250D2*
X6081750D1*
Y5769250D1*
X7655750D1*
Y6493250D1*
X7624000D1*
X6133058Y5592583D2*
X7649443D1*
X6132190Y5529417D2*
X7649443D1*
X6088100Y5466250D2*
X7649443D1*
X6088100Y5403083D2*
X7649443D1*
X6088100Y5339917D2*
X7649443D1*
X6088100Y5276750D2*
X7649443D1*
X6088100Y5213583D2*
X7649443D1*
X6088100Y5150417D2*
X7649443D1*
X6088100Y5087250D2*
X7649443D1*
X6088100Y5024083D2*
X7649443D1*
X6130246Y5553233D2*
X6127347Y5534928D1*
X6121619Y5517301D1*
X6113205Y5500788D1*
X6102312Y5485794D1*
X6089206Y5472688D1*
X6081712Y5466806D1*
X6081750Y4981750D1*
X7655750D1*
Y5655750D1*
X6084993D1*
X6102312Y5639206D1*
X6113205Y5624212D1*
X6121619Y5607699D1*
X6127347Y5590072D1*
X6130246Y5571767D1*
Y5553233D1*
X9331882Y8017583D2*
X10679595D1*
X9300256Y7954417D2*
X10775093D1*
X9268754Y7891250D2*
X10870467D1*
X9237128Y7828083D2*
X10965965D1*
X9205502Y7764917D2*
X11061463D1*
X9174000Y7701750D2*
X11156961D1*
X9142374Y7638583D2*
X11252459D1*
X9110748Y7575417D2*
X11347833D1*
X9079246Y7512250D2*
X11443331D1*
X9047620Y7449083D2*
X11538829D1*
X9015994Y7385917D2*
X11634327D1*
X8984492Y7322750D2*
X11729825D1*
X8952866Y7259583D2*
X11825199D1*
X8921364Y7196417D2*
X11482026D1*
X11787918D2*
X11920697D1*
X8889738Y7133250D2*
X11398311D1*
X11871634D2*
X12016195D1*
X8858112Y7070083D2*
X11351802D1*
X11918142D2*
X12111693D1*
X8826610Y7006917D2*
X11324889D1*
X11945056D2*
X12207192D1*
X8761622Y6943750D2*
X11312610D1*
X11957334D2*
X12302566D1*
X8621600Y6880583D2*
X11313231D1*
X11956838D2*
X12398064D1*
X8481577Y6817417D2*
X11326749D1*
X11943319D2*
X12493562D1*
X8341555Y6754250D2*
X11355026D1*
X11914918D2*
X12589060D1*
X8201656Y6691083D2*
X8872201D1*
X9222865D2*
X10552223D1*
X10902763D2*
X11403768D1*
X11866177D2*
X12684558D1*
X8061634Y6627917D2*
X8799275D1*
X9295667D2*
X10479297D1*
X10975688D2*
X11493437D1*
X11776508D2*
X12779932D1*
X7921611Y6564750D2*
X8757480D1*
X9337463D2*
X10437501D1*
X11017484D2*
X12875430D1*
X7788100Y6501583D2*
X8733915D1*
X9361151D2*
X10413813D1*
X11041173D2*
X12970928D1*
X7788100Y6438417D2*
X8724241D1*
X9370701D2*
X10404263D1*
X11050723D2*
X13036908D1*
X7788100Y6375250D2*
X8727342D1*
X9367600D2*
X10407363D1*
X11047622D2*
X13036908D1*
X7788100Y6312083D2*
X8743713D1*
X9351353D2*
X10423610D1*
X11031375D2*
X13036908D1*
X7788100Y6248917D2*
X8775587D1*
X9319479D2*
X10455484D1*
X10999501D2*
X13036908D1*
X7788100Y6185750D2*
X8829909D1*
X9265157D2*
X10509931D1*
X10945179D2*
X13036908D1*
X7788100Y6122583D2*
X8937562D1*
X9157505D2*
X10617583D1*
X10837402D2*
X13036908D1*
X7788100Y6059417D2*
X13036908D1*
X8148698Y5996250D2*
X9019417D1*
X10767949D2*
X13036908D1*
X8284132Y5933083D2*
X8927144D1*
X10860099D2*
X13036908D1*
X8299387Y5869917D2*
X8834746D1*
X10952248D2*
X13036908D1*
X8277683Y5806750D2*
X8742473D1*
X11044273D2*
X13036908D1*
X8148698Y5743583D2*
X8650199D1*
X11136423D2*
X13036908D1*
X7788100Y5680417D2*
X8557802D1*
X11175614D2*
X13036908D1*
X7788100Y5617250D2*
X8465528D1*
X11175614D2*
X13036908D1*
X7788100Y5554083D2*
X8373255D1*
X11175614D2*
X13036908D1*
X7788100Y5490917D2*
X8280858D1*
X11189877D2*
X13036908D1*
X7788100Y5427750D2*
X8188584D1*
X11267392D2*
X13033560D1*
X11344906Y5364583D2*
X12934837D1*
X11422545Y5301417D2*
X12836238D1*
X11043832Y6397604D2*
X11040903Y6372862D1*
X11036043Y6348425D1*
X11029280Y6324446D1*
X11020656Y6301071D1*
X11010225Y6278444D1*
X10998051Y6256706D1*
X10984209Y6235990D1*
X10968784Y6216424D1*
X10951872Y6198128D1*
X10933576Y6181216D1*
X10914010Y6165791D1*
X10893294Y6151949D1*
X10871556Y6139775D1*
X10848929Y6129344D1*
X10825554Y6120720D1*
X10801575Y6113957D1*
X10777138Y6109097D1*
X10752396Y6106168D1*
X10727500Y6105190D1*
X10702604Y6106168D1*
X10677862Y6109097D1*
X10653425Y6113957D1*
X10629446Y6120720D1*
X10606071Y6129344D1*
X10583444Y6139775D1*
X10561706Y6151949D1*
X10540990Y6165791D1*
X10521424Y6181216D1*
X10503128Y6198128D1*
X10486216Y6216424D1*
X10470791Y6235990D1*
X10456949Y6256706D1*
X10444775Y6278444D1*
X10434344Y6301071D1*
X10425720Y6324446D1*
X10418957Y6348425D1*
X10414097Y6372862D1*
X10411168Y6397604D1*
X10410190Y6422500D1*
X10411168Y6447396D1*
X10414097Y6472138D1*
X10418957Y6496575D1*
X10425720Y6520554D1*
X10434344Y6543929D1*
X10444775Y6566556D1*
X10456949Y6588294D1*
X10470791Y6609010D1*
X10486216Y6628576D1*
X10503128Y6646872D1*
X10521424Y6663784D1*
X10540990Y6679209D1*
X10561706Y6693051D1*
X10583444Y6705225D1*
X10606071Y6715656D1*
X10629446Y6724280D1*
X10653425Y6731043D1*
X10677862Y6735903D1*
X10702604Y6738832D1*
X10727500Y6739810D1*
X10752396Y6738832D1*
X10777138Y6735903D1*
X10801575Y6731043D1*
X10825554Y6724280D1*
X10848929Y6715656D1*
X10871556Y6705225D1*
X10893294Y6693051D1*
X10914010Y6679209D1*
X10933576Y6663784D1*
X10951872Y6646872D1*
X10968784Y6628576D1*
X10984209Y6609010D1*
X10998051Y6588294D1*
X11010225Y6566556D1*
X11020656Y6543929D1*
X11029280Y6520554D1*
X11036043Y6496575D1*
X11040903Y6472138D1*
X11043832Y6447396D1*
X11044810Y6422500D1*
X11043832Y6397604D1*
X9363832D2*
X9360903Y6372862D1*
X9356043Y6348425D1*
X9349280Y6324446D1*
X9340656Y6301071D1*
X9330225Y6278444D1*
X9318051Y6256706D1*
X9304209Y6235990D1*
X9288784Y6216424D1*
X9271872Y6198128D1*
X9253576Y6181216D1*
X9234010Y6165791D1*
X9213294Y6151949D1*
X9191556Y6139775D1*
X9168929Y6129344D1*
X9145554Y6120720D1*
X9121575Y6113957D1*
X9097138Y6109097D1*
X9072396Y6106168D1*
X9047500Y6105190D1*
X9022604Y6106168D1*
X8997862Y6109097D1*
X8973425Y6113957D1*
X8949446Y6120720D1*
X8926071Y6129344D1*
X8903444Y6139775D1*
X8881706Y6151949D1*
X8860990Y6165791D1*
X8841424Y6181216D1*
X8823128Y6198128D1*
X8806216Y6216424D1*
X8790791Y6235990D1*
X8776949Y6256706D1*
X8764775Y6278444D1*
X8754344Y6301071D1*
X8745720Y6324446D1*
X8738957Y6348425D1*
X8734097Y6372862D1*
X8731168Y6397604D1*
X8730190Y6422500D1*
X8731168Y6447396D1*
X8734097Y6472138D1*
X8738957Y6496575D1*
X8745720Y6520554D1*
X8754344Y6543929D1*
X8764775Y6566556D1*
X8776949Y6588294D1*
X8790791Y6609010D1*
X8806216Y6628576D1*
X8823128Y6646872D1*
X8841424Y6663784D1*
X8860990Y6679209D1*
X8881706Y6693051D1*
X8903444Y6705225D1*
X8926071Y6715656D1*
X8949446Y6724280D1*
X8973425Y6731043D1*
X8997862Y6735903D1*
X9022604Y6738832D1*
X9047500Y6739810D1*
X9072396Y6738832D1*
X9097138Y6735903D1*
X9121575Y6731043D1*
X9145554Y6724280D1*
X9168929Y6715656D1*
X9191556Y6705225D1*
X9213294Y6693051D1*
X9234010Y6679209D1*
X9253576Y6663784D1*
X9271872Y6646872D1*
X9288784Y6628576D1*
X9304209Y6609010D1*
X9318051Y6588294D1*
X9330225Y6566556D1*
X9340656Y6543929D1*
X9349280Y6520554D1*
X9356043Y6496575D1*
X9360903Y6472138D1*
X9363832Y6447396D1*
X9364810Y6422500D1*
X9363832Y6397604D1*
X7781679Y6017310D2*
X8142310D1*
Y5988412D1*
X8156524Y5991656D1*
X8175000Y5993110D1*
X8193476Y5991656D1*
X8211498Y5987329D1*
X8228621Y5980237D1*
X8244423Y5970553D1*
X8258516Y5958516D1*
X8270553Y5944423D1*
X8280237Y5928621D1*
X8287329Y5911498D1*
X8291656Y5893476D1*
X8293110Y5875000D1*
X8291656Y5856524D1*
X8287329Y5838502D1*
X8280237Y5821379D1*
X8270553Y5805577D1*
X8258516Y5791484D1*
X8244423Y5779447D1*
X8228621Y5769763D1*
X8211498Y5762671D1*
X8193476Y5758344D1*
X8175000Y5756890D1*
X8156524Y5758344D1*
X8142302Y5761599D1*
X8142310Y5732690D1*
X7781774D1*
X7781750Y5381750D1*
X8127651D1*
X9073891Y6028686D1*
X9083422Y6031487D1*
X9214500Y6031750D1*
X10704967Y6031359D1*
X10714414Y6028290D1*
X10822696Y5954363D1*
X11159331Y5723054D1*
X11165387Y5715180D1*
X11168712Y5705819D1*
X11169250Y5700000D1*
Y5502539D1*
X11486363Y5244197D1*
X12753271Y5244250D1*
X13043344Y5429937D1*
X13043250Y6457894D1*
X10590401Y8080781D1*
X9357108Y8080750D1*
X8800827Y6969033D1*
X8793857Y6961956D1*
X8788058Y6958560D1*
X7781818Y6504524D1*
X7781750Y6017372D1*
X11951332Y6890104D2*
X11948403Y6865362D1*
X11943543Y6840925D1*
X11936780Y6816946D1*
X11928156Y6793571D1*
X11917725Y6770944D1*
X11905551Y6749206D1*
X11891709Y6728490D1*
X11876284Y6708924D1*
X11859372Y6690628D1*
X11841076Y6673716D1*
X11821510Y6658291D1*
X11800794Y6644449D1*
X11779056Y6632275D1*
X11756429Y6621844D1*
X11733054Y6613220D1*
X11709075Y6606457D1*
X11684638Y6601597D1*
X11659896Y6598668D1*
X11635000Y6597690D1*
X11610104Y6598668D1*
X11585362Y6601597D1*
X11560925Y6606457D1*
X11536946Y6613220D1*
X11513571Y6621844D1*
X11490944Y6632275D1*
X11469206Y6644449D1*
X11448490Y6658291D1*
X11428924Y6673716D1*
X11410628Y6690628D1*
X11393716Y6708924D1*
X11378291Y6728490D1*
X11364449Y6749206D1*
X11352275Y6770944D1*
X11341844Y6793571D1*
X11333220Y6816946D1*
X11326457Y6840925D1*
X11321597Y6865362D1*
X11318668Y6890104D1*
X11317690Y6915000D1*
X11318668Y6939896D1*
X11321597Y6964638D1*
X11326457Y6989075D1*
X11333220Y7013054D1*
X11341844Y7036429D1*
X11352275Y7059056D1*
X11364449Y7080794D1*
X11378291Y7101510D1*
X11393716Y7121076D1*
X11410628Y7139372D1*
X11428924Y7156284D1*
X11448490Y7171709D1*
X11469206Y7185551D1*
X11490944Y7197725D1*
X11513571Y7208156D1*
X11536946Y7216780D1*
X11560925Y7223543D1*
X11585362Y7228403D1*
X11610104Y7231332D1*
X11635000Y7232310D1*
X11659896Y7231332D1*
X11684638Y7228403D1*
X11709075Y7223543D1*
X11733054Y7216780D1*
X11756429Y7208156D1*
X11779056Y7197725D1*
X11800794Y7185551D1*
X11821510Y7171709D1*
X11841076Y7156284D1*
X11859372Y7139372D1*
X11876284Y7121076D1*
X11891709Y7101510D1*
X11905551Y7080794D1*
X11917725Y7059056D1*
X11928156Y7036429D1*
X11936780Y7013054D1*
X11943543Y6989075D1*
X11948403Y6964638D1*
X11951332Y6939896D1*
X11952310Y6915000D1*
X11951332Y6890104D1*
X9073822Y5817583D2*
X10685085D1*
X8981549Y5754417D2*
X10774010D1*
X8889151Y5691250D2*
X10863059D1*
X8796878Y5628083D2*
X10952108D1*
X8713100Y5564917D2*
X10961905D1*
X8713100Y5501750D2*
X10961905D1*
X8713100Y5438583D2*
X10961905D1*
X8713100Y5375417D2*
X11020817D1*
X8713100Y5312250D2*
X11100440D1*
X8713100Y5249083D2*
X11180063D1*
X8713100Y5185917D2*
X11259810D1*
X8713100Y5122750D2*
X11339433D1*
X8713100Y5059583D2*
X14671570D1*
X8713100Y4996417D2*
X14749457D1*
X8713100Y4933250D2*
X14749457D1*
X8713100Y4870083D2*
X14749457D1*
X8713100Y4806917D2*
X14749457D1*
X8713100Y4743750D2*
X14749457D1*
X8713100Y4680583D2*
X14749457D1*
X8713100Y4617417D2*
X14749457D1*
X8737099Y4554250D2*
X14749457D1*
X8805559Y4491083D2*
X14749457D1*
X8873896Y4427917D2*
X14749457D1*
X8942357Y4364750D2*
X14694639D1*
X9010818Y4301583D2*
X14606210D1*
X10602454Y5880750D2*
X9159813D1*
X8706809Y5570793D1*
X8706750Y4576337D1*
X9012462Y4294206D1*
X14602451Y4294250D1*
X14755853Y4403913D1*
X14755750Y5018407D1*
X14566990Y5118315D1*
X11357533Y5118641D1*
X11348086Y5121710D1*
X11342771Y5125124D1*
X10976622Y5416016D1*
X10971127Y5424292D1*
X10968459Y5433861D1*
X10968250Y5621179D1*
X10602428Y5880715D1*
X7325600Y8455083D2*
X16886951D1*
X7325600Y8391917D2*
X16886951D1*
X7325600Y8328750D2*
X16886951D1*
X7325600Y8265583D2*
X16886951D1*
X7325600Y8202417D2*
X9171825D1*
X11183659D2*
X16886951D1*
X7325600Y8139250D2*
X9015928D1*
X11328022D2*
X16886951D1*
X7327398Y8076083D2*
X8860154D1*
X11472386D2*
X16886951D1*
X7404541Y8012917D2*
X8704381D1*
X11513065D2*
X16886951D1*
X7481808Y7949750D2*
X8548483D1*
X11513065D2*
X16886951D1*
X7558950Y7886583D2*
X8392710D1*
X11513065D2*
X13596733D1*
X15940578D2*
X16886951D1*
X11513065Y7823417D2*
X13530381D1*
X16090894D2*
X16886951D1*
X11513065Y7760250D2*
X13464152D1*
X16241335D2*
X16886951D1*
X11524600Y7697083D2*
X13397924D1*
X16391775D2*
X16886951D1*
X11620594Y7633917D2*
X13331695D1*
X11716588Y7570750D2*
X13265467D1*
X11812582Y7507583D2*
X13199238D1*
X11908576Y7444417D2*
X13132886D1*
X7319250Y8486500D2*
Y8077595D1*
X7573783Y7869292D1*
X8356421Y7869250D1*
X9280321Y8243428D1*
X9287500Y8244250D1*
X11079967Y8243859D1*
X11087726Y8241588D1*
X11492120Y8064239D1*
X11499545Y8057640D1*
X11504567Y8049070D1*
X11506695Y8039367D1*
X11506750Y7704497D1*
X11959642Y7406662D1*
X13099779Y7406750D1*
X13631955Y7913623D1*
X13640910Y7917921D1*
X13651135Y7919217D1*
X15854967Y7918859D1*
X15862295Y7916773D1*
X16481479Y7656716D1*
X16893250Y7656750D1*
Y8518250D1*
X7319250D1*
Y8486500D1*
X13988100Y7092583D2*
X16099363D1*
X13988100Y7029417D2*
X16099363D1*
X13988100Y6966250D2*
X16099363D1*
X13988100Y6903083D2*
X16099363D1*
X13988100Y6839917D2*
X16099363D1*
X13988100Y6776750D2*
X16099363D1*
X13988100Y6713583D2*
X16099363D1*
X13988100Y6650417D2*
X16099363D1*
X16074000Y7155750D2*
X13981750D1*
Y6619250D1*
X16105750D1*
Y7155750D1*
X16074000D1*
X4602770Y8380083D2*
X4686933D1*
X4602770Y8316917D2*
X4686933D1*
X4602770Y8253750D2*
X4664236D1*
X4602770Y8190583D2*
X4646489D1*
X4600600Y8127417D2*
X4658655D1*
X4600600Y8064250D2*
X4686933D1*
X4602770Y8001083D2*
X4686933D1*
X4602770Y7937917D2*
X4686933D1*
X4602770Y7874750D2*
X4686933D1*
X4602770Y7811583D2*
X4686933D1*
X4594212Y8417267D2*
X4596433D1*
Y8132647D1*
X4594325D1*
X4594250Y8047243D1*
X4596433Y8047267D1*
Y7794135D1*
X4693250Y7794250D1*
Y8085581D1*
X4679992Y8101309D1*
X4668324Y8120349D1*
X4659778Y8140980D1*
X4654565Y8162694D1*
X4652813Y8184957D1*
X4654565Y8207219D1*
X4659778Y8228933D1*
X4668324Y8249564D1*
X4679992Y8268604D1*
X4693280Y8284271D1*
X4693250Y8443250D1*
X4594250D1*
Y8417329D1*
X4275600Y8430083D2*
X4349406D1*
X4282731Y8366917D2*
X4337500D1*
X4282731Y8303750D2*
X4337500D1*
X4282731Y8240583D2*
X4337500D1*
X4282731Y8177417D2*
X4337500D1*
X4275600Y8114250D2*
X4339981D1*
X4275600Y8051083D2*
X4339981D1*
X4282731Y7987917D2*
X4337500D1*
X4282731Y7924750D2*
X4337500D1*
X4282731Y7861583D2*
X4337500D1*
X4282731Y7798417D2*
X4337500D1*
X4280251Y7735250D2*
X4339981D1*
X4280251Y7672083D2*
X4349406D1*
X4346360Y8132647D2*
X4343813D1*
Y8417267D1*
X4355844D1*
X4355750Y8493250D1*
X4269250D1*
Y8417224D1*
X4276433Y8417267D1*
Y8132647D1*
X4269116D1*
X4269250Y8047386D1*
X4276433Y8047267D1*
Y7762647D1*
X4273829D1*
X4273933Y7656736D1*
X4355750Y7656750D1*
X4355448Y7694328D1*
X4348629Y7712812D1*
X4346313Y7732377D1*
Y7762762D1*
X4343813Y7762647D1*
Y8047267D1*
X4346418D1*
X4346313Y8132540D1*
X15567165Y5580083D2*
X16286327D1*
X15523757Y5516917D2*
X16332712D1*
X15488100Y5453750D2*
X16361858D1*
X15488100Y5390583D2*
X16361858D1*
X15488100Y5327417D2*
X16361858D1*
X15488100Y5264250D2*
X16361858D1*
X15488100Y5201083D2*
X16361858D1*
X15488100Y5137917D2*
X16361858D1*
X15488100Y5074750D2*
X16361858D1*
X15488100Y5011583D2*
X16361858D1*
X15488100Y4948417D2*
X16361858D1*
X15488100Y4885250D2*
X16361858D1*
X15488100Y4822083D2*
X16361858D1*
X15488100Y4758917D2*
X16361858D1*
X15488100Y4695750D2*
X16361858D1*
X15488100Y4632583D2*
X16361858D1*
X15488100Y4569417D2*
X16361858D1*
X15517308Y4506250D2*
X16343006D1*
X15576219Y4443083D2*
X16300838D1*
X15635130Y4379917D2*
X16258794D1*
X15604178Y5643216D2*
X15481731Y5465112D1*
X15481750Y4537454D1*
X15638819Y4369226D1*
X16258140Y4369250D1*
X16368218Y4534566D1*
X16368250Y5477128D1*
X16246413Y5643247D1*
X15604060Y5643250D1*
X2807850Y10637460D2*
X3525462D1*
X2807850Y10574293D2*
X3525462D1*
X2807850Y10511127D2*
X3525462D1*
X2807850Y10447960D2*
X3525462D1*
X2807850Y10384793D2*
X3525462D1*
X2807850Y10321627D2*
X3525462D1*
X2807850Y10258460D2*
X3525462D1*
X2807850Y10195293D2*
X3525462D1*
X2807850Y10132127D2*
X3525462D1*
X2807850Y10068960D2*
X3525462D1*
X2807850Y10005793D2*
X3525462D1*
X2807850Y9942627D2*
X3525462D1*
X2807850Y9879460D2*
X3525462D1*
X3500000Y10700627D2*
X2801500D1*
Y9827500D1*
X3531750D1*
Y10700627D1*
X3500000D1*
X3982600Y10637460D2*
X4731962D1*
X3982600Y10574293D2*
X4731962D1*
X3982600Y10511127D2*
X4731962D1*
X3982600Y10447960D2*
X4731962D1*
X3982600Y10384793D2*
X4731962D1*
X3982600Y10321627D2*
X4731962D1*
X3982600Y10258460D2*
X4731962D1*
X3982600Y10195293D2*
X4731962D1*
X3982600Y10132127D2*
X4731962D1*
X3982600Y10068960D2*
X4731962D1*
X3982600Y10005793D2*
X4731962D1*
X3982600Y9942627D2*
X4731962D1*
X3982600Y9879460D2*
X4731962D1*
X4706500Y10700627D2*
X3976250D1*
Y9827500D1*
X4738250D1*
Y10700627D1*
X4706500D1*
X1405519Y10620583D2*
X2696182D1*
X3637073D2*
X3870932D1*
X4843573D2*
X6182481D1*
X6866519D2*
X8171196D1*
X9112088D2*
X9345946D1*
X10318588D2*
X11611731D1*
X12391019D2*
X13658613D1*
X14599629D2*
X14833363D1*
X15806129D2*
X17104481D1*
X1405519Y10557417D2*
X2696182D1*
X3637073D2*
X3870932D1*
X4843573D2*
X6182481D1*
X6866519D2*
X8171196D1*
X9112088D2*
X9345946D1*
X10318588D2*
X11611731D1*
X12391019D2*
X13658613D1*
X14599629D2*
X14833363D1*
X15806129D2*
X17104481D1*
X1405519Y10494250D2*
X1610481D1*
X1834020D2*
X2696182D1*
X3637073D2*
X3870932D1*
X4843573D2*
X5723718D1*
X5911291D2*
X6182481D1*
X6866519D2*
X7085495D1*
X7308911D2*
X8171196D1*
X9112088D2*
X9345946D1*
X10318588D2*
X11198733D1*
X11386306D2*
X11611731D1*
X12391019D2*
X12573036D1*
X12796452D2*
X13658613D1*
X14599629D2*
X14833363D1*
X15806129D2*
X16686150D1*
X16873847D2*
X17104481D1*
X1405519Y10431083D2*
X1524284D1*
X1920217D2*
X2696182D1*
X3637073D2*
X3870932D1*
X4843573D2*
X5626235D1*
X6008773D2*
X6182481D1*
X6866519D2*
X6999175D1*
X7395231D2*
X8171196D1*
X9112088D2*
X9345946D1*
X10318588D2*
X11101250D1*
X11483788D2*
X11611731D1*
X12391019D2*
X12486716D1*
X12882772D2*
X13658613D1*
X14599629D2*
X14833363D1*
X15806129D2*
X16588667D1*
X16971329D2*
X17104481D1*
X1405519Y10367917D2*
X1482736D1*
X1961765D2*
X2696182D1*
X3637073D2*
X3870932D1*
X4843573D2*
X5581463D1*
X6053546D2*
X6182481D1*
X6866519D2*
X6957627D1*
X7436779D2*
X8171196D1*
X9112088D2*
X9345946D1*
X10318588D2*
X11056478D1*
X11528560D2*
X11611731D1*
X12391019D2*
X12445168D1*
X12924320D2*
X13658613D1*
X14599629D2*
X14833363D1*
X15806129D2*
X16543895D1*
X17016101D2*
X17104481D1*
X1405519Y10304750D2*
X1462769D1*
X1981732D2*
X2696182D1*
X3637073D2*
X3870932D1*
X4843573D2*
X5559387D1*
X6075622D2*
X6182481D1*
X6866519D2*
X6937783D1*
X7456747D2*
X8171196D1*
X9112088D2*
X9345946D1*
X10318588D2*
X11034401D1*
X11550513D2*
X11611731D1*
X12391019D2*
X12425324D1*
X12944164D2*
X13658613D1*
X14599629D2*
X14833363D1*
X15806129D2*
X16521942D1*
X17038054D2*
X17104481D1*
X1405519Y10241583D2*
X1459420D1*
X1985081D2*
X2696182D1*
X3637073D2*
X3870932D1*
X4843573D2*
X5554302D1*
X6080707D2*
X6182481D1*
X6866519D2*
X6934435D1*
X7460096D2*
X8171196D1*
X9112088D2*
X9345946D1*
X10318588D2*
X11029317D1*
X11555722D2*
X11611731D1*
X12391019D2*
X12421968D1*
X12947513D2*
X13658613D1*
X14599629D2*
X14833363D1*
X15806129D2*
X16516858D1*
X17043263D2*
X17104481D1*
X1405519Y10178417D2*
X1472070D1*
X1972431D2*
X2696182D1*
X3637073D2*
X3870932D1*
X4843573D2*
X5564968D1*
X6070041D2*
X6182481D1*
X6866519D2*
X6946961D1*
X7447445D2*
X8171196D1*
X9112088D2*
X9345946D1*
X10318588D2*
X11039983D1*
X11545056D2*
X11611731D1*
X12391019D2*
X12434502D1*
X12934986D2*
X13658613D1*
X14599629D2*
X14833363D1*
X15806129D2*
X16527524D1*
X17032473D2*
X17104481D1*
X1405519Y10115250D2*
X1503324D1*
X1941177D2*
X2696182D1*
X3686310D2*
X3821694D1*
X4843573D2*
X5593741D1*
X6041267D2*
X6182481D1*
X6866519D2*
X6978215D1*
X7416191D2*
X8171196D1*
X9161325D2*
X9296709D1*
X10318588D2*
X11068756D1*
X11516282D2*
X11611731D1*
X12391019D2*
X12465756D1*
X12903732D2*
X13658613D1*
X14648742D2*
X14784250D1*
X15806129D2*
X16556297D1*
X17003699D2*
X17104481D1*
X1405519Y10052083D2*
X1564344D1*
X1880157D2*
X2696182D1*
X3741625D2*
X3766202D1*
X4843573D2*
X5650172D1*
X5984837D2*
X6182481D1*
X6866519D2*
X7039358D1*
X7355172D2*
X8171196D1*
X9216640D2*
X9241053D1*
X10318588D2*
X11125187D1*
X11459851D2*
X11611731D1*
X12391019D2*
X12526900D1*
X12842589D2*
X13658613D1*
X14704057D2*
X14728596D1*
X15806129D2*
X16612604D1*
X16947392D2*
X17104481D1*
X1405519Y9988917D2*
X2696182D1*
X4843573D2*
X6182481D1*
X6866519D2*
X8171196D1*
X10318588D2*
X11611731D1*
X12391019D2*
X13658613D1*
X15806129D2*
X17104481D1*
X1405519Y9925750D2*
X2696182D1*
X4843573D2*
X6182481D1*
X6866519D2*
X8171196D1*
X10318588D2*
X11611731D1*
X12391019D2*
X13658613D1*
X15806129D2*
X17104481D1*
X1405519Y9862583D2*
X2696182D1*
X4843573D2*
X6182481D1*
X6866519D2*
X8171196D1*
X10318588D2*
X11611731D1*
X12391019D2*
X13658613D1*
X15806129D2*
X17104481D1*
X1405519Y9799417D2*
X2696182D1*
X4843573D2*
X6182481D1*
X6866519D2*
X8171196D1*
X10318588D2*
X11611731D1*
X12391019D2*
X13658613D1*
X15806129D2*
X17104481D1*
X1405519Y9736250D2*
X2732025D1*
X4807730D2*
X6182481D1*
X6866519D2*
X8207039D1*
X10282745D2*
X11611731D1*
X12391019D2*
X13694580D1*
X15770162D2*
X17104481D1*
X1405519Y9673083D2*
X2792176D1*
X3512554D2*
X3555168D1*
X3952341D2*
X6182481D1*
X6866519D2*
X8267191D1*
X8987568D2*
X9030059D1*
X9427355D2*
X11611731D1*
X12391019D2*
X13754608D1*
X14474985D2*
X14517706D1*
X14914896D2*
X17104481D1*
X1405519Y9609917D2*
X2735621D1*
X3512554D2*
X3555168D1*
X3952341D2*
X4634048D1*
X5334582D2*
X6182481D1*
X6866519D2*
X8210636D1*
X8987568D2*
X9030059D1*
X9427355D2*
X10108939D1*
X10809597D2*
X11611731D1*
X12391019D2*
X13698053D1*
X14474985D2*
X14517706D1*
X14914896D2*
X15596480D1*
X16297138D2*
X17104481D1*
X1405519Y9546750D2*
X2727312D1*
X2915381D2*
X3122326D1*
X3512554D2*
X3555168D1*
X5748200D2*
X6182481D1*
X6866519D2*
X8202326D1*
X8390395D2*
X8597341D1*
X8987568D2*
X9030059D1*
X11223215D2*
X11611731D1*
X12391019D2*
X13689743D1*
X13877936D2*
X14084882D1*
X14474985D2*
X14517706D1*
X16710756D2*
X17104481D1*
X1405519Y9483583D2*
X2727312D1*
X2907443D2*
X3122326D1*
X3512554D2*
X3555168D1*
X4757253D2*
X4965191D1*
X5781314D2*
X6182481D1*
X6866519D2*
X8202326D1*
X8382458D2*
X8597341D1*
X8987568D2*
X9030059D1*
X10232267D2*
X10440205D1*
X11256329D2*
X11611731D1*
X12391019D2*
X13689743D1*
X13869999D2*
X14084882D1*
X14474985D2*
X14517706D1*
X15719808D2*
X15927746D1*
X16743746D2*
X17104481D1*
X1405519Y9420417D2*
X2727312D1*
X2907443D2*
X3122326D1*
X3512554D2*
X3555168D1*
X4693877D2*
X4962834D1*
X5783671D2*
X6182481D1*
X6866519D2*
X8202326D1*
X8382458D2*
X8597341D1*
X8987568D2*
X9030059D1*
X10168892D2*
X10437849D1*
X11258685D2*
X11611731D1*
X12391019D2*
X13689743D1*
X13869999D2*
X14084882D1*
X14474985D2*
X14517706D1*
X15656433D2*
X15925390D1*
X16746102D2*
X17104481D1*
X1405519Y9357250D2*
X2727808D1*
X5757006D2*
X6182481D1*
X6866519D2*
X8202822D1*
X11232020D2*
X11611731D1*
X12391019D2*
X13690363D1*
X16719437D2*
X17104481D1*
X3077540Y9562421D2*
X2924619Y9562333D1*
X2901184Y9538817D1*
X2901163Y9401731D1*
X2944373Y9387417D1*
X3561390D1*
X3561460Y9616416D1*
X3735465D1*
X3710109Y9641771D1*
X3561461Y9641836D1*
Y9728528D1*
X3506077Y9728460D1*
X3506164Y9392333D1*
X3128710D1*
Y9562457D1*
X2985837D1*
X2842960Y9717487D2*
Y9728401D1*
X2764470Y9728667D1*
X2748956Y9731753D1*
X2734591Y9738376D1*
X2722169Y9748169D1*
X2712376Y9760591D1*
X2705753Y9774956D1*
X2702667Y9790470D1*
X2702460Y10335500D1*
Y10683882D1*
X1399167Y10683750D1*
Y9304981D1*
X2761257Y9304917D1*
X2749586Y9317876D1*
X2739961Y9335062D1*
X2734615Y9354019D1*
X2733583Y9367127D1*
X2733842Y9580077D1*
X2737684Y9599396D1*
X2745931Y9617284D1*
X2758125Y9632752D1*
X2758748Y9633328D1*
X2842929Y9717556D1*
X3946149Y9605163D2*
X4315790D1*
Y9566592D1*
X4596987Y9566664D1*
X4667959Y9637218D1*
X4684337Y9648161D1*
X4702816Y9654979D1*
X4722377Y9657294D1*
X4723224Y9657260D1*
X5252824Y9657035D1*
X5272143Y9653193D1*
X5290030Y9644946D1*
X5305499Y9632752D1*
X5306074Y9632129D1*
X5342595Y9595656D1*
X5361301Y9598324D1*
X5385199D1*
X5408801Y9594586D1*
X5431529Y9587201D1*
X5452821Y9576352D1*
X5472154Y9562306D1*
X5489052Y9545408D1*
X5500166Y9530463D1*
X5511448Y9545408D1*
X5528346Y9562306D1*
X5547679Y9576352D1*
X5568971Y9587201D1*
X5591699Y9594586D1*
X5615301Y9598324D1*
X5639199D1*
X5662801Y9594586D1*
X5685529Y9587201D1*
X5706821Y9576352D1*
X5726154Y9562306D1*
X5743052Y9545408D1*
X5757099Y9526075D1*
X5767948Y9504782D1*
X5775332Y9482055D1*
X5779071Y9458452D1*
Y9434555D1*
X5775332Y9410952D1*
X5767948Y9388224D1*
X5757099Y9366932D1*
X5743052Y9347599D1*
X5726154Y9330701D1*
X5706821Y9316655D1*
X5683031Y9304884D1*
X6188769Y9304917D1*
X6188833Y10683874D1*
X4837161Y10683750D1*
X4837083Y9790470D1*
X4833997Y9774956D1*
X4827374Y9760591D1*
X4817581Y9748168D1*
X4805159Y9738375D1*
X4790794Y9731753D1*
X4775280Y9728667D1*
X4230250Y9728460D1*
X3946041Y9727666D1*
Y9641836D1*
X3930290D1*
X3932782Y9627701D1*
X3933040Y9616538D1*
X3946040Y9616416D1*
Y9605130D1*
X3932782Y9627701D1*
X3933040Y9621127D1*
X1978541Y10239579D2*
X1972230Y10199735D1*
X1959764Y10161368D1*
X1941450Y10125424D1*
X1917738Y10092788D1*
X1889212Y10064262D1*
X1856576Y10040550D1*
X1820632Y10022236D1*
X1782265Y10009770D1*
X1742421Y10003459D1*
X1702079D1*
X1662235Y10009770D1*
X1623868Y10022236D1*
X1587924Y10040550D1*
X1555288Y10064262D1*
X1526762Y10092788D1*
X1503050Y10125424D1*
X1484736Y10161368D1*
X1472270Y10199735D1*
X1465959Y10239579D1*
Y10279921D1*
X1472270Y10319765D1*
X1484736Y10358132D1*
X1503050Y10394076D1*
X1526762Y10426712D1*
X1555288Y10455238D1*
X1587924Y10478950D1*
X1623868Y10497264D1*
X1662235Y10509730D1*
X1702079Y10516041D1*
X1742421D1*
X1782265Y10509730D1*
X1820632Y10497264D1*
X1856576Y10478950D1*
X1889212Y10455238D1*
X1917738Y10426712D1*
X1941450Y10394076D1*
X1959764Y10358132D1*
X1972230Y10319765D1*
X1978541Y10279921D1*
Y10239579D1*
X6073791Y10232329D2*
X6067480Y10192485D1*
X6055014Y10154118D1*
X6036700Y10118174D1*
X6012988Y10085538D1*
X5984462Y10057012D1*
X5951826Y10033300D1*
X5915882Y10014986D1*
X5877515Y10002520D1*
X5837671Y9996209D1*
X5797329D1*
X5757485Y10002520D1*
X5719118Y10014986D1*
X5683174Y10033300D1*
X5650538Y10057012D1*
X5622012Y10085538D1*
X5598300Y10118174D1*
X5579986Y10154118D1*
X5567520Y10192485D1*
X5561209Y10232329D1*
Y10272671D1*
X5567520Y10312515D1*
X5579986Y10350882D1*
X5598300Y10386826D1*
X5622012Y10419462D1*
X5650538Y10447988D1*
X5683174Y10471700D1*
X5719118Y10490014D1*
X5757485Y10502480D1*
X5797329Y10508791D1*
X5837671D1*
X5877515Y10502480D1*
X5915882Y10490014D1*
X5951826Y10471700D1*
X5984462Y10447988D1*
X6012988Y10419462D1*
X6036700Y10386826D1*
X6055014Y10350882D1*
X6067480Y10312515D1*
X6073791Y10272671D1*
Y10232329D1*
X4970193Y9415854D2*
X4967429Y9434555D1*
Y9458452D1*
X4971168Y9482055D1*
X4973336Y9489742D1*
X4756978Y9489713D1*
X4686164Y9419159D1*
X4669787Y9408216D1*
X4651307Y9401398D1*
X4631747Y9399083D1*
X4630899Y9399116D1*
X4315859Y9399083D1*
X4341373Y9387417D1*
X4941771D1*
X4970007Y9415757D1*
X8552541Y9562420D2*
X8399620Y9562333D1*
X8376184Y9538817D1*
X8376163Y9401731D1*
X8419373Y9387417D1*
X9036390D1*
X9036460Y9616417D1*
X9210465D1*
X9185109Y9641771D1*
X9036460Y9641836D1*
Y9728529D1*
X8981077Y9728460D1*
X8981164Y9392333D1*
X8603710D1*
Y9562457D1*
X8552418Y9562333D1*
X8317961Y9717486D2*
Y9728400D1*
X8239470Y9728667D1*
X8223956Y9731753D1*
X8209591Y9738376D1*
X8197169Y9748169D1*
X8187376Y9760591D1*
X8180753Y9774956D1*
X8177667Y9790470D1*
X8177460Y10335500D1*
Y10683882D1*
X6860167Y10683750D1*
Y9304981D1*
X8236147Y9304917D1*
X8224586Y9317876D1*
X8214961Y9335062D1*
X8209615Y9354019D1*
X8208583Y9367127D1*
X8208842Y9580077D1*
X8212684Y9599396D1*
X8220931Y9617283D1*
X8233125Y9632752D1*
X8233748Y9633327D1*
X8317928Y9717556D1*
X9421149Y9605163D2*
X9790790D1*
Y9566592D1*
X10071987Y9566664D1*
X10142959Y9637218D1*
X10159337Y9648161D1*
X10177816Y9654978D1*
X10197377Y9657294D1*
X10198224Y9657260D1*
X10727824Y9657035D1*
X10747143Y9653193D1*
X10765030Y9644946D1*
X10780499Y9632752D1*
X10781074Y9632129D1*
X10817595Y9595656D1*
X10836301Y9598324D1*
X10860199D1*
X10883801Y9594586D1*
X10906529Y9587201D1*
X10927821Y9576352D1*
X10947154Y9562306D1*
X10964052Y9545408D1*
X10975166Y9530463D1*
X10986448Y9545408D1*
X11003346Y9562306D1*
X11022679Y9576352D1*
X11043971Y9587201D1*
X11066699Y9594586D1*
X11090301Y9598324D1*
X11114199D1*
X11137801Y9594586D1*
X11160529Y9587201D1*
X11181821Y9576352D1*
X11201154Y9562306D1*
X11218052Y9545408D1*
X11232099Y9526075D1*
X11242948Y9504782D1*
X11250332Y9482055D1*
X11254071Y9458452D1*
Y9434555D1*
X11250332Y9410952D1*
X11242948Y9388224D1*
X11232099Y9366932D1*
X11218052Y9347599D1*
X11201154Y9330701D1*
X11181821Y9316655D1*
X11158031Y9304884D1*
X11618019Y9304917D1*
X11618083Y10683874D1*
X10312300Y10683750D1*
X10312083Y9790470D1*
X10308997Y9774956D1*
X10302374Y9760591D1*
X10292581Y9748169D1*
X10280159Y9738376D1*
X10265794Y9731753D1*
X10250280Y9728667D1*
X9705250Y9728460D1*
X9421040Y9727666D1*
Y9641836D1*
X9405289D1*
X9407782Y9627701D1*
X9408040Y9616538D1*
X9421040Y9616416D1*
Y9605130D1*
X9407782Y9627701D1*
X9408040Y9621127D1*
X7453541Y10239579D2*
X7447230Y10199735D1*
X7434764Y10161368D1*
X7416450Y10125424D1*
X7392738Y10092788D1*
X7364212Y10064262D1*
X7331576Y10040550D1*
X7295632Y10022236D1*
X7257265Y10009770D1*
X7217421Y10003459D1*
X7177079D1*
X7137235Y10009770D1*
X7098868Y10022236D1*
X7062924Y10040550D1*
X7030288Y10064262D1*
X7001762Y10092788D1*
X6978050Y10125424D1*
X6959736Y10161368D1*
X6947270Y10199735D1*
X6940959Y10239579D1*
Y10279921D1*
X6947270Y10319765D1*
X6959736Y10358132D1*
X6978050Y10394076D1*
X7001762Y10426712D1*
X7030288Y10455238D1*
X7062924Y10478950D1*
X7098868Y10497264D1*
X7137235Y10509730D1*
X7177079Y10516041D1*
X7217421D1*
X7257265Y10509730D1*
X7295632Y10497264D1*
X7331576Y10478950D1*
X7364212Y10455238D1*
X7392738Y10426712D1*
X7416450Y10394076D1*
X7434764Y10358132D1*
X7447230Y10319765D1*
X7453541Y10279921D1*
Y10239579D1*
X11548791Y10232329D2*
X11542480Y10192485D1*
X11530014Y10154118D1*
X11511700Y10118174D1*
X11487988Y10085538D1*
X11459462Y10057012D1*
X11426826Y10033300D1*
X11390882Y10014986D1*
X11352515Y10002520D1*
X11312671Y9996209D1*
X11272329D1*
X11232485Y10002520D1*
X11194118Y10014986D1*
X11158174Y10033300D1*
X11125538Y10057012D1*
X11097012Y10085538D1*
X11073300Y10118174D1*
X11054986Y10154118D1*
X11042520Y10192485D1*
X11036209Y10232329D1*
Y10272671D1*
X11042520Y10312515D1*
X11054986Y10350882D1*
X11073300Y10386826D1*
X11097012Y10419462D1*
X11125538Y10447988D1*
X11158174Y10471700D1*
X11194118Y10490014D1*
X11232485Y10502480D1*
X11272329Y10508791D1*
X11312671D1*
X11352515Y10502480D1*
X11390882Y10490014D1*
X11426826Y10471700D1*
X11459462Y10447988D1*
X11487988Y10419462D1*
X11511700Y10386826D1*
X11530014Y10350882D1*
X11542480Y10312515D1*
X11548791Y10272671D1*
Y10232329D1*
X10445193Y9415854D2*
X10442429Y9434555D1*
Y9458452D1*
X10446168Y9482055D1*
X10448336Y9489742D1*
X10231978Y9489713D1*
X10161164Y9419159D1*
X10144787Y9408216D1*
X10126307Y9401398D1*
X10106747Y9399083D1*
X10105899Y9399116D1*
X9790859Y9399083D1*
X9816373Y9387417D1*
X10416771D1*
X10445007Y9415757D1*
X14040040Y9562420D2*
X13887119Y9562333D1*
X13863684Y9538817D1*
X13863663Y9401731D1*
X13906873Y9387417D1*
X14523890D1*
X14523961Y9616416D1*
X14697966D1*
X14672609Y9641771D1*
X14523960Y9641837D1*
Y9728529D1*
X14468577Y9728460D1*
X14468664Y9392333D1*
X14091211D1*
Y9562457D1*
X13948337D1*
X13805460Y9717486D2*
Y9728400D1*
X13726970Y9728667D1*
X13711456Y9731753D1*
X13697091Y9738376D1*
X13684669Y9748169D1*
X13674876Y9760591D1*
X13668253Y9774956D1*
X13665167Y9790470D1*
X13664960Y10335500D1*
Y10683882D1*
X12384667Y10683750D1*
Y9304981D1*
X13723688Y9304917D1*
X13712086Y9317876D1*
X13702461Y9335062D1*
X13697115Y9354019D1*
X13696083Y9367127D1*
X13696342Y9580077D1*
X13700184Y9599396D1*
X13708431Y9617283D1*
X13720625Y9632752D1*
X13721248Y9633328D1*
X13805429Y9717556D1*
X14908649Y9605163D2*
X15278291D1*
Y9566591D1*
X15559487Y9566664D1*
X15630459Y9637218D1*
X15646837Y9648161D1*
X15665316Y9654978D1*
X15684877Y9657294D1*
X15685724Y9657260D1*
X16215324Y9657035D1*
X16234643Y9653193D1*
X16252530Y9644946D1*
X16267999Y9632752D1*
X16268574Y9632129D1*
X16305095Y9595656D1*
X16323801Y9598324D1*
X16347699D1*
X16371301Y9594586D1*
X16394029Y9587201D1*
X16415321Y9576352D1*
X16434654Y9562306D1*
X16451552Y9545408D1*
X16462666Y9530463D1*
X16473948Y9545408D1*
X16490846Y9562306D1*
X16510179Y9576352D1*
X16531471Y9587201D1*
X16554199Y9594586D1*
X16577801Y9598324D1*
X16601699D1*
X16625301Y9594586D1*
X16648029Y9587201D1*
X16669321Y9576352D1*
X16688654Y9562306D1*
X16705552Y9545408D1*
X16719599Y9526075D1*
X16730448Y9504782D1*
X16737832Y9482055D1*
X16741571Y9458452D1*
Y9434555D1*
X16737832Y9410952D1*
X16730448Y9388224D1*
X16719599Y9366932D1*
X16705552Y9347599D1*
X16688654Y9330701D1*
X16669321Y9316655D1*
X16645531Y9304884D1*
X17110769Y9304917D1*
X17110833Y10683874D1*
X15799841Y10683750D1*
X15799583Y9790470D1*
X15796497Y9774956D1*
X15789874Y9760591D1*
X15780081Y9748169D1*
X15767659Y9738376D1*
X15753294Y9731753D1*
X15737780Y9728667D1*
X15192750Y9728460D1*
X14908541Y9727666D1*
Y9641836D1*
X14892790D1*
X14895282Y9627701D1*
X14895540Y9616538D1*
X14908541Y9616416D1*
Y9605130D1*
X14895282Y9627701D1*
X14895540Y9621127D1*
X12941041Y10239579D2*
X12934730Y10199735D1*
X12922264Y10161368D1*
X12903950Y10125424D1*
X12880238Y10092788D1*
X12851712Y10064262D1*
X12819076Y10040550D1*
X12783132Y10022236D1*
X12744765Y10009770D1*
X12704921Y10003459D1*
X12664579D1*
X12624735Y10009770D1*
X12586368Y10022236D1*
X12550424Y10040550D1*
X12517788Y10064262D1*
X12489262Y10092788D1*
X12465550Y10125424D1*
X12447236Y10161368D1*
X12434770Y10199735D1*
X12428459Y10239579D1*
Y10279921D1*
X12434770Y10319765D1*
X12447236Y10358132D1*
X12465550Y10394076D1*
X12489262Y10426712D1*
X12517788Y10455238D1*
X12550424Y10478950D1*
X12586368Y10497264D1*
X12624735Y10509730D1*
X12664579Y10516041D1*
X12704921D1*
X12744765Y10509730D1*
X12783132Y10497264D1*
X12819076Y10478950D1*
X12851712Y10455238D1*
X12880238Y10426712D1*
X12903950Y10394076D1*
X12922264Y10358132D1*
X12934730Y10319765D1*
X12941041Y10279921D1*
Y10239579D1*
X17036291Y10232329D2*
X17029980Y10192485D1*
X17017514Y10154118D1*
X16999200Y10118174D1*
X16975488Y10085538D1*
X16946962Y10057012D1*
X16914326Y10033300D1*
X16878382Y10014986D1*
X16840015Y10002520D1*
X16800171Y9996209D1*
X16759829D1*
X16719985Y10002520D1*
X16681618Y10014986D1*
X16645674Y10033300D1*
X16613038Y10057012D1*
X16584512Y10085538D1*
X16560800Y10118174D1*
X16542486Y10154118D1*
X16530020Y10192485D1*
X16523709Y10232329D1*
Y10272671D1*
X16530020Y10312515D1*
X16542486Y10350882D1*
X16560800Y10386826D1*
X16584512Y10419462D1*
X16613038Y10447988D1*
X16645674Y10471700D1*
X16681618Y10490014D1*
X16719985Y10502480D1*
X16759829Y10508791D1*
X16800171D1*
X16840015Y10502480D1*
X16878382Y10490014D1*
X16914326Y10471700D1*
X16946962Y10447988D1*
X16975488Y10419462D1*
X16999200Y10386826D1*
X17017514Y10350882D1*
X17029980Y10312515D1*
X17036291Y10272671D1*
Y10232329D1*
X15932693Y9415854D2*
X15929929Y9434555D1*
Y9458452D1*
X15933668Y9482055D1*
X15935836Y9489742D1*
X15719478Y9489713D1*
X15648664Y9419159D1*
X15632287Y9408216D1*
X15613807Y9401398D1*
X15594247Y9399083D1*
X15593399Y9399116D1*
X15278359Y9399083D1*
X15303873Y9387417D1*
X15904271D1*
X15932507Y9415757D1*
X3630790Y10683883D2*
Y10164473D1*
X3722465Y10072417D1*
X3733408Y10056040D1*
X3740225Y10037560D1*
X3742540Y10018000D1*
X3742507Y10017153D1*
X3742540Y9984142D1*
X3751663Y9973576D1*
X3764977Y9989586D1*
X3765218Y10024074D1*
X3769061Y10043393D1*
X3777307Y10061280D1*
X3789501Y10076749D1*
X3790124Y10077324D1*
X3877287Y10164534D1*
X3877210Y10683882D1*
X3630661Y10683750D1*
X9105790Y10683883D2*
Y10164473D1*
X9197464Y10072417D1*
X9208408Y10056040D1*
X9215225Y10037560D1*
X9217540Y10018000D1*
X9217507Y10017153D1*
X9217540Y9984142D1*
X9226663Y9973576D1*
X9239977Y9989586D1*
X9240218Y10024074D1*
X9244061Y10043393D1*
X9252307Y10061280D1*
X9264501Y10076749D1*
X9265124Y10077324D1*
X9352287Y10164534D1*
X9352210Y10683882D1*
X9105800Y10683750D1*
X14593290Y10683883D2*
Y10164473D1*
X14684965Y10072417D1*
X14695908Y10056040D1*
X14702725Y10037560D1*
X14705040Y10018000D1*
X14705007Y10017153D1*
X14705040Y9984142D1*
X14714163Y9973576D1*
X14727477Y9989586D1*
X14727718Y10024074D1*
X14731561Y10043393D1*
X14739807Y10061280D1*
X14752001Y10076749D1*
X14752624Y10077324D1*
X14839787Y10164534D1*
X14839710Y10683882D1*
X14593341Y10683750D1*
X8282850Y10637460D2*
X9000462D1*
X8282850Y10574293D2*
X9000462D1*
X8282850Y10511127D2*
X9000462D1*
X8282850Y10447960D2*
X9000462D1*
X8282850Y10384793D2*
X9000462D1*
X8282850Y10321627D2*
X9000462D1*
X8282850Y10258460D2*
X9000462D1*
X8282850Y10195293D2*
X9000462D1*
X8282850Y10132127D2*
X9000462D1*
X8282850Y10068960D2*
X9000462D1*
X8282850Y10005793D2*
X9000462D1*
X8282850Y9942627D2*
X9000462D1*
X8282850Y9879460D2*
X9000462D1*
X8975000Y10700627D2*
X8276500D1*
Y9827500D1*
X9006750D1*
Y10700627D1*
X8975000D1*
X9457600Y10637460D2*
X10206962D1*
X9457600Y10574293D2*
X10206962D1*
X9457600Y10511127D2*
X10206962D1*
X9457600Y10447960D2*
X10206962D1*
X9457600Y10384793D2*
X10206962D1*
X9457600Y10321627D2*
X10206962D1*
X9457600Y10258460D2*
X10206962D1*
X9457600Y10195293D2*
X10206962D1*
X9457600Y10132127D2*
X10206962D1*
X9457600Y10068960D2*
X10206962D1*
X9457600Y10005793D2*
X10206962D1*
X9457600Y9942627D2*
X10206962D1*
X9457600Y9879460D2*
X10206962D1*
X10181500Y10700627D2*
X9451250D1*
Y9827500D1*
X10213250D1*
Y10700627D1*
X10181500D1*
X13770350Y10637460D2*
X14487962D1*
X13770350Y10574293D2*
X14487962D1*
X13770350Y10511127D2*
X14487962D1*
X13770350Y10447960D2*
X14487962D1*
X13770350Y10384793D2*
X14487962D1*
X13770350Y10321627D2*
X14487962D1*
X13770350Y10258460D2*
X14487962D1*
X13770350Y10195293D2*
X14487962D1*
X13770350Y10132127D2*
X14487962D1*
X13770350Y10068960D2*
X14487962D1*
X13770350Y10005793D2*
X14487962D1*
X13770350Y9942627D2*
X14487962D1*
X13770350Y9879460D2*
X14487962D1*
X14462500Y10700627D2*
X13764000D1*
Y9827500D1*
X14494250D1*
Y10700627D1*
X14462500D1*
X14945100Y10637460D2*
X15694462D1*
X14945100Y10574293D2*
X15694462D1*
X14945100Y10511127D2*
X15694462D1*
X14945100Y10447960D2*
X15694462D1*
X14945100Y10384793D2*
X15694462D1*
X14945100Y10321627D2*
X15694462D1*
X14945100Y10258460D2*
X15694462D1*
X14945100Y10195293D2*
X15694462D1*
X14945100Y10132127D2*
X15694462D1*
X14945100Y10068960D2*
X15694462D1*
X14945100Y10005793D2*
X15694462D1*
X14945100Y9942627D2*
X15694462D1*
X14945100Y9879460D2*
X15694462D1*
X15669000Y10700627D2*
X14938750D1*
Y9827500D1*
X15700750D1*
Y10700627D1*
X15669000D1*
D20*
X5312500Y7037500D3*
X5142500D3*
X5312500Y7175000D3*
X5142500D3*
X5312500Y7312500D3*
X5142500D3*
D21*
X9687500Y2037500D3*
D22*
X9267500D3*
Y2587500D3*
X9687500D3*
D21*
X11312500Y2037500D3*
D22*
X10892500D3*
Y2587500D3*
X11312500D3*
D21*
X12937500Y2037500D3*
D22*
X12517500D3*
Y2587500D3*
X12937500D3*
D21*
X14555750Y2037500D3*
D22*
X14135750D3*
Y2587500D3*
X14555750D3*
D21*
X16175000Y2037500D3*
D22*
X15755000D3*
Y2587500D3*
X16175000D3*
D21*
X15437500Y7462500D3*
D22*
X15857500D3*
Y6912500D3*
X15437500D3*
D21*
X8032500Y7562500D3*
D22*
X7612500D3*
Y8112500D3*
X8032500D3*
D21*
X17225000Y8282500D3*
D22*
Y7862500D3*
X16675000D3*
Y8282500D3*
D21*
X5725000Y7030000D3*
D22*
Y7450000D3*
X6275000D3*
Y7030000D3*
D21*
X15712500Y5987500D3*
D22*
X16132500D3*
Y5437500D3*
X15712500D3*
D21*
X3800000Y2037500D3*
D22*
X3380000D3*
X2960000D3*
X2540000D3*
Y2587500D3*
X2960000D3*
X3380000D3*
X3800000D3*
D21*
X6537500Y2037500D3*
D22*
X6117500D3*
X5697500D3*
X5277500D3*
Y2587500D3*
X5697500D3*
X6117500D3*
X6537500D3*
D23*
X1642500Y7296000D3*
D24*
Y7550000D3*
X1896500Y7296000D3*
Y7550000D3*
X2150500Y7296000D3*
Y7550000D3*
X2404500Y7296000D3*
Y7550000D3*
X2658500Y7296000D3*
Y7550000D3*
X2912500Y7296000D3*
Y7550000D3*
D23*
X3500000Y7300000D3*
D24*
Y7554000D3*
X3246000Y7300000D3*
Y7554000D3*
D26*
X4670123Y8274957D3*
X4590123D3*
X4510123D3*
X4430123D3*
X4350123D3*
X4270123D3*
X4190123D3*
X4110123D3*
X4030123D3*
X3950123D3*
X3870123D3*
X3790123D3*
X3710123D3*
X3630123D3*
X3550123D3*
X3470123D3*
X3390123D3*
X3310123D3*
X3230123D3*
X3150123D3*
X3070123D3*
X2990123D3*
X2910123D3*
X2830123D3*
X2750123D3*
X2670123D3*
X2590123D3*
X2510123D3*
X2430123D3*
X2350123D3*
X2270123D3*
X2190123D3*
X2110123D3*
X2030123D3*
X1950123D3*
X1870123D3*
X1790123D3*
X1710123D3*
X1630123D3*
X1550123D3*
Y7904957D3*
X1630123D3*
X1710123D3*
X1790123D3*
X1870123D3*
X1950123D3*
X2030123D3*
X2110123D3*
X2190123D3*
X2270123D3*
X2350123D3*
X2430123D3*
X2510123D3*
X2590123D3*
X2670123D3*
X2750123D3*
X2830123D3*
X2910123D3*
X2990123D3*
X3070123D3*
X3150123D3*
X3230123D3*
X3310123D3*
X3390123D3*
X3470123D3*
X3550123D3*
X3630123D3*
X3710123D3*
X3790123D3*
X3870123D3*
X3950123D3*
X4030123D3*
X4110123D3*
X4190123D3*
X4270123D3*
X4350123D3*
X4430123D3*
X4510123D3*
X4590123D3*
X4670123D3*
D27*
X6450000Y8000000D3*
D28*
X6200000D3*
X6000000D3*
X5750000D3*
D29*
X6757000Y8270000D3*
X5443000D3*
D20*
X5000000Y7037500D3*
X4830000D3*
X5000000Y7175000D3*
X4830000D3*
X5000000Y7312500D3*
X4830000D3*
D30*
X9887500Y7762500D3*
D31*
Y7372500D3*
D30*
Y6982500D3*
X10727500Y6422500D3*
X9047500D3*
D32*
X9887500Y5582500D3*
D30*
X9497500D3*
X10277500D3*
D33*
X4400000Y2592447D3*
Y2782447D3*
X4687500Y2592447D3*
Y2782447D3*
D34*
X7487500Y4187500D3*
X7537500D3*
X7587500D3*
X7637500D3*
X7687500D3*
Y4627500D3*
X7637500D3*
X7587500D3*
X7537500D3*
X7487500D3*
D36*
X5800000Y5562500D3*
X5800050Y5102500D3*
D37*
X6470000Y5332500D3*
D36*
X7937500Y5112500D3*
X7937450Y5572500D3*
D37*
X7267500Y5342500D3*
D36*
X5800000Y6325000D3*
X5800050Y5865000D3*
D37*
X6470000Y6095000D3*
D36*
X7937500Y5875000D3*
X7937450Y6335000D3*
D37*
X7267500Y6105000D3*
D20*
X7512500Y3987500D3*
X7342500D3*
X7837500D3*
X7667500D3*
D33*
X4400000Y3154947D3*
Y2964947D3*
X4687500Y3157447D3*
Y2967447D3*
X10262500Y1750000D3*
Y1940000D3*
D38*
X9650000Y4637500D3*
X9310000Y3290500D3*
Y4637500D3*
X9650000Y3290500D3*
D33*
X10262500Y2312500D3*
Y2122500D3*
X11887500Y1750000D3*
Y1940000D3*
D38*
X11262500Y4637500D3*
X10922500Y3290500D3*
Y4637500D3*
X11262500Y3290500D3*
D33*
X11887500Y2312500D3*
Y2122500D3*
X13512500Y1750000D3*
Y1940000D3*
D38*
X12887500Y4637500D3*
X12547500Y3290500D3*
Y4637500D3*
X12887500Y3290500D3*
D33*
X13512500Y2312500D3*
Y2122500D3*
X15125000Y1750000D3*
Y1940000D3*
D38*
X14500000Y4637500D3*
X14160000Y3290500D3*
Y4637500D3*
X14500000Y3290500D3*
D33*
X15125000Y2302500D3*
Y2112500D3*
X16750000Y1737500D3*
Y1927500D3*
D38*
X16112500Y4637500D3*
X15772500Y3290500D3*
Y4637500D3*
X16112500Y3290500D3*
D33*
X16750000Y2290000D3*
Y2100000D3*
X16337500Y7487500D3*
Y7297500D3*
D38*
X14612500Y8262500D3*
X14272500Y6915500D3*
Y8262500D3*
X14612500Y6915500D3*
D33*
X16337500Y6912500D3*
Y7102500D3*
X1837500Y3762500D3*
Y3952500D3*
D41*
X1925000Y3150000D3*
Y2980000D3*
D42*
X3587500Y3150000D3*
Y3950000D3*
X2787500Y3150000D3*
Y3950000D3*
D33*
X1637500Y3537500D3*
Y3347500D3*
X1437500Y3737500D3*
Y3547500D3*
X1637500Y3950000D3*
Y3760000D3*
D41*
X2087500Y2987500D3*
Y3157500D3*
D44*
Y3325000D3*
Y3420000D3*
Y3515000D3*
X1817500D3*
Y3325000D3*
D45*
X7445000Y2680000D3*
X7255000D3*
D41*
X7075000Y3275000D3*
Y3105000D3*
D42*
X6300000Y3150000D3*
Y3950000D3*
X5500000Y3150000D3*
Y3950000D3*
D33*
X7500000Y3450000D3*
Y3640000D3*
Y3087500D3*
Y3277500D3*
D45*
X7255000Y2882500D3*
X7445000D3*
D41*
X7212500Y3100000D3*
Y3270000D3*
D44*
Y3450000D3*
Y3545000D3*
Y3640000D3*
X6942500D3*
Y3450000D3*
D30*
X12475000Y5575000D3*
D31*
Y5965000D3*
D30*
Y6355000D3*
X11635000Y6915000D3*
X13315000D3*
D32*
X12475000Y7755000D3*
D30*
X12865000D3*
X12085000D3*
D41*
X2960250Y9684623D3*
Y9514623D3*
X4039750Y9482873D3*
Y9652873D3*
D21*
X2452250Y10049750D3*
D22*
Y10469750D3*
X3002250D3*
Y10049750D3*
D21*
X5087500Y10462500D3*
D22*
Y10042500D3*
X4537500D3*
Y10462500D3*
D23*
X4865250Y9446503D3*
D24*
X5119250D3*
X5373250D3*
X5627250D3*
D46*
X3373000Y10303750D3*
X4173000D3*
D41*
X3388873Y9514623D3*
Y9684623D3*
X3246000D3*
Y9514623D3*
X3103127D3*
Y9684623D3*
X4198500Y9652873D3*
Y9482873D3*
D48*
X3658750Y9494127D3*
X3753750D3*
X3848750D3*
Y9764127D3*
X3658750D3*
D41*
X8435250Y9684623D3*
Y9514623D3*
X9514750Y9482873D3*
Y9652873D3*
D21*
X7927250Y10049750D3*
D22*
Y10469750D3*
X8477250D3*
Y10049750D3*
D21*
X10562500Y10462500D3*
D22*
Y10042500D3*
X10012500D3*
Y10462500D3*
D23*
X10340250Y9446503D3*
D24*
X10594250D3*
X10848250D3*
X11102250D3*
D46*
X8848000Y10303750D3*
X9648000D3*
D41*
X8863873Y9514623D3*
Y9684623D3*
X8721000D3*
Y9514623D3*
X8578127D3*
Y9684623D3*
X9673500Y9652873D3*
Y9482873D3*
D48*
X9133750Y9494127D3*
X9228750D3*
X9323750D3*
Y9764127D3*
X9133750D3*
D41*
X13922750Y9684623D3*
Y9514623D3*
X15002250Y9482873D3*
Y9652873D3*
D21*
X13414750Y10049750D3*
D22*
Y10469750D3*
X13964750D3*
Y10049750D3*
D21*
X16050000Y10462500D3*
D22*
Y10042500D3*
X15500000D3*
Y10462500D3*
D23*
X15827750Y9446503D3*
D24*
X16081750D3*
X16335750D3*
X16589750D3*
D46*
X14335500Y10303750D3*
X15135500D3*
D41*
X14351373Y9514623D3*
Y9684623D3*
X14208500D3*
Y9514623D3*
X14065627D3*
Y9684623D3*
X15161000Y9652873D3*
Y9482873D3*
D48*
X14621250Y9494127D3*
X14716250D3*
X14811250D3*
Y9764127D3*
X14621250D3*
M02*
