G04 DipTrace 3.0.0.1*
G04 brushless-driver_lay.GBS*
%MOIN*%
G04 #@! TF.FileFunction,Soldermask,Bot*
G04 #@! TF.Part,Single*
%ADD32C,0.11811*%
%ADD35C,0.1004*%
%ADD36C,0.1181*%
%ADD43C,0.12611*%
%ADD53R,0.133984X0.078866*%
%ADD55C,0.074929*%
%ADD57R,0.074929X0.074929*%
%ADD59C,0.12611*%
%ADD61R,0.12611X0.12611*%
%ADD63R,0.137921X0.102488*%
%ADD67R,0.070992X0.070992*%
%ADD69C,0.070992*%
%FSLAX26Y26*%
G04*
G70*
G90*
G75*
G01*
G04 BotMask*
%LPD*%
D69*
X1444110Y512762D3*
D67*
Y712762D3*
D63*
X1269092Y756538D3*
Y496696D3*
D61*
X1962915Y1375353D3*
D59*
X862799Y812794D3*
D57*
X1400361Y2125432D3*
D55*
Y2225432D3*
X1500361Y2125432D3*
Y2225432D3*
X1600361Y2125432D3*
Y2225432D3*
X1700361Y2125432D3*
Y2225432D3*
X1800361Y2125432D3*
Y2225432D3*
X1900361Y2125432D3*
Y2225432D3*
X2000361Y2125432D3*
Y2225432D3*
X2100361Y2125432D3*
Y2225432D3*
X2200361Y2125432D3*
Y2225432D3*
X2300361Y2125432D3*
Y2225432D3*
D59*
X1894157Y812794D3*
D53*
X1325348Y987812D3*
Y1208285D3*
D35*
X2269197Y1981667D3*
X2275448Y481509D3*
X481509D3*
D43*
X994063Y1756643D3*
X663354Y1973178D3*
X828709D3*
X994063D3*
X498000Y1756643D3*
X663354D3*
X828709D3*
D61*
X498000Y1973178D3*
D32*
Y2260580D3*
X994063D3*
D59*
X1962915Y1209999D3*
X1746379D3*
Y1375353D3*
D36*
X2250647Y1292676D3*
D59*
X1894157Y647440D3*
X1677622Y978148D3*
Y647440D3*
Y812794D3*
D61*
X1894157Y978148D3*
D32*
X2181559D3*
Y647440D3*
D59*
X862799Y978148D3*
X1079335Y647440D3*
Y978148D3*
Y812794D3*
D61*
X862799Y647440D3*
D32*
X575398D3*
Y978148D3*
M02*
