M48
INCH
T01C0.0098
T02C0.0354
T03C0.0433
T04C0.0709
T05C0.073
T06C0.1004
T07C0.1181
%
T01
X+010628Y+014316
X+010628Y+014004
X+011003Y+014004
X+011003Y+014316
X+011003Y+014691
X+011003Y+015066
X+010628Y+015066
X+010628Y+014691
X+010628Y+015441
X+010628Y+015816
X+011003Y+015816
X+011003Y+015441
X+010253Y+015441
X+009941Y+015441
X+009628Y+015441
X+009628Y+015816
X+009941Y+015816
X+010253Y+015816
X+008065Y+015816
X+008065Y+015441
X+007690Y+015441
X+007690Y+015816
X+007315Y+015816
X+007003Y+015816
X+006690Y+015816
X+006690Y+015441
X+007003Y+015441
X+007315Y+015441
X+007690Y+015066
X+008065Y+015066
X+008065Y+014691
X+008065Y+014316
X+008065Y+014004
X+007690Y+014004
X+007690Y+014316
X+007690Y+014691
X+007628Y+012253
X+007940Y+012253
X+007940Y+011941
X+007628Y+011941
X+007628Y+011628
X+007940Y+011628
X+008253Y+011628
X+008253Y+011941
X+008565Y+011941
X+008565Y+011628
X+008253Y+012253
X+005878Y+012128
X+005878Y+011816
X+005565Y+011816
X+005565Y+012128
X+005253Y+012128
X+005253Y+011816
X+005253Y+011503
X+005565Y+011503
X+005878Y+011503
X+005253Y+012441
X+005253Y+012753
X+004440Y+014004
X+004440Y+014379
X+004440Y+015754
X+004440Y+016066
X+010691Y+013191
X+010691Y+012878
X+010691Y+012566
X+010691Y+012253
X+010691Y+011941
X+011066Y+011941
X+011066Y+012253
X+011066Y+012566
X+011066Y+012878
X+011066Y+013191
X+011441Y+011941
X+013754Y+013003
X+013754Y+013253
X+013754Y+013504
X+013566Y+014004
X+013566Y+014316
X+013941Y+014316
X+013941Y+014004
X+013941Y+014691
X+013941Y+015066
X+013566Y+015066
X+013566Y+014691
X+013566Y+015441
X+013566Y+015816
X+013191Y+015816
X+012878Y+015816
X+012566Y+015816
X+012566Y+015441
X+012878Y+015441
X+013191Y+015441
X+013941Y+015441
X+013941Y+015816
X+014254Y+018504
X+015191Y+018504
X+016191Y+018817
X+016191Y+019192
X+016191Y+019567
X+016191Y+019942
X+017941Y+019567
X+018817Y+019504
X+018754Y+018504
X+018317Y+018504
X+017879Y+018504
X+017879Y+017941
X+018317Y+017941
X+018754Y+017941
X+018754Y+017379
X+018317Y+017379
X+017879Y+017379
X+020129Y+017441
X+020129Y+017879
X+020129Y+018817
X+020379Y+016754
X+020629Y+016129
X+021004Y+016129
X+022629Y+015191
X+022379Y+014566
X+022504Y+014191
X+013629Y+019942
X+012503Y+020942
X+012753Y+021254
X+012566Y+022192
X+011316Y+021692
X+011316Y+023130
X+011316Y+020254
T02
X+014441Y+005128
X+014441Y+007128
T03
X+014004Y+021254
X+014004Y+022254
X+015004Y+022254
X+015004Y+021254
X+016004Y+021254
X+016004Y+022254
X+017004Y+022254
X+018004Y+022254
X+018004Y+021254
X+017004Y+021254
X+019004Y+021254
X+020004Y+021254
X+020004Y+022254
X+019004Y+022254
X+021004Y+022254
X+021004Y+021254
X+022004Y+021254
X+022004Y+022254
X+023004Y+022254
X+023004Y+021254
T04
X+009941Y+017566
X+008287Y+017566
X+006634Y+017566
X+004980Y+017566
X+004980Y+019732
X+006634Y+019732
X+008287Y+019732
X+009941Y+019732
X+010793Y+009781
X+010793Y+008128
X+010793Y+006474
X+008628Y+006474
X+008628Y+008128
X+008628Y+009781
X+016776Y+009781
X+016776Y+008128
X+016776Y+006474
X+018942Y+006474
X+018942Y+008128
X+018942Y+009781
T05
X+019629Y+013754
X+019629Y+012100
X+017464Y+012100
X+017464Y+013754
T06
X+022692Y+019817
X+022754Y+004815
X+004815Y+004815
T07
X+004980Y+022606
X+009941Y+022606
X+005754Y+009781
X+005754Y+006474
X+021816Y+006474
X+021816Y+009781
X+022506Y+012927
T00
M30
