G04 DipTrace Beta 2.9.0.1*
G04 Top.gbr*
%MOIN*%
G04 #@! TF.FileFunction,Copper,L1,Top*
G04 #@! TF.Part,Single*
G04 #@! TA.AperFunction,CopperBalancing*
%ADD13C,0.012992*%
G04 #@! TA.AperFunction,Conductor,NotC*
%ADD14C,0.011811*%
G04 #@! TA.AperFunction,CopperBalancing*
%ADD15C,0.025*%
G04 #@! TA.AperFunction,SMDPad,CuDef*
%ADD17R,0.059055X0.051181*%
%ADD18R,0.051181X0.059055*%
G04 #@! TA.AperFunction,ComponentPad*
%ADD19R,0.059055X0.059055*%
%ADD20C,0.059055*%
G04 #@! TA.AperFunction,SMDPad,CuDef*
%ADD21R,0.06X0.025*%
G04 #@! TA.AperFunction,ComponentPad*
%ADD22R,0.11811X0.11811*%
%ADD23C,0.11811*%
%ADD24R,0.066929X0.066929*%
%ADD25C,0.066929*%
G04 #@! TA.AperFunction,SMDPad,CuDef*
%ADD26R,0.070866X0.125984*%
%ADD27R,0.061024X0.023622*%
%ADD28R,0.055118X0.011811*%
G04 #@! TA.AperFunction,ComponentPad*
%ADD29R,0.074803X0.074803*%
%ADD30C,0.074803*%
G04 #@! TA.AperFunction,ViaPad*
%ADD31C,0.04*%
%FSLAX26Y26*%
G04*
G70*
G90*
G75*
G01*
G04 Top*
%LPD*%
X1369000Y719000D2*
D13*
X1406500D1*
X1669000Y456500D1*
X1543000Y762260D2*
Y707500D1*
X1669000Y581500D1*
Y456500D1*
X1543000Y781945D2*
D14*
X1405445D1*
D13*
X1272055D1*
X1235000Y819000D1*
X1019000D1*
X906500Y931500D1*
X856500D1*
X1543000Y801630D2*
D14*
X1405445D1*
D13*
X1330370D1*
X1200500Y931500D1*
X1044000D1*
X2643803Y1094000D2*
X2644000Y981500D1*
X2286598Y916000D2*
X2356500D1*
Y919000D1*
X1716228Y821315D2*
D14*
X1758815D1*
D13*
X1769000Y831500D1*
Y994000D1*
X1801112Y1026112D1*
X1938612D1*
X1969000Y1056500D1*
X2069000D1*
Y916000D1*
X2074000D1*
X1294197Y719000D2*
X1034000D1*
X1012000Y697000D1*
Y625249D1*
X1014500Y622749D1*
X2069000Y1056500D2*
X2244000Y1231500D1*
Y1266146D1*
X2269000Y1291146D1*
X856500Y894000D2*
Y831500D1*
X1044000Y894000D2*
X1131500D1*
X731402Y695402D2*
Y694000D1*
X781500D1*
X856500Y769000D1*
Y831500D1*
Y969000D2*
X1044000D1*
X1543000Y821315D2*
D14*
Y841000D1*
X1556500Y1156500D2*
D13*
X1494000D1*
X1444000Y1106500D1*
Y919000D1*
X1384000Y529000D2*
X1441000D1*
X1444000Y532000D1*
X1556500Y1156500D2*
X1544000D1*
Y842000D1*
D14*
X1543000Y841000D1*
X1210535Y1484354D2*
D13*
Y1319000D1*
Y1248035D1*
X956500Y994000D1*
Y969000D1*
X1044000D1*
X1114500Y622749D2*
Y555500D1*
X1150000Y520000D1*
X1300197D1*
X1309197Y529000D1*
X914500Y622749D2*
Y509500D1*
X980000Y444000D1*
X1316197D1*
X1309197Y451000D1*
X2286598Y866000D2*
X2353500D1*
X2356500Y869000D1*
X1716228Y762260D2*
X1741740D1*
X1828000Y676000D1*
X1862000D1*
X1869000Y669000D1*
X2074000Y866000D2*
X1980760D1*
X1944000Y902760D1*
X1869000Y669000D2*
Y606500D1*
X2286598Y816000D2*
X2478500D1*
X2565260Y902760D1*
X2074000Y816000D2*
X1903500D1*
X1873000Y785500D1*
Y750740D1*
X1871509Y749249D1*
X1716228Y781945D2*
D14*
X1759000D1*
D13*
X1767055D1*
X1789000Y760000D1*
X1860759D1*
X1871509Y749249D1*
X2074000Y816000D2*
X1897000D1*
X1869000Y844000D1*
Y902760D1*
X1865260D1*
X2052465Y1456500D2*
Y1291146D1*
Y1202465D1*
X2006500Y1156500D1*
X1776972D1*
X2052465Y1291146D2*
D3*
Y1202465D2*
X1931500Y1081500D1*
D14*
Y1069000D1*
X1919000Y1056500D1*
X1769000D1*
X1719000Y1006500D1*
Y841000D1*
X1716228D1*
X2444000Y856500D2*
D13*
Y860240D1*
X2565260Y981500D1*
X2286598Y766000D2*
X2444000D1*
Y769000D1*
X2569000Y1094000D2*
Y985240D1*
X2565260Y981500D1*
X1946312Y749249D2*
Y769000D1*
X2074000D1*
Y766000D1*
X1943803Y669000D2*
Y749249D1*
X1946312D1*
X1931500Y519000D2*
Y656697D1*
X1943803Y669000D1*
X1384000Y451000D2*
X1441000D1*
X1444000Y454000D1*
X731402Y620598D2*
Y548402D1*
X730000Y547000D1*
X1569000Y456500D2*
X1446500D1*
X1444000Y454000D1*
D31*
X856500Y831500D3*
X1131500Y894000D3*
X1869000Y606500D3*
X1931500Y519000D3*
X1444000Y454000D3*
X730000Y547000D3*
X2444000Y856500D3*
X1444000Y919000D3*
X2444000Y769000D3*
X2356500Y919000D3*
Y869000D3*
X1444000Y532000D3*
X1771696Y1594131D2*
D15*
X2141304D1*
X1771696Y1569262D2*
X2141304D1*
X1771696Y1544394D2*
X2141304D1*
X1771696Y1519525D2*
X1992085D1*
X2112711D2*
X2141304D1*
X1771696Y1494656D2*
X1973336D1*
X2131461D2*
X2141265D1*
X1771696Y1469787D2*
X1965524D1*
X1771696Y1444919D2*
X1965133D1*
X1771696Y1420050D2*
X1972555D1*
X2132243D2*
X2141277D1*
X1771696Y1395181D2*
X1990133D1*
X2114664D2*
X2141304D1*
X1946696Y1370312D2*
X2017476D1*
X2087320D2*
X2141304D1*
X1946696Y1345444D2*
X1983883D1*
X2120915D2*
X2141304D1*
X1946696Y1320575D2*
X1969820D1*
X1946696Y1295706D2*
X1964562D1*
X1946696Y1270837D2*
X1966696D1*
X1946696Y1245969D2*
X1977243D1*
X2127555D2*
X2141203D1*
X1946696Y1221100D2*
X2000680D1*
X2104117D2*
X2141304D1*
X1759196Y1196231D2*
X2126071D1*
X1759196Y1171362D2*
X2101071D1*
X1759196Y1146493D2*
X2076461D1*
X1759196Y1121625D2*
X2051461D1*
X1759196Y1096756D2*
X2026461D1*
X2137983Y1288646D2*
X2136236Y1273768D1*
X2131921Y1259421D1*
X2125169Y1246049D1*
X2116188Y1234058D1*
X2105253Y1223818D1*
X2092701Y1215642D1*
X2078913Y1209782D1*
X2064316Y1206416D1*
X2049354Y1205647D1*
X2034490Y1207500D1*
X2020175Y1211917D1*
X2006850Y1218765D1*
X1994924Y1227831D1*
X1984762Y1238839D1*
X1976676Y1251449D1*
X1970913Y1265278D1*
X1967652Y1279899D1*
X1966991Y1294865D1*
X1968949Y1309718D1*
X1973470Y1324000D1*
X1980411Y1337276D1*
X1989562Y1349136D1*
X2000642Y1359219D1*
X2013310Y1367215D1*
X2027178Y1372879D1*
X2029634Y1374047D1*
X2015602Y1379294D1*
X2002701Y1386907D1*
X1991324Y1396655D1*
X1981823Y1408236D1*
X1974487Y1421298D1*
X1969542Y1435440D1*
X1967140Y1450226D1*
X1967353Y1465206D1*
X1970177Y1479917D1*
X1975524Y1493912D1*
X1983228Y1506760D1*
X1993056Y1518066D1*
X2004706Y1527484D1*
X2017820Y1534727D1*
X2031996Y1539571D1*
X2046799Y1541867D1*
X2061777Y1541547D1*
X2076469Y1538618D1*
X2090425Y1533173D1*
X2103217Y1525375D1*
X2114453Y1515467D1*
X2123787Y1503751D1*
X2130937Y1490585D1*
X2135678Y1476375D1*
X2137870Y1461555D1*
X2137436Y1446522D1*
X2134392Y1431854D1*
X2128839Y1417941D1*
X2120941Y1405211D1*
X2110945Y1394052D1*
X2099156Y1384810D1*
X2085936Y1377764D1*
X2074492Y1373835D1*
X2088168Y1368895D1*
X2101182Y1361475D1*
X2112703Y1351899D1*
X2122377Y1340461D1*
X2129907Y1327509D1*
X2135063Y1313444D1*
X2137686Y1298694D1*
X2137983Y1288646D1*
X1769000Y1618609D2*
Y1394391D1*
X1856500Y1394000D1*
X1931500D1*
X1942045Y1387881D1*
X1944000Y1381500D1*
Y1219000D1*
X1937881Y1208455D1*
X1931500Y1206500D1*
X1756891D1*
X1756500Y1119000D1*
Y1094391D1*
X1844000Y1094000D1*
X2026421D1*
X2143919Y1211597D1*
X2144000Y1618609D1*
X2056500Y1619000D1*
X1769391D1*
X1992003Y1351608D2*
D13*
X2112927Y1230684D1*
Y1351608D2*
X1992003Y1230684D1*
Y1516962D2*
X2112927Y1396038D1*
Y1516962D2*
X1992003Y1396038D1*
X1121696Y1594131D2*
D15*
X1579000D1*
X1121696Y1569262D2*
X1197555D1*
X1223648D2*
X1579000D1*
X1121696Y1544394D2*
X1147164D1*
X1274039D2*
X1579000D1*
X1121696Y1519525D2*
X1130260D1*
X1290836D2*
X1579000D1*
X1297867Y1494656D2*
X1579000D1*
X1297476Y1469787D2*
X1579000D1*
X1121696Y1444919D2*
X1131811D1*
X1288883D2*
X1579000D1*
X1121696Y1420050D2*
X1151461D1*
X1269352D2*
X1579000D1*
X1121696Y1395181D2*
X1169039D1*
X1252164D2*
X1316696D1*
X1121696Y1370312D2*
X1139562D1*
X1281461D2*
X1316304D1*
X1294352Y1345444D2*
X1316304D1*
X1298648Y1320575D2*
X1316143D1*
X1295524Y1295706D2*
X1316304D1*
X1121696Y1270837D2*
X1137236D1*
X1283804D2*
X1316304D1*
X1121696Y1245969D2*
X1163571D1*
X1257633D2*
X1316304D1*
X1121696Y1221100D2*
X1316304D1*
X1138883Y1196231D2*
X1578804D1*
X1166227Y1171362D2*
X1578804D1*
X1193571Y1146493D2*
X1578804D1*
X1220915Y1121625D2*
X1578804D1*
X1248257Y1096756D2*
X1578804D1*
X1296054Y1481854D2*
X1294307Y1466976D1*
X1289992Y1452630D1*
X1283240Y1439257D1*
X1274259Y1427266D1*
X1263324Y1417026D1*
X1250772Y1408850D1*
X1236984Y1402991D1*
X1232563Y1401689D1*
X1246239Y1396749D1*
X1259253Y1389329D1*
X1270774Y1379753D1*
X1280448Y1368315D1*
X1287978Y1355364D1*
X1293134Y1341298D1*
X1295757Y1326549D1*
X1295762Y1311509D1*
X1293148Y1296759D1*
X1288003Y1282689D1*
X1280482Y1269734D1*
X1270816Y1258287D1*
X1259302Y1248705D1*
X1246293Y1241276D1*
X1232188Y1236230D1*
X1217417Y1233722D1*
X1202437Y1233829D1*
X1187705Y1236547D1*
X1173673Y1241794D1*
X1160772Y1249407D1*
X1149395Y1259155D1*
X1139894Y1270736D1*
X1132558Y1283798D1*
X1127613Y1297940D1*
X1125211Y1312726D1*
X1125424Y1327706D1*
X1128248Y1342417D1*
X1133594Y1356412D1*
X1141299Y1369260D1*
X1151127Y1380566D1*
X1162777Y1389984D1*
X1175891Y1397227D1*
X1188480Y1401655D1*
X1173673Y1407148D1*
X1160772Y1414761D1*
X1149395Y1424509D1*
X1139894Y1436091D1*
X1132558Y1449152D1*
X1127613Y1463294D1*
X1125211Y1478080D1*
X1125424Y1493060D1*
X1128248Y1507772D1*
X1133594Y1521766D1*
X1141299Y1534614D1*
X1151127Y1545920D1*
X1162777Y1555339D1*
X1175891Y1562581D1*
X1190067Y1567425D1*
X1204870Y1569722D1*
X1219848Y1569402D1*
X1234539Y1566472D1*
X1248496Y1561028D1*
X1261287Y1553230D1*
X1272524Y1543322D1*
X1281858Y1531605D1*
X1289008Y1518440D1*
X1293749Y1504230D1*
X1295941Y1489409D1*
X1296054Y1481854D1*
X1581500Y1406891D2*
Y1619000D1*
X1119391D1*
X1119000Y1531500D1*
Y1212360D1*
X1244398Y1098031D1*
X1248654Y1094163D1*
X1581109Y1094000D1*
X1581500Y1181500D1*
Y1206109D1*
X1494000Y1206500D1*
X1331500D1*
X1320955Y1212619D1*
X1319000Y1219000D1*
Y1394000D1*
X1325119Y1404545D1*
X1331500Y1406500D1*
X1581891D1*
X1150073Y1544816D2*
D13*
X1270997Y1423892D1*
Y1544816D2*
X1150073Y1423892D1*
Y1379462D2*
X1270997Y1258538D1*
Y1379462D2*
X1150073Y1258538D1*
D17*
X731402Y695402D3*
Y620598D3*
D18*
X2569000Y1094000D3*
X2643803D3*
X1384000Y529000D3*
X1309197D3*
X1384000Y451000D3*
X1309197D3*
D19*
X2644000Y981500D3*
D20*
X2565260D3*
Y902760D3*
X2644000D3*
D19*
X1944000Y981500D3*
D20*
X1865260D3*
Y902760D3*
X1944000D3*
D21*
X856500Y894000D3*
Y931500D3*
Y969000D3*
X1044000Y894000D3*
Y931500D3*
Y969000D3*
D22*
X994000Y1319000D3*
D23*
Y1484354D3*
X1210535D3*
Y1319000D3*
D22*
X2269000Y1456500D3*
D23*
Y1291146D3*
X2052465D3*
Y1456500D3*
D24*
X1669000Y456500D3*
D25*
X1569000D3*
D18*
X1369000Y719000D3*
X1294197D3*
D26*
X1556500Y1156500D3*
X1776972D3*
D18*
X1869000Y669000D3*
X1943803D3*
X1871509Y749249D3*
X1946312D3*
D27*
X2074000Y766000D3*
Y816000D3*
Y866000D3*
Y916000D3*
X2286598D3*
Y866000D3*
Y816000D3*
Y766000D3*
D28*
X1543000Y841000D3*
Y821315D3*
Y801630D3*
Y781945D3*
Y762260D3*
X1716228D3*
Y781945D3*
Y801630D3*
Y821315D3*
Y841000D3*
D29*
X1114500Y622749D3*
D30*
X1014500D3*
X914500D3*
M02*
