G04 DipTrace Beta 2.9.0.1*
G04 TopAssy.gbr*
%MOIN*%
G04 #@! TF.FileFunction,Drawing,Top*
G04 #@! TF.Part,Single*
%ADD10C,0.009843*%
%ADD12C,0.003*%
%FSLAX26Y26*%
G04*
G70*
G90*
G75*
G01*
G04 TopAssy*
%LPD*%
X1758370Y396655D2*
D10*
X1479630D1*
X2068497Y745921D2*
X2286410D1*
Y940016D1*
X2068497D1*
Y745921D1*
X1717468Y363283D2*
D12*
Y383379D1*
X1708846Y383380D1*
X1705972Y382407D1*
X1705021Y381456D1*
X1704071Y379555D1*
Y376681D1*
X1705021Y374757D1*
X1705972Y373807D1*
X1708846Y372856D1*
X1705972Y371883D1*
X1705021Y370933D1*
X1704071Y369032D1*
Y367108D1*
X1705021Y365207D1*
X1705972Y364234D1*
X1708846Y363284D1*
X1717468Y363283D1*
Y372856D2*
X1708846D1*
X1692147Y363284D2*
X1694070Y364234D1*
X1695972Y366158D1*
X1696944Y368059D1*
X1697895Y370933D1*
Y375730D1*
X1696944Y378582D1*
X1695972Y380506D1*
X1694070Y382407D1*
X1692147Y383380D1*
X1688322D1*
X1686421Y382407D1*
X1684498Y380506D1*
X1683547Y378582D1*
X1682596Y375730D1*
Y370933D1*
X1683547Y368059D1*
X1684498Y366158D1*
X1686421Y364234D1*
X1688322Y363284D1*
X1692147D1*
X1661100Y383379D2*
X1668771Y363284D1*
X1676421Y383380D1*
X1673547Y376681D2*
X1663974D1*
X1654924Y372856D2*
X1646324D1*
X1643450Y371883D1*
X1642478Y370933D1*
X1641527Y369032D1*
Y367108D1*
X1642478Y365207D1*
X1643450Y364234D1*
X1646324Y363284D1*
X1654924D1*
Y383379D1*
X1648226Y372856D2*
X1641527Y383379D1*
X1635351Y363284D2*
Y383379D1*
X1628653D1*
X1625779Y382407D1*
X1623855Y380505D1*
X1622905Y378582D1*
X1621954Y375730D1*
Y370933D1*
X1622905Y368059D1*
X1623855Y366158D1*
X1625779Y364234D1*
X1628653Y363284D1*
X1635351D1*
X1583913D2*
X1596338D1*
Y383379D1*
X1583913D1*
X1596338Y372856D2*
X1588689D1*
X1577738Y363284D2*
Y383379D1*
X1571039D1*
X1568165Y382407D1*
X1566241Y380505D1*
X1565291Y378582D1*
X1564340Y375730D1*
Y370933D1*
X1565291Y368059D1*
X1566241Y366158D1*
X1568165Y364234D1*
X1571039Y363284D1*
X1577738D1*
X1543817Y368059D2*
X1544767Y366158D1*
X1546691Y364234D1*
X1548592Y363283D1*
X1552416D1*
X1554340Y364234D1*
X1556241Y366158D1*
X1557214Y368059D1*
X1558165Y370933D1*
Y375730D1*
X1557214Y378582D1*
X1556241Y380505D1*
X1554340Y382407D1*
X1552416Y383379D1*
X1548592D1*
X1546691Y382407D1*
X1544767Y380505D1*
X1543817Y378582D1*
Y375730D1*
X1548592D1*
X1525216Y363283D2*
X1537641D1*
Y383379D1*
X1525216D1*
X1537641Y372856D2*
X1529992D1*
M02*
