M48
INCH
T01C0.0191
T02C0.0354
T03C0.0433
T04C0.0713
T05C0.112
T06C0.1181
%
T01
X+019315Y+005190
X+018690Y+006065
X+014440Y+005320
X+014440Y+004540
X+014440Y+009190
X+011315Y+008940
X+008565Y+008315
X+007300Y+005470
X+023815Y+008690
X+023815Y+009190
X+024565Y+008565
X+024315Y+007815
T02
X+026440Y+009815
X+025653Y+009815
X+025653Y+009028
X+026440Y+009028
X+019440Y+009028
X+018653Y+009028
X+018653Y+009815
X+019440Y+009815
T03
X+015815Y+006440
X+016815Y+006440
X+011145Y+006227
X+010145Y+006227
X+009145Y+006227
T04
X+009940Y+013190
X+009940Y+014844
X+012105Y+014844
X+012105Y+013190
X+020525Y+012911
X+020525Y+014565
X+022690Y+014565
X+022690Y+012911
T05
X+027065Y+006190
X+005860Y+009580
T06
X+007066Y+014017
X+025564Y+013738
T00
M30
