G04 DipTrace 2.4.0.2*
%INBoost_converter.GBL*%
%MOMM*%
%ADD14C,0.33*%
%ADD15C,0.635*%
%ADD17C,1.6*%
%ADD18R,1.6X1.6*%
%ADD19R,1.1X1.0*%
%ADD23R,3.0X3.0*%
%ADD24C,3.0*%
%ADD25R,1.5X1.5*%
%ADD26C,1.5*%
%ADD28C,4.0*%
%ADD33R,1.5X1.3*%
%ADD37C,1.5*%
%ADD38C,2.4*%
%ADD39C,1.016*%
%FSLAX53Y53*%
G04*
G71*
G90*
G75*
G01*
%LNBottom*%
%LPD*%
X52174Y42779D2*
D14*
X52651Y43097D1*
X53444D1*
X53603Y42938D1*
X59579Y46968D2*
X61059D1*
X61213Y47122D1*
X62913D2*
Y48812D1*
X62969D1*
X62810Y44526D2*
Y47019D1*
X62913Y47122D1*
X56143Y47542D2*
X49317D1*
X45507Y43732D1*
D39*
X52174Y42779D3*
X62810Y44526D3*
X56143Y47542D3*
X45507Y43732D3*
X11049Y51399D2*
D15*
X99966D1*
X11049Y50767D2*
X99966D1*
X11049Y50136D2*
X34581D1*
X38339D2*
X66579D1*
X70337D2*
X99966D1*
X11049Y49504D2*
X33896D1*
X39024D2*
X61687D1*
X64255D2*
X65894D1*
X71022D2*
X99966D1*
X11049Y48872D2*
X33489D1*
X39421D2*
X61687D1*
X64255D2*
X65497D1*
X71419D2*
X99966D1*
X11049Y48240D2*
X14529D1*
X16233D2*
X33271D1*
X39649D2*
X48789D1*
X57161D2*
X58096D1*
X64255D2*
X65269D1*
X71647D2*
X94162D1*
X96620D2*
X99966D1*
X11049Y47609D2*
X13497D1*
X17265D2*
X33182D1*
X39738D2*
X48134D1*
X57389D2*
X58096D1*
X64196D2*
X65180D1*
X71736D2*
X93358D1*
X97424D2*
X99966D1*
X11049Y46977D2*
X13040D1*
X17721D2*
X33212D1*
X39708D2*
X47509D1*
X57240D2*
X58096D1*
X64196D2*
X65210D1*
X71706D2*
X92971D1*
X97811D2*
X99966D1*
X11049Y46345D2*
X12802D1*
X17950D2*
X33380D1*
X39540D2*
X46874D1*
X49372D2*
X58096D1*
X64196D2*
X65378D1*
X71538D2*
X75876D1*
X78949D2*
X84131D1*
X87204D2*
X92782D1*
X97989D2*
X99966D1*
X11049Y45714D2*
X12753D1*
X18009D2*
X33698D1*
X39222D2*
X46239D1*
X48737D2*
X58096D1*
X61070D2*
X61906D1*
X63709D2*
X65696D1*
X71220D2*
X75876D1*
X78949D2*
X84131D1*
X87204D2*
X92763D1*
X98009D2*
X99966D1*
X11049Y45082D2*
X12842D1*
X17910D2*
X34233D1*
X38676D2*
X45614D1*
X48102D2*
X61707D1*
X63918D2*
X66241D1*
X70675D2*
X75876D1*
X78949D2*
X84131D1*
X87204D2*
X92911D1*
X97870D2*
X99966D1*
X11049Y44450D2*
X13130D1*
X17632D2*
X35285D1*
X37635D2*
X44503D1*
X47477D2*
X61568D1*
X64057D2*
X67283D1*
X69633D2*
X75876D1*
X78949D2*
X84131D1*
X87204D2*
X93239D1*
X97543D2*
X99966D1*
X11049Y43819D2*
X13675D1*
X17086D2*
X44264D1*
X46842D2*
X61796D1*
X63819D2*
X75876D1*
X78949D2*
X84131D1*
X87204D2*
X93894D1*
X96888D2*
X99966D1*
X11049Y43187D2*
X44393D1*
X46614D2*
X99966D1*
X11049Y42556D2*
X45346D1*
X45669D2*
X99966D1*
X11049Y41924D2*
X99966D1*
X11049Y41292D2*
X99966D1*
X11049Y40661D2*
X99966D1*
X11049Y40029D2*
X99966D1*
X11049Y39397D2*
X99966D1*
X11049Y38766D2*
X99966D1*
X11049Y38134D2*
X99966D1*
X11049Y37502D2*
X99966D1*
X11049Y36870D2*
X99966D1*
X11049Y36239D2*
X99966D1*
X11049Y35607D2*
X99966D1*
X11049Y34976D2*
X12326D1*
X14229D2*
X16533D1*
X18436D2*
X92048D1*
X94537D2*
X96245D1*
X98734D2*
X99966D1*
X11049Y34344D2*
X11512D1*
X15043D2*
X15719D1*
X19249D2*
X91413D1*
X95172D2*
X95610D1*
X99369D2*
X99966D1*
X19597Y33712D2*
X91125D1*
X99656D2*
X99958D1*
X19716Y33081D2*
X91056D1*
X99726D2*
X99962D1*
X19646Y32449D2*
X91175D1*
X99607D2*
X99966D1*
X11049Y31817D2*
X11393D1*
X15172D2*
X15590D1*
X19369D2*
X91512D1*
X95072D2*
X95709D1*
X99269D2*
X99966D1*
X11049Y31186D2*
X12008D1*
X14546D2*
X16215D1*
X18753D2*
X92306D1*
X94279D2*
X96503D1*
X98476D2*
X99966D1*
X11049Y30554D2*
X93110D1*
X95697D2*
X96513D1*
X99101D2*
X99966D1*
X11049Y29922D2*
X92644D1*
X99577D2*
X99966D1*
X11049Y29290D2*
X92475D1*
X99736D2*
X99965D1*
X11049Y28659D2*
X92534D1*
X99676D2*
X99964D1*
X11049Y28027D2*
X92842D1*
X95975D2*
X96247D1*
X99369D2*
X99966D1*
X11049Y27395D2*
X93675D1*
X95142D2*
X97069D1*
X98535D2*
X99966D1*
X11049Y26764D2*
X72185D1*
X75665D2*
X88189D1*
X91659D2*
X99966D1*
X11049Y26132D2*
X71619D1*
X76231D2*
X87613D1*
X92235D2*
X99966D1*
X11049Y25500D2*
X71321D1*
X76528D2*
X87315D1*
X92532D2*
X99966D1*
X11049Y24869D2*
X71192D1*
X76657D2*
X87196D1*
X92651D2*
X99966D1*
X11049Y24237D2*
X71222D1*
X76628D2*
X87226D1*
X92622D2*
X99966D1*
X11049Y23605D2*
X71411D1*
X76439D2*
X87415D1*
X92433D2*
X99966D1*
X11049Y22974D2*
X71808D1*
X76042D2*
X87802D1*
X92046D2*
X99966D1*
X11049Y22342D2*
X72572D1*
X75278D2*
X88566D1*
X91282D2*
X99966D1*
X11049Y21710D2*
X99966D1*
X11049Y21079D2*
X97485D1*
X98128D2*
X99966D1*
X11049Y20447D2*
X93021D1*
X95797D2*
X96325D1*
X99289D2*
X99966D1*
X11049Y19816D2*
X92604D1*
X99646D2*
X99975D1*
X11049Y19184D2*
X16821D1*
X19894D2*
X25393D1*
X28467D2*
X92475D1*
X99746D2*
X99969D1*
X11049Y18552D2*
X16821D1*
X19894D2*
X25393D1*
X28467D2*
X35335D1*
X37357D2*
X67442D1*
X69474D2*
X92564D1*
X99617D2*
X99966D1*
X11049Y17921D2*
X16821D1*
X19894D2*
X25393D1*
X28467D2*
X34194D1*
X38508D2*
X66301D1*
X70615D2*
X92911D1*
X95906D2*
X96394D1*
X99210D2*
X99966D1*
X11049Y17289D2*
X16821D1*
X19894D2*
X25393D1*
X28467D2*
X33628D1*
X39073D2*
X51577D1*
X54036D2*
X65735D1*
X71181D2*
X93973D1*
X94844D2*
X99966D1*
X11049Y16657D2*
X25393D1*
X28467D2*
X33291D1*
X39411D2*
X50783D1*
X54839D2*
X65398D1*
X71518D2*
X99966D1*
X11049Y16026D2*
X33112D1*
X39589D2*
X50386D1*
X55226D2*
X65219D1*
X71696D2*
X99966D1*
X11049Y15394D2*
X33063D1*
X39629D2*
X50208D1*
X55415D2*
X65180D1*
X71736D2*
X99966D1*
X11049Y14762D2*
X33142D1*
X39550D2*
X50188D1*
X55434D2*
X65249D1*
X71667D2*
X99966D1*
X11049Y14130D2*
X33360D1*
X39341D2*
X50327D1*
X55296D2*
X65468D1*
X71448D2*
X99966D1*
X11049Y13499D2*
X11522D1*
X12493D2*
X33737D1*
X38954D2*
X50654D1*
X54958D2*
X65854D1*
X71061D2*
X99966D1*
X13296Y12867D2*
X34392D1*
X38299D2*
X51309D1*
X54313D2*
X66499D1*
X70417D2*
X99966D1*
X13495Y12236D2*
X99966D1*
X13396Y11604D2*
X99966D1*
X76260Y46633D2*
X78888D1*
Y43688D1*
X75943D1*
Y46633D1*
X76260D1*
X84515D2*
X87143D1*
Y43688D1*
X84198D1*
Y46633D1*
X84515D1*
X62064Y49985D2*
X64192D1*
Y47639D1*
X64143D1*
X64136Y45949D1*
X63650D1*
X63648Y45362D1*
X63760Y45228D1*
X63912Y44951D1*
X63991Y44526D1*
X63949Y44212D1*
X63825Y43921D1*
X63628Y43673D1*
X63372Y43487D1*
X63076Y43375D1*
X62760Y43346D1*
X62449Y43401D1*
X62163Y43538D1*
X61924Y43745D1*
X61749Y44009D1*
X61650Y44309D1*
X61634Y44625D1*
X61703Y44934D1*
X61851Y45214D1*
X61967Y45336D1*
X61973Y45944D1*
X61690Y45959D1*
X61483Y45949D1*
X60997D1*
X61002Y45645D1*
X58156D1*
Y48291D1*
X61740Y48295D1*
X61746Y49985D1*
X62064D1*
X25778Y19487D2*
X28406D1*
Y16541D1*
X25460D1*
Y19487D1*
X25778D1*
X17205Y19646D2*
X19833D1*
Y16700D1*
X16888D1*
Y19646D1*
X17205D1*
X19630Y32677D2*
X19561Y32367D1*
X19448Y32071D1*
X19293Y31794D1*
X19099Y31543D1*
X18870Y31323D1*
X18613Y31138D1*
X18330Y30993D1*
X18030Y30891D1*
X17718Y30833D1*
X17401Y30822D1*
X17086Y30856D1*
X16779Y30936D1*
X16487Y31061D1*
X16216Y31226D1*
X15972Y31429D1*
X15761Y31665D1*
X15586Y31929D1*
X15451Y32217D1*
X15385Y32435D1*
X15248Y32071D1*
X15093Y31794D1*
X14899Y31543D1*
X14670Y31323D1*
X14413Y31138D1*
X14130Y30993D1*
X13830Y30891D1*
X13518Y30833D1*
X13201Y30822D1*
X12886Y30856D1*
X12579Y30936D1*
X12287Y31061D1*
X12016Y31226D1*
X11772Y31429D1*
X11561Y31665D1*
X11386Y31929D1*
X11251Y32217D1*
X11160Y32520D1*
X11113Y32834D1*
Y33151D1*
X11160Y33465D1*
X11251Y33769D1*
X11386Y34056D1*
X11561Y34321D1*
X11772Y34557D1*
X12016Y34760D1*
X12287Y34925D1*
X12579Y35049D1*
X12886Y35130D1*
X13201Y35164D1*
X13518Y35153D1*
X13830Y35095D1*
X14130Y34993D1*
X14412Y34848D1*
X14670Y34663D1*
X14899Y34443D1*
X15093Y34192D1*
X15248Y33916D1*
X15376Y33551D1*
X15586Y34056D1*
X15761Y34321D1*
X15972Y34557D1*
X16216Y34760D1*
X16487Y34925D1*
X16779Y35049D1*
X17086Y35130D1*
X17401Y35164D1*
X17718Y35153D1*
X18030Y35095D1*
X18330Y34993D1*
X18612Y34848D1*
X18870Y34663D1*
X19099Y34443D1*
X19293Y34192D1*
X19448Y33916D1*
X19561Y33619D1*
X19630Y33310D1*
X19653Y32993D1*
X19630Y32677D1*
X17932Y45476D2*
X17873Y45164D1*
X17777Y44862D1*
X17644Y44574D1*
X17477Y44304D1*
X17277Y44058D1*
X17049Y43837D1*
X16795Y43647D1*
X16520Y43489D1*
X16228Y43366D1*
X15922Y43280D1*
X15608Y43232D1*
X15291Y43224D1*
X14975Y43254D1*
X14666Y43324D1*
X14367Y43430D1*
X14084Y43573D1*
X13820Y43750D1*
X13580Y43958D1*
X13368Y44193D1*
X13186Y44453D1*
X13038Y44734D1*
X12925Y45031D1*
X12850Y45339D1*
X12813Y45654D1*
X12816Y45971D1*
X12857Y46286D1*
X12937Y46593D1*
X13054Y46888D1*
X13207Y47166D1*
X13393Y47423D1*
X13609Y47656D1*
X13852Y47860D1*
X14118Y48032D1*
X14403Y48171D1*
X14704Y48273D1*
X15014Y48338D1*
X15331Y48363D1*
X15648Y48350D1*
X15961Y48297D1*
X16265Y48207D1*
X16555Y48080D1*
X16828Y47917D1*
X17079Y47723D1*
X17304Y47499D1*
X17499Y47249D1*
X17662Y46977D1*
X17791Y46687D1*
X17883Y46383D1*
X17936Y46070D1*
X17951Y45793D1*
X17932Y45476D1*
X99640Y32835D2*
X99571Y32526D1*
X99458Y32229D1*
X99303Y31953D1*
X99109Y31702D1*
X98880Y31482D1*
X98623Y31297D1*
X98340Y31152D1*
X98040Y31050D1*
X97855Y31015D1*
X98185Y30978D1*
X98489Y30888D1*
X98773Y30748D1*
X99030Y30562D1*
X99252Y30335D1*
X99432Y30074D1*
X99565Y29786D1*
X99648Y29480D1*
X99679Y29144D1*
X99652Y28828D1*
X99572Y28521D1*
X99442Y28232D1*
X99264Y27969D1*
X99045Y27740D1*
X98791Y27551D1*
X98508Y27408D1*
X98205Y27314D1*
X97890Y27273D1*
X97573Y27286D1*
X97263Y27352D1*
X96969Y27469D1*
X96698Y27634D1*
X96459Y27843D1*
X96259Y28089D1*
X96108Y28356D1*
X95864Y27969D1*
X95645Y27740D1*
X95391Y27551D1*
X95108Y27408D1*
X94805Y27314D1*
X94490Y27273D1*
X94173Y27286D1*
X93863Y27352D1*
X93569Y27469D1*
X93298Y27634D1*
X93059Y27843D1*
X92859Y28089D1*
X92703Y28365D1*
X92596Y28663D1*
X92541Y28976D1*
X92539Y29293D1*
X92591Y29605D1*
X92695Y29905D1*
X92847Y30183D1*
X93045Y30431D1*
X93282Y30642D1*
X93550Y30810D1*
X93844Y30931D1*
X94153Y31000D1*
X94470Y31016D1*
X94785Y30978D1*
X95089Y30888D1*
X95373Y30748D1*
X95630Y30562D1*
X95852Y30335D1*
X96032Y30074D1*
X96103Y29921D1*
X96247Y30183D1*
X96445Y30431D1*
X96682Y30642D1*
X96950Y30810D1*
X97244Y30931D1*
X97411Y30980D1*
X97096Y31015D1*
X96789Y31095D1*
X96497Y31219D1*
X96226Y31385D1*
X95982Y31587D1*
X95771Y31824D1*
X95596Y32088D1*
X95461Y32375D1*
X95395Y32594D1*
X95258Y32229D1*
X95103Y31953D1*
X94909Y31702D1*
X94680Y31482D1*
X94422Y31297D1*
X94140Y31152D1*
X93840Y31050D1*
X93528Y30992D1*
X93211Y30980D1*
X92896Y31015D1*
X92589Y31095D1*
X92297Y31219D1*
X92026Y31385D1*
X91782Y31587D1*
X91571Y31824D1*
X91396Y32088D1*
X91261Y32375D1*
X91170Y32679D1*
X91123Y32993D1*
Y33310D1*
X91170Y33624D1*
X91261Y33928D1*
X91396Y34215D1*
X91571Y34480D1*
X91782Y34716D1*
X92026Y34919D1*
X92297Y35084D1*
X92589Y35208D1*
X92896Y35288D1*
X93211Y35323D1*
X93528Y35312D1*
X93840Y35254D1*
X94140Y35152D1*
X94422Y35007D1*
X94680Y34822D1*
X94909Y34602D1*
X95103Y34351D1*
X95258Y34074D1*
X95386Y33710D1*
X95596Y34215D1*
X95771Y34480D1*
X95982Y34716D1*
X96226Y34919D1*
X96497Y35084D1*
X96789Y35208D1*
X97096Y35288D1*
X97411Y35323D1*
X97728Y35312D1*
X98040Y35254D1*
X98340Y35152D1*
X98622Y35007D1*
X98880Y34822D1*
X99109Y34602D1*
X99303Y34351D1*
X99458Y34074D1*
X99571Y33778D1*
X99640Y33468D1*
X99663Y33152D1*
X99640Y32835D1*
X97942Y45635D2*
X97883Y45323D1*
X97787Y45021D1*
X97654Y44733D1*
X97487Y44463D1*
X97287Y44216D1*
X97059Y43996D1*
X96805Y43805D1*
X96530Y43647D1*
X96238Y43524D1*
X95932Y43439D1*
X95618Y43391D1*
X95301Y43382D1*
X94985Y43413D1*
X94676Y43482D1*
X94377Y43589D1*
X94094Y43732D1*
X93830Y43909D1*
X93590Y44116D1*
X93378Y44352D1*
X93196Y44612D1*
X93048Y44893D1*
X92935Y45189D1*
X92860Y45498D1*
X92823Y45813D1*
X92826Y46130D1*
X92867Y46445D1*
X92947Y46752D1*
X93064Y47047D1*
X93217Y47325D1*
X93403Y47582D1*
X93619Y47815D1*
X93862Y48019D1*
X94128Y48191D1*
X94413Y48330D1*
X94714Y48432D1*
X95024Y48496D1*
X95341Y48522D1*
X95658Y48509D1*
X95971Y48456D1*
X96275Y48366D1*
X96565Y48238D1*
X96838Y48076D1*
X97089Y47882D1*
X97314Y47658D1*
X97509Y47408D1*
X97672Y47136D1*
X97801Y46846D1*
X97893Y46542D1*
X97946Y46229D1*
X97961Y45952D1*
X97942Y45635D1*
X13398Y11826D2*
X13294Y11526D1*
X13126Y11258D1*
X12828Y10985D1*
X100031Y10986D1*
Y52030D1*
X10986D1*
Y13127D1*
X11098Y13232D1*
X11363Y13407D1*
X11659Y13519D1*
X11973Y13563D1*
X12288Y13536D1*
X12590Y13440D1*
X12864Y13279D1*
X13094Y13062D1*
X13272Y12800D1*
X13386Y12504D1*
X13433Y12141D1*
X13398Y11826D1*
X76579Y24364D2*
X76523Y24052D1*
X76430Y23749D1*
X76302Y23458D1*
X76140Y23185D1*
X75947Y22933D1*
X75726Y22706D1*
X75479Y22506D1*
X75210Y22338D1*
X74924Y22202D1*
X74623Y22101D1*
X74312Y22036D1*
X73996Y22009D1*
X73679Y22020D1*
X73365Y22067D1*
X73059Y22152D1*
X72766Y22273D1*
X72489Y22427D1*
X72232Y22613D1*
X71998Y22828D1*
X71792Y23070D1*
X71616Y23334D1*
X71473Y23617D1*
X71364Y23915D1*
X71291Y24224D1*
X71256Y24539D1*
X71258Y24856D1*
X71297Y25171D1*
X71374Y25479D1*
X71486Y25776D1*
X71633Y26057D1*
X71813Y26319D1*
X72022Y26558D1*
X72257Y26770D1*
X72517Y26953D1*
X72796Y27104D1*
X73091Y27220D1*
X73398Y27301D1*
X73712Y27345D1*
X74029Y27352D1*
X74345Y27321D1*
X74655Y27252D1*
X74954Y27148D1*
X75239Y27008D1*
X75506Y26836D1*
X75750Y26634D1*
X75969Y26404D1*
X76159Y26149D1*
X76317Y25874D1*
X76441Y25582D1*
X76530Y25278D1*
X76583Y24965D1*
X76598Y24681D1*
X76579Y24364D1*
X92579D2*
X92523Y24052D1*
X92430Y23749D1*
X92302Y23458D1*
X92140Y23185D1*
X91947Y22933D1*
X91726Y22706D1*
X91479Y22506D1*
X91210Y22338D1*
X90924Y22202D1*
X90623Y22101D1*
X90312Y22036D1*
X89996Y22009D1*
X89679Y22020D1*
X89365Y22067D1*
X89059Y22152D1*
X88766Y22273D1*
X88489Y22427D1*
X88232Y22613D1*
X87998Y22828D1*
X87792Y23070D1*
X87616Y23334D1*
X87473Y23617D1*
X87364Y23915D1*
X87291Y24224D1*
X87256Y24539D1*
X87258Y24856D1*
X87297Y25171D1*
X87374Y25479D1*
X87486Y25776D1*
X87633Y26057D1*
X87813Y26319D1*
X88022Y26558D1*
X88257Y26770D1*
X88517Y26953D1*
X88796Y27104D1*
X89091Y27220D1*
X89398Y27301D1*
X89712Y27345D1*
X90029Y27352D1*
X90345Y27321D1*
X90655Y27252D1*
X90954Y27148D1*
X91239Y27008D1*
X91506Y26836D1*
X91750Y26634D1*
X91969Y26404D1*
X92159Y26149D1*
X92317Y25874D1*
X92441Y25582D1*
X92530Y25278D1*
X92583Y24965D1*
X92598Y24681D1*
X92579Y24364D1*
X71663Y47157D2*
X71539Y46536D1*
X71295Y45950D1*
X70942Y45424D1*
X70492Y44977D1*
X69964Y44627D1*
X69377Y44387D1*
X68754Y44267D1*
X68120Y44271D1*
X67499Y44399D1*
X66916Y44647D1*
X66392Y45004D1*
X65948Y45456D1*
X65601Y45987D1*
X65365Y46575D1*
X65249Y47199D1*
X65257Y47832D1*
X65389Y48453D1*
X65640Y49035D1*
X66001Y49556D1*
X66456Y49997D1*
X66989Y50341D1*
X67579Y50573D1*
X68203Y50685D1*
X68837Y50673D1*
X69456Y50537D1*
X70037Y50282D1*
X70556Y49918D1*
X70994Y49460D1*
X71334Y48925D1*
X71562Y48333D1*
X71670Y47709D1*
X71663Y47157D1*
X39663D2*
X39539Y46536D1*
X39295Y45950D1*
X38942Y45424D1*
X38492Y44977D1*
X37964Y44627D1*
X37377Y44387D1*
X36754Y44267D1*
X36120Y44271D1*
X35500Y44399D1*
X34916Y44647D1*
X34392Y45004D1*
X33948Y45456D1*
X33601Y45987D1*
X33365Y46575D1*
X33249Y47199D1*
X33257Y47832D1*
X33389Y48453D1*
X33640Y49035D1*
X34001Y49556D1*
X34456Y49997D1*
X34989Y50341D1*
X35579Y50573D1*
X36203Y50685D1*
X36837Y50673D1*
X37456Y50537D1*
X38036Y50282D1*
X38556Y49918D1*
X38994Y49460D1*
X39334Y48925D1*
X39562Y48333D1*
X39670Y47709D1*
X39663Y47157D1*
X71663Y15157D2*
X71539Y14536D1*
X71295Y13950D1*
X70942Y13424D1*
X70492Y12977D1*
X69964Y12627D1*
X69377Y12387D1*
X68754Y12267D1*
X68120Y12271D1*
X67499Y12399D1*
X66916Y12647D1*
X66392Y13004D1*
X65948Y13456D1*
X65601Y13987D1*
X65365Y14575D1*
X65249Y15199D1*
X65257Y15832D1*
X65389Y16453D1*
X65640Y17035D1*
X66001Y17556D1*
X66456Y17997D1*
X66989Y18341D1*
X67579Y18573D1*
X68203Y18685D1*
X68837Y18673D1*
X69456Y18537D1*
X70037Y18282D1*
X70556Y17918D1*
X70994Y17460D1*
X71334Y16925D1*
X71562Y16333D1*
X71670Y15709D1*
X71663Y15157D1*
X39553D2*
X39429Y14536D1*
X39185Y13950D1*
X38832Y13424D1*
X38382Y12977D1*
X37854Y12627D1*
X37267Y12387D1*
X36644Y12267D1*
X36010Y12271D1*
X35389Y12399D1*
X34806Y12647D1*
X34282Y13004D1*
X33838Y13456D1*
X33491Y13987D1*
X33255Y14575D1*
X33139Y15199D1*
X33147Y15832D1*
X33279Y16453D1*
X33530Y17035D1*
X33891Y17556D1*
X34346Y17997D1*
X34879Y18341D1*
X35469Y18573D1*
X36093Y18685D1*
X36727Y18673D1*
X37346Y18537D1*
X37926Y18282D1*
X38446Y17918D1*
X38884Y17460D1*
X39224Y16925D1*
X39452Y16333D1*
X39560Y15709D1*
X39553Y15157D1*
X55361Y14681D2*
X55302Y14369D1*
X55206Y14067D1*
X55073Y13779D1*
X54905Y13509D1*
X54706Y13263D1*
X54478Y13042D1*
X54224Y12852D1*
X53949Y12694D1*
X53656Y12571D1*
X53351Y12485D1*
X53037Y12437D1*
X52720Y12429D1*
X52404Y12459D1*
X52095Y12529D1*
X51796Y12635D1*
X51512Y12778D1*
X51249Y12955D1*
X51009Y13163D1*
X50797Y13398D1*
X50615Y13658D1*
X50467Y13939D1*
X50354Y14236D1*
X50279Y14544D1*
X50242Y14859D1*
X50245Y15176D1*
X50286Y15491D1*
X50366Y15798D1*
X50483Y16093D1*
X50636Y16371D1*
X50821Y16628D1*
X51038Y16861D1*
X51280Y17065D1*
X51547Y17237D1*
X51832Y17376D1*
X52133Y17478D1*
X52443Y17543D1*
X52760Y17568D1*
X53077Y17555D1*
X53389Y17503D1*
X53694Y17412D1*
X53984Y17285D1*
X54257Y17122D1*
X54508Y16928D1*
X54732Y16704D1*
X54928Y16454D1*
X55091Y16182D1*
X55220Y15892D1*
X55311Y15588D1*
X55365Y15275D1*
X55380Y14998D1*
X55361Y14681D1*
X96127Y18402D2*
X96042Y18212D1*
X95864Y17949D1*
X95645Y17720D1*
X95391Y17531D1*
X95108Y17388D1*
X94805Y17294D1*
X94490Y17253D1*
X94173Y17266D1*
X93863Y17332D1*
X93569Y17449D1*
X93298Y17614D1*
X93059Y17823D1*
X92859Y18069D1*
X92703Y18345D1*
X92596Y18643D1*
X92541Y18956D1*
X92539Y19273D1*
X92591Y19585D1*
X92695Y19885D1*
X92847Y20163D1*
X93045Y20411D1*
X93282Y20622D1*
X93550Y20790D1*
X93844Y20911D1*
X94153Y20980D1*
X94470Y20996D1*
X94785Y20958D1*
X95089Y20868D1*
X95373Y20728D1*
X95630Y20542D1*
X95852Y20315D1*
X96078Y19955D1*
X96247Y20263D1*
X96445Y20511D1*
X96682Y20722D1*
X96950Y20890D1*
X97244Y21011D1*
X97553Y21080D1*
X97870Y21096D1*
X98185Y21058D1*
X98489Y20968D1*
X98773Y20828D1*
X99030Y20642D1*
X99252Y20415D1*
X99432Y20154D1*
X99565Y19866D1*
X99648Y19560D1*
X99679Y19224D1*
X99652Y18908D1*
X99572Y18601D1*
X99442Y18312D1*
X99264Y18049D1*
X99045Y17820D1*
X98791Y17631D1*
X98508Y17488D1*
X98205Y17394D1*
X97890Y17353D1*
X97573Y17366D1*
X97263Y17432D1*
X96969Y17549D1*
X96698Y17714D1*
X96459Y17923D1*
X96259Y18169D1*
X96127Y18402D1*
X55320Y46704D2*
X49664D1*
X46689Y43729D1*
X46645Y43418D1*
X46521Y43127D1*
X46324Y42879D1*
X46068Y42693D1*
X45772Y42581D1*
X45457Y42552D1*
X45145Y42608D1*
X44859Y42744D1*
X44620Y42951D1*
X44445Y43215D1*
X44346Y43516D1*
X44330Y43832D1*
X44399Y44141D1*
X44547Y44420D1*
X44765Y44650D1*
X45035Y44815D1*
X45340Y44901D1*
X45488Y44902D1*
X48724Y48134D1*
X48985Y48311D1*
X49317Y48380D1*
X55319D1*
X55401Y48460D1*
X55672Y48625D1*
X55976Y48711D1*
X56293Y48713D1*
X56599Y48631D1*
X56872Y48471D1*
X57092Y48244D1*
X57245Y47967D1*
X57324Y47542D1*
X57281Y47228D1*
X57157Y46937D1*
X56960Y46689D1*
X56704Y46503D1*
X56408Y46391D1*
X56093Y46362D1*
X55781Y46418D1*
X55496Y46554D1*
X55324Y46703D1*
D17*
X77415Y50240D3*
D18*
Y45160D3*
D17*
X85671Y50240D3*
D18*
Y45160D3*
D19*
X62969Y48812D3*
X61269D3*
X62913Y47122D3*
X61213D3*
D17*
X26933Y12934D3*
D18*
Y18014D3*
D17*
X18361Y13093D3*
D18*
Y18173D3*
D23*
X13281Y38493D3*
D24*
X17481D3*
Y32993D3*
X13281D3*
D23*
X93291Y38652D3*
D24*
X97490D3*
Y33152D3*
X93291D3*
D25*
X12010Y14141D3*
D26*
Y12141D3*
D28*
X73925Y24681D3*
X89925D3*
D33*
X59579Y46968D3*
Y48868D3*
D37*
X40744Y47700D3*
Y45796D3*
X92179Y12141D3*
X95513D3*
X58683Y51193D3*
X60747D3*
D38*
X94406Y19124D3*
Y29144D3*
X97806D3*
Y19224D3*
M02*
