G04 DipTrace 2.4.0.2*
%INBoost_converter.GBO*%
%MOMM*%
%ADD10C,0.25*%
%ADD20O,0.39X0.391*%
%FSLAX53Y53*%
G04*
G71*
G90*
G75*
G01*
%LNBotSilk*%
%LPD*%
X72458Y51474D2*
D10*
X32458D1*
Y11474D1*
X72458D1*
Y51474D1*
G36*
X85607Y31051D2*
Y31660D1*
X85175Y31914D1*
X83727D1*
X83296Y31660D1*
Y31051D1*
D1*
X85607D1*
G37*
G36*
X85175Y32219D2*
Y32778D1*
X84896Y32956D1*
Y36664D1*
X84693Y36613D1*
X84007Y35521D1*
Y32956D1*
X83727Y32778D1*
Y32219D1*
X85175D1*
G37*
G36*
X84515Y36842D2*
X84820Y36944D1*
X85099Y37198D1*
X85201Y37579D1*
X85099Y37960D1*
X84820Y38239D1*
X84464Y38341D1*
X84083Y38239D1*
X83804Y37960D1*
X83702Y37579D1*
X83778Y37299D1*
X81467Y33540D1*
X81162Y33438D1*
X80883Y33159D1*
X80781Y32778D1*
X80883Y32422D1*
X81162Y32143D1*
X81543Y32041D1*
X81924Y32143D1*
X82203Y32422D1*
X82305Y32803D1*
X82229Y33108D1*
X84515Y36842D1*
G37*
G36*
X81391Y33921D2*
X81314Y33794D1*
X80984Y33692D1*
X80705Y33362D1*
X79359Y35597D1*
Y36893D1*
X79511Y37020D1*
D1*
X81391Y33921D1*
G37*
G36*
X79079Y36994D2*
X79282Y37198D1*
X79409Y37579D1*
X79308Y37960D1*
X79028Y38239D1*
X78647Y38341D1*
X78266Y38239D1*
X77987Y37960D1*
X77885Y37579D1*
X77987Y37223D1*
X78216Y36994D1*
Y34023D1*
X78647Y34150D1*
X79079Y34023D1*
Y36994D1*
G37*
G36*
X79435Y32930D2*
X79409Y32803D1*
X79105Y32473D1*
X79003Y32448D1*
X79079Y32372D1*
Y31127D1*
X79511Y31051D1*
X79816Y32575D1*
X79435Y32930D1*
G37*
G36*
X79155Y33540D2*
X79232Y33235D1*
X79155Y32930D1*
X78927Y32702D1*
X78647Y32626D1*
X78495Y32676D1*
X78190Y32346D1*
X78216Y31127D1*
X77758Y31051D1*
X77479Y32575D1*
X78063Y33159D1*
X78038Y33261D1*
X78114Y33515D1*
X78343Y33743D1*
X78647Y33819D1*
X78952Y33743D1*
X79155Y33540D1*
G37*
X66515Y32748D2*
D20*
Y30805D1*
X66636Y30440D1*
X66760Y30319D1*
X67001Y30195D1*
X67245D1*
X67487Y30319D1*
X67608Y30440D1*
X67731Y30805D1*
Y31046D1*
X65731Y31897D2*
Y30681D1*
X65610Y30319D1*
X65366Y30195D1*
X65001D1*
X64760Y30319D1*
X64395Y30681D1*
Y31897D2*
Y30195D1*
X63610Y31897D2*
Y30195D1*
Y31411D2*
X63245Y31776D1*
X63001Y31897D1*
X62639D1*
X62395Y31776D1*
X62274Y31411D1*
Y30195D1*
X59021Y32748D2*
X58049Y31532D1*
Y30195D1*
X57078Y32748D2*
X58049Y31532D1*
X56173Y30440D2*
X56293Y30316D1*
X56173Y30195D1*
X56049Y30316D1*
X56173Y30440D1*
X51094Y32383D2*
X51336Y32627D1*
X51701Y32748D1*
X52187D1*
X52552Y32627D1*
X52796Y32383D1*
Y32141D1*
X52672Y31897D1*
X52552Y31776D1*
X52310Y31655D1*
X51580Y31411D1*
X51336Y31290D1*
X51215Y31167D1*
X51094Y30925D1*
Y30560D1*
X51336Y30319D1*
X51701Y30195D1*
X52187D1*
X52552Y30319D1*
X52796Y30560D1*
X50310Y32748D2*
Y30195D1*
Y31411D2*
X49945Y31776D1*
X49701Y31897D1*
X49336D1*
X49094Y31776D1*
X48974Y31411D1*
Y30195D1*
X48189Y32748D2*
X48069Y32627D1*
X47945Y32748D1*
X48069Y32871D1*
X48189Y32748D1*
X48069Y31897D2*
Y30195D1*
X47161Y31897D2*
Y30195D1*
Y31411D2*
X46796Y31776D1*
X46551Y31897D1*
X46189D1*
X45945Y31776D1*
X45824Y31411D1*
Y30195D1*
X68064Y36863D2*
X67819Y36986D1*
X67454Y37349D1*
Y34799D1*
X66547Y36742D2*
Y36863D1*
X66426Y37107D1*
X66305Y37228D1*
X66061Y37349D1*
X65575D1*
X65334Y37228D1*
X65213Y37107D1*
X65089Y36863D1*
Y36621D1*
X65213Y36377D1*
X65454Y36015D1*
X66670Y34799D1*
X64969D1*
X64184Y37351D2*
X63213Y34799D1*
X62241Y37351D1*
X61457Y34799D2*
X59756Y37349D1*
X58971Y36863D2*
X58727Y36986D1*
X58362Y37349D1*
Y34799D1*
X56121Y36986D2*
X56241Y37228D1*
X56606Y37349D1*
X56848D1*
X57213Y37228D1*
X57457Y36863D1*
X57578Y36256D1*
Y35650D1*
X57457Y35164D1*
X57213Y34920D1*
X56848Y34799D1*
X56727D1*
X56365Y34920D1*
X56121Y35164D1*
X56000Y35529D1*
Y35650D1*
X56121Y36015D1*
X56365Y36256D1*
X56727Y36377D1*
X56848D1*
X57213Y36256D1*
X57457Y36015D1*
X57578Y35650D1*
X55215Y37351D2*
X54244Y34799D1*
X53273Y37351D1*
X49654D2*
Y35285D1*
X49534Y34923D1*
X49289Y34799D1*
X49048D1*
X50019Y36501D2*
X49169D1*
X47657D2*
X47899Y36380D1*
X48143Y36136D1*
X48264Y35771D1*
Y35529D1*
X48143Y35164D1*
X47899Y34923D1*
X47657Y34799D1*
X47292D1*
X47048Y34923D1*
X46806Y35164D1*
X46683Y35529D1*
Y35771D1*
X46806Y36136D1*
X47048Y36380D1*
X47292Y36501D1*
X47657D1*
X43430Y36863D2*
X43185Y36986D1*
X42820Y37349D1*
Y34799D1*
X40455Y36501D2*
X40579Y36136D1*
X40820Y35891D1*
X41185Y35771D1*
X41306D1*
X41671Y35891D1*
X41912Y36136D1*
X42036Y36501D1*
Y36621D1*
X41912Y36986D1*
X41671Y37228D1*
X41306Y37349D1*
X41185D1*
X40820Y37228D1*
X40579Y36986D1*
X40455Y36501D1*
Y35891D1*
X40579Y35285D1*
X40820Y34920D1*
X41185Y34799D1*
X41427D1*
X41792Y34920D1*
X41912Y35164D1*
X39671Y37351D2*
X38699Y34799D1*
X37728Y37351D1*
X67997Y27852D2*
Y27973D1*
X67876Y28217D1*
X67755Y28338D1*
X67511Y28459D1*
X67025D1*
X66784Y28338D1*
X66663Y28217D1*
X66540Y27973D1*
Y27731D1*
X66663Y27487D1*
X66905Y27125D1*
X68120Y25909D1*
X66419D1*
X64904Y28459D2*
X65269Y28338D1*
X65514Y27973D1*
X65634Y27366D1*
Y27001D1*
X65514Y26395D1*
X65269Y26030D1*
X64904Y25909D1*
X64663D1*
X64298Y26030D1*
X64057Y26395D1*
X63933Y27001D1*
Y27366D1*
X64057Y27973D1*
X64298Y28338D1*
X64663Y28459D1*
X64904D1*
X64057Y27973D2*
X65514Y26395D1*
X63149Y27973D2*
X62904Y28096D1*
X62539Y28459D1*
Y25909D1*
X60298Y28459D2*
X61511D1*
X61632Y27366D1*
X61511Y27487D1*
X61146Y27611D1*
X60784D1*
X60419Y27487D1*
X60174Y27246D1*
X60054Y26881D1*
Y26639D1*
X60174Y26274D1*
X60419Y26030D1*
X60784Y25909D1*
X61146D1*
X61511Y26030D1*
X61632Y26153D1*
X61755Y26395D1*
X59269Y25909D2*
X57568Y28459D1*
X56660Y27852D2*
Y27973D1*
X56539Y28217D1*
X56419Y28338D1*
X56174Y28459D1*
X55689D1*
X55447Y28338D1*
X55326Y28217D1*
X55203Y27973D1*
Y27731D1*
X55326Y27487D1*
X55568Y27125D1*
X56784Y25909D1*
X55082D1*
X53568Y28459D2*
X53933Y28338D1*
X54177Y27973D1*
X54298Y27366D1*
Y27001D1*
X54177Y26395D1*
X53933Y26030D1*
X53568Y25909D1*
X53326D1*
X52961Y26030D1*
X52720Y26395D1*
X52596Y27001D1*
Y27366D1*
X52720Y27973D1*
X52961Y28338D1*
X53326Y28459D1*
X53568D1*
X52720Y27973D2*
X54177Y26395D1*
X51812Y27973D2*
X51568Y28096D1*
X51203Y28459D1*
Y25909D1*
X48961Y28096D2*
X49082Y28338D1*
X49447Y28459D1*
X49688D1*
X50053Y28338D1*
X50298Y27973D1*
X50418Y27366D1*
Y26760D1*
X50298Y26274D1*
X50053Y26030D1*
X49688Y25909D1*
X49568D1*
X49206Y26030D1*
X48961Y26274D1*
X48841Y26639D1*
Y26760D1*
X48961Y27125D1*
X49206Y27366D1*
X49568Y27487D1*
X49688D1*
X50053Y27366D1*
X50298Y27125D1*
X50418Y26760D1*
M02*
