G04 DipTrace 3.0.0.1*
G04 panel2.GTP*
%MOIN*%
G04 #@! TF.FileFunction,Paste,Top*
G04 #@! TF.Part,Single*
%ADD90R,0.07854X0.110824*%
%ADD98R,0.029328X0.045076*%
%ADD100R,0.054918X0.037202*%
%ADD120R,0.058855X0.03917*%
%ADD122R,0.03917X0.058855*%
%ADD128R,0.043107X0.03917*%
%FSLAX26Y26*%
G04*
G70*
G90*
G75*
G01*
G04 TopPaste*
%LPD*%
D128*
X852479Y1069017D3*
X785550D3*
X2796233Y1919016D3*
X2729303D3*
X2796233Y1731515D3*
X2729303D3*
D122*
X931197Y2972314D3*
X1057181D3*
Y3165227D3*
X931197D3*
X1206197Y2972314D3*
X1332181D3*
Y3165227D3*
X1206197D3*
X1481197Y2972314D3*
X1607181D3*
Y3165227D3*
X1481197D3*
X1756197Y2972314D3*
X1882181D3*
Y3165227D3*
X1756197D3*
X2031197Y2972314D3*
X2157181D3*
Y3165227D3*
X2031197D3*
X656196Y2972314D3*
X782180D3*
Y3165227D3*
X656196D3*
D120*
X2966589Y1882158D3*
Y1756173D3*
X3159503D3*
Y1882158D3*
D100*
X2369189Y3150464D3*
Y2987078D3*
D98*
X2309150Y3130778D3*
Y3006763D3*
X2429229D3*
Y3130778D3*
D90*
X1000246Y4122616D3*
X1390797Y4122576D3*
Y3865883D3*
X1000246Y3865834D3*
X2700246Y4122616D3*
X3090797Y4122576D3*
Y3865883D3*
X2700246Y3865834D3*
M02*
