G04 DipTrace 3.0.0.1*
G04 panel2.GML*
%MOIN*%
G04 #@! TF.FileFunction,Profile*
G04 #@! TF.Part,Single*
%ADD11C,0.005512*%
%FSLAX26Y26*%
G04*
G70*
G90*
G75*
G01*
G04 BoardOutline*
%LPD*%
X394016Y2394016D2*
D11*
X594016D1*
G03X594016Y2494016I0J50000D01*
G01*
X394016D1*
Y3644016D1*
X594016D1*
G03X594016Y3744016I0J50000D01*
G01*
X394016D1*
Y4244016D1*
X1994016D1*
Y4094016D1*
G03X2094016Y4094016I50000J0D01*
G01*
Y4244016D1*
X3694016D1*
Y3744016D1*
X3494016D1*
G03X3494016Y3644016I0J-50000D01*
G01*
X4294016D1*
Y2494016D1*
X4094016D1*
G03X4094016Y2394016I0J-50000D01*
G01*
X4294016D1*
Y394016D1*
X394016D1*
Y2394016D1*
X1994016Y3744016D2*
Y3894016D1*
G02X2094016Y3894016I50000J0D01*
G01*
Y3744016D1*
X1994016D2*
X1794016D1*
Y3644016D2*
X2294016D1*
Y3744016D2*
X2094016D1*
X1794016D2*
G03X1794016Y3644016I0J-50000D01*
G01*
X2294016D2*
G03X2294016Y3744016I0J50000D01*
G01*
X794016D2*
G03X794016Y3644016I0J-50000D01*
G01*
X1594016Y3744016D2*
G02X1594016Y3644016I0J-50000D01*
G01*
X794016Y3744016D2*
X1094016D1*
Y3644016D2*
X794016D1*
X1294016Y3744016D2*
X1594016D1*
Y3644016D2*
X1294016D1*
X1094016Y3744016D2*
G02X1094016Y3644016I0J-50000D01*
G01*
X1294016Y3744016D2*
G03X1294016Y3644016I0J-50000D01*
G01*
X2494016Y3744016D2*
G03X2494016Y3644016I0J-50000D01*
G01*
X3294016Y3744016D2*
G02X3294016Y3644016I0J-50000D01*
G01*
X2494016Y3744016D2*
X3294016D1*
Y3644016D2*
X2794016D1*
X2494016D2*
X2694016D1*
Y3444016D1*
X2794016Y3644016D2*
Y3444016D1*
X2694016D2*
G03X2794016Y3444016I50000J0D01*
G01*
X2694016Y2694016D2*
G02X2794016Y2694016I50000J0D01*
G01*
X2694016Y3244016D2*
G02X2794016Y3244016I50000J0D01*
G01*
X2694016Y2894016D2*
G03X2794016Y2894016I50000J0D01*
G01*
Y3244016D2*
Y2894016D1*
X2694016Y3244016D2*
Y2894016D1*
X2794016Y2694016D2*
Y2494016D1*
X2694016Y2694016D2*
Y2494016D1*
X2994016D2*
G02X2994016Y2394016I0J-50000D01*
G01*
X3194016Y2494016D2*
G03X3194016Y2394016I0J-50000D01*
G01*
X3894016Y2494016D2*
G02X3894016Y2394016I0J-50000D01*
G01*
X3194016Y2494016D2*
X3894016D1*
Y2394016D2*
X3194016D1*
X2994016D2*
X2494016D1*
G02X2494016Y2494016I0J50000D01*
G01*
X2694016D1*
X794016D2*
G03X794016Y2394016I0J-50000D01*
G01*
X2294016Y2494016D2*
G02X2294016Y2394016I0J-50000D01*
G01*
X1644016Y2494016D2*
G03X1644016Y2394016I0J-50000D01*
G01*
X1444016Y2494016D2*
G02X1444016Y2394016I0J-50000D01*
G01*
X1644016Y2494016D2*
X2294016D1*
Y2394016D2*
X1644016D1*
X1444016D2*
X794016D1*
Y2494016D2*
X1444016D1*
X2794016D2*
X2994016D1*
X2038104Y1875867D2*
X2549928D1*
Y1112163D1*
X2038104D1*
Y1875867D1*
X1238104D2*
X1749928D1*
Y1112163D1*
X1238104D1*
Y1875867D1*
X2721559Y1567047D2*
X3166473D1*
Y1070985D1*
X2721559D1*
Y1567047D1*
X3488106Y1875867D2*
X3999929D1*
Y1112163D1*
X3488106D1*
Y1875867D1*
M02*
