G04 DipTrace 3.0.0.1*
G04 panel2.GBP*
%MOIN*%
G04 #@! TF.FileFunction,Paste,Bot*
G04 #@! TF.Part,Single*
%ADD63R,0.07674X0.021622*%
%ADD69R,0.125953X0.082646*%
%ADD71R,0.035402X0.082646*%
%ADD73R,0.013748X0.068866*%
%ADD81R,0.084614X0.060992*%
%ADD83R,0.068866X0.025559*%
%ADD85R,0.072803X0.072803*%
%ADD87R,0.049181X0.055087*%
%ADD89R,0.053118X0.060992*%
%ADD91R,0.05115X0.013748*%
%ADD93R,0.060992X0.084614*%
%ADD95R,0.025559X0.068866*%
%ADD101R,0.053118X0.080677*%
%ADD103R,0.057055X0.049181*%
%ADD105R,0.041307X0.03737*%
%ADD107R,0.03737X0.041307*%
%ADD109R,0.178X0.178*%
%ADD111O,0.031465X0.009811*%
%ADD113O,0.009811X0.031465*%
%FSLAX26Y26*%
G04*
G70*
G90*
G75*
G01*
G04 BotPaste*
%LPD*%
D113*
X745589Y1731810D3*
X765275D3*
X784960D3*
X804645D3*
X824330D3*
X844015D3*
X863700D3*
X883385D3*
X903070D3*
X922755D3*
X942440D3*
D111*
X981810Y1692440D3*
Y1672755D3*
Y1653070D3*
Y1633385D3*
Y1613700D3*
Y1594015D3*
Y1574330D3*
Y1554645D3*
Y1534960D3*
Y1515275D3*
Y1495589D3*
D113*
X942440Y1456219D3*
X922755D3*
X903070D3*
X883385D3*
X863700D3*
X844015D3*
X824330D3*
X804645D3*
X784960D3*
X765275D3*
X745589D3*
D111*
X706219Y1495589D3*
Y1515275D3*
Y1534960D3*
Y1554645D3*
Y1574330D3*
Y1594015D3*
Y1613700D3*
Y1633385D3*
Y1653070D3*
Y1672755D3*
Y1692440D3*
D109*
X844015Y1594015D3*
D107*
X837813Y1848206D3*
Y1915135D3*
X1050334Y1698192D3*
Y1765121D3*
D105*
X746263Y1800412D3*
X679334D3*
D107*
X1406689Y3035306D3*
Y3102235D3*
X856688Y3035306D3*
Y3102235D3*
X656544Y1490092D3*
Y1423163D3*
X1131689Y3035306D3*
Y3102235D3*
X3050546Y1846380D3*
Y1779450D3*
X1681689Y3035306D3*
Y3102235D3*
X2444189Y2914735D3*
Y2847806D3*
X1956689Y3035306D3*
Y3102235D3*
D103*
X494188Y3206369D3*
Y3281172D3*
Y2931172D3*
Y2856369D3*
D107*
X2231689Y3035306D3*
Y3102235D3*
D101*
X604919Y3312520D3*
X758457D3*
X604919Y2831271D3*
X758457D3*
D103*
X619038Y1794163D3*
Y1719360D3*
X494188Y3106172D3*
Y3031369D3*
D95*
X1019582Y3383534D3*
X1068794D3*
D93*
X1161314Y3493771D3*
X927062D3*
D95*
X1971158Y3383534D3*
X2020370D3*
D93*
X2309740Y3493771D3*
X1878638D3*
D95*
X2069583Y3383534D3*
X2118796D3*
X2168008D3*
X2217221D3*
X1267049Y654254D3*
X1217836D3*
D93*
X928466Y544017D3*
X1359568D3*
D95*
X1168624Y654254D3*
X1119411D3*
X1070198D3*
X1020986D3*
D91*
X558336Y1842834D3*
Y1868424D3*
Y1894015D3*
Y1919605D3*
Y1945196D3*
D89*
X549478Y1768030D3*
Y2019999D3*
D87*
X453021Y1759172D3*
Y2028857D3*
D85*
Y1846771D3*
Y1941259D3*
D95*
X3667047Y654254D3*
X3617835D3*
D93*
X3328465Y544017D3*
X3759567D3*
D95*
X3568622Y654254D3*
X3519410D3*
X3470197D3*
X3420985D3*
X2417047D3*
X2367835D3*
D93*
X2078465Y544017D3*
X2509567D3*
D95*
X2318622Y654254D3*
X2269410D3*
X2220197D3*
X2170985D3*
X1020986Y2133780D3*
X1070198D3*
D93*
X1359568Y2244016D3*
X928466D3*
D95*
X1119411Y2133780D3*
X1168624D3*
X1217836D3*
X1267049D3*
D83*
X654251Y869411D3*
Y918624D3*
D81*
X544015Y1011143D3*
Y776891D3*
D95*
X2119410Y2133780D3*
X2168622D3*
D93*
X2261142Y2244016D3*
X2026890D3*
D95*
X2494803Y2133780D3*
X2544016D3*
D93*
X2685748Y2244016D3*
X2402284D3*
D95*
X2593229Y2133780D3*
D107*
X475273Y1160635D3*
Y1227565D3*
Y1450377D3*
Y1517306D3*
Y1306612D3*
Y1373541D3*
G36*
X2809375Y1855980D2*
X2791660D1*
Y1869355D1*
X2809375D1*
Y1855980D1*
G37*
G36*
Y1881563D2*
X2791660D1*
Y1894952D1*
X2809375D1*
Y1881563D1*
G37*
G36*
Y1907160D2*
X2791660D1*
Y1920535D1*
X2809375D1*
Y1907160D1*
G37*
G36*
Y1830382D2*
X2791660D1*
Y1843772D1*
X2809375D1*
Y1830382D1*
G37*
G36*
X2696374D2*
X2678659D1*
Y1843772D1*
X2696374D1*
Y1830382D1*
G37*
G36*
Y1855980D2*
X2678659D1*
Y1869355D1*
X2696374D1*
Y1855980D1*
G37*
G36*
Y1881563D2*
X2678659D1*
Y1894952D1*
X2696374D1*
Y1881563D1*
G37*
G36*
Y1907160D2*
X2678659D1*
Y1920535D1*
X2696374D1*
Y1907160D1*
G37*
G36*
X2725904Y1869953D2*
X2782795D1*
Y1829799D1*
X2725904D1*
Y1869953D1*
G37*
G36*
Y1919952D2*
X2782795D1*
Y1879797D1*
X2725904D1*
Y1919952D1*
G37*
D107*
X656515Y1071233D3*
Y1004303D3*
D105*
X2689982Y2056516D3*
X2623053D3*
X2485553D3*
X2552482D3*
D107*
X712798Y1354404D3*
Y1421334D3*
D105*
X485565Y1687901D3*
X552494D3*
X2283731Y1975265D3*
X2216802D3*
X485565Y1579428D3*
X552494D3*
D107*
X1106589Y1765121D3*
Y1698192D3*
D105*
X485565Y1633856D3*
X552494D3*
X2577654Y3218771D3*
X2510725D3*
Y3337520D3*
X2577654D3*
Y3281271D3*
X2510725D3*
X2273225Y2893772D3*
X2340154D3*
X746263Y1912925D3*
X679334D3*
X746263Y1856670D3*
X679334D3*
D73*
X2505803Y3132944D3*
X2531394D3*
X2556985D3*
X2582575D3*
Y2904597D3*
X2556985D3*
X2531394D3*
X2505803D3*
D71*
X591137Y3182944D3*
X681688D3*
X772239D3*
D69*
X681688Y2954597D3*
D63*
X1144017Y1616256D3*
Y1569012D3*
Y1521768D3*
M02*
