G04 DipTrace 3.0.0.1*
G04 panel2.GBL*
%MOIN*%
G04 #@! TF.FileFunction,Copper,L2,Bot*
G04 #@! TF.Part,Single*
%AMOUTLINE0*
4,1,16,
-0.045472,0.047244,
-0.045472,-0.047244,
0.045472,-0.047244,
0.045472,-0.029528,
0.029331,-0.029528,
0.029331,-0.021654,
0.045472,-0.021654,
0.045472,-0.003937,
0.029331,-0.003937,
0.029331,0.003937,
0.045472,0.003937,
0.045472,0.021654,
0.029331,0.021654,
0.029331,0.029528,
0.045472,0.029528,
0.045472,0.047244,
-0.045472,0.047244,
0*%
G04 #@! TA.AperFunction,CopperBalancing*
%ADD14C,0.025*%
G04 #@! TA.AperFunction,Conductor*
%ADD15C,0.008*%
%ADD16C,0.01*%
%ADD17C,0.03*%
G04 #@! TA.AperFunction,CopperBalancing*
%ADD19C,0.015*%
%ADD22O,0.011811X0.033465*%
%ADD23O,0.033465X0.011811*%
%ADD24R,0.18X0.18*%
%ADD25R,0.03937X0.043307*%
%ADD26R,0.043307X0.03937*%
%ADD27R,0.059055X0.051181*%
%ADD29R,0.055118X0.082677*%
%ADD34R,0.027559X0.070866*%
%ADD35R,0.062992X0.086614*%
%ADD37R,0.05315X0.015748*%
%ADD38R,0.055118X0.062992*%
%ADD39R,0.051181X0.057087*%
%ADD40R,0.074803X0.074803*%
%ADD41R,0.070866X0.027559*%
%ADD42R,0.086614X0.062992*%
%ADD45R,0.024803X0.017717*%
%ADD50R,0.015748X0.070866*%
%ADD52R,0.037402X0.084646*%
%ADD53R,0.127953X0.084646*%
%ADD56R,0.07874X0.023622*%
%ADD117OUTLINE0*%
%FSLAX26Y26*%
G04*
G70*
G90*
G75*
G01*
G04 Bottom*
%LPD*%
X494188Y3031369D2*
D14*
Y2931172D1*
Y3031369D2*
X756591D1*
X800439Y2987521D1*
Y2893771D1*
Y2873252D1*
X758457Y2831271D1*
X800439Y2893771D2*
X856688D1*
X1131689D1*
X1406689D1*
X1681689D1*
X2094189D1*
Y2893772D1*
X2273225D1*
X856688Y3035306D2*
D15*
Y2893771D1*
Y3035306D2*
X823223Y3068771D1*
X719188D1*
X1131689Y3035306D2*
Y2893771D1*
Y3035306D2*
X1127654D1*
X1094189Y3068771D1*
X994189D1*
X1406689Y3035306D2*
X1402654D1*
X1369189Y3068771D1*
X1269189D1*
X1681689Y3035306D2*
X1677654D1*
X1644189Y3068771D1*
X1544189D1*
X1956689Y3035306D2*
X1952654D1*
X1919189Y3068771D1*
X1819189D1*
X2231689Y3035306D2*
X2227654D1*
X2194189Y3068771D1*
X2094189D1*
X2231689Y3035306D2*
Y2893772D1*
X2273225D1*
X1956689Y3035306D2*
Y2893772D1*
X2094189D1*
X1681689Y3035306D2*
Y2893771D1*
X1406689Y3035306D2*
Y2893771D1*
X2273225Y2893772D2*
X2269189Y2897807D1*
Y2900020D1*
X2312939Y2856271D1*
X2387940D1*
X2444189Y2912520D1*
Y2914735D1*
X2505803Y2904597D2*
X2505802D1*
Y2850907D1*
X2525439Y2831271D1*
X2600440D1*
X2625440Y2856271D1*
Y3175020D1*
X2581689Y3218771D1*
X2577654D1*
X2444189Y2914735D2*
X2505802D1*
Y2904597D1*
X1971158Y3383534D2*
D14*
X1969189Y3381566D1*
Y3318769D1*
X2100439Y3187520D1*
X2362940D1*
X2394189Y3156271D1*
Y3081271D1*
X2381689Y3068771D1*
X2300440D1*
X2273225Y3041555D1*
Y2893772D1*
X1219017Y655435D2*
D16*
X1217836Y654254D1*
Y732818D1*
X1144138Y806516D1*
X1056517D1*
X931516Y931517D1*
Y1081643D1*
X712798Y1300361D1*
X631419D1*
X594036Y1337744D1*
Y1487881D1*
X641114Y1534960D1*
X706219D1*
X1168624Y654254D2*
Y719524D1*
X1112881Y775267D1*
X1037764D1*
X900264Y912767D1*
Y1075391D1*
X700298Y1275357D1*
X618922D1*
X575284Y1318995D1*
Y1494130D1*
X635798Y1554645D1*
X706219D1*
X1119015Y654646D2*
X1119407Y654254D1*
X706219Y1574330D2*
X630479D1*
X556532Y1500382D1*
Y1300250D1*
X606425Y1250356D1*
X687797D1*
X869015Y1069138D1*
Y894017D1*
X1019015Y744017D1*
X1081622D1*
X1119015Y706625D1*
Y654650D1*
X1069015Y655435D2*
X1070196Y654254D1*
X1070198Y699084D1*
X1056515Y712768D1*
X1000264D1*
X837764Y875268D1*
Y1062885D1*
X675294Y1225355D1*
X593925D1*
X537780Y1281500D1*
Y1506633D1*
X625162Y1594015D1*
X706219D1*
X981810Y1633385D2*
X908309D1*
X900189Y1625265D1*
X875265D1*
X844015Y1594015D1*
X942440Y1456219D2*
Y1495589D1*
X844015Y1594015D1*
X824330Y1731810D2*
Y1613700D1*
X844015Y1594015D1*
X706219Y1672755D2*
X761536D1*
X765275D1*
X844015Y1594015D1*
X706219Y1515275D2*
X796449D1*
X875189Y1594015D1*
X844015D1*
X1144017Y1569012D2*
Y1569138D1*
X1087839D1*
X1069086Y1587891D1*
X656544Y1423163D2*
X650292D1*
Y1337865D1*
X712798Y1354404D2*
Y1337865D1*
X650292D1*
X1050334Y1765121D2*
Y1806664D1*
X837813Y1915135D2*
Y1912925D1*
Y1915135D2*
X879357D1*
X881567Y1912925D1*
X679334Y1800412D2*
Y1760697D1*
X675294Y1756658D1*
X475273Y1160635D2*
X510566D1*
X512777Y1162847D1*
X1020986Y654254D2*
Y681546D1*
X944075D1*
X881567Y744054D1*
Y781558D1*
X1267049Y2133780D2*
Y2010876D1*
X558336Y1945196D2*
X588802D1*
X606536Y1962929D1*
X637792D1*
X558336Y1945196D2*
X593017D1*
X606536Y1931677D1*
X637792D1*
X2170985Y654254D2*
Y761024D1*
X2156701Y775307D1*
X3420985Y654254D2*
Y776958D1*
X3050546Y1779450D2*
Y1744156D1*
X781516Y1656516D2*
X761536Y1672755D1*
X844015Y1594016D2*
Y1594015D1*
X906516Y1656516D2*
X844015Y1594015D1*
X781516Y1531516D2*
X844015Y1594015D1*
X844016Y1656516D2*
X906516D1*
X844016D2*
Y1594016D1*
X781516D1*
X844015D2*
X906516D1*
X844015D2*
Y1531516D1*
X844016D1*
X942440Y1731810D2*
Y1767526D1*
X1037832Y1862919D1*
X1100340D1*
X1168624Y1931202D1*
Y2133780D1*
X922755Y1731810D2*
Y1779096D1*
X1031582Y1887923D1*
X1075336D1*
X1119091Y1931677D1*
Y2133460D1*
X1119411Y2133780D1*
X656515Y1004303D2*
Y920887D1*
X654251Y918624D1*
X756516Y1025267D2*
X737765D1*
X712764Y1000265D1*
Y887767D1*
X694015Y869017D1*
X654645D1*
X654251Y869411D1*
X656515Y1071233D2*
X735549D1*
X737764Y1069017D1*
X2544016Y2133780D2*
Y2064982D1*
X2552482Y2056516D1*
X2544016Y2133780D2*
Y2044015D1*
X2575265Y2012765D1*
X2644017D1*
X2687767Y1969016D1*
Y1913407D1*
X2687521Y1913652D1*
X2623053Y2056516D2*
X2619016D1*
X2594016Y2081516D1*
Y2132992D1*
X2593229Y2133780D1*
X2694016Y2006516D2*
Y2052482D1*
X2689982Y2056516D1*
X2837767Y1875265D2*
Y1850265D1*
X2825268Y1837767D1*
X2787765D1*
X2767443Y1858089D1*
Y1875267D1*
X2687521Y1837275D2*
Y1862471D1*
Y1888062D1*
X2494803Y2133780D2*
Y2065767D1*
X2485553Y2056516D1*
Y2021230D1*
X2512767Y1994016D1*
X2619017D1*
X2656517Y1956516D1*
Y1900265D1*
X2669016Y1887767D1*
X2687226D1*
X2687521Y1888062D1*
X844015Y1731810D2*
Y1750456D1*
X825310Y1769160D1*
Y1835704D1*
X837813Y1848206D1*
X981810Y1594015D2*
X1019206D1*
X1091453Y1521768D1*
X1144017D1*
X745589Y1456219D2*
Y1426911D1*
X731550Y1412872D1*
X721260D1*
X712798Y1421334D1*
X485565Y1687901D2*
X444021D1*
X419019Y1662898D1*
Y1256607D1*
X448061Y1227565D1*
X475273D1*
X981810Y1613700D2*
X1141461D1*
X1144017Y1616256D1*
X2168622Y2133780D2*
Y2023445D1*
X2216802Y1975265D1*
X2119410Y2133780D2*
Y1987372D1*
X2175265Y1931516D1*
X2575267D1*
X2637767Y1869016D1*
Y1800268D1*
X2283731Y1975265D2*
X2287768D1*
X2300267Y1962767D1*
X2587767D1*
X2612767Y1937767D1*
X485565Y1579428D2*
Y1527597D1*
X475273Y1517306D1*
X485565Y1633856D2*
X452482D1*
X437769Y1619143D1*
Y1387872D1*
X452100Y1373541D1*
X475273D1*
X494188Y2812520D2*
D15*
Y2856369D1*
X462937Y2812520D2*
Y2825118D1*
X494188Y2856369D1*
X525437Y2812520D2*
Y2825120D1*
X494188Y2856369D1*
Y3281172D2*
Y3325020D1*
X525437D2*
Y3312422D1*
X494188Y3281172D1*
X462937Y3325020D2*
Y3312423D1*
X494188Y3281172D1*
X2156689Y3106271D2*
X2169580D1*
X1881689D2*
X1906689D1*
X1606689D2*
X1631689D1*
X1331689D2*
X1356689D1*
X1056689D2*
X1081689D1*
X781688D2*
X807080D1*
X2582575Y3132944D2*
X2581689Y3132058D1*
Y3068771D1*
X2269189Y3400021D2*
X2250439Y3381271D1*
X2225439D1*
Y3362521D1*
X2219189Y3368771D1*
Y3383534D1*
X2217221D1*
X2269189Y3362520D2*
X2248175Y3383534D1*
X2217221D1*
X2581689Y3068771D2*
X2506691D1*
X2350440Y3106271D2*
X2357406D1*
Y3100550D1*
X2118796Y3383534D2*
Y3319164D1*
X2169189Y3268771D1*
X2406689D1*
X2469189Y3206271D1*
Y3043771D1*
X2494189Y3018771D1*
X2556689D1*
X2606689Y2968771D1*
Y2862520D1*
X2594189Y2850020D1*
X2569191D1*
X2556985Y2862226D1*
Y2904597D1*
X656196Y3113013D2*
X644188Y3125021D1*
Y3400020D1*
X694188Y3450020D1*
Y3537520D1*
X756688Y3600020D1*
X2087940D1*
X2118796Y3569164D1*
Y3383534D1*
X2582575Y2904597D2*
X2581689Y2905483D1*
Y2956271D1*
X2544189Y2993771D1*
X2481689D1*
X2444189Y3031271D1*
Y3193771D1*
X2394189Y3243771D1*
X2144189D1*
X2069583Y3318377D1*
Y3383534D1*
X604919Y3312520D2*
D14*
X591137D1*
Y3182944D1*
X494188Y3206369D2*
Y3206271D1*
X591137D1*
Y3182944D1*
X494188Y3206271D2*
X450437D1*
X425437Y3181271D1*
Y2800020D1*
X450437Y2775020D1*
X556689D1*
X604919Y2823250D1*
Y2831271D1*
X2510725Y3337520D2*
D15*
X2512939D1*
X2550440Y3375021D1*
X2594189D1*
X2662939Y3443771D1*
Y3543769D1*
X2587939Y3618769D1*
X744187D1*
X675437Y3550020D1*
Y3462519D1*
X612939Y3400020D1*
Y3312520D1*
X604919D1*
X1019582Y3383534D2*
D14*
Y3325414D1*
X987939Y3293771D1*
X777206D1*
X758457Y3312520D1*
X2577654Y3281271D2*
D15*
Y3337520D1*
X2556985Y3132944D2*
Y3180975D1*
X2544189Y3193771D1*
Y3256271D1*
X2577654Y3289735D1*
Y3337520D1*
X772239Y3182944D2*
D14*
Y3171822D1*
X681688Y3081271D1*
X519089D1*
X494188Y3106172D1*
X2340154Y2893772D2*
D15*
X2369189Y2922807D1*
Y3031271D1*
X2020370Y3383534D2*
X2019189Y3382353D1*
Y3318771D1*
X2119189Y3218771D1*
X2381689D1*
X2419189Y3181271D1*
Y3031271D1*
Y3018771D1*
X2469189Y2968771D1*
X2519189D1*
X2531689Y2956271D1*
X2531394Y2955974D1*
Y2904597D1*
X2369189Y3031271D2*
X2419189D1*
X765275Y1456219D2*
D16*
Y1285390D1*
X962765Y1087899D1*
Y950264D1*
X1075264Y837765D1*
X1169017D1*
X1206473Y800310D1*
X1812722D1*
X1925265Y687767D1*
Y487767D1*
X1981516Y431516D1*
X3819016D1*
X3881517Y494017D1*
Y737764D1*
X3781516Y837765D1*
X3662767D1*
X3356516Y1144016D1*
Y1675712D1*
X3200561Y1831667D1*
X3113050D1*
X3100550Y1844167D1*
X453021Y1759172D2*
X461880Y1768030D1*
X506516D1*
X549478D1*
X453021Y2028857D2*
X461880Y2019999D1*
X506516D1*
X549478D1*
X506516D2*
Y1768030D1*
X981810Y1495589D2*
X981515D1*
Y1412763D1*
X512777Y1306612D2*
X475273D1*
Y1450377D2*
X512777D1*
X875314Y1787912D2*
X883385Y1779841D1*
Y1731810D1*
X746263Y1856670D2*
Y1857503D1*
X764180Y1875422D1*
X780013D1*
X786802Y1868633D1*
Y1768185D1*
Y1755386D1*
X784960Y1753544D1*
Y1731811D1*
X746263Y1912925D2*
Y1909339D1*
X764180Y1891422D1*
X786642D1*
X802802Y1875260D1*
Y1768185D1*
Y1755386D1*
X804645Y1753544D1*
Y1731811D1*
X558336Y1868424D2*
X589911D1*
X594706Y1873219D1*
X607506D1*
X642104D1*
X645680Y1876796D1*
X655167D1*
X675294Y1856670D1*
X679334D1*
X558336Y1894015D2*
X589910D1*
X594706Y1889219D1*
X607506D1*
X635477D1*
X639053Y1892796D1*
X655167D1*
X675294Y1912925D1*
X679334D1*
X706219Y1495589D2*
X662041D1*
D17*
X656544Y1490092D1*
X922755Y1456219D2*
D16*
Y1410307D1*
X894067Y1381620D1*
X619038Y1456628D2*
Y1481629D1*
X631541Y1494131D1*
X656544D1*
Y1490092D1*
D17*
D3*
X981810Y1653070D2*
D16*
X1005212D1*
X1050334Y1698192D1*
X894067Y1381620D2*
X1069086D1*
X1194233Y1656516D2*
X1056715D1*
X1050334Y1662898D1*
X887817Y1819166D2*
X869066D1*
X850313Y1800412D1*
Y1775410D1*
X863700Y1762023D1*
Y1731810D1*
X887817Y1819166D2*
X894068D1*
X1019082Y1944179D1*
Y2131876D1*
X1020986Y2133780D1*
X552494Y1633856D2*
D17*
Y1579428D1*
Y1687901D1*
X587579D1*
X619038Y1719360D1*
X706219Y1692440D2*
D16*
X645958D1*
D17*
X619038Y1719360D1*
X765275Y1731810D2*
D16*
Y1781401D1*
X746263Y1800412D1*
Y1796373D1*
X706547Y1756658D1*
Y1692768D1*
X706219Y1692440D1*
X1050334Y1698192D2*
X1106589D1*
X1152557D1*
X1194233Y1656516D1*
X600286Y1675401D2*
D17*
Y1700608D1*
X619038Y1719360D1*
X637790Y1675401D2*
Y1700608D1*
X619038Y1719360D1*
X600286Y1644146D2*
Y1675401D1*
X637790Y1644146D2*
Y1675401D1*
X1267049Y654254D2*
D16*
X1269108D1*
Y694050D1*
X1250357Y712801D1*
X2400478D2*
X2419230Y694049D1*
Y654254D1*
X2417047D1*
X3650609Y712801D2*
X3669361Y694049D1*
Y656567D1*
X3667047Y654254D1*
X3650609Y712801D2*
Y806559D1*
X3331824Y1125344D1*
Y1669151D1*
X3188061Y1812915D1*
X3081798D1*
X3056796Y1837918D1*
Y1840130D1*
X3050546Y1846380D1*
Y1850419D1*
X3018807Y1882158D1*
X784960Y1456219D2*
Y1303208D1*
X994015Y1094152D1*
Y969019D1*
X1094016Y869017D1*
X1187765D1*
X1225219Y831563D1*
X2162952D1*
X2219016Y775499D1*
Y655435D1*
X2220197Y654254D1*
X863700Y1456219D2*
Y1343230D1*
X1087764Y1119166D1*
Y1025268D1*
X1150265Y962767D1*
X1244016D1*
X1281460Y925323D1*
X2219206D1*
X2369017Y775512D1*
Y655436D1*
X2367835Y654254D1*
X824330Y1456219D2*
Y1345096D1*
X1056515Y1112911D1*
Y1006519D1*
X1131516Y931517D1*
X1225265D1*
X1262713Y894070D1*
X2200454D1*
X2319016Y775508D1*
Y654647D1*
X2318622Y654254D1*
X804645Y1456219D2*
Y1327277D1*
X1025264Y1106658D1*
Y987769D1*
X1112765Y900268D1*
X1206515D1*
X1243967Y862815D1*
X2181705D1*
X2269016Y775504D1*
Y654647D1*
X2269410Y654254D1*
X981810Y1672755D2*
X997684D1*
X1012830Y1687901D1*
Y1731508D1*
Y1806663D1*
X1044084Y1837918D1*
X1131593D1*
X1219103Y1925427D1*
Y2132513D1*
X1217836Y2133780D1*
X1012830Y1731508D2*
X1081440D1*
X1106589Y1756658D1*
Y1765121D1*
X2505803Y3132944D2*
D15*
Y3213849D1*
X2510725Y3218771D1*
X2168008Y3383534D2*
X2169189Y3382353D1*
Y3318771D1*
X2194189Y3293771D1*
X2419189D1*
X2494189Y3218771D1*
X2510725D1*
X981810Y1534960D2*
D16*
X1003255D1*
X1150265Y1387949D1*
Y1062768D1*
X1187765Y1025268D1*
X1281515D1*
X1318953Y987830D1*
X3338075D1*
X3519016Y806889D1*
Y654647D1*
X3519410Y654254D1*
X903070Y1731810D2*
Y1790663D1*
X1031582Y1919175D1*
X1050334D1*
X1069086Y1937927D1*
Y2132667D1*
X1070198Y2133780D1*
X981810Y1574330D2*
X1013893D1*
X1212853Y1375369D1*
Y1100181D1*
X1225268Y1087767D1*
X1320197D1*
X1357628Y1050336D1*
X3363079D1*
X3619017Y794398D1*
Y655436D1*
X3617835Y654254D1*
X981810Y1554645D2*
X1008574D1*
X1181517Y1381701D1*
Y1081517D1*
X1206517Y1056517D1*
X1300267D1*
X1337701Y1019083D1*
X3350575D1*
X3569016Y800642D1*
Y654647D1*
X3568622Y654254D1*
X981810Y1515275D2*
X997756D1*
X1119015Y1394016D1*
Y1044020D1*
X1169017Y994017D1*
X1262765D1*
X1300208Y956575D1*
X3319324D1*
X3469016Y806883D1*
Y655435D1*
X3470197Y654254D1*
X558336Y1842834D2*
X570368D1*
X619038Y1794163D1*
D14*
X719188Y3068771D3*
X994189D3*
X1269189D3*
X1544189D3*
X1819189D3*
X2094189D3*
X1069086Y1587891D3*
X650292Y1337865D3*
X1050334Y1806664D3*
X881567Y1912925D3*
X675294Y1756658D3*
X512777Y1162847D3*
X881567Y781558D3*
X1267049Y2010876D3*
X2156701Y775307D3*
X3420985Y776958D3*
X3050546Y1744156D3*
X756516Y1025267D3*
X737764Y1069017D3*
X2694016Y2006516D3*
X2837767Y1875265D3*
X2637767Y1800268D3*
X2612767Y1937767D3*
X2156689Y3106271D3*
X1881689D3*
X1606689D3*
X1331689D3*
X1056689D3*
X781688D3*
X2581689Y3068771D3*
X2506691D3*
X2350440Y3106271D3*
X656196Y3113013D3*
X2369189Y3031271D3*
X3100550Y1844167D3*
X981515Y1412763D3*
X512777Y1306612D3*
Y1450377D3*
X875314Y1787912D3*
X894067Y1381620D3*
X619038Y1456628D3*
X1069086Y1381620D3*
X1194233Y1656516D3*
D3*
X1250357Y712801D3*
X2400478D3*
X1250357D3*
X3650609D3*
D3*
X3018807Y1882158D3*
X1056715Y1656516D3*
X887817Y1819166D3*
X844016Y1656516D3*
X606536Y1962929D3*
Y1931677D3*
X637792D3*
Y1962929D3*
X637790Y1675401D3*
X600286D3*
Y1644146D3*
X637790D3*
X781516Y1656516D3*
X906516D3*
X844015Y1594016D3*
X781516Y1531516D3*
Y1594016D3*
X906516D3*
X844016Y1531516D3*
X462937Y3325020D3*
X494188D3*
X525437D3*
X494188Y2812520D3*
X525437D3*
X462937D3*
X2269189Y3400021D3*
Y3362520D3*
X602803Y1813050D2*
X635303D1*
X602803Y1788181D2*
X635303D1*
X632566Y1837919D2*
X537742D1*
X537778Y1825415D1*
X589742Y1825261D1*
X593461Y1824053D1*
X596625Y1821754D1*
X598924Y1818589D1*
X600133Y1814870D1*
X600286Y1775366D1*
X637835Y1775408D1*
X637792Y1832781D1*
X632614Y1837918D1*
X606513Y1944313D2*
X635303D1*
X596793Y1946579D2*
X604011D1*
Y1925437D1*
X637835Y1925425D1*
X637792Y1964025D1*
X632614Y1969180D1*
X537742Y1969181D1*
X537778Y1950382D1*
X589742Y1950273D1*
X593461Y1949065D1*
X596628Y1946763D1*
X596559Y1681786D2*
X641559D1*
X596559Y1656918D2*
X641559D1*
X643995Y1706655D2*
X593995D1*
X594034Y1637856D1*
X644083Y1637894D1*
X644044Y1706693D1*
X446541Y2319147D2*
X457589D1*
X630427D2*
X1657605D1*
X1830427D2*
X2857605D1*
X3030427D2*
X4057605D1*
X4230427D2*
X4241485D1*
X647322Y2294278D2*
X873181D1*
X983747D2*
X1304285D1*
X1414851D2*
X1640710D1*
X1847322D2*
X1971570D1*
X2082185D2*
X2205847D1*
X2316462D2*
X2347009D1*
X2457575D2*
X2630457D1*
X2741023D2*
X2840710D1*
X3047322D2*
X4040710D1*
X656257Y2269410D2*
X873181D1*
X1414851D2*
X1631775D1*
X1856257D2*
X1971570D1*
X2316462D2*
X2347009D1*
X2741023D2*
X2831775D1*
X3056257D2*
X4031775D1*
X659138Y2244541D2*
X873181D1*
X1414851D2*
X1628894D1*
X1859138D2*
X1971570D1*
X2316462D2*
X2347009D1*
X2741023D2*
X2828894D1*
X3059138D2*
X4028894D1*
X656502Y2219672D2*
X873181D1*
X1414851D2*
X1631530D1*
X1856502D2*
X1971570D1*
X2316462D2*
X2347009D1*
X2741023D2*
X2831530D1*
X3056502D2*
X4031530D1*
X647810Y2194803D2*
X873181D1*
X1414851D2*
X1640222D1*
X1847810D2*
X1971570D1*
X2316462D2*
X2347009D1*
X2741023D2*
X2840222D1*
X3047810D2*
X4040222D1*
X446541Y2169935D2*
X456712D1*
X631355D2*
X983191D1*
X1304841D2*
X1656677D1*
X1831355D2*
X2081629D1*
X2206403D2*
X2457019D1*
X2631013D2*
X2856677D1*
X3031355D2*
X4056677D1*
X4231355D2*
X4241486D1*
X446541Y2145066D2*
X487731D1*
X600301D2*
X983386D1*
X1304646D2*
X1687731D1*
X1800301D2*
X2081823D1*
X2206209D2*
X2457214D1*
X2630818D2*
X2887731D1*
X3000301D2*
X4087731D1*
X4200301D2*
X4241491D1*
X446541Y2120197D2*
X983386D1*
X1304646D2*
X2081823D1*
X2206209D2*
X2457214D1*
X2630818D2*
X4241491D1*
X446541Y2095328D2*
X983386D1*
X1304646D2*
X2081823D1*
X2206209D2*
X2440075D1*
X2735457D2*
X4241491D1*
X600838Y2070460D2*
X990271D1*
X1295857D2*
X2090613D1*
X2197419D2*
X2440075D1*
X2735457D2*
X4241491D1*
X600838Y2045591D2*
X990271D1*
X1295857D2*
X2090613D1*
X2197419D2*
X2440075D1*
X2735457D2*
X4241491D1*
X600838Y2020722D2*
X990271D1*
X1301862D2*
X2090613D1*
X2211042D2*
X2440075D1*
X2735457D2*
X4241491D1*
X656257Y1995853D2*
X990271D1*
X1299811D2*
X2090613D1*
X2329206D2*
X2471227D1*
X2728571D2*
X4241491D1*
X674030Y1970985D2*
X990271D1*
X1247907D2*
X2096326D1*
X2716511D2*
X4241491D1*
X890437Y1946116D2*
X981335D1*
X1247907D2*
X2120983D1*
X2716559D2*
X4241491D1*
X916805Y1921247D2*
X956433D1*
X1247566D2*
X2145838D1*
X2836726D2*
X4241491D1*
X913533Y1896378D2*
X931579D1*
X1789655D2*
X1998377D1*
X2866658D2*
X2985633D1*
X3051961D2*
X3448377D1*
X4039655D2*
X4241491D1*
X881306Y1871509D2*
X906726D1*
X1794929D2*
X1993103D1*
X2873835D2*
X2984217D1*
X3122907D2*
X3443103D1*
X4044929D2*
X4241491D1*
X1179987Y1846641D2*
X1193103D1*
X1794929D2*
X1993103D1*
X2594929D2*
X2608973D1*
X2866315D2*
X3007067D1*
X3225301D2*
X3443103D1*
X4044929D2*
X4241491D1*
X1155134Y1821772D2*
X1193103D1*
X1794929D2*
X1993103D1*
X2594929D2*
X2608973D1*
X2848982D2*
X3007067D1*
X3250154D2*
X3443103D1*
X4044929D2*
X4241491D1*
X1150057Y1796903D2*
X1193103D1*
X1794929D2*
X1993103D1*
X2673885D2*
X3007067D1*
X3275007D2*
X3443103D1*
X4044929D2*
X4241491D1*
X1150057Y1772034D2*
X1193103D1*
X1794929D2*
X1993103D1*
X2594929D2*
X2616687D1*
X2658845D2*
X3007067D1*
X3094050D2*
X3189246D1*
X3299910D2*
X3443103D1*
X4044929D2*
X4241491D1*
X971785Y1747166D2*
X984029D1*
X1150057D2*
X1193103D1*
X1794929D2*
X1993103D1*
X2594929D2*
X3007067D1*
X3094050D2*
X3214099D1*
X3324763D2*
X3443103D1*
X4044929D2*
X4241491D1*
X976082Y1722297D2*
X984053D1*
X1165583D2*
X1193103D1*
X1794929D2*
X1993103D1*
X2594929D2*
X3022254D1*
X3078815D2*
X3239002D1*
X3349617D2*
X3443103D1*
X4044929D2*
X4241491D1*
X1794929Y1697428D2*
X1993103D1*
X2594929D2*
X3263855D1*
X3374470D2*
X3443103D1*
X4044929D2*
X4241491D1*
X1794929Y1672559D2*
X1993103D1*
X2594929D2*
X3288709D1*
X3385310D2*
X3443103D1*
X4044929D2*
X4241491D1*
X1794929Y1647691D2*
X1993103D1*
X2594929D2*
X3303015D1*
X3385310D2*
X3443103D1*
X4044929D2*
X4241491D1*
X1794929Y1622822D2*
X1993103D1*
X2594929D2*
X3303015D1*
X3385310D2*
X3443103D1*
X4044929D2*
X4241491D1*
X1794929Y1597953D2*
X1993103D1*
X2594929D2*
X2689881D1*
X3198151D2*
X3303015D1*
X3385310D2*
X3443103D1*
X4044929D2*
X4241491D1*
X1794929Y1573084D2*
X1993103D1*
X2594929D2*
X2676990D1*
X3211042D2*
X3303015D1*
X3385310D2*
X3443103D1*
X4044929D2*
X4241491D1*
X1794929Y1548215D2*
X1993103D1*
X2594929D2*
X2676550D1*
X3211482D2*
X3303015D1*
X3385310D2*
X3443103D1*
X4044929D2*
X4241491D1*
X1794929Y1523347D2*
X1993103D1*
X2594929D2*
X2676550D1*
X3211482D2*
X3303015D1*
X3385310D2*
X3443103D1*
X4044929D2*
X4241491D1*
X1794929Y1498478D2*
X1993103D1*
X2594929D2*
X2676550D1*
X3211482D2*
X3303015D1*
X3385310D2*
X3443103D1*
X4044929D2*
X4241491D1*
X1154305Y1473609D2*
X1193103D1*
X1794929D2*
X1993103D1*
X2594929D2*
X2676550D1*
X3211482D2*
X3303015D1*
X3385310D2*
X3443103D1*
X4044929D2*
X4241491D1*
X1010310Y1448740D2*
X1024617D1*
X1179158D2*
X1193103D1*
X1794929D2*
X1993103D1*
X2594929D2*
X2676550D1*
X3211482D2*
X3303015D1*
X3385310D2*
X3443103D1*
X4044929D2*
X4241491D1*
X1015925Y1423872D2*
X1049450D1*
X1794929D2*
X1993103D1*
X2594929D2*
X2676550D1*
X3211482D2*
X3303015D1*
X3385310D2*
X3443103D1*
X4044929D2*
X4241491D1*
X1794929Y1399003D2*
X1993103D1*
X2594929D2*
X2676550D1*
X3211482D2*
X3303015D1*
X3385310D2*
X3443103D1*
X4044929D2*
X4241491D1*
X1794929Y1374134D2*
X1993103D1*
X2594929D2*
X2676550D1*
X3211482D2*
X3303015D1*
X3385310D2*
X3443103D1*
X4044929D2*
X4241491D1*
X906355Y1349265D2*
X1056823D1*
X1081372D2*
X1090244D1*
X1794929D2*
X1993103D1*
X2594929D2*
X2676550D1*
X3211482D2*
X3303015D1*
X3385310D2*
X3443103D1*
X4044929D2*
X4241491D1*
X922225Y1324397D2*
X1090222D1*
X1794929D2*
X1993103D1*
X2594929D2*
X2676550D1*
X3211482D2*
X3303015D1*
X3385310D2*
X3443103D1*
X4044929D2*
X4241491D1*
X947078Y1299528D2*
X1090222D1*
X1794929D2*
X1993103D1*
X2594929D2*
X2676550D1*
X3211482D2*
X3303015D1*
X3385310D2*
X3443103D1*
X4044929D2*
X4241491D1*
X971979Y1274659D2*
X1090222D1*
X1794929D2*
X1993103D1*
X2594929D2*
X2676550D1*
X3211482D2*
X3303015D1*
X3385310D2*
X3443103D1*
X4044929D2*
X4241491D1*
X518757Y1249790D2*
X529773D1*
X996834D2*
X1090222D1*
X1794929D2*
X1993103D1*
X2594929D2*
X2676550D1*
X3211482D2*
X3303015D1*
X3385310D2*
X3443103D1*
X4044929D2*
X4241491D1*
X518757Y1224922D2*
X554675D1*
X1021687D2*
X1090222D1*
X1794929D2*
X1993103D1*
X2594929D2*
X2676550D1*
X3211482D2*
X3303015D1*
X3385310D2*
X3443103D1*
X4044929D2*
X4241491D1*
X518757Y1200053D2*
X584265D1*
X1046589D2*
X1090222D1*
X1794929D2*
X1993103D1*
X2594929D2*
X2676550D1*
X3211482D2*
X3303015D1*
X3385310D2*
X3443103D1*
X4044929D2*
X4241491D1*
X546735Y1175184D2*
X685778D1*
X1071443D2*
X1090222D1*
X1794929D2*
X1993103D1*
X2594929D2*
X2676550D1*
X3211482D2*
X3303015D1*
X3385310D2*
X3443103D1*
X4044929D2*
X4241491D1*
X546687Y1150315D2*
X710633D1*
X1794929D2*
X1993103D1*
X2594929D2*
X2676550D1*
X3211482D2*
X3303015D1*
X3389899D2*
X3443103D1*
X4044929D2*
X4241491D1*
X518757Y1125446D2*
X735486D1*
X1794929D2*
X1993103D1*
X2594929D2*
X2676550D1*
X3211482D2*
X3303015D1*
X3414802D2*
X3443103D1*
X4044929D2*
X4241491D1*
X446541Y1100578D2*
X613025D1*
X700007D2*
X723181D1*
X752351D2*
X760340D1*
X1793318D2*
X1994714D1*
X2593318D2*
X2676550D1*
X3211482D2*
X3316882D1*
X4043318D2*
X4241491D1*
X446541Y1075709D2*
X613025D1*
X773395D2*
X785239D1*
X4024275D2*
X4241491D1*
X446541Y1050840D2*
X476891D1*
X781110D2*
X808973D1*
X3489362D2*
X4241491D1*
X446541Y1025971D2*
X476891D1*
X792830D2*
X808973D1*
X3514265D2*
X4241491D1*
X446541Y1001103D2*
X476891D1*
X782673D2*
X808973D1*
X3539118D2*
X4241491D1*
X446541Y976234D2*
X476891D1*
X741559D2*
X808973D1*
X3563973D2*
X4241491D1*
X446541Y951365D2*
X497399D1*
X741559D2*
X808973D1*
X3588874D2*
X4241491D1*
X446541Y926496D2*
X497399D1*
X741559D2*
X808973D1*
X2257722D2*
X3309705D1*
X3613727D2*
X4241491D1*
X446541Y901628D2*
X497399D1*
X741559D2*
X808973D1*
X2282575D2*
X3334558D1*
X3638582D2*
X4241491D1*
X446541Y876759D2*
X497399D1*
X739167D2*
X808973D1*
X2307478D2*
X3359461D1*
X3663483D2*
X4241491D1*
X446541Y851890D2*
X497399D1*
X716559D2*
X821473D1*
X2332331D2*
X3384314D1*
X3807087D2*
X4241491D1*
X446541Y827021D2*
X476891D1*
X611141D2*
X846326D1*
X2357185D2*
X3409167D1*
X3831941D2*
X4241491D1*
X446541Y802152D2*
X476891D1*
X611141D2*
X852282D1*
X1850593D2*
X2133679D1*
X2382087D2*
X3395935D1*
X3679402D2*
X3777429D1*
X3856843D2*
X4241491D1*
X446541Y777284D2*
X476891D1*
X611141D2*
X845545D1*
X1875446D2*
X2120446D1*
X2397761D2*
X3384705D1*
X3679402D2*
X3802282D1*
X3881697D2*
X4241491D1*
X446541Y752415D2*
X476891D1*
X611141D2*
X852771D1*
X912898D2*
X920890D1*
X1237946D2*
X1820935D1*
X1900301D2*
X2129334D1*
X2397810D2*
X3392175D1*
X3679402D2*
X3827185D1*
X3905866D2*
X4241491D1*
X446541Y727546D2*
X476891D1*
X611141D2*
X858582D1*
X937751D2*
X945751D1*
X1283259D2*
X1845789D1*
X1925202D2*
X2142175D1*
X2433406D2*
X3392175D1*
X3683503D2*
X3852038D1*
X3910310D2*
X4241491D1*
X446541Y702677D2*
X883239D1*
X1304646D2*
X1870642D1*
X1949422D2*
X2133386D1*
X2454646D2*
X3383386D1*
X3704646D2*
X3852722D1*
X3910310D2*
X4241491D1*
X446541Y677809D2*
X908142D1*
X1304646D2*
X1895545D1*
X1954059D2*
X2133386D1*
X2454646D2*
X3383386D1*
X3704646D2*
X3852722D1*
X3910310D2*
X4241491D1*
X446541Y652940D2*
X512878D1*
X575154D2*
X983386D1*
X1304646D2*
X1712878D1*
X1775154D2*
X1896473D1*
X1954059D2*
X2133386D1*
X2454646D2*
X2912878D1*
X2975154D2*
X3383386D1*
X3704646D2*
X3852722D1*
X3910310D2*
X4112878D1*
X4175154D2*
X4241491D1*
X446541Y628071D2*
X466541D1*
X621491D2*
X983191D1*
X1304841D2*
X1666541D1*
X1821491D2*
X1896473D1*
X1954059D2*
X2133191D1*
X2454841D2*
X2866541D1*
X3021491D2*
X3383191D1*
X3704841D2*
X3852722D1*
X3910310D2*
X4066541D1*
X4221491D2*
X4241491D1*
X642341Y603202D2*
X873181D1*
X1414851D2*
X1645691D1*
X1842341D2*
X1896473D1*
X1954059D2*
X2023181D1*
X2564851D2*
X2845691D1*
X3042341D2*
X3273181D1*
X3814851D2*
X3852722D1*
X3910310D2*
X4045691D1*
X653767Y578334D2*
X873181D1*
X1414851D2*
X1634265D1*
X1853815D2*
X1896473D1*
X1954059D2*
X2023181D1*
X2564851D2*
X2834217D1*
X3053815D2*
X3273181D1*
X3814851D2*
X3852722D1*
X3910310D2*
X4034217D1*
X658747Y553465D2*
X873181D1*
X1414851D2*
X1629285D1*
X1858747D2*
X1896473D1*
X1954059D2*
X2023181D1*
X2564851D2*
X2829285D1*
X3058747D2*
X3273181D1*
X3814851D2*
X3852722D1*
X3910310D2*
X4029285D1*
X658063Y528596D2*
X873181D1*
X1414851D2*
X1629969D1*
X1858063D2*
X1896473D1*
X1954059D2*
X2023181D1*
X2564851D2*
X2829969D1*
X3058063D2*
X3273181D1*
X3814851D2*
X3852722D1*
X3910310D2*
X4029969D1*
X651717Y503727D2*
X873181D1*
X1414851D2*
X1636315D1*
X1851717D2*
X1896473D1*
X1954059D2*
X2023181D1*
X2564851D2*
X2836315D1*
X3051717D2*
X3273181D1*
X3814851D2*
X3851550D1*
X3910310D2*
X4036315D1*
X638386Y478859D2*
X1649646D1*
X1838386D2*
X1898034D1*
X1973885D2*
X2849646D1*
X3038386D2*
X3826647D1*
X3905525D2*
X4049646D1*
X446541Y453990D2*
X473815D1*
X614217D2*
X1673815D1*
X1814217D2*
X1919373D1*
X3881159D2*
X4073815D1*
X4214217D2*
X4241491D1*
X968742Y1749525D2*
X969562Y1744772D1*
X969646Y1723593D1*
X973583Y1723583D1*
Y1719628D1*
X986523Y1719645D1*
X986529Y1774428D1*
X968765Y1756659D1*
X968740Y1749607D1*
X878798Y1872166D2*
Y1851755D1*
X885164Y1852861D1*
X890561Y1852851D1*
X992759Y1955050D1*
X992781Y2077040D1*
X985907Y2077046D1*
X985714Y2215160D1*
Y2288139D1*
X1302320D1*
X1302129Y2077046D1*
X1293389D1*
X1293349Y2032071D1*
X1297164Y2026221D1*
X1299915Y2018767D1*
X1300849Y2010876D1*
X1299915Y2002985D1*
X1297164Y1995530D1*
X1292751Y1988924D1*
X1286916Y1983530D1*
X1279983Y1979649D1*
X1272336Y1977491D1*
X1264397Y1977180D1*
X1256604Y1978730D1*
X1249389Y1982057D1*
X1245399Y1984936D1*
X1245322Y1923364D1*
X1244673Y1919280D1*
X1250604Y1918366D1*
X1753263Y1918235D1*
X1759849Y1917192D1*
X1766192Y1915131D1*
X1772134Y1912104D1*
X1777529Y1908184D1*
X1782246Y1903469D1*
X1786166Y1898072D1*
X1789193Y1892130D1*
X1791254Y1885788D1*
X1792297Y1879201D1*
X1792428Y1788366D1*
X1792297Y1108828D1*
X1791254Y1102242D1*
X1789193Y1095899D1*
X1786166Y1089957D1*
X1782246Y1084561D1*
X1777529Y1079845D1*
X1774898Y1077772D1*
X1782628Y1076637D1*
X2014805D1*
X2008053Y1082110D1*
X2003721Y1087181D1*
X2000236Y1092868D1*
X1997684Y1099029D1*
X1996128Y1105515D1*
X1995604Y1112163D1*
X1995735Y1879201D1*
X1996778Y1885788D1*
X1998839Y1892130D1*
X2001866Y1898072D1*
X2005786Y1903469D1*
X2010503Y1908184D1*
X2015898Y1912104D1*
X2021840Y1915131D1*
X2028183Y1917192D1*
X2034769Y1918235D1*
X2138104Y1918366D1*
X2151239D1*
X2099411Y1970292D1*
X2095977Y1975432D1*
X2093836Y1981233D1*
X2093109Y1987372D1*
Y2077068D1*
X2084330Y2077046D1*
X2084131Y2215160D1*
Y2288138D1*
X2203901D1*
X2203702Y2140513D1*
Y2077046D1*
X2194962D1*
X2194923Y2034317D1*
X2213011Y2016251D1*
X2326685Y2016250D1*
Y1989053D1*
X2480491Y1989067D1*
X2464276Y2005771D1*
X2461255Y2011166D1*
X2459978Y2015099D1*
X2442599Y2015530D1*
Y2097502D1*
X2459738D1*
X2459525Y2177660D1*
Y2288138D1*
X2628507D1*
X2628309Y2140513D1*
Y2097495D1*
X2732936Y2097502D1*
Y2015530D1*
X2726637D1*
X2727712Y2009168D1*
X2727401Y2001229D1*
X2725243Y1993582D1*
X2721361Y1986649D1*
X2715967Y1980814D1*
X2712410Y1978187D1*
X2713743Y1973130D1*
X2714067Y1969016D1*
Y1943772D1*
X2814586Y1943746D1*
X2819498Y1942768D1*
X2824045Y1940672D1*
X2827977Y1937572D1*
X2831076Y1933641D1*
X2833172Y1929093D1*
X2834150Y1924181D1*
X2834214Y1910693D1*
X2835114Y1908961D1*
X2843054Y1908650D1*
X2850701Y1906492D1*
X2857634Y1902610D1*
X2863469Y1897217D1*
X2867882Y1890610D1*
X2870633Y1883156D1*
X2871567Y1875265D1*
X2870633Y1867374D1*
X2867882Y1859920D1*
X2864066Y1854071D1*
X2863743Y1846151D1*
X2862065Y1840201D1*
X2859044Y1834806D1*
X2856364Y1831668D1*
X2840727Y1816490D1*
X2835332Y1813469D1*
X2829382Y1811790D1*
X2825435Y1810790D1*
X2821066Y1808344D1*
X2816247Y1806985D1*
X2800415Y1806722D1*
X2718631Y1806986D1*
X2670881Y1807116D1*
X2671567Y1800268D1*
X2670633Y1792377D1*
X2667882Y1784923D1*
X2663469Y1778317D1*
X2657634Y1772923D1*
X2650701Y1769041D1*
X2643054Y1766883D1*
X2635114Y1766572D1*
X2627322Y1768122D1*
X2620107Y1771449D1*
X2613866Y1776368D1*
X2608948Y1782608D1*
X2605621Y1789823D1*
X2604071Y1797616D1*
X2604382Y1805555D1*
X2606540Y1813202D1*
X2610422Y1820135D1*
X2611467Y1821462D1*
X2611466Y1858129D1*
X2592411Y1877177D1*
X2592297Y1108828D1*
X2591254Y1102242D1*
X2589193Y1095899D1*
X2586166Y1089957D1*
X2582246Y1084561D1*
X2577529Y1079845D1*
X2574898Y1077772D1*
X2582628Y1076637D1*
X2679063D1*
X2679191Y1570382D1*
X2680234Y1576969D1*
X2682294Y1583311D1*
X2685322Y1589254D1*
X2689242Y1594649D1*
X2693958Y1599365D1*
X2699353Y1603285D1*
X2705296Y1606313D1*
X2711638Y1608373D1*
X2718225Y1609416D1*
X2821559Y1609547D1*
X3169807Y1609416D1*
X3176394Y1608373D1*
X3182736Y1606313D1*
X3188679Y1603285D1*
X3194074Y1599365D1*
X3198790Y1594649D1*
X3202710Y1589254D1*
X3205738Y1583311D1*
X3207798Y1576969D1*
X3208841Y1570382D1*
X3208973Y1479547D1*
Y1076638D1*
X3343320Y1076637D1*
X3311826Y1108264D1*
X3308391Y1113404D1*
X3306251Y1119205D1*
X3305524Y1125344D1*
Y1658303D1*
X3177158Y1786624D1*
X3091528Y1786614D1*
X3091532Y1736496D1*
X3083412Y1736265D1*
X3080662Y1728811D1*
X3076248Y1722205D1*
X3070414Y1716811D1*
X3063481Y1712929D1*
X3055834Y1710772D1*
X3047894Y1710461D1*
X3040101Y1712011D1*
X3032886Y1715338D1*
X3026646Y1720256D1*
X3021727Y1726496D1*
X3018401Y1733712D1*
X3017634Y1736500D1*
X3009562Y1736496D1*
Y1849666D1*
X3003462Y1852042D1*
X2996856Y1856456D1*
X2991462Y1862290D1*
X2987580Y1869223D1*
X2985423Y1876870D1*
X2985112Y1884810D1*
X2986662Y1892603D1*
X2989988Y1899818D1*
X2994907Y1906058D1*
X3001147Y1910977D1*
X3008362Y1914303D1*
X3016155Y1915853D1*
X3024095Y1915542D1*
X3031742Y1913385D1*
X3038675Y1909503D1*
X3044509Y1904109D1*
X3048923Y1897503D1*
X3051673Y1890049D1*
X3051817Y1889326D1*
X3091532Y1889332D1*
Y1876784D1*
X3097898Y1877862D1*
X3105838Y1877551D1*
X3113485Y1875394D1*
X3120418Y1871512D1*
X3126252Y1866118D1*
X3130666Y1859512D1*
X3131382Y1857958D1*
X3202624Y1857886D1*
X3208688Y1856680D1*
X3214302Y1854091D1*
X3219158Y1850264D1*
X3376515Y1692792D1*
X3379949Y1687651D1*
X3382089Y1681851D1*
X3382817Y1675712D1*
Y1154862D1*
X3673666Y864061D1*
X3783579Y863985D1*
X3789643Y862778D1*
X3795257Y860191D1*
X3800113Y856362D1*
X3901516Y754845D1*
X3904950Y749705D1*
X3907091Y743904D1*
X3907818Y737764D1*
X3907736Y491954D1*
X3906530Y485890D1*
X3903941Y480276D1*
X3900114Y475420D1*
X3869016Y444016D1*
X4092209D1*
X4085167Y447982D1*
X4077813Y452895D1*
X4070868Y458370D1*
X4064374Y464374D1*
X4058370Y470868D1*
X4052895Y477813D1*
X4047982Y485167D1*
X4043660Y492882D1*
X4039958Y500914D1*
X4036898Y509212D1*
X4034496Y517723D1*
X4032772Y526397D1*
X4031733Y535179D1*
X4031385Y544016D1*
X4031733Y552853D1*
X4032772Y561635D1*
X4034496Y570309D1*
X4036898Y578820D1*
X4039958Y587118D1*
X4043660Y595150D1*
X4047982Y602865D1*
X4052895Y610219D1*
X4058370Y617164D1*
X4064374Y623658D1*
X4070868Y629662D1*
X4077813Y635137D1*
X4085167Y640050D1*
X4092882Y644372D1*
X4100914Y648074D1*
X4109212Y651134D1*
X4117723Y653536D1*
X4126397Y655260D1*
X4135179Y656299D1*
X4144016Y656647D1*
X4152853Y656299D1*
X4161635Y655260D1*
X4170309Y653536D1*
X4178820Y651134D1*
X4187118Y648074D1*
X4195150Y644372D1*
X4202865Y640050D1*
X4210219Y635137D1*
X4217164Y629662D1*
X4223658Y623658D1*
X4229662Y617164D1*
X4235137Y610219D1*
X4240050Y602865D1*
X4244017Y595782D1*
X4244016Y2192209D1*
X4240050Y2185167D1*
X4235137Y2177813D1*
X4229662Y2170868D1*
X4223658Y2164374D1*
X4217164Y2158370D1*
X4210219Y2152895D1*
X4202865Y2147982D1*
X4195150Y2143660D1*
X4187118Y2139958D1*
X4178820Y2136898D1*
X4170309Y2134496D1*
X4161635Y2132772D1*
X4152853Y2131733D1*
X4144016Y2131385D1*
X4135179Y2131733D1*
X4126397Y2132772D1*
X4117723Y2134496D1*
X4109212Y2136898D1*
X4100914Y2139958D1*
X4092882Y2143660D1*
X4085167Y2147982D1*
X4077813Y2152895D1*
X4070868Y2158370D1*
X4064374Y2164374D1*
X4058370Y2170868D1*
X4052895Y2177813D1*
X4047982Y2185167D1*
X4043660Y2192882D1*
X4039958Y2200914D1*
X4036898Y2209212D1*
X4034496Y2217723D1*
X4032772Y2226397D1*
X4031733Y2235179D1*
X4031385Y2244016D1*
X4031733Y2252853D1*
X4032772Y2261635D1*
X4034496Y2270309D1*
X4036898Y2278820D1*
X4039958Y2287118D1*
X4043660Y2295150D1*
X4047982Y2302865D1*
X4052895Y2310219D1*
X4058370Y2317164D1*
X4064374Y2323658D1*
X4070868Y2329662D1*
X4077813Y2335137D1*
X4085167Y2340050D1*
X4092250Y2344017D1*
X2995823Y2344016D1*
X3002865Y2340050D1*
X3010219Y2335137D1*
X3017164Y2329662D1*
X3023658Y2323658D1*
X3029662Y2317164D1*
X3035137Y2310219D1*
X3040050Y2302865D1*
X3044372Y2295150D1*
X3048074Y2287118D1*
X3051134Y2278820D1*
X3053536Y2270309D1*
X3055260Y2261635D1*
X3056299Y2252853D1*
X3056647Y2244016D1*
X3056299Y2235179D1*
X3055260Y2226397D1*
X3053536Y2217723D1*
X3051134Y2209212D1*
X3048074Y2200914D1*
X3044372Y2192882D1*
X3040050Y2185167D1*
X3035137Y2177813D1*
X3029662Y2170868D1*
X3023658Y2164374D1*
X3017164Y2158370D1*
X3010219Y2152895D1*
X3002865Y2147982D1*
X2995150Y2143660D1*
X2987118Y2139958D1*
X2978820Y2136898D1*
X2970309Y2134496D1*
X2961635Y2132772D1*
X2952853Y2131733D1*
X2944016Y2131385D1*
X2935179Y2131733D1*
X2926397Y2132772D1*
X2917723Y2134496D1*
X2909212Y2136898D1*
X2900914Y2139958D1*
X2892882Y2143660D1*
X2885167Y2147982D1*
X2877813Y2152895D1*
X2870868Y2158370D1*
X2864374Y2164374D1*
X2858370Y2170868D1*
X2852895Y2177813D1*
X2847982Y2185167D1*
X2843660Y2192882D1*
X2839958Y2200914D1*
X2836898Y2209212D1*
X2834496Y2217723D1*
X2832772Y2226397D1*
X2831733Y2235179D1*
X2831385Y2244016D1*
X2831733Y2252853D1*
X2832772Y2261635D1*
X2834496Y2270309D1*
X2836898Y2278820D1*
X2839958Y2287118D1*
X2843660Y2295150D1*
X2847982Y2302865D1*
X2852895Y2310219D1*
X2858370Y2317164D1*
X2864374Y2323658D1*
X2870868Y2329662D1*
X2877813Y2335137D1*
X2885167Y2340050D1*
X2892250Y2344017D1*
X1795823Y2344016D1*
X1802866Y2340050D1*
X1810221Y2335137D1*
X1817166Y2329662D1*
X1823659Y2323658D1*
X1829663Y2317164D1*
X1835138Y2310219D1*
X1840051Y2302865D1*
X1844373Y2295150D1*
X1848075Y2287118D1*
X1851135Y2278820D1*
X1853537Y2270309D1*
X1855261Y2261635D1*
X1856301Y2252853D1*
X1856649Y2244016D1*
X1856301Y2235179D1*
X1855261Y2226397D1*
X1853537Y2217723D1*
X1851135Y2209212D1*
X1848075Y2200914D1*
X1844373Y2192882D1*
X1840051Y2185167D1*
X1835138Y2177813D1*
X1829663Y2170868D1*
X1823659Y2164374D1*
X1817166Y2158370D1*
X1810221Y2152895D1*
X1802866Y2147982D1*
X1795151Y2143660D1*
X1787120Y2139958D1*
X1778822Y2136898D1*
X1770310Y2134496D1*
X1761637Y2132772D1*
X1752855Y2131733D1*
X1744017Y2131385D1*
X1735180Y2131733D1*
X1726398Y2132772D1*
X1717725Y2134496D1*
X1709213Y2136898D1*
X1700915Y2139958D1*
X1692883Y2143660D1*
X1685168Y2147982D1*
X1677814Y2152895D1*
X1670869Y2158370D1*
X1664376Y2164374D1*
X1658372Y2170868D1*
X1652897Y2177813D1*
X1647983Y2185167D1*
X1643662Y2192882D1*
X1639960Y2200914D1*
X1636899Y2209212D1*
X1634498Y2217723D1*
X1632773Y2226397D1*
X1631734Y2235179D1*
X1631386Y2244016D1*
X1631734Y2252853D1*
X1632773Y2261635D1*
X1634498Y2270309D1*
X1636899Y2278820D1*
X1639960Y2287118D1*
X1643662Y2295150D1*
X1647983Y2302865D1*
X1652897Y2310219D1*
X1658372Y2317164D1*
X1664376Y2323658D1*
X1670869Y2329662D1*
X1677814Y2335137D1*
X1685168Y2340050D1*
X1692251Y2344017D1*
X595823Y2344016D1*
X602864Y2340050D1*
X610218Y2335137D1*
X617163Y2329662D1*
X623656Y2323658D1*
X629660Y2317164D1*
X635135Y2310219D1*
X640049Y2302865D1*
X644370Y2295150D1*
X648072Y2287118D1*
X651133Y2278820D1*
X653534Y2270309D1*
X655259Y2261635D1*
X656298Y2252853D1*
X656646Y2244016D1*
X656298Y2235179D1*
X655259Y2226397D1*
X653534Y2217723D1*
X651133Y2209212D1*
X648072Y2200914D1*
X644370Y2192882D1*
X640049Y2185167D1*
X635135Y2177813D1*
X629660Y2170868D1*
X623656Y2164374D1*
X617163Y2158370D1*
X610218Y2152895D1*
X602864Y2147982D1*
X595149Y2143660D1*
X587117Y2139958D1*
X578819Y2136898D1*
X570307Y2134496D1*
X561634Y2132772D1*
X552852Y2131733D1*
X544015Y2131385D1*
X535177Y2131733D1*
X526395Y2132772D1*
X517722Y2134496D1*
X509210Y2136898D1*
X500912Y2139958D1*
X492881Y2143660D1*
X485166Y2147982D1*
X477811Y2152895D1*
X470866Y2158370D1*
X464373Y2164374D1*
X458369Y2170868D1*
X452894Y2177813D1*
X447981Y2185167D1*
X444013Y2192250D1*
X444016Y2078733D1*
X499912Y2078700D1*
Y2046327D1*
X500620Y2054702D1*
Y2072794D1*
X598338D1*
Y2003020D1*
X641122Y2002719D1*
X645941Y2001360D1*
X650310Y1998914D1*
X661185Y1988410D1*
X667523Y1981702D1*
X669970Y1977334D1*
X671330Y1972515D1*
X671592Y1956681D1*
Y1953898D1*
X789217Y1953910D1*
Y1917631D1*
X794769Y1916435D1*
X796715Y1915715D1*
X796827Y1958089D1*
X878798D1*
X878915Y1946621D1*
X886855Y1946310D1*
X894502Y1944152D1*
X901435Y1940271D1*
X907269Y1934877D1*
X911683Y1928271D1*
X914433Y1920817D1*
X915368Y1912925D1*
X914433Y1905034D1*
X911683Y1897580D1*
X907269Y1890974D1*
X901435Y1885580D1*
X894502Y1881698D1*
X886855Y1879541D1*
X878915Y1879230D1*
X878748Y1872181D1*
X444013Y2295782D2*
X447981Y2302865D1*
X452894Y2310219D1*
X458369Y2317164D1*
X464373Y2323658D1*
X470866Y2329662D1*
X477811Y2335137D1*
X485166Y2340050D1*
X492248Y2344017D1*
X444065Y2344016D1*
X444016Y2295823D1*
X4244017Y492250D2*
X4240050Y485167D1*
X4235137Y477813D1*
X4229662Y470868D1*
X4223658Y464374D1*
X4217164Y458370D1*
X4210219Y452895D1*
X4202865Y447982D1*
X4195782Y444015D1*
X4243967Y444016D1*
X4244016Y492209D1*
X656298Y535179D2*
X655259Y526397D1*
X653534Y517723D1*
X651133Y509212D1*
X648072Y500914D1*
X644370Y492882D1*
X640049Y485167D1*
X635135Y477813D1*
X629660Y470868D1*
X623656Y464374D1*
X617163Y458370D1*
X610218Y452895D1*
X602864Y447982D1*
X595781Y444015D1*
X1692209Y444016D1*
X1685168Y447982D1*
X1677814Y452895D1*
X1670869Y458370D1*
X1664376Y464374D1*
X1658372Y470868D1*
X1652897Y477813D1*
X1647983Y485167D1*
X1643662Y492882D1*
X1639960Y500914D1*
X1636899Y509212D1*
X1634498Y517723D1*
X1632773Y526397D1*
X1631734Y535179D1*
X1631386Y544016D1*
X1631734Y552853D1*
X1632773Y561635D1*
X1634498Y570309D1*
X1636899Y578820D1*
X1639960Y587118D1*
X1643662Y595150D1*
X1647983Y602865D1*
X1652897Y610219D1*
X1658372Y617164D1*
X1664376Y623658D1*
X1670869Y629662D1*
X1677814Y635137D1*
X1685168Y640050D1*
X1692883Y644372D1*
X1700915Y648074D1*
X1709213Y651134D1*
X1717725Y653536D1*
X1726398Y655260D1*
X1735180Y656299D1*
X1744017Y656647D1*
X1752855Y656299D1*
X1761637Y655260D1*
X1770310Y653536D1*
X1778822Y651134D1*
X1787120Y648074D1*
X1795151Y644372D1*
X1802866Y640050D1*
X1810221Y635137D1*
X1817166Y629662D1*
X1823659Y623658D1*
X1829663Y617164D1*
X1835138Y610219D1*
X1840051Y602865D1*
X1844373Y595150D1*
X1848075Y587118D1*
X1851135Y578820D1*
X1853537Y570309D1*
X1855261Y561635D1*
X1856301Y552853D1*
X1856649Y544016D1*
X1856301Y535179D1*
X1855261Y526397D1*
X1853537Y517723D1*
X1851135Y509212D1*
X1848075Y500914D1*
X1844373Y492882D1*
X1840051Y485167D1*
X1835138Y477813D1*
X1829663Y470868D1*
X1823659Y464374D1*
X1817166Y458370D1*
X1810221Y452895D1*
X1802866Y447982D1*
X1795784Y444015D1*
X1931857Y444016D1*
X1905267Y470687D1*
X1901832Y475827D1*
X1899692Y481628D1*
X1898965Y487767D1*
Y676878D1*
X1801811Y774028D1*
X1213845Y774009D1*
X1239113Y748277D1*
X1240265Y746553D1*
X1242466Y745667D1*
X1250357Y746601D1*
X1258248Y745667D1*
X1265702Y742916D1*
X1272309Y738503D1*
X1277702Y732668D1*
X1281584Y725735D1*
X1283742Y718088D1*
X1283940Y716410D1*
X1289112Y711125D1*
X1302129Y710986D1*
X1302320Y572873D1*
Y499894D1*
X985714D1*
X985906Y655284D1*
X942012Y655327D1*
X935948Y656533D1*
X930334Y659122D1*
X925478Y662949D1*
X861568Y726974D1*
X858134Y732114D1*
X855994Y737915D1*
X855267Y744054D1*
Y760314D1*
X851452Y766213D1*
X848701Y773667D1*
X847767Y781558D1*
X848701Y789449D1*
X851452Y796903D1*
X855865Y803509D1*
X861700Y808903D1*
X864911Y810940D1*
X817765Y858188D1*
X814331Y863328D1*
X812191Y869129D1*
X811464Y875268D1*
Y1051977D1*
X664383Y1199071D1*
X591864Y1199135D1*
X585799Y1200341D1*
X580185Y1202929D1*
X575330Y1206757D1*
X517781Y1264419D1*
X516498Y1266047D1*
X516259Y1258017D1*
Y1196445D1*
X523222Y1194992D1*
X530437Y1191666D1*
X536677Y1186747D1*
X541596Y1180507D1*
X544923Y1173292D1*
X546473Y1165499D1*
X546162Y1157559D1*
X544004Y1149912D1*
X540122Y1142979D1*
X534729Y1137145D1*
X528122Y1132731D1*
X520668Y1129981D1*
X516263Y1129250D1*
X516259Y1117681D1*
X444042D1*
X444016Y595823D1*
X447981Y602865D1*
X452894Y610219D1*
X458369Y617164D1*
X464373Y623658D1*
X470866Y629662D1*
X477811Y635137D1*
X485166Y640050D1*
X492881Y644372D1*
X500912Y648074D1*
X509210Y651134D1*
X517722Y653536D1*
X526395Y655260D1*
X535177Y656299D1*
X544015Y656647D1*
X552852Y656299D1*
X561634Y655260D1*
X570307Y653536D1*
X578819Y651134D1*
X587117Y648074D1*
X595149Y644372D1*
X602864Y640050D1*
X610218Y635137D1*
X617163Y629662D1*
X623656Y623658D1*
X629660Y617164D1*
X635135Y610219D1*
X640049Y602865D1*
X644370Y595150D1*
X648072Y587118D1*
X651133Y578820D1*
X653534Y570309D1*
X655259Y561635D1*
X656298Y552853D1*
X656646Y544016D1*
X656298Y535179D1*
X492248Y444015D2*
X485166Y447982D1*
X477811Y452895D1*
X470866Y458370D1*
X464373Y464374D1*
X458369Y470868D1*
X452894Y477813D1*
X447981Y485167D1*
X444013Y492250D1*
X444016Y444065D1*
X492209Y444016D1*
X4195782Y2344017D2*
X4202865Y2340050D1*
X4210219Y2335137D1*
X4217164Y2329662D1*
X4223658Y2323658D1*
X4229662Y2317164D1*
X4235137Y2310219D1*
X4240050Y2302865D1*
X4244017Y2295782D1*
X4244016Y2343967D1*
X4195823Y2344016D1*
X3056299Y535179D2*
X3055260Y526397D1*
X3053536Y517723D1*
X3051134Y509212D1*
X3048074Y500914D1*
X3044372Y492882D1*
X3040050Y485167D1*
X3035137Y477813D1*
X3029662Y470868D1*
X3023658Y464374D1*
X3016486Y457836D1*
X3808128Y457817D1*
X3855213Y504907D1*
X3855217Y726878D1*
X3770630Y811457D1*
X3676487Y811466D1*
X3676910Y806558D1*
Y734049D1*
X3680725Y728146D1*
X3683475Y720692D1*
X3684192Y716410D1*
X3689365Y711124D1*
X3702128Y710986D1*
X3702319Y572873D1*
Y499894D1*
X3385713D1*
X3385904Y710987D1*
X3394645D1*
X3394684Y755767D1*
X3390869Y761613D1*
X3388118Y769067D1*
X3387184Y776958D1*
X3388118Y784849D1*
X3390869Y792303D1*
X3395282Y798910D1*
X3401117Y804303D1*
X3408050Y808185D1*
X3415697Y810343D1*
X3423637Y810654D1*
X3428885Y809822D1*
X3308449Y930257D1*
X2251404Y930275D1*
X2389016Y792592D1*
X2392450Y787452D1*
X2394591Y781651D1*
X2395318Y775512D1*
Y746167D1*
X2400478Y746601D1*
X2408369Y745667D1*
X2415823Y742916D1*
X2422429Y738503D1*
X2427823Y732668D1*
X2431705Y725735D1*
X2433862Y718088D1*
X2434061Y716410D1*
X2439234Y711124D1*
X2452128Y710987D1*
X2452319Y572873D1*
Y499894D1*
X2135713D1*
X2135904Y710987D1*
X2144646D1*
X2144684Y743755D1*
X2139041Y746488D1*
X2132801Y751407D1*
X2127882Y757647D1*
X2124555Y764862D1*
X2123006Y772655D1*
X2123317Y780595D1*
X2125474Y788242D1*
X2129356Y795175D1*
X2134750Y801009D1*
X2141076Y805267D1*
X1844935Y805263D1*
X1945264Y704847D1*
X1948698Y699706D1*
X1950839Y693906D1*
X1951566Y687767D1*
Y498655D1*
X1992441Y457785D1*
X2871507Y457817D1*
X2864374Y464374D1*
X2858370Y470868D1*
X2852895Y477813D1*
X2847982Y485167D1*
X2843660Y492882D1*
X2839958Y500914D1*
X2836898Y509212D1*
X2834496Y517723D1*
X2832772Y526397D1*
X2831733Y535179D1*
X2831385Y544016D1*
X2831733Y552853D1*
X2832772Y561635D1*
X2834496Y570309D1*
X2836898Y578820D1*
X2839958Y587118D1*
X2843660Y595150D1*
X2847982Y602865D1*
X2852895Y610219D1*
X2858370Y617164D1*
X2864374Y623658D1*
X2870868Y629662D1*
X2877813Y635137D1*
X2885167Y640050D1*
X2892882Y644372D1*
X2900914Y648074D1*
X2909212Y651134D1*
X2917723Y653536D1*
X2926397Y655260D1*
X2935179Y656299D1*
X2944016Y656647D1*
X2952853Y656299D1*
X2961635Y655260D1*
X2970309Y653536D1*
X2978820Y651134D1*
X2987118Y648074D1*
X2995150Y644372D1*
X3002865Y640050D1*
X3010219Y635137D1*
X3017164Y629662D1*
X3023658Y623658D1*
X3029662Y617164D1*
X3035137Y610219D1*
X3040050Y602865D1*
X3044372Y595150D1*
X3048074Y587118D1*
X3051134Y578820D1*
X3053536Y570309D1*
X3055260Y561635D1*
X3056299Y552853D1*
X3056647Y544016D1*
X3056299Y535179D1*
X888171Y608624D2*
X981263D1*
Y479410D1*
X875671D1*
Y608624D1*
X888171D1*
X1319273D2*
X1412365D1*
Y479410D1*
X1306773D1*
Y608624D1*
X1319273D1*
X3288170D2*
X3381261D1*
Y479410D1*
X3275670D1*
Y608624D1*
X3288170D1*
X3719272D2*
X3812364D1*
Y479410D1*
X3706772D1*
Y608624D1*
X3719272D1*
X2038168Y608625D2*
X2131261D1*
Y479410D1*
X2025668D1*
Y608625D1*
X2038168D1*
X2469271D2*
X2562364D1*
Y479410D1*
X2456771D1*
Y608625D1*
X2469271D1*
X1319273Y2308622D2*
X1412365D1*
Y2179408D1*
X1306773D1*
Y2308622D1*
X1319273D1*
X888171D2*
X981263D1*
Y2179408D1*
X875671D1*
Y2308622D1*
X888171D1*
X710985Y848973D2*
Y834331D1*
X572870Y834133D1*
X499891D1*
Y953902D1*
X630254D1*
X630214Y961366D1*
X615529Y961349D1*
Y1114187D1*
X697500D1*
Y1097536D1*
X720104Y1097836D1*
X727319Y1101163D1*
X735112Y1102713D1*
X743051Y1102402D1*
X750698Y1100244D1*
X757631Y1096362D1*
X763466Y1090969D1*
X767880Y1084362D1*
X770630Y1076908D1*
X771565Y1069017D1*
X770630Y1061126D1*
X769181Y1056599D1*
X774176Y1054086D1*
X780416Y1049167D1*
X785335Y1042927D1*
X788662Y1035712D1*
X790212Y1027919D1*
X789901Y1019979D1*
X787743Y1012332D1*
X783861Y1005399D1*
X778467Y999565D1*
X771861Y995151D1*
X764407Y992401D1*
X756516Y991466D1*
X748625Y992401D1*
X743688Y994000D1*
X739065Y987765D1*
X738983Y885704D1*
X737777Y879639D1*
X735188Y874025D1*
X731361Y869170D1*
X711089Y849013D1*
X491908Y1063939D2*
X608622D1*
Y958347D1*
X479408D1*
Y1063939D1*
X491908D1*
Y829687D2*
X608622D1*
Y724095D1*
X479408D1*
Y829687D1*
X491908D1*
X2220845Y2308624D2*
X2313939D1*
Y2179408D1*
X2208345D1*
Y2308624D1*
X2220845D1*
X1986593D2*
X2079687D1*
Y2179408D1*
X1974093D1*
Y2308624D1*
X1986593D1*
X2645452D2*
X2738545D1*
Y2179408D1*
X2632952D1*
Y2308624D1*
X2645452D1*
X2361987D2*
X2455080D1*
Y2179408D1*
X2349487D1*
Y2308624D1*
X2361987D1*
X1091338Y1808074D2*
X1147575D1*
Y1724495D1*
X1156671Y1724168D1*
X1162621Y1722490D1*
X1168016Y1719469D1*
X1171154Y1716789D1*
X1195633Y1692310D1*
X1195604Y1864751D1*
X1148673Y1817919D1*
X1143533Y1814485D1*
X1137733Y1812344D1*
X1131593Y1811617D1*
X1094093D1*
X1195557Y1488656D2*
X1136768D1*
X1195629Y1429788D1*
X1195604Y1488676D1*
X3488154Y1918366D2*
X4003264Y1918235D1*
X4009851Y1917192D1*
X4016193Y1915131D1*
X4022135Y1912104D1*
X4027530Y1908184D1*
X4032247Y1903469D1*
X4036167Y1898072D1*
X4039194Y1892130D1*
X4041255Y1885788D1*
X4042298Y1879201D1*
X4042429Y1788366D1*
X4042298Y1108828D1*
X4041255Y1102242D1*
X4039194Y1095899D1*
X4036167Y1089957D1*
X4032247Y1084561D1*
X4027530Y1079845D1*
X4022135Y1075925D1*
X4016193Y1072898D1*
X4009851Y1070838D1*
X4003264Y1069794D1*
X3912429Y1069663D1*
X3484771Y1069794D1*
X3478184Y1070838D1*
X3471841Y1072898D1*
X3465899Y1075925D1*
X3460504Y1079845D1*
X3455788Y1084561D1*
X3451868Y1089957D1*
X3448840Y1095899D1*
X3446780Y1102242D1*
X3445736Y1108828D1*
X3445605Y1199663D1*
X3445736Y1879201D1*
X3446780Y1885788D1*
X3448840Y1892130D1*
X3451868Y1898072D1*
X3455788Y1903469D1*
X3460504Y1908184D1*
X3465899Y1912104D1*
X3471841Y1915131D1*
X3478184Y1917192D1*
X3484771Y1918235D1*
X3488118Y1918366D1*
X967960Y707878D2*
X910991Y764847D1*
X907866Y760364D1*
X907868Y754946D1*
X954958Y707857D1*
X967952Y707847D1*
X1007815Y1468002D2*
Y1434017D1*
X1011630Y1428108D1*
X1014381Y1420654D1*
X1015315Y1412763D1*
X1014950Y1407918D1*
X1047827Y1407920D1*
X1053740Y1411735D1*
X1061194Y1414486D1*
X1007782Y1468055D1*
X915261Y1355320D2*
X909412Y1351504D1*
X901958Y1348754D1*
X896212Y1347904D1*
X1092736Y1151386D1*
X1092714Y1357446D1*
X1086746Y1352801D1*
X1079530Y1349474D1*
X1071738Y1347924D1*
X1063798Y1348235D1*
X1056151Y1350393D1*
X1049218Y1354275D1*
X1047891Y1355320D1*
X915326Y1355319D1*
X446541Y3569147D2*
X457979D1*
X630378D2*
X653162D1*
X767194D2*
X1457995D1*
X1630378D2*
X2077429D1*
X2148786D2*
X2457995D1*
X742341Y3544278D2*
X869567D1*
X984578D2*
X1103797D1*
X1218806D2*
X1441003D1*
X1647370D2*
X1821130D1*
X1936141D2*
X2088806D1*
X2148786D2*
X2252234D1*
X2367243D2*
X2441003D1*
X724177Y3519410D2*
X869567D1*
X1218806D2*
X1432019D1*
X1656355D2*
X1821130D1*
X2367243D2*
X2432019D1*
X724177Y3494541D2*
X869567D1*
X1218806D2*
X1429041D1*
X1659334D2*
X1821130D1*
X2367243D2*
X2429041D1*
X724177Y3469672D2*
X869567D1*
X1218806D2*
X1431677D1*
X1656697D2*
X1821130D1*
X2367243D2*
X2431677D1*
X723689Y3444803D2*
X869567D1*
X1218806D2*
X1440271D1*
X1648103D2*
X1821130D1*
X2367243D2*
X2440271D1*
X446541Y3419935D2*
X456613D1*
X705475D2*
X979822D1*
X1108553D2*
X1456629D1*
X1631746D2*
X1931385D1*
X2256990D2*
X2456629D1*
X446541Y3395066D2*
X487439D1*
X680622D2*
X979822D1*
X1108553D2*
X1487439D1*
X1600935D2*
X1931385D1*
X2256990D2*
X2487439D1*
X446541Y3370197D2*
X551355D1*
X674177D2*
X704919D1*
X812019D2*
X979822D1*
X1108553D2*
X1930701D1*
X2256990D2*
X2463074D1*
X2630769D2*
X2641486D1*
X446541Y3345328D2*
X551355D1*
X674177D2*
X704919D1*
X812019D2*
X979822D1*
X1108553D2*
X1930701D1*
X2256990D2*
X2463074D1*
X2625301D2*
X2641474D1*
X674177Y3320460D2*
X704919D1*
X1057722D2*
X1930701D1*
X2428327D2*
X2463074D1*
X2625301D2*
X2641474D1*
X674177Y3295591D2*
X704919D1*
X1043171D2*
X1939147D1*
X2625301D2*
X2641474D1*
X674177Y3270722D2*
X704919D1*
X1018318D2*
X1963806D1*
X2625301D2*
X2641474D1*
X816950Y3245853D2*
X1988709D1*
X2625301D2*
X2641474D1*
X816950Y3220985D2*
X2013562D1*
X2625301D2*
X2641474D1*
X816950Y3196116D2*
X2038415D1*
X816950Y3171247D2*
X2063318D1*
X902351Y3146378D2*
X1086023D1*
X1177351D2*
X1361023D1*
X1452351D2*
X1636023D1*
X1727351D2*
X1911023D1*
X2002351D2*
X2186023D1*
X2277351D2*
X2350671D1*
X902351Y3121509D2*
X1086023D1*
X1177351D2*
X1361023D1*
X1452351D2*
X1636023D1*
X1727351D2*
X1911023D1*
X2002351D2*
X2186023D1*
X2277351D2*
X2355701D1*
X750446Y3096641D2*
X811023D1*
X902351D2*
X968885D1*
X1019490D2*
X1086023D1*
X1177351D2*
X1243885D1*
X1294490D2*
X1361023D1*
X1452351D2*
X1518885D1*
X1569490D2*
X1636023D1*
X1727351D2*
X1793885D1*
X1844490D2*
X1911023D1*
X2002351D2*
X2068885D1*
X2119490D2*
X2186023D1*
X902351Y3071772D2*
X955798D1*
X1177351D2*
X1230798D1*
X1452351D2*
X1505798D1*
X1727351D2*
X1780798D1*
X2002351D2*
X2055798D1*
X2499177D2*
X2595446D1*
X902351Y3046903D2*
X963074D1*
X1177351D2*
X1238074D1*
X1452351D2*
X1513074D1*
X1727351D2*
X1788074D1*
X2002351D2*
X2063074D1*
X2507429D2*
X2595446D1*
X902351Y3022034D2*
X1086023D1*
X1177351D2*
X1361023D1*
X1452351D2*
X1636023D1*
X1727351D2*
X1911023D1*
X2002351D2*
X2186023D1*
X2311726D2*
X2331873D1*
X902351Y2997166D2*
X1086023D1*
X1177351D2*
X1361023D1*
X1452351D2*
X1636023D1*
X1727351D2*
X1911023D1*
X2002351D2*
X2186023D1*
X2311726D2*
X2339197D1*
X549714Y2972297D2*
X591735D1*
X886677D2*
X1101697D1*
X1161677D2*
X1376697D1*
X1436677D2*
X1651697D1*
X1711677D2*
X1926697D1*
X1986677D2*
X2201697D1*
X2311726D2*
X2339197D1*
X2399177D2*
X2424255D1*
X549714Y2947428D2*
X591735D1*
X886677D2*
X1101697D1*
X1161677D2*
X1376697D1*
X1436677D2*
X1651697D1*
X1711677D2*
X1926697D1*
X1986677D2*
X2201697D1*
X2311726D2*
X2339197D1*
X549714Y2922559D2*
X591735D1*
X549714Y2897691D2*
X591735D1*
X658454Y2872822D2*
X704919D1*
X658454Y2847953D2*
X704919D1*
X828571D2*
X2279870D1*
X658454Y2823084D2*
X704919D1*
X812019D2*
X2398523D1*
X2633650D2*
X2641491D1*
X658454Y2798215D2*
X704919D1*
X812019D2*
X2641491D1*
X658454Y2773347D2*
X704919D1*
X812019D2*
X2641491D1*
X588191Y2748478D2*
X1500183D1*
X1588191D2*
X2500183D1*
X2588191D2*
X2641491D1*
X446541Y2723609D2*
X462272D1*
X626130D2*
X1462243D1*
X1626130D2*
X2462243D1*
X2626130D2*
X2641477D1*
X644978Y2698740D2*
X1443395D1*
X1644978D2*
X2443395D1*
X655231Y2673872D2*
X1433142D1*
X1655231D2*
X2433142D1*
X659187Y2649003D2*
X1429187D1*
X1659187D2*
X2429187D1*
X803425Y2624134D2*
X1430798D1*
X1657575D2*
X1797986D1*
X2371443D2*
X2430798D1*
X803425Y2599265D2*
X1438221D1*
X1650154D2*
X1797986D1*
X2371443D2*
X2438221D1*
X803425Y2574397D2*
X1452966D1*
X1635407D2*
X1797986D1*
X2371443D2*
X2452966D1*
X446541Y2549528D2*
X480017D1*
X803425D2*
X1480017D1*
X1608357D2*
X1797986D1*
X2371443D2*
X2480017D1*
X2608357D2*
X2641491D1*
X813503Y3096271D2*
Y3117130D1*
X768492Y3117121D1*
X747597Y3096268D1*
X813475Y3096271D1*
X2413504Y2959889D2*
X2439139D1*
X2398278Y3000911D1*
X2396936Y3002613D1*
X2396689Y2956271D1*
X2396604Y2920650D1*
X2395343Y2914310D1*
X2392637Y2908439D1*
X2388634Y2903362D1*
X2385285Y2900013D1*
X2385307Y2892572D1*
X2400985Y2908206D1*
X2394596Y2912284D1*
X2391437Y2906643D1*
X2388634Y2903362D1*
X2401004Y2908205D1*
Y2959889D1*
X2413504D1*
X2487374Y2830449D2*
Y2802652D1*
X2401004D1*
Y2832076D1*
X2396437Y2830117D1*
X2390097Y2828856D1*
X2310781D1*
X2304441Y2830117D1*
X2298570Y2832823D1*
X2293494Y2836826D1*
X2279717Y2850601D1*
X2228071Y2850587D1*
Y2857764D1*
X832908Y2857771D1*
X829563Y2852092D1*
X825894Y2847797D1*
X809494Y2831397D1*
X809516Y2766432D1*
X707398D1*
Y2888747D1*
X655971Y2888775D1*
X655978Y2766432D1*
X598995D1*
X582319Y2749738D1*
X595322Y2744126D1*
X603037Y2739805D1*
X610391Y2734891D1*
X617336Y2729416D1*
X623830Y2723412D1*
X629834Y2716919D1*
X635309Y2709974D1*
X640222Y2702620D1*
X644544Y2694904D1*
X648246Y2686873D1*
X651306Y2678575D1*
X653708Y2670063D1*
X655432Y2661390D1*
X656471Y2652608D1*
X656574Y2637523D1*
X800907Y2637490D1*
Y2543983D1*
X1491916Y2544016D1*
X1477986Y2552650D1*
X1471041Y2558125D1*
X1464547Y2564129D1*
X1458544Y2570622D1*
X1453068Y2577567D1*
X1448155Y2584922D1*
X1443834Y2592637D1*
X1440131Y2600668D1*
X1437071Y2608966D1*
X1434670Y2617478D1*
X1432945Y2626151D1*
X1431906Y2634933D1*
X1431558Y2643771D1*
X1431906Y2652608D1*
X1432945Y2661390D1*
X1434670Y2670063D1*
X1437071Y2678575D1*
X1440131Y2686873D1*
X1443834Y2694904D1*
X1448155Y2702620D1*
X1453068Y2709974D1*
X1458544Y2716919D1*
X1464547Y2723412D1*
X1471041Y2729416D1*
X1477986Y2734891D1*
X1485340Y2739805D1*
X1493055Y2744126D1*
X1501087Y2747828D1*
X1509385Y2750889D1*
X1517897Y2753290D1*
X1526570Y2755015D1*
X1535352Y2756054D1*
X1544189Y2756402D1*
X1553026Y2756054D1*
X1561809Y2755015D1*
X1570482Y2753290D1*
X1578994Y2750889D1*
X1587292Y2747828D1*
X1595323Y2744126D1*
X1603038Y2739805D1*
X1610393Y2734891D1*
X1617338Y2729416D1*
X1623831Y2723412D1*
X1629835Y2716919D1*
X1635310Y2709974D1*
X1640223Y2702620D1*
X1644545Y2694904D1*
X1648247Y2686873D1*
X1651307Y2678575D1*
X1653709Y2670063D1*
X1655433Y2661390D1*
X1656473Y2652608D1*
X1656820Y2643771D1*
X1656473Y2634933D1*
X1655433Y2626151D1*
X1653709Y2617478D1*
X1651307Y2608966D1*
X1648247Y2600668D1*
X1644545Y2592637D1*
X1640223Y2584922D1*
X1635310Y2577567D1*
X1629835Y2570622D1*
X1623831Y2564129D1*
X1617338Y2558125D1*
X1610393Y2552650D1*
X1603038Y2547736D1*
X1596378Y2544007D1*
X1800511Y2544016D1*
X1800470Y2637490D1*
X2368966D1*
X2369016Y2544016D1*
X2491916D1*
X2477986Y2552650D1*
X2471041Y2558125D1*
X2464547Y2564129D1*
X2458544Y2570622D1*
X2453068Y2577567D1*
X2448155Y2584922D1*
X2443834Y2592637D1*
X2440131Y2600668D1*
X2437071Y2608966D1*
X2434670Y2617478D1*
X2432945Y2626151D1*
X2431906Y2634933D1*
X2431558Y2643771D1*
X2431906Y2652608D1*
X2432945Y2661390D1*
X2434670Y2670063D1*
X2437071Y2678575D1*
X2440131Y2686873D1*
X2443834Y2694904D1*
X2448155Y2702620D1*
X2453068Y2709974D1*
X2458544Y2716919D1*
X2464547Y2723412D1*
X2471041Y2729416D1*
X2477986Y2734891D1*
X2485340Y2739805D1*
X2493055Y2744126D1*
X2501087Y2747828D1*
X2509385Y2750889D1*
X2517897Y2753290D1*
X2526570Y2755015D1*
X2535352Y2756054D1*
X2544189Y2756402D1*
X2553026Y2756054D1*
X2561809Y2755015D1*
X2570482Y2753290D1*
X2578994Y2750889D1*
X2587292Y2747828D1*
X2595323Y2744126D1*
X2603038Y2739805D1*
X2610393Y2734891D1*
X2617338Y2729416D1*
X2623831Y2723412D1*
X2629835Y2716919D1*
X2635310Y2709974D1*
X2640223Y2702620D1*
X2644021Y2695839D1*
X2644016Y2835960D1*
X2618299Y2810360D1*
X2612924Y2806768D1*
X2606860Y2804530D1*
X2600440Y2803771D1*
X2523281Y2803856D1*
X2516941Y2805117D1*
X2511070Y2807823D1*
X2505994Y2811826D1*
X2487374Y2830444D1*
X444023Y3330263D2*
X547215D1*
Y3242264D1*
X548936Y3248767D1*
X553868D1*
X553860Y3377359D1*
X585452D1*
X585439Y3388936D1*
X570481Y3384251D1*
X561807Y3382526D1*
X553025Y3381487D1*
X544188Y3381139D1*
X535351Y3381487D1*
X526568Y3382526D1*
X517895Y3384251D1*
X509383Y3386652D1*
X501086Y3389713D1*
X493054Y3393415D1*
X485339Y3397736D1*
X477985Y3402650D1*
X471040Y3408125D1*
X464546Y3414129D1*
X458542Y3420622D1*
X453067Y3427567D1*
X448154Y3434922D1*
X444019Y3442306D1*
X444016Y3330296D1*
X530175Y2980263D2*
X547215D1*
Y2816465D1*
X553848Y2823091D1*
X553860Y2896109D1*
X594212Y2896275D1*
X594091Y2995369D1*
X547167D1*
X547215Y2982278D1*
X530175D1*
X530188Y2980246D1*
X444019Y3545235D2*
X448154Y3552620D1*
X453067Y3559974D1*
X458542Y3566919D1*
X464546Y3573412D1*
X471040Y3579416D1*
X477985Y3584891D1*
X485339Y3589805D1*
X492843Y3594008D1*
X444065Y3594016D1*
X444016Y3545236D1*
X595533Y3594008D2*
X603037Y3589805D1*
X610391Y3584891D1*
X617336Y3579416D1*
X623830Y3573412D1*
X629834Y3566919D1*
X635309Y3559974D1*
X640222Y3552620D1*
X644544Y3544904D1*
X647943Y3537532D1*
X648276Y3554322D1*
X650030Y3560544D1*
X653189Y3566184D1*
X655992Y3569465D1*
X680540Y3594013D1*
X595529Y3594016D1*
X2520302Y3383773D2*
X2509385Y3386652D1*
X2501087Y3389713D1*
X2493055Y3393415D1*
X2485340Y3397736D1*
X2477986Y3402650D1*
X2471041Y3408125D1*
X2464547Y3414129D1*
X2458544Y3420622D1*
X2453068Y3427567D1*
X2448155Y3434922D1*
X2443834Y3442637D1*
X2440131Y3450668D1*
X2437071Y3458966D1*
X2434670Y3467478D1*
X2432945Y3476151D1*
X2431906Y3484933D1*
X2431558Y3493771D1*
X2431906Y3502608D1*
X2432945Y3511390D1*
X2434670Y3520063D1*
X2437071Y3528575D1*
X2440131Y3536873D1*
X2443834Y3544904D1*
X2448155Y3552620D1*
X2453068Y3559974D1*
X2458544Y3566919D1*
X2464547Y3573412D1*
X2471041Y3579416D1*
X2477986Y3584891D1*
X2487962Y3591273D1*
X2135546Y3591269D1*
X2141044Y3585328D1*
X2144202Y3579688D1*
X2145957Y3573466D1*
X2146296Y3569164D1*
X2146386Y3539893D1*
X2254492D1*
X2254500Y3324601D1*
X2202244D1*
X2206689Y3321271D1*
X2421347Y3321185D1*
X2427687Y3319924D1*
X2433558Y3317218D1*
X2438634Y3313215D1*
X2465600Y3286251D1*
X2465571Y3380705D1*
X2517280D1*
X2520251Y3383723D1*
X491999Y2544007D2*
X485339Y2547736D1*
X477985Y2552650D1*
X471040Y2558125D1*
X464546Y2564129D1*
X458542Y2570622D1*
X453067Y2577567D1*
X448154Y2584922D1*
X444019Y2592306D1*
X444016Y2544065D1*
X491916Y2544016D1*
X444019Y2695235D2*
X448154Y2702620D1*
X453067Y2709974D1*
X458542Y2716919D1*
X464546Y2723412D1*
X471040Y2729416D1*
X477985Y2734891D1*
X484160Y2739017D1*
X447613Y2739131D1*
X444794Y2739465D1*
X444016Y2731516D1*
Y2695236D1*
X2644021Y2591702D2*
X2640223Y2584922D1*
X2635310Y2577567D1*
X2629835Y2570622D1*
X2623831Y2564129D1*
X2617338Y2558125D1*
X2610393Y2552650D1*
X2603038Y2547736D1*
X2596378Y2544007D1*
X2643967Y2544016D1*
X2644016Y2591624D1*
X1118818Y3560578D2*
X1216310D1*
Y3426964D1*
X1106318D1*
Y3560578D1*
X1118818D1*
X2267244D2*
X2364736D1*
Y3426964D1*
X2254744D1*
Y3560578D1*
X2267244D1*
X2622807Y3238079D2*
Y3216496D1*
X2644000Y3195351D1*
X2644016Y3385960D1*
X2622826Y3364767D1*
X2622759Y3238086D1*
X2309272Y2936957D2*
X2341729D1*
X2341689Y3008012D1*
X2337113Y3014927D1*
X2334952Y3020146D1*
X2333633Y3025639D1*
X2333248Y3032760D1*
X2315332Y3032771D1*
X2309225Y3016555D1*
Y2936916D1*
X2500019Y3074011D2*
X2496689Y3068771D1*
Y3055147D1*
X2505587Y3046264D1*
X2558847Y3046185D1*
X2565187Y3044924D1*
X2571058Y3042218D1*
X2576134Y3038215D1*
X2597922Y3016429D1*
X2597940Y3073995D1*
X2500020Y3074011D1*
X994803Y3539893D2*
X1106072D1*
X1106074Y3324601D1*
X1055576D1*
X1054587Y3317009D1*
X1052841Y3311637D1*
X1050277Y3306604D1*
X1046957Y3302033D1*
X1011319Y3266397D1*
X1006748Y3263075D1*
X1001715Y3260511D1*
X996343Y3258765D1*
X990763Y3257882D1*
X850439Y3257771D1*
X809516Y3257778D1*
Y3248759D1*
X814440Y3248767D1*
X814431Y3147389D1*
X899873D1*
Y2990152D1*
X884200D1*
X884188Y2929789D1*
X1104197Y2929771D1*
X1104189Y2990108D1*
X1088504Y2990152D1*
Y3035612D1*
X1081689Y3041271D1*
X1017382D1*
X1012999Y3038075D1*
X1007966Y3035511D1*
X1002593Y3033765D1*
X997013Y3032882D1*
X991365D1*
X985785Y3033765D1*
X980412Y3035511D1*
X975380Y3038075D1*
X970809Y3041397D1*
X966815Y3045390D1*
X963494Y3049961D1*
X960929Y3054994D1*
X959184Y3060366D1*
X958301Y3065946D1*
Y3071595D1*
X959184Y3077175D1*
X960929Y3082547D1*
X963494Y3087580D1*
X966815Y3092151D1*
X970809Y3096145D1*
X975380Y3099466D1*
X980412Y3102030D1*
X985785Y3103776D1*
X991365Y3104659D1*
X997013D1*
X1002593Y3103776D1*
X1007966Y3102030D1*
X1012999Y3099466D1*
X1017404Y3096275D1*
X1088477Y3096271D1*
X1088504Y3147389D1*
X1174874D1*
Y2990152D1*
X1159201D1*
X1159189Y2929789D1*
X1379198Y2929771D1*
X1379219Y2990152D1*
X1363504D1*
Y3035612D1*
X1356689Y3041271D1*
X1292382D1*
X1287999Y3038075D1*
X1282966Y3035511D1*
X1277593Y3033765D1*
X1272013Y3032882D1*
X1266365D1*
X1260785Y3033765D1*
X1255412Y3035511D1*
X1250380Y3038075D1*
X1245809Y3041397D1*
X1241815Y3045390D1*
X1238494Y3049961D1*
X1235929Y3054994D1*
X1234184Y3060366D1*
X1233301Y3065946D1*
Y3071595D1*
X1234184Y3077175D1*
X1235929Y3082547D1*
X1238494Y3087580D1*
X1241815Y3092151D1*
X1245809Y3096145D1*
X1250380Y3099466D1*
X1255412Y3102030D1*
X1260785Y3103776D1*
X1266365Y3104659D1*
X1272013D1*
X1277593Y3103776D1*
X1282966Y3102030D1*
X1287999Y3099466D1*
X1292404Y3096275D1*
X1363477Y3096271D1*
X1363504Y3147389D1*
X1449874D1*
Y2990152D1*
X1434201D1*
X1434189Y2929789D1*
X1654198Y2929771D1*
X1654189Y2990108D1*
X1638504Y2990152D1*
Y3035612D1*
X1631689Y3041271D1*
X1567382D1*
X1562999Y3038075D1*
X1557966Y3035511D1*
X1552593Y3033765D1*
X1547013Y3032882D1*
X1541365D1*
X1535785Y3033765D1*
X1530412Y3035511D1*
X1525380Y3038075D1*
X1520809Y3041397D1*
X1516815Y3045390D1*
X1513494Y3049961D1*
X1510929Y3054994D1*
X1509184Y3060366D1*
X1508301Y3065946D1*
Y3071595D1*
X1509184Y3077175D1*
X1510929Y3082547D1*
X1513494Y3087580D1*
X1516815Y3092151D1*
X1520809Y3096145D1*
X1525380Y3099466D1*
X1530412Y3102030D1*
X1535785Y3103776D1*
X1541365Y3104659D1*
X1547013D1*
X1552593Y3103776D1*
X1557966Y3102030D1*
X1562999Y3099466D1*
X1567404Y3096275D1*
X1638477Y3096271D1*
X1638504Y3147389D1*
X1724874D1*
Y2990152D1*
X1709201D1*
X1709189Y2929789D1*
X1929198Y2929771D1*
X1929189Y2990109D1*
X1913504Y2990152D1*
Y3035612D1*
X1906689Y3041271D1*
X1842382D1*
X1837999Y3038075D1*
X1832966Y3035511D1*
X1827593Y3033765D1*
X1822013Y3032882D1*
X1816365D1*
X1810785Y3033765D1*
X1805412Y3035511D1*
X1800380Y3038075D1*
X1795809Y3041397D1*
X1791815Y3045390D1*
X1788494Y3049961D1*
X1785929Y3054994D1*
X1784184Y3060366D1*
X1783301Y3065946D1*
Y3071595D1*
X1784184Y3077175D1*
X1785929Y3082547D1*
X1788494Y3087580D1*
X1791815Y3092151D1*
X1795809Y3096145D1*
X1800380Y3099466D1*
X1805412Y3102030D1*
X1810785Y3103776D1*
X1816365Y3104659D1*
X1822013D1*
X1827593Y3103776D1*
X1832966Y3102030D1*
X1837999Y3099466D1*
X1842404Y3096275D1*
X1913477Y3096271D1*
X1913504Y3147389D1*
X1999874D1*
Y2990152D1*
X1984201D1*
X1984189Y2929789D1*
X2204198Y2929772D1*
X2204189Y2990109D1*
X2188504Y2990152D1*
Y3035612D1*
X2181689Y3041271D1*
X2117382D1*
X2112999Y3038075D1*
X2107966Y3035511D1*
X2102593Y3033765D1*
X2097013Y3032882D1*
X2091365D1*
X2085785Y3033765D1*
X2080412Y3035511D1*
X2075380Y3038075D1*
X2070809Y3041397D1*
X2066815Y3045390D1*
X2063494Y3049961D1*
X2060929Y3054994D1*
X2059184Y3060366D1*
X2058301Y3065946D1*
Y3071595D1*
X2059184Y3077175D1*
X2060929Y3082547D1*
X2063494Y3087580D1*
X2066815Y3092151D1*
X2070809Y3096145D1*
X2075380Y3099466D1*
X2080412Y3102030D1*
X2085785Y3103776D1*
X2091365Y3104659D1*
X2097013D1*
X2102593Y3103776D1*
X2107966Y3102030D1*
X2112999Y3099466D1*
X2117404Y3096275D1*
X2188477Y3096271D1*
X2188504Y3147389D1*
X2274874D1*
X2274985Y3094226D1*
X2279280Y3097895D1*
X2284096Y3100847D1*
X2289315Y3103008D1*
X2294809Y3104327D1*
X2300440Y3104771D1*
X2358204D1*
X2358189Y3141378D1*
X2348051Y3151496D1*
X2097614Y3151631D1*
X2092034Y3152515D1*
X2086662Y3154260D1*
X2081629Y3156824D1*
X2077058Y3160146D1*
X1968916Y3268130D1*
X1941814Y3295389D1*
X1938494Y3299960D1*
X1935929Y3304992D1*
X1934184Y3310365D1*
X1933299Y3315945D1*
X1933189Y3381566D1*
X1933709Y3387660D1*
X1933927Y3442467D1*
X1933634Y3448078D1*
Y3426964D1*
X1823642D1*
Y3560578D1*
X1933634D1*
X1933886Y3462915D1*
Y3539893D1*
X2091260D1*
X2091296Y3557802D1*
X2076528Y3572541D1*
X1624652Y3572525D1*
X1629835Y3566919D1*
X1635310Y3559974D1*
X1640223Y3552620D1*
X1644545Y3544904D1*
X1648247Y3536873D1*
X1651307Y3528575D1*
X1653709Y3520063D1*
X1655433Y3511390D1*
X1656473Y3502608D1*
X1656820Y3493771D1*
X1656473Y3484933D1*
X1655433Y3476151D1*
X1653709Y3467478D1*
X1651307Y3458966D1*
X1648247Y3450668D1*
X1644545Y3442637D1*
X1640223Y3434922D1*
X1635310Y3427567D1*
X1629835Y3420622D1*
X1623831Y3414129D1*
X1617338Y3408125D1*
X1610393Y3402650D1*
X1603038Y3397736D1*
X1595323Y3393415D1*
X1587292Y3389713D1*
X1578994Y3386652D1*
X1570482Y3384251D1*
X1561809Y3382526D1*
X1553026Y3381487D1*
X1544189Y3381139D1*
X1535352Y3381487D1*
X1526570Y3382526D1*
X1517897Y3384251D1*
X1509385Y3386652D1*
X1501087Y3389713D1*
X1493055Y3393415D1*
X1485340Y3397736D1*
X1477986Y3402650D1*
X1471041Y3408125D1*
X1464547Y3414129D1*
X1458544Y3420622D1*
X1453068Y3427567D1*
X1448155Y3434922D1*
X1443834Y3442637D1*
X1440131Y3450668D1*
X1437071Y3458966D1*
X1434670Y3467478D1*
X1432945Y3476151D1*
X1431906Y3484933D1*
X1431558Y3493771D1*
X1431906Y3502608D1*
X1432945Y3511390D1*
X1434670Y3520063D1*
X1437071Y3528575D1*
X1440131Y3536873D1*
X1443834Y3544904D1*
X1448155Y3552620D1*
X1453068Y3559974D1*
X1458544Y3566919D1*
X1463726Y3572525D1*
X768067Y3572520D1*
X721685Y3526126D1*
X721603Y3447862D1*
X720341Y3441523D1*
X717635Y3435651D1*
X713633Y3430575D1*
X671684Y3388625D1*
X671987Y3248767D1*
X707398Y3248805D1*
Y3377359D1*
X809516D1*
Y3329751D1*
X973055Y3329771D1*
X982336Y3339079D1*
X982351Y3442467D1*
X982058Y3448078D1*
Y3426964D1*
X872066D1*
Y3560578D1*
X982058D1*
X982303Y3462915D1*
Y3539893D1*
X994803D1*
X1406689Y3147340D2*
D19*
Y3102235D1*
X1363553D2*
X1449826D1*
X856688Y3147340D2*
Y3102235D1*
X813551D2*
X899824D1*
X1131689Y3147340D2*
Y3102235D1*
X1088553D2*
X1174826D1*
X1681689Y3147340D2*
Y3102235D1*
X1638553D2*
X1724826D1*
X2444189Y2847806D2*
Y2802701D1*
X1956689Y3147340D2*
Y3102235D1*
X1913553D2*
X1999826D1*
X494188Y3330214D2*
Y3281172D1*
X547167D1*
X494188Y2856369D2*
X547167D1*
X2231689Y3147340D2*
Y3102235D1*
X2188553D2*
X2274826D1*
X1068794Y3383534D2*
Y3324650D1*
Y3383534D2*
X1106025D1*
X2217221D2*
Y3324650D1*
Y3383534D2*
X2254452D1*
X2465620Y3281271D2*
X2510725D1*
X2582575Y3132944D2*
Y3074059D1*
X681688Y3248718D2*
Y3182944D1*
Y2954597D2*
Y2888823D1*
X594260Y2954597D2*
X681688D1*
X459041Y4156647D2*
D14*
X1928991D1*
X459041Y4131778D2*
X1928991D1*
X459041Y4106910D2*
X1928991D1*
X459041Y4082041D2*
X1928991D1*
X459041Y4057172D2*
X1928991D1*
X459041Y4032303D2*
X1928991D1*
X459041Y4007435D2*
X1928991D1*
X459041Y3982566D2*
X1928991D1*
X459041Y3957697D2*
X1928991D1*
X459041Y3932828D2*
X1928991D1*
X459041Y3907960D2*
X1928991D1*
X459041Y3883091D2*
X1928991D1*
X459041Y3858222D2*
X1928991D1*
X459041Y3833353D2*
X1928991D1*
X459041Y3808485D2*
X1928991D1*
X1931467Y4181516D2*
X456516D1*
Y3806565D1*
X1931467Y3806516D1*
X1931516Y4181565D1*
X2159041Y4156647D2*
X3628991D1*
X2159041Y4131778D2*
X3628991D1*
X2159041Y4106910D2*
X3628991D1*
X2159041Y4082041D2*
X3628991D1*
X2159041Y4057172D2*
X3628991D1*
X2159041Y4032303D2*
X3628991D1*
X2159041Y4007435D2*
X3628991D1*
X2159041Y3982566D2*
X3628991D1*
X2159041Y3957697D2*
X3628991D1*
X2159041Y3932828D2*
X3628991D1*
X2159041Y3907960D2*
X3628991D1*
X2159041Y3883091D2*
X3628991D1*
X2159041Y3858222D2*
X3628991D1*
X2159041Y3833353D2*
X3628991D1*
X2159041Y3808485D2*
X3628991D1*
X3631467Y4181516D2*
X2156516D1*
Y3806565D1*
X3631467Y3806516D1*
X3631516Y4181565D1*
D22*
X745589Y1731810D3*
X765275D3*
X784960D3*
X804645D3*
X824330D3*
X844015D3*
X863700D3*
X883385D3*
X903070D3*
X922755D3*
X942440D3*
D23*
X981810Y1692440D3*
Y1672755D3*
Y1653070D3*
Y1633385D3*
Y1613700D3*
Y1594015D3*
Y1574330D3*
Y1554645D3*
Y1534960D3*
Y1515275D3*
Y1495589D3*
D22*
X942440Y1456219D3*
X922755D3*
X903070D3*
X883385D3*
X863700D3*
X844015D3*
X824330D3*
X804645D3*
X784960D3*
X765275D3*
X745589D3*
D23*
X706219Y1495589D3*
Y1515275D3*
Y1534960D3*
Y1554645D3*
Y1574330D3*
Y1594015D3*
Y1613700D3*
Y1633385D3*
Y1653070D3*
Y1672755D3*
Y1692440D3*
D24*
X844015Y1594015D3*
D25*
X837813Y1848206D3*
Y1915135D3*
X1050334Y1698192D3*
Y1765121D3*
D26*
X746263Y1800412D3*
X679334D3*
D25*
X1406689Y3035306D3*
Y3102235D3*
X856688Y3035306D3*
Y3102235D3*
X656544Y1490092D3*
Y1423163D3*
X1131689Y3035306D3*
Y3102235D3*
X3050546Y1846380D3*
Y1779450D3*
X1681689Y3035306D3*
Y3102235D3*
X2444189Y2914735D3*
Y2847806D3*
X1956689Y3035306D3*
Y3102235D3*
D27*
X494188Y3206369D3*
Y3281172D3*
Y2931172D3*
Y2856369D3*
D25*
X2231689Y3035306D3*
Y3102235D3*
D29*
X604919Y3312520D3*
X758457D3*
X604919Y2831271D3*
X758457D3*
D27*
X619038Y1794163D3*
Y1719360D3*
X494188Y3106172D3*
Y3031369D3*
D34*
X1019582Y3383534D3*
X1068794D3*
D35*
X1161314Y3493771D3*
X927062D3*
D34*
X1971158Y3383534D3*
X2020370D3*
D35*
X2309740Y3493771D3*
X1878638D3*
D34*
X2069583Y3383534D3*
X2118796D3*
X2168008D3*
X2217221D3*
X1267049Y654254D3*
X1217836D3*
D35*
X928466Y544017D3*
X1359568D3*
D34*
X1168624Y654254D3*
X1119411D3*
X1070198D3*
X1020986D3*
D37*
X558336Y1842834D3*
Y1868424D3*
Y1894015D3*
Y1919605D3*
Y1945196D3*
D38*
X549478Y1768030D3*
Y2019999D3*
D39*
X453021Y1759172D3*
Y2028857D3*
D40*
Y1846771D3*
Y1941259D3*
D34*
X3667047Y654254D3*
X3617835D3*
D35*
X3328465Y544017D3*
X3759567D3*
D34*
X3568622Y654254D3*
X3519410D3*
X3470197D3*
X3420985D3*
X2417047D3*
X2367835D3*
D35*
X2078465Y544017D3*
X2509567D3*
D34*
X2318622Y654254D3*
X2269410D3*
X2220197D3*
X2170985D3*
X1020986Y2133780D3*
X1070198D3*
D35*
X1359568Y2244016D3*
X928466D3*
D34*
X1119411Y2133780D3*
X1168624D3*
X1217836D3*
X1267049D3*
D41*
X654251Y869411D3*
Y918624D3*
D42*
X544015Y1011143D3*
Y776891D3*
D34*
X2119410Y2133780D3*
X2168622D3*
D35*
X2261142Y2244016D3*
X2026890D3*
D34*
X2494803Y2133780D3*
X2544016D3*
D35*
X2685748Y2244016D3*
X2402284D3*
D34*
X2593229Y2133780D3*
D25*
X475273Y1160635D3*
Y1227565D3*
Y1450377D3*
Y1517306D3*
Y1306612D3*
Y1373541D3*
D45*
X2687521Y1837275D3*
Y1862471D3*
Y1888062D3*
Y1913652D3*
D117*
X2767443Y1875267D3*
D25*
X656515Y1071233D3*
Y1004303D3*
D26*
X2689982Y2056516D3*
X2623053D3*
X2485553D3*
X2552482D3*
D25*
X712798Y1354404D3*
Y1421334D3*
D26*
X485565Y1687901D3*
X552494D3*
X2283731Y1975265D3*
X2216802D3*
X485565Y1579428D3*
X552494D3*
D25*
X1106589Y1765121D3*
Y1698192D3*
D26*
X485565Y1633856D3*
X552494D3*
X2577654Y3218771D3*
X2510725D3*
Y3337520D3*
X2577654D3*
Y3281271D3*
X2510725D3*
X2273225Y2893772D3*
X2340154D3*
X746263Y1912925D3*
X679334D3*
X746263Y1856670D3*
X679334D3*
D50*
X2505803Y3132944D3*
X2531394D3*
X2556985D3*
X2582575D3*
Y2904597D3*
X2556985D3*
X2531394D3*
X2505803D3*
D52*
X591137Y3182944D3*
X681688D3*
X772239D3*
D53*
X681688Y2954597D3*
D56*
X1144017Y1616256D3*
Y1569012D3*
Y1521768D3*
X2340466Y2598511D2*
D16*
Y2558319D1*
X2326670D1*
X2322072Y2560264D1*
X2320551Y2562165D1*
X2319030Y2565968D1*
Y2571716D1*
X2320551Y2575563D1*
X2322072Y2577464D1*
X2326670Y2579365D1*
X2322072Y2581311D1*
X2320551Y2583212D1*
X2319030Y2587015D1*
Y2590861D1*
X2320551Y2594664D1*
X2322072Y2596609D1*
X2326670Y2598511D1*
X2340466D1*
Y2579365D2*
X2326670D1*
X2284672Y2585113D2*
Y2558319D1*
Y2579365D2*
X2287714Y2583212D1*
X2290791Y2585113D1*
X2295354D1*
X2298431Y2583212D1*
X2301474Y2579365D1*
X2303030Y2573617D1*
Y2569815D1*
X2301474Y2564067D1*
X2298431Y2560264D1*
X2295354Y2558319D1*
X2290791D1*
X2287714Y2560264D1*
X2284672Y2564067D1*
X2264073Y2598511D2*
Y2565968D1*
X2262552Y2560264D1*
X2259475Y2558319D1*
X2256433D1*
X2268672Y2585113D2*
X2257954D1*
X2235834Y2598511D2*
Y2565968D1*
X2234313Y2560264D1*
X2231236Y2558319D1*
X2228194D1*
X2240433Y2585113D2*
X2229715D1*
X2212194Y2573617D2*
X2193835D1*
Y2577464D1*
X2195357Y2581311D1*
X2196878Y2583212D1*
X2199955Y2585113D1*
X2204553D1*
X2207595Y2583212D1*
X2210673Y2579365D1*
X2212194Y2573617D1*
Y2569815D1*
X2210673Y2564067D1*
X2207595Y2560264D1*
X2204553Y2558319D1*
X2199955D1*
X2196878Y2560264D1*
X2193835Y2564067D1*
X2177835Y2585113D2*
Y2558319D1*
Y2573617D2*
X2176279Y2579365D1*
X2173237Y2583212D1*
X2170160Y2585113D1*
X2165561D1*
X2148005D2*
X2138843Y2558319D1*
X2141885Y2550669D1*
X2144963Y2546823D1*
X2148005Y2544921D1*
X2149561D1*
X2129647Y2585113D2*
X2138843Y2558319D1*
X2076423Y2598511D2*
Y2558319D1*
X2060423Y2585113D2*
Y2558319D1*
Y2577464D2*
X2055825Y2583212D1*
X2052747Y2585113D1*
X2048184D1*
X2045107Y2583212D1*
X2043586Y2577464D1*
Y2558319D1*
X2009227Y2598511D2*
Y2558319D1*
Y2579365D2*
X2012269Y2583212D1*
X2015347Y2585113D1*
X2019945D1*
X2022987Y2583212D1*
X2026065Y2579365D1*
X2027586Y2573617D1*
Y2569815D1*
X2026065Y2564067D1*
X2022987Y2560264D1*
X2019945Y2558319D1*
X2015347D1*
X2012269Y2560264D1*
X2009227Y2564067D1*
X1993227Y2598511D2*
X1991706Y2596609D1*
X1990150Y2598511D1*
X1991706Y2600456D1*
X1993227Y2598511D1*
X1991706Y2585113D2*
Y2558319D1*
X1955756Y2579365D2*
X1958834Y2583212D1*
X1961911Y2585113D1*
X1966474D1*
X1969552Y2583212D1*
X1972594Y2579365D1*
X1974150Y2573617D1*
Y2569815D1*
X1972594Y2564067D1*
X1969552Y2560264D1*
X1966474Y2558319D1*
X1961911D1*
X1958834Y2560264D1*
X1955756Y2564067D1*
X1921398Y2585113D2*
Y2558319D1*
Y2579365D2*
X1924440Y2583212D1*
X1927517Y2585113D1*
X1932080D1*
X1935158Y2583212D1*
X1938200Y2579365D1*
X1939756Y2573617D1*
Y2569815D1*
X1938200Y2564067D1*
X1935158Y2560264D1*
X1932080Y2558319D1*
X1927517D1*
X1924440Y2560264D1*
X1921398Y2564067D1*
X1900800Y2598511D2*
Y2565968D1*
X1899278Y2560264D1*
X1896201Y2558319D1*
X1893159D1*
X1905398Y2585113D2*
X1894680D1*
X1869519D2*
X1872561Y2583212D1*
X1875638Y2579365D1*
X1877159Y2573617D1*
Y2569815D1*
X1875638Y2564067D1*
X1872561Y2560264D1*
X1869519Y2558319D1*
X1864920D1*
X1861843Y2560264D1*
X1858801Y2564067D1*
X1857244Y2569815D1*
Y2573617D1*
X1858801Y2579365D1*
X1861843Y2583212D1*
X1864920Y2585113D1*
X1869519D1*
X1841244D2*
Y2558319D1*
Y2573617D2*
X1839688Y2579365D1*
X1836646Y2583212D1*
X1833568Y2585113D1*
X1828970D1*
X772407Y2598511D2*
Y2558319D1*
X749459D1*
X729459Y2598511D2*
Y2558319D1*
X712215D1*
X706467Y2560264D1*
X704566Y2562165D1*
X702665Y2565968D1*
Y2571716D1*
X704566Y2575563D1*
X706467Y2577464D1*
X712215Y2579365D1*
X706467Y2581311D1*
X704566Y2583212D1*
X702665Y2587015D1*
Y2590861D1*
X704566Y2594664D1*
X706467Y2596609D1*
X712215Y2598511D1*
X729459D1*
Y2579365D2*
X712215D1*
X653969Y2588960D2*
X655870Y2592763D1*
X659717Y2596609D1*
X663519Y2598511D1*
X671169D1*
X675015Y2596609D1*
X678818Y2592763D1*
X680763Y2588960D1*
X682665Y2583212D1*
Y2573617D1*
X680763Y2567913D1*
X678818Y2564067D1*
X675015Y2560264D1*
X671169Y2558319D1*
X663519D1*
X659717Y2560264D1*
X655870Y2564067D1*
X653969Y2567913D1*
M02*
