G04 DipTrace 3.0.0.1*
G04 panel2.GBS*
%MOIN*%
G04 #@! TF.FileFunction,Soldermask,Bot*
G04 #@! TF.Part,Single*
%AMOUTLINE1*
4,1,7,
-0.049488,0.05126,
-0.049488,-0.05126,
0.049488,-0.05126,
0.049488,-0.025512,
0.049488,7.9E-5,
0.049488,0.02567,
0.049488,0.05126,
-0.049488,0.05126,
0*%
%ADD58C,0.12*%
%ADD62R,0.086772X0.031654*%
%ADD68R,0.135985X0.092678*%
%ADD70R,0.045434X0.092678*%
%ADD72R,0.02378X0.078898*%
%ADD78R,0.032835X0.025749*%
%ADD80R,0.094646X0.071024*%
%ADD82R,0.078898X0.035591*%
%ADD84R,0.082835X0.082835*%
%ADD86R,0.059213X0.065119*%
%ADD88R,0.06315X0.071024*%
%ADD90R,0.061182X0.02378*%
%ADD92R,0.071024X0.094646*%
%ADD94R,0.035591X0.078898*%
%ADD100R,0.06315X0.090709*%
%ADD102R,0.067087X0.059213*%
%ADD104R,0.051339X0.047402*%
%ADD106R,0.047402X0.051339*%
%ADD108R,0.188032X0.188032*%
%ADD110O,0.041497X0.019843*%
%ADD112O,0.019843X0.041497*%
%ADD118OUTLINE1*%
%FSLAX26Y26*%
G04*
G70*
G90*
G75*
G01*
G04 BotMask*
%LPD*%
D112*
X745589Y1731810D3*
X765275D3*
X784960D3*
X804645D3*
X824330D3*
X844015D3*
X863700D3*
X883385D3*
X903070D3*
X922755D3*
X942440D3*
D110*
X981810Y1692440D3*
Y1672755D3*
Y1653070D3*
Y1633385D3*
Y1613700D3*
Y1594015D3*
Y1574330D3*
Y1554645D3*
Y1534960D3*
Y1515275D3*
Y1495589D3*
D112*
X942440Y1456219D3*
X922755D3*
X903070D3*
X883385D3*
X863700D3*
X844015D3*
X824330D3*
X804645D3*
X784960D3*
X765275D3*
X745589D3*
D110*
X706219Y1495589D3*
Y1515275D3*
Y1534960D3*
Y1554645D3*
Y1574330D3*
Y1594015D3*
Y1613700D3*
Y1633385D3*
Y1653070D3*
Y1672755D3*
Y1692440D3*
D108*
X844015Y1594015D3*
D106*
X837813Y1848206D3*
Y1915135D3*
X1050334Y1698192D3*
Y1765121D3*
D104*
X746263Y1800412D3*
X679334D3*
D106*
X1406689Y3035306D3*
Y3102235D3*
X856688Y3035306D3*
Y3102235D3*
X656544Y1490092D3*
Y1423163D3*
X1131689Y3035306D3*
Y3102235D3*
X3050546Y1846380D3*
Y1779450D3*
X1681689Y3035306D3*
Y3102235D3*
X2444189Y2914735D3*
Y2847806D3*
X1956689Y3035306D3*
Y3102235D3*
D102*
X494188Y3206369D3*
Y3281172D3*
Y2931172D3*
Y2856369D3*
D106*
X2231689Y3035306D3*
Y3102235D3*
D100*
X604919Y3312520D3*
X758457D3*
X604919Y2831271D3*
X758457D3*
D102*
X619038Y1794163D3*
Y1719360D3*
X494188Y3106172D3*
Y3031369D3*
D58*
X544015Y2244016D3*
X4144016Y544016D3*
X2944016Y2244016D3*
X544015Y544016D3*
X1744017Y2244016D3*
Y544016D3*
X4144016Y2244016D3*
X2944016Y544016D3*
X544188Y3493771D3*
X2544189D3*
X1544189D3*
X544188Y2643771D3*
X1544189D3*
X2544189D3*
D94*
X1019582Y3383534D3*
X1068794D3*
D92*
X1161314Y3493771D3*
X927062D3*
D94*
X1971158Y3383534D3*
X2020370D3*
D92*
X2309740Y3493771D3*
X1878638D3*
D94*
X2069583Y3383534D3*
X2118796D3*
X2168008D3*
X2217221D3*
X1267049Y654254D3*
X1217836D3*
D92*
X928466Y544017D3*
X1359568D3*
D94*
X1168624Y654254D3*
X1119411D3*
X1070198D3*
X1020986D3*
D90*
X558336Y1842834D3*
Y1868424D3*
Y1894015D3*
Y1919605D3*
Y1945196D3*
D88*
X549478Y1768030D3*
Y2019999D3*
D86*
X453021Y1759172D3*
Y2028857D3*
D84*
Y1846771D3*
Y1941259D3*
D94*
X3667047Y654254D3*
X3617835D3*
D92*
X3328465Y544017D3*
X3759567D3*
D94*
X3568622Y654254D3*
X3519410D3*
X3470197D3*
X3420985D3*
X2417047D3*
X2367835D3*
D92*
X2078465Y544017D3*
X2509567D3*
D94*
X2318622Y654254D3*
X2269410D3*
X2220197D3*
X2170985D3*
X1020986Y2133780D3*
X1070198D3*
D92*
X1359568Y2244016D3*
X928466D3*
D94*
X1119411Y2133780D3*
X1168624D3*
X1217836D3*
X1267049D3*
D82*
X654251Y869411D3*
Y918624D3*
D80*
X544015Y1011143D3*
Y776891D3*
D94*
X2119410Y2133780D3*
X2168622D3*
D92*
X2261142Y2244016D3*
X2026890D3*
D94*
X2494803Y2133780D3*
X2544016D3*
D92*
X2685748Y2244016D3*
X2402284D3*
D94*
X2593229Y2133780D3*
D106*
X475273Y1160635D3*
Y1227565D3*
Y1450377D3*
Y1517306D3*
Y1306612D3*
Y1373541D3*
D78*
X2687521Y1837275D3*
Y1862471D3*
Y1888062D3*
Y1913652D3*
D118*
X2767443Y1875267D3*
D106*
X656515Y1071233D3*
Y1004303D3*
D104*
X2689982Y2056516D3*
X2623053D3*
X2485553D3*
X2552482D3*
D106*
X712798Y1354404D3*
Y1421334D3*
D104*
X485565Y1687901D3*
X552494D3*
X2283731Y1975265D3*
X2216802D3*
X485565Y1579428D3*
X552494D3*
D106*
X1106589Y1765121D3*
Y1698192D3*
D104*
X485565Y1633856D3*
X552494D3*
X2577654Y3218771D3*
X2510725D3*
Y3337520D3*
X2577654D3*
Y3281271D3*
X2510725D3*
X2273225Y2893772D3*
X2340154D3*
X746263Y1912925D3*
X679334D3*
X746263Y1856670D3*
X679334D3*
D72*
X2505803Y3132944D3*
X2531394D3*
X2556985D3*
X2582575D3*
Y2904597D3*
X2556985D3*
X2531394D3*
X2505803D3*
D70*
X591137Y3182944D3*
X681688D3*
X772239D3*
D68*
X681688Y2954597D3*
D62*
X1144017Y1616256D3*
Y1569012D3*
Y1521768D3*
G36*
X1594016Y4144016D2*
X1894016D1*
Y3844016D1*
X1594016D1*
Y4144016D1*
G37*
G36*
X494016D2*
X794016D1*
Y3844016D1*
X494016D1*
Y4144016D1*
G37*
G36*
X3294016D2*
X3594016D1*
Y3844016D1*
X3294016D1*
Y4144016D1*
G37*
G36*
X2194016D2*
X2494016D1*
Y3844016D1*
X2194016D1*
Y4144016D1*
G37*
M02*
