G04 DipTrace 3.0.0.1*
G04 panel2.GTO*
%MOIN*%
G04 #@! TF.FileFunction,Legend,Top*
G04 #@! TF.Part,Single*
%ADD10C,0.009843*%
%ADD12C,0.001*%
%ADD16C,0.01*%
%ADD20C,0.02*%
%ADD30C,0.018739*%
%ADD32C,0.018755*%
%ADD47C,0.007874*%
%FSLAX26Y26*%
G04*
G70*
G90*
G75*
G01*
G04 TopSilk*
%LPD*%
X885944Y1084765D2*
D10*
Y1053269D1*
X2829697Y1934764D2*
Y1903268D1*
Y1747263D2*
Y1715767D1*
X1094200Y2987508D2*
Y3150033D1*
X894178Y2987508D2*
Y3150033D1*
X956688Y2962511D2*
X1031690D1*
X956688Y3175031D2*
X1031690D1*
D30*
X1091077Y3171896D3*
X1369200Y2987508D2*
D10*
Y3150033D1*
X1169178Y2987508D2*
Y3150033D1*
X1231688Y2962511D2*
X1306690D1*
X1231688Y3175031D2*
X1306690D1*
D30*
X1366077Y3171896D3*
X1644200Y2987508D2*
D10*
Y3150033D1*
X1444178Y2987508D2*
Y3150033D1*
X1506688Y2962511D2*
X1581690D1*
X1506688Y3175031D2*
X1581690D1*
D30*
X1641077Y3171896D3*
X1919200Y2987508D2*
D10*
Y3150033D1*
X1719178Y2987508D2*
Y3150033D1*
X1781688Y2962511D2*
X1856690D1*
X1781688Y3175031D2*
X1856690D1*
D30*
X1916077Y3171896D3*
X2194200Y2987508D2*
D10*
Y3150033D1*
X1994178Y2987508D2*
Y3150033D1*
X2056688Y2962511D2*
X2131690D1*
X2056688Y3175031D2*
X2131690D1*
D30*
X2191077Y3171896D3*
X819199Y2987508D2*
D10*
Y3150033D1*
X619177Y2987508D2*
Y3150033D1*
X681687Y2962511D2*
X756689D1*
X681687Y3175031D2*
X756689D1*
D30*
X816076Y3171896D3*
X2981784Y1719154D2*
D10*
X3144309D1*
X2981784Y1919177D2*
X3144309D1*
X2956786Y1856667D2*
Y1781664D1*
X3169306Y1856667D2*
Y1781664D1*
D32*
X3166171Y1722277D3*
X2306190Y3041202D2*
D47*
Y3096339D1*
X2432188Y3041202D2*
Y3096339D1*
X2345566Y3068771D2*
D10*
X2345624Y3071243D1*
X2345796Y3073703D1*
X2346083Y3076139D1*
X2346482Y3078539D1*
X2346991Y3080891D1*
X2347609Y3083185D1*
X2348332Y3085408D1*
X2349156Y3087550D1*
X2350078Y3089601D1*
X2351093Y3091550D1*
X2352196Y3093389D1*
X2353382Y3095107D1*
X2354646Y3096697D1*
X2355980Y3098151D1*
X2357378Y3099462D1*
X2358834Y3100623D1*
X2360340Y3101629D1*
X2361889Y3102475D1*
X2363474Y3103157D1*
X2365087Y3103671D1*
X2366720Y3104015D1*
X2368365Y3104188D1*
X2370014D1*
X2371658Y3104015D1*
X2373291Y3103671D1*
X2374904Y3103157D1*
X2376489Y3102475D1*
X2378038Y3101629D1*
X2379545Y3100623D1*
X2381001Y3099462D1*
X2382399Y3098151D1*
X2383733Y3096697D1*
X2384996Y3095107D1*
X2386182Y3093389D1*
X2387285Y3091550D1*
X2388301Y3089601D1*
X2389223Y3087550D1*
X2390047Y3085408D1*
X2390770Y3083185D1*
X2391387Y3080891D1*
X2391897Y3078539D1*
X2392296Y3076139D1*
X2392582Y3073703D1*
X2392755Y3071243D1*
X2392812Y3068771D1*
X2392755Y3066298D1*
X2392582Y3063838D1*
X2392296Y3061402D1*
X2391897Y3059002D1*
X2391387Y3056650D1*
X2390770Y3054356D1*
X2390047Y3052133D1*
X2389223Y3049991D1*
X2388301Y3047940D1*
X2387285Y3045991D1*
X2386182Y3044153D1*
X2384996Y3042434D1*
X2383733Y3040844D1*
X2382399Y3039390D1*
X2381001Y3038080D1*
X2379545Y3036918D1*
X2378038Y3035912D1*
X2376489Y3035066D1*
X2374904Y3034384D1*
X2373291Y3033870D1*
X2371658Y3033526D1*
X2370014Y3033353D1*
X2368365D1*
X2366720Y3033526D1*
X2365087Y3033870D1*
X2363474Y3034384D1*
X2361889Y3035066D1*
X2360340Y3035912D1*
X2358834Y3036918D1*
X2357378Y3038080D1*
X2355980Y3039390D1*
X2354646Y3040844D1*
X2353382Y3042434D1*
X2352196Y3044153D1*
X2351093Y3045991D1*
X2350078Y3047940D1*
X2349156Y3049991D1*
X2348332Y3052133D1*
X2347609Y3054356D1*
X2346991Y3056650D1*
X2346482Y3059002D1*
X2346083Y3061402D1*
X2345796Y3063838D1*
X2345624Y3066298D1*
X2345566Y3068771D1*
G36*
X659059Y1251121D2*
Y1275121D1*
X676059Y1285121D1*
X733059D1*
X750059Y1275121D1*
Y1251121D1*
D1*
X659059D1*
G37*
G36*
X676059Y1297121D2*
Y1319121D1*
X687059Y1326121D1*
Y1472121D1*
X695059Y1470121D1*
X722059Y1427121D1*
Y1326121D1*
X733059Y1319121D1*
Y1297121D1*
X676059D1*
G37*
G36*
X702059Y1479121D2*
X690059Y1483121D1*
X679059Y1493121D1*
X675059Y1508121D1*
X679059Y1523121D1*
X690059Y1534121D1*
X704059Y1538121D1*
X719059Y1534121D1*
X730059Y1523121D1*
X734059Y1508121D1*
X731059Y1497121D1*
X822059Y1349121D1*
X834059Y1345121D1*
X845059Y1334121D1*
X849059Y1319121D1*
X845059Y1305121D1*
X834059Y1294121D1*
X819059Y1290121D1*
X804059Y1294121D1*
X793059Y1305121D1*
X789059Y1320121D1*
X792059Y1332121D1*
X702059Y1479121D1*
G37*
G36*
X825059Y1364121D2*
X828059Y1359121D1*
X841059Y1355121D1*
X852059Y1342121D1*
X905059Y1430121D1*
Y1481121D1*
X899059Y1486121D1*
D1*
X825059Y1364121D1*
G37*
G36*
X916059Y1485121D2*
X908059Y1493121D1*
X903059Y1508121D1*
X907059Y1523121D1*
X918059Y1534121D1*
X933059Y1538121D1*
X948059Y1534121D1*
X959059Y1523121D1*
X963059Y1508121D1*
X959059Y1494121D1*
X950059Y1485121D1*
Y1368121D1*
X933059Y1373121D1*
X916059Y1368121D1*
Y1485121D1*
G37*
G36*
X902059Y1325121D2*
X903059Y1320121D1*
X915059Y1307121D1*
X919059Y1306121D1*
X916059Y1303121D1*
Y1254121D1*
X899059Y1251121D1*
X887059Y1311121D1*
X902059Y1325121D1*
G37*
G36*
X913059Y1349121D2*
X910059Y1337121D1*
X913059Y1325121D1*
X922059Y1316121D1*
X933059Y1313121D1*
X939059Y1315121D1*
X951059Y1302121D1*
X950059Y1254121D1*
X968059Y1251121D1*
X979059Y1311121D1*
X956059Y1334121D1*
X957059Y1338121D1*
X954059Y1348121D1*
X945059Y1357121D1*
X933059Y1360121D1*
X921059Y1357121D1*
X913059Y1349121D1*
G37*
X1057740Y4132041D2*
D10*
X1333303D1*
X1451401D2*
X1520324D1*
Y3856445D1*
X1451401D1*
X1333303D2*
X1057740D1*
X939641D2*
X870718D1*
Y4132041D1*
X939641D1*
X2645551Y4144200D2*
X2570511D1*
X2545521D1*
Y3844250D1*
X2620491D1*
X2645551D2*
X2620491D1*
X2745511D2*
X3045531D1*
X2745511Y4144200D2*
X3045531D1*
X3145491D2*
X3245521D1*
Y3844250D1*
X3145491D1*
X544015Y1944016D2*
D20*
X644015Y2044015D1*
X4044016D1*
X4144016Y1944016D2*
Y844017D1*
X4044016Y744017D2*
X644015D1*
X544015Y1944016D2*
Y844017D1*
X644015Y744017D1*
X4044016Y2044015D2*
X4144016Y1944016D1*
Y844017D2*
X4044016Y744017D1*
X1894016Y2044015D2*
Y744017D1*
X3344016D2*
Y2044015D1*
X1094016D2*
Y744017D1*
X2662767Y1969016D2*
D16*
X2862767D1*
Y1819016D1*
X2662767D1*
Y1969016D1*
Y1781515D2*
X2862767D1*
Y1619016D1*
X2662767D1*
Y1781515D1*
X2900267Y1969016D2*
X3225267D1*
Y1619016D1*
X2900267D1*
Y1969016D1*
X712765Y1119016D2*
X912765D1*
Y956516D1*
X712765D1*
Y1119016D1*
X2544189Y2918771D2*
Y3218771D1*
X2494189Y3268771D1*
X2544189Y2918771D2*
X2494189Y2868771D1*
X594188D1*
X544188Y2918771D1*
Y3218771D1*
X594188Y3268771D1*
X2494189D2*
X594188D1*
X2410767Y923243D2*
D12*
X2421767D1*
X2469767D2*
X2479767D1*
X2509767D2*
X2528767D1*
X2557767D2*
X2575767D1*
X2585767D2*
X2616767D1*
X2643767D2*
X2657767D1*
X2680767D2*
X2694767D1*
X2700767D2*
X2747767D1*
X2754767D2*
X2797767D1*
X2804767D2*
X2834767D1*
X2407882Y922243D2*
X2424994D1*
X2466540D2*
X2482990D1*
X2509767D2*
X2528921D1*
X2557267D2*
X2575767D1*
X2585767D2*
X2619686D1*
X2643767D2*
X2657767D1*
X2680767D2*
X2694767D1*
X2700767D2*
X2747767D1*
X2754767D2*
X2797767D1*
X2804767D2*
X2837686D1*
X2405439Y921243D2*
X2427734D1*
X2463800D2*
X2485698D1*
X2509767D2*
X2529169D1*
X2556852D2*
X2575767D1*
X2585767D2*
X2622221D1*
X2643767D2*
X2657767D1*
X2680767D2*
X2694767D1*
X2700767D2*
X2747767D1*
X2754767D2*
X2797767D1*
X2804767D2*
X2840221D1*
X2403427Y920243D2*
X2429935D1*
X2461598D2*
X2487808D1*
X2509767D2*
X2529432D1*
X2556463D2*
X2575767D1*
X2585767D2*
X2624345D1*
X2643767D2*
X2657767D1*
X2680767D2*
X2694767D1*
X2700767D2*
X2747767D1*
X2754767D2*
X2797767D1*
X2804767D2*
X2842345D1*
X2401721Y919243D2*
X2431735D1*
X2459794D2*
X2489500D1*
X2509767D2*
X2529642D1*
X2556107D2*
X2575767D1*
X2585767D2*
X2626068D1*
X2643767D2*
X2657767D1*
X2680767D2*
X2694767D1*
X2700767D2*
X2747767D1*
X2754767D2*
X2797767D1*
X2804767D2*
X2844068D1*
X2400253Y918243D2*
X2433216D1*
X2458278D2*
X2490999D1*
X2509767D2*
X2529863D1*
X2555779D2*
X2575767D1*
X2585767D2*
X2627458D1*
X2643767D2*
X2657767D1*
X2680767D2*
X2694767D1*
X2700767D2*
X2747767D1*
X2754767D2*
X2797767D1*
X2804767D2*
X2845458D1*
X2399024Y917243D2*
X2434371D1*
X2457000D2*
X2492359D1*
X2509767D2*
X2530149D1*
X2555433D2*
X2575767D1*
X2585767D2*
X2628637D1*
X2643767D2*
X2657767D1*
X2680767D2*
X2694767D1*
X2700767D2*
X2747767D1*
X2754767D2*
X2797767D1*
X2804767D2*
X2846637D1*
X2398023Y916243D2*
X2435263D1*
X2455900D2*
X2493541D1*
X2509767D2*
X2530458D1*
X2555095D2*
X2575767D1*
X2585767D2*
X2629680D1*
X2643767D2*
X2657767D1*
X2680767D2*
X2694767D1*
X2700767D2*
X2747767D1*
X2754767D2*
X2797767D1*
X2804767D2*
X2847680D1*
X2397212Y915243D2*
X2436029D1*
X2454969D2*
X2494521D1*
X2509767D2*
X2530766D1*
X2554774D2*
X2575767D1*
X2585767D2*
X2630579D1*
X2643767D2*
X2657767D1*
X2680767D2*
X2694767D1*
X2700767D2*
X2747767D1*
X2754767D2*
X2797767D1*
X2804767D2*
X2848579D1*
X2396481Y914243D2*
X2436746D1*
X2454190D2*
X2495326D1*
X2509767D2*
X2531105D1*
X2554431D2*
X2575767D1*
X2585767D2*
X2631316D1*
X2643767D2*
X2657767D1*
X2680767D2*
X2694767D1*
X2700767D2*
X2747767D1*
X2754767D2*
X2797767D1*
X2804767D2*
X2849312D1*
X2395778Y913243D2*
X2437387D1*
X2453473D2*
X2496054D1*
X2509767D2*
X2531440D1*
X2554095D2*
X2575767D1*
X2585767D2*
X2631932D1*
X2643767D2*
X2657767D1*
X2680767D2*
X2694767D1*
X2700767D2*
X2747767D1*
X2754767D2*
X2797767D1*
X2804767D2*
X2849893D1*
X2395143Y912243D2*
X2412847D1*
X2420687D2*
X2437960D1*
X2452775D2*
X2470809D1*
X2478721D2*
X2496755D1*
X2509767D2*
X2531759D1*
X2553774D2*
X2575767D1*
X2585767D2*
X2599767D1*
X2614687D2*
X2632480D1*
X2643767D2*
X2657767D1*
X2680767D2*
X2694767D1*
X2717767D2*
X2730767D1*
X2754767D2*
X2768767D1*
X2804767D2*
X2818767D1*
X2832566D2*
X2850318D1*
X2394572Y911243D2*
X2411142D1*
X2422391D2*
X2438491D1*
X2452142D2*
X2468980D1*
X2480518D2*
X2497387D1*
X2509767D2*
X2532102D1*
X2553431D2*
X2575767D1*
X2585767D2*
X2599767D1*
X2616387D2*
X2632969D1*
X2643767D2*
X2657767D1*
X2680767D2*
X2694767D1*
X2717767D2*
X2730767D1*
X2754767D2*
X2768767D1*
X2804767D2*
X2818767D1*
X2834116D2*
X2850598D1*
X2394042Y910243D2*
X2409792D1*
X2423741D2*
X2438969D1*
X2451572D2*
X2467421D1*
X2481985D2*
X2497926D1*
X2509767D2*
X2532439D1*
X2553095D2*
X2575767D1*
X2585767D2*
X2599767D1*
X2617706D2*
X2633381D1*
X2643767D2*
X2657767D1*
X2680767D2*
X2694767D1*
X2717767D2*
X2730767D1*
X2754767D2*
X2768767D1*
X2804767D2*
X2818767D1*
X2835319D2*
X2850846D1*
X2393560Y909243D2*
X2408746D1*
X2424783D2*
X2439348D1*
X2451042D2*
X2466215D1*
X2483079D2*
X2498364D1*
X2509767D2*
X2532759D1*
X2552774D2*
X2575767D1*
X2585767D2*
X2599767D1*
X2618656D2*
X2633736D1*
X2643767D2*
X2657767D1*
X2680767D2*
X2694767D1*
X2717767D2*
X2730767D1*
X2754767D2*
X2768767D1*
X2804767D2*
X2818767D1*
X2836203D2*
X2851139D1*
X2393151Y908243D2*
X2407889D1*
X2425606D2*
X2439609D1*
X2450560D2*
X2465326D1*
X2483947D2*
X2498729D1*
X2509767D2*
X2533102D1*
X2552431D2*
X2575767D1*
X2585767D2*
X2599767D1*
X2619366D2*
X2634090D1*
X2643767D2*
X2657767D1*
X2680767D2*
X2694767D1*
X2717767D2*
X2730767D1*
X2754767D2*
X2768767D1*
X2804767D2*
X2818767D1*
X2836851D2*
X2851417D1*
X2392797Y907243D2*
X2407189D1*
X2426181D2*
X2439850D1*
X2450151D2*
X2464644D1*
X2484680D2*
X2499091D1*
X2509767D2*
X2533439D1*
X2552095D2*
X2575767D1*
X2585767D2*
X2599767D1*
X2619921D2*
X2634397D1*
X2643767D2*
X2657767D1*
X2680767D2*
X2694767D1*
X2717767D2*
X2730767D1*
X2754767D2*
X2768767D1*
X2804767D2*
X2818767D1*
X2837298D2*
X2851599D1*
X2392443Y906243D2*
X2406627D1*
X2426540D2*
X2440140D1*
X2449797D2*
X2464069D1*
X2485245D2*
X2499435D1*
X2509767D2*
X2533759D1*
X2551774D2*
X2575767D1*
X2585767D2*
X2599767D1*
X2620326D2*
X2634591D1*
X2643767D2*
X2657767D1*
X2680767D2*
X2694767D1*
X2717767D2*
X2730767D1*
X2754767D2*
X2768767D1*
X2804767D2*
X2818767D1*
X2837554D2*
X2851695D1*
X2392137Y905243D2*
X2406214D1*
X2426823D2*
X2440417D1*
X2449443D2*
X2463574D1*
X2485678D2*
X2499758D1*
X2509767D2*
X2534102D1*
X2551431D2*
X2575767D1*
X2585767D2*
X2599767D1*
X2620564D2*
X2634692D1*
X2643767D2*
X2657767D1*
X2680767D2*
X2694767D1*
X2717767D2*
X2730767D1*
X2754767D2*
X2768767D1*
X2804767D2*
X2818767D1*
X2837678D2*
X2851738D1*
X2391942Y904243D2*
X2405968D1*
X2427130D2*
X2440599D1*
X2449137D2*
X2463193D1*
X2486067D2*
X2500098D1*
X2509767D2*
X2534439D1*
X2551095D2*
X2575767D1*
X2585767D2*
X2599767D1*
X2620682D2*
X2634737D1*
X2643767D2*
X2657767D1*
X2680767D2*
X2694767D1*
X2717767D2*
X2730767D1*
X2754767D2*
X2768767D1*
X2804767D2*
X2818767D1*
X2837732D2*
X2851752D1*
X2391841Y903243D2*
X2405814D1*
X2427416D2*
X2440695D1*
X2448942D2*
X2462960D1*
X2486388D2*
X2500400D1*
X2509767D2*
X2534759D1*
X2550774D2*
X2561767D1*
X2563767D2*
X2575767D1*
X2585767D2*
X2599767D1*
X2620734D2*
X2634756D1*
X2643767D2*
X2657767D1*
X2680767D2*
X2694767D1*
X2717767D2*
X2730767D1*
X2754767D2*
X2768767D1*
X2804767D2*
X2818767D1*
X2837750D2*
X2851724D1*
X2391796Y902243D2*
X2405634D1*
X2427616D2*
X2440740D1*
X2448841D2*
X2462811D1*
X2486588D2*
X2500592D1*
X2509767D2*
X2522767D1*
X2524805D2*
X2535098D1*
X2550431D2*
X2575767D1*
X2585767D2*
X2599767D1*
X2620751D2*
X2634759D1*
X2643767D2*
X2657767D1*
X2680767D2*
X2694767D1*
X2717767D2*
X2730767D1*
X2754767D2*
X2768767D1*
X2804767D2*
X2818767D1*
X2837719D2*
X2851599D1*
X2391778Y901243D2*
X2405373D1*
X2427767D2*
X2440767D1*
X2448796D2*
X2462633D1*
X2486691D2*
X2500692D1*
X2509767D2*
X2522767D1*
X2524933D2*
X2535404D1*
X2550095D2*
X2560729D1*
X2562767D2*
X2575767D1*
X2585767D2*
X2599767D1*
X2620719D2*
X2634726D1*
X2643767D2*
X2657767D1*
X2680767D2*
X2694767D1*
X2717767D2*
X2730767D1*
X2754767D2*
X2768767D1*
X2804767D2*
X2818767D1*
X2837556D2*
X2851356D1*
X2391771Y900243D2*
X2405109D1*
X2448778D2*
X2462373D1*
X2486737D2*
X2500737D1*
X2509767D2*
X2522767D1*
X2525177D2*
X2535632D1*
X2549774D2*
X2560596D1*
X2562767D2*
X2575767D1*
X2585767D2*
X2599767D1*
X2620560D2*
X2634600D1*
X2643767D2*
X2657767D1*
X2680767D2*
X2694767D1*
X2717767D2*
X2730767D1*
X2754767D2*
X2768767D1*
X2804767D2*
X2818767D1*
X2837147D2*
X2851061D1*
X2391768Y899243D2*
X2404931D1*
X2448771D2*
X2462109D1*
X2486756D2*
X2500756D1*
X2509767D2*
X2522767D1*
X2525468D2*
X2535859D1*
X2549435D2*
X2560322D1*
X2562767D2*
X2575767D1*
X2585767D2*
X2599767D1*
X2620186D2*
X2634357D1*
X2643767D2*
X2657767D1*
X2680767D2*
X2694767D1*
X2717767D2*
X2730767D1*
X2754767D2*
X2768767D1*
X2804767D2*
X2818767D1*
X2836446D2*
X2850724D1*
X2391767Y898243D2*
X2404838D1*
X2448768D2*
X2461931D1*
X2486763D2*
X2500763D1*
X2509767D2*
X2522767D1*
X2525770D2*
X2536147D1*
X2549130D2*
X2559938D1*
X2562767D2*
X2575767D1*
X2585767D2*
X2599767D1*
X2619612D2*
X2634065D1*
X2643767D2*
X2657767D1*
X2680767D2*
X2694767D1*
X2717767D2*
X2730767D1*
X2754767D2*
X2792767D1*
X2804767D2*
X2818767D1*
X2835443D2*
X2850261D1*
X2391767Y897243D2*
X2404795D1*
X2448767D2*
X2461838D1*
X2486765D2*
X2500765D1*
X2509767D2*
X2522767D1*
X2526106D2*
X2536457D1*
X2548902D2*
X2559520D1*
X2562767D2*
X2575767D1*
X2585767D2*
X2599767D1*
X2618848D2*
X2633759D1*
X2643767D2*
X2657767D1*
X2680767D2*
X2694767D1*
X2717767D2*
X2730767D1*
X2754767D2*
X2792767D1*
X2804767D2*
X2818767D1*
X2834111D2*
X2849683D1*
X2391767Y896243D2*
X2404777D1*
X2448767D2*
X2461795D1*
X2486766D2*
X2500766D1*
X2509767D2*
X2522767D1*
X2526440D2*
X2536766D1*
X2548675D2*
X2559136D1*
X2562767D2*
X2575767D1*
X2585767D2*
X2599767D1*
X2617769D2*
X2633392D1*
X2643767D2*
X2657767D1*
X2680767D2*
X2694767D1*
X2717767D2*
X2730767D1*
X2754767D2*
X2792767D1*
X2804767D2*
X2818767D1*
X2832500D2*
X2849065D1*
X2391767Y895243D2*
X2404770D1*
X2448767D2*
X2461777D1*
X2486767D2*
X2500767D1*
X2509767D2*
X2522767D1*
X2526759D2*
X2537105D1*
X2548386D2*
X2558791D1*
X2562767D2*
X2575767D1*
X2585767D2*
X2599767D1*
X2616311D2*
X2632962D1*
X2643767D2*
X2657767D1*
X2680767D2*
X2694767D1*
X2717767D2*
X2730767D1*
X2754767D2*
X2792767D1*
X2804767D2*
X2848346D1*
X2391767Y894243D2*
X2404768D1*
X2448767D2*
X2461770D1*
X2486767D2*
X2500767D1*
X2509767D2*
X2522767D1*
X2527102D2*
X2537440D1*
X2548076D2*
X2558438D1*
X2562767D2*
X2575767D1*
X2585767D2*
X2599767D1*
X2614591D2*
X2632491D1*
X2643767D2*
X2657767D1*
X2680767D2*
X2694767D1*
X2717767D2*
X2730767D1*
X2754767D2*
X2792767D1*
X2804767D2*
X2847387D1*
X2391767Y893243D2*
X2404767D1*
X2448767D2*
X2461768D1*
X2486767D2*
X2500767D1*
X2509767D2*
X2522767D1*
X2527439D2*
X2537759D1*
X2547767D2*
X2558097D1*
X2562767D2*
X2575767D1*
X2585767D2*
X2631969D1*
X2643767D2*
X2657767D1*
X2680767D2*
X2694767D1*
X2717767D2*
X2730767D1*
X2754767D2*
X2792767D1*
X2804767D2*
X2846160D1*
X2391767Y892243D2*
X2404767D1*
X2448767D2*
X2461767D1*
X2486767D2*
X2500767D1*
X2509767D2*
X2522767D1*
X2527759D2*
X2538102D1*
X2547429D2*
X2557775D1*
X2562767D2*
X2575767D1*
X2585767D2*
X2631344D1*
X2643767D2*
X2657767D1*
X2680767D2*
X2694767D1*
X2717767D2*
X2730767D1*
X2754767D2*
X2792767D1*
X2804767D2*
X2844853D1*
X2391767Y891243D2*
X2404767D1*
X2448767D2*
X2461767D1*
X2486767D2*
X2500767D1*
X2509767D2*
X2522767D1*
X2528102D2*
X2538439D1*
X2547094D2*
X2557431D1*
X2562767D2*
X2575767D1*
X2585767D2*
X2630570D1*
X2643767D2*
X2657767D1*
X2680767D2*
X2694767D1*
X2717767D2*
X2730767D1*
X2754767D2*
X2792767D1*
X2804767D2*
X2843727D1*
X2391767Y890243D2*
X2404767D1*
X2448767D2*
X2461767D1*
X2486767D2*
X2500767D1*
X2509767D2*
X2522767D1*
X2528439D2*
X2538759D1*
X2546774D2*
X2557095D1*
X2562767D2*
X2575767D1*
X2585767D2*
X2629680D1*
X2643767D2*
X2657767D1*
X2680767D2*
X2694767D1*
X2717767D2*
X2730767D1*
X2754767D2*
X2792767D1*
X2804767D2*
X2842767D1*
X2391767Y889243D2*
X2404767D1*
X2448767D2*
X2461767D1*
X2486767D2*
X2500767D1*
X2509767D2*
X2522767D1*
X2528759D2*
X2539102D1*
X2546431D2*
X2556774D1*
X2562767D2*
X2575767D1*
X2585767D2*
X2628691D1*
X2643767D2*
X2657767D1*
X2680767D2*
X2694767D1*
X2717767D2*
X2730767D1*
X2754767D2*
X2792767D1*
X2804767D2*
X2844570D1*
X2391767Y888243D2*
X2404767D1*
X2448767D2*
X2461767D1*
X2486767D2*
X2500767D1*
X2509767D2*
X2522771D1*
X2529102D2*
X2539439D1*
X2546095D2*
X2556431D1*
X2562767D2*
X2575767D1*
X2585767D2*
X2627545D1*
X2643767D2*
X2657767D1*
X2680767D2*
X2694767D1*
X2717767D2*
X2730767D1*
X2754767D2*
X2792767D1*
X2804767D2*
X2846155D1*
X2391767Y887243D2*
X2404767D1*
X2448767D2*
X2461771D1*
X2486767D2*
X2500767D1*
X2509767D2*
X2522806D1*
X2529439D2*
X2539759D1*
X2545774D2*
X2556095D1*
X2562767D2*
X2575767D1*
X2585767D2*
X2626139D1*
X2643767D2*
X2657767D1*
X2680767D2*
X2694767D1*
X2717767D2*
X2730767D1*
X2754767D2*
X2768767D1*
X2804767D2*
X2847486D1*
X2391767Y886243D2*
X2404771D1*
X2448767D2*
X2461806D1*
X2486767D2*
X2500767D1*
X2509767D2*
X2522933D1*
X2529759D2*
X2540102D1*
X2545431D2*
X2555774D1*
X2562767D2*
X2575767D1*
X2585767D2*
X2624403D1*
X2643767D2*
X2657767D1*
X2680767D2*
X2694767D1*
X2717767D2*
X2730767D1*
X2754767D2*
X2768767D1*
X2804767D2*
X2848613D1*
X2391767Y885243D2*
X2404806D1*
X2448767D2*
X2461933D1*
X2486767D2*
X2500767D1*
X2509767D2*
X2523173D1*
X2530102D2*
X2540439D1*
X2545095D2*
X2555431D1*
X2562763D2*
X2575767D1*
X2585767D2*
X2622259D1*
X2643767D2*
X2657767D1*
X2680767D2*
X2694767D1*
X2717767D2*
X2730767D1*
X2754767D2*
X2768767D1*
X2804767D2*
X2849552D1*
X2391767Y884243D2*
X2404933D1*
X2448767D2*
X2462173D1*
X2486767D2*
X2500767D1*
X2509767D2*
X2523429D1*
X2530439D2*
X2540759D1*
X2544774D2*
X2555095D1*
X2562728D2*
X2575767D1*
X2585767D2*
X2619648D1*
X2643767D2*
X2657767D1*
X2680767D2*
X2694767D1*
X2717767D2*
X2730767D1*
X2754767D2*
X2768767D1*
X2804767D2*
X2818767D1*
X2832370D2*
X2850302D1*
X2391767Y883243D2*
X2405173D1*
X2448767D2*
X2462429D1*
X2486763D2*
X2500763D1*
X2509767D2*
X2523603D1*
X2530759D2*
X2541102D1*
X2544431D2*
X2554774D1*
X2562600D2*
X2575767D1*
X2585767D2*
X2616767D1*
X2643767D2*
X2657767D1*
X2680767D2*
X2694767D1*
X2717767D2*
X2730767D1*
X2754767D2*
X2768767D1*
X2804767D2*
X2818767D1*
X2834504D2*
X2850889D1*
X2391767Y882243D2*
X2405433D1*
X2427767D2*
X2440767D1*
X2448771D2*
X2462607D1*
X2486728D2*
X2500728D1*
X2509767D2*
X2523696D1*
X2531102D2*
X2541442D1*
X2544092D2*
X2554431D1*
X2562361D2*
X2575767D1*
X2585767D2*
X2599767D1*
X2643767D2*
X2657767D1*
X2680767D2*
X2694763D1*
X2717767D2*
X2730767D1*
X2754767D2*
X2768767D1*
X2804767D2*
X2818767D1*
X2836043D2*
X2851316D1*
X2391771Y881243D2*
X2405643D1*
X2427612D2*
X2440767D1*
X2448806D2*
X2462735D1*
X2486600D2*
X2500600D1*
X2509767D2*
X2523739D1*
X2531439D2*
X2541790D1*
X2543743D2*
X2554095D1*
X2562104D2*
X2575767D1*
X2585767D2*
X2599767D1*
X2643767D2*
X2657767D1*
X2680763D2*
X2694728D1*
X2717767D2*
X2730767D1*
X2754767D2*
X2768767D1*
X2804767D2*
X2818767D1*
X2837089D2*
X2851598D1*
X2391806Y880243D2*
X2405863D1*
X2427364D2*
X2440763D1*
X2448933D2*
X2462909D1*
X2486357D2*
X2500357D1*
X2509767D2*
X2523756D1*
X2531759D2*
X2542237D1*
X2543296D2*
X2553774D1*
X2561930D2*
X2575767D1*
X2585767D2*
X2599767D1*
X2643771D2*
X2657771D1*
X2680728D2*
X2694600D1*
X2717767D2*
X2730767D1*
X2754767D2*
X2768767D1*
X2804767D2*
X2818767D1*
X2837807D2*
X2851846D1*
X2391933Y879243D2*
X2406149D1*
X2427101D2*
X2440728D1*
X2449177D2*
X2463201D1*
X2486061D2*
X2500065D1*
X2509767D2*
X2523763D1*
X2532102D2*
X2553431D1*
X2561837D2*
X2575767D1*
X2585767D2*
X2599767D1*
X2643806D2*
X2657806D1*
X2680596D2*
X2694361D1*
X2717767D2*
X2730767D1*
X2754767D2*
X2768767D1*
X2804767D2*
X2818767D1*
X2838282D2*
X2852139D1*
X2392177Y878243D2*
X2406462D1*
X2426891D2*
X2440600D1*
X2449468D2*
X2463596D1*
X2485724D2*
X2499763D1*
X2509767D2*
X2523765D1*
X2532439D2*
X2553095D1*
X2561795D2*
X2575767D1*
X2585767D2*
X2599767D1*
X2643933D2*
X2657937D1*
X2680322D2*
X2694100D1*
X2717767D2*
X2730767D1*
X2754767D2*
X2768767D1*
X2804767D2*
X2818767D1*
X2838548D2*
X2852417D1*
X2392468Y877243D2*
X2406809D1*
X2426667D2*
X2440361D1*
X2449774D2*
X2464051D1*
X2485261D2*
X2499427D1*
X2509767D2*
X2523766D1*
X2532759D2*
X2552774D1*
X2561777D2*
X2575767D1*
X2585767D2*
X2599767D1*
X2644173D2*
X2658216D1*
X2679934D2*
X2693891D1*
X2717767D2*
X2730767D1*
X2754767D2*
X2768767D1*
X2804767D2*
X2818767D1*
X2838676D2*
X2852599D1*
X2392774Y876243D2*
X2407310D1*
X2426346D2*
X2440100D1*
X2450141D2*
X2464572D1*
X2484679D2*
X2499093D1*
X2509767D2*
X2523767D1*
X2533102D2*
X2552431D1*
X2561770D2*
X2575767D1*
X2585767D2*
X2599767D1*
X2644433D2*
X2658639D1*
X2679477D2*
X2693671D1*
X2717767D2*
X2730767D1*
X2754767D2*
X2768767D1*
X2804767D2*
X2818767D1*
X2838732D2*
X2852695D1*
X2393141Y875243D2*
X2408020D1*
X2425901D2*
X2439891D1*
X2450571D2*
X2465234D1*
X2484026D2*
X2498770D1*
X2509767D2*
X2523767D1*
X2533439D2*
X2552095D1*
X2561768D2*
X2575767D1*
X2585767D2*
X2599767D1*
X2644643D2*
X2659227D1*
X2678922D2*
X2693385D1*
X2717767D2*
X2730767D1*
X2754767D2*
X2768767D1*
X2804767D2*
X2818767D1*
X2838754D2*
X2852738D1*
X2393571Y874243D2*
X2408945D1*
X2425244D2*
X2439667D1*
X2451042D2*
X2466200D1*
X2483152D2*
X2498392D1*
X2509767D2*
X2523767D1*
X2533759D2*
X2551774D1*
X2561767D2*
X2575767D1*
X2585767D2*
X2599767D1*
X2644867D2*
X2660091D1*
X2678259D2*
X2693076D1*
X2717767D2*
X2730767D1*
X2754767D2*
X2768767D1*
X2804767D2*
X2818767D1*
X2838762D2*
X2852756D1*
X2394042Y873243D2*
X2410053D1*
X2424346D2*
X2439350D1*
X2451560D2*
X2467759D1*
X2481995D2*
X2497928D1*
X2509767D2*
X2523767D1*
X2534102D2*
X2551431D1*
X2561767D2*
X2575767D1*
X2585767D2*
X2599767D1*
X2645188D2*
X2661224D1*
X2676658D2*
X2692763D1*
X2717767D2*
X2730767D1*
X2754767D2*
X2768767D1*
X2804767D2*
X2818767D1*
X2838765D2*
X2852763D1*
X2394564Y872243D2*
X2412891D1*
X2421580D2*
X2438944D1*
X2452151D2*
X2470452D1*
X2479118D2*
X2497364D1*
X2509767D2*
X2523767D1*
X2534439D2*
X2551095D1*
X2561767D2*
X2575767D1*
X2585767D2*
X2599767D1*
X2645624D2*
X2664500D1*
X2673845D2*
X2692389D1*
X2717767D2*
X2730767D1*
X2754767D2*
X2768767D1*
X2804767D2*
X2818767D1*
X2838766D2*
X2852765D1*
X2395190Y871243D2*
X2417311D1*
X2417198D2*
X2438485D1*
X2452797D2*
X2474653D1*
X2474884D2*
X2496730D1*
X2509767D2*
X2523767D1*
X2534759D2*
X2550774D1*
X2561767D2*
X2575767D1*
X2585767D2*
X2599767D1*
X2646176D2*
X2669564D1*
X2669326D2*
X2691923D1*
X2717767D2*
X2730767D1*
X2754767D2*
X2797767D1*
X2804767D2*
X2818767D1*
X2838766D2*
X2852766D1*
X2395963Y870243D2*
X2437967D1*
X2453443D2*
X2496087D1*
X2509767D2*
X2523767D1*
X2535102D2*
X2550431D1*
X2561767D2*
X2575767D1*
X2585767D2*
X2599767D1*
X2646806D2*
X2691325D1*
X2717767D2*
X2730767D1*
X2754767D2*
X2797767D1*
X2804767D2*
X2818767D1*
X2838767D2*
X2852767D1*
X2396849Y869243D2*
X2437343D1*
X2454137D2*
X2495396D1*
X2509767D2*
X2523767D1*
X2535439D2*
X2550095D1*
X2561767D2*
X2575767D1*
X2585767D2*
X2599767D1*
X2647451D2*
X2690563D1*
X2717767D2*
X2730767D1*
X2754767D2*
X2797767D1*
X2804767D2*
X2818767D1*
X2838771D2*
X2852771D1*
X2397799Y868243D2*
X2436570D1*
X2454946D2*
X2494587D1*
X2509767D2*
X2523767D1*
X2535759D2*
X2549774D1*
X2561767D2*
X2575767D1*
X2585767D2*
X2599767D1*
X2648177D2*
X2689681D1*
X2717767D2*
X2730767D1*
X2754767D2*
X2797767D1*
X2804767D2*
X2818767D1*
X2838806D2*
X2852806D1*
X2398783Y867243D2*
X2435684D1*
X2455880D2*
X2493653D1*
X2509767D2*
X2523767D1*
X2536102D2*
X2549431D1*
X2561767D2*
X2575767D1*
X2585767D2*
X2599767D1*
X2649113D2*
X2688729D1*
X2717767D2*
X2730767D1*
X2754767D2*
X2797767D1*
X2804767D2*
X2818767D1*
X2838933D2*
X2852933D1*
X2399814Y866243D2*
X2434730D1*
X2456967D2*
X2492567D1*
X2509767D2*
X2523767D1*
X2536439D2*
X2549095D1*
X2561767D2*
X2575767D1*
X2585767D2*
X2599767D1*
X2650290D2*
X2687711D1*
X2717767D2*
X2730767D1*
X2754767D2*
X2797767D1*
X2804767D2*
X2818767D1*
X2839177D2*
X2853177D1*
X2400978Y865243D2*
X2433708D1*
X2458231D2*
X2491303D1*
X2509767D2*
X2523767D1*
X2536759D2*
X2548774D1*
X2561767D2*
X2575767D1*
X2585767D2*
X2599767D1*
X2651668D2*
X2686549D1*
X2717767D2*
X2730767D1*
X2754767D2*
X2797767D1*
X2804767D2*
X2818767D1*
X2839468D2*
X2853472D1*
X2402390Y864243D2*
X2432506D1*
X2459685D2*
X2489844D1*
X2509767D2*
X2523767D1*
X2537098D2*
X2548435D1*
X2561767D2*
X2575767D1*
X2585767D2*
X2599767D1*
X2653238D2*
X2685103D1*
X2717767D2*
X2730767D1*
X2754767D2*
X2797767D1*
X2804767D2*
X2818767D1*
X2839771D2*
X2853813D1*
X2404129Y863243D2*
X2430899D1*
X2461429D2*
X2488062D1*
X2509767D2*
X2523767D1*
X2537402D2*
X2548131D1*
X2561767D2*
X2575767D1*
X2585767D2*
X2599767D1*
X2655062D2*
X2683237D1*
X2717767D2*
X2730767D1*
X2754767D2*
X2797767D1*
X2804767D2*
X2818767D1*
X2840112D2*
X2854308D1*
X2406274Y862243D2*
X2428681D1*
X2463585D2*
X2485751D1*
X2509767D2*
X2523767D1*
X2537611D2*
X2547922D1*
X2561767D2*
X2575767D1*
X2585767D2*
X2599767D1*
X2657247D2*
X2680844D1*
X2717767D2*
X2730767D1*
X2754767D2*
X2797767D1*
X2804767D2*
X2818767D1*
X2840453D2*
X2854992D1*
X2408885Y861243D2*
X2425871D1*
X2466098D2*
X2482897D1*
X2509767D2*
X2523767D1*
X2537767D2*
X2547767D1*
X2561767D2*
X2575767D1*
X2585767D2*
X2599767D1*
X2659875D2*
X2677936D1*
X2717767D2*
X2730767D1*
X2754767D2*
X2797767D1*
X2804767D2*
X2818767D1*
X2840767D2*
X2855767D1*
X2411767Y860243D2*
X2422767D1*
X2468767D2*
X2479767D1*
X2662767D2*
X2674767D1*
X1440016Y923243D2*
X1455016D1*
X1480016D2*
X1494016D1*
X1528016D2*
X1542016D1*
X1439516Y922243D2*
X1455171D1*
X1480016D2*
X1494016D1*
X1528016D2*
X1542016D1*
X1439101Y921243D2*
X1455422D1*
X1480016D2*
X1494016D1*
X1528016D2*
X1542016D1*
X1438712Y920243D2*
X1455716D1*
X1480016D2*
X1494016D1*
X1528016D2*
X1542016D1*
X1438356Y919243D2*
X1456019D1*
X1480016D2*
X1494016D1*
X1528016D2*
X1542016D1*
X1438028Y918243D2*
X1456355D1*
X1480016D2*
X1494016D1*
X1528016D2*
X1542016D1*
X1437682Y917243D2*
X1456689D1*
X1480016D2*
X1494016D1*
X1528016D2*
X1542016D1*
X1437344Y916243D2*
X1457009D1*
X1480016D2*
X1494016D1*
X1528016D2*
X1542016D1*
X1437024Y915243D2*
X1457352D1*
X1480016D2*
X1494016D1*
X1528016D2*
X1542016D1*
X1436680Y914243D2*
X1457688D1*
X1480016D2*
X1494016D1*
X1528016D2*
X1542016D1*
X1436344Y913243D2*
X1458008D1*
X1480016D2*
X1494016D1*
X1528016D2*
X1542016D1*
X1436024Y912243D2*
X1458348D1*
X1480016D2*
X1494016D1*
X1528016D2*
X1542016D1*
X1435680Y911243D2*
X1458653D1*
X1480016D2*
X1494016D1*
X1528016D2*
X1542016D1*
X1435344Y910243D2*
X1458881D1*
X1480016D2*
X1494016D1*
X1528016D2*
X1542016D1*
X1435024Y909243D2*
X1459108D1*
X1480016D2*
X1494016D1*
X1528016D2*
X1542016D1*
X1434680Y908243D2*
X1459397D1*
X1480016D2*
X1494016D1*
X1528016D2*
X1542016D1*
X1434344Y907243D2*
X1459707D1*
X1480016D2*
X1494016D1*
X1528016D2*
X1542016D1*
X1434024Y906243D2*
X1446012D1*
X1448054D2*
X1460015D1*
X1480016D2*
X1494016D1*
X1528016D2*
X1542016D1*
X1433684Y905243D2*
X1445977D1*
X1448182D2*
X1460354D1*
X1480016D2*
X1494016D1*
X1528016D2*
X1542016D1*
X1433379Y904243D2*
X1445849D1*
X1448426D2*
X1460689D1*
X1480016D2*
X1494016D1*
X1528016D2*
X1542016D1*
X1433151Y903243D2*
X1445606D1*
X1448717D2*
X1461009D1*
X1480016D2*
X1494016D1*
X1528016D2*
X1542016D1*
X1432924Y902243D2*
X1445315D1*
X1449019D2*
X1461352D1*
X1480016D2*
X1494016D1*
X1528016D2*
X1542016D1*
X1432635Y901243D2*
X1445013D1*
X1449352D2*
X1461688D1*
X1480016D2*
X1494016D1*
X1528016D2*
X1542016D1*
X1432325Y900243D2*
X1444680D1*
X1449654D2*
X1462008D1*
X1480016D2*
X1494016D1*
X1528016D2*
X1542016D1*
X1432017Y899243D2*
X1444378D1*
X1449881D2*
X1462352D1*
X1480016D2*
X1494016D1*
X1528016D2*
X1542016D1*
X1431678Y898243D2*
X1444151D1*
X1450108D2*
X1462688D1*
X1480016D2*
X1494016D1*
X1528016D2*
X1542016D1*
X1431343Y897243D2*
X1443924D1*
X1450397D2*
X1463008D1*
X1480016D2*
X1494016D1*
X1528016D2*
X1542016D1*
X1431023Y896243D2*
X1443635D1*
X1450707D2*
X1463352D1*
X1480016D2*
X1494016D1*
X1528016D2*
X1542016D1*
X1430680Y895243D2*
X1443325D1*
X1451015D2*
X1463688D1*
X1480016D2*
X1494016D1*
X1528016D2*
X1542016D1*
X1430344Y894243D2*
X1443017D1*
X1451350D2*
X1464008D1*
X1480016D2*
X1494016D1*
X1528016D2*
X1542016D1*
X1430024Y893243D2*
X1442682D1*
X1451654D2*
X1464352D1*
X1480016D2*
X1494016D1*
X1528016D2*
X1542016D1*
X1429680Y892243D2*
X1442378D1*
X1451881D2*
X1464688D1*
X1480016D2*
X1494016D1*
X1528016D2*
X1542016D1*
X1429344Y891243D2*
X1442151D1*
X1452108D2*
X1465008D1*
X1480016D2*
X1494016D1*
X1528016D2*
X1542016D1*
X1429024Y890243D2*
X1441924D1*
X1452393D2*
X1465352D1*
X1480016D2*
X1494016D1*
X1528016D2*
X1542016D1*
X1428680Y889243D2*
X1441635D1*
X1452671D2*
X1465688D1*
X1480016D2*
X1494016D1*
X1528016D2*
X1542016D1*
X1428344Y888243D2*
X1441325D1*
X1452888D2*
X1466008D1*
X1480016D2*
X1494016D1*
X1528016D2*
X1542016D1*
X1428024Y887243D2*
X1441017D1*
X1453111D2*
X1466352D1*
X1480016D2*
X1494016D1*
X1528016D2*
X1542016D1*
X1427680Y886243D2*
X1440682D1*
X1453394D2*
X1466688D1*
X1480016D2*
X1494016D1*
X1528016D2*
X1542016D1*
X1427344Y885243D2*
X1440379D1*
X1453670D2*
X1467008D1*
X1480016D2*
X1494016D1*
X1528016D2*
X1542016D1*
X1427024Y884243D2*
X1440171D1*
X1453867D2*
X1467348D1*
X1480016D2*
X1494016D1*
X1528016D2*
X1542016D1*
X1426680Y883243D2*
X1467653D1*
X1480016D2*
X1494016D1*
X1528016D2*
X1542016D1*
X1426344Y882243D2*
X1467881D1*
X1480016D2*
X1494016D1*
X1528016D2*
X1542016D1*
X1426024Y881243D2*
X1468108D1*
X1480016D2*
X1494016D1*
X1528016D2*
X1542016D1*
X1425684Y880243D2*
X1468397D1*
X1480016D2*
X1494016D1*
X1528016D2*
X1542016D1*
X1425379Y879243D2*
X1468707D1*
X1480016D2*
X1494016D1*
X1528016D2*
X1542016D1*
X1425151Y878243D2*
X1469015D1*
X1480016D2*
X1494016D1*
X1528016D2*
X1542016D1*
X1424924Y877243D2*
X1469354D1*
X1480016D2*
X1494016D1*
X1528016D2*
X1542016D1*
X1424635Y876243D2*
X1469689D1*
X1480016D2*
X1494016D1*
X1528016D2*
X1542016D1*
X1424325Y875243D2*
X1470009D1*
X1480016D2*
X1494016D1*
X1528016D2*
X1542016D1*
X1424017Y874243D2*
X1470352D1*
X1480016D2*
X1494016D1*
X1528016D2*
X1542016D1*
X1423678Y873243D2*
X1470688D1*
X1480016D2*
X1494016D1*
X1528016D2*
X1542016D1*
X1423343Y872243D2*
X1437213D1*
X1458020D2*
X1471008D1*
X1480016D2*
X1494016D1*
X1528016D2*
X1542016D1*
X1423023Y871243D2*
X1436624D1*
X1458055D2*
X1471352D1*
X1480016D2*
X1521016D1*
X1528016D2*
X1569016D1*
X1422680Y870243D2*
X1436254D1*
X1458183D2*
X1471688D1*
X1480016D2*
X1521016D1*
X1528016D2*
X1569016D1*
X1422344Y869243D2*
X1435964D1*
X1458426D2*
X1472008D1*
X1480016D2*
X1521016D1*
X1528016D2*
X1569016D1*
X1422024Y868243D2*
X1435650D1*
X1458717D2*
X1472352D1*
X1480016D2*
X1521016D1*
X1528016D2*
X1569016D1*
X1421680Y867243D2*
X1435331D1*
X1459019D2*
X1472688D1*
X1480016D2*
X1521016D1*
X1528016D2*
X1569016D1*
X1421344Y866243D2*
X1435018D1*
X1459355D2*
X1473008D1*
X1480016D2*
X1521016D1*
X1528016D2*
X1569016D1*
X1421024Y865243D2*
X1434678D1*
X1459689D2*
X1473352D1*
X1480016D2*
X1521016D1*
X1528016D2*
X1569016D1*
X1420684Y864243D2*
X1434340D1*
X1460010D2*
X1473691D1*
X1480016D2*
X1521016D1*
X1528016D2*
X1569016D1*
X1420380Y863243D2*
X1433993D1*
X1460357D2*
X1474039D1*
X1480016D2*
X1521016D1*
X1528016D2*
X1569016D1*
X1420172Y862243D2*
X1433546D1*
X1460701D2*
X1474486D1*
X1480016D2*
X1521016D1*
X1528016D2*
X1569016D1*
X1420016Y861243D2*
X1433016D1*
X1461016D2*
X1475016D1*
X1480016D2*
X1521016D1*
X1528016D2*
X1569016D1*
X3599017Y923243D2*
X3618017D1*
X3647017D2*
X3665017D1*
X3695017D2*
X3705017D1*
X3731017D2*
X3778017D1*
X3805017D2*
X3815017D1*
X3845017D2*
X3875017D1*
X3599017Y922243D2*
X3618172D1*
X3646518D2*
X3665017D1*
X3691790D2*
X3708240D1*
X3731017D2*
X3778017D1*
X3801790D2*
X3818240D1*
X3845017D2*
X3877937D1*
X3599017Y921243D2*
X3618420D1*
X3646102D2*
X3665017D1*
X3689050D2*
X3710949D1*
X3731017D2*
X3778017D1*
X3799050D2*
X3820949D1*
X3845017D2*
X3880472D1*
X3599017Y920243D2*
X3618683D1*
X3645713D2*
X3665017D1*
X3686849D2*
X3713058D1*
X3731017D2*
X3778017D1*
X3796849D2*
X3823058D1*
X3845017D2*
X3882596D1*
X3599017Y919243D2*
X3618893D1*
X3645357D2*
X3665017D1*
X3685045D2*
X3714750D1*
X3731017D2*
X3778017D1*
X3795045D2*
X3824750D1*
X3845017D2*
X3884319D1*
X3599017Y918243D2*
X3619113D1*
X3645029D2*
X3665017D1*
X3683529D2*
X3716249D1*
X3731017D2*
X3778017D1*
X3793529D2*
X3826249D1*
X3845017D2*
X3885709D1*
X3599017Y917243D2*
X3619399D1*
X3644683D2*
X3665017D1*
X3682250D2*
X3717610D1*
X3731017D2*
X3778017D1*
X3792250D2*
X3827610D1*
X3845017D2*
X3886888D1*
X3599017Y916243D2*
X3619708D1*
X3644346D2*
X3665017D1*
X3681151D2*
X3718791D1*
X3731017D2*
X3778017D1*
X3791151D2*
X3828791D1*
X3845017D2*
X3887930D1*
X3599017Y915243D2*
X3620017D1*
X3644025D2*
X3665017D1*
X3680220D2*
X3719772D1*
X3731017D2*
X3778017D1*
X3790220D2*
X3829772D1*
X3845017D2*
X3888829D1*
X3599017Y914243D2*
X3620355D1*
X3643682D2*
X3665017D1*
X3679440D2*
X3720577D1*
X3731017D2*
X3778017D1*
X3789440D2*
X3830577D1*
X3845017D2*
X3889562D1*
X3599017Y913243D2*
X3620690D1*
X3643345D2*
X3665017D1*
X3678723D2*
X3721304D1*
X3731017D2*
X3778017D1*
X3788723D2*
X3831304D1*
X3845017D2*
X3890143D1*
X3599017Y912243D2*
X3621010D1*
X3643025D2*
X3665017D1*
X3678026D2*
X3696059D1*
X3703971D2*
X3722006D1*
X3748017D2*
X3761017D1*
X3788026D2*
X3806059D1*
X3813971D2*
X3832006D1*
X3845017D2*
X3859017D1*
X3872817D2*
X3890568D1*
X3599017Y911243D2*
X3621353D1*
X3642682D2*
X3665017D1*
X3677392D2*
X3694230D1*
X3705769D2*
X3722637D1*
X3748017D2*
X3761017D1*
X3787392D2*
X3804230D1*
X3815769D2*
X3832637D1*
X3845017D2*
X3859017D1*
X3874367D2*
X3890849D1*
X3599017Y910243D2*
X3621689D1*
X3642345D2*
X3665017D1*
X3676822D2*
X3692672D1*
X3707235D2*
X3723177D1*
X3748017D2*
X3761017D1*
X3786822D2*
X3802672D1*
X3817235D2*
X3833177D1*
X3845017D2*
X3859017D1*
X3875570D2*
X3891097D1*
X3599017Y909243D2*
X3622010D1*
X3642025D2*
X3665017D1*
X3676293D2*
X3691466D1*
X3708330D2*
X3723614D1*
X3748017D2*
X3761017D1*
X3786293D2*
X3801466D1*
X3818330D2*
X3833614D1*
X3845017D2*
X3859017D1*
X3876454D2*
X3891390D1*
X3599017Y908243D2*
X3622353D1*
X3641682D2*
X3665017D1*
X3675811D2*
X3690577D1*
X3709197D2*
X3723980D1*
X3748017D2*
X3761017D1*
X3785811D2*
X3800577D1*
X3819197D2*
X3833980D1*
X3845017D2*
X3859017D1*
X3877101D2*
X3891667D1*
X3599017Y907243D2*
X3622689D1*
X3641345D2*
X3665017D1*
X3675401D2*
X3689894D1*
X3709931D2*
X3724342D1*
X3748017D2*
X3761017D1*
X3785401D2*
X3799894D1*
X3819931D2*
X3834342D1*
X3845017D2*
X3859017D1*
X3877549D2*
X3891850D1*
X3599017Y906243D2*
X3623010D1*
X3641025D2*
X3665017D1*
X3675047D2*
X3689319D1*
X3710495D2*
X3724685D1*
X3748017D2*
X3761017D1*
X3785047D2*
X3799319D1*
X3820495D2*
X3834685D1*
X3845017D2*
X3859017D1*
X3877804D2*
X3891945D1*
X3599017Y905243D2*
X3623353D1*
X3640682D2*
X3665017D1*
X3674694D2*
X3688824D1*
X3710928D2*
X3725008D1*
X3748017D2*
X3761017D1*
X3784694D2*
X3798824D1*
X3820928D2*
X3835008D1*
X3845017D2*
X3859017D1*
X3877929D2*
X3891989D1*
X3599017Y904243D2*
X3623689D1*
X3640345D2*
X3665017D1*
X3674387D2*
X3688443D1*
X3711317D2*
X3725349D1*
X3748017D2*
X3761017D1*
X3784387D2*
X3798443D1*
X3821317D2*
X3835349D1*
X3845017D2*
X3859017D1*
X3877983D2*
X3892003D1*
X3599017Y903243D2*
X3624010D1*
X3640025D2*
X3651017D1*
X3653017D2*
X3665017D1*
X3674192D2*
X3688211D1*
X3711639D2*
X3725650D1*
X3748017D2*
X3761017D1*
X3784192D2*
X3798211D1*
X3821639D2*
X3835650D1*
X3845017D2*
X3859017D1*
X3878001D2*
X3891974D1*
X3599017Y902243D2*
X3612017D1*
X3614055D2*
X3624349D1*
X3639682D2*
X3665017D1*
X3674092D2*
X3688061D1*
X3711839D2*
X3725843D1*
X3748017D2*
X3761017D1*
X3784092D2*
X3798061D1*
X3821839D2*
X3835843D1*
X3845017D2*
X3859017D1*
X3877970D2*
X3891850D1*
X3599017Y901243D2*
X3612017D1*
X3614184D2*
X3624654D1*
X3639345D2*
X3649979D1*
X3652017D2*
X3665017D1*
X3674047D2*
X3687883D1*
X3711942D2*
X3725943D1*
X3748017D2*
X3761017D1*
X3784047D2*
X3797883D1*
X3821942D2*
X3835943D1*
X3845017D2*
X3859017D1*
X3877806D2*
X3891607D1*
X3599017Y900243D2*
X3612017D1*
X3614427D2*
X3624882D1*
X3639025D2*
X3649847D1*
X3652017D2*
X3665017D1*
X3674028D2*
X3687623D1*
X3711987D2*
X3725988D1*
X3748017D2*
X3761017D1*
X3784028D2*
X3797623D1*
X3821987D2*
X3835988D1*
X3845017D2*
X3859017D1*
X3877397D2*
X3891312D1*
X3599017Y899243D2*
X3612017D1*
X3614719D2*
X3625109D1*
X3638686D2*
X3649572D1*
X3652017D2*
X3665017D1*
X3674021D2*
X3687359D1*
X3712006D2*
X3726006D1*
X3748017D2*
X3761017D1*
X3784021D2*
X3797359D1*
X3822006D2*
X3836006D1*
X3845017D2*
X3859017D1*
X3876696D2*
X3890975D1*
X3599017Y898243D2*
X3612017D1*
X3615021D2*
X3625398D1*
X3638380D2*
X3649188D1*
X3652017D2*
X3665017D1*
X3674019D2*
X3687182D1*
X3712013D2*
X3726013D1*
X3748017D2*
X3761017D1*
X3784019D2*
X3797182D1*
X3822013D2*
X3836013D1*
X3845017D2*
X3859017D1*
X3875693D2*
X3890511D1*
X3599017Y897243D2*
X3612017D1*
X3615357D2*
X3625708D1*
X3638152D2*
X3648771D1*
X3652017D2*
X3665017D1*
X3674018D2*
X3687088D1*
X3712016D2*
X3726016D1*
X3748017D2*
X3761017D1*
X3784018D2*
X3797088D1*
X3822016D2*
X3836016D1*
X3845017D2*
X3859017D1*
X3874361D2*
X3889934D1*
X3599017Y896243D2*
X3612017D1*
X3615691D2*
X3626017D1*
X3637925D2*
X3648386D1*
X3652017D2*
X3665017D1*
X3674017D2*
X3687046D1*
X3712017D2*
X3726017D1*
X3748017D2*
X3761017D1*
X3784017D2*
X3797046D1*
X3822017D2*
X3836017D1*
X3845017D2*
X3859017D1*
X3872751D2*
X3889315D1*
X3599017Y895243D2*
X3612017D1*
X3616010D2*
X3626355D1*
X3637637D2*
X3648042D1*
X3652017D2*
X3665017D1*
X3674017D2*
X3687028D1*
X3712017D2*
X3726017D1*
X3748017D2*
X3761017D1*
X3784017D2*
X3797028D1*
X3822017D2*
X3836017D1*
X3845017D2*
X3888596D1*
X3599017Y894243D2*
X3612017D1*
X3616353D2*
X3626690D1*
X3637327D2*
X3647688D1*
X3652017D2*
X3665017D1*
X3674017D2*
X3687021D1*
X3712017D2*
X3726017D1*
X3748017D2*
X3761017D1*
X3784017D2*
X3797021D1*
X3822017D2*
X3836017D1*
X3845017D2*
X3887638D1*
X3599017Y893243D2*
X3612017D1*
X3616689D2*
X3627010D1*
X3637018D2*
X3647348D1*
X3652017D2*
X3665017D1*
X3674017D2*
X3687019D1*
X3712017D2*
X3726017D1*
X3748017D2*
X3761017D1*
X3784017D2*
X3797019D1*
X3822017D2*
X3836017D1*
X3845017D2*
X3886410D1*
X3599017Y892243D2*
X3612017D1*
X3617010D2*
X3627353D1*
X3636679D2*
X3647026D1*
X3652017D2*
X3665017D1*
X3674017D2*
X3687018D1*
X3712017D2*
X3726017D1*
X3748017D2*
X3761017D1*
X3784017D2*
X3797018D1*
X3822017D2*
X3836017D1*
X3845017D2*
X3885104D1*
X3599017Y891243D2*
X3612017D1*
X3617353D2*
X3627689D1*
X3636344D2*
X3646682D1*
X3652017D2*
X3665017D1*
X3674017D2*
X3687017D1*
X3712017D2*
X3726017D1*
X3748017D2*
X3761017D1*
X3784017D2*
X3797017D1*
X3822017D2*
X3836017D1*
X3845017D2*
X3883978D1*
X3599017Y890243D2*
X3612017D1*
X3617689D2*
X3628010D1*
X3636025D2*
X3646345D1*
X3652017D2*
X3665017D1*
X3674017D2*
X3687017D1*
X3712017D2*
X3726017D1*
X3748017D2*
X3761017D1*
X3784017D2*
X3797017D1*
X3822017D2*
X3836017D1*
X3845017D2*
X3883017D1*
X3599017Y889243D2*
X3612017D1*
X3618010D2*
X3628353D1*
X3635682D2*
X3646025D1*
X3652017D2*
X3665017D1*
X3674017D2*
X3687017D1*
X3712017D2*
X3726017D1*
X3748017D2*
X3761017D1*
X3784017D2*
X3797017D1*
X3822017D2*
X3836017D1*
X3845017D2*
X3884821D1*
X3599017Y888243D2*
X3612021D1*
X3618353D2*
X3628689D1*
X3635345D2*
X3645682D1*
X3652017D2*
X3665017D1*
X3674017D2*
X3687017D1*
X3712017D2*
X3726017D1*
X3748017D2*
X3761017D1*
X3784017D2*
X3797017D1*
X3822017D2*
X3836017D1*
X3845017D2*
X3886406D1*
X3599017Y887243D2*
X3612056D1*
X3618689D2*
X3629010D1*
X3635025D2*
X3645345D1*
X3652017D2*
X3665017D1*
X3674017D2*
X3687021D1*
X3712017D2*
X3726017D1*
X3748017D2*
X3761017D1*
X3784017D2*
X3797021D1*
X3822017D2*
X3836017D1*
X3845017D2*
X3887737D1*
X3599017Y886243D2*
X3612184D1*
X3619010D2*
X3629353D1*
X3634682D2*
X3645025D1*
X3652017D2*
X3665017D1*
X3674017D2*
X3687056D1*
X3712017D2*
X3726017D1*
X3748017D2*
X3761017D1*
X3784017D2*
X3797056D1*
X3822017D2*
X3836017D1*
X3845017D2*
X3888864D1*
X3599017Y885243D2*
X3612423D1*
X3619353D2*
X3629689D1*
X3634345D2*
X3644682D1*
X3652013D2*
X3665017D1*
X3674017D2*
X3687184D1*
X3712017D2*
X3726017D1*
X3748017D2*
X3761017D1*
X3784017D2*
X3797184D1*
X3822017D2*
X3836017D1*
X3845017D2*
X3889803D1*
X3599017Y884243D2*
X3612680D1*
X3619689D2*
X3630010D1*
X3634025D2*
X3644345D1*
X3651978D2*
X3665017D1*
X3674017D2*
X3687423D1*
X3712017D2*
X3726017D1*
X3748017D2*
X3761017D1*
X3784017D2*
X3797423D1*
X3822017D2*
X3836017D1*
X3845017D2*
X3859017D1*
X3872620D2*
X3890552D1*
X3599017Y883243D2*
X3612854D1*
X3620010D2*
X3630353D1*
X3633682D2*
X3644025D1*
X3651851D2*
X3665017D1*
X3674017D2*
X3687680D1*
X3712013D2*
X3726013D1*
X3748017D2*
X3761017D1*
X3784017D2*
X3797680D1*
X3822013D2*
X3836013D1*
X3845017D2*
X3859017D1*
X3874755D2*
X3891140D1*
X3599017Y882243D2*
X3612947D1*
X3620353D2*
X3630692D1*
X3633342D2*
X3643682D1*
X3651611D2*
X3665017D1*
X3674021D2*
X3687858D1*
X3711978D2*
X3725978D1*
X3748017D2*
X3761017D1*
X3784021D2*
X3797858D1*
X3821978D2*
X3835978D1*
X3845017D2*
X3859017D1*
X3876293D2*
X3891567D1*
X3599017Y881243D2*
X3612989D1*
X3620689D2*
X3631041D1*
X3632994D2*
X3643345D1*
X3651355D2*
X3665017D1*
X3674056D2*
X3687986D1*
X3711851D2*
X3725851D1*
X3748017D2*
X3761017D1*
X3784056D2*
X3797986D1*
X3821851D2*
X3835851D1*
X3845017D2*
X3859017D1*
X3877340D2*
X3891848D1*
X3599017Y880243D2*
X3613007D1*
X3621010D2*
X3631488D1*
X3632547D2*
X3643025D1*
X3651181D2*
X3665017D1*
X3674184D2*
X3688160D1*
X3711607D2*
X3725607D1*
X3748017D2*
X3761017D1*
X3784184D2*
X3798160D1*
X3821607D2*
X3835607D1*
X3845017D2*
X3859017D1*
X3878057D2*
X3892097D1*
X3599017Y879243D2*
X3613014D1*
X3621353D2*
X3642682D1*
X3651088D2*
X3665017D1*
X3674427D2*
X3688452D1*
X3711312D2*
X3725316D1*
X3748017D2*
X3761017D1*
X3784427D2*
X3798452D1*
X3821312D2*
X3835316D1*
X3845017D2*
X3859017D1*
X3878533D2*
X3892390D1*
X3599017Y878243D2*
X3613016D1*
X3621689D2*
X3642345D1*
X3651045D2*
X3665017D1*
X3674719D2*
X3688846D1*
X3710975D2*
X3725014D1*
X3748017D2*
X3761017D1*
X3784719D2*
X3798846D1*
X3820975D2*
X3835014D1*
X3845017D2*
X3859017D1*
X3878799D2*
X3892667D1*
X3599017Y877243D2*
X3613017D1*
X3622010D2*
X3642025D1*
X3651028D2*
X3665017D1*
X3675025D2*
X3689302D1*
X3710511D2*
X3724678D1*
X3748017D2*
X3761017D1*
X3785025D2*
X3799302D1*
X3820511D2*
X3834678D1*
X3845017D2*
X3859017D1*
X3878927D2*
X3892850D1*
X3599017Y876243D2*
X3613017D1*
X3622353D2*
X3641682D1*
X3651021D2*
X3665017D1*
X3675392D2*
X3689822D1*
X3709930D2*
X3724344D1*
X3748017D2*
X3761017D1*
X3785392D2*
X3799822D1*
X3819930D2*
X3834344D1*
X3845017D2*
X3859017D1*
X3878982D2*
X3892945D1*
X3599017Y875243D2*
X3613017D1*
X3622689D2*
X3641345D1*
X3651019D2*
X3665017D1*
X3675822D2*
X3690484D1*
X3709276D2*
X3724021D1*
X3748017D2*
X3761017D1*
X3785822D2*
X3800484D1*
X3819276D2*
X3834021D1*
X3845017D2*
X3859017D1*
X3879004D2*
X3892989D1*
X3599017Y874243D2*
X3613017D1*
X3623010D2*
X3641025D1*
X3651018D2*
X3665017D1*
X3676293D2*
X3691451D1*
X3708402D2*
X3723643D1*
X3748017D2*
X3761017D1*
X3786293D2*
X3801451D1*
X3818402D2*
X3833643D1*
X3845017D2*
X3859017D1*
X3879013D2*
X3893007D1*
X3599017Y873243D2*
X3613017D1*
X3623353D2*
X3640682D1*
X3651017D2*
X3665017D1*
X3676811D2*
X3693010D1*
X3707246D2*
X3723179D1*
X3748017D2*
X3761017D1*
X3786811D2*
X3803010D1*
X3817246D2*
X3833179D1*
X3845017D2*
X3859017D1*
X3879016D2*
X3893014D1*
X3599017Y872243D2*
X3613017D1*
X3623689D2*
X3640345D1*
X3651017D2*
X3665017D1*
X3677401D2*
X3695702D1*
X3704368D2*
X3722615D1*
X3748017D2*
X3761017D1*
X3787401D2*
X3805702D1*
X3814368D2*
X3832615D1*
X3845017D2*
X3859017D1*
X3879017D2*
X3893016D1*
X3599017Y871243D2*
X3613017D1*
X3624010D2*
X3640025D1*
X3651017D2*
X3665017D1*
X3678047D2*
X3699903D1*
X3700135D2*
X3721980D1*
X3748017D2*
X3761017D1*
X3788047D2*
X3809903D1*
X3810135D2*
X3831980D1*
X3845017D2*
X3859017D1*
X3879017D2*
X3893017D1*
X3599017Y870243D2*
X3613017D1*
X3624353D2*
X3639682D1*
X3651017D2*
X3665017D1*
X3678694D2*
X3721338D1*
X3748017D2*
X3761017D1*
X3788694D2*
X3831338D1*
X3845017D2*
X3859017D1*
X3879017D2*
X3893017D1*
X3599017Y869243D2*
X3613017D1*
X3624689D2*
X3639345D1*
X3651017D2*
X3665017D1*
X3679387D2*
X3720646D1*
X3748017D2*
X3761017D1*
X3789387D2*
X3830646D1*
X3845017D2*
X3859017D1*
X3879021D2*
X3893021D1*
X3599017Y868243D2*
X3613017D1*
X3625010D2*
X3639025D1*
X3651017D2*
X3665017D1*
X3680196D2*
X3719838D1*
X3748017D2*
X3761017D1*
X3790196D2*
X3829838D1*
X3845017D2*
X3859017D1*
X3879056D2*
X3893056D1*
X3599017Y867243D2*
X3613017D1*
X3625353D2*
X3638682D1*
X3651017D2*
X3665017D1*
X3681131D2*
X3718903D1*
X3748017D2*
X3761017D1*
X3791131D2*
X3828903D1*
X3845017D2*
X3859017D1*
X3879184D2*
X3893184D1*
X3599017Y866243D2*
X3613017D1*
X3625689D2*
X3638345D1*
X3651017D2*
X3665017D1*
X3682217D2*
X3717817D1*
X3748017D2*
X3761017D1*
X3792217D2*
X3827817D1*
X3845017D2*
X3859017D1*
X3879427D2*
X3893427D1*
X3599017Y865243D2*
X3613017D1*
X3626010D2*
X3638025D1*
X3651017D2*
X3665017D1*
X3683481D2*
X3716553D1*
X3748017D2*
X3761017D1*
X3793481D2*
X3826553D1*
X3845017D2*
X3859017D1*
X3879719D2*
X3893723D1*
X3599017Y864243D2*
X3613017D1*
X3626349D2*
X3637685D1*
X3651017D2*
X3665017D1*
X3684936D2*
X3715095D1*
X3748017D2*
X3761017D1*
X3794936D2*
X3825095D1*
X3845017D2*
X3859017D1*
X3880021D2*
X3894063D1*
X3599017Y863243D2*
X3613017D1*
X3626653D2*
X3637382D1*
X3651017D2*
X3665017D1*
X3686680D2*
X3713313D1*
X3748017D2*
X3761017D1*
X3796680D2*
X3823313D1*
X3845017D2*
X3859017D1*
X3880362D2*
X3894559D1*
X3599017Y862243D2*
X3613017D1*
X3626862D2*
X3637173D1*
X3651017D2*
X3665017D1*
X3688836D2*
X3711002D1*
X3748017D2*
X3761017D1*
X3798836D2*
X3821002D1*
X3845017D2*
X3859017D1*
X3880704D2*
X3895242D1*
X3599017Y861243D2*
X3613017D1*
X3627017D2*
X3637017D1*
X3651017D2*
X3665017D1*
X3691348D2*
X3708148D1*
X3748017D2*
X3761017D1*
X3801348D2*
X3818148D1*
X3845017D2*
X3859017D1*
X3881017D2*
X3896017D1*
X3694017Y860243D2*
X3705017D1*
X3804017D2*
X3815017D1*
X2715470Y1669061D2*
X2730970D1*
X2753470D2*
X2758970D1*
X2773470D2*
X2780470D1*
X2795970D2*
X2800970D1*
X2715470Y1668561D2*
X2732430D1*
X2752028D2*
X2760584D1*
X2773470D2*
X2780470D1*
X2794357D2*
X2802582D1*
X2715470Y1668061D2*
X2733697D1*
X2750806D2*
X2761954D1*
X2773470D2*
X2780470D1*
X2792987D2*
X2803936D1*
X2715470Y1667561D2*
X2734759D1*
X2749800D2*
X2763054D1*
X2773470D2*
X2780470D1*
X2791886D2*
X2804991D1*
X2715470Y1667061D2*
X2735621D1*
X2748947D2*
X2763954D1*
X2773470D2*
X2780470D1*
X2790984D2*
X2805837D1*
X2715470Y1666561D2*
X2736316D1*
X2748213D2*
X2764695D1*
X2773470D2*
X2780470D1*
X2790226D2*
X2806586D1*
X2715470Y1666061D2*
X2736905D1*
X2747599D2*
X2765272D1*
X2773470D2*
X2780470D1*
X2789587D2*
X2807266D1*
X2715470Y1665561D2*
X2737427D1*
X2747098D2*
X2765718D1*
X2773470D2*
X2780470D1*
X2789037D2*
X2807857D1*
X2715470Y1665061D2*
X2737876D1*
X2746692D2*
X2766101D1*
X2773470D2*
X2780470D1*
X2788571D2*
X2808347D1*
X2715470Y1664561D2*
X2738244D1*
X2746327D2*
X2766460D1*
X2773470D2*
X2780470D1*
X2788182D2*
X2808750D1*
X2715470Y1664061D2*
X2738553D1*
X2745976D2*
X2766780D1*
X2773470D2*
X2780470D1*
X2787823D2*
X2809114D1*
X2715470Y1663561D2*
X2722470D1*
X2729930D2*
X2738827D1*
X2745658D2*
X2754510D1*
X2758430D2*
X2767067D1*
X2773470D2*
X2780470D1*
X2787474D2*
X2796491D1*
X2800447D2*
X2809464D1*
X2715470Y1663061D2*
X2722470D1*
X2730780D2*
X2739071D1*
X2745373D2*
X2753658D1*
X2759282D2*
X2767332D1*
X2773470D2*
X2780470D1*
X2787158D2*
X2795577D1*
X2801346D2*
X2809780D1*
X2715470Y1662561D2*
X2722470D1*
X2731440D2*
X2739277D1*
X2745108D2*
X2752983D1*
X2759957D2*
X2767571D1*
X2773470D2*
X2780470D1*
X2786873D2*
X2794797D1*
X2802079D2*
X2810050D1*
X2715470Y1662061D2*
X2722470D1*
X2731915D2*
X2739455D1*
X2744867D2*
X2752460D1*
X2760478D2*
X2767761D1*
X2773470D2*
X2780470D1*
X2786608D2*
X2794194D1*
X2802626D2*
X2810269D1*
X2715470Y1661561D2*
X2722470D1*
X2732270D2*
X2739632D1*
X2744662D2*
X2752031D1*
X2760890D2*
X2767891D1*
X2773470D2*
X2780470D1*
X2786367D2*
X2793750D1*
X2803060D2*
X2810451D1*
X2715470Y1661061D2*
X2722470D1*
X2732547D2*
X2739785D1*
X2744485D2*
X2751681D1*
X2761177D2*
X2768012D1*
X2773470D2*
X2780470D1*
X2786162D2*
X2793409D1*
X2803427D2*
X2810632D1*
X2715470Y1660561D2*
X2722470D1*
X2732750D2*
X2739882D1*
X2744308D2*
X2751400D1*
X2761357D2*
X2768157D1*
X2773470D2*
X2780470D1*
X2785985D2*
X2793121D1*
X2803709D2*
X2810804D1*
X2715470Y1660061D2*
X2722470D1*
X2732869D2*
X2739933D1*
X2744155D2*
X2751194D1*
X2761498D2*
X2768295D1*
X2773470D2*
X2780470D1*
X2785808D2*
X2792874D1*
X2803926D2*
X2810966D1*
X2715470Y1659561D2*
X2722470D1*
X2732928D2*
X2739955D1*
X2744058D2*
X2751071D1*
X2761652D2*
X2768386D1*
X2773470D2*
X2780470D1*
X2785655D2*
X2792683D1*
X2804120D2*
X2811136D1*
X2715470Y1659061D2*
X2722470D1*
X2732954D2*
X2739965D1*
X2744007D2*
X2750994D1*
X2761795D2*
X2768434D1*
X2773470D2*
X2780470D1*
X2785558D2*
X2792567D1*
X2804281D2*
X2811287D1*
X2715470Y1658561D2*
X2722470D1*
X2732962D2*
X2739966D1*
X2743985D2*
X2750904D1*
X2761895D2*
X2768457D1*
X2773470D2*
X2780470D1*
X2785507D2*
X2792492D1*
X2804381D2*
X2811383D1*
X2715470Y1658061D2*
X2722470D1*
X2732946D2*
X2739950D1*
X2743976D2*
X2750773D1*
X2761970D2*
X2768470D1*
X2773470D2*
X2780470D1*
X2785485D2*
X2792403D1*
X2804432D2*
X2811433D1*
X2715470Y1657561D2*
X2722470D1*
X2732867D2*
X2739887D1*
X2743972D2*
X2750641D1*
X2773470D2*
X2780470D1*
X2785476D2*
X2792273D1*
X2804455D2*
X2811455D1*
X2715470Y1657061D2*
X2722470D1*
X2732680D2*
X2739765D1*
X2743971D2*
X2750552D1*
X2773470D2*
X2780470D1*
X2785472D2*
X2792141D1*
X2804465D2*
X2811465D1*
X2715470Y1656561D2*
X2722470D1*
X2732393D2*
X2739619D1*
X2743970D2*
X2750506D1*
X2773470D2*
X2780470D1*
X2785471D2*
X2792052D1*
X2804468D2*
X2811468D1*
X2715470Y1656061D2*
X2722470D1*
X2732011D2*
X2739466D1*
X2743970D2*
X2750484D1*
X2773470D2*
X2780470D1*
X2785470D2*
X2792006D1*
X2804469D2*
X2811469D1*
X2715470Y1655561D2*
X2722470D1*
X2731471D2*
X2739283D1*
X2743970D2*
X2750475D1*
X2773470D2*
X2780470D1*
X2785470D2*
X2791984D1*
X2804470D2*
X2811470D1*
X2715470Y1655061D2*
X2722470D1*
X2730742D2*
X2739068D1*
X2743970D2*
X2750472D1*
X2773470D2*
X2780470D1*
X2785470D2*
X2791975D1*
X2804470D2*
X2811470D1*
X2715470Y1654561D2*
X2722470D1*
X2729882D2*
X2738832D1*
X2743970D2*
X2750471D1*
X2773470D2*
X2780470D1*
X2785470D2*
X2791972D1*
X2804470D2*
X2811470D1*
X2715470Y1654061D2*
X2738571D1*
X2743970D2*
X2750470D1*
X2773470D2*
X2780470D1*
X2785470D2*
X2791971D1*
X2804470D2*
X2811470D1*
X2715470Y1653561D2*
X2738259D1*
X2743970D2*
X2750470D1*
X2773470D2*
X2780470D1*
X2785470D2*
X2791970D1*
X2804470D2*
X2811470D1*
X2715470Y1653061D2*
X2737872D1*
X2743970D2*
X2750470D1*
X2773470D2*
X2780470D1*
X2785470D2*
X2791970D1*
X2804470D2*
X2811470D1*
X2715470Y1652561D2*
X2737427D1*
X2743970D2*
X2750470D1*
X2773470D2*
X2780470D1*
X2785470D2*
X2791970D1*
X2804470D2*
X2811470D1*
X2715470Y1652061D2*
X2736932D1*
X2743970D2*
X2750470D1*
X2773470D2*
X2780470D1*
X2785470D2*
X2791970D1*
X2804470D2*
X2811470D1*
X2715470Y1651561D2*
X2736359D1*
X2743970D2*
X2750470D1*
X2773470D2*
X2780470D1*
X2785470D2*
X2791970D1*
X2804470D2*
X2811470D1*
X2715470Y1651061D2*
X2735656D1*
X2743970D2*
X2750470D1*
X2773470D2*
X2780470D1*
X2785470D2*
X2791972D1*
X2804470D2*
X2811470D1*
X2715470Y1650561D2*
X2734788D1*
X2743970D2*
X2750472D1*
X2773470D2*
X2780470D1*
X2785470D2*
X2791990D1*
X2804470D2*
X2811470D1*
X2715470Y1650061D2*
X2733716D1*
X2743970D2*
X2750490D1*
X2773470D2*
X2780470D1*
X2785470D2*
X2792053D1*
X2804470D2*
X2811470D1*
X2715470Y1649561D2*
X2732411D1*
X2743970D2*
X2750553D1*
X2773470D2*
X2780470D1*
X2785470D2*
X2792173D1*
X2804470D2*
X2811470D1*
X2715470Y1649061D2*
X2730970D1*
X2743970D2*
X2750673D1*
X2773470D2*
X2780470D1*
X2785470D2*
X2792301D1*
X2804468D2*
X2811468D1*
X2715470Y1648561D2*
X2722470D1*
X2743970D2*
X2750803D1*
X2761970D2*
X2768470D1*
X2773470D2*
X2780470D1*
X2785472D2*
X2792390D1*
X2804451D2*
X2811451D1*
X2715470Y1648061D2*
X2722470D1*
X2743972D2*
X2750908D1*
X2761893D2*
X2768470D1*
X2773470D2*
X2780470D1*
X2785490D2*
X2792454D1*
X2804387D2*
X2811387D1*
X2715470Y1647561D2*
X2722470D1*
X2743990D2*
X2751018D1*
X2761769D2*
X2768468D1*
X2773470D2*
X2780470D1*
X2785553D2*
X2792541D1*
X2804265D2*
X2811265D1*
X2715470Y1647061D2*
X2722470D1*
X2744053D2*
X2751161D1*
X2761637D2*
X2768451D1*
X2773470D2*
X2780470D1*
X2785675D2*
X2792687D1*
X2804117D2*
X2811119D1*
X2715470Y1646561D2*
X2722470D1*
X2744175D2*
X2751318D1*
X2761532D2*
X2768387D1*
X2773470D2*
X2780470D1*
X2785821D2*
X2792885D1*
X2803949D2*
X2810968D1*
X2715470Y1646061D2*
X2722470D1*
X2744321D2*
X2751491D1*
X2761420D2*
X2768267D1*
X2773470D2*
X2780470D1*
X2785974D2*
X2793112D1*
X2803717D2*
X2810800D1*
X2715470Y1645561D2*
X2722470D1*
X2744474D2*
X2751742D1*
X2761260D2*
X2768137D1*
X2773470D2*
X2780470D1*
X2786157D2*
X2793373D1*
X2803426D2*
X2810633D1*
X2715470Y1645061D2*
X2722470D1*
X2744657D2*
X2752097D1*
X2761037D2*
X2768032D1*
X2773470D2*
X2780470D1*
X2786372D2*
X2793704D1*
X2803099D2*
X2810472D1*
X2715470Y1644561D2*
X2722470D1*
X2744872D2*
X2752559D1*
X2760709D2*
X2767920D1*
X2773470D2*
X2780470D1*
X2786608D2*
X2794187D1*
X2802663D2*
X2810283D1*
X2715470Y1644061D2*
X2722470D1*
X2745108D2*
X2753113D1*
X2760260D2*
X2767762D1*
X2773470D2*
X2780470D1*
X2786867D2*
X2794966D1*
X2802084D2*
X2810051D1*
X2715470Y1643561D2*
X2722470D1*
X2745369D2*
X2754532D1*
X2758876D2*
X2767559D1*
X2773470D2*
X2780470D1*
X2787162D2*
X2796313D1*
X2800646D2*
X2809769D1*
X2715470Y1643061D2*
X2722470D1*
X2745682D2*
X2756742D1*
X2756686D2*
X2767329D1*
X2773470D2*
X2780470D1*
X2787485D2*
X2798413D1*
X2798529D2*
X2809452D1*
X2715470Y1642561D2*
X2722470D1*
X2746068D2*
X2767070D1*
X2773470D2*
X2780470D1*
X2787808D2*
X2809130D1*
X2715470Y1642061D2*
X2722470D1*
X2746511D2*
X2766758D1*
X2773470D2*
X2780470D1*
X2788155D2*
X2808785D1*
X2715470Y1641561D2*
X2722470D1*
X2746986D2*
X2766372D1*
X2773470D2*
X2780470D1*
X2788560D2*
X2808380D1*
X2715470Y1641061D2*
X2722470D1*
X2747478D2*
X2765929D1*
X2773470D2*
X2780470D1*
X2789027D2*
X2807913D1*
X2715470Y1640561D2*
X2722470D1*
X2747994D2*
X2765452D1*
X2773470D2*
X2780470D1*
X2789570D2*
X2807370D1*
X2715470Y1640061D2*
X2722470D1*
X2748576D2*
X2764941D1*
X2773470D2*
X2780470D1*
X2790202D2*
X2806738D1*
X2715470Y1639561D2*
X2722470D1*
X2749282D2*
X2764340D1*
X2773470D2*
X2780470D1*
X2790929D2*
X2806009D1*
X2715470Y1639061D2*
X2722470D1*
X2750151D2*
X2763536D1*
X2773470D2*
X2780470D1*
X2791801D2*
X2805118D1*
X2715470Y1638561D2*
X2722470D1*
X2751224D2*
X2762427D1*
X2773470D2*
X2780470D1*
X2792879D2*
X2803962D1*
X2715470Y1638061D2*
X2722470D1*
X2752529D2*
X2761022D1*
X2773470D2*
X2780470D1*
X2794136D2*
X2802535D1*
X2753970Y1637561D2*
X2759470D1*
X2795470D2*
X2800970D1*
X3021754Y1669061D2*
X3036754D1*
X3060754D2*
X3065754D1*
X3089754D2*
X3095254D1*
X3021754Y1668561D2*
X3038213D1*
X3059140D2*
X3067365D1*
X3088123D2*
X3096867D1*
X3021754Y1668061D2*
X3039481D1*
X3057770D2*
X3068719D1*
X3086706D2*
X3098237D1*
X3021754Y1667561D2*
X3040543D1*
X3056669D2*
X3069774D1*
X3085550D2*
X3099338D1*
X3021754Y1667061D2*
X3041404D1*
X3055767D2*
X3070620D1*
X3084639D2*
X3100238D1*
X3021754Y1666561D2*
X3042099D1*
X3055009D2*
X3071369D1*
X3083922D2*
X3100978D1*
X3021754Y1666061D2*
X3042689D1*
X3054370D2*
X3072050D1*
X3083324D2*
X3101556D1*
X3021754Y1665561D2*
X3043210D1*
X3053820D2*
X3072641D1*
X3082799D2*
X3102001D1*
X3021754Y1665061D2*
X3043660D1*
X3053355D2*
X3073131D1*
X3082348D2*
X3102385D1*
X3021754Y1664561D2*
X3044026D1*
X3052965D2*
X3073533D1*
X3081981D2*
X3102743D1*
X3021754Y1664061D2*
X3044317D1*
X3052607D2*
X3073897D1*
X3081689D2*
X3103062D1*
X3021754Y1663561D2*
X3028754D1*
X3035653D2*
X3044529D1*
X3052258D2*
X3061275D1*
X3065231D2*
X3074248D1*
X3081461D2*
X3090352D1*
X3094655D2*
X3103333D1*
X3021754Y1663061D2*
X3028754D1*
X3036428D2*
X3044669D1*
X3051941D2*
X3060360D1*
X3066129D2*
X3074564D1*
X3081274D2*
X3089561D1*
X3095446D2*
X3103552D1*
X3021754Y1662561D2*
X3028754D1*
X3037030D2*
X3044793D1*
X3051656D2*
X3059581D1*
X3066863D2*
X3074833D1*
X3081094D2*
X3088913D1*
X3096094D2*
X3103735D1*
X3021754Y1662061D2*
X3028754D1*
X3037472D2*
X3044940D1*
X3051391D2*
X3058978D1*
X3067410D2*
X3075052D1*
X3080939D2*
X3088415D1*
X3096592D2*
X3103914D1*
X3021754Y1661561D2*
X3028754D1*
X3037796D2*
X3045079D1*
X3051150D2*
X3058533D1*
X3067844D2*
X3075235D1*
X3080841D2*
X3088028D1*
X3096979D2*
X3104068D1*
X3021754Y1661061D2*
X3028754D1*
X3038019D2*
X3045170D1*
X3050945D2*
X3058192D1*
X3068210D2*
X3075416D1*
X3080791D2*
X3087887D1*
X3097121D2*
X3104166D1*
X3021754Y1660561D2*
X3028754D1*
X3038147D2*
X3045218D1*
X3050769D2*
X3057905D1*
X3068492D2*
X3075588D1*
X3080768D2*
X3087812D1*
X3097201D2*
X3104219D1*
X3021754Y1660061D2*
X3028754D1*
X3038209D2*
X3045239D1*
X3050592D2*
X3057657D1*
X3068709D2*
X3075749D1*
X3080761D2*
X3087797D1*
X3097254D2*
X3104254D1*
X3021754Y1659561D2*
X3028754D1*
X3038236D2*
X3045246D1*
X3050439D2*
X3057467D1*
X3068903D2*
X3075919D1*
X3080775D2*
X3087868D1*
X3021754Y1659061D2*
X3028754D1*
X3038245D2*
X3045232D1*
X3050341D2*
X3057350D1*
X3069064D2*
X3076070D1*
X3080837D2*
X3088024D1*
X3021754Y1658561D2*
X3028754D1*
X3038230D2*
X3045170D1*
X3050291D2*
X3057276D1*
X3069164D2*
X3076166D1*
X3080959D2*
X3088483D1*
X3021754Y1658061D2*
X3028754D1*
X3038148D2*
X3045048D1*
X3050268D2*
X3057187D1*
X3069216D2*
X3076216D1*
X3081106D2*
X3089117D1*
X3021754Y1657561D2*
X3028754D1*
X3037944D2*
X3044901D1*
X3050259D2*
X3057057D1*
X3069239D2*
X3076239D1*
X3081275D2*
X3089935D1*
X3021754Y1657061D2*
X3028754D1*
X3037593D2*
X3044732D1*
X3050255D2*
X3056924D1*
X3069248D2*
X3076248D1*
X3081507D2*
X3090923D1*
X3021754Y1656561D2*
X3028754D1*
X3037092D2*
X3044501D1*
X3050254D2*
X3056836D1*
X3069252D2*
X3076252D1*
X3081795D2*
X3092084D1*
X3021754Y1656061D2*
X3028754D1*
X3036426D2*
X3044212D1*
X3050254D2*
X3056789D1*
X3069253D2*
X3076253D1*
X3082105D2*
X3093382D1*
X3021754Y1655561D2*
X3028754D1*
X3035620D2*
X3043902D1*
X3050254D2*
X3056768D1*
X3069253D2*
X3076253D1*
X3082462D2*
X3094727D1*
X3021754Y1655061D2*
X3043543D1*
X3050254D2*
X3056759D1*
X3069253D2*
X3076253D1*
X3082928D2*
X3096033D1*
X3021754Y1654561D2*
X3043064D1*
X3050254D2*
X3056755D1*
X3069254D2*
X3076254D1*
X3083516D2*
X3097243D1*
X3021754Y1654061D2*
X3042450D1*
X3050254D2*
X3056754D1*
X3069254D2*
X3076254D1*
X3084204D2*
X3098325D1*
X3021754Y1653561D2*
X3041797D1*
X3050254D2*
X3056754D1*
X3069254D2*
X3076254D1*
X3084987D2*
X3099298D1*
X3021754Y1653061D2*
X3041234D1*
X3050254D2*
X3056754D1*
X3069254D2*
X3076254D1*
X3085881D2*
X3100187D1*
X3021754Y1652561D2*
X3040754D1*
X3050254D2*
X3056754D1*
X3069254D2*
X3076254D1*
X3086902D2*
X3100962D1*
X3021754Y1652061D2*
X3041655D1*
X3050254D2*
X3056754D1*
X3069254D2*
X3076254D1*
X3088076D2*
X3101603D1*
X3021754Y1651561D2*
X3042448D1*
X3050254D2*
X3056754D1*
X3069254D2*
X3076254D1*
X3089379D2*
X3102116D1*
X3021754Y1651061D2*
X3043113D1*
X3050254D2*
X3056755D1*
X3069254D2*
X3076254D1*
X3090728D2*
X3102528D1*
X3021754Y1650561D2*
X3043677D1*
X3050254D2*
X3056773D1*
X3069254D2*
X3076254D1*
X3092050D2*
X3102893D1*
X3021754Y1650061D2*
X3044146D1*
X3050254D2*
X3056837D1*
X3069254D2*
X3076254D1*
X3093304D2*
X3103230D1*
X3021754Y1649561D2*
X3028754D1*
X3035555D2*
X3044521D1*
X3050254D2*
X3056957D1*
X3069254D2*
X3076254D1*
X3094426D2*
X3103500D1*
X3021754Y1649061D2*
X3028754D1*
X3036622D2*
X3044815D1*
X3050254D2*
X3057085D1*
X3069252D2*
X3076252D1*
X3095341D2*
X3103712D1*
X3021754Y1648561D2*
X3028754D1*
X3037392D2*
X3045028D1*
X3050255D2*
X3057174D1*
X3069234D2*
X3076234D1*
X3096050D2*
X3103904D1*
X3021754Y1648061D2*
X3028754D1*
X3037915D2*
X3045169D1*
X3050273D2*
X3057238D1*
X3069170D2*
X3076170D1*
X3096575D2*
X3104064D1*
X3021754Y1647561D2*
X3028754D1*
X3038273D2*
X3045293D1*
X3050337D2*
X3057325D1*
X3069049D2*
X3076049D1*
X3079754D2*
X3086754D1*
X3096976D2*
X3104164D1*
X3021754Y1647061D2*
X3028754D1*
X3038511D2*
X3045440D1*
X3050458D2*
X3057471D1*
X3068901D2*
X3075903D1*
X3079831D2*
X3086773D1*
X3097119D2*
X3104216D1*
X3021754Y1646561D2*
X3028754D1*
X3038644D2*
X3045579D1*
X3050604D2*
X3057668D1*
X3068732D2*
X3075752D1*
X3079955D2*
X3086839D1*
X3097196D2*
X3104239D1*
X3021754Y1646061D2*
X3028754D1*
X3038708D2*
X3045670D1*
X3050757D2*
X3057896D1*
X3068501D2*
X3075584D1*
X3080086D2*
X3086978D1*
X3097229D2*
X3104248D1*
X3021754Y1645561D2*
X3028754D1*
X3038736D2*
X3045718D1*
X3050941D2*
X3058156D1*
X3068210D2*
X3075417D1*
X3080191D2*
X3087189D1*
X3097224D2*
X3104250D1*
X3021754Y1645061D2*
X3028754D1*
X3038747D2*
X3045739D1*
X3051156D2*
X3058487D1*
X3067883D2*
X3075255D1*
X3080302D2*
X3087484D1*
X3097144D2*
X3104233D1*
X3021754Y1644561D2*
X3028754D1*
X3038751D2*
X3045748D1*
X3051391D2*
X3058970D1*
X3067446D2*
X3075066D1*
X3080444D2*
X3087918D1*
X3096985D2*
X3104170D1*
X3021754Y1644061D2*
X3028754D1*
X3038753D2*
X3045752D1*
X3051650D2*
X3059750D1*
X3066868D2*
X3074834D1*
X3080601D2*
X3088490D1*
X3096510D2*
X3104049D1*
X3021754Y1643561D2*
X3028754D1*
X3038753D2*
X3045753D1*
X3051945D2*
X3061096D1*
X3065429D2*
X3074552D1*
X3080773D2*
X3090215D1*
X3095053D2*
X3103903D1*
X3021754Y1643061D2*
X3028754D1*
X3038753D2*
X3045753D1*
X3052269D2*
X3063196D1*
X3063312D2*
X3074235D1*
X3081006D2*
X3092921D1*
X3092696D2*
X3103750D1*
X3021754Y1642561D2*
X3028754D1*
X3038754D2*
X3045753D1*
X3052592D2*
X3073914D1*
X3081297D2*
X3103564D1*
X3021754Y1642061D2*
X3028754D1*
X3038755D2*
X3045755D1*
X3052939D2*
X3073568D1*
X3081622D2*
X3103332D1*
X3021754Y1641561D2*
X3028754D1*
X3038773D2*
X3045773D1*
X3053343D2*
X3073164D1*
X3082026D2*
X3103033D1*
X3021754Y1641061D2*
X3028754D1*
X3038837D2*
X3045837D1*
X3053810D2*
X3072697D1*
X3082548D2*
X3102650D1*
X3021754Y1640561D2*
X3028754D1*
X3038958D2*
X3045958D1*
X3054353D2*
X3072154D1*
X3083144D2*
X3102189D1*
X3021754Y1640061D2*
X3028754D1*
X3039104D2*
X3046106D1*
X3054985D2*
X3071522D1*
X3083794D2*
X3101630D1*
X3021754Y1639561D2*
X3028754D1*
X3039256D2*
X3046277D1*
X3055713D2*
X3070792D1*
X3084555D2*
X3100916D1*
X3021754Y1639061D2*
X3028754D1*
X3039426D2*
X3046524D1*
X3056585D2*
X3069901D1*
X3085506D2*
X3099987D1*
X3021754Y1638561D2*
X3028754D1*
X3039597D2*
X3046866D1*
X3057663D2*
X3068746D1*
X3086710D2*
X3098791D1*
X3021754Y1638061D2*
X3028754D1*
X3039754D2*
X3047254D1*
X3058919D2*
X3067319D1*
X3088167D2*
X3097338D1*
X3060254Y1637561D2*
X3065754D1*
X3089754D2*
X3095754D1*
X765264Y1006490D2*
X779264D1*
X801764D2*
X809264D1*
X819764D2*
X843264D1*
X844764D2*
X868264D1*
X765264Y1005990D2*
X781013D1*
X801514D2*
X809341D1*
X819764D2*
X843264D1*
X844764D2*
X868264D1*
X765264Y1005490D2*
X782486D1*
X801306D2*
X809467D1*
X819764D2*
X843264D1*
X844764D2*
X868264D1*
X765264Y1004990D2*
X783646D1*
X801112D2*
X809614D1*
X819764D2*
X843264D1*
X844764D2*
X868264D1*
X765264Y1004490D2*
X784545D1*
X800934D2*
X809766D1*
X819764D2*
X843264D1*
X844764D2*
X868264D1*
X765264Y1003990D2*
X785268D1*
X800770D2*
X809934D1*
X819764D2*
X843264D1*
X844764D2*
X868264D1*
X765264Y1003490D2*
X785846D1*
X800597D2*
X810101D1*
X819764D2*
X843264D1*
X844764D2*
X868264D1*
X765264Y1002990D2*
X786316D1*
X800428D2*
X810260D1*
X819764D2*
X843264D1*
X844764D2*
X868264D1*
X765264Y1002490D2*
X786720D1*
X800268D2*
X810432D1*
X819764D2*
X843264D1*
X844764D2*
X868264D1*
X765264Y1001990D2*
X787059D1*
X800096D2*
X810600D1*
X819764D2*
X843264D1*
X844764D2*
X868264D1*
X765264Y1001490D2*
X787336D1*
X799928D2*
X810760D1*
X819764D2*
X843264D1*
X844764D2*
X868264D1*
X765264Y1000990D2*
X772264D1*
X778066D2*
X787541D1*
X799768D2*
X810930D1*
X828264D2*
X834764D1*
X853264D2*
X859764D1*
X765264Y1000490D2*
X772264D1*
X779133D2*
X787661D1*
X799596D2*
X811082D1*
X828264D2*
X834764D1*
X853264D2*
X859764D1*
X765264Y999990D2*
X772264D1*
X779902D2*
X787723D1*
X799428D2*
X811196D1*
X828264D2*
X834764D1*
X853264D2*
X859764D1*
X765264Y999490D2*
X772264D1*
X780425D2*
X787768D1*
X799268D2*
X811310D1*
X828264D2*
X834764D1*
X853264D2*
X859764D1*
X765264Y998990D2*
X772264D1*
X780784D2*
X787856D1*
X799096D2*
X811454D1*
X828264D2*
X834764D1*
X853264D2*
X859764D1*
X765264Y998490D2*
X772264D1*
X781022D2*
X788031D1*
X798928D2*
X811609D1*
X828264D2*
X834764D1*
X853264D2*
X859764D1*
X765264Y997990D2*
X772264D1*
X781153D2*
X788264D1*
X798768D2*
X804762D1*
X805783D2*
X811764D1*
X828264D2*
X834764D1*
X853264D2*
X859764D1*
X765264Y997490D2*
X772264D1*
X781199D2*
X788033D1*
X798598D2*
X804745D1*
X805847D2*
X811933D1*
X828264D2*
X834764D1*
X853264D2*
X859764D1*
X765264Y996990D2*
X772264D1*
X781161D2*
X787888D1*
X798446D2*
X804681D1*
X805969D2*
X812101D1*
X828264D2*
X834764D1*
X853264D2*
X859764D1*
X765264Y996490D2*
X772264D1*
X781033D2*
X787797D1*
X798332D2*
X804559D1*
X806115D2*
X812260D1*
X828264D2*
X834764D1*
X853264D2*
X859764D1*
X765264Y995990D2*
X772264D1*
X780822D2*
X787700D1*
X798218D2*
X804413D1*
X806266D2*
X812432D1*
X828264D2*
X834764D1*
X853264D2*
X859764D1*
X765264Y995490D2*
X772264D1*
X780554D2*
X787549D1*
X798074D2*
X804262D1*
X806432D2*
X812600D1*
X828264D2*
X834764D1*
X853264D2*
X859764D1*
X765264Y994990D2*
X772264D1*
X779962D2*
X787350D1*
X797919D2*
X804096D1*
X806583D2*
X812760D1*
X828264D2*
X834764D1*
X853264D2*
X859764D1*
X765264Y994490D2*
X772264D1*
X778089D2*
X787122D1*
X797764D2*
X803945D1*
X806697D2*
X812932D1*
X828264D2*
X834764D1*
X853264D2*
X859764D1*
X765264Y993990D2*
X772264D1*
X775051D2*
X786864D1*
X797595D2*
X803831D1*
X806810D2*
X813100D1*
X828264D2*
X834764D1*
X853264D2*
X859764D1*
X765264Y993490D2*
X786550D1*
X797428D2*
X803718D1*
X806954D2*
X813260D1*
X828264D2*
X834764D1*
X853264D2*
X859764D1*
X765264Y992990D2*
X786145D1*
X797268D2*
X803574D1*
X807109D2*
X813432D1*
X828264D2*
X834764D1*
X853264D2*
X859764D1*
X765264Y992490D2*
X785624D1*
X797096D2*
X803419D1*
X807264D2*
X813600D1*
X828264D2*
X834764D1*
X853264D2*
X859764D1*
X765264Y991990D2*
X784980D1*
X796928D2*
X803264D1*
X807431D2*
X813760D1*
X828264D2*
X834764D1*
X853264D2*
X859764D1*
X765264Y991490D2*
X784264D1*
X796768D2*
X803097D1*
X807583D2*
X813932D1*
X828264D2*
X834764D1*
X853264D2*
X859764D1*
X765264Y990990D2*
X785012D1*
X796596D2*
X802945D1*
X807697D2*
X814100D1*
X828264D2*
X834764D1*
X853264D2*
X859764D1*
X765264Y990490D2*
X785783D1*
X796428D2*
X802831D1*
X807810D2*
X814260D1*
X828264D2*
X834764D1*
X853264D2*
X859764D1*
X765264Y989990D2*
X786490D1*
X796268D2*
X802718D1*
X807952D2*
X814432D1*
X828264D2*
X834764D1*
X853264D2*
X859764D1*
X765264Y989490D2*
X787061D1*
X796096D2*
X802574D1*
X808092D2*
X814600D1*
X828264D2*
X834764D1*
X853264D2*
X859764D1*
X765264Y988990D2*
X787492D1*
X795928D2*
X802419D1*
X808200D2*
X814760D1*
X828264D2*
X834764D1*
X853264D2*
X859764D1*
X765264Y988490D2*
X787828D1*
X795768D2*
X802264D1*
X808311D2*
X814932D1*
X828264D2*
X834764D1*
X853264D2*
X859764D1*
X765264Y987990D2*
X772264D1*
X779666D2*
X788114D1*
X795596D2*
X802097D1*
X808453D2*
X815100D1*
X828264D2*
X834764D1*
X853264D2*
X859764D1*
X765264Y987490D2*
X772264D1*
X780456D2*
X788363D1*
X795428D2*
X801946D1*
X808591D2*
X815260D1*
X828264D2*
X834764D1*
X853264D2*
X859764D1*
X765264Y986990D2*
X772264D1*
X781104D2*
X788571D1*
X795268D2*
X801842D1*
X808690D2*
X815430D1*
X828264D2*
X834764D1*
X853264D2*
X859764D1*
X765264Y986490D2*
X772264D1*
X781602D2*
X788749D1*
X795096D2*
X815582D1*
X828264D2*
X834764D1*
X853264D2*
X859764D1*
X765264Y985990D2*
X772264D1*
X781990D2*
X788925D1*
X794928D2*
X815696D1*
X828264D2*
X834764D1*
X853264D2*
X859764D1*
X765264Y985490D2*
X772264D1*
X782131D2*
X789079D1*
X794768D2*
X815810D1*
X828264D2*
X834764D1*
X853264D2*
X859764D1*
X765264Y984990D2*
X772264D1*
X782207D2*
X789174D1*
X794598D2*
X815954D1*
X828264D2*
X834764D1*
X853264D2*
X859764D1*
X765264Y984490D2*
X772264D1*
X782240D2*
X789207D1*
X794446D2*
X816109D1*
X828264D2*
X834764D1*
X853264D2*
X859764D1*
X765264Y983990D2*
X772264D1*
X782236D2*
X789166D1*
X794332D2*
X816264D1*
X828264D2*
X834764D1*
X853264D2*
X859764D1*
X765264Y983490D2*
X772264D1*
X782174D2*
X789056D1*
X794218D2*
X816433D1*
X828264D2*
X834764D1*
X853264D2*
X859764D1*
X765264Y982990D2*
X772264D1*
X782017D2*
X788931D1*
X794074D2*
X816601D1*
X828264D2*
X834764D1*
X853264D2*
X859764D1*
X765264Y982490D2*
X772264D1*
X781783D2*
X788843D1*
X793919D2*
X816760D1*
X828264D2*
X834764D1*
X853264D2*
X859764D1*
X765264Y981990D2*
X772264D1*
X781245D2*
X788780D1*
X793764D2*
X816932D1*
X828264D2*
X834764D1*
X853264D2*
X859764D1*
X765264Y981490D2*
X772264D1*
X780526D2*
X788693D1*
X793595D2*
X817100D1*
X828264D2*
X834764D1*
X853264D2*
X859764D1*
X765264Y980990D2*
X772264D1*
X779672D2*
X788545D1*
X793428D2*
X800362D1*
X810766D2*
X817260D1*
X828264D2*
X834764D1*
X853264D2*
X859764D1*
X765264Y980490D2*
X788332D1*
X793268D2*
X800068D1*
X810784D2*
X817432D1*
X828264D2*
X834764D1*
X853264D2*
X859764D1*
X765264Y979990D2*
X788056D1*
X793096D2*
X799883D1*
X810847D2*
X817600D1*
X828264D2*
X834764D1*
X853264D2*
X859764D1*
X765264Y979490D2*
X787724D1*
X792928D2*
X799738D1*
X810969D2*
X817760D1*
X828264D2*
X834764D1*
X853264D2*
X859764D1*
X765264Y978990D2*
X787341D1*
X792768D2*
X799581D1*
X811115D2*
X817932D1*
X828264D2*
X834764D1*
X853264D2*
X859764D1*
X765264Y978490D2*
X786873D1*
X792596D2*
X799421D1*
X811266D2*
X818100D1*
X828264D2*
X834764D1*
X853264D2*
X859764D1*
X765264Y977990D2*
X786322D1*
X792428D2*
X799265D1*
X811434D2*
X818260D1*
X828264D2*
X834764D1*
X853264D2*
X859764D1*
X765264Y977490D2*
X785680D1*
X792268D2*
X799095D1*
X811601D2*
X818432D1*
X828264D2*
X834764D1*
X853264D2*
X859764D1*
X765264Y976990D2*
X784851D1*
X792098D2*
X798926D1*
X811761D2*
X818602D1*
X828264D2*
X834764D1*
X853264D2*
X859764D1*
X765264Y976490D2*
X783730D1*
X791946D2*
X798752D1*
X811935D2*
X818776D1*
X828264D2*
X834764D1*
X853264D2*
X859764D1*
X765264Y975990D2*
X782319D1*
X791842D2*
X798529D1*
X812107D2*
X818999D1*
X828264D2*
X834764D1*
X853264D2*
X859764D1*
X765264Y975490D2*
X780764D1*
X791764D2*
X798264D1*
X812264D2*
X819264D1*
X828264D2*
X834764D1*
X853264D2*
X859764D1*
X2721721Y1869080D2*
X2737221D1*
X2759721D2*
X2765221D1*
X2778721D2*
X2785721D1*
X2797221D2*
X2804221D1*
X2721721Y1868580D2*
X2738680D1*
X2758090D2*
X2766834D1*
X2778721D2*
X2785721D1*
X2797221D2*
X2804221D1*
X2721721Y1868080D2*
X2739948D1*
X2756674D2*
X2768204D1*
X2778721D2*
X2785721D1*
X2797221D2*
X2804221D1*
X2721721Y1867580D2*
X2741010D1*
X2755517D2*
X2769305D1*
X2778721D2*
X2785721D1*
X2797221D2*
X2804221D1*
X2721721Y1867080D2*
X2741872D1*
X2754606D2*
X2770205D1*
X2778721D2*
X2785721D1*
X2797221D2*
X2804221D1*
X2721721Y1866580D2*
X2742566D1*
X2753889D2*
X2770945D1*
X2778721D2*
X2785721D1*
X2797221D2*
X2804221D1*
X2721721Y1866080D2*
X2743156D1*
X2753291D2*
X2771523D1*
X2778721D2*
X2785721D1*
X2797221D2*
X2804221D1*
X2721721Y1865580D2*
X2743677D1*
X2752766D2*
X2771969D1*
X2778721D2*
X2785721D1*
X2797221D2*
X2804221D1*
X2721721Y1865080D2*
X2744127D1*
X2752315D2*
X2772352D1*
X2778721D2*
X2785721D1*
X2797221D2*
X2804221D1*
X2721721Y1864580D2*
X2744495D1*
X2751948D2*
X2772710D1*
X2778721D2*
X2785721D1*
X2797221D2*
X2804221D1*
X2721721Y1864080D2*
X2744803D1*
X2751656D2*
X2773029D1*
X2778721D2*
X2785721D1*
X2797221D2*
X2804221D1*
X2721721Y1863580D2*
X2728721D1*
X2736181D2*
X2745077D1*
X2751428D2*
X2760319D1*
X2764622D2*
X2773300D1*
X2778721D2*
X2785721D1*
X2797221D2*
X2804221D1*
X2721721Y1863080D2*
X2728721D1*
X2737031D2*
X2745322D1*
X2751241D2*
X2759529D1*
X2765413D2*
X2773519D1*
X2778721D2*
X2785721D1*
X2797221D2*
X2804221D1*
X2721721Y1862580D2*
X2728721D1*
X2737691D2*
X2745528D1*
X2751061D2*
X2758881D1*
X2766061D2*
X2773702D1*
X2778721D2*
X2785721D1*
X2797221D2*
X2804221D1*
X2721721Y1862080D2*
X2728721D1*
X2738165D2*
X2745706D1*
X2750906D2*
X2758383D1*
X2766559D2*
X2773881D1*
X2778721D2*
X2785721D1*
X2797221D2*
X2804221D1*
X2721721Y1861580D2*
X2728721D1*
X2738520D2*
X2745882D1*
X2750809D2*
X2757995D1*
X2766947D2*
X2774035D1*
X2778721D2*
X2785721D1*
X2797221D2*
X2804221D1*
X2721721Y1861080D2*
X2728721D1*
X2738798D2*
X2746036D1*
X2750758D2*
X2757854D1*
X2767088D2*
X2774133D1*
X2778721D2*
X2785721D1*
X2797221D2*
X2804221D1*
X2721721Y1860580D2*
X2728721D1*
X2739001D2*
X2746133D1*
X2750735D2*
X2757779D1*
X2767169D2*
X2774186D1*
X2778721D2*
X2785721D1*
X2797221D2*
X2804221D1*
X2721721Y1860080D2*
X2728721D1*
X2739119D2*
X2746183D1*
X2750728D2*
X2757764D1*
X2767221D2*
X2774221D1*
X2778721D2*
X2785721D1*
X2797221D2*
X2804221D1*
X2721721Y1859580D2*
X2728721D1*
X2739178D2*
X2746206D1*
X2750742D2*
X2757836D1*
X2778721D2*
X2785721D1*
X2797221D2*
X2804221D1*
X2721721Y1859080D2*
X2728721D1*
X2739204D2*
X2746215D1*
X2750805D2*
X2757991D1*
X2778721D2*
X2785721D1*
X2797221D2*
X2804221D1*
X2721721Y1858580D2*
X2728721D1*
X2739213D2*
X2746217D1*
X2750926D2*
X2758450D1*
X2778721D2*
X2785721D1*
X2797221D2*
X2804221D1*
X2721721Y1858080D2*
X2728721D1*
X2739197D2*
X2746201D1*
X2751073D2*
X2759084D1*
X2778721D2*
X2785721D1*
X2797221D2*
X2804221D1*
X2721721Y1857580D2*
X2728721D1*
X2739117D2*
X2746137D1*
X2751242D2*
X2759902D1*
X2778721D2*
X2785721D1*
X2797221D2*
X2804221D1*
X2721721Y1857080D2*
X2728721D1*
X2738930D2*
X2746016D1*
X2751474D2*
X2760891D1*
X2778721D2*
X2785721D1*
X2797221D2*
X2804221D1*
X2721721Y1856580D2*
X2728721D1*
X2738643D2*
X2745870D1*
X2751762D2*
X2762051D1*
X2778721D2*
X2785721D1*
X2797221D2*
X2804221D1*
X2721721Y1856080D2*
X2728721D1*
X2738262D2*
X2745717D1*
X2752072D2*
X2763349D1*
X2778721D2*
X2785721D1*
X2797221D2*
X2804221D1*
X2721721Y1855580D2*
X2728721D1*
X2737722D2*
X2745533D1*
X2752429D2*
X2764694D1*
X2778721D2*
X2785721D1*
X2797221D2*
X2804221D1*
X2721721Y1855080D2*
X2728721D1*
X2736993D2*
X2745318D1*
X2752895D2*
X2766000D1*
X2778721D2*
X2785721D1*
X2797221D2*
X2804221D1*
X2721721Y1854580D2*
X2728721D1*
X2736133D2*
X2745083D1*
X2753483D2*
X2767210D1*
X2778721D2*
X2785721D1*
X2797221D2*
X2804221D1*
X2721721Y1854080D2*
X2744822D1*
X2754172D2*
X2768293D1*
X2778721D2*
X2785721D1*
X2797221D2*
X2804221D1*
X2721721Y1853580D2*
X2744509D1*
X2754954D2*
X2769265D1*
X2778721D2*
X2785721D1*
X2797221D2*
X2804221D1*
X2721721Y1853080D2*
X2744122D1*
X2755848D2*
X2770155D1*
X2778721D2*
X2785721D1*
X2797221D2*
X2804221D1*
X2721721Y1852580D2*
X2743677D1*
X2756869D2*
X2770930D1*
X2778721D2*
X2785721D1*
X2797221D2*
X2804221D1*
X2721721Y1852080D2*
X2743183D1*
X2758044D2*
X2771570D1*
X2778721D2*
X2785721D1*
X2797221D2*
X2804221D1*
X2721721Y1851580D2*
X2742610D1*
X2759346D2*
X2772083D1*
X2778721D2*
X2785721D1*
X2797221D2*
X2804221D1*
X2721721Y1851080D2*
X2741907D1*
X2760695D2*
X2772495D1*
X2778721D2*
X2785721D1*
X2797221D2*
X2804221D1*
X2721721Y1850580D2*
X2741039D1*
X2762017D2*
X2772860D1*
X2778721D2*
X2785721D1*
X2797221D2*
X2804221D1*
X2721721Y1850080D2*
X2739967D1*
X2763272D2*
X2773197D1*
X2778721D2*
X2785721D1*
X2797221D2*
X2804221D1*
X2721721Y1849580D2*
X2738662D1*
X2764393D2*
X2773467D1*
X2778721D2*
X2785721D1*
X2797221D2*
X2804221D1*
X2721721Y1849080D2*
X2737221D1*
X2765308D2*
X2773679D1*
X2778721D2*
X2785721D1*
X2797221D2*
X2804221D1*
X2721721Y1848580D2*
X2728721D1*
X2766017D2*
X2773872D1*
X2778721D2*
X2785721D1*
X2797221D2*
X2804219D1*
X2721721Y1848080D2*
X2728721D1*
X2766542D2*
X2774032D1*
X2778721D2*
X2785721D1*
X2797219D2*
X2804201D1*
X2721721Y1847580D2*
X2728721D1*
X2749721D2*
X2756721D1*
X2766943D2*
X2774132D1*
X2778723D2*
X2785723D1*
X2797201D2*
X2804137D1*
X2721721Y1847080D2*
X2728721D1*
X2749798D2*
X2756740D1*
X2767086D2*
X2774183D1*
X2778740D2*
X2785740D1*
X2797136D2*
X2804018D1*
X2721721Y1846580D2*
X2728721D1*
X2749922D2*
X2756806D1*
X2767163D2*
X2774206D1*
X2778804D2*
X2785806D1*
X2796998D2*
X2803888D1*
X2721721Y1846080D2*
X2728721D1*
X2750053D2*
X2756945D1*
X2767196D2*
X2774215D1*
X2778924D2*
X2785945D1*
X2796804D2*
X2803783D1*
X2721721Y1845580D2*
X2728721D1*
X2750159D2*
X2757157D1*
X2767191D2*
X2774217D1*
X2779054D2*
X2786157D1*
X2796576D2*
X2803673D1*
X2721721Y1845080D2*
X2728721D1*
X2750269D2*
X2757451D1*
X2767111D2*
X2774201D1*
X2779159D2*
X2786451D1*
X2796299D2*
X2803530D1*
X2721721Y1844580D2*
X2728721D1*
X2750412D2*
X2757885D1*
X2766952D2*
X2774137D1*
X2779271D2*
X2786883D1*
X2795967D2*
X2803375D1*
X2721721Y1844080D2*
X2728721D1*
X2750568D2*
X2758457D1*
X2766477D2*
X2774016D1*
X2779431D2*
X2787450D1*
X2795166D2*
X2803219D1*
X2721721Y1843580D2*
X2728721D1*
X2750740D2*
X2760182D1*
X2765021D2*
X2773870D1*
X2779649D2*
X2789087D1*
X2793760D2*
X2803032D1*
X2721721Y1843080D2*
X2728721D1*
X2750973D2*
X2762888D1*
X2762663D2*
X2773717D1*
X2779925D2*
X2791619D1*
X2791500D2*
X2802799D1*
X2721721Y1842580D2*
X2728721D1*
X2751264D2*
X2773531D1*
X2780241D2*
X2802500D1*
X2721721Y1842080D2*
X2728721D1*
X2751589D2*
X2773299D1*
X2780563D2*
X2802119D1*
X2721721Y1841580D2*
X2728721D1*
X2751993D2*
X2773000D1*
X2780926D2*
X2801678D1*
X2721721Y1841080D2*
X2728721D1*
X2752515D2*
X2772617D1*
X2781394D2*
X2801202D1*
X2721721Y1840580D2*
X2728721D1*
X2753111D2*
X2772157D1*
X2781983D2*
X2800693D1*
X2721721Y1840080D2*
X2728721D1*
X2753761D2*
X2771597D1*
X2782671D2*
X2800112D1*
X2721721Y1839580D2*
X2728721D1*
X2754522D2*
X2770883D1*
X2783456D2*
X2799389D1*
X2721721Y1839080D2*
X2728721D1*
X2755473D2*
X2769954D1*
X2784368D2*
X2798456D1*
X2721721Y1838580D2*
X2728721D1*
X2756677D2*
X2768759D1*
X2785461D2*
X2797259D1*
X2721721Y1838080D2*
X2728721D1*
X2758135D2*
X2767305D1*
X2786775D2*
X2795805D1*
X2759721Y1837580D2*
X2765721D1*
X2788221D2*
X2794221D1*
X2410767Y923243D2*
X2407882Y922243D1*
X2405439Y921243D1*
X2403427Y920243D1*
X2401721Y919243D1*
X2400253Y918243D1*
X2399024Y917243D1*
X2398023Y916243D1*
X2397212Y915243D1*
X2396481Y914243D1*
X2395778Y913243D1*
X2395143Y912243D1*
X2394572Y911243D1*
X2394042Y910243D1*
X2393560Y909243D1*
X2393151Y908243D1*
X2392797Y907243D1*
X2392443Y906243D1*
X2392137Y905243D1*
X2391942Y904243D1*
X2391841Y903243D1*
X2391796Y902243D1*
X2391778Y901243D1*
X2391771Y900243D1*
X2391768Y899243D1*
X2391767Y898243D1*
Y897243D1*
Y896243D1*
Y895243D1*
Y894243D1*
Y893243D1*
Y892243D1*
Y891243D1*
Y890243D1*
Y889243D1*
Y888243D1*
Y887243D1*
Y886243D1*
Y885243D1*
Y884243D1*
Y883243D1*
Y882243D1*
X2391771Y881243D1*
X2391806Y880243D1*
X2391933Y879243D1*
X2392177Y878243D1*
X2392468Y877243D1*
X2392774Y876243D1*
X2393141Y875243D1*
X2393571Y874243D1*
X2394042Y873243D1*
X2394564Y872243D1*
X2395190Y871243D1*
X2395963Y870243D1*
X2396849Y869243D1*
X2397799Y868243D1*
X2398783Y867243D1*
X2399814Y866243D1*
X2400978Y865243D1*
X2402390Y864243D1*
X2404129Y863243D1*
X2406274Y862243D1*
X2408885Y861243D1*
X2411767Y860243D1*
X2421767Y923243D2*
X2424994Y922243D1*
X2427734Y921243D1*
X2429935Y920243D1*
X2431735Y919243D1*
X2433216Y918243D1*
X2434371Y917243D1*
X2435263Y916243D1*
X2436029Y915243D1*
X2436746Y914243D1*
X2437387Y913243D1*
X2437960Y912243D1*
X2438491Y911243D1*
X2438969Y910243D1*
X2439348Y909243D1*
X2439609Y908243D1*
X2439850Y907243D1*
X2440140Y906243D1*
X2440417Y905243D1*
X2440599Y904243D1*
X2440695Y903243D1*
X2440740Y902243D1*
X2440767Y901243D1*
X2469767Y923243D2*
X2466540Y922243D1*
X2463800Y921243D1*
X2461598Y920243D1*
X2459794Y919243D1*
X2458278Y918243D1*
X2457000Y917243D1*
X2455900Y916243D1*
X2454969Y915243D1*
X2454190Y914243D1*
X2453473Y913243D1*
X2452775Y912243D1*
X2452142Y911243D1*
X2451572Y910243D1*
X2451042Y909243D1*
X2450560Y908243D1*
X2450151Y907243D1*
X2449797Y906243D1*
X2449443Y905243D1*
X2449137Y904243D1*
X2448942Y903243D1*
X2448841Y902243D1*
X2448796Y901243D1*
X2448778Y900243D1*
X2448771Y899243D1*
X2448768Y898243D1*
X2448767Y897243D1*
Y896243D1*
Y895243D1*
Y894243D1*
Y893243D1*
Y892243D1*
Y891243D1*
Y890243D1*
Y889243D1*
Y888243D1*
Y887243D1*
Y886243D1*
Y885243D1*
Y884243D1*
Y883243D1*
X2448771Y882243D1*
X2448806Y881243D1*
X2448933Y880243D1*
X2449177Y879243D1*
X2449468Y878243D1*
X2449774Y877243D1*
X2450141Y876243D1*
X2450571Y875243D1*
X2451042Y874243D1*
X2451560Y873243D1*
X2452151Y872243D1*
X2452797Y871243D1*
X2453443Y870243D1*
X2454137Y869243D1*
X2454946Y868243D1*
X2455880Y867243D1*
X2456967Y866243D1*
X2458231Y865243D1*
X2459685Y864243D1*
X2461429Y863243D1*
X2463585Y862243D1*
X2466098Y861243D1*
X2468767Y860243D1*
X2479767Y923243D2*
X2482990Y922243D1*
X2485698Y921243D1*
X2487808Y920243D1*
X2489500Y919243D1*
X2490999Y918243D1*
X2492359Y917243D1*
X2493541Y916243D1*
X2494521Y915243D1*
X2495326Y914243D1*
X2496054Y913243D1*
X2496755Y912243D1*
X2497387Y911243D1*
X2497926Y910243D1*
X2498364Y909243D1*
X2498729Y908243D1*
X2499091Y907243D1*
X2499435Y906243D1*
X2499758Y905243D1*
X2500098Y904243D1*
X2500400Y903243D1*
X2500592Y902243D1*
X2500692Y901243D1*
X2500737Y900243D1*
X2500756Y899243D1*
X2500763Y898243D1*
X2500765Y897243D1*
X2500766Y896243D1*
X2500767Y895243D1*
Y894243D1*
Y893243D1*
Y892243D1*
Y891243D1*
Y890243D1*
Y889243D1*
Y888243D1*
Y887243D1*
Y886243D1*
Y885243D1*
Y884243D1*
X2500763Y883243D1*
X2500728Y882243D1*
X2500600Y881243D1*
X2500357Y880243D1*
X2500065Y879243D1*
X2499763Y878243D1*
X2499427Y877243D1*
X2499093Y876243D1*
X2498770Y875243D1*
X2498392Y874243D1*
X2497928Y873243D1*
X2497364Y872243D1*
X2496730Y871243D1*
X2496087Y870243D1*
X2495396Y869243D1*
X2494587Y868243D1*
X2493653Y867243D1*
X2492567Y866243D1*
X2491303Y865243D1*
X2489844Y864243D1*
X2488062Y863243D1*
X2485751Y862243D1*
X2482897Y861243D1*
X2479767Y860243D1*
X2509767Y923243D2*
Y922243D1*
Y921243D1*
Y920243D1*
Y919243D1*
Y918243D1*
Y917243D1*
Y916243D1*
Y915243D1*
Y914243D1*
Y913243D1*
Y912243D1*
Y911243D1*
Y910243D1*
Y909243D1*
Y908243D1*
Y907243D1*
Y906243D1*
Y905243D1*
Y904243D1*
Y903243D1*
Y902243D1*
Y901243D1*
Y900243D1*
Y899243D1*
Y898243D1*
Y897243D1*
Y896243D1*
Y895243D1*
Y894243D1*
Y893243D1*
Y892243D1*
Y891243D1*
Y890243D1*
Y889243D1*
Y888243D1*
Y887243D1*
Y886243D1*
Y885243D1*
Y884243D1*
Y883243D1*
Y882243D1*
Y881243D1*
Y880243D1*
Y879243D1*
Y878243D1*
Y877243D1*
Y876243D1*
Y875243D1*
Y874243D1*
Y873243D1*
Y872243D1*
Y871243D1*
Y870243D1*
Y869243D1*
Y868243D1*
Y867243D1*
Y866243D1*
Y865243D1*
Y864243D1*
Y863243D1*
Y862243D1*
Y861243D1*
X2528767Y923243D2*
X2528921Y922243D1*
X2529169Y921243D1*
X2529432Y920243D1*
X2529642Y919243D1*
X2529863Y918243D1*
X2530149Y917243D1*
X2530458Y916243D1*
X2530766Y915243D1*
X2531105Y914243D1*
X2531440Y913243D1*
X2531759Y912243D1*
X2532102Y911243D1*
X2532439Y910243D1*
X2532759Y909243D1*
X2533102Y908243D1*
X2533439Y907243D1*
X2533759Y906243D1*
X2534102Y905243D1*
X2534439Y904243D1*
X2534759Y903243D1*
X2535098Y902243D1*
X2535404Y901243D1*
X2535632Y900243D1*
X2535859Y899243D1*
X2536147Y898243D1*
X2536457Y897243D1*
X2536766Y896243D1*
X2537105Y895243D1*
X2537440Y894243D1*
X2537759Y893243D1*
X2538102Y892243D1*
X2538439Y891243D1*
X2538759Y890243D1*
X2539102Y889243D1*
X2539439Y888243D1*
X2539759Y887243D1*
X2540102Y886243D1*
X2540439Y885243D1*
X2540759Y884243D1*
X2541102Y883243D1*
X2541442Y882243D1*
X2541790Y881243D1*
X2542237Y880243D1*
X2542767Y879243D1*
X2557767Y923243D2*
X2557267Y922243D1*
X2556852Y921243D1*
X2556463Y920243D1*
X2556107Y919243D1*
X2555779Y918243D1*
X2555433Y917243D1*
X2555095Y916243D1*
X2554774Y915243D1*
X2554431Y914243D1*
X2554095Y913243D1*
X2553774Y912243D1*
X2553431Y911243D1*
X2553095Y910243D1*
X2552774Y909243D1*
X2552431Y908243D1*
X2552095Y907243D1*
X2551774Y906243D1*
X2551431Y905243D1*
X2551095Y904243D1*
X2550774Y903243D1*
X2550431Y902243D1*
X2550095Y901243D1*
X2549774Y900243D1*
X2549435Y899243D1*
X2549130Y898243D1*
X2548902Y897243D1*
X2548675Y896243D1*
X2548386Y895243D1*
X2548076Y894243D1*
X2547767Y893243D1*
X2547429Y892243D1*
X2547094Y891243D1*
X2546774Y890243D1*
X2546431Y889243D1*
X2546095Y888243D1*
X2545774Y887243D1*
X2545431Y886243D1*
X2545095Y885243D1*
X2544774Y884243D1*
X2544431Y883243D1*
X2544092Y882243D1*
X2543743Y881243D1*
X2543296Y880243D1*
X2542767Y879243D1*
X2575767Y923243D2*
Y922243D1*
Y921243D1*
Y920243D1*
Y919243D1*
Y918243D1*
Y917243D1*
Y916243D1*
Y915243D1*
Y914243D1*
Y913243D1*
Y912243D1*
Y911243D1*
Y910243D1*
Y909243D1*
Y908243D1*
Y907243D1*
Y906243D1*
Y905243D1*
Y904243D1*
Y903243D1*
Y902243D1*
Y901243D1*
Y900243D1*
Y899243D1*
Y898243D1*
Y897243D1*
Y896243D1*
Y895243D1*
Y894243D1*
Y893243D1*
Y892243D1*
Y891243D1*
Y890243D1*
Y889243D1*
Y888243D1*
Y887243D1*
Y886243D1*
Y885243D1*
Y884243D1*
Y883243D1*
Y882243D1*
Y881243D1*
Y880243D1*
Y879243D1*
Y878243D1*
Y877243D1*
Y876243D1*
Y875243D1*
Y874243D1*
Y873243D1*
Y872243D1*
Y871243D1*
Y870243D1*
Y869243D1*
Y868243D1*
Y867243D1*
Y866243D1*
Y865243D1*
Y864243D1*
Y863243D1*
Y862243D1*
Y861243D1*
X2585767Y923243D2*
Y922243D1*
Y921243D1*
Y920243D1*
Y919243D1*
Y918243D1*
Y917243D1*
Y916243D1*
Y915243D1*
Y914243D1*
Y913243D1*
Y912243D1*
Y911243D1*
Y910243D1*
Y909243D1*
Y908243D1*
Y907243D1*
Y906243D1*
Y905243D1*
Y904243D1*
Y903243D1*
Y902243D1*
Y901243D1*
Y900243D1*
Y899243D1*
Y898243D1*
Y897243D1*
Y896243D1*
Y895243D1*
Y894243D1*
Y893243D1*
Y892243D1*
Y891243D1*
Y890243D1*
Y889243D1*
Y888243D1*
Y887243D1*
Y886243D1*
Y885243D1*
Y884243D1*
Y883243D1*
Y882243D1*
Y881243D1*
Y880243D1*
Y879243D1*
Y878243D1*
Y877243D1*
Y876243D1*
Y875243D1*
Y874243D1*
Y873243D1*
Y872243D1*
Y871243D1*
Y870243D1*
Y869243D1*
Y868243D1*
Y867243D1*
Y866243D1*
Y865243D1*
Y864243D1*
Y863243D1*
Y862243D1*
Y861243D1*
X2616767Y923243D2*
X2619686Y922243D1*
X2622221Y921243D1*
X2624345Y920243D1*
X2626068Y919243D1*
X2627458Y918243D1*
X2628637Y917243D1*
X2629680Y916243D1*
X2630579Y915243D1*
X2631316Y914243D1*
X2631932Y913243D1*
X2632480Y912243D1*
X2632969Y911243D1*
X2633381Y910243D1*
X2633736Y909243D1*
X2634090Y908243D1*
X2634397Y907243D1*
X2634591Y906243D1*
X2634692Y905243D1*
X2634737Y904243D1*
X2634756Y903243D1*
X2634759Y902243D1*
X2634726Y901243D1*
X2634600Y900243D1*
X2634357Y899243D1*
X2634065Y898243D1*
X2633759Y897243D1*
X2633392Y896243D1*
X2632962Y895243D1*
X2632491Y894243D1*
X2631969Y893243D1*
X2631344Y892243D1*
X2630570Y891243D1*
X2629680Y890243D1*
X2628691Y889243D1*
X2627545Y888243D1*
X2626139Y887243D1*
X2624403Y886243D1*
X2622259Y885243D1*
X2619648Y884243D1*
X2616767Y883243D1*
X2643767Y923243D2*
Y922243D1*
Y921243D1*
Y920243D1*
Y919243D1*
Y918243D1*
Y917243D1*
Y916243D1*
Y915243D1*
Y914243D1*
Y913243D1*
Y912243D1*
Y911243D1*
Y910243D1*
Y909243D1*
Y908243D1*
Y907243D1*
Y906243D1*
Y905243D1*
Y904243D1*
Y903243D1*
Y902243D1*
Y901243D1*
Y900243D1*
Y899243D1*
Y898243D1*
Y897243D1*
Y896243D1*
Y895243D1*
Y894243D1*
Y893243D1*
Y892243D1*
Y891243D1*
Y890243D1*
Y889243D1*
Y888243D1*
Y887243D1*
Y886243D1*
Y885243D1*
Y884243D1*
Y883243D1*
Y882243D1*
Y881243D1*
X2643771Y880243D1*
X2643806Y879243D1*
X2643933Y878243D1*
X2644173Y877243D1*
X2644433Y876243D1*
X2644643Y875243D1*
X2644867Y874243D1*
X2645188Y873243D1*
X2645624Y872243D1*
X2646176Y871243D1*
X2646806Y870243D1*
X2647451Y869243D1*
X2648177Y868243D1*
X2649113Y867243D1*
X2650290Y866243D1*
X2651668Y865243D1*
X2653238Y864243D1*
X2655062Y863243D1*
X2657247Y862243D1*
X2659875Y861243D1*
X2662767Y860243D1*
X2657767Y923243D2*
Y922243D1*
Y921243D1*
Y920243D1*
Y919243D1*
Y918243D1*
Y917243D1*
Y916243D1*
Y915243D1*
Y914243D1*
Y913243D1*
Y912243D1*
Y911243D1*
Y910243D1*
Y909243D1*
Y908243D1*
Y907243D1*
Y906243D1*
Y905243D1*
Y904243D1*
Y903243D1*
Y902243D1*
Y901243D1*
Y900243D1*
Y899243D1*
Y898243D1*
Y897243D1*
Y896243D1*
Y895243D1*
Y894243D1*
Y893243D1*
Y892243D1*
Y891243D1*
Y890243D1*
Y889243D1*
Y888243D1*
Y887243D1*
Y886243D1*
Y885243D1*
Y884243D1*
Y883243D1*
Y882243D1*
Y881243D1*
X2657771Y880243D1*
X2657806Y879243D1*
X2657937Y878243D1*
X2658216Y877243D1*
X2658639Y876243D1*
X2659227Y875243D1*
X2660091Y874243D1*
X2661224Y873243D1*
X2664500Y872243D1*
X2669564Y871243D1*
X2675767Y870243D1*
X2680767Y923243D2*
Y922243D1*
Y921243D1*
Y920243D1*
Y919243D1*
Y918243D1*
Y917243D1*
Y916243D1*
Y915243D1*
Y914243D1*
Y913243D1*
Y912243D1*
Y911243D1*
Y910243D1*
Y909243D1*
Y908243D1*
Y907243D1*
Y906243D1*
Y905243D1*
Y904243D1*
Y903243D1*
Y902243D1*
Y901243D1*
Y900243D1*
Y899243D1*
Y898243D1*
Y897243D1*
Y896243D1*
Y895243D1*
Y894243D1*
Y893243D1*
Y892243D1*
Y891243D1*
Y890243D1*
Y889243D1*
Y888243D1*
Y887243D1*
Y886243D1*
Y885243D1*
Y884243D1*
Y883243D1*
Y882243D1*
X2680763Y881243D1*
X2680728Y880243D1*
X2680596Y879243D1*
X2680322Y878243D1*
X2679934Y877243D1*
X2679477Y876243D1*
X2678922Y875243D1*
X2678259Y874243D1*
X2676658Y873243D1*
X2673845Y872243D1*
X2669326Y871243D1*
X2663767Y870243D1*
X2694767Y923243D2*
Y922243D1*
Y921243D1*
Y920243D1*
Y919243D1*
Y918243D1*
Y917243D1*
Y916243D1*
Y915243D1*
Y914243D1*
Y913243D1*
Y912243D1*
Y911243D1*
Y910243D1*
Y909243D1*
Y908243D1*
Y907243D1*
Y906243D1*
Y905243D1*
Y904243D1*
Y903243D1*
Y902243D1*
Y901243D1*
Y900243D1*
Y899243D1*
Y898243D1*
Y897243D1*
Y896243D1*
Y895243D1*
Y894243D1*
Y893243D1*
Y892243D1*
Y891243D1*
Y890243D1*
Y889243D1*
Y888243D1*
Y887243D1*
Y886243D1*
Y885243D1*
Y884243D1*
Y883243D1*
X2694763Y882243D1*
X2694728Y881243D1*
X2694600Y880243D1*
X2694361Y879243D1*
X2694100Y878243D1*
X2693891Y877243D1*
X2693671Y876243D1*
X2693385Y875243D1*
X2693076Y874243D1*
X2692763Y873243D1*
X2692389Y872243D1*
X2691923Y871243D1*
X2691325Y870243D1*
X2690563Y869243D1*
X2689681Y868243D1*
X2688729Y867243D1*
X2687711Y866243D1*
X2686549Y865243D1*
X2685103Y864243D1*
X2683237Y863243D1*
X2680844Y862243D1*
X2677936Y861243D1*
X2674767Y860243D1*
X2700767Y923243D2*
Y922243D1*
Y921243D1*
Y920243D1*
Y919243D1*
Y918243D1*
Y917243D1*
Y916243D1*
Y915243D1*
Y914243D1*
Y913243D1*
X2747767Y923243D2*
Y922243D1*
Y921243D1*
Y920243D1*
Y919243D1*
Y918243D1*
Y917243D1*
Y916243D1*
Y915243D1*
Y914243D1*
Y913243D1*
X2754767Y923243D2*
Y922243D1*
Y921243D1*
Y920243D1*
Y919243D1*
Y918243D1*
Y917243D1*
Y916243D1*
Y915243D1*
Y914243D1*
Y913243D1*
Y912243D1*
Y911243D1*
Y910243D1*
Y909243D1*
Y908243D1*
Y907243D1*
Y906243D1*
Y905243D1*
Y904243D1*
Y903243D1*
Y902243D1*
Y901243D1*
Y900243D1*
Y899243D1*
Y898243D1*
Y897243D1*
Y896243D1*
Y895243D1*
Y894243D1*
Y893243D1*
Y892243D1*
Y891243D1*
Y890243D1*
Y889243D1*
Y888243D1*
Y887243D1*
Y886243D1*
Y885243D1*
Y884243D1*
Y883243D1*
Y882243D1*
Y881243D1*
Y880243D1*
Y879243D1*
Y878243D1*
Y877243D1*
Y876243D1*
Y875243D1*
Y874243D1*
Y873243D1*
Y872243D1*
Y871243D1*
Y870243D1*
Y869243D1*
Y868243D1*
Y867243D1*
Y866243D1*
Y865243D1*
Y864243D1*
Y863243D1*
Y862243D1*
Y861243D1*
X2797767Y923243D2*
Y922243D1*
Y921243D1*
Y920243D1*
Y919243D1*
Y918243D1*
Y917243D1*
Y916243D1*
Y915243D1*
Y914243D1*
Y913243D1*
X2804767Y923243D2*
Y922243D1*
Y921243D1*
Y920243D1*
Y919243D1*
Y918243D1*
Y917243D1*
Y916243D1*
Y915243D1*
Y914243D1*
Y913243D1*
Y912243D1*
Y911243D1*
Y910243D1*
Y909243D1*
Y908243D1*
Y907243D1*
Y906243D1*
Y905243D1*
Y904243D1*
Y903243D1*
Y902243D1*
Y901243D1*
Y900243D1*
Y899243D1*
Y898243D1*
Y897243D1*
Y896243D1*
Y895243D1*
Y894243D1*
Y893243D1*
Y892243D1*
Y891243D1*
Y890243D1*
Y889243D1*
Y888243D1*
Y887243D1*
Y886243D1*
Y885243D1*
Y884243D1*
Y883243D1*
Y882243D1*
Y881243D1*
Y880243D1*
Y879243D1*
Y878243D1*
Y877243D1*
Y876243D1*
Y875243D1*
Y874243D1*
Y873243D1*
Y872243D1*
Y871243D1*
Y870243D1*
Y869243D1*
Y868243D1*
Y867243D1*
Y866243D1*
Y865243D1*
Y864243D1*
Y863243D1*
Y862243D1*
Y861243D1*
X2834767Y923243D2*
X2837686Y922243D1*
X2840221Y921243D1*
X2842345Y920243D1*
X2844068Y919243D1*
X2845458Y918243D1*
X2846637Y917243D1*
X2847680Y916243D1*
X2848579Y915243D1*
X2849312Y914243D1*
X2849893Y913243D1*
X2850318Y912243D1*
X2850598Y911243D1*
X2850846Y910243D1*
X2851139Y909243D1*
X2851417Y908243D1*
X2851599Y907243D1*
X2851695Y906243D1*
X2851738Y905243D1*
X2851752Y904243D1*
X2851724Y903243D1*
X2851599Y902243D1*
X2851356Y901243D1*
X2851061Y900243D1*
X2850724Y899243D1*
X2850261Y898243D1*
X2849683Y897243D1*
X2849065Y896243D1*
X2848346Y895243D1*
X2847387Y894243D1*
X2846160Y893243D1*
X2844853Y892243D1*
X2843727Y891243D1*
X2842767Y890243D1*
X2844570Y889243D1*
X2846155Y888243D1*
X2847486Y887243D1*
X2848613Y886243D1*
X2849552Y885243D1*
X2850302Y884243D1*
X2850889Y883243D1*
X2851316Y882243D1*
X2851598Y881243D1*
X2851846Y880243D1*
X2852139Y879243D1*
X2852417Y878243D1*
X2852599Y877243D1*
X2852695Y876243D1*
X2852738Y875243D1*
X2852756Y874243D1*
X2852763Y873243D1*
X2852765Y872243D1*
X2852766Y871243D1*
X2852767Y870243D1*
X2852771Y869243D1*
X2852806Y868243D1*
X2852933Y867243D1*
X2853177Y866243D1*
X2853472Y865243D1*
X2853813Y864243D1*
X2854308Y863243D1*
X2854992Y862243D1*
X2855767Y861243D1*
X2414767Y913243D2*
X2412847Y912243D1*
X2411142Y911243D1*
X2409792Y910243D1*
X2408746Y909243D1*
X2407889Y908243D1*
X2407189Y907243D1*
X2406627Y906243D1*
X2406214Y905243D1*
X2405968Y904243D1*
X2405814Y903243D1*
X2405634Y902243D1*
X2405373Y901243D1*
X2405109Y900243D1*
X2404931Y899243D1*
X2404838Y898243D1*
X2404795Y897243D1*
X2404777Y896243D1*
X2404770Y895243D1*
X2404768Y894243D1*
X2404767Y893243D1*
Y892243D1*
Y891243D1*
Y890243D1*
Y889243D1*
Y888243D1*
Y887243D1*
X2404771Y886243D1*
X2404806Y885243D1*
X2404933Y884243D1*
X2405173Y883243D1*
X2405433Y882243D1*
X2405643Y881243D1*
X2405863Y880243D1*
X2406149Y879243D1*
X2406462Y878243D1*
X2406809Y877243D1*
X2407310Y876243D1*
X2408020Y875243D1*
X2408945Y874243D1*
X2410053Y873243D1*
X2412891Y872243D1*
X2417311Y871243D1*
X2422767Y870243D1*
X2418767Y913243D2*
X2420687Y912243D1*
X2422391Y911243D1*
X2423741Y910243D1*
X2424783Y909243D1*
X2425606Y908243D1*
X2426181Y907243D1*
X2426540Y906243D1*
X2426823Y905243D1*
X2427130Y904243D1*
X2427416Y903243D1*
X2427616Y902243D1*
X2427767Y901243D1*
X2472767Y913243D2*
X2470809Y912243D1*
X2468980Y911243D1*
X2467421Y910243D1*
X2466215Y909243D1*
X2465326Y908243D1*
X2464644Y907243D1*
X2464069Y906243D1*
X2463574Y905243D1*
X2463193Y904243D1*
X2462960Y903243D1*
X2462811Y902243D1*
X2462633Y901243D1*
X2462373Y900243D1*
X2462109Y899243D1*
X2461931Y898243D1*
X2461838Y897243D1*
X2461795Y896243D1*
X2461777Y895243D1*
X2461770Y894243D1*
X2461768Y893243D1*
X2461767Y892243D1*
Y891243D1*
Y890243D1*
Y889243D1*
Y888243D1*
X2461771Y887243D1*
X2461806Y886243D1*
X2461933Y885243D1*
X2462173Y884243D1*
X2462429Y883243D1*
X2462607Y882243D1*
X2462735Y881243D1*
X2462909Y880243D1*
X2463201Y879243D1*
X2463596Y878243D1*
X2464051Y877243D1*
X2464572Y876243D1*
X2465234Y875243D1*
X2466200Y874243D1*
X2467759Y873243D1*
X2470452Y872243D1*
X2474653Y871243D1*
X2479767Y870243D1*
X2476767Y913243D2*
X2478721Y912243D1*
X2480518Y911243D1*
X2481985Y910243D1*
X2483079Y909243D1*
X2483947Y908243D1*
X2484680Y907243D1*
X2485245Y906243D1*
X2485678Y905243D1*
X2486067Y904243D1*
X2486388Y903243D1*
X2486588Y902243D1*
X2486691Y901243D1*
X2486737Y900243D1*
X2486756Y899243D1*
X2486763Y898243D1*
X2486765Y897243D1*
X2486766Y896243D1*
X2486767Y895243D1*
Y894243D1*
Y893243D1*
Y892243D1*
Y891243D1*
Y890243D1*
Y889243D1*
Y888243D1*
Y887243D1*
Y886243D1*
Y885243D1*
Y884243D1*
X2486763Y883243D1*
X2486728Y882243D1*
X2486600Y881243D1*
X2486357Y880243D1*
X2486061Y879243D1*
X2485724Y878243D1*
X2485261Y877243D1*
X2484679Y876243D1*
X2484026Y875243D1*
X2483152Y874243D1*
X2481995Y873243D1*
X2479118Y872243D1*
X2474884Y871243D1*
X2469767Y870243D1*
X2599767Y913243D2*
Y912243D1*
Y911243D1*
Y910243D1*
Y909243D1*
Y908243D1*
Y907243D1*
Y906243D1*
Y905243D1*
Y904243D1*
Y903243D1*
Y902243D1*
Y901243D1*
Y900243D1*
Y899243D1*
Y898243D1*
Y897243D1*
Y896243D1*
Y895243D1*
Y894243D1*
Y893243D1*
X2612767Y913243D2*
X2614687Y912243D1*
X2616387Y911243D1*
X2617706Y910243D1*
X2618656Y909243D1*
X2619366Y908243D1*
X2619921Y907243D1*
X2620326Y906243D1*
X2620564Y905243D1*
X2620682Y904243D1*
X2620734Y903243D1*
X2620751Y902243D1*
X2620719Y901243D1*
X2620560Y900243D1*
X2620186Y899243D1*
X2619612Y898243D1*
X2618848Y897243D1*
X2617769Y896243D1*
X2616311Y895243D1*
X2614591Y894243D1*
X2612767Y893243D1*
X2717767Y913243D2*
Y912243D1*
Y911243D1*
Y910243D1*
Y909243D1*
Y908243D1*
Y907243D1*
Y906243D1*
Y905243D1*
Y904243D1*
Y903243D1*
Y902243D1*
Y901243D1*
Y900243D1*
Y899243D1*
Y898243D1*
Y897243D1*
Y896243D1*
Y895243D1*
Y894243D1*
Y893243D1*
Y892243D1*
Y891243D1*
Y890243D1*
Y889243D1*
Y888243D1*
Y887243D1*
Y886243D1*
Y885243D1*
Y884243D1*
Y883243D1*
Y882243D1*
Y881243D1*
Y880243D1*
Y879243D1*
Y878243D1*
Y877243D1*
Y876243D1*
Y875243D1*
Y874243D1*
Y873243D1*
Y872243D1*
Y871243D1*
Y870243D1*
Y869243D1*
Y868243D1*
Y867243D1*
Y866243D1*
Y865243D1*
Y864243D1*
Y863243D1*
Y862243D1*
Y861243D1*
X2730767Y913243D2*
Y912243D1*
Y911243D1*
Y910243D1*
Y909243D1*
Y908243D1*
Y907243D1*
Y906243D1*
Y905243D1*
Y904243D1*
Y903243D1*
Y902243D1*
Y901243D1*
Y900243D1*
Y899243D1*
Y898243D1*
Y897243D1*
Y896243D1*
Y895243D1*
Y894243D1*
Y893243D1*
Y892243D1*
Y891243D1*
Y890243D1*
Y889243D1*
Y888243D1*
Y887243D1*
Y886243D1*
Y885243D1*
Y884243D1*
Y883243D1*
Y882243D1*
Y881243D1*
Y880243D1*
Y879243D1*
Y878243D1*
Y877243D1*
Y876243D1*
Y875243D1*
Y874243D1*
Y873243D1*
Y872243D1*
Y871243D1*
Y870243D1*
Y869243D1*
Y868243D1*
Y867243D1*
Y866243D1*
Y865243D1*
Y864243D1*
Y863243D1*
Y862243D1*
Y861243D1*
X2768767Y913243D2*
Y912243D1*
Y911243D1*
Y910243D1*
Y909243D1*
Y908243D1*
Y907243D1*
Y906243D1*
Y905243D1*
Y904243D1*
Y903243D1*
Y902243D1*
Y901243D1*
Y900243D1*
Y899243D1*
Y898243D1*
X2818767Y913243D2*
Y912243D1*
Y911243D1*
Y910243D1*
Y909243D1*
Y908243D1*
Y907243D1*
Y906243D1*
Y905243D1*
Y904243D1*
Y903243D1*
Y902243D1*
Y901243D1*
Y900243D1*
Y899243D1*
Y898243D1*
Y897243D1*
Y896243D1*
Y895243D1*
X2830767Y913243D2*
X2832566Y912243D1*
X2834116Y911243D1*
X2835319Y910243D1*
X2836203Y909243D1*
X2836851Y908243D1*
X2837298Y907243D1*
X2837554Y906243D1*
X2837678Y905243D1*
X2837732Y904243D1*
X2837750Y903243D1*
X2837719Y902243D1*
X2837556Y901243D1*
X2837147Y900243D1*
X2836446Y899243D1*
X2835443Y898243D1*
X2834111Y897243D1*
X2832500Y896243D1*
X2830767Y895243D1*
X2562767Y904243D2*
X2561767Y903243D1*
X2562767Y904243D2*
X2563767Y903243D1*
X2522767D2*
Y902243D1*
Y901243D1*
Y900243D1*
Y899243D1*
Y898243D1*
Y897243D1*
Y896243D1*
Y895243D1*
Y894243D1*
Y893243D1*
Y892243D1*
Y891243D1*
Y890243D1*
Y889243D1*
X2522771Y888243D1*
X2522806Y887243D1*
X2522933Y886243D1*
X2523173Y885243D1*
X2523429Y884243D1*
X2523603Y883243D1*
X2523696Y882243D1*
X2523739Y881243D1*
X2523756Y880243D1*
X2523763Y879243D1*
X2523765Y878243D1*
X2523766Y877243D1*
X2523767Y876243D1*
Y875243D1*
Y874243D1*
Y873243D1*
Y872243D1*
Y871243D1*
Y870243D1*
Y869243D1*
Y868243D1*
Y867243D1*
Y866243D1*
Y865243D1*
Y864243D1*
Y863243D1*
Y862243D1*
Y861243D1*
X2524767Y903243D2*
X2524805Y902243D1*
X2524933Y901243D1*
X2525177Y900243D1*
X2525468Y899243D1*
X2525770Y898243D1*
X2526106Y897243D1*
X2526440Y896243D1*
X2526759Y895243D1*
X2527102Y894243D1*
X2527439Y893243D1*
X2527759Y892243D1*
X2528102Y891243D1*
X2528439Y890243D1*
X2528759Y889243D1*
X2529102Y888243D1*
X2529439Y887243D1*
X2529759Y886243D1*
X2530102Y885243D1*
X2530439Y884243D1*
X2530759Y883243D1*
X2531102Y882243D1*
X2531439Y881243D1*
X2531759Y880243D1*
X2532102Y879243D1*
X2532439Y878243D1*
X2532759Y877243D1*
X2533102Y876243D1*
X2533439Y875243D1*
X2533759Y874243D1*
X2534102Y873243D1*
X2534439Y872243D1*
X2534759Y871243D1*
X2535102Y870243D1*
X2535439Y869243D1*
X2535759Y868243D1*
X2536102Y867243D1*
X2536439Y866243D1*
X2536759Y865243D1*
X2537098Y864243D1*
X2537402Y863243D1*
X2537611Y862243D1*
X2537767Y861243D1*
X2560767Y902243D2*
X2560729Y901243D1*
X2560596Y900243D1*
X2560322Y899243D1*
X2559938Y898243D1*
X2559520Y897243D1*
X2559136Y896243D1*
X2558791Y895243D1*
X2558438Y894243D1*
X2558097Y893243D1*
X2557775Y892243D1*
X2557431Y891243D1*
X2557095Y890243D1*
X2556774Y889243D1*
X2556431Y888243D1*
X2556095Y887243D1*
X2555774Y886243D1*
X2555431Y885243D1*
X2555095Y884243D1*
X2554774Y883243D1*
X2554431Y882243D1*
X2554095Y881243D1*
X2553774Y880243D1*
X2553431Y879243D1*
X2553095Y878243D1*
X2552774Y877243D1*
X2552431Y876243D1*
X2552095Y875243D1*
X2551774Y874243D1*
X2551431Y873243D1*
X2551095Y872243D1*
X2550774Y871243D1*
X2550431Y870243D1*
X2550095Y869243D1*
X2549774Y868243D1*
X2549431Y867243D1*
X2549095Y866243D1*
X2548774Y865243D1*
X2548435Y864243D1*
X2548131Y863243D1*
X2547922Y862243D1*
X2547767Y861243D1*
X2562767Y902243D2*
Y901243D1*
Y900243D1*
Y899243D1*
Y898243D1*
Y897243D1*
Y896243D1*
Y895243D1*
Y894243D1*
Y893243D1*
Y892243D1*
Y891243D1*
Y890243D1*
Y889243D1*
Y888243D1*
Y887243D1*
Y886243D1*
X2562763Y885243D1*
X2562728Y884243D1*
X2562600Y883243D1*
X2562361Y882243D1*
X2562104Y881243D1*
X2561930Y880243D1*
X2561837Y879243D1*
X2561795Y878243D1*
X2561777Y877243D1*
X2561770Y876243D1*
X2561768Y875243D1*
X2561767Y874243D1*
Y873243D1*
Y872243D1*
Y871243D1*
Y870243D1*
Y869243D1*
Y868243D1*
Y867243D1*
Y866243D1*
Y865243D1*
Y864243D1*
Y863243D1*
Y862243D1*
Y861243D1*
X2792767Y898243D2*
Y897243D1*
Y896243D1*
Y895243D1*
Y894243D1*
Y893243D1*
Y892243D1*
Y891243D1*
Y890243D1*
Y889243D1*
Y888243D1*
X2768767D2*
Y887243D1*
Y886243D1*
Y885243D1*
Y884243D1*
Y883243D1*
Y882243D1*
Y881243D1*
Y880243D1*
Y879243D1*
Y878243D1*
Y877243D1*
Y876243D1*
Y875243D1*
Y874243D1*
Y873243D1*
Y872243D1*
Y871243D1*
X2818767Y885243D2*
Y884243D1*
Y883243D1*
Y882243D1*
Y881243D1*
Y880243D1*
Y879243D1*
Y878243D1*
Y877243D1*
Y876243D1*
Y875243D1*
Y874243D1*
Y873243D1*
Y872243D1*
Y871243D1*
Y870243D1*
Y869243D1*
Y868243D1*
Y867243D1*
Y866243D1*
Y865243D1*
Y864243D1*
Y863243D1*
Y862243D1*
Y861243D1*
X2829767Y885243D2*
X2832370Y884243D1*
X2834504Y883243D1*
X2836043Y882243D1*
X2837089Y881243D1*
X2837807Y880243D1*
X2838282Y879243D1*
X2838548Y878243D1*
X2838676Y877243D1*
X2838732Y876243D1*
X2838754Y875243D1*
X2838762Y874243D1*
X2838765Y873243D1*
X2838766Y872243D1*
Y871243D1*
X2838767Y870243D1*
X2838771Y869243D1*
X2838806Y868243D1*
X2838933Y867243D1*
X2839177Y866243D1*
X2839468Y865243D1*
X2839771Y864243D1*
X2840112Y863243D1*
X2840453Y862243D1*
X2840767Y861243D1*
X2427767Y882243D2*
X2427612Y881243D1*
X2427364Y880243D1*
X2427101Y879243D1*
X2426891Y878243D1*
X2426667Y877243D1*
X2426346Y876243D1*
X2425901Y875243D1*
X2425244Y874243D1*
X2424346Y873243D1*
X2421580Y872243D1*
X2417198Y871243D1*
X2411767Y870243D1*
X2440767Y882243D2*
Y881243D1*
X2440763Y880243D1*
X2440728Y879243D1*
X2440600Y878243D1*
X2440361Y877243D1*
X2440100Y876243D1*
X2439891Y875243D1*
X2439667Y874243D1*
X2439350Y873243D1*
X2438944Y872243D1*
X2438485Y871243D1*
X2437967Y870243D1*
X2437343Y869243D1*
X2436570Y868243D1*
X2435684Y867243D1*
X2434730Y866243D1*
X2433708Y865243D1*
X2432506Y864243D1*
X2430899Y863243D1*
X2428681Y862243D1*
X2425871Y861243D1*
X2422767Y860243D1*
X2599767Y883243D2*
Y882243D1*
Y881243D1*
Y880243D1*
Y879243D1*
Y878243D1*
Y877243D1*
Y876243D1*
Y875243D1*
Y874243D1*
Y873243D1*
Y872243D1*
Y871243D1*
Y870243D1*
Y869243D1*
Y868243D1*
Y867243D1*
Y866243D1*
Y865243D1*
Y864243D1*
Y863243D1*
Y862243D1*
Y861243D1*
X2797767Y871243D2*
Y870243D1*
Y869243D1*
Y868243D1*
Y867243D1*
Y866243D1*
Y865243D1*
Y864243D1*
Y863243D1*
Y862243D1*
Y861243D1*
X1440016Y923243D2*
X1439516Y922243D1*
X1439101Y921243D1*
X1438712Y920243D1*
X1438356Y919243D1*
X1438028Y918243D1*
X1437682Y917243D1*
X1437344Y916243D1*
X1437024Y915243D1*
X1436680Y914243D1*
X1436344Y913243D1*
X1436024Y912243D1*
X1435680Y911243D1*
X1435344Y910243D1*
X1435024Y909243D1*
X1434680Y908243D1*
X1434344Y907243D1*
X1434024Y906243D1*
X1433684Y905243D1*
X1433379Y904243D1*
X1433151Y903243D1*
X1432924Y902243D1*
X1432635Y901243D1*
X1432325Y900243D1*
X1432017Y899243D1*
X1431678Y898243D1*
X1431343Y897243D1*
X1431023Y896243D1*
X1430680Y895243D1*
X1430344Y894243D1*
X1430024Y893243D1*
X1429680Y892243D1*
X1429344Y891243D1*
X1429024Y890243D1*
X1428680Y889243D1*
X1428344Y888243D1*
X1428024Y887243D1*
X1427680Y886243D1*
X1427344Y885243D1*
X1427024Y884243D1*
X1426680Y883243D1*
X1426344Y882243D1*
X1426024Y881243D1*
X1425684Y880243D1*
X1425379Y879243D1*
X1425151Y878243D1*
X1424924Y877243D1*
X1424635Y876243D1*
X1424325Y875243D1*
X1424017Y874243D1*
X1423678Y873243D1*
X1423343Y872243D1*
X1423023Y871243D1*
X1422680Y870243D1*
X1422344Y869243D1*
X1422024Y868243D1*
X1421680Y867243D1*
X1421344Y866243D1*
X1421024Y865243D1*
X1420684Y864243D1*
X1420380Y863243D1*
X1420172Y862243D1*
X1420016Y861243D1*
X1455016Y923243D2*
X1455171Y922243D1*
X1455422Y921243D1*
X1455716Y920243D1*
X1456019Y919243D1*
X1456355Y918243D1*
X1456689Y917243D1*
X1457009Y916243D1*
X1457352Y915243D1*
X1457688Y914243D1*
X1458008Y913243D1*
X1458348Y912243D1*
X1458653Y911243D1*
X1458881Y910243D1*
X1459108Y909243D1*
X1459397Y908243D1*
X1459707Y907243D1*
X1460015Y906243D1*
X1460354Y905243D1*
X1460689Y904243D1*
X1461009Y903243D1*
X1461352Y902243D1*
X1461688Y901243D1*
X1462008Y900243D1*
X1462352Y899243D1*
X1462688Y898243D1*
X1463008Y897243D1*
X1463352Y896243D1*
X1463688Y895243D1*
X1464008Y894243D1*
X1464352Y893243D1*
X1464688Y892243D1*
X1465008Y891243D1*
X1465352Y890243D1*
X1465688Y889243D1*
X1466008Y888243D1*
X1466352Y887243D1*
X1466688Y886243D1*
X1467008Y885243D1*
X1467348Y884243D1*
X1467653Y883243D1*
X1467881Y882243D1*
X1468108Y881243D1*
X1468397Y880243D1*
X1468707Y879243D1*
X1469015Y878243D1*
X1469354Y877243D1*
X1469689Y876243D1*
X1470009Y875243D1*
X1470352Y874243D1*
X1470688Y873243D1*
X1471008Y872243D1*
X1471352Y871243D1*
X1471688Y870243D1*
X1472008Y869243D1*
X1472352Y868243D1*
X1472688Y867243D1*
X1473008Y866243D1*
X1473352Y865243D1*
X1473691Y864243D1*
X1474039Y863243D1*
X1474486Y862243D1*
X1475016Y861243D1*
X1480016Y923243D2*
Y922243D1*
Y921243D1*
Y920243D1*
Y919243D1*
Y918243D1*
Y917243D1*
Y916243D1*
Y915243D1*
Y914243D1*
Y913243D1*
Y912243D1*
Y911243D1*
Y910243D1*
Y909243D1*
Y908243D1*
Y907243D1*
Y906243D1*
Y905243D1*
Y904243D1*
Y903243D1*
Y902243D1*
Y901243D1*
Y900243D1*
Y899243D1*
Y898243D1*
Y897243D1*
Y896243D1*
Y895243D1*
Y894243D1*
Y893243D1*
Y892243D1*
Y891243D1*
Y890243D1*
Y889243D1*
Y888243D1*
Y887243D1*
Y886243D1*
Y885243D1*
Y884243D1*
Y883243D1*
Y882243D1*
Y881243D1*
Y880243D1*
Y879243D1*
Y878243D1*
Y877243D1*
Y876243D1*
Y875243D1*
Y874243D1*
Y873243D1*
Y872243D1*
Y871243D1*
Y870243D1*
Y869243D1*
Y868243D1*
Y867243D1*
Y866243D1*
Y865243D1*
Y864243D1*
Y863243D1*
Y862243D1*
Y861243D1*
X1494016Y923243D2*
Y922243D1*
Y921243D1*
Y920243D1*
Y919243D1*
Y918243D1*
Y917243D1*
Y916243D1*
Y915243D1*
Y914243D1*
Y913243D1*
Y912243D1*
Y911243D1*
Y910243D1*
Y909243D1*
Y908243D1*
Y907243D1*
Y906243D1*
Y905243D1*
Y904243D1*
Y903243D1*
Y902243D1*
Y901243D1*
Y900243D1*
Y899243D1*
Y898243D1*
Y897243D1*
Y896243D1*
Y895243D1*
Y894243D1*
Y893243D1*
Y892243D1*
Y891243D1*
Y890243D1*
Y889243D1*
Y888243D1*
Y887243D1*
Y886243D1*
Y885243D1*
Y884243D1*
Y883243D1*
Y882243D1*
Y881243D1*
Y880243D1*
Y879243D1*
Y878243D1*
Y877243D1*
Y876243D1*
Y875243D1*
Y874243D1*
Y873243D1*
Y872243D1*
Y871243D1*
X1528016Y923243D2*
Y922243D1*
Y921243D1*
Y920243D1*
Y919243D1*
Y918243D1*
Y917243D1*
Y916243D1*
Y915243D1*
Y914243D1*
Y913243D1*
Y912243D1*
Y911243D1*
Y910243D1*
Y909243D1*
Y908243D1*
Y907243D1*
Y906243D1*
Y905243D1*
Y904243D1*
Y903243D1*
Y902243D1*
Y901243D1*
Y900243D1*
Y899243D1*
Y898243D1*
Y897243D1*
Y896243D1*
Y895243D1*
Y894243D1*
Y893243D1*
Y892243D1*
Y891243D1*
Y890243D1*
Y889243D1*
Y888243D1*
Y887243D1*
Y886243D1*
Y885243D1*
Y884243D1*
Y883243D1*
Y882243D1*
Y881243D1*
Y880243D1*
Y879243D1*
Y878243D1*
Y877243D1*
Y876243D1*
Y875243D1*
Y874243D1*
Y873243D1*
Y872243D1*
Y871243D1*
Y870243D1*
Y869243D1*
Y868243D1*
Y867243D1*
Y866243D1*
Y865243D1*
Y864243D1*
Y863243D1*
Y862243D1*
Y861243D1*
X1542016Y923243D2*
Y922243D1*
Y921243D1*
Y920243D1*
Y919243D1*
Y918243D1*
Y917243D1*
Y916243D1*
Y915243D1*
Y914243D1*
Y913243D1*
Y912243D1*
Y911243D1*
Y910243D1*
Y909243D1*
Y908243D1*
Y907243D1*
Y906243D1*
Y905243D1*
Y904243D1*
Y903243D1*
Y902243D1*
Y901243D1*
Y900243D1*
Y899243D1*
Y898243D1*
Y897243D1*
Y896243D1*
Y895243D1*
Y894243D1*
Y893243D1*
Y892243D1*
Y891243D1*
Y890243D1*
Y889243D1*
Y888243D1*
Y887243D1*
Y886243D1*
Y885243D1*
Y884243D1*
Y883243D1*
Y882243D1*
Y881243D1*
Y880243D1*
Y879243D1*
Y878243D1*
Y877243D1*
Y876243D1*
Y875243D1*
Y874243D1*
Y873243D1*
Y872243D1*
Y871243D1*
X1446016Y907243D2*
X1446012Y906243D1*
X1445977Y905243D1*
X1445849Y904243D1*
X1445606Y903243D1*
X1445315Y902243D1*
X1445013Y901243D1*
X1444680Y900243D1*
X1444378Y899243D1*
X1444151Y898243D1*
X1443924Y897243D1*
X1443635Y896243D1*
X1443325Y895243D1*
X1443017Y894243D1*
X1442682Y893243D1*
X1442378Y892243D1*
X1442151Y891243D1*
X1441924Y890243D1*
X1441635Y889243D1*
X1441325Y888243D1*
X1441017Y887243D1*
X1440682Y886243D1*
X1440379Y885243D1*
X1440171Y884243D1*
X1440016Y883243D1*
X1448016Y907243D2*
X1448054Y906243D1*
X1448182Y905243D1*
X1448426Y904243D1*
X1448717Y903243D1*
X1449019Y902243D1*
X1449352Y901243D1*
X1449654Y900243D1*
X1449881Y899243D1*
X1450108Y898243D1*
X1450397Y897243D1*
X1450707Y896243D1*
X1451015Y895243D1*
X1451350Y894243D1*
X1451654Y893243D1*
X1451881Y892243D1*
X1452108Y891243D1*
X1452393Y890243D1*
X1452671Y889243D1*
X1452888Y888243D1*
X1453111Y887243D1*
X1453394Y886243D1*
X1453670Y885243D1*
X1453867Y884243D1*
X1454016Y883243D1*
X1438016Y873243D2*
X1437213Y872243D1*
X1436624Y871243D1*
X1436254Y870243D1*
X1435964Y869243D1*
X1435650Y868243D1*
X1435331Y867243D1*
X1435018Y866243D1*
X1434678Y865243D1*
X1434340Y864243D1*
X1433993Y863243D1*
X1433546Y862243D1*
X1433016Y861243D1*
X1458016Y873243D2*
X1458020Y872243D1*
X1458055Y871243D1*
X1458183Y870243D1*
X1458426Y869243D1*
X1458717Y868243D1*
X1459019Y867243D1*
X1459355Y866243D1*
X1459689Y865243D1*
X1460010Y864243D1*
X1460357Y863243D1*
X1460701Y862243D1*
X1461016Y861243D1*
X1521016Y871243D2*
Y870243D1*
Y869243D1*
Y868243D1*
Y867243D1*
Y866243D1*
Y865243D1*
Y864243D1*
Y863243D1*
Y862243D1*
Y861243D1*
X1569016Y871243D2*
Y870243D1*
Y869243D1*
Y868243D1*
Y867243D1*
Y866243D1*
Y865243D1*
Y864243D1*
Y863243D1*
Y862243D1*
Y861243D1*
X3599017Y923243D2*
Y922243D1*
Y921243D1*
Y920243D1*
Y919243D1*
Y918243D1*
Y917243D1*
Y916243D1*
Y915243D1*
Y914243D1*
Y913243D1*
Y912243D1*
Y911243D1*
Y910243D1*
Y909243D1*
Y908243D1*
Y907243D1*
Y906243D1*
Y905243D1*
Y904243D1*
Y903243D1*
Y902243D1*
Y901243D1*
Y900243D1*
Y899243D1*
Y898243D1*
Y897243D1*
Y896243D1*
Y895243D1*
Y894243D1*
Y893243D1*
Y892243D1*
Y891243D1*
Y890243D1*
Y889243D1*
Y888243D1*
Y887243D1*
Y886243D1*
Y885243D1*
Y884243D1*
Y883243D1*
Y882243D1*
Y881243D1*
Y880243D1*
Y879243D1*
Y878243D1*
Y877243D1*
Y876243D1*
Y875243D1*
Y874243D1*
Y873243D1*
Y872243D1*
Y871243D1*
Y870243D1*
Y869243D1*
Y868243D1*
Y867243D1*
Y866243D1*
Y865243D1*
Y864243D1*
Y863243D1*
Y862243D1*
Y861243D1*
X3618017Y923243D2*
X3618172Y922243D1*
X3618420Y921243D1*
X3618683Y920243D1*
X3618893Y919243D1*
X3619113Y918243D1*
X3619399Y917243D1*
X3619708Y916243D1*
X3620017Y915243D1*
X3620355Y914243D1*
X3620690Y913243D1*
X3621010Y912243D1*
X3621353Y911243D1*
X3621689Y910243D1*
X3622010Y909243D1*
X3622353Y908243D1*
X3622689Y907243D1*
X3623010Y906243D1*
X3623353Y905243D1*
X3623689Y904243D1*
X3624010Y903243D1*
X3624349Y902243D1*
X3624654Y901243D1*
X3624882Y900243D1*
X3625109Y899243D1*
X3625398Y898243D1*
X3625708Y897243D1*
X3626017Y896243D1*
X3626355Y895243D1*
X3626690Y894243D1*
X3627010Y893243D1*
X3627353Y892243D1*
X3627689Y891243D1*
X3628010Y890243D1*
X3628353Y889243D1*
X3628689Y888243D1*
X3629010Y887243D1*
X3629353Y886243D1*
X3629689Y885243D1*
X3630010Y884243D1*
X3630353Y883243D1*
X3630692Y882243D1*
X3631041Y881243D1*
X3631488Y880243D1*
X3632017Y879243D1*
X3647017Y923243D2*
X3646518Y922243D1*
X3646102Y921243D1*
X3645713Y920243D1*
X3645357Y919243D1*
X3645029Y918243D1*
X3644683Y917243D1*
X3644346Y916243D1*
X3644025Y915243D1*
X3643682Y914243D1*
X3643345Y913243D1*
X3643025Y912243D1*
X3642682Y911243D1*
X3642345Y910243D1*
X3642025Y909243D1*
X3641682Y908243D1*
X3641345Y907243D1*
X3641025Y906243D1*
X3640682Y905243D1*
X3640345Y904243D1*
X3640025Y903243D1*
X3639682Y902243D1*
X3639345Y901243D1*
X3639025Y900243D1*
X3638686Y899243D1*
X3638380Y898243D1*
X3638152Y897243D1*
X3637925Y896243D1*
X3637637Y895243D1*
X3637327Y894243D1*
X3637018Y893243D1*
X3636679Y892243D1*
X3636344Y891243D1*
X3636025Y890243D1*
X3635682Y889243D1*
X3635345Y888243D1*
X3635025Y887243D1*
X3634682Y886243D1*
X3634345Y885243D1*
X3634025Y884243D1*
X3633682Y883243D1*
X3633342Y882243D1*
X3632994Y881243D1*
X3632547Y880243D1*
X3632017Y879243D1*
X3665017Y923243D2*
Y922243D1*
Y921243D1*
Y920243D1*
Y919243D1*
Y918243D1*
Y917243D1*
Y916243D1*
Y915243D1*
Y914243D1*
Y913243D1*
Y912243D1*
Y911243D1*
Y910243D1*
Y909243D1*
Y908243D1*
Y907243D1*
Y906243D1*
Y905243D1*
Y904243D1*
Y903243D1*
Y902243D1*
Y901243D1*
Y900243D1*
Y899243D1*
Y898243D1*
Y897243D1*
Y896243D1*
Y895243D1*
Y894243D1*
Y893243D1*
Y892243D1*
Y891243D1*
Y890243D1*
Y889243D1*
Y888243D1*
Y887243D1*
Y886243D1*
Y885243D1*
Y884243D1*
Y883243D1*
Y882243D1*
Y881243D1*
Y880243D1*
Y879243D1*
Y878243D1*
Y877243D1*
Y876243D1*
Y875243D1*
Y874243D1*
Y873243D1*
Y872243D1*
Y871243D1*
Y870243D1*
Y869243D1*
Y868243D1*
Y867243D1*
Y866243D1*
Y865243D1*
Y864243D1*
Y863243D1*
Y862243D1*
Y861243D1*
X3695017Y923243D2*
X3691790Y922243D1*
X3689050Y921243D1*
X3686849Y920243D1*
X3685045Y919243D1*
X3683529Y918243D1*
X3682250Y917243D1*
X3681151Y916243D1*
X3680220Y915243D1*
X3679440Y914243D1*
X3678723Y913243D1*
X3678026Y912243D1*
X3677392Y911243D1*
X3676822Y910243D1*
X3676293Y909243D1*
X3675811Y908243D1*
X3675401Y907243D1*
X3675047Y906243D1*
X3674694Y905243D1*
X3674387Y904243D1*
X3674192Y903243D1*
X3674092Y902243D1*
X3674047Y901243D1*
X3674028Y900243D1*
X3674021Y899243D1*
X3674019Y898243D1*
X3674018Y897243D1*
X3674017Y896243D1*
Y895243D1*
Y894243D1*
Y893243D1*
Y892243D1*
Y891243D1*
Y890243D1*
Y889243D1*
Y888243D1*
Y887243D1*
Y886243D1*
Y885243D1*
Y884243D1*
Y883243D1*
X3674021Y882243D1*
X3674056Y881243D1*
X3674184Y880243D1*
X3674427Y879243D1*
X3674719Y878243D1*
X3675025Y877243D1*
X3675392Y876243D1*
X3675822Y875243D1*
X3676293Y874243D1*
X3676811Y873243D1*
X3677401Y872243D1*
X3678047Y871243D1*
X3678694Y870243D1*
X3679387Y869243D1*
X3680196Y868243D1*
X3681131Y867243D1*
X3682217Y866243D1*
X3683481Y865243D1*
X3684936Y864243D1*
X3686680Y863243D1*
X3688836Y862243D1*
X3691348Y861243D1*
X3694017Y860243D1*
X3705017Y923243D2*
X3708240Y922243D1*
X3710949Y921243D1*
X3713058Y920243D1*
X3714750Y919243D1*
X3716249Y918243D1*
X3717610Y917243D1*
X3718791Y916243D1*
X3719772Y915243D1*
X3720577Y914243D1*
X3721304Y913243D1*
X3722006Y912243D1*
X3722637Y911243D1*
X3723177Y910243D1*
X3723614Y909243D1*
X3723980Y908243D1*
X3724342Y907243D1*
X3724685Y906243D1*
X3725008Y905243D1*
X3725349Y904243D1*
X3725650Y903243D1*
X3725843Y902243D1*
X3725943Y901243D1*
X3725988Y900243D1*
X3726006Y899243D1*
X3726013Y898243D1*
X3726016Y897243D1*
X3726017Y896243D1*
Y895243D1*
Y894243D1*
Y893243D1*
Y892243D1*
Y891243D1*
Y890243D1*
Y889243D1*
Y888243D1*
Y887243D1*
Y886243D1*
Y885243D1*
Y884243D1*
X3726013Y883243D1*
X3725978Y882243D1*
X3725851Y881243D1*
X3725607Y880243D1*
X3725316Y879243D1*
X3725014Y878243D1*
X3724678Y877243D1*
X3724344Y876243D1*
X3724021Y875243D1*
X3723643Y874243D1*
X3723179Y873243D1*
X3722615Y872243D1*
X3721980Y871243D1*
X3721338Y870243D1*
X3720646Y869243D1*
X3719838Y868243D1*
X3718903Y867243D1*
X3717817Y866243D1*
X3716553Y865243D1*
X3715095Y864243D1*
X3713313Y863243D1*
X3711002Y862243D1*
X3708148Y861243D1*
X3705017Y860243D1*
X3731017Y923243D2*
Y922243D1*
Y921243D1*
Y920243D1*
Y919243D1*
Y918243D1*
Y917243D1*
Y916243D1*
Y915243D1*
Y914243D1*
Y913243D1*
X3778017Y923243D2*
Y922243D1*
Y921243D1*
Y920243D1*
Y919243D1*
Y918243D1*
Y917243D1*
Y916243D1*
Y915243D1*
Y914243D1*
Y913243D1*
X3805017Y923243D2*
X3801790Y922243D1*
X3799050Y921243D1*
X3796849Y920243D1*
X3795045Y919243D1*
X3793529Y918243D1*
X3792250Y917243D1*
X3791151Y916243D1*
X3790220Y915243D1*
X3789440Y914243D1*
X3788723Y913243D1*
X3788026Y912243D1*
X3787392Y911243D1*
X3786822Y910243D1*
X3786293Y909243D1*
X3785811Y908243D1*
X3785401Y907243D1*
X3785047Y906243D1*
X3784694Y905243D1*
X3784387Y904243D1*
X3784192Y903243D1*
X3784092Y902243D1*
X3784047Y901243D1*
X3784028Y900243D1*
X3784021Y899243D1*
X3784019Y898243D1*
X3784018Y897243D1*
X3784017Y896243D1*
Y895243D1*
Y894243D1*
Y893243D1*
Y892243D1*
Y891243D1*
Y890243D1*
Y889243D1*
Y888243D1*
Y887243D1*
Y886243D1*
Y885243D1*
Y884243D1*
Y883243D1*
X3784021Y882243D1*
X3784056Y881243D1*
X3784184Y880243D1*
X3784427Y879243D1*
X3784719Y878243D1*
X3785025Y877243D1*
X3785392Y876243D1*
X3785822Y875243D1*
X3786293Y874243D1*
X3786811Y873243D1*
X3787401Y872243D1*
X3788047Y871243D1*
X3788694Y870243D1*
X3789387Y869243D1*
X3790196Y868243D1*
X3791131Y867243D1*
X3792217Y866243D1*
X3793481Y865243D1*
X3794936Y864243D1*
X3796680Y863243D1*
X3798836Y862243D1*
X3801348Y861243D1*
X3804017Y860243D1*
X3815017Y923243D2*
X3818240Y922243D1*
X3820949Y921243D1*
X3823058Y920243D1*
X3824750Y919243D1*
X3826249Y918243D1*
X3827610Y917243D1*
X3828791Y916243D1*
X3829772Y915243D1*
X3830577Y914243D1*
X3831304Y913243D1*
X3832006Y912243D1*
X3832637Y911243D1*
X3833177Y910243D1*
X3833614Y909243D1*
X3833980Y908243D1*
X3834342Y907243D1*
X3834685Y906243D1*
X3835008Y905243D1*
X3835349Y904243D1*
X3835650Y903243D1*
X3835843Y902243D1*
X3835943Y901243D1*
X3835988Y900243D1*
X3836006Y899243D1*
X3836013Y898243D1*
X3836016Y897243D1*
X3836017Y896243D1*
Y895243D1*
Y894243D1*
Y893243D1*
Y892243D1*
Y891243D1*
Y890243D1*
Y889243D1*
Y888243D1*
Y887243D1*
Y886243D1*
Y885243D1*
Y884243D1*
X3836013Y883243D1*
X3835978Y882243D1*
X3835851Y881243D1*
X3835607Y880243D1*
X3835316Y879243D1*
X3835014Y878243D1*
X3834678Y877243D1*
X3834344Y876243D1*
X3834021Y875243D1*
X3833643Y874243D1*
X3833179Y873243D1*
X3832615Y872243D1*
X3831980Y871243D1*
X3831338Y870243D1*
X3830646Y869243D1*
X3829838Y868243D1*
X3828903Y867243D1*
X3827817Y866243D1*
X3826553Y865243D1*
X3825095Y864243D1*
X3823313Y863243D1*
X3821002Y862243D1*
X3818148Y861243D1*
X3815017Y860243D1*
X3845017Y923243D2*
Y922243D1*
Y921243D1*
Y920243D1*
Y919243D1*
Y918243D1*
Y917243D1*
Y916243D1*
Y915243D1*
Y914243D1*
Y913243D1*
Y912243D1*
Y911243D1*
Y910243D1*
Y909243D1*
Y908243D1*
Y907243D1*
Y906243D1*
Y905243D1*
Y904243D1*
Y903243D1*
Y902243D1*
Y901243D1*
Y900243D1*
Y899243D1*
Y898243D1*
Y897243D1*
Y896243D1*
Y895243D1*
Y894243D1*
Y893243D1*
Y892243D1*
Y891243D1*
Y890243D1*
Y889243D1*
Y888243D1*
Y887243D1*
Y886243D1*
Y885243D1*
Y884243D1*
Y883243D1*
Y882243D1*
Y881243D1*
Y880243D1*
Y879243D1*
Y878243D1*
Y877243D1*
Y876243D1*
Y875243D1*
Y874243D1*
Y873243D1*
Y872243D1*
Y871243D1*
Y870243D1*
Y869243D1*
Y868243D1*
Y867243D1*
Y866243D1*
Y865243D1*
Y864243D1*
Y863243D1*
Y862243D1*
Y861243D1*
X3875017Y923243D2*
X3877937Y922243D1*
X3880472Y921243D1*
X3882596Y920243D1*
X3884319Y919243D1*
X3885709Y918243D1*
X3886888Y917243D1*
X3887930Y916243D1*
X3888829Y915243D1*
X3889562Y914243D1*
X3890143Y913243D1*
X3890568Y912243D1*
X3890849Y911243D1*
X3891097Y910243D1*
X3891390Y909243D1*
X3891667Y908243D1*
X3891850Y907243D1*
X3891945Y906243D1*
X3891989Y905243D1*
X3892003Y904243D1*
X3891974Y903243D1*
X3891850Y902243D1*
X3891607Y901243D1*
X3891312Y900243D1*
X3890975Y899243D1*
X3890511Y898243D1*
X3889934Y897243D1*
X3889315Y896243D1*
X3888596Y895243D1*
X3887638Y894243D1*
X3886410Y893243D1*
X3885104Y892243D1*
X3883978Y891243D1*
X3883017Y890243D1*
X3884821Y889243D1*
X3886406Y888243D1*
X3887737Y887243D1*
X3888864Y886243D1*
X3889803Y885243D1*
X3890552Y884243D1*
X3891140Y883243D1*
X3891567Y882243D1*
X3891848Y881243D1*
X3892097Y880243D1*
X3892390Y879243D1*
X3892667Y878243D1*
X3892850Y877243D1*
X3892945Y876243D1*
X3892989Y875243D1*
X3893007Y874243D1*
X3893014Y873243D1*
X3893016Y872243D1*
X3893017Y871243D1*
Y870243D1*
X3893021Y869243D1*
X3893056Y868243D1*
X3893184Y867243D1*
X3893427Y866243D1*
X3893723Y865243D1*
X3894063Y864243D1*
X3894559Y863243D1*
X3895242Y862243D1*
X3896017Y861243D1*
X3698017Y913243D2*
X3696059Y912243D1*
X3694230Y911243D1*
X3692672Y910243D1*
X3691466Y909243D1*
X3690577Y908243D1*
X3689894Y907243D1*
X3689319Y906243D1*
X3688824Y905243D1*
X3688443Y904243D1*
X3688211Y903243D1*
X3688061Y902243D1*
X3687883Y901243D1*
X3687623Y900243D1*
X3687359Y899243D1*
X3687182Y898243D1*
X3687088Y897243D1*
X3687046Y896243D1*
X3687028Y895243D1*
X3687021Y894243D1*
X3687019Y893243D1*
X3687018Y892243D1*
X3687017Y891243D1*
Y890243D1*
Y889243D1*
Y888243D1*
X3687021Y887243D1*
X3687056Y886243D1*
X3687184Y885243D1*
X3687423Y884243D1*
X3687680Y883243D1*
X3687858Y882243D1*
X3687986Y881243D1*
X3688160Y880243D1*
X3688452Y879243D1*
X3688846Y878243D1*
X3689302Y877243D1*
X3689822Y876243D1*
X3690484Y875243D1*
X3691451Y874243D1*
X3693010Y873243D1*
X3695702Y872243D1*
X3699903Y871243D1*
X3705017Y870243D1*
X3702017Y913243D2*
X3703971Y912243D1*
X3705769Y911243D1*
X3707235Y910243D1*
X3708330Y909243D1*
X3709197Y908243D1*
X3709931Y907243D1*
X3710495Y906243D1*
X3710928Y905243D1*
X3711317Y904243D1*
X3711639Y903243D1*
X3711839Y902243D1*
X3711942Y901243D1*
X3711987Y900243D1*
X3712006Y899243D1*
X3712013Y898243D1*
X3712016Y897243D1*
X3712017Y896243D1*
Y895243D1*
Y894243D1*
Y893243D1*
Y892243D1*
Y891243D1*
Y890243D1*
Y889243D1*
Y888243D1*
Y887243D1*
Y886243D1*
Y885243D1*
Y884243D1*
X3712013Y883243D1*
X3711978Y882243D1*
X3711851Y881243D1*
X3711607Y880243D1*
X3711312Y879243D1*
X3710975Y878243D1*
X3710511Y877243D1*
X3709930Y876243D1*
X3709276Y875243D1*
X3708402Y874243D1*
X3707246Y873243D1*
X3704368Y872243D1*
X3700135Y871243D1*
X3695017Y870243D1*
X3748017Y913243D2*
Y912243D1*
Y911243D1*
Y910243D1*
Y909243D1*
Y908243D1*
Y907243D1*
Y906243D1*
Y905243D1*
Y904243D1*
Y903243D1*
Y902243D1*
Y901243D1*
Y900243D1*
Y899243D1*
Y898243D1*
Y897243D1*
Y896243D1*
Y895243D1*
Y894243D1*
Y893243D1*
Y892243D1*
Y891243D1*
Y890243D1*
Y889243D1*
Y888243D1*
Y887243D1*
Y886243D1*
Y885243D1*
Y884243D1*
Y883243D1*
Y882243D1*
Y881243D1*
Y880243D1*
Y879243D1*
Y878243D1*
Y877243D1*
Y876243D1*
Y875243D1*
Y874243D1*
Y873243D1*
Y872243D1*
Y871243D1*
Y870243D1*
Y869243D1*
Y868243D1*
Y867243D1*
Y866243D1*
Y865243D1*
Y864243D1*
Y863243D1*
Y862243D1*
Y861243D1*
X3761017Y913243D2*
Y912243D1*
Y911243D1*
Y910243D1*
Y909243D1*
Y908243D1*
Y907243D1*
Y906243D1*
Y905243D1*
Y904243D1*
Y903243D1*
Y902243D1*
Y901243D1*
Y900243D1*
Y899243D1*
Y898243D1*
Y897243D1*
Y896243D1*
Y895243D1*
Y894243D1*
Y893243D1*
Y892243D1*
Y891243D1*
Y890243D1*
Y889243D1*
Y888243D1*
Y887243D1*
Y886243D1*
Y885243D1*
Y884243D1*
Y883243D1*
Y882243D1*
Y881243D1*
Y880243D1*
Y879243D1*
Y878243D1*
Y877243D1*
Y876243D1*
Y875243D1*
Y874243D1*
Y873243D1*
Y872243D1*
Y871243D1*
Y870243D1*
Y869243D1*
Y868243D1*
Y867243D1*
Y866243D1*
Y865243D1*
Y864243D1*
Y863243D1*
Y862243D1*
Y861243D1*
X3808017Y913243D2*
X3806059Y912243D1*
X3804230Y911243D1*
X3802672Y910243D1*
X3801466Y909243D1*
X3800577Y908243D1*
X3799894Y907243D1*
X3799319Y906243D1*
X3798824Y905243D1*
X3798443Y904243D1*
X3798211Y903243D1*
X3798061Y902243D1*
X3797883Y901243D1*
X3797623Y900243D1*
X3797359Y899243D1*
X3797182Y898243D1*
X3797088Y897243D1*
X3797046Y896243D1*
X3797028Y895243D1*
X3797021Y894243D1*
X3797019Y893243D1*
X3797018Y892243D1*
X3797017Y891243D1*
Y890243D1*
Y889243D1*
Y888243D1*
X3797021Y887243D1*
X3797056Y886243D1*
X3797184Y885243D1*
X3797423Y884243D1*
X3797680Y883243D1*
X3797858Y882243D1*
X3797986Y881243D1*
X3798160Y880243D1*
X3798452Y879243D1*
X3798846Y878243D1*
X3799302Y877243D1*
X3799822Y876243D1*
X3800484Y875243D1*
X3801451Y874243D1*
X3803010Y873243D1*
X3805702Y872243D1*
X3809903Y871243D1*
X3815017Y870243D1*
X3812017Y913243D2*
X3813971Y912243D1*
X3815769Y911243D1*
X3817235Y910243D1*
X3818330Y909243D1*
X3819197Y908243D1*
X3819931Y907243D1*
X3820495Y906243D1*
X3820928Y905243D1*
X3821317Y904243D1*
X3821639Y903243D1*
X3821839Y902243D1*
X3821942Y901243D1*
X3821987Y900243D1*
X3822006Y899243D1*
X3822013Y898243D1*
X3822016Y897243D1*
X3822017Y896243D1*
Y895243D1*
Y894243D1*
Y893243D1*
Y892243D1*
Y891243D1*
Y890243D1*
Y889243D1*
Y888243D1*
Y887243D1*
Y886243D1*
Y885243D1*
Y884243D1*
X3822013Y883243D1*
X3821978Y882243D1*
X3821851Y881243D1*
X3821607Y880243D1*
X3821312Y879243D1*
X3820975Y878243D1*
X3820511Y877243D1*
X3819930Y876243D1*
X3819276Y875243D1*
X3818402Y874243D1*
X3817246Y873243D1*
X3814368Y872243D1*
X3810135Y871243D1*
X3805017Y870243D1*
X3859017Y913243D2*
Y912243D1*
Y911243D1*
Y910243D1*
Y909243D1*
Y908243D1*
Y907243D1*
Y906243D1*
Y905243D1*
Y904243D1*
Y903243D1*
Y902243D1*
Y901243D1*
Y900243D1*
Y899243D1*
Y898243D1*
Y897243D1*
Y896243D1*
Y895243D1*
X3871017Y913243D2*
X3872817Y912243D1*
X3874367Y911243D1*
X3875570Y910243D1*
X3876454Y909243D1*
X3877101Y908243D1*
X3877549Y907243D1*
X3877804Y906243D1*
X3877929Y905243D1*
X3877983Y904243D1*
X3878001Y903243D1*
X3877970Y902243D1*
X3877806Y901243D1*
X3877397Y900243D1*
X3876696Y899243D1*
X3875693Y898243D1*
X3874361Y897243D1*
X3872751Y896243D1*
X3871017Y895243D1*
X3652017Y904243D2*
X3651017Y903243D1*
X3652017Y904243D2*
X3653017Y903243D1*
X3612017D2*
Y902243D1*
Y901243D1*
Y900243D1*
Y899243D1*
Y898243D1*
Y897243D1*
Y896243D1*
Y895243D1*
Y894243D1*
Y893243D1*
Y892243D1*
Y891243D1*
Y890243D1*
Y889243D1*
X3612021Y888243D1*
X3612056Y887243D1*
X3612184Y886243D1*
X3612423Y885243D1*
X3612680Y884243D1*
X3612854Y883243D1*
X3612947Y882243D1*
X3612989Y881243D1*
X3613007Y880243D1*
X3613014Y879243D1*
X3613016Y878243D1*
X3613017Y877243D1*
Y876243D1*
Y875243D1*
Y874243D1*
Y873243D1*
Y872243D1*
Y871243D1*
Y870243D1*
Y869243D1*
Y868243D1*
Y867243D1*
Y866243D1*
Y865243D1*
Y864243D1*
Y863243D1*
Y862243D1*
Y861243D1*
X3614017Y903243D2*
X3614055Y902243D1*
X3614184Y901243D1*
X3614427Y900243D1*
X3614719Y899243D1*
X3615021Y898243D1*
X3615357Y897243D1*
X3615691Y896243D1*
X3616010Y895243D1*
X3616353Y894243D1*
X3616689Y893243D1*
X3617010Y892243D1*
X3617353Y891243D1*
X3617689Y890243D1*
X3618010Y889243D1*
X3618353Y888243D1*
X3618689Y887243D1*
X3619010Y886243D1*
X3619353Y885243D1*
X3619689Y884243D1*
X3620010Y883243D1*
X3620353Y882243D1*
X3620689Y881243D1*
X3621010Y880243D1*
X3621353Y879243D1*
X3621689Y878243D1*
X3622010Y877243D1*
X3622353Y876243D1*
X3622689Y875243D1*
X3623010Y874243D1*
X3623353Y873243D1*
X3623689Y872243D1*
X3624010Y871243D1*
X3624353Y870243D1*
X3624689Y869243D1*
X3625010Y868243D1*
X3625353Y867243D1*
X3625689Y866243D1*
X3626010Y865243D1*
X3626349Y864243D1*
X3626653Y863243D1*
X3626862Y862243D1*
X3627017Y861243D1*
X3650017Y902243D2*
X3649979Y901243D1*
X3649847Y900243D1*
X3649572Y899243D1*
X3649188Y898243D1*
X3648771Y897243D1*
X3648386Y896243D1*
X3648042Y895243D1*
X3647688Y894243D1*
X3647348Y893243D1*
X3647026Y892243D1*
X3646682Y891243D1*
X3646345Y890243D1*
X3646025Y889243D1*
X3645682Y888243D1*
X3645345Y887243D1*
X3645025Y886243D1*
X3644682Y885243D1*
X3644345Y884243D1*
X3644025Y883243D1*
X3643682Y882243D1*
X3643345Y881243D1*
X3643025Y880243D1*
X3642682Y879243D1*
X3642345Y878243D1*
X3642025Y877243D1*
X3641682Y876243D1*
X3641345Y875243D1*
X3641025Y874243D1*
X3640682Y873243D1*
X3640345Y872243D1*
X3640025Y871243D1*
X3639682Y870243D1*
X3639345Y869243D1*
X3639025Y868243D1*
X3638682Y867243D1*
X3638345Y866243D1*
X3638025Y865243D1*
X3637685Y864243D1*
X3637382Y863243D1*
X3637173Y862243D1*
X3637017Y861243D1*
X3652017Y902243D2*
Y901243D1*
Y900243D1*
Y899243D1*
Y898243D1*
Y897243D1*
Y896243D1*
Y895243D1*
Y894243D1*
Y893243D1*
Y892243D1*
Y891243D1*
Y890243D1*
Y889243D1*
Y888243D1*
Y887243D1*
Y886243D1*
X3652013Y885243D1*
X3651978Y884243D1*
X3651851Y883243D1*
X3651611Y882243D1*
X3651355Y881243D1*
X3651181Y880243D1*
X3651088Y879243D1*
X3651045Y878243D1*
X3651028Y877243D1*
X3651021Y876243D1*
X3651019Y875243D1*
X3651018Y874243D1*
X3651017Y873243D1*
Y872243D1*
Y871243D1*
Y870243D1*
Y869243D1*
Y868243D1*
Y867243D1*
Y866243D1*
Y865243D1*
Y864243D1*
Y863243D1*
Y862243D1*
Y861243D1*
X3859017Y885243D2*
Y884243D1*
Y883243D1*
Y882243D1*
Y881243D1*
Y880243D1*
Y879243D1*
Y878243D1*
Y877243D1*
Y876243D1*
Y875243D1*
Y874243D1*
Y873243D1*
Y872243D1*
Y871243D1*
Y870243D1*
Y869243D1*
Y868243D1*
Y867243D1*
Y866243D1*
Y865243D1*
Y864243D1*
Y863243D1*
Y862243D1*
Y861243D1*
X3870017Y885243D2*
X3872620Y884243D1*
X3874755Y883243D1*
X3876293Y882243D1*
X3877340Y881243D1*
X3878057Y880243D1*
X3878533Y879243D1*
X3878799Y878243D1*
X3878927Y877243D1*
X3878982Y876243D1*
X3879004Y875243D1*
X3879013Y874243D1*
X3879016Y873243D1*
X3879017Y872243D1*
Y871243D1*
Y870243D1*
X3879021Y869243D1*
X3879056Y868243D1*
X3879184Y867243D1*
X3879427Y866243D1*
X3879719Y865243D1*
X3880021Y864243D1*
X3880362Y863243D1*
X3880704Y862243D1*
X3881017Y861243D1*
X2715470Y1669061D2*
Y1668561D1*
Y1668061D1*
Y1667561D1*
Y1667061D1*
Y1666561D1*
Y1666061D1*
Y1665561D1*
Y1665061D1*
Y1664561D1*
Y1664061D1*
Y1663561D1*
Y1663061D1*
Y1662561D1*
Y1662061D1*
Y1661561D1*
Y1661061D1*
Y1660561D1*
Y1660061D1*
Y1659561D1*
Y1659061D1*
Y1658561D1*
Y1658061D1*
Y1657561D1*
Y1657061D1*
Y1656561D1*
Y1656061D1*
Y1655561D1*
Y1655061D1*
Y1654561D1*
Y1654061D1*
Y1653561D1*
Y1653061D1*
Y1652561D1*
Y1652061D1*
Y1651561D1*
Y1651061D1*
Y1650561D1*
Y1650061D1*
Y1649561D1*
Y1649061D1*
Y1648561D1*
Y1648061D1*
Y1647561D1*
Y1647061D1*
Y1646561D1*
Y1646061D1*
Y1645561D1*
Y1645061D1*
Y1644561D1*
Y1644061D1*
Y1643561D1*
Y1643061D1*
Y1642561D1*
Y1642061D1*
Y1641561D1*
Y1641061D1*
Y1640561D1*
Y1640061D1*
Y1639561D1*
Y1639061D1*
Y1638561D1*
Y1638061D1*
X2730970Y1669061D2*
X2732430Y1668561D1*
X2733697Y1668061D1*
X2734759Y1667561D1*
X2735621Y1667061D1*
X2736316Y1666561D1*
X2736905Y1666061D1*
X2737427Y1665561D1*
X2737876Y1665061D1*
X2738244Y1664561D1*
X2738553Y1664061D1*
X2738827Y1663561D1*
X2739071Y1663061D1*
X2739277Y1662561D1*
X2739455Y1662061D1*
X2739632Y1661561D1*
X2739785Y1661061D1*
X2739882Y1660561D1*
X2739933Y1660061D1*
X2739955Y1659561D1*
X2739965Y1659061D1*
X2739966Y1658561D1*
X2739950Y1658061D1*
X2739887Y1657561D1*
X2739765Y1657061D1*
X2739619Y1656561D1*
X2739466Y1656061D1*
X2739283Y1655561D1*
X2739068Y1655061D1*
X2738832Y1654561D1*
X2738571Y1654061D1*
X2738259Y1653561D1*
X2737872Y1653061D1*
X2737427Y1652561D1*
X2736932Y1652061D1*
X2736359Y1651561D1*
X2735656Y1651061D1*
X2734788Y1650561D1*
X2733716Y1650061D1*
X2732411Y1649561D1*
X2730970Y1649061D1*
X2753470Y1669061D2*
X2752028Y1668561D1*
X2750806Y1668061D1*
X2749800Y1667561D1*
X2748947Y1667061D1*
X2748213Y1666561D1*
X2747599Y1666061D1*
X2747098Y1665561D1*
X2746692Y1665061D1*
X2746327Y1664561D1*
X2745976Y1664061D1*
X2745658Y1663561D1*
X2745373Y1663061D1*
X2745108Y1662561D1*
X2744867Y1662061D1*
X2744662Y1661561D1*
X2744485Y1661061D1*
X2744308Y1660561D1*
X2744155Y1660061D1*
X2744058Y1659561D1*
X2744007Y1659061D1*
X2743985Y1658561D1*
X2743976Y1658061D1*
X2743972Y1657561D1*
X2743971Y1657061D1*
X2743970Y1656561D1*
Y1656061D1*
Y1655561D1*
Y1655061D1*
Y1654561D1*
Y1654061D1*
Y1653561D1*
Y1653061D1*
Y1652561D1*
Y1652061D1*
Y1651561D1*
Y1651061D1*
Y1650561D1*
Y1650061D1*
Y1649561D1*
Y1649061D1*
Y1648561D1*
X2743972Y1648061D1*
X2743990Y1647561D1*
X2744053Y1647061D1*
X2744175Y1646561D1*
X2744321Y1646061D1*
X2744474Y1645561D1*
X2744657Y1645061D1*
X2744872Y1644561D1*
X2745108Y1644061D1*
X2745369Y1643561D1*
X2745682Y1643061D1*
X2746068Y1642561D1*
X2746511Y1642061D1*
X2746986Y1641561D1*
X2747478Y1641061D1*
X2747994Y1640561D1*
X2748576Y1640061D1*
X2749282Y1639561D1*
X2750151Y1639061D1*
X2751224Y1638561D1*
X2752529Y1638061D1*
X2753970Y1637561D1*
X2758970Y1669061D2*
X2760584Y1668561D1*
X2761954Y1668061D1*
X2763054Y1667561D1*
X2763954Y1667061D1*
X2764695Y1666561D1*
X2765272Y1666061D1*
X2765718Y1665561D1*
X2766101Y1665061D1*
X2766460Y1664561D1*
X2766780Y1664061D1*
X2767067Y1663561D1*
X2767332Y1663061D1*
X2767571Y1662561D1*
X2767761Y1662061D1*
X2767891Y1661561D1*
X2768012Y1661061D1*
X2768157Y1660561D1*
X2768295Y1660061D1*
X2768386Y1659561D1*
X2768434Y1659061D1*
X2768457Y1658561D1*
X2768470Y1658061D1*
X2773470Y1669061D2*
Y1668561D1*
Y1668061D1*
Y1667561D1*
Y1667061D1*
Y1666561D1*
Y1666061D1*
Y1665561D1*
Y1665061D1*
Y1664561D1*
Y1664061D1*
Y1663561D1*
Y1663061D1*
Y1662561D1*
Y1662061D1*
Y1661561D1*
Y1661061D1*
Y1660561D1*
Y1660061D1*
Y1659561D1*
Y1659061D1*
Y1658561D1*
Y1658061D1*
Y1657561D1*
Y1657061D1*
Y1656561D1*
Y1656061D1*
Y1655561D1*
Y1655061D1*
Y1654561D1*
Y1654061D1*
Y1653561D1*
Y1653061D1*
Y1652561D1*
Y1652061D1*
Y1651561D1*
Y1651061D1*
Y1650561D1*
Y1650061D1*
Y1649561D1*
Y1649061D1*
Y1648561D1*
Y1648061D1*
Y1647561D1*
Y1647061D1*
Y1646561D1*
Y1646061D1*
Y1645561D1*
Y1645061D1*
Y1644561D1*
Y1644061D1*
Y1643561D1*
Y1643061D1*
Y1642561D1*
Y1642061D1*
Y1641561D1*
Y1641061D1*
Y1640561D1*
Y1640061D1*
Y1639561D1*
Y1639061D1*
Y1638561D1*
Y1638061D1*
X2780470Y1669061D2*
Y1668561D1*
Y1668061D1*
Y1667561D1*
Y1667061D1*
Y1666561D1*
Y1666061D1*
Y1665561D1*
Y1665061D1*
Y1664561D1*
Y1664061D1*
Y1663561D1*
Y1663061D1*
Y1662561D1*
Y1662061D1*
Y1661561D1*
Y1661061D1*
Y1660561D1*
Y1660061D1*
Y1659561D1*
Y1659061D1*
Y1658561D1*
Y1658061D1*
Y1657561D1*
Y1657061D1*
Y1656561D1*
Y1656061D1*
Y1655561D1*
Y1655061D1*
Y1654561D1*
Y1654061D1*
Y1653561D1*
Y1653061D1*
Y1652561D1*
Y1652061D1*
Y1651561D1*
Y1651061D1*
Y1650561D1*
Y1650061D1*
Y1649561D1*
Y1649061D1*
Y1648561D1*
Y1648061D1*
Y1647561D1*
Y1647061D1*
Y1646561D1*
Y1646061D1*
Y1645561D1*
Y1645061D1*
Y1644561D1*
Y1644061D1*
Y1643561D1*
Y1643061D1*
Y1642561D1*
Y1642061D1*
Y1641561D1*
Y1641061D1*
Y1640561D1*
Y1640061D1*
Y1639561D1*
Y1639061D1*
Y1638561D1*
Y1638061D1*
X2795970Y1669061D2*
X2794357Y1668561D1*
X2792987Y1668061D1*
X2791886Y1667561D1*
X2790984Y1667061D1*
X2790226Y1666561D1*
X2789587Y1666061D1*
X2789037Y1665561D1*
X2788571Y1665061D1*
X2788182Y1664561D1*
X2787823Y1664061D1*
X2787474Y1663561D1*
X2787158Y1663061D1*
X2786873Y1662561D1*
X2786608Y1662061D1*
X2786367Y1661561D1*
X2786162Y1661061D1*
X2785985Y1660561D1*
X2785808Y1660061D1*
X2785655Y1659561D1*
X2785558Y1659061D1*
X2785507Y1658561D1*
X2785485Y1658061D1*
X2785476Y1657561D1*
X2785472Y1657061D1*
X2785471Y1656561D1*
X2785470Y1656061D1*
Y1655561D1*
Y1655061D1*
Y1654561D1*
Y1654061D1*
Y1653561D1*
Y1653061D1*
Y1652561D1*
Y1652061D1*
Y1651561D1*
Y1651061D1*
Y1650561D1*
Y1650061D1*
Y1649561D1*
Y1649061D1*
X2785472Y1648561D1*
X2785490Y1648061D1*
X2785553Y1647561D1*
X2785675Y1647061D1*
X2785821Y1646561D1*
X2785974Y1646061D1*
X2786157Y1645561D1*
X2786372Y1645061D1*
X2786608Y1644561D1*
X2786867Y1644061D1*
X2787162Y1643561D1*
X2787485Y1643061D1*
X2787808Y1642561D1*
X2788155Y1642061D1*
X2788560Y1641561D1*
X2789027Y1641061D1*
X2789570Y1640561D1*
X2790202Y1640061D1*
X2790929Y1639561D1*
X2791801Y1639061D1*
X2792879Y1638561D1*
X2794136Y1638061D1*
X2795470Y1637561D1*
X2800970Y1669061D2*
X2802582Y1668561D1*
X2803936Y1668061D1*
X2804991Y1667561D1*
X2805837Y1667061D1*
X2806586Y1666561D1*
X2807266Y1666061D1*
X2807857Y1665561D1*
X2808347Y1665061D1*
X2808750Y1664561D1*
X2809114Y1664061D1*
X2809464Y1663561D1*
X2809780Y1663061D1*
X2810050Y1662561D1*
X2810269Y1662061D1*
X2810451Y1661561D1*
X2810632Y1661061D1*
X2810804Y1660561D1*
X2810966Y1660061D1*
X2811136Y1659561D1*
X2811287Y1659061D1*
X2811383Y1658561D1*
X2811433Y1658061D1*
X2811455Y1657561D1*
X2811465Y1657061D1*
X2811468Y1656561D1*
X2811469Y1656061D1*
X2811470Y1655561D1*
Y1655061D1*
Y1654561D1*
Y1654061D1*
Y1653561D1*
Y1653061D1*
Y1652561D1*
Y1652061D1*
Y1651561D1*
Y1651061D1*
Y1650561D1*
Y1650061D1*
Y1649561D1*
X2811468Y1649061D1*
X2811451Y1648561D1*
X2811387Y1648061D1*
X2811265Y1647561D1*
X2811119Y1647061D1*
X2810968Y1646561D1*
X2810800Y1646061D1*
X2810633Y1645561D1*
X2810472Y1645061D1*
X2810283Y1644561D1*
X2810051Y1644061D1*
X2809769Y1643561D1*
X2809452Y1643061D1*
X2809130Y1642561D1*
X2808785Y1642061D1*
X2808380Y1641561D1*
X2807913Y1641061D1*
X2807370Y1640561D1*
X2806738Y1640061D1*
X2806009Y1639561D1*
X2805118Y1639061D1*
X2803962Y1638561D1*
X2802535Y1638061D1*
X2800970Y1637561D1*
X2722470Y1664061D2*
Y1663561D1*
Y1663061D1*
Y1662561D1*
Y1662061D1*
Y1661561D1*
Y1661061D1*
Y1660561D1*
Y1660061D1*
Y1659561D1*
Y1659061D1*
Y1658561D1*
Y1658061D1*
Y1657561D1*
Y1657061D1*
Y1656561D1*
Y1656061D1*
Y1655561D1*
Y1655061D1*
Y1654561D1*
Y1654061D1*
X2728970Y1664061D2*
X2729930Y1663561D1*
X2730780Y1663061D1*
X2731440Y1662561D1*
X2731915Y1662061D1*
X2732270Y1661561D1*
X2732547Y1661061D1*
X2732750Y1660561D1*
X2732869Y1660061D1*
X2732928Y1659561D1*
X2732954Y1659061D1*
X2732962Y1658561D1*
X2732946Y1658061D1*
X2732867Y1657561D1*
X2732680Y1657061D1*
X2732393Y1656561D1*
X2732011Y1656061D1*
X2731471Y1655561D1*
X2730742Y1655061D1*
X2729882Y1654561D1*
X2728970Y1654061D1*
X2755470Y1664061D2*
X2754510Y1663561D1*
X2753658Y1663061D1*
X2752983Y1662561D1*
X2752460Y1662061D1*
X2752031Y1661561D1*
X2751681Y1661061D1*
X2751400Y1660561D1*
X2751194Y1660061D1*
X2751071Y1659561D1*
X2750994Y1659061D1*
X2750904Y1658561D1*
X2750773Y1658061D1*
X2750641Y1657561D1*
X2750552Y1657061D1*
X2750506Y1656561D1*
X2750484Y1656061D1*
X2750475Y1655561D1*
X2750472Y1655061D1*
X2750471Y1654561D1*
X2750470Y1654061D1*
Y1653561D1*
Y1653061D1*
Y1652561D1*
Y1652061D1*
Y1651561D1*
Y1651061D1*
X2750472Y1650561D1*
X2750490Y1650061D1*
X2750553Y1649561D1*
X2750673Y1649061D1*
X2750803Y1648561D1*
X2750908Y1648061D1*
X2751018Y1647561D1*
X2751161Y1647061D1*
X2751318Y1646561D1*
X2751491Y1646061D1*
X2751742Y1645561D1*
X2752097Y1645061D1*
X2752559Y1644561D1*
X2753113Y1644061D1*
X2754532Y1643561D1*
X2756742Y1643061D1*
X2759470Y1642561D1*
X2757470Y1664061D2*
X2758430Y1663561D1*
X2759282Y1663061D1*
X2759957Y1662561D1*
X2760478Y1662061D1*
X2760890Y1661561D1*
X2761177Y1661061D1*
X2761357Y1660561D1*
X2761498Y1660061D1*
X2761652Y1659561D1*
X2761795Y1659061D1*
X2761895Y1658561D1*
X2761970Y1658061D1*
X2797470Y1664061D2*
X2796491Y1663561D1*
X2795577Y1663061D1*
X2794797Y1662561D1*
X2794194Y1662061D1*
X2793750Y1661561D1*
X2793409Y1661061D1*
X2793121Y1660561D1*
X2792874Y1660061D1*
X2792683Y1659561D1*
X2792567Y1659061D1*
X2792492Y1658561D1*
X2792403Y1658061D1*
X2792273Y1657561D1*
X2792141Y1657061D1*
X2792052Y1656561D1*
X2792006Y1656061D1*
X2791984Y1655561D1*
X2791975Y1655061D1*
X2791972Y1654561D1*
X2791971Y1654061D1*
X2791970Y1653561D1*
Y1653061D1*
Y1652561D1*
Y1652061D1*
Y1651561D1*
X2791972Y1651061D1*
X2791990Y1650561D1*
X2792053Y1650061D1*
X2792173Y1649561D1*
X2792301Y1649061D1*
X2792390Y1648561D1*
X2792454Y1648061D1*
X2792541Y1647561D1*
X2792687Y1647061D1*
X2792885Y1646561D1*
X2793112Y1646061D1*
X2793373Y1645561D1*
X2793704Y1645061D1*
X2794187Y1644561D1*
X2794966Y1644061D1*
X2796313Y1643561D1*
X2798413Y1643061D1*
X2800970Y1642561D1*
X2799470Y1664061D2*
X2800447Y1663561D1*
X2801346Y1663061D1*
X2802079Y1662561D1*
X2802626Y1662061D1*
X2803060Y1661561D1*
X2803427Y1661061D1*
X2803709Y1660561D1*
X2803926Y1660061D1*
X2804120Y1659561D1*
X2804281Y1659061D1*
X2804381Y1658561D1*
X2804432Y1658061D1*
X2804455Y1657561D1*
X2804465Y1657061D1*
X2804468Y1656561D1*
X2804469Y1656061D1*
X2804470Y1655561D1*
Y1655061D1*
Y1654561D1*
Y1654061D1*
Y1653561D1*
Y1653061D1*
Y1652561D1*
Y1652061D1*
Y1651561D1*
Y1651061D1*
Y1650561D1*
Y1650061D1*
Y1649561D1*
X2804468Y1649061D1*
X2804451Y1648561D1*
X2804387Y1648061D1*
X2804265Y1647561D1*
X2804117Y1647061D1*
X2803949Y1646561D1*
X2803717Y1646061D1*
X2803426Y1645561D1*
X2803099Y1645061D1*
X2802663Y1644561D1*
X2802084Y1644061D1*
X2800646Y1643561D1*
X2798529Y1643061D1*
X2795970Y1642561D1*
X2722470Y1649061D2*
Y1648561D1*
Y1648061D1*
Y1647561D1*
Y1647061D1*
Y1646561D1*
Y1646061D1*
Y1645561D1*
Y1645061D1*
Y1644561D1*
Y1644061D1*
Y1643561D1*
Y1643061D1*
Y1642561D1*
Y1642061D1*
Y1641561D1*
Y1641061D1*
Y1640561D1*
Y1640061D1*
Y1639561D1*
Y1639061D1*
Y1638561D1*
Y1638061D1*
X2761970Y1648561D2*
X2761893Y1648061D1*
X2761769Y1647561D1*
X2761637Y1647061D1*
X2761532Y1646561D1*
X2761420Y1646061D1*
X2761260Y1645561D1*
X2761037Y1645061D1*
X2760709Y1644561D1*
X2760260Y1644061D1*
X2758876Y1643561D1*
X2756686Y1643061D1*
X2753970Y1642561D1*
X2768470Y1648561D2*
Y1648061D1*
X2768468Y1647561D1*
X2768451Y1647061D1*
X2768387Y1646561D1*
X2768267Y1646061D1*
X2768137Y1645561D1*
X2768032Y1645061D1*
X2767920Y1644561D1*
X2767762Y1644061D1*
X2767559Y1643561D1*
X2767329Y1643061D1*
X2767070Y1642561D1*
X2766758Y1642061D1*
X2766372Y1641561D1*
X2765929Y1641061D1*
X2765452Y1640561D1*
X2764941Y1640061D1*
X2764340Y1639561D1*
X2763536Y1639061D1*
X2762427Y1638561D1*
X2761022Y1638061D1*
X2759470Y1637561D1*
X3021754Y1669061D2*
Y1668561D1*
Y1668061D1*
Y1667561D1*
Y1667061D1*
Y1666561D1*
Y1666061D1*
Y1665561D1*
Y1665061D1*
Y1664561D1*
Y1664061D1*
Y1663561D1*
Y1663061D1*
Y1662561D1*
Y1662061D1*
Y1661561D1*
Y1661061D1*
Y1660561D1*
Y1660061D1*
Y1659561D1*
Y1659061D1*
Y1658561D1*
Y1658061D1*
Y1657561D1*
Y1657061D1*
Y1656561D1*
Y1656061D1*
Y1655561D1*
Y1655061D1*
Y1654561D1*
Y1654061D1*
Y1653561D1*
Y1653061D1*
Y1652561D1*
Y1652061D1*
Y1651561D1*
Y1651061D1*
Y1650561D1*
Y1650061D1*
Y1649561D1*
Y1649061D1*
Y1648561D1*
Y1648061D1*
Y1647561D1*
Y1647061D1*
Y1646561D1*
Y1646061D1*
Y1645561D1*
Y1645061D1*
Y1644561D1*
Y1644061D1*
Y1643561D1*
Y1643061D1*
Y1642561D1*
Y1642061D1*
Y1641561D1*
Y1641061D1*
Y1640561D1*
Y1640061D1*
Y1639561D1*
Y1639061D1*
Y1638561D1*
Y1638061D1*
X3036754Y1669061D2*
X3038213Y1668561D1*
X3039481Y1668061D1*
X3040543Y1667561D1*
X3041404Y1667061D1*
X3042099Y1666561D1*
X3042689Y1666061D1*
X3043210Y1665561D1*
X3043660Y1665061D1*
X3044026Y1664561D1*
X3044317Y1664061D1*
X3044529Y1663561D1*
X3044669Y1663061D1*
X3044793Y1662561D1*
X3044940Y1662061D1*
X3045079Y1661561D1*
X3045170Y1661061D1*
X3045218Y1660561D1*
X3045239Y1660061D1*
X3045246Y1659561D1*
X3045232Y1659061D1*
X3045170Y1658561D1*
X3045048Y1658061D1*
X3044901Y1657561D1*
X3044732Y1657061D1*
X3044501Y1656561D1*
X3044212Y1656061D1*
X3043902Y1655561D1*
X3043543Y1655061D1*
X3043064Y1654561D1*
X3042450Y1654061D1*
X3041797Y1653561D1*
X3041234Y1653061D1*
X3040754Y1652561D1*
X3041655Y1652061D1*
X3042448Y1651561D1*
X3043113Y1651061D1*
X3043677Y1650561D1*
X3044146Y1650061D1*
X3044521Y1649561D1*
X3044815Y1649061D1*
X3045028Y1648561D1*
X3045169Y1648061D1*
X3045293Y1647561D1*
X3045440Y1647061D1*
X3045579Y1646561D1*
X3045670Y1646061D1*
X3045718Y1645561D1*
X3045739Y1645061D1*
X3045748Y1644561D1*
X3045752Y1644061D1*
X3045753Y1643561D1*
Y1643061D1*
Y1642561D1*
X3045755Y1642061D1*
X3045773Y1641561D1*
X3045837Y1641061D1*
X3045958Y1640561D1*
X3046106Y1640061D1*
X3046277Y1639561D1*
X3046524Y1639061D1*
X3046866Y1638561D1*
X3047254Y1638061D1*
X3060754Y1669061D2*
X3059140Y1668561D1*
X3057770Y1668061D1*
X3056669Y1667561D1*
X3055767Y1667061D1*
X3055009Y1666561D1*
X3054370Y1666061D1*
X3053820Y1665561D1*
X3053355Y1665061D1*
X3052965Y1664561D1*
X3052607Y1664061D1*
X3052258Y1663561D1*
X3051941Y1663061D1*
X3051656Y1662561D1*
X3051391Y1662061D1*
X3051150Y1661561D1*
X3050945Y1661061D1*
X3050769Y1660561D1*
X3050592Y1660061D1*
X3050439Y1659561D1*
X3050341Y1659061D1*
X3050291Y1658561D1*
X3050268Y1658061D1*
X3050259Y1657561D1*
X3050255Y1657061D1*
X3050254Y1656561D1*
Y1656061D1*
Y1655561D1*
Y1655061D1*
Y1654561D1*
Y1654061D1*
Y1653561D1*
Y1653061D1*
Y1652561D1*
Y1652061D1*
Y1651561D1*
Y1651061D1*
Y1650561D1*
Y1650061D1*
Y1649561D1*
Y1649061D1*
X3050255Y1648561D1*
X3050273Y1648061D1*
X3050337Y1647561D1*
X3050458Y1647061D1*
X3050604Y1646561D1*
X3050757Y1646061D1*
X3050941Y1645561D1*
X3051156Y1645061D1*
X3051391Y1644561D1*
X3051650Y1644061D1*
X3051945Y1643561D1*
X3052269Y1643061D1*
X3052592Y1642561D1*
X3052939Y1642061D1*
X3053343Y1641561D1*
X3053810Y1641061D1*
X3054353Y1640561D1*
X3054985Y1640061D1*
X3055713Y1639561D1*
X3056585Y1639061D1*
X3057663Y1638561D1*
X3058919Y1638061D1*
X3060254Y1637561D1*
X3065754Y1669061D2*
X3067365Y1668561D1*
X3068719Y1668061D1*
X3069774Y1667561D1*
X3070620Y1667061D1*
X3071369Y1666561D1*
X3072050Y1666061D1*
X3072641Y1665561D1*
X3073131Y1665061D1*
X3073533Y1664561D1*
X3073897Y1664061D1*
X3074248Y1663561D1*
X3074564Y1663061D1*
X3074833Y1662561D1*
X3075052Y1662061D1*
X3075235Y1661561D1*
X3075416Y1661061D1*
X3075588Y1660561D1*
X3075749Y1660061D1*
X3075919Y1659561D1*
X3076070Y1659061D1*
X3076166Y1658561D1*
X3076216Y1658061D1*
X3076239Y1657561D1*
X3076248Y1657061D1*
X3076252Y1656561D1*
X3076253Y1656061D1*
Y1655561D1*
Y1655061D1*
X3076254Y1654561D1*
Y1654061D1*
Y1653561D1*
Y1653061D1*
Y1652561D1*
Y1652061D1*
Y1651561D1*
Y1651061D1*
Y1650561D1*
Y1650061D1*
Y1649561D1*
X3076252Y1649061D1*
X3076234Y1648561D1*
X3076170Y1648061D1*
X3076049Y1647561D1*
X3075903Y1647061D1*
X3075752Y1646561D1*
X3075584Y1646061D1*
X3075417Y1645561D1*
X3075255Y1645061D1*
X3075066Y1644561D1*
X3074834Y1644061D1*
X3074552Y1643561D1*
X3074235Y1643061D1*
X3073914Y1642561D1*
X3073568Y1642061D1*
X3073164Y1641561D1*
X3072697Y1641061D1*
X3072154Y1640561D1*
X3071522Y1640061D1*
X3070792Y1639561D1*
X3069901Y1639061D1*
X3068746Y1638561D1*
X3067319Y1638061D1*
X3065754Y1637561D1*
X3089754Y1669061D2*
X3088123Y1668561D1*
X3086706Y1668061D1*
X3085550Y1667561D1*
X3084639Y1667061D1*
X3083922Y1666561D1*
X3083324Y1666061D1*
X3082799Y1665561D1*
X3082348Y1665061D1*
X3081981Y1664561D1*
X3081689Y1664061D1*
X3081461Y1663561D1*
X3081274Y1663061D1*
X3081094Y1662561D1*
X3080939Y1662061D1*
X3080841Y1661561D1*
X3080791Y1661061D1*
X3080768Y1660561D1*
X3080761Y1660061D1*
X3080775Y1659561D1*
X3080837Y1659061D1*
X3080959Y1658561D1*
X3081106Y1658061D1*
X3081275Y1657561D1*
X3081507Y1657061D1*
X3081795Y1656561D1*
X3082105Y1656061D1*
X3082462Y1655561D1*
X3082928Y1655061D1*
X3083516Y1654561D1*
X3084204Y1654061D1*
X3084987Y1653561D1*
X3085881Y1653061D1*
X3086902Y1652561D1*
X3088076Y1652061D1*
X3089379Y1651561D1*
X3090728Y1651061D1*
X3092050Y1650561D1*
X3093304Y1650061D1*
X3094426Y1649561D1*
X3095341Y1649061D1*
X3096050Y1648561D1*
X3096575Y1648061D1*
X3096976Y1647561D1*
X3097119Y1647061D1*
X3097196Y1646561D1*
X3097229Y1646061D1*
X3097224Y1645561D1*
X3097144Y1645061D1*
X3096985Y1644561D1*
X3096510Y1644061D1*
X3095053Y1643561D1*
X3092696Y1643061D1*
X3089754Y1642561D1*
X3095254Y1669061D2*
X3096867Y1668561D1*
X3098237Y1668061D1*
X3099338Y1667561D1*
X3100238Y1667061D1*
X3100978Y1666561D1*
X3101556Y1666061D1*
X3102001Y1665561D1*
X3102385Y1665061D1*
X3102743Y1664561D1*
X3103062Y1664061D1*
X3103333Y1663561D1*
X3103552Y1663061D1*
X3103735Y1662561D1*
X3103914Y1662061D1*
X3104068Y1661561D1*
X3104166Y1661061D1*
X3104219Y1660561D1*
X3104254Y1660061D1*
X3028754Y1664061D2*
Y1663561D1*
Y1663061D1*
Y1662561D1*
Y1662061D1*
Y1661561D1*
Y1661061D1*
Y1660561D1*
Y1660061D1*
Y1659561D1*
Y1659061D1*
Y1658561D1*
Y1658061D1*
Y1657561D1*
Y1657061D1*
Y1656561D1*
Y1656061D1*
Y1655561D1*
Y1655061D1*
X3034754Y1664061D2*
X3035653Y1663561D1*
X3036428Y1663061D1*
X3037030Y1662561D1*
X3037472Y1662061D1*
X3037796Y1661561D1*
X3038019Y1661061D1*
X3038147Y1660561D1*
X3038209Y1660061D1*
X3038236Y1659561D1*
X3038245Y1659061D1*
X3038230Y1658561D1*
X3038148Y1658061D1*
X3037944Y1657561D1*
X3037593Y1657061D1*
X3037092Y1656561D1*
X3036426Y1656061D1*
X3035620Y1655561D1*
X3034754Y1655061D1*
X3062254Y1664061D2*
X3061275Y1663561D1*
X3060360Y1663061D1*
X3059581Y1662561D1*
X3058978Y1662061D1*
X3058533Y1661561D1*
X3058192Y1661061D1*
X3057905Y1660561D1*
X3057657Y1660061D1*
X3057467Y1659561D1*
X3057350Y1659061D1*
X3057276Y1658561D1*
X3057187Y1658061D1*
X3057057Y1657561D1*
X3056924Y1657061D1*
X3056836Y1656561D1*
X3056789Y1656061D1*
X3056768Y1655561D1*
X3056759Y1655061D1*
X3056755Y1654561D1*
X3056754Y1654061D1*
Y1653561D1*
Y1653061D1*
Y1652561D1*
Y1652061D1*
Y1651561D1*
X3056755Y1651061D1*
X3056773Y1650561D1*
X3056837Y1650061D1*
X3056957Y1649561D1*
X3057085Y1649061D1*
X3057174Y1648561D1*
X3057238Y1648061D1*
X3057325Y1647561D1*
X3057471Y1647061D1*
X3057668Y1646561D1*
X3057896Y1646061D1*
X3058156Y1645561D1*
X3058487Y1645061D1*
X3058970Y1644561D1*
X3059750Y1644061D1*
X3061096Y1643561D1*
X3063196Y1643061D1*
X3065754Y1642561D1*
X3064254Y1664061D2*
X3065231Y1663561D1*
X3066129Y1663061D1*
X3066863Y1662561D1*
X3067410Y1662061D1*
X3067844Y1661561D1*
X3068210Y1661061D1*
X3068492Y1660561D1*
X3068709Y1660061D1*
X3068903Y1659561D1*
X3069064Y1659061D1*
X3069164Y1658561D1*
X3069216Y1658061D1*
X3069239Y1657561D1*
X3069248Y1657061D1*
X3069252Y1656561D1*
X3069253Y1656061D1*
Y1655561D1*
Y1655061D1*
X3069254Y1654561D1*
Y1654061D1*
Y1653561D1*
Y1653061D1*
Y1652561D1*
Y1652061D1*
Y1651561D1*
Y1651061D1*
Y1650561D1*
Y1650061D1*
Y1649561D1*
X3069252Y1649061D1*
X3069234Y1648561D1*
X3069170Y1648061D1*
X3069049Y1647561D1*
X3068901Y1647061D1*
X3068732Y1646561D1*
X3068501Y1646061D1*
X3068210Y1645561D1*
X3067883Y1645061D1*
X3067446Y1644561D1*
X3066868Y1644061D1*
X3065429Y1643561D1*
X3063312Y1643061D1*
X3060754Y1642561D1*
X3091254Y1664061D2*
X3090352Y1663561D1*
X3089561Y1663061D1*
X3088913Y1662561D1*
X3088415Y1662061D1*
X3088028Y1661561D1*
X3087887Y1661061D1*
X3087812Y1660561D1*
X3087797Y1660061D1*
X3087868Y1659561D1*
X3088024Y1659061D1*
X3088483Y1658561D1*
X3089117Y1658061D1*
X3089935Y1657561D1*
X3090923Y1657061D1*
X3092084Y1656561D1*
X3093382Y1656061D1*
X3094727Y1655561D1*
X3096033Y1655061D1*
X3097243Y1654561D1*
X3098325Y1654061D1*
X3099298Y1653561D1*
X3100187Y1653061D1*
X3100962Y1652561D1*
X3101603Y1652061D1*
X3102116Y1651561D1*
X3102528Y1651061D1*
X3102893Y1650561D1*
X3103230Y1650061D1*
X3103500Y1649561D1*
X3103712Y1649061D1*
X3103904Y1648561D1*
X3104064Y1648061D1*
X3104164Y1647561D1*
X3104216Y1647061D1*
X3104239Y1646561D1*
X3104248Y1646061D1*
X3104250Y1645561D1*
X3104233Y1645061D1*
X3104170Y1644561D1*
X3104049Y1644061D1*
X3103903Y1643561D1*
X3103750Y1643061D1*
X3103564Y1642561D1*
X3103332Y1642061D1*
X3103033Y1641561D1*
X3102650Y1641061D1*
X3102189Y1640561D1*
X3101630Y1640061D1*
X3100916Y1639561D1*
X3099987Y1639061D1*
X3098791Y1638561D1*
X3097338Y1638061D1*
X3095754Y1637561D1*
X3093754Y1664061D2*
X3094655Y1663561D1*
X3095446Y1663061D1*
X3096094Y1662561D1*
X3096592Y1662061D1*
X3096979Y1661561D1*
X3097121Y1661061D1*
X3097201Y1660561D1*
X3097254Y1660061D1*
X3028754Y1650061D2*
Y1649561D1*
Y1649061D1*
Y1648561D1*
Y1648061D1*
Y1647561D1*
Y1647061D1*
Y1646561D1*
Y1646061D1*
Y1645561D1*
Y1645061D1*
Y1644561D1*
Y1644061D1*
Y1643561D1*
Y1643061D1*
Y1642561D1*
Y1642061D1*
Y1641561D1*
Y1641061D1*
Y1640561D1*
Y1640061D1*
Y1639561D1*
Y1639061D1*
Y1638561D1*
Y1638061D1*
X3034254Y1650061D2*
X3035555Y1649561D1*
X3036622Y1649061D1*
X3037392Y1648561D1*
X3037915Y1648061D1*
X3038273Y1647561D1*
X3038511Y1647061D1*
X3038644Y1646561D1*
X3038708Y1646061D1*
X3038736Y1645561D1*
X3038747Y1645061D1*
X3038751Y1644561D1*
X3038753Y1644061D1*
Y1643561D1*
Y1643061D1*
X3038754Y1642561D1*
X3038755Y1642061D1*
X3038773Y1641561D1*
X3038837Y1641061D1*
X3038958Y1640561D1*
X3039104Y1640061D1*
X3039256Y1639561D1*
X3039426Y1639061D1*
X3039597Y1638561D1*
X3039754Y1638061D1*
X3079754Y1647561D2*
X3079831Y1647061D1*
X3079955Y1646561D1*
X3080086Y1646061D1*
X3080191Y1645561D1*
X3080302Y1645061D1*
X3080444Y1644561D1*
X3080601Y1644061D1*
X3080773Y1643561D1*
X3081006Y1643061D1*
X3081297Y1642561D1*
X3081622Y1642061D1*
X3082026Y1641561D1*
X3082548Y1641061D1*
X3083144Y1640561D1*
X3083794Y1640061D1*
X3084555Y1639561D1*
X3085506Y1639061D1*
X3086710Y1638561D1*
X3088167Y1638061D1*
X3089754Y1637561D1*
X3086754Y1647561D2*
X3086773Y1647061D1*
X3086839Y1646561D1*
X3086978Y1646061D1*
X3087189Y1645561D1*
X3087484Y1645061D1*
X3087918Y1644561D1*
X3088490Y1644061D1*
X3090215Y1643561D1*
X3092921Y1643061D1*
X3096254Y1642561D1*
X765264Y1006490D2*
Y1005990D1*
Y1005490D1*
Y1004990D1*
Y1004490D1*
Y1003990D1*
Y1003490D1*
Y1002990D1*
Y1002490D1*
Y1001990D1*
Y1001490D1*
Y1000990D1*
Y1000490D1*
Y999990D1*
Y999490D1*
Y998990D1*
Y998490D1*
Y997990D1*
Y997490D1*
Y996990D1*
Y996490D1*
Y995990D1*
Y995490D1*
Y994990D1*
Y994490D1*
Y993990D1*
Y993490D1*
Y992990D1*
Y992490D1*
Y991990D1*
Y991490D1*
Y990990D1*
Y990490D1*
Y989990D1*
Y989490D1*
Y988990D1*
Y988490D1*
Y987990D1*
Y987490D1*
Y986990D1*
Y986490D1*
Y985990D1*
Y985490D1*
Y984990D1*
Y984490D1*
Y983990D1*
Y983490D1*
Y982990D1*
Y982490D1*
Y981990D1*
Y981490D1*
Y980990D1*
Y980490D1*
Y979990D1*
Y979490D1*
Y978990D1*
Y978490D1*
Y977990D1*
Y977490D1*
Y976990D1*
Y976490D1*
Y975990D1*
Y975490D1*
X779264Y1006490D2*
X781013Y1005990D1*
X782486Y1005490D1*
X783646Y1004990D1*
X784545Y1004490D1*
X785268Y1003990D1*
X785846Y1003490D1*
X786316Y1002990D1*
X786720Y1002490D1*
X787059Y1001990D1*
X787336Y1001490D1*
X787541Y1000990D1*
X787661Y1000490D1*
X787723Y999990D1*
X787768Y999490D1*
X787856Y998990D1*
X788031Y998490D1*
X788264Y997990D1*
X788033Y997490D1*
X787888Y996990D1*
X787797Y996490D1*
X787700Y995990D1*
X787549Y995490D1*
X787350Y994990D1*
X787122Y994490D1*
X786864Y993990D1*
X786550Y993490D1*
X786145Y992990D1*
X785624Y992490D1*
X784980Y991990D1*
X784264Y991490D1*
X785012Y990990D1*
X785783Y990490D1*
X786490Y989990D1*
X787061Y989490D1*
X787492Y988990D1*
X787828Y988490D1*
X788114Y987990D1*
X788363Y987490D1*
X788571Y986990D1*
X788749Y986490D1*
X788925Y985990D1*
X789079Y985490D1*
X789174Y984990D1*
X789207Y984490D1*
X789166Y983990D1*
X789056Y983490D1*
X788931Y982990D1*
X788843Y982490D1*
X788780Y981990D1*
X788693Y981490D1*
X788545Y980990D1*
X788332Y980490D1*
X788056Y979990D1*
X787724Y979490D1*
X787341Y978990D1*
X786873Y978490D1*
X786322Y977990D1*
X785680Y977490D1*
X784851Y976990D1*
X783730Y976490D1*
X782319Y975990D1*
X780764Y975490D1*
X801764Y1006490D2*
X801514Y1005990D1*
X801306Y1005490D1*
X801112Y1004990D1*
X800934Y1004490D1*
X800770Y1003990D1*
X800597Y1003490D1*
X800428Y1002990D1*
X800268Y1002490D1*
X800096Y1001990D1*
X799928Y1001490D1*
X799768Y1000990D1*
X799596Y1000490D1*
X799428Y999990D1*
X799268Y999490D1*
X799096Y998990D1*
X798928Y998490D1*
X798768Y997990D1*
X798598Y997490D1*
X798446Y996990D1*
X798332Y996490D1*
X798218Y995990D1*
X798074Y995490D1*
X797919Y994990D1*
X797764Y994490D1*
X797595Y993990D1*
X797428Y993490D1*
X797268Y992990D1*
X797096Y992490D1*
X796928Y991990D1*
X796768Y991490D1*
X796596Y990990D1*
X796428Y990490D1*
X796268Y989990D1*
X796096Y989490D1*
X795928Y988990D1*
X795768Y988490D1*
X795596Y987990D1*
X795428Y987490D1*
X795268Y986990D1*
X795096Y986490D1*
X794928Y985990D1*
X794768Y985490D1*
X794598Y984990D1*
X794446Y984490D1*
X794332Y983990D1*
X794218Y983490D1*
X794074Y982990D1*
X793919Y982490D1*
X793764Y981990D1*
X793595Y981490D1*
X793428Y980990D1*
X793268Y980490D1*
X793096Y979990D1*
X792928Y979490D1*
X792768Y978990D1*
X792596Y978490D1*
X792428Y977990D1*
X792268Y977490D1*
X792098Y976990D1*
X791946Y976490D1*
X791842Y975990D1*
X791764Y975490D1*
X809264Y1006490D2*
X809341Y1005990D1*
X809467Y1005490D1*
X809614Y1004990D1*
X809766Y1004490D1*
X809934Y1003990D1*
X810101Y1003490D1*
X810260Y1002990D1*
X810432Y1002490D1*
X810600Y1001990D1*
X810760Y1001490D1*
X810930Y1000990D1*
X811082Y1000490D1*
X811196Y999990D1*
X811310Y999490D1*
X811454Y998990D1*
X811609Y998490D1*
X811764Y997990D1*
X811933Y997490D1*
X812101Y996990D1*
X812260Y996490D1*
X812432Y995990D1*
X812600Y995490D1*
X812760Y994990D1*
X812932Y994490D1*
X813100Y993990D1*
X813260Y993490D1*
X813432Y992990D1*
X813600Y992490D1*
X813760Y991990D1*
X813932Y991490D1*
X814100Y990990D1*
X814260Y990490D1*
X814432Y989990D1*
X814600Y989490D1*
X814760Y988990D1*
X814932Y988490D1*
X815100Y987990D1*
X815260Y987490D1*
X815430Y986990D1*
X815582Y986490D1*
X815696Y985990D1*
X815810Y985490D1*
X815954Y984990D1*
X816109Y984490D1*
X816264Y983990D1*
X816433Y983490D1*
X816601Y982990D1*
X816760Y982490D1*
X816932Y981990D1*
X817100Y981490D1*
X817260Y980990D1*
X817432Y980490D1*
X817600Y979990D1*
X817760Y979490D1*
X817932Y978990D1*
X818100Y978490D1*
X818260Y977990D1*
X818432Y977490D1*
X818602Y976990D1*
X818776Y976490D1*
X818999Y975990D1*
X819264Y975490D1*
X819764Y1006490D2*
Y1005990D1*
Y1005490D1*
Y1004990D1*
Y1004490D1*
Y1003990D1*
Y1003490D1*
Y1002990D1*
Y1002490D1*
Y1001990D1*
Y1001490D1*
X843264Y1006490D2*
Y1005990D1*
Y1005490D1*
Y1004990D1*
Y1004490D1*
Y1003990D1*
Y1003490D1*
Y1002990D1*
Y1002490D1*
Y1001990D1*
Y1001490D1*
X844764Y1006490D2*
Y1005990D1*
Y1005490D1*
Y1004990D1*
Y1004490D1*
Y1003990D1*
Y1003490D1*
Y1002990D1*
Y1002490D1*
Y1001990D1*
Y1001490D1*
X868264Y1006490D2*
Y1005990D1*
Y1005490D1*
Y1004990D1*
Y1004490D1*
Y1003990D1*
Y1003490D1*
Y1002990D1*
Y1002490D1*
Y1001990D1*
Y1001490D1*
X772264D2*
Y1000990D1*
Y1000490D1*
Y999990D1*
Y999490D1*
Y998990D1*
Y998490D1*
Y997990D1*
Y997490D1*
Y996990D1*
Y996490D1*
Y995990D1*
Y995490D1*
Y994990D1*
Y994490D1*
Y993990D1*
X777764Y993490D1*
X776764Y1001490D2*
X778066Y1000990D1*
X779133Y1000490D1*
X779902Y999990D1*
X780425Y999490D1*
X780784Y998990D1*
X781022Y998490D1*
X781153Y997990D1*
X781199Y997490D1*
X781161Y996990D1*
X781033Y996490D1*
X780822Y995990D1*
X780554Y995490D1*
X779962Y994990D1*
X778089Y994490D1*
X775051Y993990D1*
X771264Y993490D1*
X828264Y1001490D2*
Y1000990D1*
Y1000490D1*
Y999990D1*
Y999490D1*
Y998990D1*
Y998490D1*
Y997990D1*
Y997490D1*
Y996990D1*
Y996490D1*
Y995990D1*
Y995490D1*
Y994990D1*
Y994490D1*
Y993990D1*
Y993490D1*
Y992990D1*
Y992490D1*
Y991990D1*
Y991490D1*
Y990990D1*
Y990490D1*
Y989990D1*
Y989490D1*
Y988990D1*
Y988490D1*
Y987990D1*
Y987490D1*
Y986990D1*
Y986490D1*
Y985990D1*
Y985490D1*
Y984990D1*
Y984490D1*
Y983990D1*
Y983490D1*
Y982990D1*
Y982490D1*
Y981990D1*
Y981490D1*
Y980990D1*
Y980490D1*
Y979990D1*
Y979490D1*
Y978990D1*
Y978490D1*
Y977990D1*
Y977490D1*
Y976990D1*
Y976490D1*
Y975990D1*
Y975490D1*
X834764Y1001490D2*
Y1000990D1*
Y1000490D1*
Y999990D1*
Y999490D1*
Y998990D1*
Y998490D1*
Y997990D1*
Y997490D1*
Y996990D1*
Y996490D1*
Y995990D1*
Y995490D1*
Y994990D1*
Y994490D1*
Y993990D1*
Y993490D1*
Y992990D1*
Y992490D1*
Y991990D1*
Y991490D1*
Y990990D1*
Y990490D1*
Y989990D1*
Y989490D1*
Y988990D1*
Y988490D1*
Y987990D1*
Y987490D1*
Y986990D1*
Y986490D1*
Y985990D1*
Y985490D1*
Y984990D1*
Y984490D1*
Y983990D1*
Y983490D1*
Y982990D1*
Y982490D1*
Y981990D1*
Y981490D1*
Y980990D1*
Y980490D1*
Y979990D1*
Y979490D1*
Y978990D1*
Y978490D1*
Y977990D1*
Y977490D1*
Y976990D1*
Y976490D1*
Y975990D1*
Y975490D1*
X853264Y1001490D2*
Y1000990D1*
Y1000490D1*
Y999990D1*
Y999490D1*
Y998990D1*
Y998490D1*
Y997990D1*
Y997490D1*
Y996990D1*
Y996490D1*
Y995990D1*
Y995490D1*
Y994990D1*
Y994490D1*
Y993990D1*
Y993490D1*
Y992990D1*
Y992490D1*
Y991990D1*
Y991490D1*
Y990990D1*
Y990490D1*
Y989990D1*
Y989490D1*
Y988990D1*
Y988490D1*
Y987990D1*
Y987490D1*
Y986990D1*
Y986490D1*
Y985990D1*
Y985490D1*
Y984990D1*
Y984490D1*
Y983990D1*
Y983490D1*
Y982990D1*
Y982490D1*
Y981990D1*
Y981490D1*
Y980990D1*
Y980490D1*
Y979990D1*
Y979490D1*
Y978990D1*
Y978490D1*
Y977990D1*
Y977490D1*
Y976990D1*
Y976490D1*
Y975990D1*
Y975490D1*
X859764Y1001490D2*
Y1000990D1*
Y1000490D1*
Y999990D1*
Y999490D1*
Y998990D1*
Y998490D1*
Y997990D1*
Y997490D1*
Y996990D1*
Y996490D1*
Y995990D1*
Y995490D1*
Y994990D1*
Y994490D1*
Y993990D1*
Y993490D1*
Y992990D1*
Y992490D1*
Y991990D1*
Y991490D1*
Y990990D1*
Y990490D1*
Y989990D1*
Y989490D1*
Y988990D1*
Y988490D1*
Y987990D1*
Y987490D1*
Y986990D1*
Y986490D1*
Y985990D1*
Y985490D1*
Y984990D1*
Y984490D1*
Y983990D1*
Y983490D1*
Y982990D1*
Y982490D1*
Y981990D1*
Y981490D1*
Y980990D1*
Y980490D1*
Y979990D1*
Y979490D1*
Y978990D1*
Y978490D1*
Y977990D1*
Y977490D1*
Y976990D1*
Y976490D1*
Y975990D1*
Y975490D1*
X804764Y998490D2*
X804762Y997990D1*
X804745Y997490D1*
X804681Y996990D1*
X804559Y996490D1*
X804413Y995990D1*
X804262Y995490D1*
X804096Y994990D1*
X803945Y994490D1*
X803831Y993990D1*
X803718Y993490D1*
X803574Y992990D1*
X803419Y992490D1*
X803264Y991990D1*
X803097Y991490D1*
X802945Y990990D1*
X802831Y990490D1*
X802718Y989990D1*
X802574Y989490D1*
X802419Y988990D1*
X802264Y988490D1*
X802097Y987990D1*
X801946Y987490D1*
X801842Y986990D1*
X801764Y986490D1*
X805764Y998490D2*
X805783Y997990D1*
X805847Y997490D1*
X805969Y996990D1*
X806115Y996490D1*
X806266Y995990D1*
X806432Y995490D1*
X806583Y994990D1*
X806697Y994490D1*
X806810Y993990D1*
X806954Y993490D1*
X807109Y992990D1*
X807264Y992490D1*
X807431Y991990D1*
X807583Y991490D1*
X807697Y990990D1*
X807810Y990490D1*
X807952Y989990D1*
X808092Y989490D1*
X808200Y988990D1*
X808311Y988490D1*
X808453Y987990D1*
X808591Y987490D1*
X808690Y986990D1*
X808764Y986490D1*
X772264Y988490D2*
Y987990D1*
Y987490D1*
Y986990D1*
Y986490D1*
Y985990D1*
Y985490D1*
Y984990D1*
Y984490D1*
Y983990D1*
Y983490D1*
Y982990D1*
Y982490D1*
Y981990D1*
Y981490D1*
Y980990D1*
Y980490D1*
X778764Y988490D2*
X779666Y987990D1*
X780456Y987490D1*
X781104Y986990D1*
X781602Y986490D1*
X781990Y985990D1*
X782131Y985490D1*
X782207Y984990D1*
X782240Y984490D1*
X782236Y983990D1*
X782174Y983490D1*
X782017Y982990D1*
X781783Y982490D1*
X781245Y981990D1*
X780526Y981490D1*
X779672Y980990D1*
X778764Y980490D1*
X800764Y981490D2*
X800362Y980990D1*
X800068Y980490D1*
X799883Y979990D1*
X799738Y979490D1*
X799581Y978990D1*
X799421Y978490D1*
X799265Y977990D1*
X799095Y977490D1*
X798926Y976990D1*
X798752Y976490D1*
X798529Y975990D1*
X798264Y975490D1*
X810764Y981490D2*
X810766Y980990D1*
X810784Y980490D1*
X810847Y979990D1*
X810969Y979490D1*
X811115Y978990D1*
X811266Y978490D1*
X811434Y977990D1*
X811601Y977490D1*
X811761Y976990D1*
X811935Y976490D1*
X812107Y975990D1*
X812264Y975490D1*
X2721721Y1869080D2*
Y1868580D1*
Y1868080D1*
Y1867580D1*
Y1867080D1*
Y1866580D1*
Y1866080D1*
Y1865580D1*
Y1865080D1*
Y1864580D1*
Y1864080D1*
Y1863580D1*
Y1863080D1*
Y1862580D1*
Y1862080D1*
Y1861580D1*
Y1861080D1*
Y1860580D1*
Y1860080D1*
Y1859580D1*
Y1859080D1*
Y1858580D1*
Y1858080D1*
Y1857580D1*
Y1857080D1*
Y1856580D1*
Y1856080D1*
Y1855580D1*
Y1855080D1*
Y1854580D1*
Y1854080D1*
Y1853580D1*
Y1853080D1*
Y1852580D1*
Y1852080D1*
Y1851580D1*
Y1851080D1*
Y1850580D1*
Y1850080D1*
Y1849580D1*
Y1849080D1*
Y1848580D1*
Y1848080D1*
Y1847580D1*
Y1847080D1*
Y1846580D1*
Y1846080D1*
Y1845580D1*
Y1845080D1*
Y1844580D1*
Y1844080D1*
Y1843580D1*
Y1843080D1*
Y1842580D1*
Y1842080D1*
Y1841580D1*
Y1841080D1*
Y1840580D1*
Y1840080D1*
Y1839580D1*
Y1839080D1*
Y1838580D1*
Y1838080D1*
X2737221Y1869080D2*
X2738680Y1868580D1*
X2739948Y1868080D1*
X2741010Y1867580D1*
X2741872Y1867080D1*
X2742566Y1866580D1*
X2743156Y1866080D1*
X2743677Y1865580D1*
X2744127Y1865080D1*
X2744495Y1864580D1*
X2744803Y1864080D1*
X2745077Y1863580D1*
X2745322Y1863080D1*
X2745528Y1862580D1*
X2745706Y1862080D1*
X2745882Y1861580D1*
X2746036Y1861080D1*
X2746133Y1860580D1*
X2746183Y1860080D1*
X2746206Y1859580D1*
X2746215Y1859080D1*
X2746217Y1858580D1*
X2746201Y1858080D1*
X2746137Y1857580D1*
X2746016Y1857080D1*
X2745870Y1856580D1*
X2745717Y1856080D1*
X2745533Y1855580D1*
X2745318Y1855080D1*
X2745083Y1854580D1*
X2744822Y1854080D1*
X2744509Y1853580D1*
X2744122Y1853080D1*
X2743677Y1852580D1*
X2743183Y1852080D1*
X2742610Y1851580D1*
X2741907Y1851080D1*
X2741039Y1850580D1*
X2739967Y1850080D1*
X2738662Y1849580D1*
X2737221Y1849080D1*
X2759721Y1869080D2*
X2758090Y1868580D1*
X2756674Y1868080D1*
X2755517Y1867580D1*
X2754606Y1867080D1*
X2753889Y1866580D1*
X2753291Y1866080D1*
X2752766Y1865580D1*
X2752315Y1865080D1*
X2751948Y1864580D1*
X2751656Y1864080D1*
X2751428Y1863580D1*
X2751241Y1863080D1*
X2751061Y1862580D1*
X2750906Y1862080D1*
X2750809Y1861580D1*
X2750758Y1861080D1*
X2750735Y1860580D1*
X2750728Y1860080D1*
X2750742Y1859580D1*
X2750805Y1859080D1*
X2750926Y1858580D1*
X2751073Y1858080D1*
X2751242Y1857580D1*
X2751474Y1857080D1*
X2751762Y1856580D1*
X2752072Y1856080D1*
X2752429Y1855580D1*
X2752895Y1855080D1*
X2753483Y1854580D1*
X2754172Y1854080D1*
X2754954Y1853580D1*
X2755848Y1853080D1*
X2756869Y1852580D1*
X2758044Y1852080D1*
X2759346Y1851580D1*
X2760695Y1851080D1*
X2762017Y1850580D1*
X2763272Y1850080D1*
X2764393Y1849580D1*
X2765308Y1849080D1*
X2766017Y1848580D1*
X2766542Y1848080D1*
X2766943Y1847580D1*
X2767086Y1847080D1*
X2767163Y1846580D1*
X2767196Y1846080D1*
X2767191Y1845580D1*
X2767111Y1845080D1*
X2766952Y1844580D1*
X2766477Y1844080D1*
X2765021Y1843580D1*
X2762663Y1843080D1*
X2759721Y1842580D1*
X2765221Y1869080D2*
X2766834Y1868580D1*
X2768204Y1868080D1*
X2769305Y1867580D1*
X2770205Y1867080D1*
X2770945Y1866580D1*
X2771523Y1866080D1*
X2771969Y1865580D1*
X2772352Y1865080D1*
X2772710Y1864580D1*
X2773029Y1864080D1*
X2773300Y1863580D1*
X2773519Y1863080D1*
X2773702Y1862580D1*
X2773881Y1862080D1*
X2774035Y1861580D1*
X2774133Y1861080D1*
X2774186Y1860580D1*
X2774221Y1860080D1*
X2778721Y1869080D2*
Y1868580D1*
Y1868080D1*
Y1867580D1*
Y1867080D1*
Y1866580D1*
Y1866080D1*
Y1865580D1*
Y1865080D1*
Y1864580D1*
Y1864080D1*
Y1863580D1*
Y1863080D1*
Y1862580D1*
Y1862080D1*
Y1861580D1*
Y1861080D1*
Y1860580D1*
Y1860080D1*
Y1859580D1*
Y1859080D1*
Y1858580D1*
Y1858080D1*
Y1857580D1*
Y1857080D1*
Y1856580D1*
Y1856080D1*
Y1855580D1*
Y1855080D1*
Y1854580D1*
Y1854080D1*
Y1853580D1*
Y1853080D1*
Y1852580D1*
Y1852080D1*
Y1851580D1*
Y1851080D1*
Y1850580D1*
Y1850080D1*
Y1849580D1*
Y1849080D1*
Y1848580D1*
Y1848080D1*
X2778723Y1847580D1*
X2778740Y1847080D1*
X2778804Y1846580D1*
X2778924Y1846080D1*
X2779054Y1845580D1*
X2779159Y1845080D1*
X2779271Y1844580D1*
X2779431Y1844080D1*
X2779649Y1843580D1*
X2779925Y1843080D1*
X2780241Y1842580D1*
X2780563Y1842080D1*
X2780926Y1841580D1*
X2781394Y1841080D1*
X2781983Y1840580D1*
X2782671Y1840080D1*
X2783456Y1839580D1*
X2784368Y1839080D1*
X2785461Y1838580D1*
X2786775Y1838080D1*
X2788221Y1837580D1*
X2785721Y1869080D2*
Y1868580D1*
Y1868080D1*
Y1867580D1*
Y1867080D1*
Y1866580D1*
Y1866080D1*
Y1865580D1*
Y1865080D1*
Y1864580D1*
Y1864080D1*
Y1863580D1*
Y1863080D1*
Y1862580D1*
Y1862080D1*
Y1861580D1*
Y1861080D1*
Y1860580D1*
Y1860080D1*
Y1859580D1*
Y1859080D1*
Y1858580D1*
Y1858080D1*
Y1857580D1*
Y1857080D1*
Y1856580D1*
Y1856080D1*
Y1855580D1*
Y1855080D1*
Y1854580D1*
Y1854080D1*
Y1853580D1*
Y1853080D1*
Y1852580D1*
Y1852080D1*
Y1851580D1*
Y1851080D1*
Y1850580D1*
Y1850080D1*
Y1849580D1*
Y1849080D1*
Y1848580D1*
Y1848080D1*
X2785723Y1847580D1*
X2785740Y1847080D1*
X2785806Y1846580D1*
X2785945Y1846080D1*
X2786157Y1845580D1*
X2786451Y1845080D1*
X2786883Y1844580D1*
X2787450Y1844080D1*
X2789087Y1843580D1*
X2791619Y1843080D1*
X2794721Y1842580D1*
X2797221Y1869080D2*
Y1868580D1*
Y1868080D1*
Y1867580D1*
Y1867080D1*
Y1866580D1*
Y1866080D1*
Y1865580D1*
Y1865080D1*
Y1864580D1*
Y1864080D1*
Y1863580D1*
Y1863080D1*
Y1862580D1*
Y1862080D1*
Y1861580D1*
Y1861080D1*
Y1860580D1*
Y1860080D1*
Y1859580D1*
Y1859080D1*
Y1858580D1*
Y1858080D1*
Y1857580D1*
Y1857080D1*
Y1856580D1*
Y1856080D1*
Y1855580D1*
Y1855080D1*
Y1854580D1*
Y1854080D1*
Y1853580D1*
Y1853080D1*
Y1852580D1*
Y1852080D1*
Y1851580D1*
Y1851080D1*
Y1850580D1*
Y1850080D1*
Y1849580D1*
Y1849080D1*
Y1848580D1*
X2797219Y1848080D1*
X2797201Y1847580D1*
X2797136Y1847080D1*
X2796998Y1846580D1*
X2796804Y1846080D1*
X2796576Y1845580D1*
X2796299Y1845080D1*
X2795967Y1844580D1*
X2795166Y1844080D1*
X2793760Y1843580D1*
X2791500Y1843080D1*
X2788721Y1842580D1*
X2804221Y1869080D2*
Y1868580D1*
Y1868080D1*
Y1867580D1*
Y1867080D1*
Y1866580D1*
Y1866080D1*
Y1865580D1*
Y1865080D1*
Y1864580D1*
Y1864080D1*
Y1863580D1*
Y1863080D1*
Y1862580D1*
Y1862080D1*
Y1861580D1*
Y1861080D1*
Y1860580D1*
Y1860080D1*
Y1859580D1*
Y1859080D1*
Y1858580D1*
Y1858080D1*
Y1857580D1*
Y1857080D1*
Y1856580D1*
Y1856080D1*
Y1855580D1*
Y1855080D1*
Y1854580D1*
Y1854080D1*
Y1853580D1*
Y1853080D1*
Y1852580D1*
Y1852080D1*
Y1851580D1*
Y1851080D1*
Y1850580D1*
Y1850080D1*
Y1849580D1*
Y1849080D1*
X2804219Y1848580D1*
X2804201Y1848080D1*
X2804137Y1847580D1*
X2804018Y1847080D1*
X2803888Y1846580D1*
X2803783Y1846080D1*
X2803673Y1845580D1*
X2803530Y1845080D1*
X2803375Y1844580D1*
X2803219Y1844080D1*
X2803032Y1843580D1*
X2802799Y1843080D1*
X2802500Y1842580D1*
X2802119Y1842080D1*
X2801678Y1841580D1*
X2801202Y1841080D1*
X2800693Y1840580D1*
X2800112Y1840080D1*
X2799389Y1839580D1*
X2798456Y1839080D1*
X2797259Y1838580D1*
X2795805Y1838080D1*
X2794221Y1837580D1*
X2728721Y1864080D2*
Y1863580D1*
Y1863080D1*
Y1862580D1*
Y1862080D1*
Y1861580D1*
Y1861080D1*
Y1860580D1*
Y1860080D1*
Y1859580D1*
Y1859080D1*
Y1858580D1*
Y1858080D1*
Y1857580D1*
Y1857080D1*
Y1856580D1*
Y1856080D1*
Y1855580D1*
Y1855080D1*
Y1854580D1*
Y1854080D1*
X2735221Y1864080D2*
X2736181Y1863580D1*
X2737031Y1863080D1*
X2737691Y1862580D1*
X2738165Y1862080D1*
X2738520Y1861580D1*
X2738798Y1861080D1*
X2739001Y1860580D1*
X2739119Y1860080D1*
X2739178Y1859580D1*
X2739204Y1859080D1*
X2739213Y1858580D1*
X2739197Y1858080D1*
X2739117Y1857580D1*
X2738930Y1857080D1*
X2738643Y1856580D1*
X2738262Y1856080D1*
X2737722Y1855580D1*
X2736993Y1855080D1*
X2736133Y1854580D1*
X2735221Y1854080D1*
X2761221Y1864080D2*
X2760319Y1863580D1*
X2759529Y1863080D1*
X2758881Y1862580D1*
X2758383Y1862080D1*
X2757995Y1861580D1*
X2757854Y1861080D1*
X2757779Y1860580D1*
X2757764Y1860080D1*
X2757836Y1859580D1*
X2757991Y1859080D1*
X2758450Y1858580D1*
X2759084Y1858080D1*
X2759902Y1857580D1*
X2760891Y1857080D1*
X2762051Y1856580D1*
X2763349Y1856080D1*
X2764694Y1855580D1*
X2766000Y1855080D1*
X2767210Y1854580D1*
X2768293Y1854080D1*
X2769265Y1853580D1*
X2770155Y1853080D1*
X2770930Y1852580D1*
X2771570Y1852080D1*
X2772083Y1851580D1*
X2772495Y1851080D1*
X2772860Y1850580D1*
X2773197Y1850080D1*
X2773467Y1849580D1*
X2773679Y1849080D1*
X2773872Y1848580D1*
X2774032Y1848080D1*
X2774132Y1847580D1*
X2774183Y1847080D1*
X2774206Y1846580D1*
X2774215Y1846080D1*
X2774217Y1845580D1*
X2774201Y1845080D1*
X2774137Y1844580D1*
X2774016Y1844080D1*
X2773870Y1843580D1*
X2773717Y1843080D1*
X2773531Y1842580D1*
X2773299Y1842080D1*
X2773000Y1841580D1*
X2772617Y1841080D1*
X2772157Y1840580D1*
X2771597Y1840080D1*
X2770883Y1839580D1*
X2769954Y1839080D1*
X2768759Y1838580D1*
X2767305Y1838080D1*
X2765721Y1837580D1*
X2763721Y1864080D2*
X2764622Y1863580D1*
X2765413Y1863080D1*
X2766061Y1862580D1*
X2766559Y1862080D1*
X2766947Y1861580D1*
X2767088Y1861080D1*
X2767169Y1860580D1*
X2767221Y1860080D1*
X2728721Y1849080D2*
Y1848580D1*
Y1848080D1*
Y1847580D1*
Y1847080D1*
Y1846580D1*
Y1846080D1*
Y1845580D1*
Y1845080D1*
Y1844580D1*
Y1844080D1*
Y1843580D1*
Y1843080D1*
Y1842580D1*
Y1842080D1*
Y1841580D1*
Y1841080D1*
Y1840580D1*
Y1840080D1*
Y1839580D1*
Y1839080D1*
Y1838580D1*
Y1838080D1*
X2749721Y1847580D2*
X2749798Y1847080D1*
X2749922Y1846580D1*
X2750053Y1846080D1*
X2750159Y1845580D1*
X2750269Y1845080D1*
X2750412Y1844580D1*
X2750568Y1844080D1*
X2750740Y1843580D1*
X2750973Y1843080D1*
X2751264Y1842580D1*
X2751589Y1842080D1*
X2751993Y1841580D1*
X2752515Y1841080D1*
X2753111Y1840580D1*
X2753761Y1840080D1*
X2754522Y1839580D1*
X2755473Y1839080D1*
X2756677Y1838580D1*
X2758135Y1838080D1*
X2759721Y1837580D1*
X2756721Y1847580D2*
X2756740Y1847080D1*
X2756806Y1846580D1*
X2756945Y1846080D1*
X2757157Y1845580D1*
X2757451Y1845080D1*
X2757885Y1844580D1*
X2758457Y1844080D1*
X2760182Y1843580D1*
X2762888Y1843080D1*
X2766221Y1842580D1*
X1171130Y3915303D2*
D16*
Y3936305D1*
X1186429Y3924853D1*
Y3930601D1*
X1188330Y3934404D1*
X1190231Y3936305D1*
X1195979Y3938250D1*
X1199782D1*
X1205530Y3936305D1*
X1209376Y3932502D1*
X1211278Y3926754D1*
Y3921006D1*
X1209376Y3915303D1*
X1207431Y3913401D1*
X1203628Y3911456D1*
X1171130Y3981198D2*
Y3962097D1*
X1188330Y3960196D1*
X1186429Y3962097D1*
X1184483Y3967845D1*
Y3973549D1*
X1186429Y3979297D1*
X1190231Y3983144D1*
X1195979Y3985045D1*
X1199782D1*
X1205530Y3983144D1*
X1209376Y3979297D1*
X1211278Y3973549D1*
Y3967845D1*
X1209376Y3962097D1*
X1207431Y3960196D1*
X1203628Y3958250D1*
X1171130Y4014596D2*
X1173031Y4008892D1*
X1176834Y4006946D1*
X1180680D1*
X1184483Y4008892D1*
X1186429Y4012694D1*
X1188330Y4020344D1*
X1190231Y4026092D1*
X1194078Y4029894D1*
X1197880Y4031795D1*
X1203628D1*
X1207431Y4029894D1*
X1209376Y4027993D1*
X1211278Y4022245D1*
Y4014596D1*
X1209376Y4008892D1*
X1207431Y4006946D1*
X1203628Y4005045D1*
X1197880D1*
X1194078Y4006946D1*
X1190231Y4010793D1*
X1188330Y4016497D1*
X1186429Y4024146D1*
X1184483Y4027993D1*
X1180680Y4029894D1*
X1176834D1*
X1173031Y4027993D1*
X1171130Y4022245D1*
Y4014596D1*
Y4061346D2*
X1173031Y4055642D1*
X1176834Y4053697D1*
X1180680D1*
X1184483Y4055642D1*
X1186429Y4059445D1*
X1188330Y4067094D1*
X1190231Y4072842D1*
X1194078Y4076645D1*
X1197880Y4078546D1*
X1203628D1*
X1207431Y4076645D1*
X1209376Y4074743D1*
X1211278Y4068995D1*
Y4061346D1*
X1209376Y4055642D1*
X1207431Y4053697D1*
X1203628Y4051795D1*
X1197880D1*
X1194078Y4053697D1*
X1190231Y4057543D1*
X1188330Y4063247D1*
X1186429Y4070897D1*
X1184483Y4074743D1*
X1180680Y4076645D1*
X1176834D1*
X1173031Y4074743D1*
X1171130Y4068995D1*
Y4061346D1*
X2871130Y3915303D2*
Y3936305D1*
X2886429Y3924853D1*
Y3930601D1*
X2888330Y3934404D1*
X2890231Y3936305D1*
X2895979Y3938250D1*
X2899782D1*
X2905530Y3936305D1*
X2909376Y3932502D1*
X2911278Y3926754D1*
Y3921006D1*
X2909376Y3915303D1*
X2907431Y3913401D1*
X2903628Y3911456D1*
X2871130Y3981198D2*
Y3962097D1*
X2888330Y3960196D1*
X2886429Y3962097D1*
X2884483Y3967845D1*
Y3973549D1*
X2886429Y3979297D1*
X2890231Y3983144D1*
X2895979Y3985045D1*
X2899782D1*
X2905530Y3983144D1*
X2909376Y3979297D1*
X2911278Y3973549D1*
Y3967845D1*
X2909376Y3962097D1*
X2907431Y3960196D1*
X2903628Y3958250D1*
X2871130Y4014596D2*
X2873031Y4008892D1*
X2876834Y4006946D1*
X2880680D1*
X2884483Y4008892D1*
X2886429Y4012694D1*
X2888330Y4020344D1*
X2890231Y4026092D1*
X2894078Y4029894D1*
X2897880Y4031795D1*
X2903628D1*
X2907431Y4029894D1*
X2909376Y4027993D1*
X2911278Y4022245D1*
Y4014596D1*
X2909376Y4008892D1*
X2907431Y4006946D1*
X2903628Y4005045D1*
X2897880D1*
X2894078Y4006946D1*
X2890231Y4010793D1*
X2888330Y4016497D1*
X2886429Y4024146D1*
X2884483Y4027993D1*
X2880680Y4029894D1*
X2876834D1*
X2873031Y4027993D1*
X2871130Y4022245D1*
Y4014596D1*
Y4061346D2*
X2873031Y4055642D1*
X2876834Y4053697D1*
X2880680D1*
X2884483Y4055642D1*
X2886429Y4059445D1*
X2888330Y4067094D1*
X2890231Y4072842D1*
X2894078Y4076645D1*
X2897880Y4078546D1*
X2903628D1*
X2907431Y4076645D1*
X2909376Y4074743D1*
X2911278Y4068995D1*
Y4061346D1*
X2909376Y4055642D1*
X2907431Y4053697D1*
X2903628Y4051795D1*
X2897880D1*
X2894078Y4053697D1*
X2890231Y4057543D1*
X2888330Y4063247D1*
X2886429Y4070897D1*
X2884483Y4074743D1*
X2880680Y4076645D1*
X2876834D1*
X2873031Y4074743D1*
X2871130Y4068995D1*
Y4061346D1*
M02*
