M48
INCH
T01C0.02
T02C0.073
T03C0.1122
T04C0.1181
%
T01
X+013440Y+011940
X+014065Y+011940
X+014065Y+012565
X+013440Y+012565
X+014690Y+012565
X+014690Y+011940
X+015940Y+012315
X+016565Y+012315
X+018190Y+013940
X+017190Y+014690
X+014690Y+014065
X+013440Y+014565
X+014065Y+018315
X+017190Y+017940
X+021565Y+014440
X+023690Y+010315
X+018190Y+009190
X+016815Y+005690
X+014440Y+009815
T02
X+009937Y+016563
X+009937Y+018217
X+012103Y+018217
X+012103Y+016563
X+012105Y+007219
X+012105Y+005565
X+009940Y+005565
X+009940Y+007219
X+025775Y+011536
X+025775Y+013190
X+027940Y+013190
X+027940Y+011536
T03
X+007070Y+011940
X+031940Y+017940
X+031940Y+005940
T04
X+007060Y+017390
X+007063Y+006392
X+030817Y+012363
T00
M30
