M48
METRIC,0000.00
T01C0.508
T02C0.9
T03C1.6
T04C1.81
T05C2.0
T06C3.0
T07C3.6
%
T01
X+005217Y+004278
X+005614Y+004754
X+006281Y+004453
X+004551Y+004373
T02
X+007742Y+005024
X+007742Y+004516
X+008567Y+004516
X+008567Y+005024
X+006075Y+005119
X+005868Y+005119
X+004074Y+004770
X+004074Y+004580
X+002693Y+001801
X+002693Y+001293
X+001836Y+001309
X+001836Y+001817
X+001201Y+001414
X+001201Y+001214
X+009218Y+001214
X+009551Y+001214
T03
X+009441Y+001912
X+009781Y+001922
X+009781Y+002914
X+009441Y+002914
T04
X+001328Y+003849
X+001748Y+003849
X+001748Y+003299
X+001328Y+003299
X+009329Y+003315
X+009749Y+003315
X+009749Y+003865
X+009329Y+003865
T05
X+007392Y+002468
X+008992Y+002468
T06
X+001538Y+004579
X+005281Y+001500
X+009539Y+004595
T07
X+006846Y+004747
X+003646Y+004747
X+003635Y+001547
X+006846Y+001547
T00
M30
