G04 DipTrace 2.4.0.2*
%INBoost_converter.GTS*%
%MOMM*%
%ADD41C,3.0*%
%ADD42C,3.6*%
%ADD49C,2.604*%
%ADD51C,1.704*%
%ADD53R,1.154X0.519*%
%ADD55R,2.004X3.404*%
%ADD57R,1.504X1.704*%
%ADD59R,1.704X1.504*%
%ADD61R,0.904X0.604*%
%ADD63R,0.654X1.104*%
%ADD65R,2.654X2.704*%
%ADD67C,4.204*%
%ADD69R,4.029X12.524*%
%ADD71C,1.704*%
%ADD73R,1.704X1.704*%
%ADD75C,3.204*%
%ADD77R,3.204X3.204*%
%ADD79R,9.904X10.604*%
%ADD81R,4.154X1.704*%
%ADD83R,1.304X1.204*%
%ADD85R,1.804X1.804*%
%ADD87C,1.804*%
%ADD89R,1.204X1.304*%
%FSLAX53Y53*%
G04*
G71*
G90*
G75*
G01*
%LNTopMask*%
%LPD*%
D89*
X94561Y15904D3*
Y14204D3*
X92973Y15904D3*
Y14204D3*
D87*
X77415Y50240D3*
D85*
Y45160D3*
D87*
X85671Y50240D3*
D85*
Y45160D3*
D83*
X56143Y42620D3*
X54443D3*
D87*
X26933Y12934D3*
D85*
Y18014D3*
D87*
X18361Y13093D3*
D85*
Y18173D3*
D89*
X21536Y41033D3*
Y42733D3*
X22805Y41033D3*
Y42733D3*
X62652Y47747D3*
Y49447D3*
D83*
X53921Y44208D3*
X52220D3*
D81*
X54873Y31349D3*
Y26269D3*
D79*
X65173Y28809D3*
D89*
X11852Y22459D3*
Y24159D3*
D77*
X13281Y38493D3*
D75*
X17481D3*
Y32993D3*
X13281D3*
D41*
X15381Y45793D3*
D77*
X93291Y38652D3*
D75*
X97490D3*
Y33152D3*
X93291D3*
D41*
X95391Y45952D3*
D73*
X12010Y14141D3*
D71*
Y12141D3*
D69*
X25822Y31508D3*
X42067D3*
D67*
X73925Y24681D3*
X89925D3*
D65*
X48682Y38334D3*
D63*
X47702Y40594D3*
X48352Y40591D3*
X49002Y40589D3*
X49652Y40586D3*
D61*
X50152Y39064D3*
X47177Y39074D3*
D59*
X64239Y47700D3*
Y49601D3*
Y43891D3*
Y45791D3*
D57*
X55032Y49447D3*
X56932D3*
X54238Y41033D3*
X56138D3*
D55*
X48840Y46748D3*
X43240D3*
D89*
X45450Y42200D3*
Y40501D3*
D83*
X53921Y45637D3*
X52220D3*
D89*
X11852Y27764D3*
Y26064D3*
D53*
X61541Y44526D3*
X61538Y45175D3*
X61544Y45822D3*
X61542Y46468D3*
X57592Y44525D3*
X57593Y45172D3*
X57592Y45818D3*
Y46473D3*
D51*
X40744Y47700D3*
Y45796D3*
X92179Y12141D3*
X95513D3*
X58683Y51193D3*
X60747D3*
D42*
X68458Y47474D3*
X36458D3*
X68458Y15474D3*
X36348D3*
D41*
X52809Y14998D3*
D49*
X94406Y19124D3*
Y29144D3*
X97806D3*
Y19224D3*
M02*
