G04 DipTrace 3.0.0.1*
G04 pwm-controller.GTO*
%MOIN*%
G04 #@! TF.FileFunction,Legend,Top*
G04 #@! TF.Part,Single*
%ADD10C,0.009843*%
%ADD23C,0.015422*%
%ADD29C,0.015395*%
%ADD63C,0.008*%
%FSLAX26Y26*%
G04*
G70*
G90*
G75*
G01*
G04 TopSilk*
%LPD*%
X560730Y1735652D2*
D10*
X460728D1*
Y1235608D1*
X560730D1*
Y1735652D1*
X2448227Y410608D2*
X2548228D1*
Y910652D1*
X2448227D1*
Y410608D1*
X2548227D2*
X2648228D1*
Y910652D1*
X2548227D1*
Y410608D1*
X749227D2*
X849228D1*
Y910652D1*
X749227D1*
Y410608D1*
X2023213Y2173132D2*
X2923244D1*
Y2073130D1*
X2023213D1*
Y2173132D1*
X1148227Y1235608D2*
X1248228D1*
Y1735652D1*
X1148227D1*
Y1235608D1*
X723227Y1735608D2*
X823228D1*
Y2235652D1*
X723227D1*
Y1735608D1*
X672386Y2460632D2*
X2674071D1*
Y2360630D1*
X672386D1*
Y2460632D1*
Y2560632D2*
X2674071D1*
Y2460630D1*
X672386D1*
Y2560632D1*
X535728Y1010630D2*
X523228Y998130D1*
X448228D1*
X435728Y1010630D1*
Y1085630D1*
X448228Y1098130D2*
X435728Y1085630D1*
X448228Y1098130D2*
X523228D1*
X535728Y1085630D1*
Y1010630D1*
X685728D2*
X673228Y998130D1*
X598228D1*
X585728Y1010630D1*
Y1085630D1*
X598228Y1098130D2*
X585728Y1085630D1*
X598228Y1098130D2*
X673228D1*
X685728Y1085630D1*
Y1010630D1*
X535728Y773130D2*
X523228Y760630D1*
X448228D1*
X435728Y773130D1*
Y848130D1*
X448228Y860630D2*
X435728Y848130D1*
X448228Y860630D2*
X523228D1*
X535728Y848130D1*
Y773130D1*
X685728D2*
X673228Y760630D1*
X598228D1*
X585728Y773130D1*
Y848130D1*
X598228Y860630D2*
X585728Y848130D1*
X598228Y860630D2*
X673228D1*
X685728Y848130D1*
Y773130D1*
X1710728Y1985630D2*
X1723228Y1998130D1*
X1798228D1*
X1810728Y1985630D1*
Y1910630D1*
X1798228Y1898130D2*
X1810728Y1910630D1*
X1798228Y1898130D2*
X1723228D1*
X1710728Y1910630D1*
Y1985630D1*
D23*
X1995713Y792379D3*
X1945571Y801580D2*
D10*
Y919685D1*
X1925886D1*
Y801580D1*
X1945571D1*
G36*
X1513228Y1355130D2*
Y1379130D1*
X1530228Y1389130D1*
X1587228D1*
X1604228Y1379130D1*
Y1355130D1*
D1*
X1513228D1*
G37*
G36*
X1530228Y1401130D2*
Y1423130D1*
X1541228Y1430130D1*
Y1576130D1*
X1549228Y1574130D1*
X1576228Y1531130D1*
Y1430130D1*
X1587228Y1423130D1*
Y1401130D1*
X1530228D1*
G37*
G36*
X1556228Y1583130D2*
X1544228Y1587130D1*
X1533228Y1597130D1*
X1529228Y1612130D1*
X1533228Y1627130D1*
X1544228Y1638130D1*
X1558228Y1642130D1*
X1573228Y1638130D1*
X1584228Y1627130D1*
X1588228Y1612130D1*
X1585228Y1601130D1*
X1676228Y1453130D1*
X1688228Y1449130D1*
X1699228Y1438130D1*
X1703228Y1423130D1*
X1699228Y1409130D1*
X1688228Y1398130D1*
X1673228Y1394130D1*
X1658228Y1398130D1*
X1647228Y1409130D1*
X1643228Y1424130D1*
X1646228Y1436130D1*
X1556228Y1583130D1*
G37*
G36*
X1679228Y1468130D2*
X1682228Y1463130D1*
X1695228Y1459130D1*
X1706228Y1446130D1*
X1759228Y1534130D1*
Y1585130D1*
X1753228Y1590130D1*
D1*
X1679228Y1468130D1*
G37*
G36*
X1770228Y1589130D2*
X1762228Y1597130D1*
X1757228Y1612130D1*
X1761228Y1627130D1*
X1772228Y1638130D1*
X1787228Y1642130D1*
X1802228Y1638130D1*
X1813228Y1627130D1*
X1817228Y1612130D1*
X1813228Y1598130D1*
X1804228Y1589130D1*
Y1472130D1*
X1787228Y1477130D1*
X1770228Y1472130D1*
Y1589130D1*
G37*
G36*
X1756228Y1429130D2*
X1757228Y1424130D1*
X1769228Y1411130D1*
X1773228Y1410130D1*
X1770228Y1407130D1*
Y1358130D1*
X1753228Y1355130D1*
X1741228Y1415130D1*
X1756228Y1429130D1*
G37*
G36*
X1767228Y1453130D2*
X1764228Y1441130D1*
X1767228Y1429130D1*
X1776228Y1420130D1*
X1787228Y1417130D1*
X1793228Y1419130D1*
X1805228Y1406130D1*
X1804228Y1358130D1*
X1822228Y1355130D1*
X1833228Y1415130D1*
X1810228Y1438130D1*
X1811228Y1442130D1*
X1808228Y1452130D1*
X1799228Y1461130D1*
X1787228Y1464130D1*
X1775228Y1461130D1*
X1767228Y1453130D1*
G37*
X684173Y1274321D2*
D10*
X1069961D1*
X684173Y1400293D2*
X1069961D1*
Y1274321D2*
Y1400293D1*
X684173Y1274321D2*
Y1317618D1*
Y1356996D2*
Y1400293D1*
Y1317618D2*
G03X684173Y1356996I-52J19689D01*
G01*
X2091929Y563780D2*
X2269094D1*
Y957480D1*
X2091929D1*
Y563780D1*
X2127362D2*
Y957480D1*
D29*
X1678453Y924945D3*
X1732519Y919683D2*
D10*
Y801575D1*
X1764009Y919683D2*
Y801575D1*
X1732519D2*
X1764009D1*
X1732519Y919683D2*
X1764009D1*
X1811917Y2037203D2*
Y2234057D1*
X1709540Y2037203D2*
Y2234057D1*
X1811917D2*
X1709540D1*
X1780423Y2037203D2*
X1811917D1*
X1741034D2*
X1709540D1*
X1780423D2*
G03X1741034Y2037203I-19694J-9D01*
G01*
X421908Y1264463D2*
D63*
X419056Y1263322D1*
X416171Y1261014D1*
X414745Y1258733D1*
Y1254143D1*
X416171Y1251835D1*
X419056Y1249554D1*
X421908Y1248386D1*
X426219Y1247246D1*
X433415D1*
X437693Y1248386D1*
X440578Y1249554D1*
X443430Y1251835D1*
X444889Y1254143D1*
Y1258733D1*
X443430Y1261014D1*
X440578Y1263322D1*
X437693Y1264463D1*
X414745Y1277263D2*
X444889D1*
X414745Y1293340D2*
X444889D1*
X429104Y1277263D2*
Y1293340D1*
X414778Y1308448D2*
Y1321049D1*
X426252Y1314178D1*
Y1317627D1*
X427678Y1319909D1*
X429104Y1321049D1*
X433415Y1322217D1*
X436267D1*
X440578Y1321049D1*
X443463Y1318768D1*
X444889Y1315319D1*
Y1311870D1*
X443463Y1308448D1*
X442004Y1307307D1*
X439152Y1306140D1*
X421908Y1364463D2*
X419056Y1363322D1*
X416171Y1361014D1*
X414745Y1358733D1*
Y1354143D1*
X416171Y1351835D1*
X419056Y1349554D1*
X421908Y1348386D1*
X426219Y1347246D1*
X433415D1*
X437693Y1348386D1*
X440578Y1349554D1*
X443430Y1351835D1*
X444889Y1354143D1*
Y1358733D1*
X443430Y1361014D1*
X440578Y1363322D1*
X437693Y1364463D1*
X414745Y1377263D2*
X444889D1*
X414745Y1393340D2*
X444889D1*
X429104Y1377263D2*
Y1393340D1*
X444889Y1417627D2*
X414778D1*
X434841Y1406140D1*
Y1423357D1*
X421908Y1464462D2*
X419056Y1463321D1*
X416171Y1461013D1*
X414745Y1458731D1*
Y1454142D1*
X416171Y1451834D1*
X419056Y1449552D1*
X421908Y1448385D1*
X426219Y1447244D1*
X433415D1*
X437693Y1448385D1*
X440578Y1449552D1*
X443430Y1451834D1*
X444889Y1454142D1*
Y1458731D1*
X443430Y1461013D1*
X440578Y1463321D1*
X437693Y1464462D1*
X414745Y1477262D2*
X444889D1*
X414745Y1493339D2*
X444889Y1493338D1*
X429104Y1477262D2*
Y1493338D1*
X414778Y1519907D2*
Y1508447D1*
X427678Y1507306D1*
X426252Y1508447D1*
X424793Y1511895D1*
Y1515318D1*
X426252Y1518766D1*
X429104Y1521075D1*
X433415Y1522215D1*
X436267D1*
X440578Y1521075D1*
X443463Y1518766D1*
X444889Y1515318D1*
Y1511895D1*
X443463Y1508447D1*
X442004Y1507306D1*
X439152Y1506138D1*
X421908Y1564463D2*
X419056Y1563322D1*
X416171Y1561014D1*
X414745Y1558733D1*
Y1554143D1*
X416171Y1551835D1*
X419056Y1549554D1*
X421908Y1548386D1*
X426219Y1547246D1*
X433415D1*
X437693Y1548386D1*
X440578Y1549554D1*
X443430Y1551835D1*
X444889Y1554143D1*
Y1558733D1*
X443430Y1561014D1*
X440578Y1563322D1*
X437693Y1564463D1*
X414745Y1577263D2*
X444889D1*
X414745Y1593340D2*
X444889D1*
X429104Y1577263D2*
Y1593340D1*
X414778Y1619909D2*
Y1608448D1*
X427678Y1607307D1*
X426252Y1608448D1*
X424793Y1611897D1*
Y1615319D1*
X426252Y1618768D1*
X429104Y1621076D1*
X433415Y1622217D1*
X436267D1*
X440578Y1621076D1*
X443463Y1618768D1*
X444889Y1615319D1*
Y1611897D1*
X443463Y1608448D1*
X442004Y1607307D1*
X439152Y1606140D1*
X421908Y1664463D2*
X419056Y1663322D1*
X416171Y1661014D1*
X414745Y1658733D1*
Y1654143D1*
X416171Y1651835D1*
X419056Y1649554D1*
X421908Y1648386D1*
X426219Y1647246D1*
X433415D1*
X437693Y1648386D1*
X440578Y1649554D1*
X443430Y1651835D1*
X444889Y1654143D1*
Y1658733D1*
X443430Y1661014D1*
X440578Y1663322D1*
X437693Y1664463D1*
X414745Y1677263D2*
X444889D1*
X414745Y1693340D2*
X444889D1*
X429104Y1677263D2*
Y1693340D1*
X419056Y1719909D2*
X416204Y1718768D1*
X414778Y1715319D1*
Y1713037D1*
X416204Y1709589D1*
X420515Y1707281D1*
X427678Y1706140D1*
X434841D1*
X440578Y1707281D1*
X443463Y1709589D1*
X444889Y1713037D1*
Y1714178D1*
X443463Y1717600D1*
X440578Y1719909D1*
X436267Y1721049D1*
X434841D1*
X430530Y1719909D1*
X427678Y1717600D1*
X426252Y1714178D1*
Y1713037D1*
X427678Y1709589D1*
X430530Y1707281D1*
X434841Y1706140D1*
X493904Y1134365D2*
X463760Y1125160D1*
X493904Y1115980D1*
X483856Y1119429D2*
Y1130916D1*
X463793Y1154063D2*
X465219Y1150614D1*
X469530Y1148306D1*
X476693Y1147165D1*
X481004D1*
X488167Y1148306D1*
X492478Y1150614D1*
X493904Y1154063D1*
Y1156344D1*
X492478Y1159793D1*
X488167Y1162075D1*
X481004Y1163242D1*
X476693D1*
X469530Y1162075D1*
X465219Y1159793D1*
X463793Y1156344D1*
Y1154063D1*
X469530Y1162075D2*
X488167Y1148306D1*
X643904Y1134365D2*
X613760Y1125160D1*
X643904Y1115980D1*
X633856Y1119429D2*
Y1130916D1*
X613793Y1154063D2*
X615219Y1150614D1*
X619530Y1148306D1*
X626693Y1147165D1*
X631004D1*
X638167Y1148306D1*
X642478Y1150614D1*
X643904Y1154063D1*
Y1156344D1*
X642478Y1159793D1*
X638167Y1162075D1*
X631004Y1163242D1*
X626693D1*
X619530Y1162075D1*
X615219Y1159793D1*
X613793Y1156344D1*
Y1154063D1*
X619530Y1162075D2*
X638167Y1148306D1*
X493904Y896865D2*
X463760Y887660D1*
X493904Y878480D1*
X483856Y881929D2*
Y893416D1*
X463793Y916563D2*
X465219Y913114D1*
X469530Y910806D1*
X476693Y909665D1*
X481004D1*
X488167Y910806D1*
X492478Y913114D1*
X493904Y916563D1*
Y918844D1*
X492478Y922293D1*
X488167Y924575D1*
X481004Y925742D1*
X476693D1*
X469530Y924575D1*
X465219Y922293D1*
X463793Y918844D1*
Y916563D1*
X469530Y924575D2*
X488167Y910806D1*
X643904Y896865D2*
X613760Y887660D1*
X643904Y878480D1*
X633856Y881929D2*
Y893416D1*
X613793Y916563D2*
X615219Y913114D1*
X619530Y910806D1*
X626693Y909665D1*
X631004D1*
X638167Y910806D1*
X642478Y913114D1*
X643904Y916563D1*
Y918844D1*
X642478Y922293D1*
X638167Y924575D1*
X631004Y925742D1*
X626693D1*
X619530Y924575D1*
X615219Y922293D1*
X613793Y918844D1*
Y916563D1*
X619530Y924575D2*
X638167Y910806D1*
X1664745Y1922246D2*
X1694889Y1928002D1*
X1664745Y1933733D1*
X1694889Y1939463D1*
X1664745Y1945220D1*
X1680530Y1958020D2*
Y1968366D1*
X1679104Y1971789D1*
X1677645Y1972956D1*
X1674793Y1974097D1*
X1670482D1*
X1667630Y1972956D1*
X1666171Y1971789D1*
X1664745Y1968366D1*
Y1958020D1*
X1694889D1*
X1281556Y1663322D2*
X1278671Y1661041D1*
X1277245Y1657592D1*
Y1653002D1*
X1278671Y1649554D1*
X1281556Y1647246D1*
X1284408D1*
X1287293Y1648413D1*
X1288719Y1649554D1*
X1290145Y1651835D1*
X1293030Y1658733D1*
X1294456Y1661041D1*
X1295915Y1662182D1*
X1298767Y1663322D1*
X1303078D1*
X1305930Y1661041D1*
X1307389Y1657592D1*
Y1653002D1*
X1305930Y1649554D1*
X1303078Y1647246D1*
X1284408Y1693340D2*
X1281556Y1692199D1*
X1278671Y1689891D1*
X1277245Y1687609D1*
Y1683020D1*
X1278671Y1680712D1*
X1281556Y1678430D1*
X1284408Y1677263D1*
X1288719Y1676122D1*
X1295915D1*
X1300193Y1677263D1*
X1303078Y1678430D1*
X1305930Y1680712D1*
X1307389Y1683020D1*
Y1687609D1*
X1305930Y1689891D1*
X1303078Y1692199D1*
X1300193Y1693340D1*
X1277245Y1706140D2*
X1307389D1*
Y1719909D1*
X1281556Y1563322D2*
X1278671Y1561041D1*
X1277245Y1557592D1*
Y1553002D1*
X1278671Y1549554D1*
X1281556Y1547246D1*
X1284408D1*
X1287293Y1548413D1*
X1288719Y1549554D1*
X1290145Y1551835D1*
X1293030Y1558733D1*
X1294456Y1561041D1*
X1295915Y1562182D1*
X1298767Y1563322D1*
X1303078D1*
X1305930Y1561041D1*
X1307389Y1557592D1*
Y1553002D1*
X1305930Y1549554D1*
X1303078Y1547246D1*
X1277245Y1576122D2*
X1307389D1*
Y1584161D1*
X1305930Y1587609D1*
X1303078Y1589918D1*
X1300193Y1591058D1*
X1295915Y1592199D1*
X1288719D1*
X1284408Y1591058D1*
X1281556Y1589918D1*
X1278671Y1587609D1*
X1277245Y1584161D1*
Y1576122D1*
X1307389Y1623384D2*
X1277245Y1614178D1*
X1307389Y1604999D1*
X1297341Y1608448D2*
Y1619935D1*
X1284408Y1464463D2*
X1281556Y1463322D1*
X1278671Y1461014D1*
X1277245Y1458733D1*
Y1454143D1*
X1278671Y1451835D1*
X1281556Y1449554D1*
X1284408Y1448386D1*
X1288719Y1447246D1*
X1295915D1*
X1300193Y1448386D1*
X1303078Y1449554D1*
X1305930Y1451835D1*
X1307389Y1454143D1*
Y1458733D1*
X1305930Y1461014D1*
X1303078Y1463322D1*
X1300193Y1464463D1*
X1295915D1*
Y1458733D1*
X1277245Y1493340D2*
X1307389D1*
X1277245Y1477263D1*
X1307389D1*
X1277245Y1506140D2*
X1307389D1*
Y1514178D1*
X1305930Y1517627D1*
X1303078Y1519935D1*
X1300193Y1521076D1*
X1295915Y1522217D1*
X1288719D1*
X1284408Y1521076D1*
X1281556Y1519935D1*
X1278671Y1517627D1*
X1277245Y1514178D1*
Y1506140D1*
Y1375822D2*
X1307389D1*
X1277245Y1359746D1*
X1307389D1*
X1284408Y1405840D2*
X1281556Y1404699D1*
X1278671Y1402391D1*
X1277245Y1400109D1*
Y1395520D1*
X1278671Y1393212D1*
X1281556Y1390930D1*
X1284408Y1389763D1*
X1288719Y1388622D1*
X1295915D1*
X1300193Y1389763D1*
X1303078Y1390930D1*
X1305930Y1393212D1*
X1307389Y1395520D1*
Y1400109D1*
X1305930Y1402391D1*
X1303078Y1404699D1*
X1300193Y1405840D1*
X1277278Y1249554D2*
Y1262155D1*
X1288752Y1255284D1*
Y1258733D1*
X1290178Y1261014D1*
X1291604Y1262155D1*
X1295915Y1263322D1*
X1298767D1*
X1303078Y1262155D1*
X1305963Y1259873D1*
X1307389Y1256425D1*
Y1252976D1*
X1305963Y1249554D1*
X1304504Y1248413D1*
X1301652Y1247246D1*
X1277245Y1276122D2*
X1307389Y1285301D1*
X1277245Y1294481D1*
X1277278Y1309589D2*
Y1322190D1*
X1288752Y1315319D1*
Y1318768D1*
X1290178Y1321049D1*
X1291604Y1322190D1*
X1295915Y1323357D1*
X1298767D1*
X1303078Y1322190D1*
X1305963Y1319909D1*
X1307389Y1316460D1*
Y1313011D1*
X1305963Y1309589D1*
X1304504Y1308448D1*
X1301652Y1307281D1*
X856556Y2163322D2*
X853671Y2161041D1*
X852245Y2157592D1*
Y2153002D1*
X853671Y2149554D1*
X856556Y2147246D1*
X859408D1*
X862293Y2148413D1*
X863719Y2149554D1*
X865145Y2151835D1*
X868030Y2158733D1*
X869456Y2161041D1*
X870915Y2162182D1*
X873767Y2163322D1*
X878078D1*
X880930Y2161041D1*
X882389Y2157592D1*
Y2153002D1*
X880930Y2149554D1*
X878078Y2147246D1*
X859408Y2193340D2*
X856556Y2192199D1*
X853671Y2189891D1*
X852245Y2187609D1*
Y2183020D1*
X853671Y2180712D1*
X856556Y2178430D1*
X859408Y2177263D1*
X863719Y2176122D1*
X870915D1*
X875193Y2177263D1*
X878078Y2178430D1*
X880930Y2180712D1*
X882389Y2183020D1*
Y2187609D1*
X880930Y2189891D1*
X878078Y2192199D1*
X875193Y2193340D1*
X852245Y2206140D2*
X882389D1*
Y2219909D1*
X856556Y2063322D2*
X853671Y2061041D1*
X852245Y2057592D1*
Y2053002D1*
X853671Y2049554D1*
X856556Y2047246D1*
X859408D1*
X862293Y2048413D1*
X863719Y2049554D1*
X865145Y2051835D1*
X868030Y2058733D1*
X869456Y2061041D1*
X870915Y2062182D1*
X873767Y2063322D1*
X878078D1*
X880930Y2061041D1*
X882389Y2057592D1*
Y2053002D1*
X880930Y2049554D1*
X878078Y2047246D1*
X852245Y2076122D2*
X882389D1*
Y2084161D1*
X880930Y2087609D1*
X878078Y2089918D1*
X875193Y2091058D1*
X870915Y2092199D1*
X863719D1*
X859408Y2091058D1*
X856556Y2089918D1*
X853671Y2087609D1*
X852245Y2084161D1*
Y2076122D1*
X882389Y2123384D2*
X852245Y2114178D1*
X882389Y2104999D1*
X872341Y2108448D2*
Y2119935D1*
X859408Y1964463D2*
X856556Y1963322D1*
X853671Y1961014D1*
X852245Y1958733D1*
Y1954143D1*
X853671Y1951835D1*
X856556Y1949554D1*
X859408Y1948386D1*
X863719Y1947246D1*
X870915D1*
X875193Y1948386D1*
X878078Y1949554D1*
X880930Y1951835D1*
X882389Y1954143D1*
Y1958733D1*
X880930Y1961014D1*
X878078Y1963322D1*
X875193Y1964463D1*
X870915D1*
Y1958733D1*
X852245Y1993340D2*
X882389D1*
X852245Y1977263D1*
X882389D1*
X852245Y2006140D2*
X882389D1*
Y2014178D1*
X880930Y2017627D1*
X878078Y2019935D1*
X875193Y2021076D1*
X870915Y2022217D1*
X863719D1*
X859408Y2021076D1*
X856556Y2019935D1*
X853671Y2017627D1*
X852245Y2014178D1*
Y2006140D1*
Y1875822D2*
X882389D1*
X852245Y1859746D1*
X882389D1*
X859408Y1905840D2*
X856556Y1904699D1*
X853671Y1902391D1*
X852245Y1900109D1*
Y1895520D1*
X853671Y1893212D1*
X856556Y1890930D1*
X859408Y1889763D1*
X863719Y1888622D1*
X870915D1*
X875193Y1889763D1*
X878078Y1890930D1*
X880930Y1893212D1*
X882389Y1895520D1*
Y1900109D1*
X880930Y1902391D1*
X878078Y1904699D1*
X875193Y1905840D1*
X852278Y1749554D2*
Y1762155D1*
X863752Y1755284D1*
Y1758733D1*
X865178Y1761014D1*
X866604Y1762155D1*
X870915Y1763322D1*
X873767D1*
X878078Y1762155D1*
X880963Y1759873D1*
X882389Y1756425D1*
Y1752976D1*
X880963Y1749554D1*
X879504Y1748413D1*
X876652Y1747246D1*
X852245Y1776122D2*
X882389Y1785301D1*
X852245Y1794481D1*
X852278Y1809589D2*
Y1822190D1*
X863752Y1815319D1*
Y1818768D1*
X865178Y1821049D1*
X866604Y1822190D1*
X870915Y1823357D1*
X873767D1*
X878078Y1822190D1*
X880963Y1819909D1*
X882389Y1816460D1*
Y1813011D1*
X880963Y1809589D1*
X879504Y1808448D1*
X876652Y1807281D1*
X2148812Y2050424D2*
X2137351D1*
X2136211Y2037524D1*
X2137351Y2038950D1*
X2140800Y2040409D1*
X2144222D1*
X2147671Y2038950D1*
X2149979Y2036098D1*
X2151120Y2031787D1*
Y2028935D1*
X2149979Y2024624D1*
X2147671Y2021739D1*
X2144222Y2020313D1*
X2140800D1*
X2137351Y2021739D1*
X2136211Y2023198D1*
X2135043Y2026050D1*
X2163920Y2050457D2*
X2173099Y2020313D1*
X2182278Y2050457D1*
X2201976Y2050424D2*
X2198527Y2048998D1*
X2196219Y2044687D1*
X2195078Y2037524D1*
Y2033213D1*
X2196219Y2026050D1*
X2198527Y2021739D1*
X2201976Y2020313D1*
X2204258D1*
X2207706Y2021739D1*
X2209988Y2026050D1*
X2211155Y2033213D1*
Y2037524D1*
X2209988Y2044687D1*
X2207706Y2048998D1*
X2204258Y2050424D1*
X2201976D1*
X2209988Y2044687D2*
X2196219Y2026050D1*
X2251012Y2044545D2*
X2249871Y2047397D1*
X2247563Y2050282D1*
X2245281Y2051708D1*
X2240692D1*
X2238384Y2050282D1*
X2236102Y2047397D1*
X2234935Y2044545D1*
X2233794Y2040234D1*
Y2033038D1*
X2234935Y2028760D1*
X2236102Y2025875D1*
X2238384Y2023023D1*
X2240692Y2021564D1*
X2245281D1*
X2247563Y2023023D1*
X2249871Y2025875D1*
X2251012Y2028760D1*
Y2033038D1*
X2245281D1*
X2279888Y2051708D2*
Y2021564D1*
X2263812Y2051708D1*
Y2021564D1*
X2292688Y2051708D2*
Y2021564D1*
X2300727D1*
X2304176Y2023023D1*
X2306484Y2025875D1*
X2307624Y2028760D1*
X2308765Y2033038D1*
Y2040234D1*
X2307624Y2044545D1*
X2306484Y2047397D1*
X2304176Y2050282D1*
X2300727Y2051708D1*
X2292688D1*
X2360582D2*
Y2021564D1*
X2352543Y2051708D2*
X2368620D1*
X2381420D2*
X2397497Y2021564D1*
Y2051708D2*
X2381420Y2021564D1*
X2452543Y2037349D2*
X2462863D1*
X2466312Y2038808D1*
X2467479Y2040234D1*
X2468620Y2043086D1*
Y2045971D1*
X2467479Y2048823D1*
X2466312Y2050282D1*
X2462863Y2051708D1*
X2452543D1*
Y2021564D1*
X2460582Y2037349D2*
X2468620Y2021564D1*
X2481420Y2051708D2*
X2497497Y2021564D1*
Y2051708D2*
X2481420Y2021564D1*
M02*
