G04 DipTrace 3.0.0.1*
G04 pwm-controller.GBS*
%MOIN*%
G04 #@! TF.FileFunction,Soldermask,Bot*
G04 #@! TF.Part,Single*
%ADD33C,0.108268*%
%ADD42C,0.078819*%
%ADD44R,0.078819X0.078819*%
%ADD56C,0.070945*%
%ADD58R,0.070945X0.070945*%
%FSLAX26Y26*%
G04*
G70*
G90*
G75*
G01*
G04 BotMask*
%LPD*%
D58*
X510728Y1685630D3*
D56*
Y1585630D3*
Y1485630D3*
Y1385630D3*
Y1285630D3*
D58*
X2498228Y460630D3*
D56*
Y560630D3*
Y660630D3*
Y760630D3*
Y860630D3*
D58*
X2598228Y460630D3*
D56*
Y560630D3*
Y660630D3*
Y760630D3*
Y860630D3*
D58*
X799228Y460630D3*
D56*
Y560630D3*
Y660630D3*
Y760630D3*
Y860630D3*
D58*
X2073228Y2123130D3*
D56*
X2173228D3*
X2273228D3*
X2373228D3*
X2473228D3*
X2573228D3*
X2673228D3*
X2773228D3*
X2873228D3*
D58*
X1198228Y1285630D3*
D56*
Y1385630D3*
Y1485630D3*
Y1585630D3*
Y1685630D3*
D58*
X773228Y1785630D3*
D56*
Y1885630D3*
Y1985630D3*
Y2085630D3*
Y2185630D3*
D58*
X723228Y2410630D3*
D56*
X823228D3*
X923228D3*
X1023228D3*
X1123228D3*
X1223228D3*
X1323228D3*
X1423228D3*
X1523228D3*
X1623228D3*
X1723228D3*
X1823228D3*
X1923228D3*
X2023228D3*
X2123228D3*
X2223228D3*
X2323228D3*
X2423228D3*
X2523228D3*
X2623228D3*
D58*
X723228Y2510630D3*
D56*
X823228D3*
X923228D3*
X1023228D3*
X1123228D3*
X1223228D3*
X1323228D3*
X1423228D3*
X1523228D3*
X1623228D3*
X1723228D3*
X1823228D3*
X1923228D3*
X2023228D3*
X2123228D3*
X2223228D3*
X2323228D3*
X2423228D3*
X2523228D3*
X2623228D3*
D44*
X2198228Y660630D3*
D42*
Y760630D3*
Y860630D3*
D33*
X2814961Y531496D3*
X531496Y2460630D3*
Y531496D3*
X2814961Y2460630D3*
M02*
