G04 DipTrace 3.0.0.1*
G04 pwm-controller.GTL*
%MOIN*%
G04 #@! TF.FileFunction,Copper,L1,Top*
G04 #@! TF.Part,Single*
G04 #@! TA.AperFunction,Conductor*
%ADD14C,0.02*%
G04 #@! TA.AperFunction,ViaPad*
%ADD15C,0.025*%
G04 #@! TA.AperFunction,Conductor*
%ADD16C,0.01*%
%ADD17C,0.05*%
%ADD18R,0.043307X0.03937*%
G04 #@! TA.AperFunction,ComponentPad*
%ADD19R,0.066929X0.066929*%
%ADD20C,0.066929*%
%ADD21R,0.025X0.06*%
%ADD22R,0.03X0.06*%
%ADD24R,0.041339X0.025591*%
%ADD25R,0.03937X0.043307*%
%ADD26R,0.015748X0.070866*%
G04 #@! TA.AperFunction,ComponentPad*
%ADD27R,0.074803X0.074803*%
%ADD28C,0.074803*%
%ADD30R,0.043307X0.023622*%
%ADD31R,0.07874X0.023622*%
%FSLAX26Y26*%
G04*
G70*
G90*
G75*
G01*
G04 Top*
%LPD*%
X723228Y2510630D2*
D14*
X823228D1*
X1981004Y898031D2*
D15*
X2023130D1*
X2173228Y1048130D1*
Y2123130D1*
X1981004Y898031D2*
D16*
X1973327D1*
X1935728Y935630D1*
Y998130D1*
X1923228Y1010630D1*
X1873228D1*
X1860728Y998130D1*
Y960630D1*
X1823228Y923130D1*
X1760728D1*
X1748228Y910630D1*
Y873130D1*
X1760728Y860630D1*
X1801378D1*
X504479Y1048130D2*
Y975344D1*
X519193Y960630D1*
X504479Y1048130D2*
Y1091881D1*
X523228Y1110630D1*
X648228D1*
X710728Y1173130D1*
Y1223130D1*
X654479Y1048130D2*
Y975344D1*
X669193Y960630D1*
X654479Y1048130D2*
Y1079381D1*
X736319Y1161220D1*
Y1223130D1*
X504479Y810630D2*
Y737844D1*
X519193Y723130D1*
X761909Y1223130D2*
Y974311D1*
X660728Y873130D1*
X523228D1*
X504479Y854381D1*
Y810630D1*
X654479D2*
Y737844D1*
X669193Y723130D1*
X787500Y1223130D2*
Y962402D1*
X654479Y829381D1*
Y810630D1*
X923228Y2285630D2*
X973228D1*
X1023228Y2335630D1*
Y2410630D1*
X2198228Y760630D2*
D15*
X2298228D1*
X2398228Y860630D1*
X2598228D1*
X2498228D2*
D16*
X2598228D1*
X787500Y1451476D2*
X813091D1*
X787500D2*
Y1499902D1*
X810728Y1523130D1*
X1969193Y973130D2*
D14*
X2010728D1*
X1902264Y748130D2*
X1860728D1*
X1714764D2*
D16*
X1673228D1*
X1781693Y973130D2*
X1823228D1*
X2273228Y2123130D2*
Y2235630D1*
X2198228Y2310630D1*
X1185728D1*
X1123228Y2373130D1*
Y2410630D1*
X923228Y2510630D2*
D14*
X973228Y2460630D1*
X1048228D1*
X1098228Y2410630D1*
X1123228D1*
X452264Y723130D2*
D16*
X448228D1*
Y760630D1*
Y923130D2*
Y956594D1*
X452264Y960630D1*
X602264D2*
X560728D1*
X602264Y723130D2*
X560728D1*
X1043406Y1223130D2*
Y1177953D1*
X1060728Y1160630D1*
X813091Y1223130D2*
Y1133268D1*
X835728Y1110630D1*
X935728Y1535630D2*
X985924D1*
X1779478Y1948130D2*
Y2041879D1*
X1798228Y2060630D1*
X1867028D1*
Y2210630D2*
Y2160630D1*
Y2110630D1*
Y2060630D1*
X1935730D1*
X838681Y1223130D2*
Y1145177D1*
X885728Y1098130D1*
Y798130D1*
X848228Y760630D1*
X799228D1*
X864272Y1223130D2*
Y1157087D1*
X923228Y1098130D1*
Y735630D1*
X848228Y660630D1*
X799228D1*
X889862Y1223130D2*
Y1168996D1*
X960728Y1098130D1*
Y673130D1*
X848228Y560630D1*
X799228D1*
X915453Y1223130D2*
Y1268406D1*
X898228Y1285630D1*
X510728D1*
X941043Y1223130D2*
Y1280315D1*
X910728Y1310630D1*
X610728D1*
X535728Y1385630D1*
X510728D1*
X966634Y1223130D2*
Y1292224D1*
X923228Y1335630D1*
X623228D1*
X573228Y1385630D1*
Y1473130D1*
X560728Y1485630D1*
X510728D1*
X992224Y1223130D2*
Y1304134D1*
X935728Y1360630D1*
X635728D1*
X598228Y1398130D1*
Y1548130D1*
X560728Y1585630D1*
X510728D1*
Y1685630D2*
X573228D1*
X623228Y1635630D1*
Y1410630D1*
X648228Y1385630D1*
X948228D1*
X1017815Y1316043D1*
Y1223130D1*
X1654429Y2110630D2*
X1556693D1*
X1741978Y1948130D2*
Y2091881D1*
X1723228Y2110630D1*
X1654429D1*
X838681Y1451476D2*
Y1505512D1*
X868799Y1535630D1*
X2198228Y660630D2*
D15*
Y560630D1*
X2298228Y460630D1*
X2598228D1*
D17*
X2498228D1*
X1969193Y748130D2*
D14*
X2110728D1*
X2198228Y660630D1*
X1890453Y860630D2*
D15*
X2198228D1*
X1801378Y898031D2*
D16*
X1835827D1*
X1873228Y860630D1*
X1890453D1*
X1902264Y973130D2*
D14*
Y872441D1*
X1890453Y860630D1*
X1801378Y823228D2*
D16*
Y767815D1*
X1781693Y748130D1*
X1801378Y823228D2*
X1981004D1*
X1695079D2*
Y860630D1*
Y898031D2*
Y860630D1*
Y898031D2*
Y953445D1*
X1714764Y973130D1*
X2498228Y560630D2*
D14*
X2598228D1*
X2498228Y660630D2*
X2598228D1*
X2498228Y760630D2*
X2598228D1*
X1123228Y2510630D2*
D16*
X1135728D1*
X1185728Y2460630D1*
X1248228D1*
X1273228Y2435630D1*
Y2385630D1*
X1298228Y2360630D1*
X2348228D1*
X2473228Y2235630D1*
Y2123130D1*
X761909Y1451476D2*
Y1599311D1*
X873228Y1710630D1*
Y2085630D1*
X773228Y2185630D1*
Y2198130D1*
X923228Y2348130D1*
Y2410630D1*
X1098228Y1627165D2*
X1139764D1*
X1198228Y1685630D1*
X1654429Y2160630D2*
X1569193D1*
X1556693Y2173130D1*
X1654429Y2160630D2*
X1723228D1*
X1810728Y2248130D1*
X2035728D1*
X2073228Y2285630D1*
X736319Y1451476D2*
Y1611220D1*
X848228Y1723130D1*
Y2010630D1*
X773228Y2085630D1*
X710728Y2148130D1*
Y2235630D1*
X823228Y2348130D1*
Y2410630D1*
X1098228Y1569094D2*
X1181693D1*
X1198228Y1585630D1*
X1654429Y2210630D2*
X1581693D1*
X1556693Y2235630D1*
X1654429Y2210630D2*
X1735728D1*
X1798228Y2273130D1*
X2010728D1*
X2023228Y2285630D1*
X1023228Y2510630D2*
X1048228D1*
X1098228Y2460630D1*
X1148228D1*
X1173228Y2435630D1*
Y2360630D1*
X1198228Y2335630D1*
X2273228D1*
X2373228Y2235630D1*
Y2123130D1*
X616979Y1048130D2*
Y1016879D1*
X635728Y998130D1*
Y923130D1*
X623228Y910630D1*
X498228D1*
X485728Y923130D1*
Y998130D1*
X466979Y1016879D1*
Y1048130D1*
X616979Y810630D2*
Y779379D1*
X635728Y760630D1*
Y685629D1*
X616979Y666879D1*
X504479D1*
X485728Y685630D1*
Y760630D1*
X466979Y779379D1*
Y810630D1*
X460728D1*
X416978Y854381D1*
Y1004379D1*
X473228Y1060630D1*
Y1048130D1*
X466979D1*
X710728Y1451476D2*
Y1723130D1*
X773228Y1785630D1*
X723228Y2410630D2*
X535728Y2223130D1*
Y1885630D1*
X635728Y1785630D1*
X773228D1*
X466979Y1048130D2*
Y1104381D1*
X523228Y1160630D1*
X598228D1*
X635728Y1198130D1*
X660728Y1423130D2*
X685728Y1448130D1*
X707382D1*
X710728Y1451476D1*
X1098228Y1502165D2*
Y1385630D1*
X1198228Y1285630D1*
X1098228Y1502165D2*
X1094193D1*
X1048228Y1548130D1*
Y1648130D1*
X1094193Y1694094D1*
X1098228D1*
X1489764Y2235630D2*
Y2110630D1*
Y2173130D2*
Y2110630D1*
X1654429Y2060630D2*
X1510728D1*
X1485728Y2085630D1*
Y2106594D1*
X1489764Y2110630D1*
X1073228Y2348130D2*
X1110728D1*
X1173228Y2285630D1*
X1439764D1*
X1489764Y2235630D1*
D15*
X923228Y2285630D3*
X810728Y1523130D3*
X2010728Y973130D3*
X1860728Y748130D3*
X1673228D3*
X1823228Y973130D3*
X448228Y760630D3*
Y923130D3*
X560728Y960630D3*
Y723130D3*
X1060728Y1160630D3*
X835728Y1110630D3*
X985924Y1535630D3*
X1935730Y2060630D3*
X2073228Y2285630D3*
X2023228D3*
X635728Y1198130D3*
X660728Y1423130D3*
X1073228Y2348130D3*
D18*
X1969193Y748130D3*
X1902264D3*
Y973130D3*
X1969193D3*
D19*
X510728Y1685630D3*
D20*
Y1585630D3*
Y1485630D3*
Y1385630D3*
Y1285630D3*
D19*
X2498228Y460630D3*
D20*
Y560630D3*
Y660630D3*
Y760630D3*
Y860630D3*
D19*
X2598228Y460630D3*
D20*
Y560630D3*
Y660630D3*
Y760630D3*
Y860630D3*
D19*
X799228Y460630D3*
D20*
Y560630D3*
Y660630D3*
Y760630D3*
Y860630D3*
D19*
X2073228Y2123130D3*
D20*
X2173228D3*
X2273228D3*
X2373228D3*
X2473228D3*
X2573228D3*
X2673228D3*
X2773228D3*
X2873228D3*
D19*
X1198228Y1285630D3*
D20*
Y1385630D3*
Y1485630D3*
Y1585630D3*
Y1685630D3*
D19*
X773228Y1785630D3*
D20*
Y1885630D3*
Y1985630D3*
Y2085630D3*
Y2185630D3*
D19*
X723228Y2410630D3*
D20*
X823228D3*
X923228D3*
X1023228D3*
X1123228D3*
X1223228D3*
X1323228D3*
X1423228D3*
X1523228D3*
X1623228D3*
X1723228D3*
X1823228D3*
X1923228D3*
X2023228D3*
X2123228D3*
X2223228D3*
X2323228D3*
X2423228D3*
X2523228D3*
X2623228D3*
D19*
X723228Y2510630D3*
D20*
X823228D3*
X923228D3*
X1023228D3*
X1123228D3*
X1223228D3*
X1323228D3*
X1423228D3*
X1523228D3*
X1623228D3*
X1723228D3*
X1823228D3*
X1923228D3*
X2023228D3*
X2123228D3*
X2223228D3*
X2323228D3*
X2423228D3*
X2523228D3*
X2623228D3*
D21*
X504479Y1048130D3*
X466979D3*
X654479D3*
X616979D3*
X504479Y810630D3*
X466979D3*
X654479D3*
X616979D3*
D22*
X1741978Y1948130D3*
X1779478D3*
D24*
X1981004Y823228D3*
Y898031D3*
X1890453Y860630D3*
D18*
X452264Y960630D3*
X519193D3*
X602264D3*
X669193D3*
X452264Y723130D3*
X519193D3*
X602264D3*
X669193D3*
D25*
X1098228Y1502165D3*
Y1569094D3*
Y1694094D3*
Y1627165D3*
D18*
X935728Y1535630D3*
X868799D3*
X1781693Y973130D3*
X1714764D3*
X1781693Y748130D3*
X1714764D3*
X1489764Y2110630D3*
X1556693D3*
X1489764Y2235630D3*
X1556693D3*
X1489764Y2173130D3*
X1556693D3*
D26*
X710728Y1223130D3*
X736319D3*
X761909D3*
X787500D3*
X813091D3*
X838681D3*
X864272D3*
X889862D3*
X915453D3*
X941043D3*
X966634D3*
X992224D3*
X1017815D3*
X1043406D3*
Y1451484D3*
X1017815Y1451476D3*
X992224D3*
X966634D3*
X941043D3*
X915453D3*
X889862D3*
X864272D3*
X838681D3*
X813091D3*
X787500D3*
X761909D3*
X736319D3*
X710728D3*
D27*
X2198228Y660630D3*
D28*
Y760630D3*
Y860630D3*
D30*
X1695079Y898031D3*
Y860630D3*
Y823228D3*
X1801378D3*
Y860630D3*
Y898031D3*
D31*
X1867028Y2060630D3*
Y2110630D3*
Y2160630D3*
Y2210630D3*
X1654429D3*
Y2160630D3*
Y2110630D3*
Y2060630D3*
M02*
