G04 DipTrace 3.0.0.1*
G04 pwm-controller.GBL*
%MOIN*%
G04 #@! TF.FileFunction,Copper,L2,Bot*
G04 #@! TF.Part,Single*
G04 #@! TA.AperFunction,Conductor*
%ADD14C,0.02*%
G04 #@! TA.AperFunction,CopperBalancing*
%ADD15C,0.025*%
G04 #@! TA.AperFunction,Conductor*
%ADD16C,0.01*%
G04 #@! TA.AperFunction,ComponentPad*
%ADD19R,0.066929X0.066929*%
%ADD20C,0.066929*%
%ADD27R,0.074803X0.074803*%
%ADD28C,0.074803*%
%FSLAX26Y26*%
G04*
G70*
G90*
G75*
G01*
G04 Bottom*
%LPD*%
X823228Y2510630D2*
D14*
X835728D1*
X885728Y2460630D1*
X1948228D1*
X1973228Y2435630D1*
Y2285630D1*
X2010728Y2248130D1*
X2148228D1*
X2173228Y2223130D1*
Y2123130D1*
X799228Y860630D2*
D16*
Y847129D1*
X791978Y854379D1*
X748228Y810630D1*
Y710629D1*
X704479Y666879D1*
X448228D1*
X416978Y698130D1*
Y2166879D1*
X535728Y2285630D1*
X923228D1*
X810728Y1523130D2*
X823228D1*
X2010728Y973130D2*
D14*
X2035728D1*
X1860728Y748130D2*
X1835728D1*
X1673228D2*
D16*
X1660728D1*
X1823228Y973130D2*
Y948130D1*
X448228Y760630D2*
X479478D1*
X448228Y885630D2*
Y923130D1*
X560728Y960630D2*
Y941881D1*
Y723130D2*
Y710630D1*
X566978Y704381D1*
X1060728Y1160630D2*
X1085728D1*
X835728Y1110630D2*
X829478Y1104381D1*
X835728Y1098130D1*
X985924Y1535630D2*
X1010728D1*
X1935730Y2060630D2*
X1929479Y2054379D1*
X773228Y2185630D2*
X1198228Y1760630D1*
Y1685630D1*
X2073228Y2285630D2*
Y2460630D1*
X2023228Y2510630D1*
X773228Y2085630D2*
X1123228Y1735630D1*
Y1660630D1*
X1198228Y1585630D1*
X2023228Y2285630D2*
Y2410630D1*
X635728Y1198130D2*
X660728Y1223130D1*
Y1423130D1*
X773228Y1785630D2*
X835728D1*
X1085728Y1535630D1*
Y1398130D1*
X1198228Y1285630D1*
X723228Y2410630D2*
X773228Y2360630D1*
X1060728D1*
X1073228Y2348130D1*
D15*
X923228Y2285630D3*
X810728Y1523130D3*
X2010728Y973130D3*
X1860728Y748130D3*
X1673228D3*
X1823228Y973130D3*
X448228Y760630D3*
Y923130D3*
X560728Y960630D3*
Y723130D3*
X1060728Y1160630D3*
X835728Y1110630D3*
X985924Y1535630D3*
X1935730Y2060630D3*
X2073228Y2285630D3*
X2023228D3*
X635728Y1198130D3*
X660728Y1423130D3*
X1073228Y2348130D3*
X653243Y2523261D2*
X663745D1*
X881270D2*
X965186D1*
X2681270D2*
X2693259D1*
X897823Y2498392D2*
X965089D1*
X2668966Y2473524D2*
X2678375D1*
X2668135Y2448655D2*
X2678323D1*
X1081173Y2423786D2*
X1165283D1*
X653682Y2398917D2*
X663797D1*
X1081466D2*
X1164991D1*
X2681466D2*
X2692756D1*
X637178Y2374049D2*
X663770D1*
X1100703D2*
X1177051D1*
X1269406D2*
X1277089D1*
X1369406D2*
X1377089D1*
X1469406D2*
X1477089D1*
X1569406D2*
X1577089D1*
X1669406D2*
X1677089D1*
X1769406D2*
X1777089D1*
X1869406D2*
X1877089D1*
X2169406D2*
X2177089D1*
X2269406D2*
X2277089D1*
X2369406D2*
X2377089D1*
X2469406D2*
X2477089D1*
X2569406D2*
X2577089D1*
X2669406D2*
X2709278D1*
X438253Y2349180D2*
X453399D1*
X609591D2*
X741895D1*
X1111690D2*
X1937207D1*
X2104219D2*
X2736866D1*
X2893087D2*
X2908189D1*
X438253Y2324311D2*
X1043751D1*
X1102706D2*
X1937207D1*
X2104219D2*
X2908203D1*
X438253Y2299442D2*
X506739D1*
X958955D2*
X1937207D1*
X2108955D2*
X2908203D1*
X438253Y2274573D2*
X481886D1*
X959982D2*
X1939112D1*
X2171310D2*
X2908203D1*
X438253Y2249705D2*
X457009D1*
X542598D2*
X918409D1*
X928070D2*
X1959278D1*
X2196554D2*
X2908203D1*
X517745Y2224836D2*
X729395D1*
X817062D2*
X1984131D1*
X2209199D2*
X2908203D1*
X492891Y2199967D2*
X715577D1*
X830879D2*
X2137207D1*
X2209249D2*
X2908203D1*
X467990Y2175098D2*
X714747D1*
X831710D2*
X2013770D1*
X2209249D2*
X2347413D1*
X2399043D2*
X2447413D1*
X2499043D2*
X2547413D1*
X2599043D2*
X2647413D1*
X2699043D2*
X2747413D1*
X2799043D2*
X2847413D1*
X2899043D2*
X2908201D1*
X447970Y2150230D2*
X726075D1*
X851437D2*
X2013770D1*
X2225850D2*
X2320606D1*
X447970Y2125361D2*
X729883D1*
X876290D2*
X2013770D1*
X2232638D2*
X2313819D1*
X447970Y2100492D2*
X715723D1*
X901192D2*
X2013770D1*
X2227999D2*
X2318458D1*
X447970Y2075623D2*
X714650D1*
X831807D2*
X840444D1*
X926046D2*
X2013770D1*
X2207150D2*
X2339307D1*
X2407150D2*
X2439307D1*
X2507150D2*
X2539307D1*
X2607150D2*
X2639307D1*
X2707150D2*
X2739307D1*
X2807150D2*
X2839307D1*
X447970Y2050755D2*
X725685D1*
X850899D2*
X865345D1*
X950899D2*
X2908203D1*
X447970Y2025886D2*
X790186D1*
X875802D2*
X890130D1*
X975802D2*
X2908203D1*
X447970Y2001017D2*
X815039D1*
X900655D2*
X915039D1*
X1000655D2*
X2908203D1*
X447970Y1976148D2*
X839894D1*
X925509D2*
X939894D1*
X1025509D2*
X2908203D1*
X447970Y1951280D2*
X864795D1*
X950362D2*
X964795D1*
X1050362D2*
X2908203D1*
X447970Y1926411D2*
X730958D1*
X815499D2*
X889650D1*
X975265D2*
X989650D1*
X1075265D2*
X2908203D1*
X447970Y1901542D2*
X716017D1*
X830440D2*
X914503D1*
X1000118D2*
X1014503D1*
X1100118D2*
X2908203D1*
X447970Y1876673D2*
X714454D1*
X832003D2*
X939356D1*
X1024971D2*
X1039356D1*
X1124971D2*
X2908203D1*
X447970Y1851804D2*
X724903D1*
X821554D2*
X964259D1*
X1049874D2*
X1064259D1*
X1149874D2*
X2908203D1*
X447970Y1826936D2*
X713770D1*
X832686D2*
X989112D1*
X1074727D2*
X1089112D1*
X1174727D2*
X2908203D1*
X447970Y1802067D2*
X713770D1*
X862081D2*
X1013966D1*
X1099581D2*
X1113966D1*
X1199581D2*
X2908203D1*
X447970Y1777198D2*
X713770D1*
X886983D2*
X1038867D1*
X1124483D2*
X1138867D1*
X1223898D2*
X2908203D1*
X447970Y1752329D2*
X713770D1*
X911837D2*
X1063722D1*
X1148799D2*
X1163722D1*
X1229219D2*
X2908203D1*
X570186Y1727461D2*
X851075D1*
X936690D2*
X1088575D1*
X1239375D2*
X2908203D1*
X570186Y1702592D2*
X875978D1*
X961593D2*
X1092238D1*
X1255098D2*
X2908203D1*
X570186Y1677723D2*
X900831D1*
X986446D2*
X1092238D1*
X1257150D2*
X2908203D1*
X570186Y1652854D2*
X925685D1*
X1011299D2*
X1093311D1*
X1247335D2*
X2908203D1*
X447970Y1627986D2*
X470118D1*
X551339D2*
X950587D1*
X1036202D2*
X1113087D1*
X1238839D2*
X2908203D1*
X567451Y1603117D2*
X975440D1*
X1061055D2*
X1137940D1*
X1254951D2*
X2908203D1*
X569698Y1578248D2*
X1000294D1*
X1085909D2*
X1139259D1*
X1257198D2*
X2908203D1*
X447970Y1553379D2*
X461280D1*
X560177D2*
X1025196D1*
X1110518D2*
X1148780D1*
X1247677D2*
X2908203D1*
X447970Y1528511D2*
X470753D1*
X550703D2*
X1050050D1*
X1116719D2*
X2908203D1*
X567257Y1503642D2*
X1054738D1*
X1116719D2*
X2908203D1*
X569795Y1478773D2*
X1054738D1*
X1116719D2*
X2908203D1*
X447970Y1453904D2*
X460938D1*
X560518D2*
X639551D1*
X681906D2*
X1054738D1*
X1116719D2*
X2908203D1*
X447970Y1429035D2*
X471339D1*
X550118D2*
X622706D1*
X698751D2*
X1054738D1*
X1116719D2*
X1158839D1*
X1237618D2*
X2908203D1*
X567110Y1404167D2*
X627638D1*
X693819D2*
X1054738D1*
X1122482D2*
X1141846D1*
X1254610D2*
X2908203D1*
X569845Y1379298D2*
X629738D1*
X691719D2*
X1061818D1*
X1257345D2*
X2908203D1*
X447970Y1354429D2*
X460547D1*
X560909D2*
X629738D1*
X691719D2*
X1086622D1*
X1248409D2*
X2908203D1*
X447970Y1329560D2*
X471974D1*
X549483D2*
X629738D1*
X691719D2*
X1111475D1*
X1257686D2*
X2908203D1*
X566915Y1304692D2*
X629738D1*
X691719D2*
X1136378D1*
X1257686D2*
X2908203D1*
X569894Y1279823D2*
X629738D1*
X691719D2*
X1138770D1*
X1257686D2*
X2908203D1*
X447970Y1254954D2*
X460206D1*
X561251D2*
X629738D1*
X691719D2*
X1138770D1*
X1257686D2*
X2908203D1*
X447970Y1230085D2*
X495606D1*
X525850D2*
X616651D1*
X691719D2*
X1138770D1*
X1257686D2*
X2908203D1*
X447970Y1205217D2*
X597950D1*
X685371D2*
X2908203D1*
X447970Y1180348D2*
X601906D1*
X669551D2*
X2908203D1*
X447970Y1155479D2*
X2908203D1*
X447970Y1130610D2*
X2908203D1*
X447970Y1105741D2*
X2908203D1*
X447970Y1080873D2*
X2908203D1*
X447970Y1056004D2*
X2908203D1*
X447970Y1031135D2*
X2908203D1*
X447970Y1006266D2*
X2908203D1*
X447970Y981398D2*
X2908203D1*
X447970Y956529D2*
X2908203D1*
X447970Y931660D2*
X2908203D1*
X447970Y906791D2*
X763331D1*
X835127D2*
X2156007D1*
X2240450D2*
X2908203D1*
X447970Y881923D2*
X743898D1*
X854562D2*
X2138673D1*
X2257783D2*
X2908203D1*
X447970Y857054D2*
X739894D1*
X858566D2*
X2134913D1*
X2261543D2*
X2908203D1*
X447970Y832185D2*
X727003D1*
X851094D2*
X2141895D1*
X2254562D2*
X2908203D1*
X447970Y807316D2*
X717238D1*
X834346D2*
X2166310D1*
X2230147D2*
X2463087D1*
X2533370D2*
X2563087D1*
X2633370D2*
X2908203D1*
X447970Y782448D2*
X717238D1*
X854366D2*
X2443115D1*
X2653341D2*
X2908203D1*
X447970Y757579D2*
X717238D1*
X858614D2*
X2438867D1*
X2657589D2*
X2908203D1*
X447970Y732710D2*
X717238D1*
X851387D2*
X2446094D1*
X2650362D2*
X2908203D1*
X450070Y707841D2*
X702638D1*
X833614D2*
X2134815D1*
X2261642D2*
X2463867D1*
X2632589D2*
X2908203D1*
X854122Y682972D2*
X2134815D1*
X2261642D2*
X2443311D1*
X2653146D2*
X2908203D1*
X858614Y658104D2*
X2134815D1*
X2261642D2*
X2438819D1*
X2657638D2*
X2766554D1*
X2863399D2*
X2908203D1*
X622238Y633235D2*
X746778D1*
X851681D2*
X2134815D1*
X2261642D2*
X2445802D1*
X2650655D2*
X2724219D1*
X644601Y608366D2*
X765626D1*
X832833D2*
X2134815D1*
X2261642D2*
X2464650D1*
X2631807D2*
X2701856D1*
X658223Y583497D2*
X744532D1*
X853878D2*
X2443555D1*
X2652902D2*
X2688234D1*
X665890Y558629D2*
X739795D1*
X858663D2*
X2438819D1*
X2657638D2*
X2680567D1*
X668673Y533760D2*
X746486D1*
X851974D2*
X2445509D1*
X2650948D2*
X2677783D1*
X666769Y508891D2*
X772902D1*
X825558D2*
X2438770D1*
X2657686D2*
X2679688D1*
X660030Y484022D2*
X2438770D1*
X2657686D2*
X2686427D1*
X647579Y459154D2*
X2438770D1*
X2657686D2*
X2698878D1*
X627218Y434285D2*
X2438770D1*
X2657686D2*
X2719239D1*
X466264Y1742594D2*
X567693D1*
Y1628665D1*
X548016D1*
X554045Y1622626D1*
X559299Y1615394D1*
X563357Y1607429D1*
X566119Y1598928D1*
X567517Y1590100D1*
Y1581160D1*
X566119Y1572332D1*
X563357Y1563831D1*
X559299Y1555866D1*
X554045Y1548634D1*
X547724Y1542314D1*
X540492Y1537059D1*
X537976Y1535651D1*
X544211Y1531715D1*
X551008Y1525909D1*
X556814Y1519113D1*
X561484Y1511491D1*
X564906Y1503234D1*
X566992Y1494541D1*
X567693Y1485630D1*
X566992Y1476719D1*
X564906Y1468026D1*
X561484Y1459769D1*
X556814Y1452147D1*
X551008Y1445350D1*
X544211Y1439545D1*
X537976Y1435651D1*
X544211Y1431715D1*
X551008Y1425909D1*
X556814Y1419113D1*
X561484Y1411491D1*
X564906Y1403234D1*
X566992Y1394541D1*
X567693Y1385630D1*
X566992Y1376719D1*
X564906Y1368026D1*
X561484Y1359769D1*
X556814Y1352147D1*
X551008Y1345350D1*
X544211Y1339545D1*
X537976Y1335651D1*
X544211Y1331715D1*
X551008Y1325909D1*
X556814Y1319113D1*
X561484Y1311491D1*
X564906Y1303234D1*
X566992Y1294541D1*
X567693Y1285630D1*
X566992Y1276719D1*
X564906Y1268026D1*
X561484Y1259769D1*
X556814Y1252147D1*
X551008Y1245350D1*
X544211Y1239545D1*
X536589Y1234874D1*
X528332Y1231453D1*
X519639Y1229366D1*
X510728Y1228665D1*
X501818Y1229366D1*
X493125Y1231453D1*
X484867Y1234874D1*
X477245Y1239545D1*
X470449Y1245350D1*
X464643Y1252147D1*
X459972Y1259769D1*
X456551Y1268026D1*
X454465Y1276719D1*
X453764Y1285630D1*
X454465Y1294541D1*
X456551Y1303234D1*
X459972Y1311491D1*
X464643Y1319113D1*
X470449Y1325909D1*
X477245Y1331715D1*
X483480Y1335609D1*
X477245Y1339545D1*
X470449Y1345350D1*
X464643Y1352147D1*
X459972Y1359769D1*
X456551Y1368026D1*
X454465Y1376719D1*
X453764Y1385630D1*
X454465Y1394541D1*
X456551Y1403234D1*
X459972Y1411491D1*
X464643Y1419113D1*
X470449Y1425909D1*
X477245Y1431715D1*
X483480Y1435609D1*
X477245Y1439545D1*
X470449Y1445350D1*
X464643Y1452147D1*
X459972Y1459769D1*
X456551Y1468026D1*
X454465Y1476719D1*
X453764Y1485630D1*
X454465Y1494541D1*
X456551Y1503234D1*
X459972Y1511491D1*
X464643Y1519113D1*
X470449Y1525909D1*
X477245Y1531715D1*
X483480Y1535609D1*
X477245Y1539545D1*
X470449Y1545350D1*
X464643Y1552147D1*
X459972Y1559769D1*
X456551Y1568026D1*
X454465Y1576719D1*
X453764Y1585630D1*
X454465Y1594541D1*
X456551Y1603234D1*
X459972Y1611491D1*
X464643Y1619113D1*
X470449Y1625909D1*
X473438Y1628673D1*
X453764Y1628665D1*
Y1742594D1*
X466264D1*
X856017Y556160D2*
X854619Y547332D1*
X851857Y538831D1*
X847799Y530866D1*
X842545Y523634D1*
X836224Y517314D1*
X828992Y512059D1*
X821028Y508001D1*
X812526Y505239D1*
X803698Y503841D1*
X794759D1*
X785930Y505239D1*
X777429Y508001D1*
X769465Y512059D1*
X762232Y517314D1*
X755912Y523634D1*
X750657Y530866D1*
X746600Y538831D1*
X743837Y547332D1*
X742440Y556160D1*
Y565100D1*
X743837Y573928D1*
X746600Y582429D1*
X750657Y590394D1*
X755912Y597626D1*
X762232Y603946D1*
X769465Y609201D1*
X771980Y610609D1*
X765745Y614545D1*
X758949Y620350D1*
X753143Y627147D1*
X748472Y634769D1*
X745051Y643026D1*
X742965Y651719D1*
X742264Y660630D1*
X742417Y664524D1*
X722988Y645207D1*
X717417Y641486D1*
X711133Y639167D1*
X704479Y638379D1*
X613415D1*
X626728Y626728D1*
X633907Y618963D1*
X640453Y610657D1*
X646328Y601865D1*
X651496Y592639D1*
X655923Y583035D1*
X659583Y573114D1*
X662453Y562936D1*
X664517Y552564D1*
X665760Y542063D1*
X666175Y531496D1*
X665760Y520929D1*
X664517Y510428D1*
X662453Y500056D1*
X659583Y489878D1*
X655923Y479957D1*
X651496Y470353D1*
X646328Y461127D1*
X640453Y452335D1*
X633907Y444029D1*
X626728Y436264D1*
X618963Y429085D1*
X611404Y423127D1*
X2441245Y423130D1*
X2441264Y517594D1*
X2460942D1*
X2454912Y523634D1*
X2449657Y530866D1*
X2445600Y538831D1*
X2442837Y547332D1*
X2441440Y556160D1*
Y565100D1*
X2442837Y573928D1*
X2445600Y582429D1*
X2449657Y590394D1*
X2454912Y597626D1*
X2461232Y603946D1*
X2468465Y609201D1*
X2470980Y610609D1*
X2464745Y614545D1*
X2457949Y620350D1*
X2452143Y627147D1*
X2447472Y634769D1*
X2444051Y643026D1*
X2441965Y651719D1*
X2441264Y660630D1*
X2441965Y669541D1*
X2444051Y678234D1*
X2447472Y686491D1*
X2452143Y694113D1*
X2457949Y700909D1*
X2464745Y706715D1*
X2470980Y710609D1*
X2464745Y714545D1*
X2457949Y720350D1*
X2452143Y727147D1*
X2447472Y734769D1*
X2444051Y743026D1*
X2441965Y751719D1*
X2441264Y760630D1*
X2441965Y769541D1*
X2444051Y778234D1*
X2447472Y786491D1*
X2452143Y794113D1*
X2457949Y800909D1*
X2464745Y806715D1*
X2472367Y811386D1*
X2480625Y814807D1*
X2489318Y816894D1*
X2498228Y817594D1*
X2507139Y816894D1*
X2515832Y814807D1*
X2524089Y811386D1*
X2531711Y806715D1*
X2538508Y800909D1*
X2544314Y794113D1*
X2548207Y787878D1*
X2552143Y794113D1*
X2557949Y800909D1*
X2564745Y806715D1*
X2572367Y811386D1*
X2580625Y814807D1*
X2589318Y816894D1*
X2598228Y817594D1*
X2607139Y816894D1*
X2615832Y814807D1*
X2624089Y811386D1*
X2631711Y806715D1*
X2638508Y800909D1*
X2644314Y794113D1*
X2648984Y786491D1*
X2652406Y778234D1*
X2654492Y769541D1*
X2655193Y760630D1*
X2654492Y751719D1*
X2652406Y743026D1*
X2648984Y734769D1*
X2644314Y727147D1*
X2638508Y720350D1*
X2631711Y714545D1*
X2625476Y710651D1*
X2631711Y706715D1*
X2638508Y700909D1*
X2644314Y694113D1*
X2648984Y686491D1*
X2652406Y678234D1*
X2654492Y669541D1*
X2655193Y660630D1*
X2654492Y651719D1*
X2652406Y643026D1*
X2648984Y634769D1*
X2644314Y627147D1*
X2638508Y620350D1*
X2631711Y614545D1*
X2625476Y610651D1*
X2631711Y606715D1*
X2638508Y600909D1*
X2644314Y594113D1*
X2648984Y586491D1*
X2652406Y578234D1*
X2654492Y569541D1*
X2655193Y560630D1*
X2654492Y551719D1*
X2652406Y543026D1*
X2648984Y534769D1*
X2644314Y527147D1*
X2638508Y520350D1*
X2635518Y517587D1*
X2655193Y517594D1*
Y423112D1*
X2734996Y423130D1*
X2727493Y429085D1*
X2719728Y436264D1*
X2712550Y444029D1*
X2706004Y452335D1*
X2700129Y461127D1*
X2694961Y470353D1*
X2690534Y479957D1*
X2686874Y489878D1*
X2684004Y500056D1*
X2681940Y510428D1*
X2680697Y520929D1*
X2680282Y531496D1*
X2680697Y542063D1*
X2681940Y552564D1*
X2684004Y562936D1*
X2686874Y573114D1*
X2690534Y583035D1*
X2694961Y592639D1*
X2700129Y601865D1*
X2706004Y610657D1*
X2712550Y618963D1*
X2719728Y626728D1*
X2727493Y633907D1*
X2735799Y640453D1*
X2744592Y646328D1*
X2753818Y651496D1*
X2763421Y655923D1*
X2773343Y659583D1*
X2783521Y662453D1*
X2793892Y664517D1*
X2804394Y665760D1*
X2814961Y666175D1*
X2825528Y665760D1*
X2836029Y664517D1*
X2846400Y662453D1*
X2856579Y659583D1*
X2866500Y655923D1*
X2876104Y651496D1*
X2885329Y646328D1*
X2894122Y640453D1*
X2902428Y633907D1*
X2910726Y626152D1*
X2910728Y2080210D1*
X2902992Y2074559D1*
X2895028Y2070501D1*
X2886526Y2067739D1*
X2877698Y2066341D1*
X2868759D1*
X2859930Y2067739D1*
X2851429Y2070501D1*
X2843465Y2074559D1*
X2836232Y2079814D1*
X2829912Y2086134D1*
X2824657Y2093366D1*
X2823249Y2095882D1*
X2819314Y2089647D1*
X2813508Y2082850D1*
X2806711Y2077045D1*
X2799089Y2072374D1*
X2790832Y2068953D1*
X2782139Y2066866D1*
X2773228Y2066165D1*
X2764318Y2066866D1*
X2755625Y2068953D1*
X2747367Y2072374D1*
X2739745Y2077045D1*
X2732949Y2082850D1*
X2727143Y2089647D1*
X2723249Y2095882D1*
X2719314Y2089647D1*
X2713508Y2082850D1*
X2706711Y2077045D1*
X2699089Y2072374D1*
X2690832Y2068953D1*
X2682139Y2066866D1*
X2673228Y2066165D1*
X2664318Y2066866D1*
X2655625Y2068953D1*
X2647367Y2072374D1*
X2639745Y2077045D1*
X2632949Y2082850D1*
X2627143Y2089647D1*
X2623249Y2095882D1*
X2619314Y2089647D1*
X2613508Y2082850D1*
X2606711Y2077045D1*
X2599089Y2072374D1*
X2590832Y2068953D1*
X2582139Y2066866D1*
X2573228Y2066165D1*
X2564318Y2066866D1*
X2555625Y2068953D1*
X2547367Y2072374D1*
X2539745Y2077045D1*
X2532949Y2082850D1*
X2527143Y2089647D1*
X2523249Y2095882D1*
X2519314Y2089647D1*
X2513508Y2082850D1*
X2506711Y2077045D1*
X2499089Y2072374D1*
X2490832Y2068953D1*
X2482139Y2066866D1*
X2473228Y2066165D1*
X2464318Y2066866D1*
X2455625Y2068953D1*
X2447367Y2072374D1*
X2439745Y2077045D1*
X2432949Y2082850D1*
X2427143Y2089647D1*
X2423249Y2095882D1*
X2419314Y2089647D1*
X2413508Y2082850D1*
X2406711Y2077045D1*
X2399089Y2072374D1*
X2390832Y2068953D1*
X2382139Y2066866D1*
X2373228Y2066165D1*
X2364318Y2066866D1*
X2355625Y2068953D1*
X2347367Y2072374D1*
X2339745Y2077045D1*
X2332949Y2082850D1*
X2327143Y2089647D1*
X2322472Y2097269D1*
X2319051Y2105526D1*
X2316965Y2114219D1*
X2316264Y2123130D1*
X2316965Y2132041D1*
X2319051Y2140734D1*
X2322472Y2148991D1*
X2327143Y2156613D1*
X2332949Y2163409D1*
X2339745Y2169215D1*
X2347367Y2173886D1*
X2355625Y2177307D1*
X2364318Y2179394D1*
X2373228Y2180094D1*
X2382139Y2179394D1*
X2390832Y2177307D1*
X2399089Y2173886D1*
X2406711Y2169215D1*
X2413508Y2163409D1*
X2419314Y2156613D1*
X2423207Y2150378D1*
X2427143Y2156613D1*
X2432949Y2163409D1*
X2439745Y2169215D1*
X2447367Y2173886D1*
X2455625Y2177307D1*
X2464318Y2179394D1*
X2473228Y2180094D1*
X2482139Y2179394D1*
X2490832Y2177307D1*
X2499089Y2173886D1*
X2506711Y2169215D1*
X2513508Y2163409D1*
X2519314Y2156613D1*
X2523207Y2150378D1*
X2527143Y2156613D1*
X2532949Y2163409D1*
X2539745Y2169215D1*
X2547367Y2173886D1*
X2555625Y2177307D1*
X2564318Y2179394D1*
X2573228Y2180094D1*
X2582139Y2179394D1*
X2590832Y2177307D1*
X2599089Y2173886D1*
X2606711Y2169215D1*
X2613508Y2163409D1*
X2619314Y2156613D1*
X2623207Y2150378D1*
X2627143Y2156613D1*
X2632949Y2163409D1*
X2639745Y2169215D1*
X2647367Y2173886D1*
X2655625Y2177307D1*
X2664318Y2179394D1*
X2673228Y2180094D1*
X2682139Y2179394D1*
X2690832Y2177307D1*
X2699089Y2173886D1*
X2706711Y2169215D1*
X2713508Y2163409D1*
X2719314Y2156613D1*
X2723207Y2150378D1*
X2727143Y2156613D1*
X2732949Y2163409D1*
X2739745Y2169215D1*
X2747367Y2173886D1*
X2755625Y2177307D1*
X2764318Y2179394D1*
X2773228Y2180094D1*
X2782139Y2179394D1*
X2790832Y2177307D1*
X2799089Y2173886D1*
X2806711Y2169215D1*
X2813508Y2163409D1*
X2819314Y2156613D1*
X2823207Y2150378D1*
X2827143Y2156613D1*
X2832949Y2163409D1*
X2839745Y2169215D1*
X2847367Y2173886D1*
X2855625Y2177307D1*
X2864318Y2179394D1*
X2873228Y2180094D1*
X2882139Y2179394D1*
X2890832Y2177307D1*
X2899089Y2173886D1*
X2906711Y2169215D1*
X2910724Y2165983D1*
X2910728Y2365953D1*
X2902428Y2358219D1*
X2894122Y2351673D1*
X2885329Y2345798D1*
X2876104Y2340630D1*
X2866500Y2336203D1*
X2856579Y2332543D1*
X2846400Y2329673D1*
X2836029Y2327609D1*
X2825528Y2326366D1*
X2814961Y2325951D1*
X2804394Y2326366D1*
X2793892Y2327609D1*
X2783521Y2329673D1*
X2773343Y2332543D1*
X2763421Y2336203D1*
X2753818Y2340630D1*
X2744592Y2345798D1*
X2735799Y2351673D1*
X2727493Y2358219D1*
X2719728Y2365398D1*
X2712550Y2373163D1*
X2706004Y2381469D1*
X2700129Y2390261D1*
X2694961Y2399487D1*
X2690534Y2409091D1*
X2686874Y2419012D1*
X2684004Y2429190D1*
X2681940Y2439562D1*
X2680697Y2450063D1*
X2680282Y2460630D1*
X2680697Y2471197D1*
X2681940Y2481698D1*
X2684004Y2492070D1*
X2686874Y2502248D1*
X2690534Y2512169D1*
X2694961Y2521773D1*
X2700129Y2530999D1*
X2706004Y2539791D1*
X2712579Y2548127D1*
X2666148Y2548130D1*
X2671799Y2540394D1*
X2675857Y2532429D1*
X2678619Y2523928D1*
X2680017Y2515100D1*
Y2506160D1*
X2678619Y2497332D1*
X2675857Y2488831D1*
X2671799Y2480866D1*
X2666545Y2473634D1*
X2660224Y2467314D1*
X2652992Y2462059D1*
X2650476Y2460651D1*
X2656711Y2456715D1*
X2663508Y2450909D1*
X2669314Y2444113D1*
X2673984Y2436491D1*
X2677406Y2428234D1*
X2679492Y2419541D1*
X2680193Y2410630D1*
X2679492Y2401719D1*
X2677406Y2393026D1*
X2673984Y2384769D1*
X2669314Y2377147D1*
X2663508Y2370350D1*
X2656711Y2364545D1*
X2649089Y2359874D1*
X2640832Y2356453D1*
X2632139Y2354366D1*
X2623228Y2353665D1*
X2614318Y2354366D1*
X2605625Y2356453D1*
X2597367Y2359874D1*
X2589745Y2364545D1*
X2582949Y2370350D1*
X2577143Y2377147D1*
X2573249Y2383382D1*
X2569314Y2377147D1*
X2563508Y2370350D1*
X2556711Y2364545D1*
X2549089Y2359874D1*
X2540832Y2356453D1*
X2532139Y2354366D1*
X2523228Y2353665D1*
X2514318Y2354366D1*
X2505625Y2356453D1*
X2497367Y2359874D1*
X2489745Y2364545D1*
X2482949Y2370350D1*
X2477143Y2377147D1*
X2473249Y2383382D1*
X2469314Y2377147D1*
X2463508Y2370350D1*
X2456711Y2364545D1*
X2449089Y2359874D1*
X2440832Y2356453D1*
X2432139Y2354366D1*
X2423228Y2353665D1*
X2414318Y2354366D1*
X2405625Y2356453D1*
X2397367Y2359874D1*
X2389745Y2364545D1*
X2382949Y2370350D1*
X2377143Y2377147D1*
X2373249Y2383382D1*
X2369314Y2377147D1*
X2363508Y2370350D1*
X2356711Y2364545D1*
X2349089Y2359874D1*
X2340832Y2356453D1*
X2332139Y2354366D1*
X2323228Y2353665D1*
X2314318Y2354366D1*
X2305625Y2356453D1*
X2297367Y2359874D1*
X2289745Y2364545D1*
X2282949Y2370350D1*
X2277143Y2377147D1*
X2273249Y2383382D1*
X2269314Y2377147D1*
X2263508Y2370350D1*
X2256711Y2364545D1*
X2249089Y2359874D1*
X2240832Y2356453D1*
X2232139Y2354366D1*
X2223228Y2353665D1*
X2214318Y2354366D1*
X2205625Y2356453D1*
X2197367Y2359874D1*
X2189745Y2364545D1*
X2182949Y2370350D1*
X2177143Y2377147D1*
X2173249Y2383382D1*
X2169314Y2377147D1*
X2163508Y2370350D1*
X2156711Y2364545D1*
X2149089Y2359874D1*
X2140832Y2356453D1*
X2132139Y2354366D1*
X2123228Y2353665D1*
X2114318Y2354366D1*
X2105625Y2356453D1*
X2101740Y2357887D1*
X2101728Y2307651D1*
X2105304Y2301974D1*
X2107466Y2296755D1*
X2108785Y2291261D1*
X2109228Y2285630D1*
X2108979Y2281633D1*
X2150857Y2281526D1*
X2158580Y2279991D1*
X2165732Y2276693D1*
X2171924Y2271811D1*
X2198702Y2244887D1*
X2203077Y2238339D1*
X2205803Y2230950D1*
X2206728Y2223119D1*
Y2169175D1*
X2213508Y2163409D1*
X2219314Y2156613D1*
X2223984Y2148991D1*
X2227406Y2140734D1*
X2229492Y2132041D1*
X2230193Y2123130D1*
X2229492Y2114219D1*
X2227406Y2105526D1*
X2223984Y2097269D1*
X2219314Y2089647D1*
X2213508Y2082850D1*
X2206711Y2077045D1*
X2199089Y2072374D1*
X2190832Y2068953D1*
X2182139Y2066866D1*
X2173228Y2066165D1*
X2164318Y2066866D1*
X2155625Y2068953D1*
X2147367Y2072374D1*
X2139745Y2077045D1*
X2132949Y2082850D1*
X2130185Y2085840D1*
X2130193Y2066165D1*
X2016264D1*
Y2180094D1*
X2130193D1*
Y2160417D1*
X2136232Y2166446D1*
X2139732Y2169205D1*
X2139728Y2209214D1*
X2123228Y2214630D1*
X2008100Y2214734D1*
X2000377Y2216269D1*
X1993224Y2219567D1*
X1987033Y2224449D1*
X1947755Y2263873D1*
X1943379Y2270421D1*
X1940654Y2277810D1*
X1939728Y2285640D1*
Y2356089D1*
X1932139Y2354366D1*
X1923228Y2353665D1*
X1914318Y2354366D1*
X1905625Y2356453D1*
X1897367Y2359874D1*
X1889745Y2364545D1*
X1882949Y2370350D1*
X1877143Y2377147D1*
X1873249Y2383382D1*
X1869314Y2377147D1*
X1863508Y2370350D1*
X1856711Y2364545D1*
X1849089Y2359874D1*
X1840832Y2356453D1*
X1832139Y2354366D1*
X1823228Y2353665D1*
X1814318Y2354366D1*
X1805625Y2356453D1*
X1797367Y2359874D1*
X1789745Y2364545D1*
X1782949Y2370350D1*
X1777143Y2377147D1*
X1773249Y2383382D1*
X1769314Y2377147D1*
X1763508Y2370350D1*
X1756711Y2364545D1*
X1749089Y2359874D1*
X1740832Y2356453D1*
X1732139Y2354366D1*
X1723228Y2353665D1*
X1714318Y2354366D1*
X1705625Y2356453D1*
X1697367Y2359874D1*
X1689745Y2364545D1*
X1682949Y2370350D1*
X1677143Y2377147D1*
X1673249Y2383382D1*
X1669314Y2377147D1*
X1663508Y2370350D1*
X1656711Y2364545D1*
X1649089Y2359874D1*
X1640832Y2356453D1*
X1632139Y2354366D1*
X1623228Y2353665D1*
X1614318Y2354366D1*
X1605625Y2356453D1*
X1597367Y2359874D1*
X1589745Y2364545D1*
X1582949Y2370350D1*
X1577143Y2377147D1*
X1573249Y2383382D1*
X1569314Y2377147D1*
X1563508Y2370350D1*
X1556711Y2364545D1*
X1549089Y2359874D1*
X1540832Y2356453D1*
X1532139Y2354366D1*
X1523228Y2353665D1*
X1514318Y2354366D1*
X1505625Y2356453D1*
X1497367Y2359874D1*
X1489745Y2364545D1*
X1482949Y2370350D1*
X1477143Y2377147D1*
X1473249Y2383382D1*
X1469314Y2377147D1*
X1463508Y2370350D1*
X1456711Y2364545D1*
X1449089Y2359874D1*
X1440832Y2356453D1*
X1432139Y2354366D1*
X1423228Y2353665D1*
X1414318Y2354366D1*
X1405625Y2356453D1*
X1397367Y2359874D1*
X1389745Y2364545D1*
X1382949Y2370350D1*
X1377143Y2377147D1*
X1373249Y2383382D1*
X1369314Y2377147D1*
X1363508Y2370350D1*
X1356711Y2364545D1*
X1349089Y2359874D1*
X1340832Y2356453D1*
X1332139Y2354366D1*
X1323228Y2353665D1*
X1314318Y2354366D1*
X1305625Y2356453D1*
X1297367Y2359874D1*
X1289745Y2364545D1*
X1282949Y2370350D1*
X1277143Y2377147D1*
X1273249Y2383382D1*
X1269314Y2377147D1*
X1263508Y2370350D1*
X1256711Y2364545D1*
X1249089Y2359874D1*
X1240832Y2356453D1*
X1232139Y2354366D1*
X1223228Y2353665D1*
X1214318Y2354366D1*
X1205625Y2356453D1*
X1197367Y2359874D1*
X1189745Y2364545D1*
X1182949Y2370350D1*
X1177143Y2377147D1*
X1172472Y2384769D1*
X1169051Y2393026D1*
X1166965Y2401719D1*
X1166264Y2410630D1*
X1166965Y2419541D1*
X1168744Y2427140D1*
X1077769Y2427130D1*
X1079492Y2419541D1*
X1080193Y2410630D1*
X1079492Y2401719D1*
X1077406Y2393026D1*
X1074386Y2385642D1*
X1078860Y2383686D1*
X1084353Y2382367D1*
X1089572Y2380206D1*
X1094388Y2377255D1*
X1098684Y2373585D1*
X1102353Y2369290D1*
X1105304Y2364474D1*
X1107466Y2359255D1*
X1108785Y2353761D1*
X1109228Y2348130D1*
X1108785Y2342499D1*
X1107466Y2337005D1*
X1105304Y2331786D1*
X1102353Y2326970D1*
X1098684Y2322675D1*
X1094388Y2319005D1*
X1089572Y2316054D1*
X1084353Y2313892D1*
X1078860Y2312573D1*
X1073228Y2312130D1*
X1067597Y2312573D1*
X1062104Y2313892D1*
X1056885Y2316054D1*
X1052068Y2319005D1*
X1047773Y2322675D1*
X1044104Y2326970D1*
X1040991Y2332138D1*
X770992Y2332218D1*
X764421Y2333525D1*
X758337Y2336329D1*
X753076Y2340478D1*
X739921Y2353633D1*
X666264Y2353665D1*
X666312Y2467594D1*
X665760Y2471197D1*
X666175Y2460630D1*
X665760Y2450063D1*
X664517Y2439562D1*
X662453Y2429190D1*
X659583Y2419012D1*
X655923Y2409091D1*
X651496Y2399487D1*
X646328Y2390261D1*
X640453Y2381469D1*
X633907Y2373163D1*
X626728Y2365398D1*
X618963Y2358219D1*
X610657Y2351673D1*
X601865Y2345798D1*
X592639Y2340630D1*
X583035Y2336203D1*
X573114Y2332543D1*
X562936Y2329673D1*
X552564Y2327609D1*
X542063Y2326366D1*
X531496Y2325951D1*
X520929Y2326366D1*
X510428Y2327609D1*
X500056Y2329673D1*
X489878Y2332543D1*
X479957Y2336203D1*
X470353Y2340630D1*
X461127Y2345798D1*
X452335Y2351673D1*
X444029Y2358219D1*
X435731Y2365974D1*
X435728Y2225913D1*
X517219Y2307302D1*
X522790Y2311024D1*
X529075Y2313343D1*
X535728Y2314130D1*
X901207D1*
X906885Y2317706D1*
X912104Y2319867D1*
X917597Y2321186D1*
X923228Y2321630D1*
X928860Y2321186D1*
X934353Y2319867D1*
X939572Y2317706D1*
X944388Y2314755D1*
X948684Y2311085D1*
X952353Y2306790D1*
X955304Y2301974D1*
X957466Y2296755D1*
X958785Y2291261D1*
X959228Y2285630D1*
X958785Y2279999D1*
X957466Y2274505D1*
X955304Y2269286D1*
X952353Y2264470D1*
X948684Y2260175D1*
X944388Y2256505D1*
X939572Y2253554D1*
X934353Y2251392D1*
X928860Y2250073D1*
X923228Y2249630D1*
X917597Y2250073D1*
X912104Y2251392D1*
X906885Y2253554D1*
X901280Y2257127D1*
X547496Y2257130D1*
X445499Y2155096D1*
X445478Y709896D1*
X460021Y695391D1*
X692711Y695379D1*
X719715Y722420D1*
X719816Y812866D1*
X721123Y819437D1*
X723928Y825521D1*
X728076Y830782D1*
X743992Y846699D1*
X742440Y856160D1*
Y865100D1*
X743837Y873928D1*
X746600Y882429D1*
X750657Y890394D1*
X755912Y897626D1*
X762232Y903946D1*
X769465Y909201D1*
X777429Y913259D1*
X785930Y916021D1*
X794759Y917419D1*
X803698D1*
X812526Y916021D1*
X821028Y913259D1*
X828992Y909201D1*
X836224Y903946D1*
X842545Y897626D1*
X847799Y890394D1*
X851857Y882429D1*
X854619Y873928D1*
X856017Y865100D1*
Y856160D1*
X854619Y847332D1*
X851857Y838831D1*
X847799Y830866D1*
X842545Y823634D1*
X836224Y817314D1*
X828992Y812059D1*
X826476Y810651D1*
X832711Y806715D1*
X839508Y800909D1*
X845314Y794113D1*
X849984Y786491D1*
X853406Y778234D1*
X855492Y769541D1*
X856193Y760630D1*
X855492Y751719D1*
X853406Y743026D1*
X849984Y734769D1*
X845314Y727147D1*
X839508Y720350D1*
X832711Y714545D1*
X826476Y710651D1*
X832711Y706715D1*
X839508Y700909D1*
X845314Y694113D1*
X849984Y686491D1*
X853406Y678234D1*
X855492Y669541D1*
X856193Y660630D1*
X855492Y651719D1*
X853406Y643026D1*
X849984Y634769D1*
X845314Y627147D1*
X839508Y620350D1*
X832711Y614545D1*
X826476Y610651D1*
X832711Y606715D1*
X839508Y600909D1*
X845314Y594113D1*
X849984Y586491D1*
X853406Y578234D1*
X855492Y569541D1*
X856193Y560630D1*
X856017Y556160D1*
X728764Y1842594D2*
X735941D1*
X729912Y1848634D1*
X724657Y1855866D1*
X720600Y1863831D1*
X717837Y1872332D1*
X716440Y1881160D1*
Y1890100D1*
X717837Y1898928D1*
X720600Y1907429D1*
X724657Y1915394D1*
X729912Y1922626D1*
X736232Y1928946D1*
X743465Y1934201D1*
X751429Y1938259D1*
X759930Y1941021D1*
X768759Y1942419D1*
X777698D1*
X786526Y1941021D1*
X795028Y1938259D1*
X802992Y1934201D1*
X810224Y1928946D1*
X816545Y1922626D1*
X821799Y1915394D1*
X825857Y1907429D1*
X828619Y1898928D1*
X830017Y1890100D1*
Y1881160D1*
X828619Y1872332D1*
X825857Y1863831D1*
X821799Y1855866D1*
X816545Y1848634D1*
X810518Y1842587D1*
X830193Y1842594D1*
Y1814127D1*
X840186Y1813780D1*
X846635Y1811961D1*
X852480Y1808688D1*
X855881Y1805782D1*
X1107400Y1554139D1*
X1111122Y1548568D1*
X1113441Y1542283D1*
X1114228Y1535630D1*
Y1409898D1*
X1141340Y1382824D1*
X1141440Y1390100D1*
X1142837Y1398928D1*
X1145600Y1407429D1*
X1149657Y1415394D1*
X1154912Y1422626D1*
X1161232Y1428946D1*
X1168465Y1434201D1*
X1176429Y1438259D1*
X1184930Y1441021D1*
X1193759Y1442419D1*
X1202698D1*
X1211526Y1441021D1*
X1220028Y1438259D1*
X1227992Y1434201D1*
X1235224Y1428946D1*
X1241545Y1422626D1*
X1246799Y1415394D1*
X1250857Y1407429D1*
X1253619Y1398928D1*
X1255017Y1390100D1*
Y1381160D1*
X1253619Y1372332D1*
X1250857Y1363831D1*
X1246799Y1355866D1*
X1241545Y1348634D1*
X1235518Y1342587D1*
X1255193Y1342594D1*
Y1228665D1*
X1141264D1*
Y1302249D1*
X1064056Y1379621D1*
X1060335Y1385192D1*
X1058016Y1391476D1*
X1057228Y1398130D1*
Y1523862D1*
X830207Y1750845D1*
X830193Y1728665D1*
X716264D1*
Y1842594D1*
X728764D1*
X830017Y2081160D2*
X828619Y2072332D1*
X828226Y2070936D1*
X1144900Y1754139D1*
X1148622Y1748568D1*
X1150941Y1742283D1*
X1151728Y1735630D1*
Y1718491D1*
X1157949Y1725909D1*
X1164745Y1731715D1*
X1169730Y1734908D1*
X1169728Y1748862D1*
X830150Y2088403D1*
X830017Y2081160D1*
X787923Y2030633D2*
X782139Y2029366D1*
X773228Y2028665D1*
X764318Y2029366D1*
X755625Y2031453D1*
X747367Y2034874D1*
X739745Y2039545D1*
X732949Y2045350D1*
X727143Y2052147D1*
X722472Y2059769D1*
X719051Y2068026D1*
X716965Y2076719D1*
X716264Y2085630D1*
X716965Y2094541D1*
X719051Y2103234D1*
X722472Y2111491D1*
X727143Y2119113D1*
X732949Y2125909D1*
X739745Y2131715D1*
X745980Y2135609D1*
X739745Y2139545D1*
X732949Y2145350D1*
X727143Y2152147D1*
X722472Y2159769D1*
X719051Y2168026D1*
X716965Y2176719D1*
X716264Y2185630D1*
X716965Y2194541D1*
X719051Y2203234D1*
X722472Y2211491D1*
X727143Y2219113D1*
X732949Y2225909D1*
X739745Y2231715D1*
X747367Y2236386D1*
X755625Y2239807D1*
X764318Y2241894D1*
X773228Y2242594D1*
X782139Y2241894D1*
X790832Y2239807D1*
X799089Y2236386D1*
X806711Y2231715D1*
X813508Y2225909D1*
X819314Y2219113D1*
X823984Y2211491D1*
X827406Y2203234D1*
X829492Y2194541D1*
X830193Y2185630D1*
X829492Y2176719D1*
X828226Y2170936D1*
X1219900Y1779139D1*
X1223622Y1773568D1*
X1225941Y1767283D1*
X1226728Y1760630D1*
Y1734995D1*
X1235224Y1728946D1*
X1241545Y1722626D1*
X1246799Y1715394D1*
X1250857Y1707429D1*
X1253619Y1698928D1*
X1255017Y1690100D1*
Y1681160D1*
X1253619Y1672332D1*
X1250857Y1663831D1*
X1246799Y1655866D1*
X1241545Y1648634D1*
X1235224Y1642314D1*
X1227992Y1637059D1*
X1225476Y1635651D1*
X1231711Y1631715D1*
X1238508Y1625909D1*
X1244314Y1619113D1*
X1248984Y1611491D1*
X1252406Y1603234D1*
X1254492Y1594541D1*
X1255193Y1585630D1*
X1254492Y1576719D1*
X1252406Y1568026D1*
X1248984Y1559769D1*
X1244314Y1552147D1*
X1238508Y1545350D1*
X1231711Y1539545D1*
X1224089Y1534874D1*
X1215832Y1531453D1*
X1207139Y1529366D1*
X1198228Y1528665D1*
X1189318Y1529366D1*
X1180625Y1531453D1*
X1172367Y1534874D1*
X1164745Y1539545D1*
X1157949Y1545350D1*
X1152143Y1552147D1*
X1147472Y1559769D1*
X1144051Y1568026D1*
X1141965Y1576719D1*
X1141264Y1585630D1*
X1141965Y1594541D1*
X1143231Y1600324D1*
X1101556Y1642121D1*
X1097835Y1647692D1*
X1095516Y1653976D1*
X1094728Y1660630D1*
Y1723862D1*
X787950Y2030602D1*
X666264Y2467581D2*
Y2548148D1*
X633907Y2548097D1*
X640453Y2539791D1*
X646328Y2530999D1*
X651496Y2521773D1*
X655923Y2512169D1*
X659583Y2502248D1*
X662453Y2492070D1*
X664517Y2481698D1*
X665760Y2471197D1*
X866081Y2548126D2*
X871799Y2540394D1*
X875857Y2532429D1*
X878619Y2523928D1*
X880017Y2515100D1*
X880075Y2513650D1*
X899571Y2494164D1*
X968688Y2494130D1*
X966965Y2501719D1*
X966264Y2510630D1*
X966965Y2519541D1*
X969051Y2528234D1*
X972472Y2536491D1*
X977143Y2544113D1*
X980375Y2548126D1*
X866148Y2548130D1*
X2149827Y721531D2*
X2259130D1*
Y599728D1*
X2137327D1*
Y721531D1*
X2149827D1*
X2258942Y855852D2*
X2257448Y846413D1*
X2254493Y837324D1*
X2250155Y828808D1*
X2244538Y821077D1*
X2237781Y814320D1*
X2230050Y808703D1*
X2221534Y804365D1*
X2212445Y801411D1*
X2203007Y799916D1*
X2193450D1*
X2184012Y801411D1*
X2174923Y804365D1*
X2166407Y808703D1*
X2158676Y814320D1*
X2151919Y821077D1*
X2146302Y828808D1*
X2141963Y837324D1*
X2139009Y846413D1*
X2137514Y855852D1*
Y865408D1*
X2139009Y874846D1*
X2141963Y883936D1*
X2146302Y892451D1*
X2151919Y900182D1*
X2158676Y906940D1*
X2166407Y912556D1*
X2174923Y916895D1*
X2184012Y919849D1*
X2193450Y921344D1*
X2203007D1*
X2212445Y919849D1*
X2221534Y916895D1*
X2230050Y912556D1*
X2237781Y906940D1*
X2244538Y900182D1*
X2250155Y892451D1*
X2254493Y883936D1*
X2257448Y874846D1*
X2258942Y865408D1*
Y855852D1*
X672042Y1194139D2*
X671285Y1192499D1*
X669966Y1187005D1*
X667804Y1181786D1*
X664853Y1176970D1*
X661184Y1172675D1*
X656888Y1169005D1*
X652072Y1166054D1*
X646853Y1163892D1*
X641360Y1162573D1*
X635728Y1162130D1*
X630097Y1162573D1*
X624604Y1163892D1*
X619385Y1166054D1*
X614568Y1169005D1*
X610273Y1172675D1*
X606604Y1176970D1*
X603652Y1181786D1*
X601491Y1187005D1*
X600172Y1192499D1*
X599728Y1198130D1*
X600172Y1203761D1*
X601491Y1209255D1*
X603652Y1214474D1*
X606604Y1219290D1*
X610273Y1223585D1*
X614568Y1227255D1*
X619385Y1230206D1*
X624604Y1232367D1*
X631094Y1233804D1*
X632228Y1235630D1*
Y1401109D1*
X628652Y1406786D1*
X626491Y1412005D1*
X625172Y1417499D1*
X624728Y1423130D1*
X625172Y1428761D1*
X626491Y1434255D1*
X628652Y1439474D1*
X631604Y1444290D1*
X635273Y1448585D1*
X639568Y1452255D1*
X644385Y1455206D1*
X649604Y1457367D1*
X655097Y1458686D1*
X660728Y1459130D1*
X666360Y1458686D1*
X671853Y1457367D1*
X677072Y1455206D1*
X681888Y1452255D1*
X686184Y1448585D1*
X689853Y1444290D1*
X692804Y1439474D1*
X694966Y1434255D1*
X696285Y1428761D1*
X696728Y1423130D1*
X696285Y1417499D1*
X694966Y1412005D1*
X692804Y1406786D1*
X689231Y1401181D1*
X689140Y1220894D1*
X687833Y1214323D1*
X685029Y1208239D1*
X680881Y1202978D1*
X672042Y1194139D1*
D19*
X510728Y1685630D3*
D20*
Y1585630D3*
Y1485630D3*
Y1385630D3*
Y1285630D3*
D19*
X2498228Y460630D3*
D20*
Y560630D3*
Y660630D3*
Y760630D3*
Y860630D3*
D19*
X2598228Y460630D3*
D20*
Y560630D3*
Y660630D3*
Y760630D3*
Y860630D3*
D19*
X799228Y460630D3*
D20*
Y560630D3*
Y660630D3*
Y760630D3*
Y860630D3*
D19*
X2073228Y2123130D3*
D20*
X2173228D3*
X2273228D3*
X2373228D3*
X2473228D3*
X2573228D3*
X2673228D3*
X2773228D3*
X2873228D3*
D19*
X1198228Y1285630D3*
D20*
Y1385630D3*
Y1485630D3*
Y1585630D3*
Y1685630D3*
D19*
X773228Y1785630D3*
D20*
Y1885630D3*
Y1985630D3*
Y2085630D3*
Y2185630D3*
D19*
X723228Y2410630D3*
D20*
X823228D3*
X923228D3*
X1023228D3*
X1123228D3*
X1223228D3*
X1323228D3*
X1423228D3*
X1523228D3*
X1623228D3*
X1723228D3*
X1823228D3*
X1923228D3*
X2023228D3*
X2123228D3*
X2223228D3*
X2323228D3*
X2423228D3*
X2523228D3*
X2623228D3*
D19*
X723228Y2510630D3*
D20*
X823228D3*
X923228D3*
X1023228D3*
X1123228D3*
X1223228D3*
X1323228D3*
X1423228D3*
X1523228D3*
X1623228D3*
X1723228D3*
X1823228D3*
X1923228D3*
X2023228D3*
X2123228D3*
X2223228D3*
X2323228D3*
X2423228D3*
X2523228D3*
X2623228D3*
D27*
X2198228Y660630D3*
D28*
Y760630D3*
Y860630D3*
M02*
