G04 DipTrace 3.0.0.1*
G04 panel.GTS*
%MOIN*%
G04 #@! TF.FileFunction,Soldermask,Top*
G04 #@! TF.Part,Single*
%AMOUTLINE1*
4,1,16,
-0.049252,0.04748,
0.049252,0.04748,
0.049252,-0.04748,
0.02752,-0.04748,
0.02752,-0.031339,
0.023661,-0.031339,
0.023661,-0.04748,
0.001929,-0.04748,
0.001929,-0.031339,
-0.001929,-0.031339,
-0.001929,-0.04748,
-0.023661,-0.04748,
-0.023661,-0.031339,
-0.02752,-0.031339,
-0.02752,-0.04748,
-0.049252,-0.04748,
-0.049252,0.04748,
0*%
%AMOUTLINE4*
4,1,16,
0.04748,0.049252,
0.04748,-0.049252,
-0.04748,-0.049252,
-0.04748,-0.02752,
-0.031339,-0.02752,
-0.031339,-0.023661,
-0.04748,-0.023661,
-0.04748,-0.001929,
-0.031339,-0.001929,
-0.031339,0.001929,
-0.04748,0.001929,
-0.04748,0.023661,
-0.031339,0.023661,
-0.031339,0.02752,
-0.04748,0.02752,
-0.04748,0.049252,
0.04748,0.049252,
0*%
%AMOUTLINE7*
4,1,12,
0.061063,0.246102,
0.139803,0.246102,
0.139803,-0.246102,
0.061063,-0.246102,
0.061063,-0.316969,
-0.061063,-0.316969,
-0.061063,-0.246102,
-0.139803,-0.246102,
-0.139803,0.246102,
-0.061063,0.246102,
-0.061063,0.316969,
0.061063,0.316969,
0.061063,0.246102,
0*%
%AMOUTLINE10*
4,1,12,
0.066969,0.050236,
0.066969,0.036378,
0.040394,0.036378,
0.040394,-0.036378,
0.066969,-0.036378,
0.066969,-0.050236,
-0.066969,-0.050236,
-0.066969,-0.036378,
-0.040394,-0.036378,
-0.040394,0.036378,
-0.066969,0.036378,
-0.066969,0.050236,
0.066969,0.050236,
0*%
%AMOUTLINE13*
4,1,5,
0.01874,-0.00752,
-0.01874,-0.00752,
-0.01874,0.00752,
0.013627,0.00752,
0.01874,0.002406,
0.01874,-0.00752,
0*%
%ADD80C,0.108268*%
%ADD81C,0.11811*%
%ADD91R,0.033543X0.015039*%
%ADD93O,0.01189X0.03748*%
%ADD95R,0.021732X0.043386*%
%ADD97R,0.019764X0.074882*%
%ADD99R,0.082756X0.043386*%
%ADD101O,0.031575X0.01189*%
%ADD103O,0.01189X0.031575*%
%ADD105R,0.027638X0.082756*%
%ADD107R,0.047323X0.027638*%
%ADD109R,0.082756X0.027638*%
%ADD111R,0.027638X0.047323*%
%ADD113C,0.063071*%
%ADD115C,0.055197*%
%ADD117R,0.028819X0.021732*%
%ADD119R,0.021732X0.028819*%
%ADD121R,0.22252X0.246142*%
%ADD123R,0.043386X0.112283*%
%ADD125R,0.029606X0.045354*%
%ADD127R,0.246142X0.22252*%
%ADD129R,0.112283X0.043386*%
%ADD133R,0.11622X0.263858*%
%ADD135R,0.034016X0.064016*%
%ADD137R,0.304016X0.404016*%
%ADD139C,0.070945*%
%ADD141R,0.070945X0.070945*%
%ADD143C,0.043386*%
%ADD145R,0.059134X0.059134*%
%ADD147C,0.059134*%
%ADD149C,0.104016*%
%ADD151R,0.104016X0.104016*%
%ADD153R,0.115039X0.065827*%
%ADD155R,0.027638X0.027638*%
%ADD157R,0.067008X0.074882*%
%ADD159R,0.055197X0.063071*%
%ADD161R,0.181181X0.086693*%
%ADD163R,0.043386X0.047323*%
%ADD165R,0.047323X0.043386*%
%ADD167R,0.204016X0.104016*%
%ADD169C,0.404016*%
%ADD175OUTLINE1*%
%ADD178OUTLINE4*%
%ADD181OUTLINE7*%
%ADD184OUTLINE10*%
%ADD187OUTLINE13*%
%FSLAX26Y26*%
G04*
G70*
G90*
G75*
G01*
G04 TopMask*
%LPD*%
D169*
X3573228Y1198130D3*
D167*
Y848130D3*
Y1548130D3*
D165*
X1962949Y1748126D3*
X1896020D3*
X2189783Y2166874D3*
X2256713D3*
D163*
X2691978Y1835630D3*
Y1768701D3*
X3623228Y610630D3*
Y677559D3*
Y523130D3*
Y456201D3*
D165*
X1962942Y1966825D3*
X1896013D3*
D163*
X3179621Y2260605D3*
Y2193676D3*
D165*
X3506693Y710630D3*
X3439764D3*
X2639764Y960630D3*
X2706693D3*
Y848130D3*
X2639764D3*
Y1016879D3*
X2706693D3*
D161*
X2121063Y1385630D3*
X2475394D3*
D159*
X1966885Y1660525D3*
X1892081D3*
D157*
X2304479Y1998131D3*
X2194243D3*
D163*
X2491979Y2048130D3*
Y1981201D3*
D165*
X1962945Y1188287D3*
X1896016D3*
X2523228Y2141881D3*
X2456299D3*
D163*
X3196640Y2845929D3*
Y2779000D3*
X2096640Y2845929D3*
Y2779000D3*
X3196640Y3445929D3*
Y3379000D3*
X2096640Y3445929D3*
Y3379000D3*
D165*
X860644Y3492459D3*
X927573D3*
X710647Y3592465D3*
X777576D3*
X785646Y3111213D3*
X852575D3*
X721324D3*
X654395D3*
X635646Y2942463D3*
X702575D3*
X840075D3*
X773146D3*
X704394Y2992463D3*
X771323D3*
X960646Y2692462D3*
X1027575D3*
X1721014Y2160631D3*
X1787944D3*
X1721014Y2223131D3*
X1787944D3*
D155*
X2629921Y904381D3*
X2716535D3*
Y785630D3*
X2629921D3*
D163*
X3179621Y1841811D3*
Y1908740D3*
D165*
X1721014Y2098131D3*
X1787944D3*
D163*
X2934140Y2845929D3*
Y2779000D3*
X3384140Y2845929D3*
Y2779000D3*
X1834140Y2845929D3*
Y2779000D3*
X2284140Y2845929D3*
Y2779000D3*
X2934140Y3445929D3*
Y3379000D3*
X3384140Y3445929D3*
Y3379000D3*
X1834140Y3445929D3*
Y3379000D3*
X2284140Y3445929D3*
Y3379000D3*
D153*
X525180Y1753938D3*
X525230Y2144490D3*
X762238D3*
X762287Y1753938D3*
D80*
X3914961Y531496D3*
X1631496Y2460630D3*
Y531496D3*
X3914961Y2460630D3*
D151*
X1127592Y980463D3*
D149*
X971686D3*
X815781D3*
X659875D3*
D147*
X1735728Y1343749D3*
D145*
Y1422490D3*
D147*
Y1265009D3*
Y1186269D3*
Y848130D3*
D145*
Y769390D3*
D147*
Y926870D3*
D151*
X971686Y1980463D3*
D149*
X1127592D3*
D143*
X3566916Y2793714D3*
X3620066D3*
X3673215D3*
X3726365D3*
X2466916D3*
X2520066D3*
X2573215D3*
X2626365D3*
X3566916Y3393714D3*
X3620066D3*
X3673215D3*
X3726365D3*
X2466916D3*
X2520066D3*
X2573215D3*
X2626365D3*
D141*
X619102Y3754963D3*
D139*
Y3654963D3*
Y3554963D3*
Y3454963D3*
Y3354963D3*
Y3254963D3*
D137*
X1206609Y3442463D3*
Y2842463D3*
D141*
X1823228Y2410630D3*
D139*
X1923228D3*
X2023228D3*
X2123228D3*
X2223228D3*
X2323228D3*
X2423228D3*
X2523228D3*
X2623228D3*
X2723228D3*
X2823228D3*
X2923228D3*
X3023228D3*
X3123228D3*
X3223228D3*
X3323228D3*
X3423228D3*
X3523228D3*
X3623228D3*
X3723228D3*
D141*
X1823228Y2510630D3*
D139*
X1923228D3*
X2023228D3*
X2123228D3*
X2223228D3*
X2323228D3*
X2423228D3*
X2523228D3*
X2623228D3*
X2723228D3*
X2823228D3*
X2923228D3*
X3023228D3*
X3123228D3*
X3223228D3*
X3323228D3*
X3423228D3*
X3523228D3*
X3623228D3*
X3723228D3*
D135*
X2992109Y2091833D3*
X3029609D3*
D133*
X2079478Y1773130D3*
X2301919D3*
D129*
X965879Y1426476D3*
Y1246949D3*
D127*
X1229659Y1336713D3*
D125*
X2098143Y2230874D3*
X2023340D3*
X2060741Y2140323D3*
D129*
X965879Y1726475D3*
Y1546948D3*
D127*
X1229659Y1636711D3*
D123*
X528970Y1196357D3*
X708497D3*
D121*
X618734Y1460136D3*
D129*
X3168786Y3127228D3*
Y2947701D3*
D127*
X3432566Y3037465D3*
D129*
X2068786Y3127228D3*
Y2947701D3*
D127*
X2332566Y3037465D3*
D129*
X3168786Y3727228D3*
Y3547701D3*
D127*
X3432566Y3637465D3*
D129*
X2068786Y3727228D3*
Y3547701D3*
D127*
X2332566Y3637465D3*
D119*
X719600Y2623959D3*
X694403D3*
X668812D3*
X643222D3*
D175*
X681608Y2544038D3*
D117*
X894354Y2529471D3*
Y2554668D3*
Y2580259D3*
Y2605849D3*
D178*
X814433Y2567463D3*
D163*
X2048240Y1964614D3*
Y2031543D3*
X2110747D3*
Y1964614D3*
X1766978Y1990059D3*
Y1923130D3*
X1823227D3*
Y1990059D3*
X3179621Y1979325D3*
Y2046255D3*
D165*
X1925444Y2098131D3*
X1858514D3*
D159*
X1966882Y1382037D3*
X1892079D3*
D163*
X2342009Y2220891D3*
Y2287820D3*
D165*
X2112927Y2291831D3*
X2045997D3*
X3050425Y2191885D3*
X2983496D3*
X3050575Y2304354D3*
X2983646D3*
X3050575Y2248098D3*
X2983646D3*
D163*
X1973230Y1248573D3*
Y1315503D3*
X1885730Y1248573D3*
Y1315503D3*
X2598228Y687844D3*
Y620915D3*
D165*
X1925444Y2160631D3*
X1858514D3*
X1925444Y2223131D3*
X1858514D3*
D163*
X3059140Y2845929D3*
Y2779000D3*
X3134140Y2845929D3*
Y2779000D3*
X3259140D3*
Y2845929D3*
X2996640D3*
Y2779000D3*
X3321640D3*
Y2845929D3*
X1959140D3*
Y2779000D3*
X2034140Y2845929D3*
Y2779000D3*
X2159140D3*
Y2845929D3*
X1896640D3*
Y2779000D3*
X2221640D3*
Y2845929D3*
X3059140Y3445929D3*
Y3379000D3*
X3134140Y3445929D3*
Y3379000D3*
X3259140D3*
Y3445929D3*
X2996640D3*
Y3379000D3*
X3321640D3*
Y3445929D3*
X1959140D3*
Y3379000D3*
X2034140Y3445929D3*
Y3379000D3*
X2159140D3*
Y3445929D3*
X1896640D3*
Y3379000D3*
X2221640D3*
Y3445929D3*
D165*
X927573Y3592462D3*
X860644D3*
X777576Y3542463D3*
X710647D3*
Y3492463D3*
X777576D3*
X927573Y3542461D3*
X860644D3*
D159*
X700457Y2823713D3*
X775260D3*
D165*
X702575Y2886211D3*
X635646D3*
X773146D3*
X840075D3*
X685644Y2692462D3*
X752573D3*
X1027575Y2617463D3*
X960646D3*
Y2748713D3*
X1027575D3*
X685644D3*
X752573D3*
D115*
X1591978Y1706890D3*
Y1785630D3*
Y1864370D3*
D113*
Y1628150D3*
Y1943110D3*
D111*
X1892083Y1807476D3*
X1929484D3*
X1966886D3*
Y1913776D3*
X1929484D3*
X1892083D3*
D109*
X2773228Y1885630D3*
Y1835630D3*
Y1785630D3*
Y1735630D3*
X2985827D3*
Y1785630D3*
Y1835630D3*
Y1885630D3*
D107*
X2276409Y2216953D3*
Y2254354D3*
Y2291756D3*
X2170110D3*
Y2254354D3*
Y2216953D3*
D105*
X2904478Y2291929D3*
X2854478D3*
X2804478D3*
X2754478D3*
Y2079331D3*
X2804478D3*
X2854478D3*
X2904478D3*
D103*
X3433858Y499606D3*
X3449606D3*
X3465354D3*
X3481102D3*
X3496850D3*
D101*
X3534252Y521260D3*
Y537008D3*
Y552756D3*
Y568504D3*
Y584252D3*
D103*
X3496850Y621654D3*
X3481102D3*
X3465354D3*
X3449606D3*
X3433858D3*
D101*
X3412205Y584252D3*
Y568504D3*
Y552756D3*
Y537008D3*
Y521260D3*
X3534252Y600000D3*
X3412205D3*
D103*
X3512598Y499606D3*
Y621654D3*
D99*
X3279631Y2266854D3*
Y2207799D3*
Y2148744D3*
Y2089689D3*
Y2030634D3*
Y1971579D3*
Y1912524D3*
Y1853469D3*
Y1794413D3*
Y1735358D3*
X3909552D3*
Y2030634D3*
Y2266854D3*
D81*
X3614277Y2034571D3*
D109*
X1968055Y1035451D3*
Y985451D3*
Y935451D3*
Y885451D3*
Y835451D3*
Y785451D3*
Y735451D3*
Y685451D3*
Y635451D3*
Y585451D3*
X2503488D3*
Y635451D3*
Y685451D3*
Y735451D3*
Y785451D3*
Y835451D3*
Y885451D3*
Y935451D3*
Y985451D3*
Y1035451D3*
D181*
X2235772Y810451D3*
D97*
X2553592Y1821457D3*
X2579182D3*
X2604773D3*
X2630364D3*
Y2049803D3*
X2604773D3*
X2579182D3*
X2553592D3*
D95*
X2447343Y2190698D3*
X2472933D3*
X2498524D3*
X2524114D3*
Y2293060D3*
X2498524D3*
X2472933D3*
X2447343D3*
D93*
X817239Y3208457D3*
X832987D3*
X848735D3*
X864483D3*
X880231D3*
X895979D3*
Y3363969D3*
X880231D3*
X864483D3*
X848735D3*
X832987D3*
X817239D3*
D184*
X856609Y3286213D3*
D187*
X835940Y2718398D3*
D91*
X833971Y2698713D3*
Y2679028D3*
X879247D3*
Y2698713D3*
Y2718398D3*
G36*
X2871640Y3137465D2*
X3071640D1*
Y2937465D1*
X2871640D1*
Y3137465D1*
G37*
G36*
X3596640D2*
X3796640D1*
Y2937465D1*
X3596640D1*
Y3137465D1*
G37*
G36*
X1771640D2*
X1971640D1*
Y2937465D1*
X1771640D1*
Y3137465D1*
G37*
G36*
X2496640D2*
X2696640D1*
Y2937465D1*
X2496640D1*
Y3137465D1*
G37*
G36*
X2871640Y3737465D2*
X3071640D1*
Y3537465D1*
X2871640D1*
Y3737465D1*
G37*
G36*
X3596640D2*
X3796640D1*
Y3537465D1*
X3596640D1*
Y3737465D1*
G37*
G36*
X1771640D2*
X1971640D1*
Y3537465D1*
X1771640D1*
Y3737465D1*
G37*
G36*
X2496640D2*
X2696640D1*
Y3537465D1*
X2496640D1*
Y3737465D1*
G37*
M02*
