G04 DipTrace 3.0.0.1*
G04 panel.GBL*
%MOIN*%
G04 #@! TF.FileFunction,Copper,L2,Bot*
G04 #@! TF.Part,Single*
G04 #@! TA.AperFunction,Conductor*
%ADD14C,0.008*%
%ADD15C,0.02*%
%ADD16C,0.01*%
G04 #@! TA.AperFunction,CopperBalancing*
%ADD17C,0.025*%
%ADD26R,0.03937X0.043307*%
G04 #@! TA.AperFunction,ComponentPad*
%ADD34R,0.1X0.1*%
%ADD35C,0.1*%
%ADD36C,0.055118*%
%ADD37R,0.055118X0.055118*%
%ADD38C,0.03937*%
%ADD39R,0.066929X0.066929*%
%ADD40C,0.066929*%
%ADD44R,0.011811X0.055118*%
G04 #@! TA.AperFunction,ComponentPad*
%ADD57C,0.051181*%
%ADD58C,0.059055*%
%FSLAX26Y26*%
G04*
G70*
G90*
G75*
G01*
G04 Bottom*
%LPD*%
X1948228Y2316879D2*
D14*
X1985728D1*
Y2279379D1*
X1948228D1*
Y2316879D2*
D15*
X1898230D1*
X1873228Y2341881D1*
Y2460630D1*
X1823228Y2510630D1*
X956234Y1346999D2*
D16*
Y1355463D1*
X931234Y1380463D1*
X918734D1*
X893734Y1405463D1*
Y1413928D1*
Y1405463D2*
X868734Y1380463D1*
X856234D1*
X831234Y1355463D1*
Y1346999D1*
X893734Y1413928D2*
Y1417963D1*
X933104Y1457333D1*
Y1493849D1*
X913419Y1667077D2*
Y1750150D1*
X943734Y1780465D1*
X981234D1*
X756234Y1342963D2*
Y1505462D1*
X874049Y1623277D1*
Y1667077D1*
X2429656Y685451D2*
D14*
X2041979D1*
X1885907D1*
X1860728Y710630D1*
X2323228Y2410630D2*
X2366979Y2366879D1*
X2498230D1*
X2548228Y2316881D1*
Y1898130D1*
X1721014Y2273131D2*
X1691978D1*
X1685727Y2266881D1*
X2010727Y2029381D2*
X2060727D1*
X2179478Y1941879D2*
D17*
Y1935630D1*
X2210728Y1941879D2*
X2216979D1*
Y1929381D1*
X2298222Y2166874D2*
D14*
X2304472D1*
X2310728Y2173130D1*
X2341979Y2166881D2*
Y2160630D1*
X2498228Y2235630D2*
Y2241879D1*
X2060728Y2241881D2*
Y2229379D1*
X2448228Y1981201D2*
Y2016881D1*
X2454478Y2098130D2*
Y2104379D1*
X2441979Y2091881D1*
X2704478Y1054381D2*
X2660727D1*
X2673228Y1041879D1*
X2710728Y2291881D2*
X2704479D1*
X3029478Y2148130D2*
X3041978D1*
X3129478Y2204379D2*
X3110728D1*
Y2210630D1*
X3341978Y1854381D2*
X3354478D1*
X3835728Y1198130D2*
X3916978D1*
X3935728Y1179379D1*
X1866978Y2004381D2*
X1916979D1*
X1923228Y2010630D1*
X1891979D1*
X2685728Y1723130D2*
X2704478D1*
X2710728Y1729381D1*
X2629479Y2104379D2*
Y2123130D1*
X2635728Y2129379D1*
X2623228D1*
X2916979Y1735630D2*
X2898228D1*
X2885728Y1748130D1*
X3210728Y2154379D2*
X3185728D1*
X3179479Y2148130D1*
X3154479D1*
X3973202Y2266854D2*
X3992004D1*
X3998228Y2260630D1*
X3966979Y2029381D2*
X3973228D1*
X3966706Y1735630D2*
X3985728D1*
X3341979Y729379D2*
X3354478D1*
X3423228Y754381D2*
X3391978D1*
X3385728Y760630D1*
X3666978Y660630D2*
Y635630D1*
X3660728Y629381D1*
Y635630D1*
X3668799Y456201D2*
X3676353Y463755D1*
X831234Y1413928D2*
D16*
Y1470719D1*
X854364Y1493849D1*
X2871640Y2849965D2*
X2909140D1*
X1771640D2*
X1809140D1*
X2435728Y635630D2*
D14*
X2498228D1*
X2529478Y666879D1*
Y791879D1*
Y935631D1*
X2385728Y1079381D1*
X2204478D1*
X2160728Y1123130D1*
Y1223130D1*
X2179479Y1241881D1*
X2210728D1*
Y1273130D1*
Y1304379D1*
X2179479D1*
Y1273130D1*
X2148228D1*
Y1291879D1*
X2129478Y1310630D1*
X2141978D1*
X2148228Y1304379D1*
X2116978D1*
Y1273130D1*
X2148228Y1241879D2*
X2179479D1*
Y1241881D1*
X2566978Y785630D2*
X2535727D1*
X2529478Y791879D1*
X2871640Y3449965D2*
D16*
X2909140D1*
X1771640D2*
X1809140D1*
X975360Y3492463D2*
D14*
X1037860Y3554963D1*
X787861D1*
X925358Y3629963D2*
Y3661214D1*
X987860D1*
X775361Y3629962D2*
X712860D1*
X900361Y3111213D2*
X962861Y3173713D1*
X650361D2*
Y3123711D1*
X637861D1*
X800361Y3167462D2*
X812860Y3154963D1*
X869109D1*
X819110Y3492463D2*
X700361D1*
X669110Y3461213D1*
Y3192463D1*
X694112Y3167462D1*
X800361D1*
X606609Y2636213D2*
Y2661211D1*
X619110Y2673713D1*
X731609D1*
X750358Y2654963D1*
X933104Y1667077D2*
D16*
Y1653592D1*
X956234Y1630462D1*
Y1413928D1*
X960269D1*
X1006234Y1367963D1*
X854364Y1667077D2*
Y1641093D1*
X731234Y1517963D1*
Y1280463D1*
X2873228Y1816881D2*
D14*
Y1860630D1*
X2935728Y1923130D1*
X3141978D1*
X3173228Y1954381D1*
Y2073130D1*
X3191979Y2091881D1*
X3216979D1*
X619102Y3754963D2*
X612860D1*
X569109Y3711213D1*
Y3198711D1*
X600358Y3167462D1*
X2623228Y2410630D2*
Y2310630D1*
X2585728Y2273130D1*
Y2216879D1*
X2623228Y2410630D2*
X2679478Y2466879D1*
X3135730D1*
X3173228Y2429381D1*
Y2323130D1*
X2623228Y2310630D2*
X2666979Y2266879D1*
Y2198130D1*
X2691979Y2173130D1*
X2885727D1*
X2904478Y2154379D1*
X2666979Y2198130D2*
Y2016881D1*
Y1898130D1*
X2685728Y1879381D1*
X893734Y1667077D2*
D16*
Y1780465D1*
D17*
X981234D3*
X756234Y1342963D3*
X2429656Y685451D3*
X2041979D3*
X1860728Y710630D3*
X2548228Y1898130D3*
X1721014Y2273131D3*
X2010727Y2029381D3*
X2179478Y1941879D3*
X2210728D3*
X2298222Y2166874D3*
X2341979Y2166881D3*
X2498228Y2235630D3*
X2060728Y2241881D3*
X2448228Y1981201D3*
X2454478Y2098130D3*
X2704478Y1054381D3*
X2710728Y2291881D3*
X3029478Y2148130D3*
X3129478Y2204379D3*
X3341978Y1854381D3*
X3835728Y1198130D3*
X1866978Y2004381D3*
X2685728Y1723130D3*
X2629479Y2104379D3*
X2916979Y1735630D3*
X3210728Y2154379D3*
X3973202Y2266854D3*
X3966979Y2029381D3*
X3966706Y1735630D3*
X3341979Y729379D3*
X3423228Y754381D3*
X3666978Y660630D3*
X3668799Y456201D3*
X2871640Y2849965D3*
X1771640D3*
X2566978Y785630D3*
X2871640Y3449965D3*
X1771640D3*
X975360Y3492463D3*
X925358Y3629963D3*
X775361Y3629962D3*
X900361Y3111213D3*
X650361Y3173713D3*
X819110Y3492463D3*
X606609Y2636213D3*
X750358Y2654963D3*
X1006234Y1367963D3*
X731234Y1280463D3*
X2873228Y1816881D3*
X3216979Y2091881D3*
X600358Y3167462D3*
X2585728Y2216879D3*
X3173228Y2323130D3*
X2904478Y2154379D3*
X2685728Y1879381D3*
X2666979Y2016881D3*
X2116978Y1304379D3*
X2148228D3*
X2179479D3*
X2210728D3*
X2035728Y835630D3*
X2210728Y1273130D3*
X2179479D3*
X2116978D3*
X2148228D3*
X2210728Y1241881D3*
X2179479D3*
X2148228Y1241879D3*
X2066978Y835630D3*
Y866879D3*
X2035728D3*
Y785630D3*
X2066979D3*
Y748130D3*
X2035728D3*
Y635630D3*
X2066978D3*
X2035728Y604381D3*
X2066978D3*
X2035728Y573130D3*
X2066978D3*
X2404478Y635630D3*
X2435728D3*
X2404478Y604381D3*
X2435728D3*
X2404479Y573130D3*
X2435728D3*
X2116978Y1241879D3*
X2423228Y1310630D3*
X2454479D3*
X2485728D3*
X2516979D3*
Y1279379D3*
X2485728Y1279381D3*
X2423228D3*
X2454479D3*
X2423228Y1248130D3*
X2454479D3*
X2485728D3*
X2516979D3*
X1848228Y1773130D3*
Y1735630D3*
Y1698130D3*
X1810727D3*
X1848228Y1660631D3*
X1810727D3*
X2179479Y1910629D3*
X2210728D3*
X1810728Y1735630D3*
Y1773130D3*
Y1810630D3*
X1848228D3*
X1985728Y2316879D3*
X1948228D3*
Y2279379D3*
X1985728D3*
X2435728Y785630D3*
X2404479D3*
Y754381D3*
X2435728D3*
X893734Y1780465D3*
X869109Y3154963D3*
X800361Y3167462D3*
X837860Y3317462D3*
Y3286213D3*
Y3254963D3*
X875360D3*
Y3286213D3*
Y3317462D3*
X3781270Y2523261D2*
X3793259D1*
X2168966Y2473524D2*
X2177472D1*
X2268966D2*
X2277472D1*
X3768966D2*
X3778375D1*
X2168135Y2448655D2*
X2278322D1*
X3768135D2*
X3778323D1*
X2181173Y2423786D2*
X2265283D1*
X2981173D2*
X3065283D1*
X1753682Y2398917D2*
X1763797D1*
X2181466D2*
X2264991D1*
X2981466D2*
X3064991D1*
X3781466D2*
X3792756D1*
X1737178Y2374049D2*
X1763770D1*
X2069406D2*
X2077089D1*
X2169406D2*
X2277051D1*
X2569406D2*
X2577089D1*
X2669406D2*
X2677089D1*
X2769406D2*
X2777089D1*
X2869406D2*
X2877089D1*
X2969406D2*
X3077051D1*
X3269406D2*
X3277089D1*
X3369406D2*
X3377089D1*
X3469406D2*
X3477089D1*
X3569406D2*
X3577089D1*
X3669406D2*
X3677089D1*
X3769406D2*
X3809278D1*
X1709591Y2349180D2*
X1834718D1*
X2026681D2*
X2343311D1*
X2557295D2*
X2593214D1*
X2653243D2*
X3143214D1*
X3203243D2*
X3836866D1*
X3993087D2*
X4008189D1*
X1629366Y2324311D2*
X1834718D1*
X2036739D2*
X2499415D1*
X2577218D2*
X2593203D1*
X2653243D2*
X3134766D1*
X3211690D2*
X4008203D1*
X1629366Y2299442D2*
X1834718D1*
X2036739D2*
X2518214D1*
X2675802D2*
X3143604D1*
X3202853D2*
X4008203D1*
X1629366Y2274573D2*
X1834718D1*
X2036739D2*
X2518214D1*
X2695870D2*
X4008203D1*
X1629366Y2249705D2*
X1835206D1*
X2036251D2*
X2518214D1*
X2615743D2*
X2636963D1*
X2696993D2*
X4008203D1*
X1629366Y2224836D2*
X2518214D1*
X2623360D2*
X2636963D1*
X2696993D2*
X4008203D1*
X1629366Y2199967D2*
X2518214D1*
X2619991D2*
X2636963D1*
X2894210D2*
X4008203D1*
X1629366Y2175098D2*
X2518214D1*
X2578243D2*
X2636963D1*
X2936398D2*
X4008203D1*
X1538253Y2150230D2*
X2518214D1*
X2578243D2*
X2636963D1*
X2942745D2*
X4008203D1*
X1538253Y2125361D2*
X2518214D1*
X2578243D2*
X2636963D1*
X2696993D2*
X2880665D1*
X2928291D2*
X3201270D1*
X3232686D2*
X4008203D1*
X1538253Y2100492D2*
X2518214D1*
X2578243D2*
X2636963D1*
X2696993D2*
X3159181D1*
X3254415D2*
X3562062D1*
X3666475D2*
X4008203D1*
X1538253Y2075623D2*
X2518214D1*
X2578243D2*
X2636963D1*
X2696993D2*
X3143360D1*
X3251583D2*
X3540138D1*
X3688399D2*
X4008203D1*
X1538253Y2050755D2*
X2518214D1*
X2578243D2*
X2636963D1*
X2696993D2*
X3143214D1*
X3203243D2*
X3530811D1*
X3697726D2*
X4008203D1*
X1538253Y2025886D2*
X2518214D1*
X2578243D2*
X2629639D1*
X2704318D2*
X3143214D1*
X3203243D2*
X3529688D1*
X3698898D2*
X4008203D1*
X1538253Y2001017D2*
X2518214D1*
X2578243D2*
X2632178D1*
X2701778D2*
X3143214D1*
X3203243D2*
X3536329D1*
X3692207D2*
X4008203D1*
X1538253Y1976148D2*
X1548033D1*
X1635958D2*
X2518214D1*
X2578243D2*
X2636963D1*
X2696993D2*
X3143214D1*
X3203243D2*
X3553467D1*
X3675118D2*
X4008203D1*
X1646895Y1951280D2*
X2518214D1*
X2578243D2*
X2636963D1*
X2696993D2*
X3128761D1*
X3203047D2*
X4008203D1*
X1644795Y1926411D2*
X2518214D1*
X2578243D2*
X2636963D1*
X2696993D2*
X2897608D1*
X3186642D2*
X4008203D1*
X1538253Y1901542D2*
X1556521D1*
X1627413D2*
X2509913D1*
X2586543D2*
X2636963D1*
X2716622D2*
X2872755D1*
X3161495D2*
X4008203D1*
X1642013Y1876673D2*
X2516798D1*
X2579659D2*
X2647022D1*
X2724142D2*
X2848390D1*
X2930685D2*
X4008203D1*
X1641915Y1851804D2*
X2660108D1*
X2711349D2*
X2843214D1*
X2905782D2*
X4008203D1*
X1538253Y1826936D2*
X1557692D1*
X1626241D2*
X2836182D1*
X2910274D2*
X4008203D1*
X1640743Y1802067D2*
X2837940D1*
X2908517D2*
X4008203D1*
X1642843Y1777198D2*
X4008203D1*
X1538253Y1752329D2*
X1553399D1*
X1630538D2*
X4008203D1*
X1538692Y1727461D2*
X4008203D1*
X1538692Y1702592D2*
X4008203D1*
X1538692Y1677723D2*
X1570655D1*
X1613302D2*
X4008203D1*
X1641378Y1652854D2*
X4008203D1*
X1647482Y1627986D2*
X4008203D1*
X1641231Y1603117D2*
X1786280D1*
X2546310D2*
X4008203D1*
X1538692Y1578248D2*
X1571534D1*
X1612423D2*
X1797706D1*
X2571163D2*
X4008203D1*
X1538692Y1553379D2*
X2527394D1*
X2596066D2*
X4008203D1*
X1538692Y1528511D2*
X2552295D1*
X2620919D2*
X4008203D1*
X1538692Y1503642D2*
X2577150D1*
X2645772D2*
X4008203D1*
X1538692Y1478773D2*
X2602003D1*
X2670675D2*
X4008203D1*
X1538692Y1453904D2*
X2626906D1*
X2695528D2*
X4008203D1*
X1538692Y1429035D2*
X2651759D1*
X2720382D2*
X4008203D1*
X1538692Y1404167D2*
X2676612D1*
X2745283D2*
X4008203D1*
X1538692Y1379298D2*
X2701514D1*
X2760714D2*
X4008203D1*
X1538692Y1354429D2*
X2710743D1*
X2760714D2*
X4008203D1*
X1538692Y1329560D2*
X2065967D1*
X2261739D2*
X2710743D1*
X2760714D2*
X4008203D1*
X1538692Y1304692D2*
X1701075D1*
X1770382D2*
X2065967D1*
X2261739D2*
X2710743D1*
X2760714D2*
X4008203D1*
X1538692Y1279823D2*
X1684375D1*
X1787081D2*
X2065967D1*
X2261739D2*
X2710743D1*
X2760714D2*
X4008203D1*
X1538692Y1254954D2*
X1683155D1*
X1788302D2*
X2065967D1*
X2261739D2*
X2710743D1*
X2760714D2*
X4008203D1*
X1538692Y1230085D2*
X1695997D1*
X1775459D2*
X2065967D1*
X2261739D2*
X2710743D1*
X2760714D2*
X4008203D1*
X1538253Y1205217D2*
X1685791D1*
X1785665D2*
X2065967D1*
X2261739D2*
X2710743D1*
X2760714D2*
X4008203D1*
X1538253Y1180348D2*
X1682520D1*
X1788937D2*
X2065967D1*
X2264230D2*
X2710743D1*
X2760714D2*
X4008203D1*
X1538253Y1155479D2*
X1692482D1*
X1778975D2*
X2065967D1*
X2289131D2*
X2710743D1*
X2760714D2*
X4008203D1*
X1538253Y1130610D2*
X2065967D1*
X2451486D2*
X2710743D1*
X2760714D2*
X4008203D1*
X1538253Y1105741D2*
X2065967D1*
X2476339D2*
X2710743D1*
X2760714D2*
X4008203D1*
X1538253Y1080873D2*
X2065967D1*
X2501241D2*
X2710743D1*
X2760714D2*
X4008203D1*
X1538253Y1056004D2*
X2079639D1*
X2526094D2*
X2710743D1*
X2760714D2*
X4008203D1*
X1538253Y1031135D2*
X2104493D1*
X2550948D2*
X2710743D1*
X2760714D2*
X4008203D1*
X1538253Y1006266D2*
X2129346D1*
X2575802D2*
X2710743D1*
X2760714D2*
X4008253D1*
X1538253Y981398D2*
X1684718D1*
X2600703D2*
X2710743D1*
X2760714D2*
X4008253D1*
X1538253Y956529D2*
X1672218D1*
X2611739D2*
X2710743D1*
X2760714D2*
X4008253D1*
X1538253Y931660D2*
X1672218D1*
X2611739D2*
X2710743D1*
X2760714D2*
X4008253D1*
X1538253Y906791D2*
X1672218D1*
X2611739D2*
X2710743D1*
X2760714D2*
X4008253D1*
X1538253Y881923D2*
X1672364D1*
X2611739D2*
X2710743D1*
X2760714D2*
X4008253D1*
X1538253Y857054D2*
X1672218D1*
X2111739D2*
X2334718D1*
X2611739D2*
X2710743D1*
X2760714D2*
X4008253D1*
X1538253Y832185D2*
X1672218D1*
X2111739D2*
X2359571D1*
X2611739D2*
X2710743D1*
X2760714D2*
X4008253D1*
X1538253Y807316D2*
X1672413D1*
X2111543D2*
X2359766D1*
X2611739D2*
X2710743D1*
X2760714D2*
X4008253D1*
X1538253Y782448D2*
X1672218D1*
X2111739D2*
X2359766D1*
X2611739D2*
X2710743D1*
X2760714D2*
X4008253D1*
X1538253Y757579D2*
X1672218D1*
X2111739D2*
X2359766D1*
X2611739D2*
X2710743D1*
X2760714D2*
X4008253D1*
X1538253Y732710D2*
X1672413D1*
X2111593D2*
X2359962D1*
X2611739D2*
X2710743D1*
X2760714D2*
X4008253D1*
X1538253Y707841D2*
X1822315D1*
X2611739D2*
X2710743D1*
X2760714D2*
X3308203D1*
X3638253D2*
X4008253D1*
X1538253Y682972D2*
X1835206D1*
X2611739D2*
X2710743D1*
X2760714D2*
X3308203D1*
X3638253D2*
X4008253D1*
X1538253Y658104D2*
X1583058D1*
X1679903D2*
X1880518D1*
X2611739D2*
X2710743D1*
X2760714D2*
X3308203D1*
X3638253D2*
X3866554D1*
X3963399D2*
X4008253D1*
X1722238Y633235D2*
X1991017D1*
X2611739D2*
X2710743D1*
X2760714D2*
X3308203D1*
X3638253D2*
X3824219D1*
X1744601Y608366D2*
X1991017D1*
X2610127D2*
X2710743D1*
X2760714D2*
X3308203D1*
X3638253D2*
X3801856D1*
X1758223Y583497D2*
X1991017D1*
X2588058D2*
X2710743D1*
X2760714D2*
X3308203D1*
X3638253D2*
X3788234D1*
X1765890Y558629D2*
X1991017D1*
X2563203D2*
X2710743D1*
X2760714D2*
X3308203D1*
X3638253D2*
X3780567D1*
X1768673Y533760D2*
X2002882D1*
X2536983D2*
X2710743D1*
X2760714D2*
X3308203D1*
X3638253D2*
X3777783D1*
X1766769Y508891D2*
X2710743D1*
X2760714D2*
X3308203D1*
X3638253D2*
X3779688D1*
X1760030Y484022D2*
X2710743D1*
X2760714D2*
X3308203D1*
X3638253D2*
X3786427D1*
X1747579Y459154D2*
X2710743D1*
X2760714D2*
X3308203D1*
X3638253D2*
X3798878D1*
X1727218Y434285D2*
X2710743D1*
X2760714D2*
X3308203D1*
X3638253D2*
X3819239D1*
X3835052Y423127D2*
X3827493Y429085D1*
X3819728Y436264D1*
X3812550Y444029D1*
X3806004Y452335D1*
X3800129Y461127D1*
X3794961Y470353D1*
X3790534Y479957D1*
X3786874Y489878D1*
X3784004Y500056D1*
X3781940Y510428D1*
X3780697Y520929D1*
X3780282Y531496D1*
X3780697Y542063D1*
X3781940Y552564D1*
X3784004Y562936D1*
X3786874Y573114D1*
X3790534Y583035D1*
X3794961Y592639D1*
X3800129Y601865D1*
X3806004Y610657D1*
X3812550Y618963D1*
X3819728Y626728D1*
X3827493Y633907D1*
X3835799Y640453D1*
X3844592Y646328D1*
X3853818Y651496D1*
X3863421Y655923D1*
X3873343Y659583D1*
X3883521Y662453D1*
X3893892Y664517D1*
X3904394Y665760D1*
X3914961Y666175D1*
X3925528Y665760D1*
X3936029Y664517D1*
X3946400Y662453D1*
X3956579Y659583D1*
X3966500Y655923D1*
X3976104Y651496D1*
X3985329Y646328D1*
X3994122Y640453D1*
X4002428Y633907D1*
X4010726Y626152D1*
X4010728Y2365951D1*
X4002428Y2358219D1*
X3994122Y2351673D1*
X3985329Y2345798D1*
X3976104Y2340630D1*
X3966500Y2336203D1*
X3956579Y2332543D1*
X3946400Y2329673D1*
X3936029Y2327609D1*
X3925528Y2326366D1*
X3914961Y2325951D1*
X3904394Y2326366D1*
X3893892Y2327609D1*
X3883521Y2329673D1*
X3873343Y2332543D1*
X3863421Y2336203D1*
X3853818Y2340630D1*
X3844592Y2345798D1*
X3835799Y2351673D1*
X3827493Y2358219D1*
X3819728Y2365398D1*
X3812550Y2373163D1*
X3806004Y2381469D1*
X3800129Y2390261D1*
X3794961Y2399487D1*
X3790534Y2409091D1*
X3786874Y2419012D1*
X3784004Y2429190D1*
X3781940Y2439562D1*
X3780697Y2450063D1*
X3780282Y2460630D1*
X3780697Y2471197D1*
X3781940Y2481698D1*
X3784004Y2492070D1*
X3786874Y2502248D1*
X3790534Y2512169D1*
X3794961Y2521773D1*
X3800129Y2530999D1*
X3806004Y2539791D1*
X3812579Y2548127D1*
X3766148Y2548130D1*
X3771799Y2540394D1*
X3775857Y2532429D1*
X3778619Y2523928D1*
X3780017Y2515100D1*
Y2506160D1*
X3778619Y2497332D1*
X3775857Y2488831D1*
X3771799Y2480866D1*
X3766545Y2473634D1*
X3760224Y2467314D1*
X3752992Y2462059D1*
X3750476Y2460651D1*
X3756711Y2456715D1*
X3763508Y2450909D1*
X3769314Y2444113D1*
X3773984Y2436491D1*
X3777406Y2428234D1*
X3779492Y2419541D1*
X3780193Y2410630D1*
X3779492Y2401719D1*
X3777406Y2393026D1*
X3773984Y2384769D1*
X3769314Y2377147D1*
X3763508Y2370350D1*
X3756711Y2364545D1*
X3749089Y2359874D1*
X3740832Y2356453D1*
X3732139Y2354366D1*
X3723228Y2353665D1*
X3714318Y2354366D1*
X3705625Y2356453D1*
X3697367Y2359874D1*
X3689745Y2364545D1*
X3682949Y2370350D1*
X3677143Y2377147D1*
X3673249Y2383382D1*
X3669314Y2377147D1*
X3663508Y2370350D1*
X3656711Y2364545D1*
X3649089Y2359874D1*
X3640832Y2356453D1*
X3632139Y2354366D1*
X3623228Y2353665D1*
X3614318Y2354366D1*
X3605625Y2356453D1*
X3597367Y2359874D1*
X3589745Y2364545D1*
X3582949Y2370350D1*
X3577143Y2377147D1*
X3573249Y2383382D1*
X3569314Y2377147D1*
X3563508Y2370350D1*
X3556711Y2364545D1*
X3549089Y2359874D1*
X3540832Y2356453D1*
X3532139Y2354366D1*
X3523228Y2353665D1*
X3514318Y2354366D1*
X3505625Y2356453D1*
X3497367Y2359874D1*
X3489745Y2364545D1*
X3482949Y2370350D1*
X3477143Y2377147D1*
X3473249Y2383382D1*
X3469314Y2377147D1*
X3463508Y2370350D1*
X3456711Y2364545D1*
X3449089Y2359874D1*
X3440832Y2356453D1*
X3432139Y2354366D1*
X3423228Y2353665D1*
X3414318Y2354366D1*
X3405625Y2356453D1*
X3397367Y2359874D1*
X3389745Y2364545D1*
X3382949Y2370350D1*
X3377143Y2377147D1*
X3373249Y2383382D1*
X3369314Y2377147D1*
X3363508Y2370350D1*
X3356711Y2364545D1*
X3349089Y2359874D1*
X3340832Y2356453D1*
X3332139Y2354366D1*
X3323228Y2353665D1*
X3314318Y2354366D1*
X3305625Y2356453D1*
X3297367Y2359874D1*
X3289745Y2364545D1*
X3282949Y2370350D1*
X3277143Y2377147D1*
X3273249Y2383382D1*
X3269314Y2377147D1*
X3263508Y2370350D1*
X3256711Y2364545D1*
X3249089Y2359874D1*
X3240832Y2356453D1*
X3232139Y2354366D1*
X3223228Y2353665D1*
X3214318Y2354366D1*
X3205625Y2356453D1*
X3200715Y2358331D1*
X3200728Y2346324D1*
X3203924Y2341940D1*
X3206488Y2336907D1*
X3208234Y2331534D1*
X3209117Y2325954D1*
Y2320306D1*
X3208234Y2314726D1*
X3206488Y2309353D1*
X3203924Y2304320D1*
X3200602Y2299749D1*
X3196609Y2295756D1*
X3192038Y2292434D1*
X3187005Y2289870D1*
X3181633Y2288125D1*
X3176052Y2287241D1*
X3170404D1*
X3164824Y2288125D1*
X3159451Y2289870D1*
X3154419Y2292434D1*
X3149848Y2295756D1*
X3145854Y2299749D1*
X3142533Y2304320D1*
X3139969Y2309353D1*
X3138223Y2314726D1*
X3137340Y2320306D1*
Y2325954D1*
X3138223Y2331534D1*
X3139969Y2336907D1*
X3142533Y2341940D1*
X3145724Y2346345D1*
X3145728Y2358335D1*
X3136526Y2355239D1*
X3127698Y2353841D1*
X3118759D1*
X3109930Y2355239D1*
X3101429Y2358001D1*
X3093465Y2362059D1*
X3086232Y2367314D1*
X3079912Y2373634D1*
X3074657Y2380866D1*
X3070600Y2388831D1*
X3067837Y2397332D1*
X3066440Y2406160D1*
Y2415100D1*
X3067837Y2423928D1*
X3070600Y2432429D1*
X3074087Y2439373D1*
X2972399Y2439379D1*
X2975857Y2432429D1*
X2978619Y2423928D1*
X2980017Y2415100D1*
Y2406160D1*
X2978619Y2397332D1*
X2975857Y2388831D1*
X2971799Y2380866D1*
X2966545Y2373634D1*
X2960224Y2367314D1*
X2952992Y2362059D1*
X2945028Y2358001D1*
X2936526Y2355239D1*
X2927698Y2353841D1*
X2918759D1*
X2909930Y2355239D1*
X2901429Y2358001D1*
X2893465Y2362059D1*
X2886232Y2367314D1*
X2879912Y2373634D1*
X2874657Y2380866D1*
X2873249Y2383382D1*
X2869314Y2377147D1*
X2863508Y2370350D1*
X2856711Y2364545D1*
X2849089Y2359874D1*
X2840832Y2356453D1*
X2832139Y2354366D1*
X2823228Y2353665D1*
X2814318Y2354366D1*
X2805625Y2356453D1*
X2797367Y2359874D1*
X2789745Y2364545D1*
X2782949Y2370350D1*
X2777143Y2377147D1*
X2773249Y2383382D1*
X2769314Y2377147D1*
X2763508Y2370350D1*
X2756711Y2364545D1*
X2749089Y2359874D1*
X2740832Y2356453D1*
X2732139Y2354366D1*
X2723228Y2353665D1*
X2714318Y2354366D1*
X2705625Y2356453D1*
X2697367Y2359874D1*
X2689745Y2364545D1*
X2682949Y2370350D1*
X2677143Y2377147D1*
X2673249Y2383382D1*
X2669314Y2377147D1*
X2663508Y2370350D1*
X2656711Y2364545D1*
X2650728Y2360630D1*
Y2322007D1*
X2687890Y2284739D1*
X2691482Y2279364D1*
X2693719Y2273299D1*
X2694479Y2266879D1*
Y2209507D1*
X2703377Y2200623D1*
X2887885Y2200545D1*
X2894224Y2199283D1*
X2900096Y2196577D1*
X2905172Y2192575D1*
X2907486Y2190262D1*
X2915602Y2188617D1*
X2920822Y2186455D1*
X2925638Y2183504D1*
X2929933Y2179835D1*
X2933602Y2175539D1*
X2936554Y2170723D1*
X2938715Y2165504D1*
X2940034Y2160011D1*
X2940478Y2154379D1*
X2940034Y2148748D1*
X2938715Y2143255D1*
X2936554Y2138035D1*
X2933602Y2133219D1*
X2929933Y2128924D1*
X2925638Y2125255D1*
X2920822Y2122303D1*
X2915602Y2120142D1*
X2910109Y2118823D1*
X2904478Y2118379D1*
X2898846Y2118823D1*
X2893353Y2120142D1*
X2888134Y2122303D1*
X2883318Y2125255D1*
X2879022Y2128924D1*
X2875353Y2133219D1*
X2872402Y2138035D1*
X2870240Y2143255D1*
X2869571Y2145625D1*
X2694493Y2145630D1*
X2694479Y2040073D1*
X2697675Y2035690D1*
X2700239Y2030657D1*
X2701984Y2025285D1*
X2702867Y2019705D1*
Y2014056D1*
X2701984Y2008476D1*
X2700239Y2003104D1*
X2697675Y1998071D1*
X2694483Y1993665D1*
X2694479Y1914293D1*
X2702072Y1911457D1*
X2706888Y1908505D1*
X2711184Y1904836D1*
X2714853Y1900541D1*
X2717804Y1895724D1*
X2719966Y1890505D1*
X2721285Y1885012D1*
X2721728Y1879381D1*
X2721285Y1873749D1*
X2719966Y1868256D1*
X2717804Y1863037D1*
X2714853Y1858220D1*
X2711184Y1853925D1*
X2706888Y1850256D1*
X2702072Y1847304D1*
X2696853Y1845143D1*
X2691360Y1843824D1*
X2685728Y1843381D1*
X2680097Y1843824D1*
X2674604Y1845143D1*
X2669385Y1847304D1*
X2664568Y1850256D1*
X2660273Y1853925D1*
X2656604Y1858220D1*
X2653652Y1863037D1*
X2651491Y1868256D1*
X2650172Y1873749D1*
X2649864Y1876348D1*
X2644731Y1881966D1*
X2641572Y1887606D1*
X2639818Y1893828D1*
X2639479Y1898130D1*
Y1993686D1*
X2636283Y1998071D1*
X2633719Y2003104D1*
X2631974Y2008476D1*
X2631091Y2014056D1*
Y2019705D1*
X2631974Y2025285D1*
X2633719Y2030657D1*
X2636283Y2035690D1*
X2639475Y2040096D1*
X2639479Y2255503D1*
X2623261Y2271706D1*
X2613223Y2261734D1*
X2613228Y2240073D1*
X2616424Y2235689D1*
X2618988Y2230656D1*
X2620734Y2225283D1*
X2621617Y2219703D1*
Y2214055D1*
X2620734Y2208475D1*
X2618988Y2203102D1*
X2616424Y2198070D1*
X2613102Y2193499D1*
X2609109Y2189505D1*
X2604538Y2186184D1*
X2599505Y2183619D1*
X2594133Y2181874D1*
X2588552Y2180991D1*
X2582904D1*
X2575719Y2182327D1*
X2575728Y1921324D1*
X2578924Y1916940D1*
X2581488Y1911907D1*
X2583234Y1906534D1*
X2584117Y1900954D1*
Y1895306D1*
X2583234Y1889726D1*
X2581488Y1884353D1*
X2578924Y1879320D1*
X2575602Y1874749D1*
X2571609Y1870756D1*
X2567038Y1867434D1*
X2562005Y1864870D1*
X2556633Y1863125D1*
X2551052Y1862241D1*
X2545404D1*
X2539824Y1863125D1*
X2534451Y1864870D1*
X2529419Y1867434D1*
X2524848Y1870756D1*
X2520854Y1874749D1*
X2517533Y1879320D1*
X2514969Y1884353D1*
X2513223Y1889726D1*
X2512340Y1895306D1*
Y1900954D1*
X2513223Y1906534D1*
X2514969Y1911907D1*
X2517533Y1916940D1*
X2520724Y1921345D1*
X2520728Y2305503D1*
X2486833Y2339385D1*
X2364822Y2339465D1*
X2358482Y2340726D1*
X2352610Y2343432D1*
X2347534Y2347434D1*
X2339075Y2355892D1*
X2332139Y2354366D1*
X2323228Y2353665D1*
X2314318Y2354366D1*
X2305625Y2356453D1*
X2297367Y2359874D1*
X2289745Y2364545D1*
X2282949Y2370350D1*
X2277143Y2377147D1*
X2272472Y2384769D1*
X2269051Y2393026D1*
X2266965Y2401719D1*
X2266264Y2410630D1*
X2266965Y2419541D1*
X2269051Y2428234D1*
X2272472Y2436491D1*
X2277143Y2444113D1*
X2282949Y2450909D1*
X2289745Y2456715D1*
X2295980Y2460609D1*
X2289745Y2464545D1*
X2282949Y2470350D1*
X2277143Y2477147D1*
X2273249Y2483382D1*
X2269314Y2477147D1*
X2263508Y2470350D1*
X2256711Y2464545D1*
X2249089Y2459874D1*
X2240832Y2456453D1*
X2232139Y2454366D1*
X2223228Y2453665D1*
X2214318Y2454366D1*
X2205625Y2456453D1*
X2197367Y2459874D1*
X2189745Y2464545D1*
X2182949Y2470350D1*
X2177143Y2477147D1*
X2173249Y2483382D1*
X2169314Y2477147D1*
X2163508Y2470350D1*
X2156711Y2464545D1*
X2150476Y2460651D1*
X2156711Y2456715D1*
X2163508Y2450909D1*
X2169314Y2444113D1*
X2173984Y2436491D1*
X2177406Y2428234D1*
X2179492Y2419541D1*
X2180193Y2410630D1*
X2179492Y2401719D1*
X2177406Y2393026D1*
X2173984Y2384769D1*
X2169314Y2377147D1*
X2163508Y2370350D1*
X2156711Y2364545D1*
X2149089Y2359874D1*
X2140832Y2356453D1*
X2132139Y2354366D1*
X2123228Y2353665D1*
X2114318Y2354366D1*
X2105625Y2356453D1*
X2097367Y2359874D1*
X2089745Y2364545D1*
X2082949Y2370350D1*
X2077143Y2377147D1*
X2073249Y2383382D1*
X2069314Y2377147D1*
X2063508Y2370350D1*
X2056711Y2364545D1*
X2049089Y2359874D1*
X2040832Y2356453D1*
X2032139Y2354366D1*
X2023228Y2353665D1*
X2019545Y2353810D1*
X2029740Y2343194D1*
X2032440Y2338374D1*
X2033940Y2333056D1*
X2034228Y2316881D1*
X2033940Y2250703D1*
X2032440Y2245386D1*
X2029740Y2240566D1*
X2025991Y2236509D1*
X2021398Y2233441D1*
X2016214Y2231529D1*
X2010728Y2230879D1*
X1857052Y2231168D1*
X1851735Y2232668D1*
X1846915Y2235367D1*
X1842858Y2239117D1*
X1839790Y2243710D1*
X1837878Y2248894D1*
X1837228Y2254379D1*
Y2353647D1*
X1766264Y2353665D1*
Y2428714D1*
X1764211Y2430265D1*
X1762453Y2429190D1*
X1759583Y2419012D1*
X1755923Y2409091D1*
X1751496Y2399487D1*
X1746328Y2390261D1*
X1740453Y2381469D1*
X1733907Y2373163D1*
X1726728Y2365398D1*
X1718963Y2358219D1*
X1710657Y2351673D1*
X1701865Y2345798D1*
X1692639Y2340630D1*
X1683035Y2336203D1*
X1673114Y2332543D1*
X1662936Y2329673D1*
X1652564Y2327609D1*
X1642063Y2326366D1*
X1626832Y2326135D1*
X1626845Y2164681D1*
X1535684D1*
X1535728Y1738902D1*
X1536201Y1730315D1*
Y1230302D1*
X1535728Y1210630D1*
Y626206D1*
X1544029Y633907D1*
X1552335Y640453D1*
X1561127Y646328D1*
X1570353Y651496D1*
X1579957Y655923D1*
X1589878Y659583D1*
X1600056Y662453D1*
X1610428Y664517D1*
X1620929Y665760D1*
X1631496Y666175D1*
X1642063Y665760D1*
X1652564Y664517D1*
X1662936Y662453D1*
X1673114Y659583D1*
X1683035Y655923D1*
X1692639Y651496D1*
X1701865Y646328D1*
X1710657Y640453D1*
X1718963Y633907D1*
X1726728Y626728D1*
X1733907Y618963D1*
X1740453Y610657D1*
X1746328Y601865D1*
X1751496Y592639D1*
X1755923Y583035D1*
X1759583Y573114D1*
X1762453Y562936D1*
X1764517Y552564D1*
X1765760Y542063D1*
X1766175Y531496D1*
X1765760Y520929D1*
X1764517Y510428D1*
X1762453Y500056D1*
X1759583Y489878D1*
X1755923Y479957D1*
X1751496Y470353D1*
X1746328Y461127D1*
X1740453Y452335D1*
X1733907Y444029D1*
X1726728Y436264D1*
X1718963Y429085D1*
X1711404Y423127D1*
X2713219Y423129D1*
X2713228Y1370054D1*
X2507660Y1575629D1*
X1807209Y1575907D1*
X1802118Y1577343D1*
X1797503Y1579927D1*
X1793619Y1583517D1*
X1790681Y1587915D1*
X1788850Y1592878D1*
X1788228Y1598130D1*
X1788850Y1603382D1*
X1790681Y1608345D1*
X1793619Y1612743D1*
X1797503Y1616333D1*
X1802118Y1618917D1*
X1807209Y1620353D1*
X1823228Y1620630D1*
X2520499Y1620353D1*
X2525589Y1618917D1*
X2530205Y1616333D1*
X2541728Y1605201D1*
X2753932Y1392606D1*
X2756516Y1387991D1*
X2757951Y1382900D1*
X2758228Y1366881D1*
Y423081D1*
X3310680Y423129D1*
X3310882Y712584D1*
X3312091Y716303D1*
X3314390Y719467D1*
X3317554Y721766D1*
X3321273Y722975D1*
X3360728Y723129D1*
X3625184Y722975D1*
X3628903Y721766D1*
X3632067Y719467D1*
X3634366Y716303D1*
X3635575Y712584D1*
X3635728Y673129D1*
Y423177D1*
X3834996Y423129D1*
X1786630Y1261003D2*
X1785377Y1253089D1*
X1782900Y1245470D1*
X1779264Y1238331D1*
X1774554Y1231849D1*
X1768213Y1225651D1*
X1774554Y1219429D1*
X1779264Y1212948D1*
X1782900Y1205808D1*
X1785377Y1198189D1*
X1786630Y1190276D1*
Y1182262D1*
X1785377Y1174349D1*
X1782900Y1166730D1*
X1779264Y1159591D1*
X1774554Y1153109D1*
X1768888Y1147444D1*
X1762407Y1142734D1*
X1755268Y1139097D1*
X1747648Y1136621D1*
X1739735Y1135367D1*
X1731722D1*
X1723808Y1136621D1*
X1716189Y1139097D1*
X1709050Y1142734D1*
X1702568Y1147444D1*
X1696903Y1153109D1*
X1692193Y1159591D1*
X1688556Y1166730D1*
X1686080Y1174349D1*
X1684827Y1182262D1*
Y1190276D1*
X1686080Y1198189D1*
X1688556Y1205808D1*
X1692193Y1212948D1*
X1696903Y1219429D1*
X1703244Y1225627D1*
X1696903Y1231849D1*
X1692193Y1238331D1*
X1688556Y1245470D1*
X1686080Y1253089D1*
X1684827Y1261003D1*
Y1269016D1*
X1686080Y1276929D1*
X1688556Y1284549D1*
X1692193Y1291688D1*
X1696903Y1298169D1*
X1702568Y1303835D1*
X1709050Y1308545D1*
X1716189Y1312181D1*
X1723808Y1314657D1*
X1731722Y1315911D1*
X1739735D1*
X1747648Y1314657D1*
X1755268Y1312181D1*
X1762407Y1308545D1*
X1768888Y1303835D1*
X1774554Y1298169D1*
X1779264Y1291688D1*
X1782900Y1284549D1*
X1785377Y1276929D1*
X1786630Y1269016D1*
Y1261003D1*
X2573207Y2383382D2*
X2569314Y2377147D1*
X2563508Y2370350D1*
X2556711Y2364545D1*
X2549089Y2359874D1*
X2545678Y2358302D1*
X2569139Y2334740D1*
X2572731Y2329365D1*
X2574969Y2323301D1*
X2575728Y2316881D1*
Y2301988D1*
X2595734Y2322026D1*
X2595728Y2360777D1*
X2589745Y2364545D1*
X2582949Y2370350D1*
X2577143Y2377147D1*
X2573249Y2383382D1*
X1640917Y1781778D2*
X1639711Y1774171D1*
X1637332Y1766844D1*
X1633835Y1759980D1*
X1629307Y1753748D1*
X1623860Y1748301D1*
X1617627Y1743773D1*
X1610764Y1740276D1*
X1603437Y1737896D1*
X1595829Y1736690D1*
X1588126D1*
X1580518Y1737896D1*
X1573192Y1740276D1*
X1566328Y1743773D1*
X1560096Y1748301D1*
X1554648Y1753748D1*
X1550121Y1759980D1*
X1546623Y1766844D1*
X1544244Y1774171D1*
X1543038Y1781778D1*
Y1789482D1*
X1544244Y1797089D1*
X1546623Y1804416D1*
X1550121Y1811280D1*
X1554648Y1817512D1*
X1560096Y1822959D1*
X1562661Y1824982D1*
X1557265Y1829657D1*
X1552262Y1835516D1*
X1548238Y1842084D1*
X1545290Y1849201D1*
X1543492Y1856690D1*
X1542887Y1864370D1*
X1543492Y1872050D1*
X1545290Y1879539D1*
X1548238Y1886656D1*
X1552262Y1893224D1*
X1557265Y1899083D1*
X1559531Y1901177D1*
X1554482Y1905614D1*
X1549077Y1911941D1*
X1544730Y1919037D1*
X1541546Y1926724D1*
X1539602Y1934815D1*
X1538950Y1943110D1*
X1539602Y1951406D1*
X1541546Y1959496D1*
X1544730Y1967184D1*
X1549077Y1974280D1*
X1554482Y1980606D1*
X1560808Y1986011D1*
X1567904Y1990358D1*
X1575592Y1993542D1*
X1583682Y1995486D1*
X1591978Y1996138D1*
X1600273Y1995486D1*
X1608364Y1993542D1*
X1616051Y1990358D1*
X1623147Y1986011D1*
X1629474Y1980606D1*
X1634878Y1974280D1*
X1639226Y1967184D1*
X1642409Y1959496D1*
X1644353Y1951406D1*
X1645005Y1943110D1*
X1644353Y1934815D1*
X1642409Y1926724D1*
X1639226Y1919037D1*
X1634878Y1911941D1*
X1629474Y1905614D1*
X1624411Y1901207D1*
X1629307Y1896252D1*
X1633835Y1890020D1*
X1637332Y1883156D1*
X1639711Y1875829D1*
X1640917Y1868222D1*
Y1860518D1*
X1639711Y1852911D1*
X1637332Y1845584D1*
X1633835Y1838720D1*
X1629307Y1832488D1*
X1623860Y1827041D1*
X1621294Y1825018D1*
X1626690Y1820343D1*
X1631693Y1814484D1*
X1635718Y1807916D1*
X1638665Y1800799D1*
X1640463Y1793310D1*
X1641068Y1785630D1*
X1640917Y1781778D1*
X1644841Y1623990D2*
X1643541Y1615770D1*
X1640969Y1607857D1*
X1637192Y1600442D1*
X1632301Y1593711D1*
X1626416Y1587827D1*
X1619685Y1582936D1*
X1612270Y1579159D1*
X1604357Y1576587D1*
X1596138Y1575286D1*
X1587818D1*
X1579598Y1576587D1*
X1571685Y1579159D1*
X1564270Y1582936D1*
X1557539Y1587827D1*
X1551655Y1593711D1*
X1546764Y1600442D1*
X1542987Y1607857D1*
X1540415Y1615770D1*
X1539114Y1623990D1*
Y1632310D1*
X1540415Y1640529D1*
X1542987Y1648442D1*
X1546764Y1655857D1*
X1551655Y1662588D1*
X1557539Y1668472D1*
X1564270Y1673364D1*
X1571685Y1677140D1*
X1579598Y1679713D1*
X1587818Y1681013D1*
X1596138D1*
X1604357Y1679713D1*
X1612270Y1677140D1*
X1619685Y1673364D1*
X1626416Y1668472D1*
X1632301Y1662588D1*
X1637192Y1655857D1*
X1640969Y1648442D1*
X1643541Y1640529D1*
X1644841Y1632310D1*
Y1623990D1*
X3696577Y2028093D2*
X3694551Y2015299D1*
X3690547Y2002979D1*
X3684667Y1991436D1*
X3677052Y1980955D1*
X3667892Y1971795D1*
X3657412Y1964181D1*
X3645869Y1958301D1*
X3633549Y1954297D1*
X3620755Y1952270D1*
X3607799D1*
X3595005Y1954297D1*
X3582685Y1958301D1*
X3571142Y1964181D1*
X3560661Y1971795D1*
X3551501Y1980955D1*
X3543887Y1991436D1*
X3538007Y2002979D1*
X3534003Y2015299D1*
X3531976Y2028093D1*
Y2041049D1*
X3534003Y2053843D1*
X3538007Y2066163D1*
X3543887Y2077706D1*
X3551501Y2088186D1*
X3560661Y2097346D1*
X3571142Y2104961D1*
X3582685Y2110841D1*
X3595005Y2114845D1*
X3607799Y2116871D1*
X3620755D1*
X3633549Y2114845D1*
X3645869Y2110841D1*
X3657412Y2104961D1*
X3667892Y2097346D1*
X3677052Y2088186D1*
X3684667Y2077706D1*
X3690547Y2066163D1*
X3694551Y2053843D1*
X3696577Y2041049D1*
Y2028093D1*
X2109256Y791701D2*
X2108967Y731768D1*
X2107467Y726450D1*
X2104768Y721630D1*
X2101018Y717573D1*
X2096425Y714505D1*
X2093000Y713088D1*
X2254479Y712951D1*
X2378525Y713093D1*
X2373509Y715407D1*
X2369171Y718827D1*
X2365751Y723165D1*
X2363437Y728181D1*
X2362360Y733600D1*
X2362287Y831976D1*
X2326046Y868211D1*
X2109238Y868210D1*
X2108967Y813026D1*
X2108606Y809686D1*
X2109256Y804201D1*
Y791701D1*
X1824759Y712070D2*
X1694541Y712421D1*
X1689224Y713923D1*
X1684407Y716625D1*
X1680352Y720377D1*
X1677285Y724971D1*
X1675375Y730155D1*
X1674728Y735630D1*
X1675017Y808055D1*
X1675373Y811415D1*
X1674728Y816908D1*
X1675017Y883055D1*
X1675374Y886406D1*
X1674728Y891899D1*
X1675020Y883068D1*
X1675381Y884878D1*
X1674728Y891928D1*
X1675017Y964306D1*
X1676517Y969623D1*
X1679217Y974442D1*
X1682966Y978500D1*
X1687559Y981568D1*
X1692743Y983480D1*
X1698228Y984130D1*
X2154039D1*
X2074108Y1064118D1*
X2071039Y1068711D1*
X2069127Y1073895D1*
X2068478Y1079381D1*
X2068766Y1333055D1*
X2070266Y1338373D1*
X2072966Y1343193D1*
X2076715Y1347249D1*
X2081308Y1350318D1*
X2086492Y1352230D1*
X2091978Y1352879D1*
X2239404Y1352591D1*
X2244722Y1351091D1*
X2249542Y1348391D1*
X2253598Y1344642D1*
X2256667Y1340049D1*
X2258579Y1334865D1*
X2259228Y1329373D1*
Y1182846D1*
X2295470Y1146623D1*
X2426904Y1146341D1*
X2432222Y1144841D1*
X2437041Y1142142D1*
X2448684Y1130908D1*
X2604740Y974442D1*
X2607440Y969623D1*
X2608940Y964306D1*
X2609228Y948130D1*
X2608940Y613205D1*
X2607440Y607887D1*
X2604740Y603068D1*
X2593507Y591425D1*
X2537041Y535369D1*
X2532222Y532669D1*
X2526904Y531169D1*
X2510728Y530881D1*
X2417045Y530675D1*
X2013323Y530963D1*
X2008005Y532463D1*
X2003185Y535163D1*
X1999129Y538912D1*
X1996060Y543505D1*
X1994148Y548689D1*
X1993499Y554175D1*
X1993789Y657869D1*
X1883749Y658037D1*
X1877409Y659298D1*
X1871538Y662004D1*
X1866462Y666007D1*
X1857726Y674741D1*
X1849604Y676392D1*
X1844385Y678554D1*
X1839568Y681505D1*
X1835273Y685175D1*
X1831604Y689470D1*
X1828652Y694286D1*
X1826491Y699505D1*
X1825172Y704999D1*
X1824785Y712075D1*
X2845728Y1840073D2*
X2846067Y1864932D1*
X2847822Y1871154D1*
X2850980Y1876794D1*
X2853783Y1880075D1*
X2917869Y1944041D1*
X2923244Y1947633D1*
X2929308Y1949870D1*
X2935728Y1950630D1*
X3130601D1*
X3145699Y1965743D1*
X3145812Y2075287D1*
X3147073Y2081627D1*
X3149781Y2087499D1*
X3153789Y2092581D1*
X3175815Y2114129D1*
X3181455Y2117287D1*
X3187677Y2119042D1*
X3193786Y2119381D1*
X3198169Y2122576D1*
X3203202Y2125140D1*
X3208575Y2126886D1*
X3214155Y2127769D1*
X3219803D1*
X3225383Y2126886D1*
X3230756Y2125140D1*
X3235789Y2122576D1*
X3240360Y2119255D1*
X3244353Y2115261D1*
X3247675Y2110690D1*
X3250239Y2105657D1*
X3251984Y2100285D1*
X3252867Y2094705D1*
Y2089056D1*
X3251984Y2083476D1*
X3250239Y2078104D1*
X3247675Y2073071D1*
X3244353Y2068500D1*
X3240360Y2064507D1*
X3235789Y2061185D1*
X3230756Y2058621D1*
X3225383Y2056875D1*
X3219803Y2055992D1*
X3214155D1*
X3208575Y2056875D1*
X3203202Y2058621D1*
X3200726Y2059762D1*
X3200644Y1952223D1*
X3199383Y1945883D1*
X3196676Y1940012D1*
X3192675Y1934934D1*
X3159837Y1902219D1*
X3154462Y1898627D1*
X3148398Y1896390D1*
X3141978Y1895630D1*
X2947105D1*
X2900726Y1849236D1*
X2900728Y1840073D1*
X2903924Y1835690D1*
X2906488Y1830657D1*
X2908234Y1825285D1*
X2909117Y1819705D1*
Y1814056D1*
X2908234Y1808476D1*
X2906488Y1803104D1*
X2903924Y1798071D1*
X2900602Y1793500D1*
X2896609Y1789507D1*
X2892038Y1786185D1*
X2887005Y1783621D1*
X2881633Y1781875D1*
X2876052Y1780992D1*
X2870404D1*
X2864824Y1781875D1*
X2859451Y1783621D1*
X2854419Y1786185D1*
X2849848Y1789507D1*
X2845854Y1793500D1*
X2842533Y1798071D1*
X2839969Y1803104D1*
X2838223Y1808476D1*
X2837340Y1814056D1*
Y1819705D1*
X2838223Y1825285D1*
X2839969Y1830657D1*
X2842533Y1835690D1*
X2845724Y1840096D1*
X1713253Y767011D2*
X2070753D1*
X2073299Y791706D2*
X1710701Y791874D1*
X1710735Y748123D1*
X2073283Y747950D1*
X2073256Y791748D1*
X1713253Y848091D2*
X2070753D1*
X1710728Y866831D2*
X1710739Y829370D1*
X2073287Y829202D1*
X2073256Y873001D1*
X2027797Y872959D1*
X2025837Y870370D1*
X2022673Y868071D1*
X2018954Y866862D1*
X1979492Y866728D1*
X1710693Y866873D1*
X1713253Y923261D2*
X2390430D1*
X2349287Y898392D2*
X2415283D1*
X2374142Y873524D2*
X2439503D1*
X2398995Y848655D2*
X2439503D1*
X2400802Y823786D2*
X2439503D1*
X2400802Y798917D2*
X2439503D1*
X2400802Y774049D2*
X2439503D1*
X2400802Y749180D2*
X2439551D1*
X1710728Y948081D2*
X1710735Y904373D1*
X1993840Y904492D1*
X1996379Y907466D1*
X1999714Y909509D1*
X2003517Y910423D1*
X2106463Y910307D1*
X2110182Y909098D1*
X2113346Y906799D1*
X2115168Y904488D1*
X2129508Y904210D1*
X2337738Y904056D1*
X2341457Y902848D1*
X2344621Y900549D1*
X2395900Y849052D1*
X2397676Y845567D1*
X2398287Y841705D1*
Y747906D1*
X2442087Y747944D1*
X2441982Y874220D1*
X2368059Y948122D1*
X1710777Y948130D1*
X2032024Y616816D2*
X2439524D1*
X2032024Y591948D2*
X2439524D1*
X2032024Y567079D2*
X2439524D1*
X2441996Y641685D2*
X2029499D1*
Y566636D1*
X2442047Y566675D1*
X2442045Y641723D1*
X2107003Y1292011D2*
X2220752D1*
X2107003Y1267142D2*
X2220752D1*
X2107003Y1242273D2*
X2220752D1*
X2107003Y1217404D2*
X2220752D1*
X2107003Y1192535D2*
X2220752D1*
X2107003Y1167667D2*
X2220996D1*
X2107003Y1142798D2*
X2245899D1*
X2107003Y1117929D2*
X2270752D1*
X2107003Y1093060D2*
X2433105D1*
X2123360Y1068192D2*
X2458008D1*
X2148213Y1043323D2*
X2482861D1*
X2173067Y1018454D2*
X2507715D1*
X2397969Y993585D2*
X2532617D1*
X2422823Y968717D2*
X2557471D1*
X2447676Y943848D2*
X2570752D1*
X2472579Y918979D2*
X2570752D1*
X2488252Y894110D2*
X2570752D1*
X2488252Y869241D2*
X2570752D1*
X2488252Y844373D2*
X2570752D1*
X2488252Y819504D2*
X2570752D1*
X2488252Y794635D2*
X2570752D1*
X2488252Y769766D2*
X2570752D1*
X2488252Y744898D2*
X2570752D1*
X2488252Y720029D2*
X2570752D1*
X2488252Y695160D2*
X2570752D1*
X2484297Y670291D2*
X2570752D1*
X2459444Y645423D2*
X2570752D1*
X2413252Y620554D2*
X2569239D1*
X2413252Y595685D2*
X2544336D1*
X2413252Y570816D2*
X2519483D1*
X2223180Y1316879D2*
X2104429D1*
X2104478Y1084605D1*
X2178398Y1010638D1*
X2375184Y1010476D1*
X2378903Y1009268D1*
X2382067Y1006969D1*
X2483341Y905478D1*
X2485117Y901992D1*
X2485728Y898130D1*
X2485575Y677425D1*
X2484366Y673706D1*
X2482067Y670542D1*
X2455576Y644266D1*
X2452092Y642491D1*
X2448228Y641879D1*
X2410777D1*
X2410728Y566928D1*
X2518004Y566881D1*
X2573257Y622088D1*
X2573228Y955430D1*
X2418031Y1110648D1*
X2283773Y1110783D1*
X2280054Y1111992D1*
X2276890Y1114291D1*
X2225615Y1165782D1*
X2223840Y1169268D1*
X2223228Y1173130D1*
Y1316831D1*
X1794504Y2517012D2*
X1945705D1*
X1794504Y2492143D2*
X1945705D1*
X1794504Y2467274D2*
X1945705D1*
X1875705Y2342930D2*
X1977004D1*
X1875705Y2318062D2*
X1995705D1*
X1875705Y2293193D2*
X1995705D1*
X1875705Y2268324D2*
X1995705D1*
X1791950Y2465395D2*
X1877993D1*
Y2441517D1*
X1884504Y2449354D1*
X1891038Y2454936D1*
X1898366Y2459425D1*
X1906306Y2462714D1*
X1914661Y2464720D1*
X1923228Y2465395D1*
X1931795Y2464720D1*
X1940151Y2462714D1*
X1948223Y2459352D1*
X1948228Y2541832D1*
X1792028Y2541881D1*
X1791979Y2465367D1*
X1877993Y2379799D2*
Y2355865D1*
X1873257D1*
X1873228Y2266831D1*
X1998180Y2266879D1*
X1998228Y2324155D1*
X1955812Y2366618D1*
X1948091Y2361835D1*
X1940151Y2358546D1*
X1931795Y2356539D1*
X1923228Y2355865D1*
X1914661Y2356539D1*
X1906306Y2358546D1*
X1898366Y2361835D1*
X1891038Y2366324D1*
X1884504Y2371906D1*
X1878923Y2378440D1*
X1877999Y2379823D1*
X433734Y2268094D2*
X1353709D1*
X433734Y2243226D2*
X1353709D1*
X433734Y2218357D2*
X1353709D1*
X433734Y2193488D2*
X1353709D1*
X433734Y2168619D2*
X1353709D1*
X433734Y2143751D2*
X1353709D1*
X433734Y2118882D2*
X1353709D1*
X433734Y2094013D2*
X1353709D1*
X433734Y2069144D2*
X1353709D1*
X433734Y2044276D2*
X1093308D1*
X1161883D2*
X1353709D1*
X433734Y2019407D2*
X1065379D1*
X1189812D2*
X1353709D1*
X433734Y1994538D2*
X1055175D1*
X1199969D2*
X1353709D1*
X433734Y1969669D2*
X1054636D1*
X1200555D2*
X1353709D1*
X433734Y1944801D2*
X1063328D1*
X1191815D2*
X1353709D1*
X433734Y1919932D2*
X1087400D1*
X1167791D2*
X1353709D1*
X433734Y1895063D2*
X1353709D1*
X433734Y1870194D2*
X1353709D1*
X433734Y1845325D2*
X1353709D1*
X433734Y1820457D2*
X1353709D1*
X433734Y1795588D2*
X860984D1*
X1013983D2*
X1353709D1*
X433734Y1770719D2*
X858885D1*
X1016083D2*
X1353709D1*
X433734Y1745850D2*
X864940D1*
X948797D2*
X1350096D1*
X433734Y1720982D2*
X864940D1*
X942205D2*
X1348680D1*
X433734Y1696113D2*
X824656D1*
X962811D2*
X1348680D1*
X433734Y1671244D2*
X824656D1*
X962811D2*
X1348680D1*
X433734Y1646375D2*
X819969D1*
X979656D2*
X1348680D1*
X433734Y1621507D2*
X795067D1*
X985028D2*
X1348680D1*
X433734Y1596638D2*
X770213D1*
X887127D2*
X927440D1*
X985028D2*
X1348680D1*
X433734Y1571769D2*
X745360D1*
X862224D2*
X927440D1*
X985028D2*
X1348680D1*
X433734Y1546900D2*
X720457D1*
X837371D2*
X927440D1*
X985028D2*
X1348680D1*
X433734Y1522031D2*
X702732D1*
X812518D2*
X824631D1*
X985028D2*
X1348680D1*
X433734Y1497163D2*
X702440D1*
X787615D2*
X817967D1*
X985028D2*
X1348680D1*
X433734Y1472294D2*
X702440D1*
X785028D2*
X802483D1*
X985028D2*
X1348680D1*
X433734Y1447425D2*
X702440D1*
X999724D2*
X1348680D1*
X433734Y1422556D2*
X702440D1*
X999724D2*
X1348680D1*
X433734Y1397688D2*
X702440D1*
X1024823D2*
X1348680D1*
X433734Y1372819D2*
X702440D1*
X1042205D2*
X1348680D1*
X433734Y1347950D2*
X702440D1*
X874724D2*
X912743D1*
X1035955D2*
X1348680D1*
X433734Y1323081D2*
X702440D1*
X874724D2*
X912743D1*
X999724D2*
X1348680D1*
X433734Y1298213D2*
X699949D1*
X762518D2*
X1348680D1*
X433734Y1273344D2*
X695701D1*
X766766D2*
X1348680D1*
X433734Y1248475D2*
X717820D1*
X744633D2*
X1348680D1*
X433734Y1223606D2*
X1349071D1*
X433734Y1198738D2*
X1353709D1*
X433734Y1173869D2*
X1353709D1*
X433734Y1149000D2*
X1353709D1*
X433734Y1124131D2*
X1353709D1*
X433734Y1099262D2*
X1353709D1*
X433734Y1074394D2*
X1353709D1*
X433734Y1049525D2*
X639647D1*
X680096D2*
X1053807D1*
X1201385D2*
X1353709D1*
X433734Y1024656D2*
X601415D1*
X718328D2*
X1053807D1*
X1201385D2*
X1353709D1*
X433734Y999787D2*
X588768D1*
X731024D2*
X1053807D1*
X1201385D2*
X1353709D1*
X433734Y974919D2*
X586277D1*
X733465D2*
X1053807D1*
X1201385D2*
X1353709D1*
X433734Y950050D2*
X592869D1*
X726873D2*
X1053807D1*
X1201385D2*
X1353709D1*
X433734Y925181D2*
X612352D1*
X707391D2*
X1053807D1*
X1201385D2*
X1353709D1*
X433734Y900312D2*
X1353709D1*
X433734Y875444D2*
X1353709D1*
X433734Y850575D2*
X1353709D1*
X433734Y825706D2*
X1353709D1*
X433734Y800837D2*
X1353709D1*
X433734Y775969D2*
X1353709D1*
X433734Y751100D2*
X1353709D1*
X433734Y726231D2*
X1353709D1*
X433734Y701362D2*
X1353709D1*
X433734Y676493D2*
X1353709D1*
X1068791Y1051764D2*
X1198892D1*
Y909163D1*
X1056291D1*
Y1051764D1*
X1068791D1*
X730955Y974869D2*
X729205Y963819D1*
X725748Y953178D1*
X720668Y943209D1*
X714092Y934157D1*
X706181Y926247D1*
X697130Y919671D1*
X687160Y914591D1*
X676520Y911134D1*
X665470Y909383D1*
X654281D1*
X643231Y911134D1*
X632591Y914591D1*
X622621Y919671D1*
X613570Y926247D1*
X605659Y934157D1*
X599083Y943209D1*
X594003Y953178D1*
X590546Y963819D1*
X588795Y974869D1*
Y986058D1*
X590546Y997108D1*
X594003Y1007748D1*
X599083Y1017718D1*
X605659Y1026769D1*
X613570Y1034680D1*
X622621Y1041256D1*
X632591Y1046336D1*
X643231Y1049793D1*
X654281Y1051543D1*
X665470D1*
X676520Y1049793D1*
X687160Y1046336D1*
X697130Y1041256D1*
X706181Y1034680D1*
X714092Y1026769D1*
X720668Y1017718D1*
X725748Y1007748D1*
X729205Y997108D1*
X730955Y986058D1*
Y974869D1*
X1198672Y1974869D2*
X1196921Y1963819D1*
X1193465Y1953178D1*
X1188385Y1943209D1*
X1181808Y1934157D1*
X1173898Y1926247D1*
X1164846Y1919671D1*
X1154877Y1914591D1*
X1144236Y1911134D1*
X1133186Y1909383D1*
X1121997D1*
X1110948Y1911134D1*
X1100307Y1914591D1*
X1090337Y1919671D1*
X1081286Y1926247D1*
X1073375Y1934157D1*
X1066799Y1943209D1*
X1061719Y1953178D1*
X1058262Y1963819D1*
X1056512Y1974869D1*
Y1986058D1*
X1058262Y1997108D1*
X1061719Y2007748D1*
X1066799Y2017718D1*
X1073375Y2026769D1*
X1081286Y2034680D1*
X1090337Y2041256D1*
X1100307Y2046336D1*
X1110948Y2049793D1*
X1121997Y2051543D1*
X1133186D1*
X1144236Y2049793D1*
X1154877Y2046336D1*
X1164846Y2041256D1*
X1173898Y2034680D1*
X1181808Y2026769D1*
X1188385Y2017718D1*
X1193465Y2007748D1*
X1196921Y1997108D1*
X1198672Y1986058D1*
Y1974869D1*
X859343Y1542709D2*
X901255D1*
Y1462678D1*
X905898Y1467304D1*
Y1542709D1*
X929970D1*
X929933Y1618176D1*
X899853Y1618218D1*
X898346Y1613213D1*
X895325Y1607818D1*
X892646Y1604680D1*
X782539Y1494575D1*
X782534Y1364202D1*
X786349Y1358308D1*
X789100Y1350854D1*
X790034Y1342963D1*
X789100Y1335072D1*
X786349Y1327618D1*
X781936Y1321012D1*
X776101Y1315618D1*
X769168Y1311736D1*
X761521Y1309579D1*
X757529Y1309214D1*
X757534Y1301703D1*
X761349Y1295808D1*
X764100Y1288354D1*
X765034Y1280463D1*
X764100Y1272572D1*
X761349Y1265118D1*
X756936Y1258512D1*
X751101Y1253118D1*
X744168Y1249236D1*
X736521Y1247079D1*
X728581Y1246768D1*
X720789Y1248318D1*
X713573Y1251644D1*
X707333Y1256563D1*
X702415Y1262803D1*
X699088Y1270018D1*
X697538Y1277811D1*
X697849Y1285751D1*
X700007Y1293398D1*
X703888Y1300331D1*
X704934Y1301657D1*
X705014Y1520026D1*
X706220Y1526091D1*
X708808Y1531705D1*
X712636Y1536560D1*
X827161Y1651085D1*
X827157Y1715937D1*
X867441D1*
X867433Y1759217D1*
X863618Y1765119D1*
X860867Y1772573D1*
X859933Y1780465D1*
X860867Y1788356D1*
X863618Y1795810D1*
X868031Y1802416D1*
X873866Y1807810D1*
X880799Y1811692D1*
X888446Y1813849D1*
X896386Y1814160D1*
X904178Y1812610D1*
X911394Y1809283D1*
X917634Y1804365D1*
X922552Y1798125D1*
X923146Y1797067D1*
X928274Y1801741D1*
X933669Y1804762D1*
X939619Y1806441D1*
X943734Y1806765D1*
X959993D1*
X965888Y1810580D1*
X973343Y1813331D1*
X981234Y1814265D1*
X989125Y1813331D1*
X996579Y1810580D1*
X1003185Y1806167D1*
X1008579Y1800332D1*
X1012461Y1793399D1*
X1014618Y1785752D1*
X1014929Y1777812D1*
X1013379Y1770020D1*
X1010052Y1762804D1*
X1005134Y1756564D1*
X998894Y1751646D1*
X991678Y1748319D1*
X983886Y1746769D1*
X975946Y1747080D1*
X968299Y1749238D1*
X961366Y1753119D1*
X960039Y1754165D1*
X954622Y1754164D1*
X939715Y1739253D1*
X939719Y1715921D1*
X960310Y1715936D1*
X960539Y1663350D1*
X977510Y1645921D1*
X980531Y1640526D1*
X982210Y1634576D1*
X982534Y1630462D1*
Y1456878D1*
X997219Y1456881D1*
Y1414156D1*
X1009836Y1401554D1*
X1016678Y1400109D1*
X1023894Y1396782D1*
X1030134Y1391864D1*
X1035052Y1385623D1*
X1038379Y1378408D1*
X1039929Y1370615D1*
X1039618Y1362676D1*
X1037461Y1355029D1*
X1033579Y1348096D1*
X1028185Y1342261D1*
X1021579Y1337848D1*
X1014125Y1335097D1*
X1006234Y1334163D1*
X998343Y1335097D1*
X997215Y1335415D1*
X997219Y1304045D1*
X915249D1*
Y1354387D1*
X908669Y1356165D1*
X903274Y1359186D1*
X893749Y1368253D1*
X900131Y1361873D1*
X887331Y1361866D1*
X882475Y1358038D1*
X876861Y1355450D1*
X872840Y1354486D1*
X872219Y1352451D1*
Y1304045D1*
X790249D1*
Y1456881D1*
X804946D1*
X805257Y1474833D1*
X806936Y1480783D1*
X809957Y1486178D1*
X812636Y1489316D1*
X827172Y1503852D1*
X827157Y1539156D1*
X830625Y1542709D1*
X846836D1*
X1351923Y1741824D2*
X1354504Y1754804D1*
X1356239Y1760094D1*
X1356234Y2292915D1*
X431185Y2292963D1*
X431234Y667963D1*
X1356185D1*
X1356234Y1200531D1*
X1353720Y1209083D1*
X1352068Y1217690D1*
X1351201Y1230315D1*
Y1730328D1*
X1351713Y1739511D1*
X2879634Y3137596D2*
X3794115D1*
X2879634Y3112727D2*
X3794115D1*
X2879634Y3087858D2*
X3794115D1*
X2879634Y3062990D2*
X3794115D1*
X2879047Y3038121D2*
X3794115D1*
X2874165Y3013252D2*
X3794115D1*
X2874165Y2988383D2*
X3794115D1*
X2874165Y2963514D2*
X3794115D1*
X2874165Y2938646D2*
X3794115D1*
X2874165Y2913777D2*
X3794115D1*
X2874165Y2888908D2*
X3794115D1*
X2878266Y2864039D2*
X3794115D1*
X2879634Y2839171D2*
X3794115D1*
X2879634Y2814302D2*
X3632739D1*
X3766841D2*
X3794115D1*
X2879634Y2789433D2*
X3627759D1*
X3771822D2*
X3794115D1*
X2879634Y2764564D2*
X3638843D1*
X3760738D2*
X3794115D1*
X3101899Y2739696D2*
X3794115D1*
X3699753Y2759686D2*
X3692820Y2755236D1*
X3686560Y2752643D1*
X3679971Y2751060D1*
X3673215Y2750529D1*
X3666459Y2751060D1*
X3659870Y2752643D1*
X3653610Y2755236D1*
X3647832Y2758777D1*
X3642678Y2763177D1*
X3638278Y2768331D1*
X3634738Y2774109D1*
X3632144Y2780369D1*
X3630562Y2786958D1*
X3630030Y2793714D1*
X3630562Y2800470D1*
X3632144Y2807059D1*
X3634738Y2813319D1*
X3638278Y2819097D1*
X3642678Y2824251D1*
X3647832Y2828651D1*
X3653610Y2832192D1*
X3659870Y2834785D1*
X3666459Y2836367D1*
X3673215Y2836899D1*
X3679971Y2836367D1*
X3686560Y2834785D1*
X3692820Y2832192D1*
X3699753Y2827741D1*
X3706760Y2832192D1*
X3713020Y2834785D1*
X3719609Y2836367D1*
X3726365Y2836899D1*
X3733121Y2836367D1*
X3739710Y2834785D1*
X3745970Y2832192D1*
X3751748Y2828651D1*
X3756902Y2824251D1*
X3761302Y2819097D1*
X3764843Y2813319D1*
X3767436Y2807059D1*
X3769018Y2800470D1*
X3769550Y2793714D1*
X3769018Y2786958D1*
X3767436Y2780369D1*
X3764843Y2774109D1*
X3761302Y2768331D1*
X3756902Y2763177D1*
X3751748Y2758777D1*
X3745970Y2755236D1*
X3739710Y2752643D1*
X3733121Y2751060D1*
X3726365Y2750529D1*
X3719609Y2751060D1*
X3713020Y2752643D1*
X3706760Y2755236D1*
X3699827Y2759686D1*
X2871785Y3017694D2*
X2871640Y2987465D1*
Y2879604D1*
X2873846Y2872903D1*
X2876424Y2859934D1*
X2877055Y2851192D1*
X2877146Y2740954D1*
X3084659Y2740925D1*
X3096167Y2740203D1*
X3109135Y2737622D1*
X3121640Y2737465D1*
X3796592D1*
X3796640Y3162416D1*
X3118760Y3162465D1*
X3109123Y3159224D1*
X3096155Y3156647D1*
X3084646Y3155925D1*
X2877175D1*
X2877055Y3045646D1*
X2876424Y3036903D1*
X2873843Y3023936D1*
X2871785Y3017694D1*
X1774165Y3137596D2*
X2689623D1*
X1774165Y3112727D2*
X2689623D1*
X1774165Y3087858D2*
X2689623D1*
X1774165Y3062990D2*
X2689623D1*
X1774165Y3038121D2*
X2690259D1*
X1774165Y3013252D2*
X2694115D1*
X1774165Y2988383D2*
X2694115D1*
X1774165Y2963514D2*
X2694115D1*
X1774165Y2938646D2*
X2694115D1*
X1774165Y2913777D2*
X2694115D1*
X1774165Y2888908D2*
X2694115D1*
X1774165Y2864039D2*
X2691039D1*
X1774165Y2839171D2*
X2689623D1*
X1774165Y2814302D2*
X2532739D1*
X2666841D2*
X2689623D1*
X1774165Y2789433D2*
X2527759D1*
X2671822D2*
X2689623D1*
X1774165Y2764564D2*
X2538843D1*
X2660738D2*
X2689623D1*
X1774165Y2739696D2*
X2467407D1*
X2599753Y2759686D2*
X2592820Y2755236D1*
X2586560Y2752643D1*
X2579971Y2751060D1*
X2573215Y2750529D1*
X2566459Y2751060D1*
X2559870Y2752643D1*
X2553610Y2755236D1*
X2547832Y2758777D1*
X2542678Y2763177D1*
X2538278Y2768331D1*
X2534738Y2774109D1*
X2532144Y2780369D1*
X2530562Y2786958D1*
X2530030Y2793714D1*
X2530562Y2800470D1*
X2532144Y2807059D1*
X2534738Y2813319D1*
X2538278Y2819097D1*
X2542678Y2824251D1*
X2547832Y2828651D1*
X2553610Y2832192D1*
X2559870Y2834785D1*
X2566459Y2836367D1*
X2573215Y2836899D1*
X2579971Y2836367D1*
X2586560Y2834785D1*
X2592820Y2832192D1*
X2599753Y2827741D1*
X2606760Y2832192D1*
X2613020Y2834785D1*
X2619609Y2836367D1*
X2626365Y2836899D1*
X2633121Y2836367D1*
X2639710Y2834785D1*
X2645970Y2832192D1*
X2651748Y2828651D1*
X2656902Y2824251D1*
X2661302Y2819097D1*
X2664843Y2813319D1*
X2667436Y2807059D1*
X2669018Y2800470D1*
X2669550Y2793714D1*
X2669018Y2786958D1*
X2667436Y2780369D1*
X2664843Y2774109D1*
X2661302Y2768331D1*
X2656902Y2763177D1*
X2651748Y2758777D1*
X2645970Y2755236D1*
X2639710Y2752643D1*
X2633121Y2751060D1*
X2626365Y2750529D1*
X2619609Y2751060D1*
X2613020Y2752643D1*
X2606760Y2755236D1*
X2599827Y2759686D1*
X2692379Y3043470D2*
X2692146Y3073425D1*
Y3155896D1*
X2484633Y3155925D1*
X2473125Y3156647D1*
X2460156Y3159228D1*
X2451839Y3161991D1*
X2446640Y3162465D1*
X1771689D1*
X1771640Y2737513D1*
X2459580Y2737465D1*
X2473136Y2740203D1*
X2484646Y2740925D1*
X2692117D1*
X2692146Y2848438D1*
X2692867Y2859948D1*
X2695449Y2872915D1*
X2696635Y2876592D1*
X2696640Y3020228D1*
X2694665Y3027193D1*
X2693013Y3035801D1*
X2692379Y3043470D1*
X2874165Y3737596D2*
X3794115D1*
X2874165Y3712727D2*
X3794115D1*
X2874165Y3687858D2*
X3794115D1*
X2874165Y3662990D2*
X3794115D1*
X2874165Y3638121D2*
X3794115D1*
X2874165Y3613252D2*
X3794115D1*
X2874165Y3588383D2*
X3794115D1*
X2874165Y3563514D2*
X3794115D1*
X2874165Y3538646D2*
X3794115D1*
X2874165Y3513777D2*
X3794115D1*
X2874165Y3488908D2*
X3794115D1*
X2878266Y3464039D2*
X3794115D1*
X2879634Y3439171D2*
X3794115D1*
X2879634Y3414302D2*
X3632739D1*
X3766841D2*
X3794115D1*
X2879634Y3389433D2*
X3627759D1*
X3771822D2*
X3794115D1*
X2879634Y3364564D2*
X3638843D1*
X3760738D2*
X3794115D1*
X3101899Y3339696D2*
X3794115D1*
X3699753Y3359686D2*
X3692820Y3355236D1*
X3686560Y3352643D1*
X3679971Y3351060D1*
X3673215Y3350529D1*
X3666459Y3351060D1*
X3659870Y3352643D1*
X3653610Y3355236D1*
X3647832Y3358777D1*
X3642678Y3363177D1*
X3638278Y3368331D1*
X3634738Y3374109D1*
X3632144Y3380369D1*
X3630562Y3386958D1*
X3630030Y3393714D1*
X3630562Y3400470D1*
X3632144Y3407059D1*
X3634738Y3413319D1*
X3638278Y3419097D1*
X3642678Y3424251D1*
X3647832Y3428651D1*
X3653610Y3432192D1*
X3659870Y3434785D1*
X3666459Y3436367D1*
X3673215Y3436899D1*
X3679971Y3436367D1*
X3686560Y3434785D1*
X3692820Y3432192D1*
X3699753Y3427741D1*
X3706760Y3432192D1*
X3713020Y3434785D1*
X3719609Y3436367D1*
X3726365Y3436899D1*
X3733121Y3436367D1*
X3739710Y3434785D1*
X3745970Y3432192D1*
X3751748Y3428651D1*
X3756902Y3424251D1*
X3761302Y3419097D1*
X3764843Y3413319D1*
X3767436Y3407059D1*
X3769018Y3400470D1*
X3769550Y3393714D1*
X3769018Y3386958D1*
X3767436Y3380369D1*
X3764843Y3374109D1*
X3761302Y3368331D1*
X3756902Y3363177D1*
X3751748Y3358777D1*
X3745970Y3355236D1*
X3739710Y3352643D1*
X3733121Y3351060D1*
X3726365Y3350529D1*
X3719609Y3351060D1*
X3713020Y3352643D1*
X3706760Y3355236D1*
X3699827Y3359686D1*
X2871638Y3479592D2*
X2873846Y3472903D1*
X2876424Y3459934D1*
X2877146Y3448425D1*
Y3340954D1*
X3084659Y3340925D1*
X3096168Y3340203D1*
X3109135Y3337622D1*
X3121640Y3337465D1*
X3796592D1*
X3796640Y3762416D1*
X2871689Y3762465D1*
X2871640Y3479604D1*
X1774165Y3737596D2*
X2694115D1*
X1774165Y3712727D2*
X2694115D1*
X1774165Y3687858D2*
X2694115D1*
X1774165Y3662990D2*
X2694115D1*
X1774165Y3638121D2*
X2694115D1*
X1774165Y3613252D2*
X2694115D1*
X1774165Y3588383D2*
X2694115D1*
X1774165Y3563514D2*
X2694115D1*
X1774165Y3538646D2*
X2694115D1*
X1774165Y3513777D2*
X2694115D1*
X1774165Y3488908D2*
X2694115D1*
X1774165Y3464039D2*
X2691039D1*
X1774165Y3439171D2*
X2689623D1*
X1774165Y3414302D2*
X2532739D1*
X2666841D2*
X2689623D1*
X1774165Y3389433D2*
X2527759D1*
X2671822D2*
X2689623D1*
X1774165Y3364564D2*
X2538843D1*
X2660738D2*
X2689623D1*
X1774165Y3339696D2*
X2467407D1*
X2599753Y3359686D2*
X2592820Y3355236D1*
X2586560Y3352643D1*
X2579971Y3351060D1*
X2573215Y3350529D1*
X2566459Y3351060D1*
X2559870Y3352643D1*
X2553610Y3355236D1*
X2547832Y3358777D1*
X2542678Y3363177D1*
X2538278Y3368331D1*
X2534738Y3374109D1*
X2532144Y3380369D1*
X2530562Y3386958D1*
X2530030Y3393714D1*
X2530562Y3400470D1*
X2532144Y3407059D1*
X2534738Y3413319D1*
X2538278Y3419097D1*
X2542678Y3424251D1*
X2547832Y3428651D1*
X2553610Y3432192D1*
X2559870Y3434785D1*
X2566459Y3436367D1*
X2573215Y3436899D1*
X2579971Y3436367D1*
X2586560Y3434785D1*
X2592820Y3432192D1*
X2599753Y3427741D1*
X2606760Y3432192D1*
X2613020Y3434785D1*
X2619609Y3436367D1*
X2626365Y3436899D1*
X2633121Y3436367D1*
X2639710Y3434785D1*
X2645970Y3432192D1*
X2651748Y3428651D1*
X2656902Y3424251D1*
X2661302Y3419097D1*
X2664843Y3413319D1*
X2667436Y3407059D1*
X2669018Y3400470D1*
X2669550Y3393714D1*
X2669018Y3386958D1*
X2667436Y3380369D1*
X2664843Y3374109D1*
X2661302Y3368331D1*
X2656902Y3363177D1*
X2651748Y3358777D1*
X2645970Y3355236D1*
X2639710Y3352643D1*
X2633121Y3351060D1*
X2626365Y3350529D1*
X2619609Y3351060D1*
X2613020Y3352643D1*
X2606760Y3355236D1*
X2599827Y3359686D1*
X2692243Y3451290D2*
X2692867Y3459946D1*
X2695449Y3472915D1*
X2696636Y3476592D1*
X2696640Y3762416D1*
X1771689Y3762465D1*
X1771640Y3337513D1*
X2459580Y3337465D1*
X2473136Y3340203D1*
X2484646Y3340925D1*
X2692117D1*
X2692146Y3448438D1*
X678568Y3767594D2*
X1354084D1*
X678568Y3742724D2*
X1354084D1*
X678568Y3717857D2*
X1354084D1*
X599125Y3692988D2*
X1354084D1*
X599125Y3668119D2*
X1354084D1*
X599125Y3643251D2*
X1354084D1*
X599125Y3618382D2*
X1354084D1*
X663529Y3593513D2*
X1354084D1*
X676908Y3568644D2*
X1354084D1*
X677444Y3543776D2*
X1354084D1*
X665728Y3518907D2*
X690318D1*
X846047D2*
X1354084D1*
X857573Y3494038D2*
X1354084D1*
X849076Y3469168D2*
X1354084D1*
X699123Y3444301D2*
X1354084D1*
X699123Y3419432D2*
X1354084D1*
X699123Y3394562D2*
X1354084D1*
X699123Y3369694D2*
X1354084D1*
X699123Y3344825D2*
X1354084D1*
X699123Y3319955D2*
X1354084D1*
X699123Y3295088D2*
X1354084D1*
X699123Y3270219D2*
X1354084D1*
X699123Y3245349D2*
X1354084D1*
X699123Y3220482D2*
X1354084D1*
X625297Y3195613D2*
X639071D1*
X707328D2*
X775423D1*
X825295D2*
X1354084D1*
X638726Y3170743D2*
X649450D1*
X903959D2*
X1354084D1*
X631644Y3145875D2*
X674593D1*
X906449D2*
X1354084D1*
X584134Y3121005D2*
X854671D1*
X883587D2*
X1354084D1*
X584134Y3096138D2*
X1354084D1*
X584134Y3071269D2*
X1354084D1*
X584134Y3046400D2*
X1354084D1*
X584134Y3021531D2*
X1354084D1*
X584134Y2996663D2*
X1354084D1*
X584134Y2971794D2*
X1354084D1*
X584134Y2946925D2*
X1354084D1*
X584134Y2922056D2*
X1354084D1*
X584134Y2897188D2*
X1354084D1*
X584134Y2872319D2*
X1354084D1*
X584134Y2847449D2*
X1354084D1*
X584134Y2822581D2*
X1354084D1*
X584134Y2797713D2*
X1354084D1*
X584134Y2772843D2*
X1354084D1*
X584134Y2747975D2*
X1354084D1*
X584134Y2723106D2*
X1354084D1*
X584134Y2698236D2*
X604184D1*
X746535D2*
X1354084D1*
X783793Y2673369D2*
X1354084D1*
X788285Y2648500D2*
X1354084D1*
X642827Y2623630D2*
X730112D1*
X770608D2*
X1354084D1*
X584134Y2598762D2*
X1354084D1*
X584134Y2573894D2*
X1354084D1*
X584134Y2549024D2*
X1354084D1*
X584134Y2524156D2*
X1354084D1*
X584134Y2499286D2*
X1354084D1*
X584134Y2474419D2*
X1354084D1*
X676076Y3792445D2*
Y3697999D1*
X596631D1*
X596612Y3607257D1*
X605814Y3610354D1*
X614639Y3611752D1*
X623580D1*
X632408Y3610354D1*
X640908Y3607591D1*
X648874Y3603534D1*
X656108Y3598278D1*
X662428Y3591959D1*
X667680Y3584726D1*
X671739Y3576761D1*
X674500Y3568261D1*
X675899Y3559433D1*
Y3550492D1*
X674500Y3541665D1*
X671739Y3533164D1*
X667680Y3525198D1*
X662428Y3517967D1*
X656108Y3511647D1*
X648874Y3506391D1*
X646357Y3504984D1*
X652593Y3501049D1*
X659391Y3495243D1*
X661728Y3492715D1*
X682500Y3513374D1*
X687877Y3516965D1*
X693941Y3519203D1*
X700362Y3519962D1*
X795917D1*
X800302Y3523159D1*
X805332Y3525723D1*
X810706Y3527469D1*
X816287Y3528352D1*
X821933D1*
X827514Y3527469D1*
X832888Y3525723D1*
X837919Y3523159D1*
X842492Y3519837D1*
X846483Y3515844D1*
X849806Y3511273D1*
X852370Y3506240D1*
X854115Y3500867D1*
X855000Y3495287D1*
Y3489638D1*
X854115Y3484059D1*
X852370Y3478685D1*
X849806Y3473654D1*
X846483Y3469083D1*
X842492Y3465088D1*
X837919Y3461768D1*
X832888Y3459202D1*
X827514Y3457457D1*
X821933Y3456575D1*
X816287D1*
X810706Y3457457D1*
X805332Y3459202D1*
X800302Y3461768D1*
X795894Y3464959D1*
X711739Y3464963D1*
X696638Y3449850D1*
X696609Y3203840D1*
X705508Y3194957D1*
X777167Y3194963D1*
X781549Y3198159D1*
X786583Y3200722D1*
X791957Y3202469D1*
X797534Y3203352D1*
X803184D1*
X808765Y3202469D1*
X814135Y3200722D1*
X819169Y3198159D1*
X823739Y3194836D1*
X827734Y3190844D1*
X831056Y3186273D1*
X833051Y3182474D1*
X845916Y3182463D1*
X850301Y3185659D1*
X855335Y3188223D1*
X860705Y3189967D1*
X866286Y3190852D1*
X871934D1*
X877513Y3189967D1*
X882887Y3188223D1*
X887921Y3185659D1*
X892491Y3182337D1*
X896486Y3178344D1*
X899806Y3173773D1*
X902370Y3168740D1*
X904114Y3163367D1*
X904999Y3157787D1*
Y3152139D1*
X904114Y3146559D1*
X902370Y3141185D1*
X899806Y3136154D1*
X896486Y3131583D1*
X892491Y3127589D1*
X887921Y3124268D1*
X882887Y3121702D1*
X877513Y3119958D1*
X871934Y3119073D1*
X866286D1*
X860705Y3119958D1*
X855335Y3121702D1*
X850301Y3124268D1*
X845896Y3127459D1*
X810703Y3127549D1*
X804364Y3128810D1*
X797534Y3131575D1*
X791957Y3132458D1*
X786583Y3134203D1*
X781549Y3136766D1*
X777144Y3139958D1*
X691953Y3140047D1*
X685613Y3141308D1*
X679741Y3144014D1*
X674667Y3148018D1*
X648201Y3174604D1*
X644608Y3179979D1*
X642369Y3186043D1*
X641610Y3192463D1*
Y3202667D1*
X632408Y3199572D1*
X623580Y3198173D1*
X619406Y3198011D1*
X625816Y3192919D1*
X629484Y3188622D1*
X632437Y3183807D1*
X634597Y3178588D1*
X635917Y3173093D1*
X636361Y3167462D1*
X635917Y3161832D1*
X634597Y3156339D1*
X632437Y3151119D1*
X629484Y3146303D1*
X625816Y3142008D1*
X621521Y3138339D1*
X616703Y3135387D1*
X611484Y3133226D1*
X605991Y3131907D1*
X600358Y3131463D1*
X594730Y3131907D1*
X589235Y3133226D1*
X584016Y3135387D1*
X581617Y3136731D1*
X581612Y2672688D1*
X584361Y2677375D1*
X587165Y2680656D1*
X602945Y2695961D1*
X608585Y2699119D1*
X614807Y2700874D1*
X619110Y2701213D1*
X733769Y2701126D1*
X740109Y2699865D1*
X745979Y2697159D1*
X751055Y2693157D1*
X753370Y2690844D1*
X761484Y2689201D1*
X766703Y2687039D1*
X771521Y2684088D1*
X775816Y2680417D1*
X779484Y2676123D1*
X782437Y2671306D1*
X784597Y2666088D1*
X785917Y2660594D1*
X786361Y2654963D1*
X785917Y2649332D1*
X784597Y2643839D1*
X782437Y2638619D1*
X779484Y2633803D1*
X775816Y2629508D1*
X771521Y2625839D1*
X766703Y2622887D1*
X761484Y2620726D1*
X755991Y2619407D1*
X750358Y2618963D1*
X744730Y2619407D1*
X739235Y2620726D1*
X734016Y2622887D1*
X729198Y2625839D1*
X724904Y2629508D1*
X721235Y2633803D1*
X718283Y2638619D1*
X716123Y2643839D1*
X715451Y2646209D1*
X641228Y2646213D1*
X642499Y2639035D1*
Y2633388D1*
X641613Y2627808D1*
X639869Y2622436D1*
X637304Y2617403D1*
X633984Y2612832D1*
X629990Y2608839D1*
X625420Y2605517D1*
X620386Y2602953D1*
X615013Y2601206D1*
X609434Y2600324D1*
X603785D1*
X598203Y2601206D1*
X592833Y2602953D1*
X587799Y2605517D1*
X581614Y2610328D1*
X581612Y2467511D1*
X1356562Y2467463D1*
X1356609Y3792415D1*
X676093Y3792462D1*
D34*
X1127592Y980463D3*
D35*
X971686D3*
X815781D3*
X659875D3*
D36*
X1735728Y1343749D3*
D37*
Y1422490D3*
D36*
Y1265009D3*
Y1186269D3*
Y848130D3*
D37*
Y769390D3*
D36*
Y926870D3*
D34*
X971686Y1980463D3*
D35*
X1127592D3*
D38*
X3566916Y2793714D3*
X3620066D3*
X3673215D3*
X3726365D3*
X2466916D3*
X2520066D3*
X2573215D3*
X2626365D3*
X3566916Y3393714D3*
X3620066D3*
X3673215D3*
X3726365D3*
X2466916D3*
X2520066D3*
X2573215D3*
X2626365D3*
D39*
X619102Y3754963D3*
D40*
Y3654963D3*
Y3554963D3*
Y3454963D3*
Y3354963D3*
Y3254963D3*
D39*
X1823228Y2410630D3*
D40*
X1923228D3*
X2023228D3*
X2123228D3*
X2223228D3*
X2323228D3*
X2423228D3*
X2523228D3*
X2623228D3*
X2723228D3*
X2823228D3*
X2923228D3*
X3023228D3*
X3123228D3*
X3223228D3*
X3323228D3*
X3423228D3*
X3523228D3*
X3623228D3*
X3723228D3*
D39*
X1823228Y2510630D3*
D40*
X1923228D3*
X2023228D3*
X2123228D3*
X2223228D3*
X2323228D3*
X2423228D3*
X2523228D3*
X2623228D3*
X2723228D3*
X2823228D3*
X2923228D3*
X3023228D3*
X3123228D3*
X3223228D3*
X3323228D3*
X3423228D3*
X3523228D3*
X3623228D3*
X3723228D3*
D44*
X933104Y1493849D3*
X913419D3*
X893734D3*
X874049D3*
X854364D3*
Y1667077D3*
X874049D3*
X893734D3*
X913419D3*
X933104D3*
D26*
X956234Y1346999D3*
Y1413928D3*
X893734D3*
Y1346999D3*
X831234D3*
Y1413928D3*
D57*
X1591978Y1706890D3*
Y1785630D3*
Y1864370D3*
D58*
Y1628150D3*
Y1943110D3*
X1588866Y2192181D2*
D14*
X1548674Y2207479D1*
X1588866Y2222778D1*
X1579271Y2240723D2*
X1581172D1*
X1585019Y2242625D1*
X1586920Y2244526D1*
X1588822Y2248373D1*
Y2256022D1*
X1586920Y2259824D1*
X1585019Y2261726D1*
X1581172Y2263671D1*
X1577370D1*
X1573523Y2261726D1*
X1567819Y2257923D1*
X1548674Y2238778D1*
Y2265572D1*
X1552521Y2283474D2*
X1550575Y2281572D1*
X1548674Y2283474D1*
X1550575Y2285419D1*
X1552521Y2283474D1*
X1588822Y2312915D2*
X1586921Y2307167D1*
X1581172Y2303320D1*
X1571622Y2301419D1*
X1565874D1*
X1556323Y2303320D1*
X1550575Y2307167D1*
X1548674Y2312915D1*
Y2316718D1*
X1550575Y2322466D1*
X1556323Y2326268D1*
X1565874Y2328214D1*
X1571622D1*
X1581173Y2326268D1*
X1586921Y2322466D1*
X1588822Y2316718D1*
Y2312915D1*
X1581173Y2326268D2*
X1556323Y2303320D1*
M02*
