G04 DipTrace 3.0.0.1*
G04 panel.GTO*
%MOIN*%
G04 #@! TF.FileFunction,Legend,Top*
G04 #@! TF.Part,Single*
%ADD10C,0.009843*%
%ADD14C,0.008*%
%ADD16C,0.01*%
%ADD27C,0.031465*%
%ADD31C,0.009433*%
%ADD45C,0.015408*%
%ADD48C,0.015404*%
%ADD50C,0.01541*%
%ADD54C,0.015754*%
%ADD59C,0.015401*%
%ADD62C,0.015395*%
%ADD65C,0.015754*%
%ADD69C,0.01963*%
%ADD72C,0.015401*%
%ADD75C,0.007873*%
%ADD77C,0.007872*%
%ADD172C,0.006*%
%FSLAX26Y26*%
G04*
G70*
G90*
G75*
G01*
G04 TopSilk*
%LPD*%
X3323228Y1198130D2*
D14*
G02X3323228Y1198130I250000J0D01*
G01*
X2500994Y1588386D2*
D10*
Y1444672D1*
Y1588386D2*
X2160411D1*
X2500994Y1326587D2*
Y1182874D1*
X2160411D1*
X2095463Y1523423D2*
Y1444672D1*
Y1326587D2*
Y1247837D1*
Y1523423D2*
X2160411Y1588386D1*
X2095463Y1247837D2*
X2160411Y1182874D1*
D27*
X2062031Y1456493D3*
X2008244Y1686096D2*
D10*
Y1634954D1*
X2253692Y2029596D2*
Y1966667D1*
X2261140Y2029596D2*
Y1966667D1*
Y2029596D2*
X2237581D1*
X2261140Y1966667D2*
X2237581D1*
X1687550Y2144883D2*
Y2176379D1*
Y2207383D2*
Y2238879D1*
X2641727Y928002D2*
X2704718D1*
X2641727Y880759D2*
X2704718D1*
D31*
X2604719Y904381D3*
X2704729Y762009D2*
D10*
X2641738D1*
X2704729Y809251D2*
X2641738D1*
D31*
X2741737Y785630D3*
X3195369Y1808346D2*
D10*
X3163873D1*
X1687550Y2082383D2*
Y2113879D1*
X2918392Y2879394D2*
X2949888D1*
X3368392D2*
X3399888D1*
X1818392D2*
X1849888D1*
X2268392D2*
X2299888D1*
X2918392Y3479394D2*
X2949888D1*
X3368392D2*
X3399888D1*
X1818392D2*
X1849888D1*
X2268392D2*
X2299888D1*
X493759Y1699244D2*
Y1624204D1*
Y1599214D1*
X793709D1*
Y1674184D1*
Y1699244D2*
Y1674184D1*
Y1799204D2*
Y2099224D1*
X493759Y1799204D2*
Y2099224D1*
Y2199184D2*
Y2299214D1*
X793709D1*
Y2199184D1*
X1205530Y642954D2*
X581923D1*
Y1061722D1*
X1205530D1*
Y642954D1*
X893748Y2317972D2*
X1205530D1*
Y1899204D1*
X893748D1*
Y2317972D1*
X3777546Y2746076D2*
X3515735D1*
Y2879934D1*
X3777546D1*
Y2746076D1*
X2677546D2*
X2415735D1*
Y2879934D1*
X2677546D1*
Y2746076D1*
X3777546Y3346076D2*
X3515735D1*
Y3479934D1*
X3777546D1*
Y3346076D1*
X2677546D2*
X2415735D1*
Y3479934D1*
X2677546D1*
Y3346076D1*
X1772386Y2460632D2*
X3774071D1*
Y2360630D1*
X1772386D1*
Y2460632D1*
Y2560632D2*
X3774071D1*
Y2460630D1*
X1772386D1*
Y2560632D1*
X2960860Y2129333D2*
X2973360Y2141833D1*
X3048360D1*
X3060860Y2129333D1*
Y2054333D1*
X3048360Y2041833D2*
X3060860Y2054333D1*
X3048360Y2041833D2*
X2973360D1*
X2960860Y2054333D1*
Y2129333D1*
X2348182Y1930610D2*
X2033214D1*
X2348182Y1615650D2*
X2033214D1*
X1036766Y1466639D2*
Y1206797D1*
X1312355Y1466639D2*
X1036766D1*
X1312355D2*
Y1458774D1*
Y1206797D2*
X1036766D1*
X1312355D2*
Y1214662D1*
D45*
X921820Y1465706D3*
D48*
X2128992Y2245583D3*
X2119791Y2195441D2*
D10*
X2001686D1*
Y2175756D1*
X2119791D1*
Y2195441D1*
X1036766Y1766637D2*
Y1506795D1*
X1312355Y1766637D2*
X1036766D1*
X1312355D2*
Y1758772D1*
Y1506795D2*
X1036766D1*
X1312355D2*
Y1514660D1*
D45*
X921820Y1765704D3*
X488807Y1267244D2*
D10*
X748650D1*
X488807Y1542833D2*
Y1267244D1*
Y1542833D2*
X496673D1*
X748650D2*
Y1267244D1*
Y1542833D2*
X740784D1*
D50*
X489741Y1152298D3*
X3239673Y3167391D2*
D10*
Y2907549D1*
X3515262Y3167391D2*
X3239673D1*
X3515262D2*
Y3159526D1*
Y2907549D2*
X3239673D1*
X3515262D2*
Y2915414D1*
D45*
X3124727Y3166458D3*
X2139673Y3167391D2*
D10*
Y2907549D1*
X2415262Y3167391D2*
X2139673D1*
X2415262D2*
Y3159526D1*
Y2907549D2*
X2139673D1*
X2415262D2*
Y2915414D1*
D45*
X2024727Y3166458D3*
X3239673Y3767391D2*
D10*
Y3507549D1*
X3515262Y3767391D2*
X3239673D1*
X3515262D2*
Y3759526D1*
Y3507549D2*
X3239673D1*
X3515262D2*
Y3515414D1*
D45*
X3124727Y3766458D3*
X2139673Y3767391D2*
D10*
Y3507549D1*
X2415262Y3767391D2*
X2139673D1*
X2415262D2*
Y3759526D1*
Y3507549D2*
X2139673D1*
X2415262D2*
Y3515414D1*
D45*
X2024727Y3766458D3*
X752478Y2630462D2*
D10*
Y2504465D1*
X610741Y2630462D2*
Y2504465D1*
D54*
X752471Y2650138D3*
X900857Y2496592D2*
D10*
X774860D1*
X900857Y2638329D2*
X774860D1*
D54*
X920533Y2496600D3*
G36*
X2825850Y936230D2*
Y960230D1*
X2842850Y970230D1*
X2899850D1*
X2916850Y960230D1*
Y936230D1*
D1*
X2825850D1*
G37*
G36*
X2842850Y982230D2*
Y1004230D1*
X2853850Y1011230D1*
Y1157230D1*
X2861850Y1155230D1*
X2888850Y1112230D1*
Y1011230D1*
X2899850Y1004230D1*
Y982230D1*
X2842850D1*
G37*
G36*
X2868850Y1164230D2*
X2856850Y1168230D1*
X2845850Y1178230D1*
X2841850Y1193230D1*
X2845850Y1208230D1*
X2856850Y1219230D1*
X2870850Y1223230D1*
X2885850Y1219230D1*
X2896850Y1208230D1*
X2900850Y1193230D1*
X2897850Y1182230D1*
X2988850Y1034230D1*
X3000850Y1030230D1*
X3011850Y1019230D1*
X3015850Y1004230D1*
X3011850Y990230D1*
X3000850Y979230D1*
X2985850Y975230D1*
X2970850Y979230D1*
X2959850Y990230D1*
X2955850Y1005230D1*
X2958850Y1017230D1*
X2868850Y1164230D1*
G37*
G36*
X2991850Y1049230D2*
X2994850Y1044230D1*
X3007850Y1040230D1*
X3018850Y1027230D1*
X3071850Y1115230D1*
Y1166230D1*
X3065850Y1171230D1*
D1*
X2991850Y1049230D1*
G37*
G36*
X3082850Y1170230D2*
X3074850Y1178230D1*
X3069850Y1193230D1*
X3073850Y1208230D1*
X3084850Y1219230D1*
X3099850Y1223230D1*
X3114850Y1219230D1*
X3125850Y1208230D1*
X3129850Y1193230D1*
X3125850Y1179230D1*
X3116850Y1170230D1*
Y1053230D1*
X3099850Y1058230D1*
X3082850Y1053230D1*
Y1170230D1*
G37*
G36*
X3068850Y1010230D2*
X3069850Y1005230D1*
X3081850Y992230D1*
X3085850Y991230D1*
X3082850Y988230D1*
Y939230D1*
X3065850Y936230D1*
X3053850Y996230D1*
X3068850Y1010230D1*
G37*
G36*
X3079850Y1034230D2*
X3076850Y1022230D1*
X3079850Y1010230D1*
X3088850Y1001230D1*
X3099850Y998230D1*
X3105850Y1000230D1*
X3117850Y987230D1*
X3116850Y939230D1*
X3134850Y936230D1*
X3145850Y996230D1*
X3122850Y1019230D1*
X3123850Y1023230D1*
X3120850Y1033230D1*
X3111850Y1042230D1*
X3099850Y1045230D1*
X3087850Y1042230D1*
X3079850Y1034230D1*
G37*
D59*
X1865169Y1790851D3*
X1870431Y1844917D2*
D10*
X1988539D1*
X1870431Y1876407D2*
X1988539D1*
Y1844917D2*
Y1876407D1*
X1870431Y1844917D2*
Y1876407D1*
X2828339Y1909057D2*
Y1712203D1*
X2930716Y1909057D2*
Y1712203D1*
X2828339D2*
X2930716D1*
X2859833Y1909057D2*
X2828339D1*
X2899222D2*
X2930716D1*
X2859833D2*
G03X2899222Y1909057I19694J9D01*
G01*
D62*
X2293035Y2190039D3*
X2238969Y2195301D2*
D10*
Y2313409D1*
X2207479Y2195301D2*
Y2313409D1*
X2238969D2*
X2207479D1*
X2238969Y2195301D2*
X2207479D1*
X2927905Y2236818D2*
X2731051D1*
X2927905Y2134442D2*
X2731051D1*
Y2236818D2*
Y2134442D1*
X2927905Y2205324D2*
Y2236818D1*
Y2165935D2*
Y2134442D1*
Y2205324D2*
G03X2927905Y2165935I9J-19694D01*
G01*
X3418113Y501567D2*
X3414179Y505518D1*
X3532293Y501620D2*
X3528343D1*
X3532278Y501567D2*
Y505518D1*
X3532293Y619683D2*
X3528343D1*
X3532293D2*
X3532278Y615750D1*
X3414164Y619683D2*
X3418113D1*
X3414164D2*
X3414179Y615750D1*
D65*
X3433859Y466143D3*
X3309143Y2316057D2*
D10*
X3909521D1*
X3279663Y1686146D2*
X3909521D1*
Y2237302D2*
Y2060152D1*
Y2001101D2*
Y1764901D1*
D69*
X3279627Y2316057D3*
X2450364Y1125412D2*
D10*
Y495491D1*
X2021180D2*
X2157035D1*
X2314509D2*
X2450364D1*
X2021180Y1076215D2*
Y495491D1*
X2314509Y1125412D2*
X2450364D1*
X2157035D2*
X2068471D1*
X2021180Y1076215D2*
X2068471Y1125412D1*
X2532923Y1872646D2*
X2651033D1*
X2532923Y1998614D2*
X2651033D1*
Y1872646D2*
Y1998614D1*
X2532923Y1872646D2*
Y1915942D1*
Y1955318D2*
Y1998614D1*
Y1915942D2*
G03X2532923Y1955318I13J19688D01*
G01*
D72*
X2421413Y2176005D3*
X2426676Y2222202D2*
D10*
X2544783D1*
Y2261565D1*
X2426676D1*
Y2222202D1*
X805420Y3345268D2*
D14*
Y3364959D1*
X907785D2*
Y3345268D1*
X805420Y3207466D2*
Y3227157D1*
D75*
X805433Y3195665D3*
X907785Y3313765D2*
D14*
Y3258660D1*
X805420D2*
Y3313765D1*
X907785Y3227157D2*
Y3207466D1*
X825109Y2734148D2*
X888102D1*
X825109Y2663280D2*
X888102D1*
D77*
X813301Y2734144D3*
X1616978Y1498130D2*
D16*
X1798228D1*
Y1460630D2*
Y1498130D1*
X1616978Y1104381D2*
X1798228D1*
Y1141881D1*
Y960630D2*
Y1004379D1*
X1616978D1*
Y691881D2*
X1798228D1*
Y735630D1*
X1541978Y1954379D2*
X1510728D1*
Y1616879D1*
X1548228D1*
X1641979D2*
X1673228D1*
Y1954379D1*
X1641979D1*
X3134140Y3037465D2*
D14*
X3184140D1*
X3159140Y3024965D1*
X3184140Y3037465D2*
X3159140Y3049965D1*
X2034140Y3037465D2*
X2084140D1*
X2059140Y3024965D1*
X2084140Y3037465D2*
X2059140Y3049965D1*
X3134140Y3637465D2*
X3184140D1*
X3159140Y3624965D1*
X3184140Y3637465D2*
X3159140Y3649965D1*
X2034140Y3637465D2*
X2084140D1*
X2059140Y3624965D1*
X2084140Y3637465D2*
X2059140Y3649965D1*
X569109Y3804963D2*
D16*
X669110D1*
Y3204963D1*
X569109D1*
Y3804963D1*
X3092366Y2065995D2*
D14*
X3132558Y2073671D1*
X3092366Y2081311D1*
X3132558Y2088952D1*
X3092366Y2096627D1*
X3113413Y2109427D2*
Y2123223D1*
X3111512Y2127786D1*
X3109566Y2129342D1*
X3105764Y2130863D1*
X3100016D1*
X3096213Y2129342D1*
X3094268Y2127786D1*
X3092366Y2123223D1*
Y2109427D1*
X3132558D1*
X3984002Y732294D2*
Y749538D1*
X3981625Y755242D1*
X3979193Y757187D1*
X3974440Y759089D1*
X3967255D1*
X3962502Y757187D1*
X3960070Y755242D1*
X3957693Y749538D1*
Y732294D1*
X4007933D1*
X3969632Y800585D2*
X3964878Y798683D1*
X3960070Y794837D1*
X3957693Y791034D1*
Y783385D1*
X3960070Y779538D1*
X3964878Y775735D1*
X3969632Y773790D1*
X3976817Y771889D1*
X3988810D1*
X3995940Y773790D1*
X4000748Y775735D1*
X4005502Y779538D1*
X4007933Y783385D1*
Y791034D1*
X4005502Y794837D1*
X4000748Y798683D1*
X3995940Y800585D1*
X3957693Y813385D2*
X4007933D1*
Y830629D1*
X4005502Y836377D1*
X4003125Y838278D1*
X3998372Y840179D1*
X3991187D1*
X3986378Y838278D1*
X3984002Y836377D1*
X3981625Y830629D1*
X3979193Y836377D1*
X3976817Y838278D1*
X3972063Y840179D1*
X3967255D1*
X3962502Y838278D1*
X3960070Y836377D1*
X3957693Y830629D1*
Y813385D1*
X3981625D2*
Y830629D1*
X3957693Y907607D2*
Y903805D1*
X3960070Y899958D1*
X3967255Y898057D1*
X4007933D1*
X3974440Y892309D2*
Y905706D1*
Y920407D2*
X3998372D1*
X4005502Y922309D1*
X4007933Y926155D1*
Y931903D1*
X4005502Y935706D1*
X3998372Y941454D1*
X3974440D2*
X4007933D1*
X3957693Y954254D2*
X4007933D1*
X3957693Y982352D2*
Y978550D1*
X3960070Y974703D1*
X3967255Y972802D1*
X4007933D1*
X3974440Y967054D2*
Y980451D1*
X3957693Y995152D2*
X3960070Y997054D1*
X3957693Y998999D1*
X3955262Y997054D1*
X3957693Y995152D1*
X3974440Y997054D2*
X4007933D1*
X3957693Y1011799D2*
X4007933D1*
X3957693Y1024599D2*
X4007933D1*
X3988810Y1037399D2*
Y1060347D1*
X3984002D1*
X3979193Y1058446D1*
X3976817Y1056545D1*
X3974440Y1052698D1*
Y1046950D1*
X3976817Y1043147D1*
X3981625Y1039301D1*
X3988810Y1037399D1*
X3993563D1*
X4000748Y1039301D1*
X4005502Y1043147D1*
X4007933Y1046950D1*
Y1052698D1*
X4005502Y1056545D1*
X4000748Y1060347D1*
X3957693Y1096095D2*
X4007933D1*
X3981625D2*
X3976817Y1092293D1*
X3974440Y1088446D1*
Y1082698D1*
X3976817Y1078895D1*
X3981625Y1075048D1*
X3988810Y1073147D1*
X3993563D1*
X4000748Y1075048D1*
X4005502Y1078895D1*
X4007933Y1082698D1*
Y1088446D1*
X4005502Y1092293D1*
X4000748Y1096095D1*
X3957693Y1148224D2*
X4007933D1*
X3981625D2*
X3976817Y1152071D1*
X3974440Y1155874D1*
Y1161622D1*
X3976817Y1165424D1*
X3981625Y1169271D1*
X3988810Y1171172D1*
X3993563D1*
X4000748Y1169271D1*
X4005502Y1165424D1*
X4007933Y1161622D1*
Y1155874D1*
X4005502Y1152071D1*
X4000748Y1148224D1*
X3974440Y1185918D2*
X4007933Y1197370D1*
X4017495Y1193567D1*
X4022303Y1189720D1*
X4024680Y1185918D1*
Y1183972D1*
X3974440Y1208866D2*
X4007933Y1197370D1*
X3957693Y1285844D2*
Y1260995D1*
X4007933D1*
Y1285844D1*
X3981625Y1260995D2*
Y1276294D1*
X3957693Y1298644D2*
X4007933D1*
X3988810Y1311444D2*
Y1334392D1*
X3984002D1*
X3979193Y1332491D1*
X3976817Y1330590D1*
X3974440Y1326743D1*
Y1320995D1*
X3976817Y1317192D1*
X3981625Y1313346D1*
X3988810Y1311444D1*
X3993563D1*
X4000748Y1313346D1*
X4005502Y1317192D1*
X4007933Y1320995D1*
Y1326743D1*
X4005502Y1330590D1*
X4000748Y1334392D1*
X3981625Y1370184D2*
X3976817Y1366338D1*
X3974440Y1362491D1*
Y1356787D1*
X3976817Y1352940D1*
X3981625Y1349138D1*
X3988810Y1347192D1*
X3993563D1*
X4000748Y1349138D1*
X4005502Y1352940D1*
X4007933Y1356787D1*
Y1362491D1*
X4005502Y1366338D1*
X4000748Y1370184D1*
X3974440Y1382984D2*
X4007933D1*
X3988810D2*
X3981625Y1384930D1*
X3976817Y1388732D1*
X3974440Y1392579D1*
Y1398327D1*
Y1420678D2*
X3976817Y1416875D1*
X3981625Y1413028D1*
X3988810Y1411127D1*
X3993563D1*
X4000748Y1413028D1*
X4005502Y1416875D1*
X4007933Y1420678D1*
Y1426426D1*
X4005502Y1430273D1*
X4000748Y1434075D1*
X3993563Y1436021D1*
X3988810D1*
X3981625Y1434075D1*
X3976817Y1430273D1*
X3974440Y1426426D1*
Y1420678D1*
Y1448821D2*
X4007933Y1456470D1*
X3974440Y1464119D1*
X4007933Y1471768D1*
X3974440Y1479418D1*
X4003125Y1494119D2*
X4005557Y1492218D1*
X4007933Y1494119D1*
X4005557Y1496065D1*
X4003125Y1494119D1*
X3981625Y1531857D2*
X3976817Y1528010D1*
X3974440Y1524163D1*
Y1518459D1*
X3976817Y1514613D1*
X3981625Y1510810D1*
X3988810Y1508865D1*
X3993563D1*
X4000748Y1510810D1*
X4005502Y1514613D1*
X4007933Y1518459D1*
Y1524163D1*
X4005502Y1528010D1*
X4000748Y1531857D1*
X3974440Y1554207D2*
X3976817Y1550405D1*
X3981625Y1546558D1*
X3988810Y1544657D1*
X3993563D1*
X4000748Y1546558D1*
X4005502Y1550405D1*
X4007933Y1554207D1*
Y1559955D1*
X4005502Y1563802D1*
X4000748Y1567605D1*
X3993563Y1569550D1*
X3988810D1*
X3981625Y1567605D1*
X3976817Y1563802D1*
X3974440Y1559955D1*
Y1554207D1*
Y1582350D2*
X4007933D1*
X3984002D2*
X3976817Y1588098D1*
X3974440Y1591945D1*
Y1597649D1*
X3976817Y1601495D1*
X3984002Y1603397D1*
X4007933D1*
X3984002D2*
X3976817Y1609145D1*
X3974440Y1612991D1*
Y1618695D1*
X3976817Y1622542D1*
X3984002Y1624488D1*
X4007933D1*
X1541855Y2245327D2*
X1562857D1*
X1551405Y2230028D1*
X1557153D1*
X1560956Y2228127D1*
X1562857Y2226226D1*
X1564803Y2220478D1*
Y2216675D1*
X1562857Y2210927D1*
X1559055Y2207081D1*
X1553306Y2205179D1*
X1547558D1*
X1541855Y2207081D1*
X1539953Y2209026D1*
X1538008Y2212829D1*
X1580803Y2245371D2*
X1596101Y2205179D1*
X1611400Y2245371D1*
X1631247Y2245327D2*
X1652249D1*
X1640797Y2230028D1*
X1646545D1*
X1650348Y2228127D1*
X1652249Y2226226D1*
X1654194Y2220478D1*
Y2216675D1*
X1652249Y2210927D1*
X1648446Y2207081D1*
X1642698Y2205179D1*
X1636950D1*
X1631247Y2207081D1*
X1629345Y2209026D1*
X1627400Y2212829D1*
X1560956Y2182827D2*
X1541855D1*
X1539953Y2165627D1*
X1541855Y2167528D1*
X1547603Y2169474D1*
X1553306D1*
X1559055Y2167528D1*
X1562901Y2163726D1*
X1564803Y2157978D1*
Y2154175D1*
X1562901Y2148427D1*
X1559055Y2144581D1*
X1553306Y2142679D1*
X1547603D1*
X1541855Y2144581D1*
X1539953Y2146526D1*
X1538008Y2150329D1*
X1580803Y2182871D2*
X1596101Y2142679D1*
X1611400Y2182871D1*
X1638896Y2182827D2*
X1633148Y2180926D1*
X1629301Y2175178D1*
X1627400Y2165627D1*
Y2159879D1*
X1629301Y2150329D1*
X1633148Y2144581D1*
X1638896Y2142679D1*
X1642698D1*
X1648446Y2144581D1*
X1652249Y2150329D1*
X1654194Y2159879D1*
Y2165627D1*
X1652249Y2175178D1*
X1648446Y2180926D1*
X1642698Y2182827D1*
X1638896D1*
X1652249Y2175178D2*
X1629301Y2150329D1*
X1564008Y2118371D2*
X1579306Y2078179D1*
X1594605Y2118371D1*
X1610605D2*
Y2078179D1*
X1653400Y2118371D2*
Y2078179D1*
X1626605Y2118371D1*
Y2078179D1*
X1698205Y1874621D2*
X1695127Y1872719D1*
X1692085Y1868873D1*
X1690529Y1865070D1*
X1689008Y1859322D1*
Y1849727D1*
X1690529Y1844023D1*
X1692085Y1840177D1*
X1695127Y1836374D1*
X1698205Y1834429D1*
X1704324D1*
X1707366Y1836374D1*
X1710444Y1840177D1*
X1711965Y1844023D1*
X1713486Y1849727D1*
Y1859322D1*
X1711965Y1865070D1*
X1710444Y1868873D1*
X1707366Y1872719D1*
X1704324Y1874621D1*
X1698205D1*
X1747721D2*
Y1834429D1*
X1726286Y1874621D1*
Y1834429D1*
X1698205Y1743371D2*
X1695127Y1741470D1*
X1692085Y1737623D1*
X1690529Y1733821D1*
X1689008Y1728073D1*
Y1718478D1*
X1690529Y1712774D1*
X1692085Y1708927D1*
X1695127Y1705125D1*
X1698205Y1703179D1*
X1704324D1*
X1707366Y1705125D1*
X1710444Y1708927D1*
X1711965Y1712774D1*
X1713486Y1718478D1*
Y1728073D1*
X1711965Y1733821D1*
X1710444Y1737623D1*
X1707366Y1741470D1*
X1704324Y1743371D1*
X1698205D1*
X1746200D2*
X1726286D1*
Y1703179D1*
Y1724226D2*
X1738525D1*
X1778915Y1743371D2*
X1759000D1*
Y1703179D1*
Y1724226D2*
X1771239D1*
X3098616Y1860910D2*
Y1840995D1*
X3138808D1*
X3117761D2*
Y1853234D1*
X3098616Y1873710D2*
X3138808Y1873709D1*
X3098616Y1886510D2*
X3138808Y1907945D1*
X3098616D2*
X3138808Y1886509D1*
X632701Y1120614D2*
X644175Y1090470D1*
X655649Y1120614D1*
X673108Y1113418D2*
Y1114844D1*
X674534Y1117729D1*
X675960Y1119155D1*
X678845Y1120581D1*
X684582D1*
X687434Y1119155D1*
X688860Y1117729D1*
X690319Y1114844D1*
Y1111992D1*
X688860Y1109107D1*
X686008Y1104829D1*
X671649Y1090470D1*
X691745D1*
X799388Y1112037D2*
X797962Y1114889D1*
X795077Y1117774D1*
X792225Y1119200D1*
X786488D1*
X783603Y1117774D1*
X780751Y1114889D1*
X779292Y1112037D1*
X777866Y1107726D1*
Y1100530D1*
X779292Y1096252D1*
X780751Y1093367D1*
X783603Y1090515D1*
X786488Y1089056D1*
X792225D1*
X795077Y1090515D1*
X797962Y1093367D1*
X799388Y1096252D1*
Y1100530D1*
X792225D1*
X835484Y1119200D2*
Y1089056D1*
X815388Y1119200D1*
Y1089056D1*
X851484Y1119200D2*
Y1089056D1*
X861532D1*
X865843Y1090515D1*
X868728Y1093367D1*
X870154Y1096252D1*
X871580Y1100530D1*
Y1107726D1*
X870154Y1112037D1*
X868728Y1114889D1*
X865843Y1117774D1*
X861532Y1119200D1*
X851484D1*
X943137Y1112037D2*
X941711Y1114889D1*
X938826Y1117774D1*
X935975Y1119200D1*
X930238D1*
X927352Y1117774D1*
X924501Y1114889D1*
X923041Y1112037D1*
X921615Y1107726D1*
Y1100530D1*
X923041Y1096252D1*
X924501Y1093367D1*
X927352Y1090515D1*
X930238Y1089056D1*
X935975D1*
X938826Y1090515D1*
X941711Y1093367D1*
X943137Y1096252D1*
Y1100530D1*
X935975D1*
X979233Y1119200D2*
Y1089056D1*
X959137Y1119200D1*
Y1089056D1*
X995233Y1119200D2*
Y1089056D1*
X1005281D1*
X1009592Y1090515D1*
X1012478Y1093367D1*
X1013903Y1096252D1*
X1015329Y1100530D1*
Y1107726D1*
X1013903Y1112037D1*
X1012478Y1114889D1*
X1009592Y1117774D1*
X1005281Y1119200D1*
X995233D1*
X1114151Y1120414D2*
X1125625Y1090270D1*
X1137099Y1120414D1*
X1153099Y1114644D2*
X1155984Y1116103D1*
X1160295Y1120380D1*
Y1090270D1*
X1000057Y1855104D2*
X1001483Y1852252D1*
X1004368Y1849367D1*
X1007220Y1847941D1*
X1012957D1*
X1015842Y1849367D1*
X1018694Y1852252D1*
X1020153Y1855104D1*
X1021579Y1859415D1*
Y1866611D1*
X1020153Y1870889D1*
X1018694Y1873774D1*
X1015842Y1876626D1*
X1012957Y1878085D1*
X1007220D1*
X1004368Y1876626D1*
X1001483Y1873774D1*
X1000057Y1870889D1*
Y1866611D1*
X1007220D1*
X963961Y1847941D2*
Y1878085D1*
X984057Y1847941D1*
Y1878085D1*
X947961Y1847941D2*
Y1878085D1*
X937913D1*
X933602Y1876626D1*
X930717Y1873774D1*
X929291Y1870889D1*
X927865Y1866611D1*
Y1859415D1*
X929291Y1855104D1*
X930717Y1852252D1*
X933602Y1849367D1*
X937913Y1847941D1*
X947961D1*
X1202088Y1847202D2*
X1190614Y1877346D1*
X1179140Y1847202D1*
X1154518D2*
X1157403Y1848628D1*
X1160255Y1851513D1*
X1161714Y1854365D1*
X1163140Y1858676D1*
Y1865872D1*
X1161714Y1870150D1*
X1160255Y1873035D1*
X1157403Y1875887D1*
X1154518Y1877346D1*
X1148781D1*
X1145929Y1875887D1*
X1143044Y1873035D1*
X1141618Y1870150D1*
X1140192Y1865872D1*
Y1858676D1*
X1141618Y1854365D1*
X1143044Y1851513D1*
X1145929Y1848628D1*
X1148781Y1847202D1*
X1154518D1*
X1124192D2*
Y1868724D1*
X1122766Y1873035D1*
X1119881Y1875887D1*
X1115570Y1877346D1*
X1112718D1*
X1108407Y1875887D1*
X1105522Y1873035D1*
X1104096Y1868724D1*
Y1847202D1*
X1078048D2*
Y1877346D1*
X1088096Y1847202D2*
X1068000D1*
X2898803Y2824848D2*
X2868659D1*
X2898803Y2795971D2*
X2868659D1*
X2898803Y2812048D1*
X2868659D1*
X3455053Y2842950D2*
X3453627Y2845258D1*
X3450742Y2847540D1*
X3447890Y2848707D1*
X3443579Y2849848D1*
X3436383D1*
X3432105Y2848707D1*
X3429220Y2847540D1*
X3426368Y2845258D1*
X3424909Y2842950D1*
Y2838360D1*
X3426368Y2836079D1*
X3429220Y2833771D1*
X3432105Y2832630D1*
X3436383Y2831489D1*
X3443579D1*
X3447890Y2832630D1*
X3450742Y2833771D1*
X3453627Y2836079D1*
X3455053Y2838360D1*
Y2842950D1*
Y2818689D2*
X3433531D1*
X3429220Y2817549D1*
X3426368Y2815241D1*
X3424909Y2811792D1*
Y2809510D1*
X3426368Y2806061D1*
X3429220Y2803753D1*
X3433531Y2802613D1*
X3455053D1*
Y2781774D2*
X3424909D1*
X3455053Y2789813D2*
Y2773736D1*
X1798803Y2824848D2*
X1768659D1*
X1798803Y2795971D2*
X1768659D1*
X1798803Y2812048D1*
X1768659D1*
X2355053Y2842950D2*
X2353627Y2845258D1*
X2350742Y2847540D1*
X2347890Y2848707D1*
X2343579Y2849848D1*
X2336383D1*
X2332105Y2848707D1*
X2329220Y2847540D1*
X2326368Y2845258D1*
X2324909Y2842950D1*
Y2838360D1*
X2326368Y2836079D1*
X2329220Y2833771D1*
X2332105Y2832630D1*
X2336383Y2831489D1*
X2343579D1*
X2347890Y2832630D1*
X2350742Y2833771D1*
X2353627Y2836079D1*
X2355053Y2838360D1*
Y2842950D1*
Y2818689D2*
X2333531D1*
X2329220Y2817549D1*
X2326368Y2815241D1*
X2324909Y2811792D1*
Y2809510D1*
X2326368Y2806061D1*
X2329220Y2803753D1*
X2333531Y2802613D1*
X2355053D1*
Y2781774D2*
X2324909D1*
X2355053Y2789813D2*
Y2773736D1*
X2898803Y3424848D2*
X2868659D1*
X2898803Y3395971D2*
X2868659D1*
X2898803Y3412048D1*
X2868659D1*
X3455053Y3442950D2*
X3453627Y3445258D1*
X3450742Y3447540D1*
X3447890Y3448707D1*
X3443579Y3449848D1*
X3436383D1*
X3432105Y3448707D1*
X3429220Y3447540D1*
X3426368Y3445258D1*
X3424909Y3442950D1*
Y3438360D1*
X3426368Y3436079D1*
X3429220Y3433771D1*
X3432105Y3432630D1*
X3436383Y3431489D1*
X3443579D1*
X3447890Y3432630D1*
X3450742Y3433771D1*
X3453627Y3436079D1*
X3455053Y3438360D1*
Y3442950D1*
Y3418689D2*
X3433531D1*
X3429220Y3417549D1*
X3426368Y3415241D1*
X3424909Y3411792D1*
Y3409510D1*
X3426368Y3406061D1*
X3429220Y3403753D1*
X3433531Y3402613D1*
X3455053D1*
Y3381774D2*
X3424909D1*
X3455053Y3389813D2*
Y3373736D1*
X1798803Y3424848D2*
X1768659D1*
X1798803Y3395971D2*
X1768659D1*
X1798803Y3412048D1*
X1768659D1*
X2355053Y3442950D2*
X2353627Y3445258D1*
X2350742Y3447540D1*
X2347890Y3448707D1*
X2343579Y3449848D1*
X2336383D1*
X2332105Y3448707D1*
X2329220Y3447540D1*
X2326368Y3445258D1*
X2324909Y3442950D1*
Y3438360D1*
X2326368Y3436079D1*
X2329220Y3433771D1*
X2332105Y3432630D1*
X2336383Y3431489D1*
X2343579D1*
X2347890Y3432630D1*
X2350742Y3433771D1*
X2353627Y3436079D1*
X2355053Y3438360D1*
Y3442950D1*
Y3418689D2*
X2333531D1*
X2329220Y3417549D1*
X2326368Y3415241D1*
X2324909Y3411792D1*
Y3409510D1*
X2326368Y3406061D1*
X2329220Y3403753D1*
X2333531Y3402613D1*
X2355053D1*
Y3381774D2*
X2324909D1*
X2355053Y3389813D2*
Y3373736D1*
X1262223Y3052525D2*
D172*
X1253044Y3082669D1*
X1243865Y3052525D1*
X1234265D2*
Y3082669D1*
X1223918D1*
X1220469Y3081210D1*
X1219329Y3079784D1*
X1218188Y3076932D1*
Y3072621D1*
X1219329Y3069736D1*
X1220469Y3068310D1*
X1223918Y3066884D1*
X1220469Y3065425D1*
X1219329Y3063999D1*
X1218188Y3061147D1*
Y3058262D1*
X1219329Y3055410D1*
X1220469Y3053951D1*
X1223918Y3052525D1*
X1234265D1*
Y3066884D2*
X1223918D1*
X1190203Y3082669D2*
X1199409Y3052525D1*
X1208588Y3082669D1*
X1205139Y3072621D2*
X1193652D1*
X1172565Y3052525D2*
Y3082669D1*
X1180603Y3052525D2*
X1164526D1*
X1154926Y3067613D2*
X1141662D1*
X1264672Y3182477D2*
X1255493Y3212622D1*
X1246313Y3182477D1*
X1236713Y3182478D2*
X1236714Y3212621D1*
X1226367D1*
X1222918Y3211162D1*
X1221778Y3209736D1*
X1220637Y3206885D1*
Y3202573D1*
X1221778Y3199688D1*
X1222918Y3198262D1*
X1226367Y3196837D1*
X1222918Y3195377D1*
X1221778Y3193951D1*
X1220637Y3191100D1*
Y3188214D1*
X1221777Y3185363D1*
X1222918Y3183903D1*
X1226367Y3182478D1*
X1236713D1*
X1236714Y3196837D2*
X1226367D1*
X1192652Y3212621D2*
X1201858Y3182478D1*
X1211037Y3212621D1*
X1207588Y3202573D2*
X1196101D1*
X1175014Y3182477D2*
Y3212621D1*
X1183052Y3182477D2*
X1166975D1*
X1147055Y3184650D2*
Y3210483D1*
X1157375Y3197583D2*
X1136709D1*
M02*
