G04 DipTrace 3.0.0.1*
G04 panel.GTL*
%MOIN*%
G04 #@! TF.FileFunction,Copper,L1,Top*
G04 #@! TF.Part,Single*
%AMOUTLINE0*
4,1,16,
-0.047244,0.045472,
0.047244,0.045472,
0.047244,-0.045472,
0.029528,-0.045472,
0.029528,-0.029331,
0.021654,-0.029331,
0.021654,-0.045472,
0.003937,-0.045472,
0.003937,-0.029331,
-0.003937,-0.029331,
-0.003937,-0.045472,
-0.021654,-0.045472,
-0.021654,-0.029331,
-0.029528,-0.029331,
-0.029528,-0.045472,
-0.047244,-0.045472,
-0.047244,0.045472,
0*%
%AMOUTLINE3*
4,1,16,
0.045472,0.047244,
0.045472,-0.047244,
-0.045472,-0.047244,
-0.045472,-0.029528,
-0.029331,-0.029528,
-0.029331,-0.021654,
-0.045472,-0.021654,
-0.045472,-0.003937,
-0.029331,-0.003937,
-0.029331,0.003937,
-0.045472,0.003937,
-0.045472,0.021654,
-0.029331,0.021654,
-0.029331,0.029528,
-0.045472,0.029528,
-0.045472,0.047244,
0.045472,0.047244,
0*%
%AMOUTLINE6*
4,1,12,
0.059055,0.244094,
0.137795,0.244094,
0.137795,-0.244094,
0.059055,-0.244094,
0.059055,-0.314961,
-0.059055,-0.314961,
-0.059055,-0.244094,
-0.137795,-0.244094,
-0.137795,0.244094,
-0.059055,0.244094,
-0.059055,0.314961,
0.059055,0.314961,
0.059055,0.244094,
0*%
%AMOUTLINE9*
4,1,12,
0.064961,0.048228,
0.064961,0.038386,
0.038386,0.038386,
0.038386,-0.038386,
0.064961,-0.038386,
0.064961,-0.048228,
-0.064961,-0.048228,
-0.064961,-0.038386,
-0.038386,-0.038386,
-0.038386,0.038386,
-0.064961,0.038386,
-0.064961,0.048228,
0.064961,0.048228,
0*%
%AMOUTLINE12*
4,1,5,
0.016732,-0.005512,
-0.016732,-0.005512,
-0.016732,0.005512,
0.012795,0.005512,
0.016732,0.001575,
0.016732,-0.005512,
0*%
G04 #@! TA.AperFunction,Conductor*
%ADD14C,0.008*%
%ADD15C,0.02*%
%ADD16C,0.01*%
G04 #@! TA.AperFunction,CopperBalancing*
%ADD17C,0.025*%
G04 #@! TA.AperFunction,Conductor*
%ADD18C,0.03*%
%ADD19C,0.05*%
%ADD20C,0.007874*%
%ADD21C,0.06*%
%ADD23C,0.4*%
%ADD24R,0.2X0.1*%
%ADD25R,0.043307X0.03937*%
%ADD26R,0.03937X0.043307*%
%ADD28R,0.177165X0.082677*%
%ADD29R,0.051181X0.059055*%
%ADD30R,0.062992X0.070866*%
%ADD32R,0.023622X0.023622*%
%ADD33R,0.111024X0.061811*%
G04 #@! TA.AperFunction,ComponentPad*
%ADD34R,0.1X0.1*%
%ADD35C,0.1*%
%ADD36C,0.055118*%
%ADD37R,0.055118X0.055118*%
%ADD38C,0.03937*%
%ADD39R,0.066929X0.066929*%
%ADD40C,0.066929*%
%ADD41R,0.3X0.4*%
%ADD42R,0.03X0.06*%
%ADD43R,0.112205X0.259843*%
%ADD46R,0.108268X0.03937*%
%ADD47R,0.242126X0.218504*%
%ADD49R,0.025591X0.041339*%
%ADD51R,0.03937X0.108268*%
%ADD52R,0.218504X0.242126*%
%ADD55R,0.017717X0.024803*%
%ADD56R,0.024803X0.017717*%
G04 #@! TA.AperFunction,ComponentPad*
%ADD57C,0.051181*%
%ADD58C,0.059055*%
%ADD60R,0.023622X0.043307*%
%ADD61R,0.07874X0.023622*%
%ADD63R,0.043307X0.023622*%
%ADD64R,0.023622X0.07874*%
%ADD66O,0.007874X0.027559*%
%ADD67O,0.027559X0.007874*%
%ADD70R,0.07874X0.03937*%
%ADD71R,0.015748X0.070866*%
%ADD73R,0.017717X0.03937*%
%ADD76O,0.007874X0.033465*%
%ADD78R,0.029528X0.011024*%
%ADD174OUTLINE0*%
%ADD177OUTLINE3*%
%ADD180OUTLINE6*%
%ADD183OUTLINE9*%
%ADD186OUTLINE12*%
%FSLAX26Y26*%
G04*
G70*
G90*
G75*
G01*
G04 Top*
%LPD*%
X1925444Y2160631D2*
D14*
X1960730D1*
X1979478Y2179379D1*
Y2216879D1*
X1993472Y2230874D1*
X2023340D1*
X2170110Y2254354D2*
X2135703D1*
X2123228Y2241879D1*
Y2204381D1*
X2110728Y2191881D1*
X2035728D1*
X2023340Y2204269D1*
Y2230874D1*
X1823228Y2510630D2*
X1923228D1*
X1823228D2*
D15*
X1854478D1*
X1873228Y2491879D1*
Y2360630D1*
X1898228Y2335630D1*
X1948228D1*
X1979478Y2304381D1*
Y2279379D1*
Y2244869D1*
X1993472Y2230874D1*
X1948228Y2316879D2*
Y2335630D1*
X1985728Y2279379D2*
X1979478D1*
X965879Y1726475D2*
D16*
X1035222D1*
X1056234Y1705463D1*
Y1455463D1*
X1031234Y1430463D1*
X965879D1*
Y1426476D1*
X981234Y1780465D2*
Y1726475D1*
X965879D1*
X528970Y1196357D2*
Y1303199D1*
X543734Y1317963D1*
X731234D1*
X756234Y1342963D1*
X2503488Y685451D2*
D14*
X2429656D1*
X2041979D2*
X1968055D1*
X1860728Y710630D2*
Y898130D1*
X1898228Y935630D1*
X1967877D1*
X1968055Y935451D1*
X2503488Y685451D2*
X2595836D1*
X2598228Y687844D1*
X2505881D1*
X2503488Y685451D1*
X2548228Y1898130D2*
X2529478Y1879379D1*
Y1685630D1*
X2823228Y1391879D1*
Y791881D1*
X2723228Y691881D1*
X2602265D1*
X2598228Y687844D1*
X1721014Y2223131D2*
Y2160631D1*
Y2098131D2*
Y2160631D1*
Y2223131D2*
Y2273131D1*
X2048240Y2031543D2*
X2010727D1*
Y2029381D1*
X2194243Y1998131D2*
D17*
X2179478Y2012896D1*
X2194243Y1998131D2*
X2179478Y1983366D1*
Y1941879D1*
X2194243Y1998131D2*
X2210728Y1981646D1*
Y1941879D1*
X2475394Y1385630D2*
D14*
X2516979Y1344045D1*
Y1310630D1*
Y1279379D1*
Y1248130D1*
X2485728D1*
Y1279381D1*
Y1310630D1*
X2454479D1*
Y1279381D1*
Y1248130D1*
X2423228D1*
Y1279381D1*
Y1310630D1*
X1892081Y1660525D2*
X1891975Y1660631D1*
X1848228D1*
X1810727D1*
X1848228D2*
Y1698130D1*
Y1735630D1*
Y1773130D1*
Y1810630D1*
X1810728D1*
Y1773130D1*
Y1735630D1*
Y1698130D1*
X1810727D1*
X2179479Y1910629D2*
X2179478Y1941879D1*
X2210728D2*
Y1910629D1*
X2256713Y2166874D2*
X2298222D1*
X2342009Y2220891D2*
X2341979D1*
Y2166881D1*
X2498524Y2190698D2*
X2498228D1*
Y2235630D1*
X2045997Y2291831D2*
Y2275361D1*
X2060728Y2260630D1*
Y2241881D1*
X2491979Y1981201D2*
X2448228D1*
X2456299Y2141881D2*
Y2099951D1*
X2454478Y2098130D1*
X2706693Y960630D2*
Y1016879D1*
X2704478D1*
Y1054381D1*
X2754478Y2291929D2*
X2804478D1*
X2854478D1*
X2904478D1*
X2754478D2*
Y2291881D1*
X2710728D1*
X3029609Y2091833D2*
X3029478D1*
Y2148130D1*
X3179621Y2193676D2*
X3140181D1*
X3129478Y2204379D1*
X3179621Y1841811D2*
X3267974D1*
X3279631Y1853469D1*
X3342890D1*
X3341978Y1854381D1*
X3573228Y1198130D2*
X3835728D1*
X1823227Y1990059D2*
X1852656D1*
X1866978Y2004381D1*
X2691978Y1768701D2*
Y1729379D1*
X2685728Y1723130D1*
X2630364Y2049803D2*
Y2103495D1*
X2629479Y2104379D1*
X2985827Y1735630D2*
X2916979D1*
X3279631Y2148744D2*
X3216364D1*
X3210728Y2154379D1*
X3909552Y2266854D2*
X3973202D1*
X3909552Y2030634D2*
X3965726D1*
X3966979Y2029381D1*
X3909552Y1735358D2*
X3966706Y1735630D1*
X3623228Y677559D2*
X3602657D1*
X3585728Y660630D1*
Y598130D1*
X3571850Y584252D1*
X3534252D1*
X3433858Y621654D2*
Y704724D1*
X3439764Y710630D1*
X3412205Y584252D2*
X3387108D1*
X3341979Y629381D1*
Y729379D1*
X3439764Y710630D2*
Y737845D1*
X3423228Y754381D1*
X3623228Y677559D2*
X3650049D1*
X3666978Y660630D1*
X3623228Y456201D2*
X3668799D1*
X1968055Y735451D2*
X1929301D1*
X1910728Y716879D1*
Y523130D1*
X1973228Y460630D1*
X2623228D1*
X2854478Y691879D1*
Y1404381D1*
X2554478Y1704381D1*
Y1822343D1*
X2553592Y1821457D1*
X2579182D2*
Y1723425D1*
X2885728Y1416879D1*
Y673129D1*
X2641979Y429379D1*
X1966979D1*
X1891978Y504381D1*
Y860630D1*
X1916799Y885451D1*
X1968055D1*
X2503488Y735451D2*
X2723050D1*
X2791978Y804379D1*
Y1379381D1*
X2504478Y1666881D1*
Y1904378D1*
X2529479Y1929379D1*
X2585730D1*
X2604478Y1910631D1*
Y1821752D1*
X2604773Y1821457D1*
X2854478Y2079331D2*
Y2166879D1*
X2873228Y2185630D1*
X2977241D1*
X2983496Y2191885D1*
X2992109Y2091833D2*
Y2183272D1*
X2983496Y2191885D1*
X2503488Y835451D2*
X2560907D1*
X2585728Y810630D1*
X2660728D1*
X2673228Y823130D1*
Y991879D1*
X2648228Y1016879D1*
X2639764D1*
X1858514Y2098131D2*
X1787944D1*
X3534252Y568504D2*
X3606102D1*
X3623228Y585630D1*
Y610630D1*
X3566916Y2793714D2*
D16*
Y2829689D1*
X3521640Y2874965D1*
X3434140D1*
X3405105Y2845929D1*
X3384140D1*
X3566916Y2793714D2*
X3620066D1*
X2934140Y2845929D2*
Y2849965D1*
X2871640D1*
X1892083Y1913776D2*
D14*
Y1962895D1*
X1896013Y1966825D1*
X1929484Y1807476D2*
D18*
Y1841887D1*
X1948228Y1860631D1*
X2073228D1*
Y1773130D1*
X2079478D1*
X1962942Y1966825D2*
D14*
X1966923D1*
X1998228Y1998131D1*
X2135726D1*
X2141978Y1991879D1*
Y1904381D1*
X2098227Y1860630D1*
Y1773130D1*
X2079478D1*
X1823227Y1923130D2*
X1766978D1*
X1929484Y1913776D2*
X1929478Y1913769D1*
Y1891879D1*
X1904479Y1866881D1*
X1860727D1*
X1823227Y1904381D1*
Y1923130D1*
X1591978Y1785630D2*
X1729478Y1923130D1*
X1766978D1*
X2048240Y1964614D2*
X2110747D1*
X1966886Y1913776D2*
X2026374D1*
X2048240Y1935642D1*
Y1964614D1*
X3726365Y2793714D2*
D16*
Y2792188D1*
X3665391Y2731214D1*
X3302891D1*
X3259140Y2774965D1*
Y2779000D1*
X3134140Y2845929D2*
Y2824965D1*
X3146640Y2812465D1*
X3484139D1*
X3540390Y2756214D1*
X3635715D1*
X3673215Y2793714D1*
X1885730Y1315503D2*
D14*
X1909350D1*
X1916978Y1323130D1*
Y1357138D1*
X1892079Y1382037D1*
X1962945Y1188287D2*
Y1238289D1*
X1973230Y1248573D1*
X1962945Y1188287D2*
X1957136D1*
X1935728Y1166879D1*
Y1135630D1*
X1948228Y1123130D1*
X2010728D1*
X2073228Y1185630D1*
X2235728D1*
X2285728Y1235630D1*
Y1516881D1*
X2404478Y1635630D1*
Y2148130D1*
X2379478Y2173130D1*
Y2223129D1*
X2404479Y2248130D1*
X2448228D1*
X2473228Y2223130D1*
Y2190993D1*
X2472933Y2190698D1*
X1896016Y1188287D2*
Y1238287D1*
X1885730Y1248573D1*
X1896016Y1188287D2*
Y1187841D1*
X1916978Y1166879D1*
Y1129381D1*
X1941978Y1104381D1*
X2016979D1*
X2079479Y1166881D1*
X2241979D1*
X2304478Y1229379D1*
Y1510629D1*
X2423228Y1629379D1*
Y2160630D1*
X2398228Y2185630D1*
Y2216879D1*
X2410728Y2229379D1*
X2441979D1*
X2448228Y2223130D1*
Y2191584D1*
X2447343Y2190698D1*
X1823228Y2410630D2*
Y2285630D1*
X1848228Y2260630D1*
X1885728D1*
X1923228Y2223130D1*
Y2225346D1*
X1925444Y2223131D1*
X2996640Y2779000D2*
D16*
X2934140D1*
X3321640D2*
X3384140D1*
X3059140Y2845929D2*
Y2899965D1*
X3106877Y2947701D1*
X3168786D1*
X2996640Y2845929D2*
X3059140D1*
X2466916Y2793714D2*
Y2829689D1*
X2421640Y2874965D1*
X2334140D1*
X2305105Y2845929D1*
X2284140D1*
X2466916Y2793714D2*
X2520066D1*
X1834140Y2845929D2*
Y2849965D1*
X1771640D1*
X2626365Y2793714D2*
Y2792188D1*
X2565391Y2731214D1*
X2202891D1*
X2159140Y2774965D1*
Y2779000D1*
X2034140Y2845929D2*
Y2824965D1*
X2046640Y2812465D1*
X2384139D1*
X2440390Y2756214D1*
X2535715D1*
X2573215Y2793714D1*
X1896640Y2779000D2*
X1834140D1*
X2716535Y785630D2*
D14*
Y798573D1*
X2706693Y808416D1*
Y848130D1*
Y862844D1*
X2716979Y873130D1*
Y903937D1*
X2716535Y904381D1*
X2629921D2*
Y950787D1*
X2639764Y960630D1*
X2629921Y904381D2*
X2591978D1*
X2560907Y935451D1*
X2503488D1*
Y885451D2*
X2560907D1*
X2598228Y848130D1*
X2639764D1*
X2221640Y2779000D2*
D16*
X2284140D1*
X1973230Y1315503D2*
D14*
X1949605D1*
X1941978Y1323130D1*
Y1357133D1*
X1966882Y1382037D1*
X1968055Y635451D2*
X2035550D1*
X2035728Y635630D1*
X2066978D1*
Y604381D1*
Y573130D1*
X2035728Y635630D2*
Y604381D1*
Y573130D1*
X2503488Y635451D2*
X2435907D1*
X2435728Y635630D1*
X2404478D1*
X2435728D2*
Y604381D1*
Y573130D1*
X2404478Y635630D2*
Y604381D1*
Y573130D1*
X2404479D1*
X2116978Y1241879D2*
X2148228D1*
X1966886Y1807476D2*
D18*
Y1752063D1*
X1962949Y1748126D1*
X1966885Y1660525D2*
D14*
X1960728Y1654369D1*
Y1579379D1*
X1954479Y1573130D1*
X1566979D1*
X1535728Y1604381D1*
Y1985630D1*
X1566979Y2016881D1*
X1748228D1*
X1766978Y1998131D1*
Y1990059D1*
Y1998131D2*
Y2010629D1*
X1791979Y2035630D1*
X1904478D1*
X1925444Y2056596D1*
Y2098131D1*
X2629921Y785630D2*
X2566978D1*
X1959140Y2845929D2*
D16*
Y2899965D1*
X2006877Y2947701D1*
X2068786D1*
X1896640Y2845929D2*
X1959140D1*
X2112927Y2291831D2*
D14*
X2098143Y2277047D1*
Y2230874D1*
X2112927Y2291831D2*
X2113001Y2291756D1*
X2170110D1*
X2276409Y2216953D2*
Y2254354D1*
Y2291756D1*
X2338073D1*
X2342009Y2287820D1*
X2096640Y2779000D2*
D16*
X2071640D1*
X2034140D1*
X1996640D1*
X1959140D1*
X2068786Y3127228D2*
X2156877D1*
X2184140Y3099965D1*
Y2912465D1*
X2159140Y2887465D1*
X2013747D1*
X1996640Y2870358D1*
Y2779000D1*
X2221640Y2845929D2*
Y2926539D1*
X2332566Y3037465D1*
X2221640Y2845929D2*
X2159140D1*
X2096640D1*
X3566916Y3393714D2*
Y3429689D1*
X3521640Y3474965D1*
X3434140D1*
X3405105Y3445929D1*
X3384140D1*
X3566916Y3393714D2*
X3620066D1*
X2934140Y3445929D2*
Y3449965D1*
X2871640D1*
X3726365Y3393714D2*
Y3392188D1*
X3665391Y3331214D1*
X3302891D1*
X3259140Y3374965D1*
Y3379000D1*
X3134140Y3445929D2*
Y3424965D1*
X3146640Y3412465D1*
X3484139D1*
X3540390Y3356214D1*
X3635715D1*
X3673215Y3393714D1*
X2996640Y3379000D2*
X2934140D1*
X3321640D2*
X3384140D1*
X3059140Y3445929D2*
Y3499965D1*
X3106877Y3547701D1*
X3168786D1*
X2996640Y3445929D2*
X3059140D1*
X3196640Y3379000D2*
X3171640D1*
X3134140D1*
X3096640D1*
X3059140D1*
X3168786Y3727228D2*
X3256877D1*
X3284140Y3699965D1*
Y3512465D1*
X3259140Y3487465D1*
X3113747D1*
X3096640Y3470358D1*
Y3379000D1*
X3321640Y3445929D2*
Y3526539D1*
X3432566Y3637465D1*
X3321640Y3445929D2*
X3259140D1*
X3196640D1*
X2466916Y3393714D2*
Y3429689D1*
X2421640Y3474965D1*
X2334140D1*
X2305105Y3445929D1*
X2284140D1*
X2466916Y3393714D2*
X2520066D1*
X1834140Y3445929D2*
Y3449965D1*
X1771640D1*
X2626365Y3393714D2*
Y3392188D1*
X2565391Y3331214D1*
X2202891D1*
X2159140Y3374965D1*
Y3379000D1*
X1858514Y2160631D2*
D14*
X1787944D1*
X1858514Y2223131D2*
X1787944D1*
X2034140Y3445929D2*
D16*
Y3424965D1*
X2046640Y3412465D1*
X2384139D1*
X2440390Y3356214D1*
X2535715D1*
X2573215Y3393714D1*
X1896640Y3379000D2*
X1834140D1*
X2221640D2*
X2284140D1*
X1959140Y3445929D2*
Y3499965D1*
X2006877Y3547701D1*
X2068786D1*
X1896640Y3445929D2*
X1959140D1*
X2096640Y3379000D2*
X2071640D1*
X2034140D1*
X1996640D1*
X1959140D1*
X2068786Y3727228D2*
X2156877D1*
X2184140Y3699965D1*
Y3512465D1*
X2159140Y3487465D1*
X2013747D1*
X1996640Y3470358D1*
Y3379000D1*
X2221640Y3445929D2*
Y3526539D1*
X2332566Y3637465D1*
X2221640Y3445929D2*
X2159140D1*
X2096640D1*
X775260Y2823713D2*
D14*
X750358Y2848614D1*
Y2867461D1*
X769109Y2886211D1*
X773146D1*
Y2942463D1*
X702575D1*
X619112Y3654963D2*
D19*
X625362D1*
X650361Y3679962D1*
X962862D1*
X1025360Y3617465D1*
Y3279962D1*
X1000360Y3254962D1*
Y2867461D1*
X956612Y2823713D1*
X775260D1*
X927573Y3492459D2*
D14*
Y3492463D1*
X975360D1*
X927573Y3592462D2*
Y3629963D1*
X925358D1*
X777576Y3592465D2*
X775361Y3594680D1*
Y3629962D1*
X875360Y3254963D2*
X865986Y3264337D1*
Y3276836D1*
X856609Y3286213D1*
X875360Y3304963D1*
Y3317462D1*
X856609Y3286213D2*
X875360D1*
X856609D2*
X837860Y3304962D1*
Y3317462D1*
X856609Y3286213D2*
X837860D1*
X856609D2*
X837860Y3267463D1*
Y3254963D1*
X856609Y3286213D2*
X875360Y3267462D1*
Y3254963D1*
X852575Y3111213D2*
X900361D1*
X654395D2*
Y3173713D1*
X650361D1*
X895979Y3208457D2*
Y3246843D1*
X856609Y3286213D1*
X869109Y3154963D2*
X880231Y3166085D1*
Y3208457D1*
X800361Y3167462D2*
X812860D1*
X832987Y3187589D1*
Y3208457D1*
X721324Y3111213D2*
X725360D1*
Y3123711D1*
X769110Y3167462D1*
X800361D1*
X777576Y3492463D2*
X819110D1*
X894354Y2605849D2*
X949031D1*
X960646Y2617463D1*
X833971Y2679028D2*
Y2658853D1*
X844112Y2648713D1*
X875361D1*
X894109Y2629965D1*
Y2606094D1*
X894354Y2605849D1*
X833971Y2698713D2*
X758824D1*
X752573Y2692462D1*
X643222Y2623959D2*
X618862D1*
X606609Y2636213D1*
X750358Y2654963D2*
Y2690247D1*
X752573Y2692462D1*
X1968055Y785451D2*
X2035550D1*
X2035728Y785630D1*
X2066979D1*
Y748130D1*
X2035728Y785630D2*
Y748130D1*
X1968055Y835451D2*
X2035550D1*
X2035728Y835630D1*
X2066978D1*
Y866879D1*
X2035728Y835630D2*
Y866879D1*
X2503488Y785451D2*
X2435907D1*
X2435728Y785630D1*
X2404479D1*
Y754381D1*
X2435728D1*
X1027575Y2617463D2*
Y2692462D1*
X1056608D1*
X1206609Y2842463D1*
X879247Y2679028D2*
X901294D1*
X925358Y2654963D1*
X990075D1*
X1027575Y2617463D1*
X860644Y3592462D2*
Y3542461D1*
X777576Y3542463D2*
X860644D1*
X710647Y3592465D2*
X669109D1*
X656610Y3604963D1*
X587858D1*
X569109Y3586214D1*
Y3304966D1*
X619112Y3254963D1*
X725361D1*
X769112Y3211213D1*
X814483D1*
D20*
X817239Y3208457D1*
X710647Y3592465D2*
D14*
Y3492463D1*
Y3542463D2*
Y3492463D1*
X927573Y3542461D2*
X900358D1*
X894112Y3536214D1*
Y3498714D1*
X887857Y3492459D1*
X860644D1*
X864483Y3363969D2*
Y3492459D1*
X860644D1*
X681608Y2544038D2*
D21*
X726936D1*
X750361Y2567463D1*
X814433D1*
X960646Y2748713D2*
D14*
Y2692462D1*
X879247Y2698713D2*
X954395D1*
X960646Y2692462D1*
X817239Y3363969D2*
Y3388084D1*
X794110Y3411213D1*
X656610D1*
X619112Y3373714D1*
Y3354963D1*
X879247Y2718398D2*
Y2738575D1*
X869109Y2748713D1*
X752573D1*
X832987Y3363969D2*
Y3397337D1*
X800361Y3429963D1*
X681610D1*
X656610Y3454963D1*
X619112D1*
X848735Y3363969D2*
Y3406588D1*
X806610Y3448713D1*
X687861D1*
X669110Y3467463D1*
Y3542465D1*
X656612Y3554963D1*
X619112D1*
X3279631Y2030634D2*
X3195241D1*
X3179621Y2046255D1*
Y1908740D2*
Y1979325D1*
X2223228Y2510630D2*
X2273228Y2560630D1*
X2641979D1*
X2673228Y2529381D1*
Y2079381D1*
X2729479Y2023130D1*
X3066979D1*
X3141978Y1948131D1*
Y1804381D1*
X3154478Y1791881D1*
X3277098D1*
X3279631Y1794413D1*
X2023228Y2410630D2*
X2029478D1*
X2073228Y2366879D1*
X2479479D1*
X2523228Y2323130D1*
Y2293946D1*
X2524114Y2293060D1*
X2523228Y2292175D2*
Y2279381D1*
X2535728Y2266881D1*
X2598228D1*
X2634421Y2230688D1*
Y2159323D1*
X2604478Y2129379D1*
Y2050098D1*
X2604773Y2049803D1*
Y2004084D1*
X2660727Y1948130D1*
X2866978D1*
X2929478Y1885630D1*
X2985827D1*
X3412205Y537008D2*
X3378101D1*
X3273381Y641728D1*
Y947966D1*
X3123228Y1098118D1*
Y1698130D1*
X3066978Y1754381D1*
Y1841881D1*
X3023228Y1885630D1*
X2985827D1*
X2804478Y2079331D2*
Y2191879D1*
X2816978Y2204379D1*
X2929478D1*
X2960728Y2235630D1*
X2971177D1*
X2983646Y2248098D1*
X3010697D1*
X3016978Y2254379D1*
Y2329379D1*
X3029479Y2341881D1*
X3141979D1*
X3173228Y2373130D1*
Y2460630D1*
X3123228Y2510630D1*
X2447343Y2293060D2*
X2472933D1*
X2498524D1*
X1923228Y2410630D2*
X1954478D1*
X2016978Y2348130D1*
X2466979D1*
X2498228Y2316881D1*
Y2293356D1*
X2498524Y2293060D2*
Y2272835D1*
X2523228Y2248130D1*
X2591979D1*
X2616979Y2223130D1*
Y2173130D1*
X2579478Y2135629D1*
Y2050098D1*
X2579182Y2049803D1*
Y1985925D1*
X2641978Y1923130D1*
X2848228D1*
X2935728Y1835630D1*
X2985827D1*
X3412205Y521260D2*
X3362598D1*
X3235877Y647982D1*
Y935465D1*
X3085861Y1085480D1*
Y1691747D1*
X3041978Y1735630D1*
Y1816881D1*
X3023228Y1835630D1*
X2985827D1*
X3123228Y2410630D2*
Y2373130D1*
X3110728Y2360630D1*
X3010728D1*
X2985728Y2335630D1*
Y2302272D1*
X2983646Y2304354D1*
X2966953D1*
X2941978Y2279379D1*
Y2254379D1*
X2916978Y2229379D1*
X2779478D1*
X2754478Y2204379D1*
Y2079331D1*
X840075Y2886211D2*
Y2942463D1*
Y2971495D1*
X819106Y2992463D1*
X771323D1*
X880231Y3363969D2*
Y3391083D1*
X900361Y3411213D1*
X937860D1*
X956608Y3392465D1*
Y3073711D1*
X919110Y3036214D1*
X756612D1*
X750358Y3029961D1*
Y3013428D1*
X771323Y2992463D1*
X635646Y2886211D2*
Y2942463D1*
Y2971499D1*
X656610Y2992463D1*
X704394D1*
X895979Y3363969D2*
D20*
Y3381831D1*
D14*
X906612Y3392463D1*
X931612D1*
X937861Y3386214D1*
Y3086214D1*
X906609Y3054962D1*
X750358D1*
X731609Y3036213D1*
Y3017463D1*
X706609Y2992463D1*
X704394D1*
X2123228Y2510630D2*
X2173228Y2460630D1*
X2541979D1*
X2573228Y2429381D1*
Y2329379D1*
X2654478Y2248130D1*
Y2066881D1*
X2723228Y1998130D1*
X3054479D1*
X3116978Y1935631D1*
Y1785630D1*
X3148227Y1754381D1*
X3260609D1*
X3279631Y1735358D1*
X1006234Y1367963D2*
D16*
Y1355463D1*
X731234Y1280463D2*
Y1267963D1*
X756234Y1242963D1*
X2985827Y1785630D2*
D14*
X2904479D1*
X2873228Y1816881D1*
X3216979Y2091881D2*
X3277440D1*
X3279631Y2089689D1*
X3400419D1*
X3573228Y1916879D1*
Y1548130D1*
X1027575Y2748713D2*
Y2813428D1*
X1044109Y2829962D1*
Y3236213D1*
X1206609Y3398713D1*
Y3442463D1*
X848735Y3208457D2*
D20*
Y3179963D1*
X864483D1*
Y3208457D1*
X619102Y3754963D2*
D21*
X1106660D1*
X1206609Y3655014D1*
Y3442463D1*
X600358Y3167462D2*
D14*
Y3092465D1*
X619109Y3073714D1*
X756614D1*
X785646Y3102745D1*
Y3111213D1*
X848735Y3208457D2*
Y3178337D1*
X785646Y3115248D1*
Y3111213D1*
X700457Y2823713D2*
X725360Y2848615D1*
Y2867463D1*
X706612Y2886211D1*
X702575D1*
X2524114Y2190698D2*
Y2142766D1*
X2523228Y2141881D1*
X2585728Y2216879D2*
Y2166879D1*
X2560728Y2141879D1*
Y2116879D1*
X2548228Y2104379D1*
X2504478D1*
X2491979Y2091881D1*
Y2048130D1*
X2551919D1*
X2553592Y2049803D1*
X2523228Y2141881D2*
X2560728Y2141879D1*
X2904478Y2079331D2*
X2935778D1*
X2973228Y2041881D1*
X3048228D1*
X3060728Y2054381D1*
Y2181581D1*
X3050425Y2191885D1*
Y2247949D1*
X3050575Y2248098D1*
Y2304354D1*
X3173228Y2323130D2*
Y2266997D1*
X3179621Y2260605D1*
X3273382D1*
X3279631Y2266854D1*
X2904478Y2154379D2*
Y2079331D1*
X2685728Y1879381D2*
Y1841879D1*
X2691978Y1835630D1*
X2773228D1*
X3512598Y621654D2*
Y704724D1*
X3506693Y710630D1*
X3534252Y537008D2*
X3584350D1*
X3585728D1*
X3609350D1*
X3623228Y523130D1*
X3534252Y552756D2*
X3568602D1*
X3584350Y537008D1*
X3506693Y710630D2*
X3660728D1*
X3698228Y673130D1*
Y566881D1*
X3666978Y535630D1*
X3635728D1*
X3623228Y523130D1*
X3585728Y537008D2*
Y535630D1*
X3560728Y510630D1*
Y485630D1*
X3535728Y460630D1*
X3448228D1*
X3433858Y475000D1*
Y499606D1*
X3412205Y552756D2*
X3387353D1*
X3310728Y629381D1*
Y748130D1*
X3395104Y832505D1*
X3506693Y720916D1*
Y710630D1*
X3395104Y832505D2*
Y876248D1*
X3160728Y1110623D1*
Y1704379D1*
X3091978Y1773130D1*
Y1891881D1*
X3010728Y1973130D1*
X2710730D1*
X2666979Y2016881D1*
X3196640Y2779000D2*
D16*
X3171640D1*
X3134140D1*
X3096640D1*
X3059140D1*
X3168786Y3127228D2*
X3256877D1*
X3284140Y3099965D1*
Y2912465D1*
X3259140Y2887465D1*
X3113747D1*
X3096640Y2870358D1*
Y2779000D1*
X3321640Y2845929D2*
Y2926539D1*
X3432566Y3037465D1*
X3321640Y2845929D2*
X3259140D1*
X3196640D1*
D17*
X981234Y1780465D3*
X756234Y1342963D3*
X2429656Y685451D3*
X2041979D3*
X1860728Y710630D3*
X2548228Y1898130D3*
X1721014Y2273131D3*
X2010727Y2029381D3*
X2179478Y1941879D3*
X2210728D3*
X2298222Y2166874D3*
X2341979Y2166881D3*
X2498228Y2235630D3*
X2060728Y2241881D3*
X2448228Y1981201D3*
X2454478Y2098130D3*
X2704478Y1054381D3*
X2710728Y2291881D3*
X3029478Y2148130D3*
X3129478Y2204379D3*
X3341978Y1854381D3*
X3835728Y1198130D3*
X1866978Y2004381D3*
X2685728Y1723130D3*
X2629479Y2104379D3*
X2916979Y1735630D3*
X3210728Y2154379D3*
X3973202Y2266854D3*
X3966979Y2029381D3*
X3966706Y1735630D3*
X3341979Y729379D3*
X3423228Y754381D3*
X3666978Y660630D3*
X3668799Y456201D3*
X2871640Y2849965D3*
X1771640D3*
X2566978Y785630D3*
X2871640Y3449965D3*
X1771640D3*
X975360Y3492463D3*
X925358Y3629963D3*
X775361Y3629962D3*
X900361Y3111213D3*
X650361Y3173713D3*
X819110Y3492463D3*
X606609Y2636213D3*
X750358Y2654963D3*
X1006234Y1367963D3*
X731234Y1280463D3*
X2873228Y1816881D3*
X3216979Y2091881D3*
X600358Y3167462D3*
X2585728Y2216879D3*
X3173228Y2323130D3*
X2904478Y2154379D3*
X2685728Y1879381D3*
X2666979Y2016881D3*
X2116978Y1304379D3*
X2148228D3*
X2179479D3*
X2210728D3*
X2035728Y835630D3*
X2210728Y1273130D3*
X2179479D3*
X2116978D3*
X2148228D3*
X2210728Y1241881D3*
X2179479D3*
X2148228Y1241879D3*
X2066978Y835630D3*
Y866879D3*
X2035728D3*
Y785630D3*
X2066979D3*
Y748130D3*
X2035728D3*
Y635630D3*
X2066978D3*
X2035728Y604381D3*
X2066978D3*
X2035728Y573130D3*
X2066978D3*
X2404478Y635630D3*
X2435728D3*
X2404478Y604381D3*
X2435728D3*
X2404479Y573130D3*
X2435728D3*
X2116978Y1241879D3*
X2423228Y1310630D3*
X2454479D3*
X2485728D3*
X2516979D3*
Y1279379D3*
X2485728Y1279381D3*
X2423228D3*
X2454479D3*
X2423228Y1248130D3*
X2454479D3*
X2485728D3*
X2516979D3*
X1848228Y1773130D3*
Y1735630D3*
Y1698130D3*
X1810727D3*
X1848228Y1660631D3*
X1810727D3*
X2179479Y1910629D3*
X2210728D3*
X1810728Y1735630D3*
Y1773130D3*
Y1810630D3*
X1848228D3*
X1985728Y2316879D3*
X1948228D3*
Y2279379D3*
X1985728D3*
X2435728Y785630D3*
X2404479D3*
Y754381D3*
X2435728D3*
X893734Y1780465D3*
X869109Y3154963D3*
X800361Y3167462D3*
X837860Y3317462D3*
Y3286213D3*
Y3254963D3*
X875360D3*
Y3286213D3*
Y3317462D3*
X2032018Y848091D2*
X2070768D1*
X1979493Y841657D2*
Y829157D1*
X2073293Y829202D1*
X2073256Y873001D1*
X2029499Y872959D1*
X2029345Y852251D1*
X2028136Y848531D1*
X2025837Y845367D1*
X2022673Y843068D1*
X2018954Y841860D1*
X1979450Y841706D1*
X2033434Y766832D2*
X2070768D1*
X2028866Y770762D2*
X2030925D1*
Y747959D1*
X2073256Y747944D1*
Y791743D1*
X1979457Y791701D1*
X1979493Y779152D1*
X2018954Y779043D1*
X2022673Y777835D1*
X2025837Y775535D1*
X2028136Y772371D1*
X2028549Y771476D1*
X2400812Y766832D2*
X2438097D1*
X2440618Y747944D2*
Y770762D1*
X2442718D1*
X2444432Y774045D1*
X2447197Y776810D1*
X2450682Y778585D1*
X2454545Y779197D1*
X2492093D1*
X2492050Y791745D1*
X2398251Y791701D1*
X2398287Y747902D1*
X2440621Y747944D1*
X2033434Y616816D2*
X2070768D1*
X2033434Y591948D2*
X2070768D1*
X2033434Y567079D2*
X2070768D1*
X2028769Y620762D2*
X2030925D1*
Y566710D1*
X2073256Y566675D1*
Y641723D1*
X1979450Y641685D1*
X1979493Y629136D1*
X2018954Y629028D1*
X2022673Y627819D1*
X2025837Y625520D1*
X2028136Y622356D1*
X2028549Y621461D1*
X2400787Y616816D2*
X2438097D1*
X2400787Y591948D2*
X2438097D1*
X2400787Y567079D2*
X2438097D1*
X2440618Y566693D2*
Y620762D1*
X2442718D1*
X2444432Y624029D1*
X2447197Y626794D1*
X2450682Y628570D1*
X2454545Y629181D1*
X2492093D1*
X2492050Y641730D1*
X2398245Y641685D1*
X2398287Y566675D1*
X2440621D1*
X1788252Y1385761D2*
X1876953D1*
X1788252Y1360892D2*
X1839503D1*
X1788252Y1336024D2*
X1839503D1*
X1788252Y1311155D2*
X1839503D1*
X1788252Y1286286D2*
X1839503D1*
X1694503Y1261417D2*
X1839503D1*
X1694503Y1236549D2*
X1839503D1*
X1694503Y1211680D2*
X1839503D1*
X1694503Y1186811D2*
X1829248D1*
X1694503Y1161942D2*
X1804346D1*
X1692026Y1148130D2*
X1793028D1*
X1841974Y1197052D1*
X1842133Y1356335D1*
X1843341Y1360054D1*
X1845640Y1363218D1*
X1848804Y1365517D1*
X1852524Y1366726D1*
X1879430Y1366879D1*
X1879478Y1410678D1*
X1785777Y1410630D1*
X1785575Y1296175D1*
X1784366Y1292455D1*
X1782067Y1289291D1*
X1778903Y1286992D1*
X1775184Y1285783D1*
X1735728Y1285630D1*
X1691929D1*
X1691978Y1148178D1*
X1950753Y1735761D2*
X1995703D1*
X1950753Y1710892D2*
X1995703D1*
X1950753Y1686024D2*
X1995703D1*
X1950753Y1661155D2*
X1995703D1*
X1950753Y1636286D2*
X1995703D1*
X1950753Y1611417D2*
X1995703D1*
X1950753Y1586549D2*
X1995753D1*
X1950753Y1561680D2*
X2220703D1*
X1950753Y1536811D2*
X2220703D1*
X1950753Y1511942D2*
X2220703D1*
X1950753Y1487073D2*
X2220703D1*
X1981954Y1462205D2*
X2220703D1*
X1981954Y1437336D2*
X2220703D1*
X1981954Y1412467D2*
X2220703D1*
X1981954Y1387598D2*
X2220703D1*
X1981954Y1362730D2*
X2220703D1*
X2031514Y1337861D2*
X2220703D1*
X2031612Y1312992D2*
X2220703D1*
X2031710Y1288123D2*
X2220703D1*
X2031807Y1263255D2*
X2220703D1*
X2031906Y1238386D2*
X2220703D1*
X1979478Y1454381D2*
X1979572Y1360534D1*
X2018516Y1360083D1*
X2022226Y1358846D1*
X2025371Y1356524D1*
X2027647Y1353341D1*
X2028827Y1349613D1*
X2029172Y1297804D1*
X2029479Y1235630D1*
X2223180D1*
X2223228Y1585581D1*
X2008773Y1585783D1*
X2005054Y1586992D1*
X2001890Y1589291D1*
X1999591Y1592455D1*
X1998382Y1596175D1*
X1998228Y1635630D1*
Y1760581D1*
X1948277Y1760630D1*
X1948228Y1479429D1*
X1968933Y1479227D1*
X1972652Y1478018D1*
X1975816Y1475719D1*
X1978115Y1472555D1*
X1979324Y1468836D1*
X1979478Y1454381D1*
X2406465Y1567011D2*
X2558740D1*
X2381612Y1542142D2*
X2583594D1*
X2356759Y1517273D2*
X2608252D1*
X2337471Y1492404D2*
X2608252D1*
X2337471Y1467535D2*
X2608252D1*
X2337471Y1442667D2*
X2608252D1*
X2337471Y1417798D2*
X2608252D1*
X2337471Y1392929D2*
X2608252D1*
X2337471Y1368060D2*
X2608252D1*
X2337471Y1343192D2*
X2608252D1*
X2337471Y1318323D2*
X2608252D1*
X2337471Y1293454D2*
X2608252D1*
X2337471Y1268585D2*
X2608252D1*
X2337471Y1243717D2*
X2608252D1*
X2335615Y1218848D2*
X2608252D1*
X2325752Y1193979D2*
X2608252D1*
X2325752Y1169110D2*
X2608252D1*
X2325752Y1144241D2*
X2608252D1*
X1857197Y1119373D2*
X1885693D1*
X2077608D2*
X2608252D1*
X1857441Y1094504D2*
X1906251D1*
X2052705D2*
X2608252D1*
X1857636Y1069635D2*
X2608252D1*
X1857881Y1044766D2*
X2589112D1*
X1858125Y1019898D2*
X2589112D1*
X1858369Y995029D2*
X2589112D1*
X1858613Y970160D2*
X1899707D1*
X2036396D2*
X2435108D1*
X2571846D2*
X2589080D1*
X2036396Y945291D2*
X2435108D1*
X2036396Y920423D2*
X2435108D1*
X2112764Y895554D2*
X2435108D1*
X2114766Y870685D2*
X2435108D1*
X2114766Y845816D2*
X2435108D1*
X2114766Y820948D2*
X2362744D1*
X2114766Y796079D2*
X2356787D1*
X2114766Y771210D2*
X2356787D1*
X2114766Y746341D2*
X2356787D1*
X2110762Y721472D2*
X2360791D1*
X2081856Y696604D2*
X2389795D1*
X2108125Y671735D2*
X2363428D1*
X2114766Y646866D2*
X2356787D1*
X2114766Y621997D2*
X2356787D1*
X2571846D2*
X2608252D1*
X2114766Y597129D2*
X2356787D1*
X2524923D2*
X2608252D1*
X1943720Y572260D2*
X1987988D1*
X2114766D2*
X2356787D1*
X2483516D2*
X2608252D1*
X1943720Y547391D2*
X1988867D1*
X2113887D2*
X2357667D1*
X2482636D2*
X2608252D1*
X1956953Y522522D2*
X2608252D1*
X1981807Y497654D2*
X2608252D1*
X2591618Y947900D2*
Y1063056D1*
X2610710D1*
X2610728Y1517516D1*
X2536360Y1591875D1*
X2428844Y1591879D1*
X2334961Y1497988D1*
X2334875Y1226987D1*
X2333478Y1219957D1*
X2330476Y1213448D1*
X2326039Y1207818D1*
X2323243Y1205021D1*
X2323075Y1139924D1*
X2321866Y1136205D1*
X2319567Y1133041D1*
X2316403Y1130741D1*
X2312684Y1129533D1*
X2273228Y1129379D1*
X2085093D1*
X2036782Y1081194D1*
X2030823Y1077211D1*
X2024097Y1074731D1*
X2016979Y1073888D1*
X1939585Y1073983D1*
X1932555Y1075381D1*
X1926046Y1078382D1*
X1920416Y1082819D1*
X1893791Y1109577D1*
X1889808Y1115538D1*
X1887328Y1122262D1*
X1886579Y1126997D1*
X1879479Y1129379D1*
X1854626D1*
X1856412Y936976D1*
X1878425Y958816D1*
X1884386Y962799D1*
X1891110Y965280D1*
X1898228Y966122D1*
X1902184D1*
X1902193Y973755D1*
X2033917D1*
Y911987D1*
X2087835Y911870D1*
X2093942Y910655D1*
X2099598Y908047D1*
X2104488Y904192D1*
X2108344Y899302D1*
X2110951Y893646D1*
X2112167Y887538D1*
Y814623D1*
X2111516Y810386D1*
X2112248Y804201D1*
X2112167Y733365D1*
X2110951Y727257D1*
X2108344Y721601D1*
X2104488Y716711D1*
X2099598Y712856D1*
X2093942Y710248D1*
X2087835Y709033D1*
X2073109Y708951D1*
X2076722Y703154D1*
X2079063Y697501D1*
X2080491Y691551D1*
X2080971Y685451D1*
X2080647Y680671D1*
X2089900Y680352D1*
X2095894Y678660D1*
X2101328Y675618D1*
X2105900Y671390D1*
X2109361Y666213D1*
X2111516Y660370D1*
X2112248Y654185D1*
X2112167Y552096D1*
X2110951Y545988D1*
X2108344Y540332D1*
X2104488Y535442D1*
X2099598Y531587D1*
X2093942Y528979D1*
X2087835Y527764D1*
X2014920D1*
X2008812Y528979D1*
X2003156Y531587D1*
X1998266Y535442D1*
X1994411Y540332D1*
X1991803Y545988D1*
X1990588Y552096D1*
X1990507Y590161D1*
X1962849Y590514D1*
X1956856Y592206D1*
X1951421Y595248D1*
X1949782Y596542D1*
X1946417Y597148D1*
X1941193D1*
X1941220Y535776D1*
X1985081Y491900D1*
X2610680Y491881D1*
X2610728Y639684D1*
X2569357Y639698D1*
X2569350Y597148D1*
X2522427D1*
X2518392Y594093D1*
X2512736Y591486D1*
X2506629Y590270D1*
X2481063Y590189D1*
X2480955Y552096D1*
X2479740Y545988D1*
X2477133Y540332D1*
X2473277Y535442D1*
X2468387Y531587D1*
X2462731Y528979D1*
X2456623Y527764D1*
X2383709D1*
X2377601Y528979D1*
X2371945Y531587D1*
X2367055Y535442D1*
X2363199Y540332D1*
X2360592Y545988D1*
X2359377Y552096D1*
Y656264D1*
X2360592Y662371D1*
X2363199Y668028D1*
X2367055Y672917D1*
X2371945Y676773D1*
X2377601Y679381D1*
X2383709Y680596D1*
X2390915Y680677D1*
X2390785Y688511D1*
X2391741Y694554D1*
X2393633Y700373D1*
X2396409Y705824D1*
X2398563Y708944D1*
X2381643Y709278D1*
X2375650Y710969D1*
X2370215Y714011D1*
X2365643Y718239D1*
X2362182Y723416D1*
X2360028Y729259D1*
X2359295Y735444D1*
X2359377Y806280D1*
X2360592Y812387D1*
X2363199Y818043D1*
X2367055Y822933D1*
X2371945Y826789D1*
X2377601Y829396D1*
X2383709Y830612D1*
X2437594Y830693D1*
X2437626Y973755D1*
X2569350D1*
Y964722D1*
X2574749Y962621D1*
X2580710Y958638D1*
X2591618Y947864D1*
X2582474Y957005D1*
X2150752Y2192011D2*
X2208252D1*
X2150752Y2167142D2*
X2208252D1*
X2019503Y2142273D2*
X2208252D1*
X2019503Y2117404D2*
X2364503D1*
X2019503Y2092535D2*
X2364503D1*
X2091719Y2067667D2*
X2364503D1*
X2091719Y2042798D2*
X2126953D1*
X2257003D2*
X2364503D1*
X2257003Y2017929D2*
X2364503D1*
X2257003Y1993060D2*
X2364503D1*
X2257003Y1968192D2*
X2364503D1*
X2257003Y1943323D2*
X2364503D1*
X2257003Y1918454D2*
X2364503D1*
X2257003Y1893585D2*
X2364503D1*
X2257003Y1868717D2*
X2364503D1*
X2257003Y1843848D2*
X2364503D1*
X2257003Y1818979D2*
X2364503D1*
X2257003Y1794110D2*
X2364503D1*
X2257003Y1769241D2*
X2364503D1*
X2257003Y1744373D2*
X2364503D1*
X2257003Y1719504D2*
X2364503D1*
X2257003Y1694635D2*
X2364503D1*
X2257003Y1669766D2*
X2364503D1*
X2215421Y2125888D2*
X2213759D1*
X2213723Y2127512D1*
X2211680Y2130846D1*
X2210766Y2134650D1*
X2210730Y2216831D1*
X2148571Y2216879D1*
X2148228Y2173130D1*
X2147617Y2169268D1*
X2145841Y2165783D1*
X2143076Y2163017D1*
X2139592Y2161241D1*
X2135728Y2160630D1*
X2016979D1*
X2016978Y2074449D1*
X2089226Y2074496D1*
Y2041928D1*
X2129429Y2041881D1*
X2129823Y2051049D1*
X2131320Y2054661D1*
X2133860Y2057635D1*
X2137194Y2059678D1*
X2140997Y2060592D1*
X2243933Y2060476D1*
X2247652Y2059268D1*
X2250816Y2056969D1*
X2253115Y2053804D1*
X2254324Y2050085D1*
X2254478Y2010630D1*
Y1654331D1*
X2366979Y1654381D1*
Y2123081D1*
X2221273Y2123283D1*
X2217554Y2124492D1*
X2215878Y2125520D1*
X1775753Y1798261D2*
X1889454D1*
X1775753Y1773392D2*
X1889454D1*
X1775753Y1748524D2*
X1908203D1*
X1775753Y1723655D2*
X1908203D1*
X1775753Y1698786D2*
X1908203D1*
X1775753Y1673917D2*
X1908203D1*
X1775753Y1649049D2*
X1908203D1*
X1910692Y1764522D2*
X1896373D1*
X1896360Y1769875D1*
X1893820Y1772849D1*
X1892323Y1776462D1*
X1891978Y1779381D1*
Y1823081D1*
X1773277Y1823130D1*
X1773228Y1635678D1*
X1910680Y1635630D1*
X1910728Y1764487D1*
X1896360Y1769875D1*
X1893820Y1772849D1*
X1892323Y1776462D1*
X1891978Y1779385D1*
X2169797Y1929511D2*
X2214454D1*
X2169797Y1904642D2*
X2214454D1*
X2167278Y1954331D2*
X2167277Y1904373D1*
X2216930Y1904379D1*
X2216979Y1954331D1*
X2167320Y1954379D1*
X1794504Y2517012D2*
X1945705D1*
X1794504Y2492143D2*
X1945705D1*
X1794504Y2467274D2*
X1945705D1*
X1851046Y2342930D2*
X1977004D1*
X1851046Y2318062D2*
X1995705D1*
X1853928Y2293193D2*
X1995705D1*
X1916329Y2268324D2*
X1995705D1*
X1970920Y2243455D2*
X2020705D1*
X1970920Y2218587D2*
X2020705D1*
X1791950Y2465395D2*
X1877993D1*
Y2441517D1*
X1884504Y2449354D1*
X1891038Y2454936D1*
X1898366Y2459425D1*
X1906306Y2462714D1*
X1914661Y2464720D1*
X1923228Y2465395D1*
X1931795Y2464720D1*
X1940151Y2462714D1*
X1948223Y2459352D1*
X1948228Y2541832D1*
X1792028Y2541881D1*
X1791979Y2465367D1*
X1877993Y2379799D2*
Y2355865D1*
X1848550D1*
X1848529Y2296129D1*
X1858693Y2285946D1*
X1889686Y2285618D1*
X1895411Y2284004D1*
X1900600Y2281098D1*
X1903618Y2278520D1*
X1915253Y2266885D1*
X1956433Y2266726D1*
X1960152Y2265517D1*
X1961828Y2264490D1*
X1968398Y2264117D1*
Y2198150D1*
X2023277Y2198130D1*
X2023228Y2248081D1*
X2007810Y2248475D1*
X2004197Y2249972D1*
X2001223Y2252512D1*
X1999180Y2255846D1*
X1998266Y2259650D1*
X1998228Y2324180D1*
X1955812Y2366618D1*
X1948091Y2361835D1*
X1940151Y2358546D1*
X1931795Y2356539D1*
X1923228Y2355865D1*
X1914661Y2356539D1*
X1906306Y2358546D1*
X1898366Y2361835D1*
X1891038Y2366324D1*
X1884504Y2371906D1*
X1878923Y2378440D1*
X1877999Y2379823D1*
X921259Y1355594D2*
X1073972D1*
X921259Y1330726D2*
X1073972D1*
X921259Y1305857D2*
X1073972D1*
X921259Y1280988D2*
X1073972D1*
X921259Y1256119D2*
X1073972D1*
X921259Y1231251D2*
X1073972D1*
X921259Y1206382D2*
X1074608D1*
X921259Y1181513D2*
X1353709D1*
X921259Y1156644D2*
X1353709D1*
X921259Y1131776D2*
X1353709D1*
X921259Y1106907D2*
X1353709D1*
X921259Y1082038D2*
X1353709D1*
X921259Y1057169D2*
X1353709D1*
X1026287Y1032301D2*
X1353709D1*
X1042547Y1007432D2*
X1353709D1*
X1047675Y982563D2*
X1353709D1*
X1044060Y957694D2*
X1353709D1*
X1030144Y932825D2*
X1353709D1*
X921259Y907957D2*
X957127D1*
X986248D2*
X1353709D1*
X921259Y883088D2*
X1353709D1*
X921259Y858219D2*
X1353709D1*
X921259Y833350D2*
X1353709D1*
X921259Y808482D2*
X1353709D1*
X921259Y783613D2*
X1353709D1*
X921259Y758744D2*
X1353709D1*
X921259Y733875D2*
X1273387D1*
X921259Y709007D2*
X1273387D1*
X921259Y684138D2*
X1273387D1*
X1044959Y974697D2*
X1043156Y963304D1*
X1039592Y952336D1*
X1034356Y942059D1*
X1027576Y932728D1*
X1019421Y924573D1*
X1010091Y917794D1*
X999814Y912558D1*
X988845Y908993D1*
X977453Y907190D1*
X965920D1*
X954528Y908993D1*
X943559Y912558D1*
X933282Y917794D1*
X923951Y924573D1*
X918719Y929567D1*
X918734Y668012D1*
X1275911Y667963D1*
X1275867Y744475D1*
X1356190D1*
X1356234Y1188227D1*
X1098140Y1188285D1*
X1092722Y1189362D1*
X1087706Y1191676D1*
X1083367Y1195096D1*
X1079948Y1199434D1*
X1077634Y1204450D1*
X1076556Y1209869D1*
X1076484Y1380512D1*
X918782Y1380463D1*
X918734Y1031391D1*
X923951Y1036353D1*
X933282Y1043133D1*
X943559Y1048369D1*
X954528Y1051933D1*
X965920Y1053736D1*
X977453D1*
X988845Y1051933D1*
X999814Y1048369D1*
X1010091Y1043133D1*
X1019421Y1036353D1*
X1027576Y1028198D1*
X1034356Y1018867D1*
X1039592Y1008591D1*
X1043156Y997622D1*
X1044959Y986230D1*
Y974697D1*
X1083759Y1818096D2*
X1353709D1*
X1083759Y1793227D2*
X1353709D1*
X1083759Y1768358D2*
X1353709D1*
X1083759Y1743490D2*
X1349656D1*
X1084003Y1718621D2*
X1348680D1*
X1087224Y1693752D2*
X1348680D1*
X1087224Y1668883D2*
X1348680D1*
X1087224Y1644014D2*
X1348680D1*
X1087224Y1619146D2*
X1348680D1*
X1087224Y1594277D2*
X1348680D1*
X1087224Y1569408D2*
X1348680D1*
X1087224Y1544539D2*
X1348680D1*
X1087224Y1519671D2*
X1348680D1*
X1087224Y1494802D2*
X1348680D1*
X1087224Y1469933D2*
X1348680D1*
X1085272Y1445064D2*
X1348680D1*
X1115008Y1420196D2*
X1348680D1*
X1115008Y1395327D2*
X1348680D1*
X1115008Y1370458D2*
X1348680D1*
X1115008Y1345589D2*
X1348680D1*
X1115008Y1320720D2*
X1348680D1*
X1115008Y1295852D2*
X1348680D1*
X1115008Y1270983D2*
X1348680D1*
X1115008Y1246114D2*
X1348680D1*
X1353295Y1749409D2*
X1355160Y1756917D1*
X1356239Y1760094D1*
X1356234Y1843012D1*
X1081282Y1842965D1*
X1081234Y1719185D1*
X1083339Y1714270D1*
X1084646Y1707699D1*
X1084734Y1455463D1*
X1083946Y1448810D1*
X1081623Y1442517D1*
X1081234Y1430416D1*
X1101940Y1430310D1*
X1105659Y1429101D1*
X1108823Y1426802D1*
X1111122Y1423638D1*
X1112331Y1419919D1*
X1112484Y1380463D1*
Y1224213D1*
X1351497D1*
X1351201Y1242815D1*
Y1730328D1*
X1351923Y1741837D1*
X1353295Y1749409D1*
X433759Y1355594D2*
X485692D1*
X790106D2*
X866209D1*
X433759Y1330726D2*
X485692D1*
X790252D2*
X866209D1*
X433759Y1305857D2*
X500291D1*
X758807D2*
X866209D1*
X433759Y1280988D2*
X500193D1*
X557781D2*
X866209D1*
X433759Y1256119D2*
X485496D1*
X572479D2*
X866209D1*
X433759Y1231251D2*
X485496D1*
X572479D2*
X866209D1*
X433759Y1206382D2*
X485496D1*
X572479D2*
X866209D1*
X433759Y1181513D2*
X485496D1*
X572479D2*
X866209D1*
X433759Y1156644D2*
X485496D1*
X572479D2*
X866209D1*
X433759Y1131776D2*
X485496D1*
X572479D2*
X866209D1*
X433759Y1106907D2*
X866209D1*
X433759Y1082038D2*
X866209D1*
X433759Y1057169D2*
X866209D1*
X433759Y1032301D2*
X764304D1*
X433759Y1007432D2*
X747264D1*
X511883Y982563D2*
X741991D1*
X511883Y957694D2*
X745701D1*
X511883Y932825D2*
X760252D1*
X511883Y907957D2*
X866209D1*
X511883Y883088D2*
X866209D1*
X511883Y858219D2*
X866209D1*
X511883Y833350D2*
X866209D1*
X511883Y808482D2*
X866209D1*
X511883Y783613D2*
X866209D1*
X511883Y758744D2*
X866209D1*
X511883Y733875D2*
X866209D1*
X511883Y709007D2*
X866209D1*
X511883Y684138D2*
X866209D1*
X868736Y932793D2*
X862087Y926247D1*
X853035Y919671D1*
X843066Y914591D1*
X832425Y911134D1*
X821375Y909383D1*
X810186D1*
X799136Y911134D1*
X788496Y914591D1*
X778526Y919671D1*
X769475Y926247D1*
X761564Y934157D1*
X754988Y943209D1*
X749908Y953178D1*
X746451Y963819D1*
X744701Y974869D1*
Y986058D1*
X746451Y997108D1*
X749908Y1007748D1*
X754988Y1017718D1*
X761564Y1026769D1*
X769475Y1034680D1*
X778526Y1041256D1*
X788496Y1046336D1*
X799136Y1049793D1*
X810186Y1051543D1*
X821375D1*
X832425Y1049793D1*
X843066Y1046336D1*
X853035Y1041256D1*
X862087Y1034680D1*
X868736Y1028134D1*
X868734Y1380415D1*
X749251Y1380463D1*
X749286Y1376084D1*
X756234Y1376764D1*
X764125Y1375829D1*
X771579Y1373079D1*
X778185Y1368665D1*
X783579Y1362831D1*
X787461Y1355898D1*
X789618Y1348251D1*
X789929Y1340311D1*
X788379Y1332518D1*
X785052Y1325303D1*
X780134Y1319063D1*
X773894Y1314144D1*
X766678Y1310818D1*
X759843Y1309381D1*
X746693Y1296686D1*
X741298Y1293665D1*
X735348Y1291987D1*
X731234Y1291663D1*
X555306D1*
X555270Y1271803D1*
X569955Y1271791D1*
Y1120923D1*
X487984D1*
Y1271791D1*
X502682D1*
X502993Y1307314D1*
X504672Y1313264D1*
X506550Y1316948D1*
X499286Y1317773D1*
X488181D1*
Y1380420D1*
X431282Y1380463D1*
X431234Y999458D1*
X509394Y999440D1*
Y667945D1*
X868685Y667963D1*
X868734Y932759D1*
X433759Y1818096D2*
X1028709D1*
X433759Y1793227D2*
X947459D1*
X1015008D2*
X1028697D1*
X433759Y1768358D2*
X947167D1*
X1015301D2*
X1028698D1*
X433759Y1743490D2*
X887938D1*
X433759Y1718621D2*
X887938D1*
X433759Y1693752D2*
X887938D1*
X433759Y1668883D2*
X1027440D1*
X433759Y1644014D2*
X1027440D1*
X433759Y1619146D2*
X1027440D1*
X433759Y1594277D2*
X1027440D1*
X433759Y1569408D2*
X1027440D1*
X433759Y1544539D2*
X1027440D1*
X433759Y1519671D2*
X1027440D1*
X433759Y1494802D2*
X1027440D1*
X433759Y1469933D2*
X1027440D1*
X433759Y1445064D2*
X887938D1*
X902945Y1467462D2*
X1029948D1*
X1029933Y1685492D1*
X890445Y1685490D1*
Y1767461D1*
X950007Y1767530D1*
X947849Y1775177D1*
X947538Y1783117D1*
X949088Y1790909D1*
X952415Y1798125D1*
X957333Y1804365D1*
X963573Y1809283D1*
X970789Y1812610D1*
X978581Y1814160D1*
X986521Y1813849D1*
X994168Y1811692D1*
X1001101Y1807810D1*
X1006936Y1802416D1*
X1011349Y1795810D1*
X1014100Y1788356D1*
X1015034Y1780465D1*
X1014100Y1772573D1*
X1012430Y1767465D1*
X1031217Y1767461D1*
X1031234Y1843012D1*
X431282Y1842965D1*
X431234Y1430416D1*
X890462Y1430463D1*
X890445Y1467462D1*
X902945D1*
X433759Y2268094D2*
X1280223D1*
X433759Y2243226D2*
X1280223D1*
X433759Y2218357D2*
X1280223D1*
X433759Y2193488D2*
X1280223D1*
X433759Y2168619D2*
X1280223D1*
X433759Y2143751D2*
X1280223D1*
X433759Y2118882D2*
X1280223D1*
X433759Y2094013D2*
X1280223D1*
X433759Y2069144D2*
X1280223D1*
X433759Y2044276D2*
X895701D1*
X1047675D2*
X1280223D1*
X433759Y2019407D2*
X895701D1*
X1047675D2*
X1280223D1*
X433759Y1994538D2*
X895701D1*
X1047675D2*
X1280223D1*
X433759Y1969669D2*
X895701D1*
X1047675D2*
X1280223D1*
X433759Y1944801D2*
X895701D1*
X1047675D2*
X1280223D1*
X433759Y1919932D2*
X895701D1*
X1047675D2*
X1280223D1*
X433759Y1895063D2*
X1280223D1*
X910686Y2053963D2*
X1045186D1*
Y1906963D1*
X898186D1*
Y2053963D1*
X910686D1*
X1282734Y1892951D2*
Y2292951D1*
X431282Y2292963D1*
X431234Y1893012D1*
X1282747Y1892965D1*
X2879634Y3137596D2*
X3088647D1*
X2879634Y3112727D2*
X3088647D1*
X2879634Y3087858D2*
X3088647D1*
X2879634Y3062990D2*
X3253150D1*
X2879047Y3038121D2*
X3253150D1*
X2874165Y3013252D2*
X3253150D1*
X2874165Y2988383D2*
X3253150D1*
X2874165Y2963514D2*
X3253150D1*
X2874165Y2938646D2*
X3253150D1*
X2874165Y2913777D2*
X3100318D1*
X3246420Y3097415D2*
Y3084043D1*
X3091152D1*
Y3156260D1*
X3059646Y3155925D1*
X2877175D1*
X2877055Y3045646D1*
X2876424Y3036903D1*
X2873843Y3023936D1*
X2871640Y3017266D1*
Y2912513D1*
X3100108Y2912465D1*
X3104940Y2914570D1*
X3111510Y2915877D1*
X3247291Y2915965D1*
X3255664Y2924294D1*
X3255640Y3088197D1*
X3246413Y3097386D1*
X3424165Y3137596D2*
X3794115D1*
X3424165Y3112727D2*
X3794115D1*
X3424165Y3087858D2*
X3794115D1*
X3424165Y3062990D2*
X3794115D1*
X3424165Y3038121D2*
X3794115D1*
X3424165Y3013252D2*
X3794115D1*
X3424165Y2988383D2*
X3794115D1*
X3424165Y2963514D2*
X3794115D1*
X3424165Y2938646D2*
X3794115D1*
X3424165Y2913777D2*
X3794115D1*
X3796592Y3162465D2*
X3421689D1*
X3421640Y2912513D1*
X3796592Y2912465D1*
X3796640Y3162416D1*
X1774165Y3137596D2*
X1988647D1*
X1774165Y3112727D2*
X1988647D1*
X1774165Y3087858D2*
X1988647D1*
X1774165Y3062990D2*
X2153150D1*
X1774165Y3038121D2*
X2153150D1*
X1774165Y3013252D2*
X2153150D1*
X1774165Y2988383D2*
X2153150D1*
X1774165Y2963514D2*
X2153150D1*
X1774165Y2938646D2*
X2153150D1*
X1774165Y2913777D2*
X2000318D1*
X2146420Y3097415D2*
Y3084043D1*
X1991152D1*
Y3162463D1*
X1771689Y3162465D1*
X1771640Y2912513D1*
X2000108Y2912465D1*
X2004940Y2914570D1*
X2011510Y2915877D1*
X2147291Y2915965D1*
X2155664Y2924294D1*
X2155640Y3088197D1*
X2146413Y3097386D1*
X2324165Y3137596D2*
X2689623D1*
X2324165Y3112727D2*
X2689623D1*
X2324165Y3087858D2*
X2689623D1*
X2324165Y3062990D2*
X2689623D1*
X2324165Y3038121D2*
X2690259D1*
X2324165Y3013252D2*
X2694115D1*
X2324165Y2988383D2*
X2694115D1*
X2324165Y2963514D2*
X2694115D1*
X2324165Y2938646D2*
X2694115D1*
X2324165Y2913777D2*
X2694115D1*
X2692379Y3043470D2*
X2692146Y3073425D1*
Y3155896D1*
X2481866Y3156016D1*
X2473125Y3156647D1*
X2460156Y3159228D1*
X2451839Y3161991D1*
X2446640Y3162465D1*
X2321689D1*
X2321640Y2912513D1*
X2696592Y2912465D1*
X2696640Y3020228D1*
X2694665Y3027193D1*
X2693013Y3035801D1*
X2692379Y3043470D1*
X2874165Y3737596D2*
X3088647D1*
X2874165Y3712727D2*
X3088647D1*
X2874165Y3687858D2*
X3088647D1*
X2874165Y3662990D2*
X3253150D1*
X2874165Y3638121D2*
X3253150D1*
X2874165Y3613252D2*
X3253150D1*
X2874165Y3588383D2*
X3253150D1*
X2874165Y3563514D2*
X3253150D1*
X2874165Y3538646D2*
X3253150D1*
X2874165Y3513777D2*
X3100318D1*
X3246420Y3697415D2*
Y3684043D1*
X3091152D1*
Y3762463D1*
X2871689Y3762465D1*
X2871640Y3512513D1*
X3100108Y3512465D1*
X3104940Y3514570D1*
X3111510Y3515877D1*
X3247291Y3515965D1*
X3255664Y3524294D1*
X3255640Y3688197D1*
X3246413Y3697386D1*
X3424165Y3737596D2*
X3794115D1*
X3424165Y3712727D2*
X3794115D1*
X3424165Y3687858D2*
X3794115D1*
X3424165Y3662990D2*
X3794115D1*
X3424165Y3638121D2*
X3794115D1*
X3424165Y3613252D2*
X3794115D1*
X3424165Y3588383D2*
X3794115D1*
X3424165Y3563514D2*
X3794115D1*
X3424165Y3538646D2*
X3794115D1*
X3424165Y3513777D2*
X3794115D1*
X3796592Y3762465D2*
X3421689D1*
X3421640Y3512513D1*
X3796592Y3512465D1*
X3796640Y3762416D1*
X1774165Y3737596D2*
X1988647D1*
X1774165Y3712727D2*
X1988647D1*
X1774165Y3687858D2*
X1988647D1*
X1774165Y3662990D2*
X2153150D1*
X1774165Y3638121D2*
X2153150D1*
X1774165Y3613252D2*
X2153150D1*
X1774165Y3588383D2*
X2153150D1*
X1774165Y3563514D2*
X2153150D1*
X1774165Y3538646D2*
X2153150D1*
X1774165Y3513777D2*
X2000318D1*
X2146420Y3697415D2*
Y3684043D1*
X1991152D1*
Y3762463D1*
X1771689Y3762465D1*
X1771640Y3512513D1*
X2000108Y3512465D1*
X2004940Y3514570D1*
X2011510Y3515877D1*
X2147291Y3515965D1*
X2155664Y3524294D1*
X2155640Y3688197D1*
X2146413Y3697386D1*
X2324165Y3737596D2*
X2694115D1*
X2324165Y3712727D2*
X2694115D1*
X2324165Y3687858D2*
X2694115D1*
X2324165Y3662990D2*
X2694115D1*
X2324165Y3638121D2*
X2694115D1*
X2324165Y3613252D2*
X2694115D1*
X2324165Y3588383D2*
X2694115D1*
X2324165Y3563514D2*
X2694115D1*
X2324165Y3538646D2*
X2694115D1*
X2324165Y3513777D2*
X2694115D1*
X2696592Y3762465D2*
X2321689D1*
X2321640Y3512513D1*
X2696592Y3512465D1*
X2696640Y3762416D1*
X1009135Y2655094D2*
X1110335D1*
X1009135Y2630224D2*
X1110335D1*
X1009135Y2605357D2*
X1110335D1*
X1009135Y2580487D2*
X1110335D1*
X902858Y2555619D2*
X1087094D1*
X902858Y2530751D2*
X1062238D1*
X902858Y2505882D2*
X1037336D1*
X1003598Y2578083D2*
Y2576476D1*
X1001458Y2576101D1*
X997972Y2574325D1*
X994110Y2573711D1*
X900311D1*
X900358Y2498711D1*
X1032634D1*
X1112888Y2578917D1*
X1112861Y2680011D1*
X1006660Y2679963D1*
X1006458Y2584257D1*
X1005247Y2580538D1*
X1003613Y2578091D1*
X999783Y2575076D1*
X996064Y2573867D1*
X994106Y2573713D1*
X1004222Y2578866D1*
X1003615Y2578093D1*
X584134Y2805094D2*
X704084D1*
X584134Y2780224D2*
X704084D1*
X584134Y2755357D2*
X704084D1*
X584134Y2730488D2*
X704084D1*
X584134Y2705618D2*
X704084D1*
X584134Y2680751D2*
X704084D1*
X678079Y2655882D2*
X704084D1*
X684135Y2631012D2*
X704062D1*
X633765Y2659861D2*
X675581D1*
X675640Y2653122D1*
X678615Y2650581D1*
X680657Y2647247D1*
X681573Y2643445D1*
X681613Y2629963D1*
X706564D1*
X706609Y2824762D1*
X701433Y2829962D1*
X581659Y2829963D1*
X581612Y2662140D1*
X587799Y2666908D1*
X592833Y2669472D1*
X598203Y2671218D1*
X603785Y2672101D1*
X609434D1*
X615013Y2671218D1*
X620386Y2669472D1*
X625420Y2666908D1*
X629990Y2663585D1*
X633738Y2659861D1*
D23*
X3573228Y1198130D3*
D24*
Y848130D3*
Y1548130D3*
D25*
X1962949Y1748126D3*
X1896020D3*
X2189783Y2166874D3*
X2256713D3*
D26*
X2691978Y1835630D3*
Y1768701D3*
X3623228Y610630D3*
Y677559D3*
Y523130D3*
Y456201D3*
D25*
X1962942Y1966825D3*
X1896013D3*
D26*
X3179621Y2260605D3*
Y2193676D3*
D25*
X3506693Y710630D3*
X3439764D3*
X2639764Y960630D3*
X2706693D3*
Y848130D3*
X2639764D3*
Y1016879D3*
X2706693D3*
D28*
X2121063Y1385630D3*
X2475394D3*
D29*
X1966885Y1660525D3*
X1892081D3*
D30*
X2304479Y1998131D3*
X2194243D3*
D26*
X2491979Y2048130D3*
Y1981201D3*
D25*
X1962945Y1188287D3*
X1896016D3*
X2523228Y2141881D3*
X2456299D3*
D26*
X3196640Y2845929D3*
Y2779000D3*
X2096640Y2845929D3*
Y2779000D3*
X3196640Y3445929D3*
Y3379000D3*
X2096640Y3445929D3*
Y3379000D3*
D25*
X860644Y3492459D3*
X927573D3*
X710647Y3592465D3*
X777576D3*
X785646Y3111213D3*
X852575D3*
X721324D3*
X654395D3*
X635646Y2942463D3*
X702575D3*
X840075D3*
X773146D3*
X704394Y2992463D3*
X771323D3*
X960646Y2692462D3*
X1027575D3*
X1721014Y2160631D3*
X1787944D3*
X1721014Y2223131D3*
X1787944D3*
D32*
X2629921Y904381D3*
X2716535D3*
Y785630D3*
X2629921D3*
D26*
X3179621Y1841811D3*
Y1908740D3*
D25*
X1721014Y2098131D3*
X1787944D3*
D26*
X2934140Y2845929D3*
Y2779000D3*
X3384140Y2845929D3*
Y2779000D3*
X1834140Y2845929D3*
Y2779000D3*
X2284140Y2845929D3*
Y2779000D3*
X2934140Y3445929D3*
Y3379000D3*
X3384140Y3445929D3*
Y3379000D3*
X1834140Y3445929D3*
Y3379000D3*
X2284140Y3445929D3*
Y3379000D3*
D33*
X525180Y1753938D3*
X525230Y2144490D3*
X762238D3*
X762287Y1753938D3*
D34*
X1127592Y980463D3*
D35*
X971686D3*
X815781D3*
X659875D3*
D36*
X1735728Y1343749D3*
D37*
Y1422490D3*
D36*
Y1265009D3*
Y1186269D3*
Y848130D3*
D37*
Y769390D3*
D36*
Y926870D3*
D34*
X971686Y1980463D3*
D35*
X1127592D3*
D38*
X3566916Y2793714D3*
X3620066D3*
X3673215D3*
X3726365D3*
X2466916D3*
X2520066D3*
X2573215D3*
X2626365D3*
X3566916Y3393714D3*
X3620066D3*
X3673215D3*
X3726365D3*
X2466916D3*
X2520066D3*
X2573215D3*
X2626365D3*
D39*
X619102Y3754963D3*
D40*
Y3654963D3*
Y3554963D3*
Y3454963D3*
Y3354963D3*
Y3254963D3*
D41*
X1206609Y3442463D3*
Y2842463D3*
D39*
X1823228Y2410630D3*
D40*
X1923228D3*
X2023228D3*
X2123228D3*
X2223228D3*
X2323228D3*
X2423228D3*
X2523228D3*
X2623228D3*
X2723228D3*
X2823228D3*
X2923228D3*
X3023228D3*
X3123228D3*
X3223228D3*
X3323228D3*
X3423228D3*
X3523228D3*
X3623228D3*
X3723228D3*
D39*
X1823228Y2510630D3*
D40*
X1923228D3*
X2023228D3*
X2123228D3*
X2223228D3*
X2323228D3*
X2423228D3*
X2523228D3*
X2623228D3*
X2723228D3*
X2823228D3*
X2923228D3*
X3023228D3*
X3123228D3*
X3223228D3*
X3323228D3*
X3423228D3*
X3523228D3*
X3623228D3*
X3723228D3*
D42*
X2992109Y2091833D3*
X3029609D3*
D43*
X2079478Y1773130D3*
X2301919D3*
D46*
X965879Y1426476D3*
Y1246949D3*
D47*
X1229659Y1336713D3*
D49*
X2098143Y2230874D3*
X2023340D3*
X2060741Y2140323D3*
D46*
X965879Y1726475D3*
Y1546948D3*
D47*
X1229659Y1636711D3*
D51*
X528970Y1196357D3*
X708497D3*
D52*
X618734Y1460136D3*
D46*
X3168786Y3127228D3*
Y2947701D3*
D47*
X3432566Y3037465D3*
D46*
X2068786Y3127228D3*
Y2947701D3*
D47*
X2332566Y3037465D3*
D46*
X3168786Y3727228D3*
Y3547701D3*
D47*
X3432566Y3637465D3*
D46*
X2068786Y3727228D3*
Y3547701D3*
D47*
X2332566Y3637465D3*
D55*
X719600Y2623959D3*
X694403D3*
X668812D3*
X643222D3*
D174*
X681608Y2544038D3*
D56*
X894354Y2529471D3*
Y2554668D3*
Y2580259D3*
Y2605849D3*
D177*
X814433Y2567463D3*
D26*
X2048240Y1964614D3*
Y2031543D3*
X2110747D3*
Y1964614D3*
X1766978Y1990059D3*
Y1923130D3*
X1823227D3*
Y1990059D3*
X3179621Y1979325D3*
Y2046255D3*
D25*
X1925444Y2098131D3*
X1858514D3*
D29*
X1966882Y1382037D3*
X1892079D3*
D26*
X2342009Y2220891D3*
Y2287820D3*
D25*
X2112927Y2291831D3*
X2045997D3*
X3050425Y2191885D3*
X2983496D3*
X3050575Y2304354D3*
X2983646D3*
X3050575Y2248098D3*
X2983646D3*
D26*
X1973230Y1248573D3*
Y1315503D3*
X1885730Y1248573D3*
Y1315503D3*
X2598228Y687844D3*
Y620915D3*
D25*
X1925444Y2160631D3*
X1858514D3*
X1925444Y2223131D3*
X1858514D3*
D26*
X3059140Y2845929D3*
Y2779000D3*
X3134140Y2845929D3*
Y2779000D3*
X3259140D3*
Y2845929D3*
X2996640D3*
Y2779000D3*
X3321640D3*
Y2845929D3*
X1959140D3*
Y2779000D3*
X2034140Y2845929D3*
Y2779000D3*
X2159140D3*
Y2845929D3*
X1896640D3*
Y2779000D3*
X2221640D3*
Y2845929D3*
X3059140Y3445929D3*
Y3379000D3*
X3134140Y3445929D3*
Y3379000D3*
X3259140D3*
Y3445929D3*
X2996640D3*
Y3379000D3*
X3321640D3*
Y3445929D3*
X1959140D3*
Y3379000D3*
X2034140Y3445929D3*
Y3379000D3*
X2159140D3*
Y3445929D3*
X1896640D3*
Y3379000D3*
X2221640D3*
Y3445929D3*
D25*
X927573Y3592462D3*
X860644D3*
X777576Y3542463D3*
X710647D3*
Y3492463D3*
X777576D3*
X927573Y3542461D3*
X860644D3*
D29*
X700457Y2823713D3*
X775260D3*
D25*
X702575Y2886211D3*
X635646D3*
X773146D3*
X840075D3*
X685644Y2692462D3*
X752573D3*
X1027575Y2617463D3*
X960646D3*
Y2748713D3*
X1027575D3*
X685644D3*
X752573D3*
D57*
X1591978Y1706890D3*
Y1785630D3*
Y1864370D3*
D58*
Y1628150D3*
Y1943110D3*
D60*
X1892083Y1807476D3*
X1929484D3*
X1966886D3*
Y1913776D3*
X1929484D3*
X1892083D3*
D61*
X2773228Y1885630D3*
Y1835630D3*
Y1785630D3*
Y1735630D3*
X2985827D3*
Y1785630D3*
Y1835630D3*
Y1885630D3*
D63*
X2276409Y2216953D3*
Y2254354D3*
Y2291756D3*
X2170110D3*
Y2254354D3*
Y2216953D3*
D64*
X2904478Y2291929D3*
X2854478D3*
X2804478D3*
X2754478D3*
Y2079331D3*
X2804478D3*
X2854478D3*
X2904478D3*
D66*
X3433858Y499606D3*
X3449606D3*
X3465354D3*
X3481102D3*
X3496850D3*
D67*
X3534252Y521260D3*
Y537008D3*
Y552756D3*
Y568504D3*
Y584252D3*
D66*
X3496850Y621654D3*
X3481102D3*
X3465354D3*
X3449606D3*
X3433858D3*
D67*
X3412205Y584252D3*
Y568504D3*
Y552756D3*
Y537008D3*
Y521260D3*
X3534252Y600000D3*
X3412205D3*
D66*
X3512598Y499606D3*
Y621654D3*
D70*
X3279631Y2266854D3*
Y2207799D3*
Y2148744D3*
Y2089689D3*
Y2030634D3*
Y1971579D3*
Y1912524D3*
Y1853469D3*
Y1794413D3*
Y1735358D3*
X3909552D3*
Y2030634D3*
Y2266854D3*
D61*
X1968055Y1035451D3*
Y985451D3*
Y935451D3*
Y885451D3*
Y835451D3*
Y785451D3*
Y735451D3*
Y685451D3*
Y635451D3*
Y585451D3*
X2503488D3*
Y635451D3*
Y685451D3*
Y735451D3*
Y785451D3*
Y835451D3*
Y885451D3*
Y935451D3*
Y985451D3*
Y1035451D3*
D180*
X2235772Y810451D3*
D71*
X2553592Y1821457D3*
X2579182D3*
X2604773D3*
X2630364D3*
Y2049803D3*
X2604773D3*
X2579182D3*
X2553592D3*
D73*
X2447343Y2190698D3*
X2472933D3*
X2498524D3*
X2524114D3*
Y2293060D3*
X2498524D3*
X2472933D3*
X2447343D3*
D76*
X817239Y3208457D3*
X832987D3*
X848735D3*
X864483D3*
X880231D3*
X895979D3*
Y3363969D3*
X880231D3*
X864483D3*
X848735D3*
X832987D3*
X817239D3*
D183*
X856609Y3286213D3*
D186*
X835940Y2718398D3*
D78*
X833971Y2698713D3*
Y2679028D3*
X879247D3*
Y2698713D3*
Y2718398D3*
X442476Y670831D2*
D14*
X472620D1*
Y688042D1*
X452524Y711205D2*
X453950Y708353D1*
X456835Y705468D1*
X461146Y704042D1*
X463998D1*
X468309Y705468D1*
X471161Y708353D1*
X472620Y711205D1*
Y715516D1*
X471161Y718401D1*
X468309Y721253D1*
X463998Y722712D1*
X461146D1*
X456835Y721253D1*
X453950Y718401D1*
X452524Y715516D1*
Y711205D1*
Y755923D2*
X472620D1*
X456835D2*
X453950Y753071D1*
X452524Y750186D1*
Y745908D1*
X453950Y743023D1*
X456835Y740171D1*
X461146Y738712D1*
X463998D1*
X468309Y740171D1*
X471161Y743023D1*
X472620Y745908D1*
Y750186D1*
X471161Y753071D1*
X468309Y755923D1*
X442476Y789134D2*
X472620D1*
X456835D2*
X453950Y786282D1*
X452524Y783397D1*
Y779086D1*
X453950Y776234D1*
X456835Y773349D1*
X461146Y771923D1*
X463998D1*
X468309Y773349D1*
X471161Y776234D1*
X472620Y779086D1*
Y783397D1*
X471161Y786282D1*
X468309Y789134D1*
X456835Y820919D2*
X453950Y819493D1*
X452524Y815182D1*
Y810871D1*
X453950Y806560D1*
X456835Y805134D1*
X459687Y806560D1*
X461146Y809445D1*
X462572Y816608D1*
X463998Y819493D1*
X466883Y820919D1*
X468309D1*
X471161Y819493D1*
X472620Y815182D1*
Y810871D1*
X471161Y806560D1*
X468309Y805134D1*
X442476Y836919D2*
X472620D1*
X458261D2*
X453950Y841230D1*
X452524Y844115D1*
Y848426D1*
X453950Y851278D1*
X458261Y852704D1*
X472620D1*
X452524Y885914D2*
X472620D1*
X456835D2*
X453950Y883063D1*
X452524Y880177D1*
Y875900D1*
X453950Y873015D1*
X456835Y870163D1*
X461146Y868704D1*
X463998D1*
X468309Y870163D1*
X471161Y873015D1*
X472620Y875900D1*
Y880177D1*
X471161Y883063D1*
X468309Y885914D1*
X452524Y901914D2*
X472620D1*
X461146D2*
X456835Y903374D1*
X453950Y906225D1*
X452524Y909111D1*
Y913422D1*
X461146Y929422D2*
Y946632D1*
X458261D1*
X455376Y945207D1*
X453950Y943781D1*
X452524Y940896D1*
Y936584D1*
X453950Y933733D1*
X456835Y930848D1*
X461146Y929422D1*
X463998D1*
X468309Y930848D1*
X471161Y933733D1*
X472620Y936584D1*
Y940896D1*
X471161Y943781D1*
X468309Y946632D1*
X452524Y962632D2*
X472620D1*
X461146D2*
X456835Y964092D1*
X453950Y966944D1*
X452524Y969829D1*
Y974140D1*
X1311227Y670831D2*
X1341371Y682305D1*
X1311227Y693779D1*
X1316997Y709779D2*
X1315538Y712664D1*
X1311260Y716975D1*
X1341371D1*
X1318093Y1915602D2*
Y1896965D1*
X1348237D1*
Y1915601D1*
X1332452Y1896965D2*
Y1908439D1*
X1345352Y1933027D2*
X1346811Y1931601D1*
X1348237Y1933027D1*
X1346811Y1934487D1*
X1345352Y1933027D1*
X1318093Y1950487D2*
X1348237D1*
X1318093Y1970583D2*
X1338189Y1950487D1*
X1330993Y1957649D2*
X1348237Y1970583D1*
X1318093Y2166068D2*
X1348237D1*
Y2179001D1*
X1346778Y2183312D1*
X1345352Y2184738D1*
X1342500Y2186164D1*
X1338189D1*
X1335304Y2184738D1*
X1333878Y2183312D1*
X1332452Y2179001D1*
X1330993Y2183312D1*
X1329567Y2184738D1*
X1326715Y2186164D1*
X1323830D1*
X1320978Y2184738D1*
X1319519Y2183312D1*
X1318093Y2179001D1*
Y2166068D1*
X1332452D2*
Y2179001D1*
X1345352Y2203590D2*
X1346811Y2202164D1*
X1348237Y2203590D1*
X1346811Y2205049D1*
X1345352Y2203590D1*
X1325256Y2242571D2*
X1322404Y2241145D1*
X1319519Y2238260D1*
X1318093Y2235408D1*
Y2229671D1*
X1319519Y2226786D1*
X1322404Y2223934D1*
X1325256Y2222475D1*
X1329567Y2221049D1*
X1336763D1*
X1341041Y2222475D1*
X1343926Y2223934D1*
X1346778Y2226786D1*
X1348237Y2229671D1*
Y2235408D1*
X1346778Y2238260D1*
X1343926Y2241145D1*
X1341041Y2242571D1*
X1345352Y2259997D2*
X1346811Y2258571D1*
X1348237Y2259997D1*
X1346811Y2261456D1*
X1345352Y2259997D1*
X1318093Y2277456D2*
X1348237D1*
Y2294667D1*
M02*
