G04 DipTrace 3.0.0.1*
G04 panel.GBS*
%MOIN*%
G04 #@! TF.FileFunction,Soldermask,Bot*
G04 #@! TF.Part,Single*
%ADD80C,0.108268*%
%ADD81C,0.11811*%
%ADD113C,0.063071*%
%ADD115C,0.055197*%
%ADD131R,0.015827X0.059134*%
%ADD139C,0.070945*%
%ADD141R,0.070945X0.070945*%
%ADD143C,0.043386*%
%ADD145R,0.059134X0.059134*%
%ADD147C,0.059134*%
%ADD149C,0.104016*%
%ADD151R,0.104016X0.104016*%
%ADD163R,0.043386X0.047323*%
%FSLAX26Y26*%
G04*
G70*
G90*
G75*
G01*
G04 BotMask*
%LPD*%
D80*
X3914961Y531496D3*
X1631496Y2460630D3*
Y531496D3*
X3914961Y2460630D3*
D151*
X1127592Y980463D3*
D149*
X971686D3*
X815781D3*
X659875D3*
D147*
X1735728Y1343749D3*
D145*
Y1422490D3*
D147*
Y1265009D3*
Y1186269D3*
Y848130D3*
D145*
Y769390D3*
D147*
Y926870D3*
D151*
X971686Y1980463D3*
D149*
X1127592D3*
D143*
X3566916Y2793714D3*
X3620066D3*
X3673215D3*
X3726365D3*
X2466916D3*
X2520066D3*
X2573215D3*
X2626365D3*
X3566916Y3393714D3*
X3620066D3*
X3673215D3*
X3726365D3*
X2466916D3*
X2520066D3*
X2573215D3*
X2626365D3*
D141*
X619102Y3754963D3*
D139*
Y3654963D3*
Y3554963D3*
Y3454963D3*
Y3354963D3*
Y3254963D3*
D141*
X1823228Y2410630D3*
D139*
X1923228D3*
X2023228D3*
X2123228D3*
X2223228D3*
X2323228D3*
X2423228D3*
X2523228D3*
X2623228D3*
X2723228D3*
X2823228D3*
X2923228D3*
X3023228D3*
X3123228D3*
X3223228D3*
X3323228D3*
X3423228D3*
X3523228D3*
X3623228D3*
X3723228D3*
D141*
X1823228Y2510630D3*
D139*
X1923228D3*
X2023228D3*
X2123228D3*
X2223228D3*
X2323228D3*
X2423228D3*
X2523228D3*
X2623228D3*
X2723228D3*
X2823228D3*
X2923228D3*
X3023228D3*
X3123228D3*
X3223228D3*
X3323228D3*
X3423228D3*
X3523228D3*
X3623228D3*
X3723228D3*
D131*
X933104Y1493849D3*
X913419D3*
X893734D3*
X874049D3*
X854364D3*
Y1667077D3*
X874049D3*
X893734D3*
X913419D3*
X933104D3*
D163*
X956234Y1346999D3*
Y1413928D3*
X893734D3*
Y1346999D3*
X831234D3*
Y1413928D3*
D115*
X1591978Y1706890D3*
Y1785630D3*
Y1864370D3*
D113*
Y1628150D3*
Y1943110D3*
D81*
X3614277Y2034571D3*
G36*
X3596640Y3137465D2*
X3796640D1*
Y2937465D1*
X3596640D1*
Y3137465D1*
G37*
G36*
X2871640D2*
X3071640D1*
Y2937465D1*
X2871640D1*
Y3137465D1*
G37*
G36*
X2496640D2*
X2696640D1*
Y2937465D1*
X2496640D1*
Y3137465D1*
G37*
G36*
X1771640D2*
X1971640D1*
Y2937465D1*
X1771640D1*
Y3137465D1*
G37*
G36*
X3596640Y3737465D2*
X3796640D1*
Y3537465D1*
X3596640D1*
Y3737465D1*
G37*
G36*
X2871640D2*
X3071640D1*
Y3537465D1*
X2871640D1*
Y3737465D1*
G37*
G36*
X2496640D2*
X2696640D1*
Y3537465D1*
X2496640D1*
Y3737465D1*
G37*
G36*
X1771640D2*
X1971640D1*
Y3537465D1*
X1771640D1*
Y3737465D1*
G37*
M02*
