G04 DipTrace 3.0.0.1*
G04 panel.GML*
%MOIN*%
G04 #@! TF.FileFunction,Profile*
G04 #@! TF.Part,Single*
%ADD11C,0.005512*%
%FSLAX26Y26*%
G04*
G70*
G90*
G75*
G01*
G04 BoardOutline*
%LPD*%
X1611811Y2598425D2*
D11*
G03X1493701Y2480315I43J-118153D01*
G01*
Y2080315D1*
G02X1393701Y2080315I-50000J0D01*
G01*
Y2330315D1*
X1143701D1*
G02X1143701Y2430315I0J50000D01*
G01*
X1393701D1*
Y3830315D1*
X543701D1*
Y2430315D1*
X793701D1*
G02X793701Y2330315I0J-50000D01*
G01*
X393701D1*
Y630315D1*
X1393701D1*
Y880315D1*
G02X1493701Y880315I50000J0D01*
G01*
Y511811D1*
G03X1611811Y393701I118108J-2D01*
G01*
X3934646D1*
G03X4052756Y511811I-21J118131D01*
G01*
Y2480315D1*
G03X3934646Y2598425I-118131J-21D01*
G01*
X3584646D1*
G02X3584646Y2698425I0J50000D01*
G01*
X3834646D1*
Y3198425D1*
X3584646D1*
G02X3584646Y3298425I0J50000D01*
G01*
X3834646D1*
Y3798425D1*
X2834646D1*
Y3648425D1*
G02X2734646Y3648425I-50000J0D01*
G01*
Y3798425D1*
X1734646D1*
Y3298425D1*
X1984646D1*
G02X1984646Y3198425I0J-50000D01*
G01*
X1734646D1*
Y2698425D1*
X1984646D1*
G02X1984646Y2598425I0J-50000D01*
G01*
X1611811D1*
X1493701Y1730315D2*
Y1230315D1*
Y1730315D2*
G03X1393701Y1730315I-50000J0D01*
G01*
X1493701Y1230315D2*
G02X1393701Y1230315I-50000J0D01*
G01*
Y1730315D2*
Y1230315D1*
X2734646Y3448425D2*
G02X2834646Y3448425I50000J0D01*
G01*
X2734646Y3048425D2*
G03X2834646Y3048425I50000J0D01*
G01*
X2734646Y2848425D2*
G02X2834646Y2848425I50000J0D01*
G01*
X2484646Y3298425D2*
G03X2484646Y3198425I0J-50000D01*
G01*
X3084646Y3298425D2*
G02X3084646Y3198425I0J-50000D01*
G01*
X2484646Y2698425D2*
G03X2484646Y2598425I0J-50000D01*
G01*
X3084646Y2698425D2*
G02X3084646Y2598425I0J-50000D01*
G01*
X2734646Y3448425D2*
Y3298425D1*
X2484646D1*
Y3198425D2*
X2734646D1*
Y3048425D1*
X2834646D2*
Y3198425D1*
X3084646D1*
Y3298425D2*
X2834646D1*
Y3448425D1*
X2734646Y2848425D2*
Y2698425D1*
X2484646D1*
X2834646Y2848425D2*
Y2698425D1*
X3084646D1*
Y2598425D2*
X2484646D1*
M02*
