M48
INCH
T01C0.0433
T02C0.0709
T03C0.073
T04C0.1004
T05C0.1181
%
T01
X+015189Y+005565
X+014189Y+005565
X+014189Y+004565
X+015189Y+004565
X+013189Y+004565
X+013189Y+005565
X+012189Y+005565
X+012189Y+004565
X+011189Y+004565
X+010189Y+004565
X+009189Y+004565
X+008189Y+004565
X+008189Y+005565
X+009189Y+005565
X+010189Y+005565
X+011189Y+005565
X+011626Y+007254
X+010626Y+007254
X+009626Y+007254
X+008626Y+007254
X+007626Y+007254
X+007189Y+005565
X+006189Y+005565
X+006189Y+004565
X+007189Y+004565
X+012626Y+007254
X+013626Y+007254
X+014626Y+007254
X+014126Y+021254
X+013126Y+021254
X+012126Y+021254
X+012126Y+022254
X+011126Y+022254
X+010126Y+022254
X+009126Y+022254
X+008126Y+022254
X+007126Y+022254
X+007126Y+021254
X+008126Y+021254
X+009126Y+021254
X+010126Y+021254
X+011126Y+021254
X+013126Y+022254
X+014126Y+022254
X+015126Y+022254
X+015126Y+021254
T02
X+019627Y+020442
X+019627Y+018788
X+019627Y+017135
X+019627Y+015481
X+017462Y+015481
X+017462Y+017135
X+017462Y+018788
X+017462Y+020442
X+017940Y+012657
X+017940Y+011003
X+017940Y+009350
X+015774Y+009350
X+015774Y+011003
X+015774Y+012657
X+011604Y+012657
X+011604Y+011003
X+011604Y+009350
X+009439Y+009350
X+009439Y+011003
X+009439Y+012657
T03
X+007751Y+017691
X+007751Y+016038
X+009916Y+016038
X+009916Y+017691
T04
X+004753Y+022628
X+004753Y+004753
X+022628Y+004753
X+022628Y+022629
T05
X+022501Y+015481
X+020814Y+012657
X+020814Y+009350
X+022501Y+020442
X+006565Y+012657
X+006565Y+009350
X+004874Y+016865
T00
M30
