G04 DipTrace 3.0.0.1*
G04 Maxon_Brushless_Driver_v2.0-version2.GTL*
%MOIN*%
G04 #@! TF.FileFunction,Copper,L1,Top*
G04 #@! TF.Part,Single*
G04 #@! TA.AperFunction,Conductor*
%ADD13C,0.008*%
G04 #@! TA.AperFunction,CopperBalancing*
%ADD14C,0.025*%
%ADD15R,0.03937X0.043307*%
G04 #@! TA.AperFunction,ComponentPad*
%ADD17C,0.11811*%
%ADD18R,0.11811X0.11811*%
%ADD19R,0.066929X0.066929*%
%ADD20C,0.066929*%
%FSLAX26Y26*%
G04*
G70*
G90*
G75*
G01*
G04 Top*
%LPD*%
X918923Y456509D2*
D13*
Y468937D1*
X868854Y519005D1*
Y719159D1*
X862588Y725425D1*
X1018923Y456509D2*
X968865Y506567D1*
Y719148D1*
X962588Y725425D1*
X1218923Y456509D2*
Y462718D1*
X1168886Y512755D1*
Y719127D1*
X1162588Y725425D1*
X1118923Y456509D2*
Y468958D1*
X1068875Y519005D1*
Y719138D1*
X1062588Y725425D1*
X1318923Y456509D2*
X1306390D1*
X1268896Y494003D1*
Y719117D1*
X1262588Y725425D1*
X1962720Y2044165D2*
X1968967D1*
X1893793Y1968991D1*
X1675042D1*
X1650042Y1993991D1*
Y2181488D1*
X1537541Y2293990D1*
X981152D1*
X912588Y2225425D1*
X1746185Y2044165D2*
Y2141597D1*
X1575042Y2312740D1*
X799903D1*
X712588Y2225425D1*
X818923Y556509D2*
X812598D1*
Y1450353D1*
X912609Y1550364D1*
Y1794139D1*
X706337Y2000411D1*
Y2119175D1*
X712588Y2125425D1*
X718923Y556509D2*
Y662686D1*
X537570Y844039D1*
Y1356593D1*
X687585Y1506609D1*
X818849D1*
X881356Y1569115D1*
Y1662875D1*
X775094Y1769136D1*
X718923Y456509D2*
X712577D1*
X668833Y500253D1*
Y656520D1*
X509730Y815623D1*
Y1403761D1*
X709751Y1603782D1*
X775094D1*
X818923Y456509D2*
X812588D1*
X768844Y500253D1*
Y719169D1*
X762588Y725425D1*
X1362588D2*
Y737710D1*
X1412661Y787783D1*
X1606432D1*
X1862709Y531507D1*
Y525256D1*
X1662688D2*
Y525325D1*
X1462588Y725425D1*
X1662688Y525256D2*
X1762698D1*
X1662688Y458327D2*
X1520740D1*
X1518923Y456509D1*
X1177517Y2237871D2*
D14*
X1247517D1*
X1177517Y2213003D2*
X1247517D1*
X1177517Y2188134D2*
X1247517D1*
X1177517Y2163265D2*
X1247517D1*
X1177517Y2138396D2*
X1247517D1*
X1177517Y2113528D2*
X1247517D1*
X1177517Y2088659D2*
X1247517D1*
X1177517Y2063790D2*
X1497517D1*
X1177517Y2038921D2*
X1497517D1*
X1177517Y2014052D2*
X1497517D1*
X1177517Y1989184D2*
X1497517D1*
X1177517Y1964315D2*
X1497517D1*
X1177517Y1939446D2*
X1497517D1*
X1177517Y1914577D2*
X1497517D1*
X1177517Y1889709D2*
X1497517D1*
X1177517Y1864840D2*
X1497517D1*
X1177517Y1839971D2*
X1497517D1*
X1177517Y1815102D2*
X1497517D1*
X1177517Y1790234D2*
X1497517D1*
X1177517Y1765365D2*
X1497517D1*
X1177517Y1740496D2*
X1497517D1*
X1177517Y1715627D2*
X1497517D1*
X1177517Y1690759D2*
X1497517D1*
X1177517Y1665890D2*
X1497517D1*
X1177517Y1641021D2*
X1497517D1*
X1177517Y1616152D2*
X1497517D1*
X1177517Y1591283D2*
X1497517D1*
X1177517Y1566415D2*
X1497517D1*
X1177517Y1541546D2*
X1497517D1*
X1177517Y1516677D2*
X1497517D1*
X1177517Y1491808D2*
X1497517D1*
X1177517Y1466940D2*
X1497517D1*
X1177517Y1442071D2*
X1497517D1*
X1177517Y1417202D2*
X1497517D1*
X1177517Y1392333D2*
X1497517D1*
X1177517Y1367465D2*
X1497517D1*
X1252517Y1342596D2*
X1497567D1*
X1252567Y1317727D2*
X1635017D1*
X1252567Y1292858D2*
X1635017D1*
X1252567Y1267990D2*
X1635017D1*
X1252567Y1243121D2*
X1635017D1*
X1252567Y1218252D2*
X1635017D1*
X1252517Y1193383D2*
X1635017D1*
X1090067Y1168514D2*
X1635017D1*
X1090067Y1143646D2*
X1635017D1*
X1090067Y1118777D2*
X1635017D1*
X1090067Y1093908D2*
X1635017D1*
X1090067Y1069039D2*
X1635017D1*
X1090067Y1044171D2*
X1635017D1*
X1090067Y1019302D2*
X1560604D1*
X1594217D2*
X1635017D1*
X1090067Y994433D2*
X1497517D1*
X1090067Y969564D2*
X1496688D1*
X1090067Y944696D2*
X1489900D1*
X1090067Y919827D2*
X1490731D1*
X1090067Y894958D2*
X1497517D1*
X1090067Y870089D2*
X1497517D1*
X1195542Y1187745D2*
X1186833Y1184310D1*
X1173780Y1181177D1*
X1160398Y1180123D1*
X1147016Y1181177D1*
X1133962Y1184310D1*
X1125042Y1187740D1*
X1087591D1*
X1087542Y862789D1*
X1499993Y862740D1*
X1500042Y898433D1*
X1496055Y908526D1*
X1492923Y921580D1*
X1491869Y934962D1*
X1492923Y948344D1*
X1496055Y961398D1*
X1500039Y971298D1*
X1500196Y1002196D1*
X1501404Y1005915D1*
X1503703Y1009079D1*
X1506867Y1011378D1*
X1510587Y1012587D1*
X1541790Y1012740D1*
X1550980Y1016323D1*
X1564034Y1019455D1*
X1577416Y1020509D1*
X1590798Y1019455D1*
X1603852Y1016323D1*
X1612894Y1012734D1*
X1637493Y1012740D1*
X1637542Y1337692D1*
X1510587Y1337894D1*
X1506867Y1339102D1*
X1503703Y1341402D1*
X1501404Y1344566D1*
X1500196Y1348285D1*
X1500042Y1387740D1*
Y2066793D1*
X1489643Y2070033D1*
X1481261Y2074303D1*
X1479869Y2075234D1*
X1445403Y2075240D1*
X1439807Y2072004D1*
X1431115Y2068403D1*
X1421967Y2066206D1*
X1412588Y2065469D1*
X1403209Y2066206D1*
X1394060Y2068403D1*
X1385369Y2072004D1*
X1379869Y2075234D1*
X1345403Y2075240D1*
X1339807Y2072004D1*
X1331115Y2068403D1*
X1321967Y2066206D1*
X1312588Y2065469D1*
X1303209Y2066206D1*
X1294060Y2068403D1*
X1285369Y2072004D1*
X1279869Y2075234D1*
X1260587Y2075394D1*
X1256867Y2076602D1*
X1253703Y2078902D1*
X1251404Y2082066D1*
X1250196Y2085785D1*
X1250042Y2125240D1*
Y2262692D1*
X1174993Y2262740D1*
X1175042Y1350240D1*
X1239497Y1350087D1*
X1243217Y1348878D1*
X1246381Y1346579D1*
X1248680Y1343415D1*
X1249888Y1339696D1*
X1250042Y1300240D1*
X1249888Y1198285D1*
X1248680Y1194566D1*
X1246381Y1191402D1*
X1243217Y1189102D1*
X1239497Y1187894D1*
X1195697Y1187740D1*
X1658035Y2275371D2*
X2168465D1*
X1069559Y2250503D2*
X1133552D1*
X1682888D2*
X2168465D1*
X1075028Y2225634D2*
X1133552D1*
X1707791D2*
X2175448D1*
X1069753Y2200765D2*
X1133552D1*
X1569753D2*
X1585164D1*
X1732644D2*
X2191560D1*
X848856Y2175896D2*
X876277D1*
X948856D2*
X976277D1*
X1048856D2*
X1133552D1*
X1548856D2*
X1610017D1*
X1757499D2*
X2228572D1*
X775028Y2151028D2*
X955867D1*
X1069315D2*
X1133552D1*
X1569315D2*
X1617049D1*
X1777664D2*
X2297517D1*
X775028Y2126159D2*
X950155D1*
X1075028D2*
X1133552D1*
X1575028D2*
X1617049D1*
X1779177D2*
X1874667D1*
X2050760D2*
X2188289D1*
X775028Y2101290D2*
X955184D1*
X1069949D2*
X1133552D1*
X1569949D2*
X1617049D1*
X1812381D2*
X1874667D1*
X2050760D2*
X2164071D1*
X775028Y2076421D2*
X975545D1*
X1049636D2*
X1133552D1*
X1549636D2*
X1617049D1*
X1827908D2*
X1874667D1*
X2050760D2*
X2151668D1*
X739333Y2051552D2*
X1133552D1*
X1541531D2*
X1617049D1*
X1833915D2*
X1874667D1*
X2050760D2*
X2146688D1*
X739333Y2026684D2*
X1133552D1*
X1541531D2*
X1617049D1*
X1832449D2*
X1874667D1*
X2050760D2*
X2147908D1*
X750564Y2001815D2*
X1133552D1*
X1541531D2*
X1617049D1*
X1823025D2*
X1874667D1*
X2050760D2*
X2155672D1*
X775417Y1976946D2*
X1133552D1*
X1541531D2*
X1622273D1*
X2050760D2*
X2171932D1*
X800272Y1952077D2*
X1133552D1*
X1541531D2*
X1646345D1*
X2009403D2*
X2205623D1*
X825173Y1927209D2*
X1133552D1*
X1541531D2*
X1889656D1*
X2035769D2*
X2297517D1*
X850028Y1902340D2*
X1133552D1*
X1541531D2*
X1877987D1*
X2047488D2*
X2297517D1*
X874881Y1877471D2*
X1133552D1*
X1541531D2*
X1874667D1*
X2050760D2*
X2297517D1*
X899783Y1852602D2*
X1133552D1*
X1541531D2*
X1878768D1*
X2046659D2*
X2297517D1*
X924636Y1827734D2*
X1133552D1*
X1541531D2*
X1891609D1*
X2033865D2*
X2297517D1*
X944315Y1802865D2*
X1133552D1*
X1541531D2*
X1920857D1*
X2004617D2*
X2297517D1*
X945584Y1777996D2*
X1133552D1*
X1541531D2*
X1687556D1*
X1804812D2*
X1904060D1*
X2021365D2*
X2297517D1*
X945584Y1753127D2*
X1133552D1*
X1541531D2*
X1667879D1*
X1824491D2*
X1884432D1*
X2040995D2*
X2297517D1*
X945584Y1728259D2*
X1133552D1*
X1541531D2*
X1659432D1*
X1832937D2*
X1875984D1*
X2049491D2*
X2297517D1*
X945584Y1703390D2*
X1133552D1*
X1541531D2*
X1658748D1*
X1833621D2*
X1875252D1*
X2050173D2*
X2297517D1*
X1035769Y1678521D2*
X1133552D1*
X1541531D2*
X1665584D1*
X1826785D2*
X1882136D1*
X2043289D2*
X2297517D1*
X1063651Y1653652D2*
X1133552D1*
X1541531D2*
X1682528D1*
X1809841D2*
X1899031D1*
X2026395D2*
X2297517D1*
X1075955Y1628783D2*
X1133552D1*
X1541531D2*
X1715243D1*
X1777127D2*
X1931795D1*
X1993680D2*
X2186531D1*
X1079667Y1603915D2*
X1133552D1*
X1541531D2*
X1678865D1*
X1813504D2*
X1895369D1*
X2030056D2*
X2163192D1*
X1076004Y1579046D2*
X1133552D1*
X1541531D2*
X1663924D1*
X1828445D2*
X1880476D1*
X2044999D2*
X2151277D1*
X1063845Y1554177D2*
X1133552D1*
X1541531D2*
X1658357D1*
X1834012D2*
X1874911D1*
X2050564D2*
X2146589D1*
X1036209Y1529308D2*
X1133552D1*
X1541531D2*
X1660213D1*
X1832156D2*
X1876765D1*
X2048660D2*
X2148152D1*
X912283Y1504440D2*
X1133552D1*
X1541531D2*
X1670125D1*
X1822244D2*
X1886677D1*
X2038797D2*
X2156307D1*
X887429Y1479571D2*
X1133552D1*
X1541531D2*
X1692488D1*
X1799881D2*
X1909041D1*
X2016433D2*
X2173152D1*
X862576Y1454702D2*
X1133552D1*
X1541531D2*
X2208651D1*
X845584Y1429833D2*
X1133552D1*
X1541531D2*
X2297517D1*
X845584Y1404965D2*
X1133552D1*
X1541531D2*
X2297517D1*
X845584Y1380096D2*
X1133552D1*
X1541531D2*
X2297517D1*
X845584Y1355227D2*
X1133552D1*
X1678543D2*
X2031844D1*
X2130837D2*
X2297517D1*
X845584Y1330358D2*
X1101912D1*
X1679031D2*
X2001131D1*
X2161600D2*
X2297517D1*
X845584Y1305490D2*
X1082185D1*
X1679031D2*
X1985896D1*
X2176833D2*
X2297517D1*
X845584Y1280621D2*
X1073689D1*
X1679031D2*
X1978816D1*
X2183865D2*
X2297517D1*
X845584Y1255752D2*
X1072908D1*
X1679031D2*
X1978181D1*
X2184500D2*
X2297517D1*
X845584Y1230883D2*
X1079744D1*
X1679031D2*
X1983895D1*
X2178836D2*
X2297517D1*
X845584Y1206014D2*
X1046688D1*
X1679031D2*
X1997176D1*
X2165505D2*
X2297517D1*
X845584Y1181146D2*
X1046052D1*
X1679031D2*
X2023299D1*
X2139383D2*
X2297517D1*
X845584Y1156277D2*
X1046052D1*
X1679031D2*
X2297517D1*
X845584Y1131408D2*
X1046052D1*
X1679031D2*
X2297517D1*
X845584Y1106539D2*
X1046052D1*
X1679031D2*
X2297517D1*
X845584Y1081671D2*
X1046052D1*
X1679031D2*
X2297517D1*
X845584Y1056802D2*
X1046052D1*
X1679031D2*
X2297517D1*
X845584Y1031933D2*
X1046052D1*
X1679031D2*
X2050155D1*
X2112576D2*
X2297517D1*
X845584Y1007064D2*
X1046052D1*
X1679031D2*
X2007917D1*
X2154764D2*
X2297517D1*
X845584Y982196D2*
X1046052D1*
X1671951D2*
X1989412D1*
X2173269D2*
X2297517D1*
X845584Y957327D2*
X1046052D1*
X1662479D2*
X1980232D1*
X2182499D2*
X2297517D1*
X845584Y932458D2*
X1046052D1*
X1665408D2*
X1977743D1*
X2184940D2*
X2297517D1*
X845584Y907589D2*
X1046052D1*
X1660965D2*
X1981501D1*
X2181228D2*
X2297517D1*
X845584Y882720D2*
X1046052D1*
X1647684D2*
X1992244D1*
X2170437D2*
X2297517D1*
X845584Y857852D2*
X1046052D1*
X1616971D2*
X2013436D1*
X2149295D2*
X2297517D1*
X845584Y832983D2*
X1052449D1*
X1535135D2*
X2297517D1*
X845584Y808114D2*
X1387361D1*
X1631717D2*
X2297517D1*
X880936Y783245D2*
X944247D1*
X980936D2*
X1044247D1*
X1080936D2*
X1144247D1*
X1180936D2*
X1344247D1*
X1656571D2*
X2297517D1*
X1215164Y758377D2*
X1310017D1*
X1681472D2*
X2297517D1*
X1224491Y733508D2*
X1300692D1*
X1706327D2*
X2297517D1*
X1222635Y708639D2*
X1302547D1*
X1731180D2*
X2297517D1*
X1208231Y683770D2*
X1316951D1*
X1756083D2*
X2297517D1*
X1201883Y658902D2*
X1483504D1*
X1780936D2*
X2297517D1*
X1201883Y634033D2*
X1508357D1*
X1805789D2*
X2297517D1*
X1250076Y609164D2*
X1287752D1*
X1350076D2*
X1387752D1*
X1830692D2*
X2297517D1*
X1855545Y584295D2*
X2297517D1*
X1911404Y559427D2*
X2221589D1*
X1911404Y534558D2*
X2189071D1*
X1258865Y509689D2*
X1278963D1*
X1358865D2*
X1378963D1*
X1911404D2*
X2174276D1*
X1274295Y484820D2*
X1363583D1*
X1911404D2*
X2168123D1*
X1281277Y459951D2*
X1356551D1*
X1711356D2*
X2168904D1*
X1808875Y542201D2*
Y477110D1*
X1716521D1*
Y494738D1*
X1708841Y494764D1*
X1708865Y437772D1*
X2178021Y437740D1*
X2174654Y446626D1*
X2171260Y460760D1*
X2170119Y475251D1*
X2171260Y489741D1*
X2174654Y503875D1*
X2180215Y517304D1*
X2187811Y529698D1*
X2197251Y540751D1*
X2208303Y550190D1*
X2220697Y557786D1*
X2234126Y563348D1*
X2248260Y566741D1*
X2262751Y567882D1*
X2277241Y566741D1*
X2291375Y563348D1*
X2300031Y559987D1*
X2300042Y1460055D1*
X2288854Y1454593D1*
X2273749Y1449685D1*
X2258063Y1447201D1*
X2242181D1*
X2226495Y1449685D1*
X2211390Y1454593D1*
X2197238Y1461803D1*
X2184388Y1471139D1*
X2173159Y1482369D1*
X2163823Y1495218D1*
X2156613Y1509370D1*
X2151705Y1524475D1*
X2149220Y1540161D1*
Y1556043D1*
X2151705Y1571730D1*
X2156613Y1586835D1*
X2163823Y1600987D1*
X2173159Y1613836D1*
X2184388Y1625066D1*
X2197238Y1634402D1*
X2211390Y1641612D1*
X2226495Y1646520D1*
X2242181Y1649004D1*
X2258063D1*
X2273749Y1646520D1*
X2288854Y1641612D1*
X2300054Y1636055D1*
X2300042Y1956148D1*
X2288854Y1950656D1*
X2273749Y1945748D1*
X2258063Y1943264D1*
X2242181D1*
X2226495Y1945748D1*
X2211390Y1950656D1*
X2197238Y1957866D1*
X2184388Y1967202D1*
X2173159Y1978432D1*
X2163823Y1991281D1*
X2156613Y2005433D1*
X2151705Y2020538D1*
X2149220Y2036224D1*
Y2052106D1*
X2151705Y2067793D1*
X2156613Y2082898D1*
X2163823Y2097050D1*
X2173159Y2109899D1*
X2184388Y2121129D1*
X2197238Y2130465D1*
X2211390Y2137675D1*
X2226495Y2142583D1*
X2242181Y2145067D1*
X2258063D1*
X2273749Y2142583D1*
X2288854Y2137675D1*
X2300054Y2132118D1*
X2300042Y2178121D1*
X2291375Y2174841D1*
X2277241Y2171448D1*
X2262751Y2170307D1*
X2248260Y2171448D1*
X2234126Y2174841D1*
X2220697Y2180403D1*
X2208303Y2187999D1*
X2197251Y2197438D1*
X2187811Y2208491D1*
X2180215Y2220885D1*
X2174654Y2234314D1*
X2171260Y2248448D1*
X2170119Y2262938D1*
X2171260Y2277429D1*
X2174654Y2291563D1*
X2178014Y2300219D1*
X1630657Y2300240D1*
X1769371Y2161400D1*
X1773354Y2155440D1*
X1775835Y2148715D1*
X1776677Y2141597D1*
Y2124068D1*
X1785022Y2120388D1*
X1796469Y2113374D1*
X1806676Y2104656D1*
X1815394Y2094449D1*
X1822408Y2083003D1*
X1827546Y2070601D1*
X1830678Y2057547D1*
X1831732Y2044165D1*
X1830678Y2030783D1*
X1827546Y2017730D1*
X1822408Y2005328D1*
X1819139Y1999490D1*
X1877142Y1999483D1*
X1877173Y2129713D1*
X2048268D1*
Y1958618D1*
X1993531D1*
X2001558Y1955034D1*
X2013004Y1948020D1*
X2023211Y1939302D1*
X2031929Y1929094D1*
X2038944Y1917648D1*
X2044081Y1905247D1*
X2047214Y1892193D1*
X2048268Y1878811D1*
X2047214Y1865429D1*
X2044081Y1852375D1*
X2038944Y1839974D1*
X2031929Y1828528D1*
X2023211Y1818320D1*
X2013004Y1809602D1*
X2001558Y1802588D1*
X1989156Y1797450D1*
X1984585Y1796161D1*
X1995458Y1792492D1*
X2007419Y1786398D1*
X2018280Y1778508D1*
X2027772Y1769016D1*
X2035661Y1758155D1*
X2041756Y1746194D1*
X2045904Y1733428D1*
X2048004Y1720169D1*
Y1706744D1*
X2045904Y1693486D1*
X2041756Y1680719D1*
X2035661Y1668759D1*
X2027772Y1657898D1*
X2018280Y1648406D1*
X2007419Y1640516D1*
X1995458Y1634421D1*
X1984585Y1630807D1*
X1995458Y1627138D1*
X2007419Y1621043D1*
X2018280Y1613154D1*
X2027772Y1603661D1*
X2035661Y1592801D1*
X2041756Y1580840D1*
X2045904Y1568073D1*
X2048004Y1554815D1*
Y1541390D1*
X2045904Y1528131D1*
X2041756Y1515365D1*
X2035661Y1503404D1*
X2027772Y1492543D1*
X2018280Y1483051D1*
X2007419Y1475161D1*
X1995458Y1469067D1*
X1982692Y1464919D1*
X1969433Y1462819D1*
X1956008D1*
X1942749Y1464919D1*
X1929983Y1469067D1*
X1918022Y1475161D1*
X1907161Y1483051D1*
X1897669Y1492543D1*
X1889780Y1503404D1*
X1883685Y1515365D1*
X1879537Y1528131D1*
X1877437Y1541390D1*
Y1554815D1*
X1879537Y1568073D1*
X1883685Y1580840D1*
X1889780Y1592801D1*
X1897669Y1603661D1*
X1907161Y1613154D1*
X1918022Y1621043D1*
X1929983Y1627138D1*
X1940856Y1630752D1*
X1929983Y1634421D1*
X1918022Y1640516D1*
X1907161Y1648406D1*
X1897669Y1657898D1*
X1889780Y1668759D1*
X1883685Y1680719D1*
X1879537Y1693486D1*
X1877437Y1706744D1*
Y1720169D1*
X1879537Y1733428D1*
X1883685Y1746194D1*
X1889780Y1758155D1*
X1897669Y1769016D1*
X1907161Y1778508D1*
X1918022Y1786398D1*
X1929983Y1792492D1*
X1940856Y1796106D1*
X1929983Y1799776D1*
X1918022Y1805870D1*
X1907161Y1813760D1*
X1897669Y1823252D1*
X1889780Y1834113D1*
X1883685Y1846073D1*
X1879537Y1858840D1*
X1877437Y1872098D1*
Y1885524D1*
X1879537Y1898782D1*
X1883685Y1911549D1*
X1889780Y1923509D1*
X1897669Y1934370D1*
X1902865Y1939890D1*
X1896185Y1938593D1*
X1675042Y1938499D1*
X1667924Y1939341D1*
X1661199Y1941822D1*
X1655239Y1945804D1*
X1626856Y1974188D1*
X1622873Y1980148D1*
X1620392Y1986873D1*
X1619550Y1993991D1*
Y2168844D1*
X1571891Y2216516D1*
X1569610Y2206898D1*
X1566009Y2198206D1*
X1561094Y2190184D1*
X1554984Y2183029D1*
X1547829Y2176919D1*
X1545643Y2175458D1*
X1551526Y2171017D1*
X1558180Y2164364D1*
X1563710Y2156752D1*
X1567980Y2148370D1*
X1570888Y2139421D1*
X1572360Y2130130D1*
Y2120720D1*
X1570888Y2111429D1*
X1567980Y2102480D1*
X1563710Y2094098D1*
X1558180Y2086487D1*
X1551526Y2079833D1*
X1543915Y2074303D1*
X1539022Y2071642D1*
X1539034Y1376753D1*
X1652121Y1376651D1*
X1658228Y1375436D1*
X1663885Y1372828D1*
X1668774Y1368972D1*
X1672630Y1364083D1*
X1675238Y1358427D1*
X1676453Y1352319D1*
X1676534Y1000240D1*
X1675802Y994055D1*
X1673647Y988213D1*
X1670186Y983035D1*
X1665614Y978807D1*
X1660180Y975765D1*
X1654178Y974073D1*
X1653639Y973799D1*
X1658777Y961398D1*
X1661909Y948344D1*
X1662963Y934962D1*
X1661909Y921580D1*
X1658777Y908526D1*
X1653639Y896125D1*
X1646625Y884678D1*
X1637907Y874471D1*
X1627699Y865753D1*
X1616253Y858739D1*
X1603852Y853601D1*
X1590798Y850469D1*
X1577416Y849415D1*
X1564034Y850469D1*
X1550980Y853601D1*
X1539031Y858530D1*
X1538709Y846096D1*
X1537017Y840102D1*
X1533975Y834668D1*
X1529747Y830096D1*
X1524570Y826635D1*
X1518727Y824480D1*
X1512542Y823748D1*
X1072963Y823829D1*
X1066856Y825045D1*
X1061199Y827652D1*
X1056310Y831508D1*
X1052454Y836398D1*
X1049846Y842054D1*
X1048631Y848161D1*
X1048550Y1200240D1*
X1049282Y1206425D1*
X1051437Y1212268D1*
X1054898Y1217445D1*
X1059470Y1221673D1*
X1064904Y1224715D1*
X1070898Y1226407D1*
X1075050Y1226732D1*
X1081362Y1232933D1*
X1077214Y1245699D1*
X1075114Y1258958D1*
Y1272383D1*
X1077214Y1285642D1*
X1081362Y1298408D1*
X1087457Y1310369D1*
X1095346Y1321230D1*
X1104839Y1330722D1*
X1115699Y1338612D1*
X1127660Y1344706D1*
X1136058Y1347622D1*
X1136050Y2263472D1*
X1058878Y2263497D1*
X1063710Y2256752D1*
X1067980Y2248370D1*
X1070888Y2239421D1*
X1072360Y2230130D1*
Y2220720D1*
X1070888Y2211429D1*
X1067980Y2202480D1*
X1063710Y2194098D1*
X1058180Y2186487D1*
X1051526Y2179833D1*
X1045643Y2175458D1*
X1051526Y2171017D1*
X1058180Y2164364D1*
X1063710Y2156752D1*
X1067980Y2148370D1*
X1070888Y2139421D1*
X1072360Y2130130D1*
Y2120720D1*
X1070888Y2111429D1*
X1067980Y2102480D1*
X1063710Y2094098D1*
X1058180Y2086487D1*
X1051526Y2079833D1*
X1043915Y2074303D1*
X1035533Y2070033D1*
X1026584Y2067125D1*
X1017293Y2065654D1*
X1007883D1*
X998592Y2067125D1*
X989643Y2070033D1*
X981261Y2074303D1*
X973650Y2079833D1*
X966996Y2086487D1*
X961466Y2094098D1*
X957196Y2102480D1*
X954287Y2111429D1*
X952816Y2120720D1*
Y2130130D1*
X954287Y2139421D1*
X957196Y2148370D1*
X961466Y2156752D1*
X966996Y2164364D1*
X973650Y2171017D1*
X979533Y2175392D1*
X973650Y2179833D1*
X966996Y2186487D1*
X962621Y2192370D1*
X958180Y2186487D1*
X951526Y2179833D1*
X943915Y2174303D1*
X935533Y2170033D1*
X926584Y2167125D1*
X917293Y2165654D1*
X907883D1*
X898592Y2167125D1*
X889643Y2170033D1*
X881261Y2174303D1*
X873650Y2179833D1*
X866996Y2186487D1*
X862621Y2192370D1*
X858180Y2186487D1*
X851526Y2179833D1*
X843915Y2174303D1*
X835533Y2170033D1*
X826584Y2167125D1*
X817293Y2165654D1*
X807883D1*
X798592Y2167125D1*
X789643Y2170033D1*
X781261Y2174303D1*
X773650Y2179833D1*
X772555Y2180845D1*
X772545Y2065469D1*
X736852D1*
X736829Y2013071D1*
X935795Y1813942D1*
X939778Y1807983D1*
X942259Y1801257D1*
X943101Y1794139D1*
Y1674266D1*
X952793Y1680005D1*
X965194Y1685143D1*
X978248Y1688276D1*
X991630Y1689329D1*
X1005012Y1688276D1*
X1018066Y1685143D1*
X1030467Y1680005D1*
X1041913Y1672991D1*
X1052121Y1664273D1*
X1060839Y1654066D1*
X1067853Y1642619D1*
X1072991Y1630218D1*
X1076123Y1617164D1*
X1077177Y1603782D1*
X1076123Y1590400D1*
X1072991Y1577346D1*
X1067853Y1564945D1*
X1060839Y1553499D1*
X1052121Y1543291D1*
X1041913Y1534573D1*
X1030467Y1527559D1*
X1018066Y1522421D1*
X1005012Y1519289D1*
X991630Y1518235D1*
X978248Y1519289D1*
X965194Y1522421D1*
X952793Y1527559D1*
X941346Y1534573D1*
X939513Y1536018D1*
X935795Y1530560D1*
X843123Y1437756D1*
X843091Y782140D1*
X853209Y784644D1*
X862588Y785382D1*
X871967Y784644D1*
X881115Y782448D1*
X889807Y778846D1*
X897829Y773932D1*
X904984Y767822D1*
X911094Y760667D1*
X912555Y758480D1*
X916996Y764364D1*
X923650Y771017D1*
X931261Y776547D1*
X939643Y780818D1*
X948592Y783726D1*
X957883Y785197D1*
X967293D1*
X976584Y783726D1*
X985533Y780818D1*
X993915Y776547D1*
X1001526Y771017D1*
X1008180Y764364D1*
X1012555Y758480D1*
X1016996Y764364D1*
X1023650Y771017D1*
X1031261Y776547D1*
X1039643Y780818D1*
X1048592Y783726D1*
X1057883Y785197D1*
X1067293D1*
X1076584Y783726D1*
X1085533Y780818D1*
X1093915Y776547D1*
X1101526Y771017D1*
X1108180Y764364D1*
X1112555Y758480D1*
X1116996Y764364D1*
X1123650Y771017D1*
X1131261Y776547D1*
X1139643Y780818D1*
X1148592Y783726D1*
X1157883Y785197D1*
X1167293D1*
X1176584Y783726D1*
X1185533Y780818D1*
X1193915Y776547D1*
X1201526Y771017D1*
X1208180Y764364D1*
X1213710Y756752D1*
X1217980Y748370D1*
X1220888Y739421D1*
X1222360Y730130D1*
Y720720D1*
X1220888Y711429D1*
X1217980Y702480D1*
X1213710Y694098D1*
X1208180Y686487D1*
X1201526Y679833D1*
X1199375Y678138D1*
X1199378Y613219D1*
X1209543Y615728D1*
X1218923Y616466D1*
X1228302Y615728D1*
X1237450Y613531D1*
X1246142Y609930D1*
X1254164Y605016D1*
X1261319Y598906D1*
X1267429Y591751D1*
X1268890Y589564D1*
X1273331Y595448D1*
X1279984Y602101D1*
X1287596Y607631D1*
X1295978Y611902D1*
X1304927Y614810D1*
X1314218Y616281D1*
X1323627D1*
X1332919Y614810D1*
X1341867Y611902D1*
X1350249Y607631D1*
X1357861Y602101D1*
X1364514Y595448D1*
X1368890Y589564D1*
X1373331Y595448D1*
X1379984Y602101D1*
X1387596Y607631D1*
X1395978Y611902D1*
X1404927Y614810D1*
X1414218Y616281D1*
X1423627D1*
X1432919Y614810D1*
X1441867Y611902D1*
X1450249Y607631D1*
X1457861Y602101D1*
X1458955Y601089D1*
X1458966Y616466D1*
X1528449D1*
X1477504Y667386D1*
X1467293Y665654D1*
X1457883D1*
X1448592Y667125D1*
X1439643Y670033D1*
X1431261Y674303D1*
X1423650Y679833D1*
X1416996Y686487D1*
X1412621Y692370D1*
X1408180Y686487D1*
X1401526Y679833D1*
X1393915Y674303D1*
X1385533Y670033D1*
X1376584Y667125D1*
X1367293Y665654D1*
X1357883D1*
X1348592Y667125D1*
X1339643Y670033D1*
X1331261Y674303D1*
X1323650Y679833D1*
X1316996Y686487D1*
X1311466Y694098D1*
X1307196Y702480D1*
X1304287Y711429D1*
X1302816Y720720D1*
Y730130D1*
X1304287Y739421D1*
X1307196Y748370D1*
X1311466Y756752D1*
X1316996Y764364D1*
X1323650Y771017D1*
X1331261Y776547D1*
X1339643Y780818D1*
X1348592Y783726D1*
X1357883Y785197D1*
X1366980Y785210D1*
X1392858Y810970D1*
X1398818Y814953D1*
X1405543Y817433D1*
X1412661Y818276D1*
X1608824Y818181D1*
X1615854Y816783D1*
X1622364Y813782D1*
X1627993Y809345D1*
X1863913Y573424D1*
X1908886Y573402D1*
Y477110D1*
X1816531D1*
Y534581D1*
X1808865Y542228D1*
X1831469Y1541390D2*
X1829369Y1528131D1*
X1825220Y1515365D1*
X1819126Y1503404D1*
X1811236Y1492543D1*
X1801744Y1483051D1*
X1790883Y1475161D1*
X1778923Y1469067D1*
X1766156Y1464919D1*
X1752898Y1462819D1*
X1739472D1*
X1726214Y1464919D1*
X1713448Y1469067D1*
X1701487Y1475161D1*
X1690626Y1483051D1*
X1681134Y1492543D1*
X1673244Y1503404D1*
X1667150Y1515365D1*
X1663001Y1528131D1*
X1660902Y1541390D1*
Y1554815D1*
X1663001Y1568073D1*
X1667150Y1580840D1*
X1673244Y1592801D1*
X1681134Y1603661D1*
X1690626Y1613154D1*
X1701487Y1621043D1*
X1713448Y1627138D1*
X1724320Y1630752D1*
X1713448Y1634421D1*
X1701487Y1640516D1*
X1690626Y1648406D1*
X1681134Y1657898D1*
X1673244Y1668759D1*
X1667150Y1680719D1*
X1663001Y1693486D1*
X1660902Y1706744D1*
Y1720169D1*
X1663001Y1733428D1*
X1667150Y1746194D1*
X1673244Y1758155D1*
X1681134Y1769016D1*
X1690626Y1778508D1*
X1701487Y1786398D1*
X1713448Y1792492D1*
X1726214Y1796640D1*
X1739472Y1798740D1*
X1752898D1*
X1766156Y1796640D1*
X1778923Y1792492D1*
X1790883Y1786398D1*
X1801744Y1778508D1*
X1811236Y1769016D1*
X1819126Y1758155D1*
X1825220Y1746194D1*
X1829369Y1733428D1*
X1831469Y1720169D1*
Y1706744D1*
X1829369Y1693486D1*
X1825220Y1680719D1*
X1819126Y1668759D1*
X1811236Y1657898D1*
X1801744Y1648406D1*
X1790883Y1640516D1*
X1778923Y1634421D1*
X1768050Y1630807D1*
X1778923Y1627138D1*
X1790883Y1621043D1*
X1801744Y1613154D1*
X1811236Y1603661D1*
X1819126Y1592801D1*
X1825220Y1580840D1*
X1829369Y1568073D1*
X1831469Y1554815D1*
Y1541390D1*
X2182176Y927028D2*
X2179694Y911353D1*
X2174790Y896260D1*
X2167585Y882119D1*
X2158257Y869280D1*
X2147035Y858058D1*
X2134196Y848730D1*
X2120055Y841525D1*
X2104962Y836621D1*
X2089287Y834139D1*
X2073419D1*
X2057744Y836621D1*
X2042651Y841525D1*
X2028510Y848730D1*
X2015671Y858058D1*
X2004449Y869280D1*
X1995121Y882119D1*
X1987916Y896260D1*
X1983012Y911353D1*
X1980530Y927028D1*
Y942896D1*
X1983012Y958571D1*
X1987916Y973664D1*
X1995121Y987804D1*
X2004449Y1000644D1*
X2015671Y1011866D1*
X2028510Y1021194D1*
X2042651Y1028399D1*
X2057744Y1033303D1*
X2073419Y1035785D1*
X2089287D1*
X2104962Y1033303D1*
X2120055Y1028399D1*
X2134196Y1021194D1*
X2147035Y1011866D1*
X2158257Y1000644D1*
X2167585Y987804D1*
X2174790Y973664D1*
X2179694Y958571D1*
X2182176Y942896D1*
Y927028D1*
Y1257736D2*
X2179694Y1242062D1*
X2174790Y1226969D1*
X2167585Y1212828D1*
X2158257Y1199988D1*
X2147035Y1188766D1*
X2134196Y1179438D1*
X2120055Y1172234D1*
X2104962Y1167329D1*
X2089287Y1164848D1*
X2073419D1*
X2057744Y1167329D1*
X2042651Y1172234D1*
X2028510Y1179438D1*
X2015671Y1188766D1*
X2004449Y1199988D1*
X1995121Y1212828D1*
X1987916Y1226969D1*
X1983012Y1242062D1*
X1980530Y1257736D1*
Y1273605D1*
X1983012Y1289280D1*
X1987916Y1304373D1*
X1995121Y1318513D1*
X2004449Y1331353D1*
X2015671Y1342575D1*
X2028510Y1351903D1*
X2042651Y1359108D1*
X2057744Y1364012D1*
X2073419Y1366493D1*
X2089287D1*
X2104962Y1364012D1*
X2120055Y1359108D1*
X2134196Y1351903D1*
X2147035Y1342575D1*
X2158257Y1331353D1*
X2167585Y1318513D1*
X2174790Y1304373D1*
X2179694Y1289280D1*
X2182176Y1273605D1*
Y1257736D1*
X1385867Y506542D2*
X1379984Y510917D1*
X1373331Y517571D1*
X1368955Y523454D1*
X1364514Y517571D1*
X1357861Y510917D1*
X1350249Y505387D1*
X1341867Y501117D1*
X1332919Y498209D1*
X1323627Y496738D1*
X1314218D1*
X1304927Y498209D1*
X1295978Y501117D1*
X1287596Y505387D1*
X1279984Y510917D1*
X1273331Y517571D1*
X1268955Y523454D1*
X1264514Y517571D1*
X1257861Y510917D1*
X1251978Y506542D1*
X1257861Y502101D1*
X1264514Y495448D1*
X1270045Y487836D1*
X1274315Y479454D1*
X1277223Y470505D1*
X1278694Y461214D1*
Y451804D1*
X1277223Y442513D1*
X1275862Y437757D1*
X1361900Y437982D1*
X1359703Y447130D1*
X1358966Y456509D1*
X1359703Y465888D1*
X1361900Y475037D1*
X1365501Y483728D1*
X1370416Y491751D1*
X1376526Y498906D1*
X1383681Y505016D1*
X1385867Y506476D1*
D15*
X1762698Y525256D3*
Y458327D3*
D17*
X943862Y1100316D3*
Y934962D3*
X1160398Y1265671D3*
Y934962D3*
Y1100316D3*
D18*
X943862Y1265671D3*
D17*
X1793951Y1100316D3*
Y1265671D3*
X1577416Y934962D3*
Y1265671D3*
Y1100316D3*
D18*
X1793951Y934962D3*
D19*
X1518923Y556509D3*
D20*
Y456509D3*
X1418923Y556509D3*
Y456509D3*
X1318923Y556509D3*
Y456509D3*
X1218923Y556509D3*
Y456509D3*
X1118923Y556509D3*
Y456509D3*
X1018923Y556509D3*
Y456509D3*
X918923Y556509D3*
Y456509D3*
X818923Y556509D3*
Y456509D3*
X718923Y556509D3*
Y456509D3*
X618923Y556509D3*
Y456509D3*
D15*
X1662688Y525256D3*
Y458327D3*
X1862709Y525256D3*
Y458327D3*
D19*
X712588Y2125425D3*
D20*
Y2225425D3*
X812588Y2125425D3*
Y2225425D3*
X912588Y2125425D3*
Y2225425D3*
X1012588Y2125425D3*
Y2225425D3*
X1112588Y2125425D3*
Y2225425D3*
X1212588Y2125425D3*
Y2225425D3*
X1312588Y2125425D3*
Y2225425D3*
X1412588Y2125425D3*
Y2225425D3*
X1512588Y2125425D3*
Y2225425D3*
D19*
X762588Y725425D3*
D20*
X862588D3*
X962588D3*
X1062588D3*
X1162588D3*
X1262588D3*
X1362588D3*
X1462588D3*
D18*
X1962720Y2044165D3*
D17*
Y1878811D3*
Y1713457D3*
Y1548102D3*
X1746185D3*
Y1713457D3*
Y1878811D3*
Y2044165D3*
D18*
X775094Y1769136D3*
D17*
Y1603782D3*
X991630D3*
Y1769136D3*
M02*
