G04 DipTrace Beta 2.9.0.1*
G04 Through.gbr*
%MOIN*%
G04 #@! TF.FileFunction,Plated,1,2,PTH,Drill*
G04 #@! TF.Part,Single*
G04 Drill Symbols*
G04 D=0.018 - Cross*
G04 D=0.035433 - X*
G04 D=0.14 - Y*
G04 D=0.1405 - T*
%ADD10C,0.008*%
%FSLAX26Y26*%
G04*
G70*
G90*
G75*
G01*
X576772Y911302D2*
D10*
X623772Y864302D1*
Y911302D2*
X576772Y864302D1*
Y832562D2*
X623772Y785562D1*
Y832562D2*
X576772Y785562D1*
Y753822D2*
X623772Y706822D1*
Y753822D2*
X576772Y706822D1*
X655512Y753822D2*
X702512Y706822D1*
Y753822D2*
X655512Y706822D1*
Y832562D2*
X702512Y785562D1*
Y832562D2*
X655512Y785562D1*
Y911302D2*
X702512Y864302D1*
Y911302D2*
X655512Y864302D1*
X1876908Y867547D2*
X1923908Y820547D1*
Y867547D2*
X1876908Y820547D1*
Y946287D2*
X1923908Y899287D1*
Y946287D2*
X1876908Y899287D1*
Y1025028D2*
X1923908Y978028D1*
Y1025028D2*
X1876908Y978028D1*
X1798168Y1025028D2*
X1845168Y978028D1*
Y1025028D2*
X1798168Y978028D1*
Y946287D2*
X1845168Y899287D1*
Y946287D2*
X1798168Y899287D1*
Y867547D2*
X1845168Y820547D1*
Y867547D2*
X1798168Y820547D1*
X1031567Y480007D2*
Y433007D1*
X1008067Y456507D2*
X1055067D1*
X925306Y880049D2*
Y833049D1*
X901806Y856549D2*
X948806D1*
X569018Y998811D2*
Y951811D1*
X545518Y975311D2*
X592518D1*
X1775293Y736283D2*
Y689283D1*
X1751793Y712783D2*
X1798793D1*
X1787896Y548764D2*
Y501764D1*
X1764396Y525264D2*
X1811396D1*
X1397709Y480007D2*
Y433007D1*
X1374209Y456507D2*
X1421209D1*
X1462862Y823793D2*
Y776793D1*
X1439362Y800293D2*
X1486362D1*
X794042Y798790D2*
Y751790D1*
X770542Y775290D2*
X817542D1*
X731535Y1005062D2*
Y958062D1*
X708035Y981562D2*
X755035D1*
X651780Y512762D2*
X698780D1*
X675280D2*
Y489262D1*
X1152080Y1011753D2*
X1175580Y988253D1*
X1199080Y1011753D1*
X1175580Y988253D2*
Y964753D1*
X1552080Y988253D2*
X1599080D1*
X1575580D2*
Y964753D1*
M02*
