G04 DipTrace 3.0.0.1*
G04 arduino-shield_lay.GTS*
%MOIN*%
G04 #@! TF.FileFunction,Soldermask,Top*
G04 #@! TF.Part,Single*
%ADD25C,0.1004*%
%ADD32C,0.076898*%
%ADD34R,0.076898X0.076898*%
%ADD36C,0.074929*%
%ADD38R,0.074929X0.074929*%
%FSLAX26Y26*%
G04*
G70*
G90*
G75*
G01*
G04 TopMask*
%LPD*%
D38*
X1156520Y2475457D3*
D36*
Y2375457D3*
Y2275457D3*
Y2175457D3*
Y2075457D3*
Y1975457D3*
Y1875457D3*
Y1775457D3*
D38*
Y1575378D3*
D36*
Y1475378D3*
Y1375378D3*
Y1275378D3*
Y1175378D3*
Y1075378D3*
Y975378D3*
Y875378D3*
D38*
X3231727Y3488062D3*
D36*
Y3388062D3*
Y3288062D3*
D38*
X3531759Y3638077D3*
D36*
Y3538077D3*
Y3438077D3*
D38*
Y3250537D3*
D36*
Y3150537D3*
Y3050537D3*
D38*
X3055142Y1075323D3*
D36*
Y1175323D3*
Y1275323D3*
Y1375323D3*
Y1475323D3*
Y1575323D3*
Y1675323D3*
Y1775323D3*
D38*
Y775260D3*
D36*
Y675260D3*
X2955142Y775260D3*
Y675260D3*
X2855142Y775260D3*
Y675260D3*
X2755142Y775260D3*
Y675260D3*
X2655142Y775260D3*
Y675260D3*
X2555142Y775260D3*
Y675260D3*
X2455142Y775260D3*
Y675260D3*
X2355142Y775260D3*
Y675260D3*
X2255142Y775260D3*
Y675260D3*
X2155142Y775260D3*
Y675260D3*
X2055142Y775260D3*
Y675260D3*
X1955142Y775260D3*
Y675260D3*
X1855142Y775260D3*
Y675260D3*
X1755142Y775260D3*
Y675260D3*
X1655142Y775260D3*
Y675260D3*
X1555142Y775260D3*
Y675260D3*
X1455142Y775260D3*
Y675260D3*
X1355142Y775260D3*
Y675260D3*
D38*
X725224Y1812802D3*
D36*
X825224D3*
X725224Y1712802D3*
X825224D3*
X725224Y1612802D3*
X825224D3*
X725224Y1512802D3*
X825224D3*
X725224Y1412802D3*
X825224D3*
X725224Y1312802D3*
X825224D3*
X725224Y1212802D3*
X825224D3*
X725224Y1112802D3*
X825224D3*
X725224Y1012802D3*
X825224D3*
D38*
X1494045Y1812886D3*
D36*
X1594045D3*
X1494045Y1712886D3*
X1594045D3*
X1494045Y1612886D3*
X1594045D3*
X1494045Y1512886D3*
X1594045D3*
X1494045Y1412886D3*
X1594045D3*
X1494045Y1312886D3*
X1594045D3*
X1494045Y1212886D3*
X1594045D3*
X1494045Y1112886D3*
X1594045D3*
X1494045Y1012886D3*
X1594045D3*
D38*
X725214Y3531816D3*
D36*
X825214D3*
X725214Y3431816D3*
X825214D3*
X725214Y3331816D3*
X825214D3*
X725214Y3231816D3*
X825214D3*
X725214Y3131816D3*
X825214D3*
X725214Y3031816D3*
X825214D3*
X725214Y2931816D3*
X825214D3*
X725214Y2831816D3*
X825214D3*
X725214Y2731816D3*
X825214D3*
D38*
X1494045Y3531816D3*
D36*
X1594045D3*
X1494045Y3431816D3*
X1594045D3*
X1494045Y3331816D3*
X1594045D3*
X1494045Y3231816D3*
X1594045D3*
X1494045Y3131816D3*
X1594045D3*
X1494045Y3031816D3*
X1594045D3*
X1494045Y2931816D3*
X1594045D3*
X1494045Y2831816D3*
X1594045D3*
X1494045Y2731816D3*
X1594045D3*
D38*
X2575408Y2600469D3*
D36*
X2675408D3*
X2575408Y2500469D3*
X2675408D3*
X2575408Y2400469D3*
X2675408D3*
X2575408Y2300469D3*
X2675408D3*
X2575408Y2200469D3*
X2675408D3*
X2575408Y2100469D3*
X2675408D3*
X2575408Y2000469D3*
X2675408D3*
X2575408Y1900469D3*
X2675408D3*
X2575408Y1800469D3*
X2675408D3*
D38*
X3350490Y2600469D3*
D36*
X3450490D3*
X3350490Y2500469D3*
X3450490D3*
X3350490Y2400469D3*
X3450490D3*
X3350490Y2300469D3*
X3450490D3*
X3350490Y2200469D3*
X3450490D3*
X3350490Y2100469D3*
X3450490D3*
X3350490Y2000469D3*
X3450490D3*
X3350490Y1900469D3*
X3450490D3*
X3350490Y1800469D3*
X3450490D3*
D34*
X2056604Y1506604D3*
D32*
Y1406604D3*
Y1306604D3*
X2156604D3*
Y1406604D3*
Y1506604D3*
D34*
X2056604Y3319294D3*
D32*
Y3219294D3*
Y3119294D3*
X2156604D3*
Y3219294D3*
Y3319294D3*
D34*
X2056604Y2412949D3*
D32*
Y2312949D3*
Y2212949D3*
X2156604D3*
Y2312949D3*
Y2412949D3*
D25*
X3862749Y3862749D3*
X475251D3*
X3862749Y475249D3*
X475251Y475251D3*
D38*
X825224Y2631722D3*
D36*
X725224D3*
D38*
X1594055Y912791D3*
D36*
X1494055D3*
D38*
X1594055Y2631722D3*
D36*
X1494055D3*
D38*
X825224Y912791D3*
D36*
X725224D3*
D38*
X3450500Y1700374D3*
D36*
X3350500D3*
D38*
X2675419D3*
D36*
X2575419D3*
X2937946Y1175319D3*
Y1075308D3*
D38*
X1156509Y3375550D3*
D36*
Y3275550D3*
Y3175550D3*
Y3075550D3*
Y2975550D3*
Y2875550D3*
Y2775550D3*
Y2675550D3*
D38*
X3055142Y2835220D3*
D36*
Y2935220D3*
Y3035220D3*
Y3135220D3*
Y3235220D3*
Y3335220D3*
Y3435220D3*
Y3535220D3*
Y3635220D3*
Y3735220D3*
D38*
Y1975375D3*
D36*
Y2075375D3*
Y2175375D3*
Y2275375D3*
Y2375375D3*
Y2475375D3*
Y2575375D3*
Y2675375D3*
M02*
