G04 DipTrace 3.0.0.1*
G04 arduino-shield_lay.GBL*
%MOIN*%
G04 #@! TF.FileFunction,Copper,L2,Bot*
G04 #@! TF.Part,Single*
G04 #@! TA.AperFunction,Conductor*
%ADD14C,0.008*%
G04 #@! TA.AperFunction,CopperBalancing*
%ADD15C,0.025*%
G04 #@! TA.AperFunction,ComponentPad*
%ADD18R,0.066929X0.066929*%
%ADD19C,0.066929*%
%ADD20R,0.068898X0.068898*%
%ADD21C,0.068898*%
%ADD22R,0.03937X0.043307*%
G04 #@! TA.AperFunction,ViaPad*
%ADD23C,0.04*%
%FSLAX26Y26*%
G04*
G70*
G90*
G75*
G01*
G04 Bottom*
%LPD*%
X2550406Y3619325D2*
D14*
Y3613075D1*
X2637915D1*
X2644165Y3606824D1*
X2550406Y3613075D2*
X2531654D1*
X2187867Y3269289D1*
X2106609D1*
X2056604Y3319294D1*
Y3219294D1*
X1156509Y2975550D2*
X1237726D1*
X1331528Y2881748D1*
X1519047D1*
X1544050Y2906751D1*
Y3281811D1*
X1494045Y3331816D1*
X2056604Y1506604D2*
Y1406604D1*
Y2412949D2*
Y2312949D1*
X3531759Y3438077D2*
X3569283D1*
X3619268Y3488062D1*
Y3644328D1*
X3538009Y3725587D1*
X3144218D1*
X3106714Y3688083D1*
X2994202D1*
X2912944Y3606824D1*
X2644165D1*
X725224Y1612802D2*
X775219Y1662797D1*
Y1962902D1*
X893982Y2081664D1*
Y2775487D1*
X1094045Y2975550D1*
X1156509D1*
X1494045Y1612886D2*
X1487773D1*
X1425287Y1675371D1*
X1244018D1*
X825224Y1212802D2*
X806451D1*
X756467Y1162818D1*
X706462D1*
X662707Y1119063D1*
Y856535D1*
X931486Y587757D1*
X1600306D1*
X1637810Y625261D1*
Y657928D1*
X1655142Y675260D1*
X825214Y2931816D2*
X806535D1*
X756467Y2881748D1*
X656457D1*
X556446Y2781738D1*
Y800280D1*
X862726Y494000D1*
X1881588D1*
X2062848Y675260D1*
X2055142D1*
X2675408Y2000469D2*
X2787867D1*
X2894192Y1894144D1*
Y1412844D1*
X2944197Y1362839D1*
X3042657D1*
X3055142Y1375323D1*
X825224Y1312802D2*
X800190D1*
X750217Y1262828D1*
X700211D1*
X643955Y1206572D1*
Y850285D1*
X925235Y569005D1*
X1619058D1*
X1725312Y675260D1*
X1755142D1*
X825214Y3031816D2*
X794024D1*
X750217Y2988009D1*
X625203D1*
X537694Y2900500D1*
Y787778D1*
X850222Y475249D1*
X1931594D1*
X2100358Y644013D1*
Y720476D1*
X2155142Y775260D1*
X2675408Y2100469D2*
X2825382D1*
X2931696Y1994155D1*
Y1537857D1*
X2994230Y1475323D1*
X3055142D1*
X825224Y1512802D2*
X793919D1*
X750217Y1469100D1*
X681459D1*
X606451Y1394092D1*
Y837783D1*
X912734Y531501D1*
X1806577D1*
X1900337Y625261D1*
X1905143D1*
X1955142Y675260D1*
X825214Y3231816D2*
X794003D1*
X743966Y3181780D1*
X606451D1*
X500190Y3075518D1*
Y762776D1*
X831466Y431500D1*
X2011382D1*
X2255142Y675260D1*
X2675408Y2300469D2*
X2925413D1*
X2994202Y2231680D1*
Y1736262D1*
X3055142Y1675323D1*
X825214Y3131816D2*
X794013D1*
X743966Y3081769D1*
X618953D1*
X518942Y2981759D1*
Y775277D1*
X837719Y456500D1*
X1969101D1*
X2144113Y631512D1*
Y664231D1*
X2155142Y675260D1*
X2675408Y2200469D2*
X2912902D1*
X2969199Y2144171D1*
Y1619115D1*
X3000453Y1587862D1*
X3042602D1*
X3055142Y1575323D1*
X1594045Y1612886D2*
Y1619126D1*
X1550301Y1662870D1*
Y2094165D1*
X1694066Y2237930D1*
Y3263038D1*
X1625287Y3331816D1*
X1594045D1*
X725224Y1512802D2*
Y1519115D1*
X768969Y1562860D1*
X1006493D1*
X1069000Y1625366D1*
X1287234D1*
X1350280D1*
X1462760Y1512886D1*
X1494045D1*
Y3231816D2*
X1287773D1*
X2575408Y2300469D2*
X2594192D1*
X2644165Y2350442D1*
X2719173D1*
X2737925Y2331690D1*
X2950448D1*
X725214Y3231816D2*
X731496D1*
X775219Y3275539D1*
X1031496D1*
X1081501Y3325545D1*
X1194045D1*
X1287773Y3231816D1*
X725224Y1412802D2*
X731423D1*
X775219Y1456598D1*
X1018995D1*
X1081501Y1519105D1*
X1333601D1*
X1387825D1*
X1494045Y1412886D1*
X2575408Y2200469D2*
X2575450D1*
X2625413Y2250432D1*
X2912944D1*
X2931696Y2231680D1*
X1494045Y3131816D2*
X1331528Y3131774D1*
X725214Y3131816D2*
Y3125524D1*
X781470Y3181780D1*
X1037747D1*
X1081501Y3225534D1*
X1175261D1*
X1269021Y3131774D1*
X1331528D1*
X725224Y1012802D2*
X737715D1*
X787720Y1062807D1*
X1143949D1*
X1156520Y1075378D1*
X1494045Y1012886D2*
Y1031554D1*
X1250220Y1275378D1*
X1156520D1*
X1494045Y2731816D2*
Y2712982D1*
X1156520Y2375457D1*
X2575408Y1800469D2*
X2581575D1*
X2631664Y1750379D1*
Y1519105D1*
X2600411Y1487852D1*
Y600259D1*
X2762928Y1387841D2*
X2687920D1*
X2650416Y1350337D1*
Y887789D1*
X2706672Y831533D1*
Y606509D1*
X3387993Y662765D2*
X3481753Y756525D1*
Y1506604D1*
X3231727Y1756630D1*
Y2198790D1*
X3055142Y2375375D1*
X1594045Y1812886D2*
X1737820D1*
X1800327Y1750379D1*
Y730075D1*
X1855142Y675260D1*
X1594045Y3531816D2*
X1606556D1*
X1919089Y3219283D1*
Y1469100D1*
X2031601Y1356588D1*
X2075356D1*
X2106609Y1325335D1*
Y1175319D1*
X2400390Y881538D1*
Y569005D1*
X2469147Y500248D1*
X3037957D1*
X3356740Y819031D1*
Y1550358D1*
X3144218Y1762881D1*
Y2119168D1*
X3088010Y2175375D1*
X3055142D1*
X2675408Y2600469D2*
X2687920D1*
X3022672Y2935220D1*
X3055142D1*
X3450490Y2600469D2*
Y2606730D1*
X3406745Y2650474D1*
X3150469D1*
X3055142Y2555147D1*
Y2575375D1*
X825224Y1112802D2*
X793961D1*
X743966Y1062807D1*
X700211D1*
X681459Y1044055D1*
Y862786D1*
X937736Y606509D1*
X1581554D1*
X1600306Y625261D1*
Y725272D1*
X1650294Y775260D1*
X1655142D1*
X825214Y2831816D2*
X812797D1*
X756467Y2775487D1*
X662707D1*
X575198Y2687978D1*
Y806530D1*
X868978Y512749D1*
X1862833D1*
X2006598Y656514D1*
Y726717D1*
X2055142Y775260D1*
X2675408Y1900469D2*
X2787857D1*
X2856688Y1831638D1*
Y1387841D1*
X2950448Y1294081D1*
X3036383D1*
X3055142Y1275323D1*
X725224Y1212802D2*
X731444D1*
X775219Y1256577D1*
X1037747D1*
X1100253Y1319084D1*
X1356530D1*
X1462728Y1212886D1*
X1494045D1*
X725214Y2931816D2*
X737778D1*
X787720Y2981759D1*
X1043997D1*
X1094003Y3031764D1*
X1225266D1*
X1319026Y2938004D1*
X1487857D1*
X1494045Y2931816D1*
X2550406Y3686255D2*
X2936118D1*
X2985084Y3735220D1*
X3055142D1*
X2550406Y3686255D2*
Y3688083D1*
X2506651D1*
X2156604Y3338035D1*
Y3319294D1*
X2644165Y3539895D2*
X2959816D1*
X3055142Y3635220D1*
X2644165Y3539895D2*
X2633492D1*
X2631664Y3538067D1*
X2594160D1*
X2262875Y3206782D1*
X2156604D1*
Y3219294D1*
Y3206782D2*
X2231622D1*
Y2312949D1*
Y1469100D1*
X2162865Y1400343D1*
X2156604Y1406604D1*
Y2312949D2*
X2231622D1*
X3325487Y650264D2*
X3456751Y781528D1*
Y1494102D1*
X3200474Y1750379D1*
Y2130043D1*
X3055142Y2275375D1*
X2775429Y2625471D2*
X2769178D1*
X2978928Y2835220D1*
X3055142D1*
Y2475375D2*
X3225556D1*
X3250479Y2450453D1*
X3362991D1*
X3406745Y2406698D1*
Y1850390D1*
X3450490Y1806646D1*
Y1800469D1*
X725224Y1112802D2*
X750206D1*
X800222Y1162818D1*
X1143959D1*
X1156520Y1175378D1*
X1494045Y1112886D2*
X1494118D1*
X1537799Y1156567D1*
Y1250327D1*
X1525298Y1262828D1*
X1475293D1*
X1369031Y1369089D1*
X1162808D1*
X1156520Y1375378D1*
X1494045Y2831816D2*
X1406609D1*
X1244018Y2669226D1*
Y2562955D1*
X1156520Y2475457D1*
X2575408Y1900469D2*
X2569231D1*
X2506651Y1837888D1*
Y600259D1*
X2700421Y1312833D2*
Y944045D1*
X2800432Y844034D1*
Y606509D1*
X725224Y1312802D2*
X769010Y1356588D1*
X1018995D1*
X1087752Y1425345D1*
X1381585D1*
X1383215Y1423715D1*
X1494045Y1312886D1*
X725214Y3031816D2*
Y3025513D1*
X781470Y3081769D1*
X1031496D1*
X1075251Y3125524D1*
X1225266D1*
X1319026Y3031764D1*
X1381533D1*
X1494045Y3031816D2*
X1381533Y3031764D1*
X2575408Y2100469D2*
X2581711D1*
X2625413Y2144171D1*
X2912944D1*
X2937946Y2119168D1*
D23*
X1244018Y1675371D3*
X1287773Y3231816D3*
X2950448Y2331690D3*
X1287234Y1625366D3*
X2931696Y2231680D3*
X1331528Y3131774D3*
D3*
X1333601Y1519105D3*
X2600411Y600259D3*
X2762928Y1387841D3*
X2706672Y606509D3*
X3387993Y662765D3*
X3325487Y650264D3*
X2775429Y2625471D3*
X2506651Y600259D3*
X2700421Y1312833D3*
X2800432Y606509D3*
X1381533Y3031764D3*
D3*
X2937946Y2119168D3*
X1383215Y1423715D3*
X569522Y3875382D2*
D15*
X3703975D1*
X569571Y3850513D2*
X3703975D1*
X562638Y3825644D2*
X3703975D1*
X546573Y3800776D2*
X3703975D1*
X510001Y3775907D2*
X3008419D1*
X3101846D2*
X3703975D1*
X490274Y3751038D2*
X2955098D1*
X3557510D2*
X3703975D1*
X490274Y3726169D2*
X2501631D1*
X2599210D2*
X2930245D1*
X3583194D2*
X3703975D1*
X490274Y3701301D2*
X2474093D1*
X3608097D2*
X3703975D1*
X490274Y3676432D2*
X2449190D1*
X3140861D2*
X3469161D1*
X3632950D2*
X3703975D1*
X490274Y3651563D2*
X2424337D1*
X3115470D2*
X3469161D1*
X3651505D2*
X3703975D1*
X490274Y3626694D2*
X2399483D1*
X3117130D2*
X3469161D1*
X3652383D2*
X3703975D1*
X490274Y3601825D2*
X2374581D1*
X3107559D2*
X3469161D1*
X3652383D2*
X3703975D1*
X490274Y3576957D2*
X662618D1*
X867374D2*
X1431466D1*
X1636173D2*
X2349727D1*
X3100870D2*
X3586154D1*
X3652383D2*
X3703975D1*
X490274Y3552088D2*
X662618D1*
X884269D2*
X1431466D1*
X1653117D2*
X2324874D1*
X3115323D2*
X3586154D1*
X3652383D2*
X3703975D1*
X490274Y3527219D2*
X662618D1*
X887589D2*
X1431466D1*
X1656925D2*
X2300021D1*
X3117178D2*
X3169161D1*
X3294278D2*
X3586154D1*
X3652383D2*
X3703975D1*
X490274Y3502350D2*
X662618D1*
X880070D2*
X1431466D1*
X1681827D2*
X2275118D1*
X2692959D2*
X3002365D1*
X3107950D2*
X3169161D1*
X3294278D2*
X3586154D1*
X3652383D2*
X3703975D1*
X490274Y3477482D2*
X662618D1*
X866739D2*
X1431466D1*
X1706681D2*
X2250265D1*
X2579386D2*
X3036055D1*
X3074210D2*
X3169161D1*
X3294278D2*
X3483907D1*
X3650479D2*
X3703975D1*
X490274Y3452613D2*
X666378D1*
X884073D2*
X1435177D1*
X1731534D2*
X2225411D1*
X2554483D2*
X3169161D1*
X3294278D2*
X3470967D1*
X3629630D2*
X3703975D1*
X490274Y3427744D2*
X662765D1*
X887638D2*
X1093917D1*
X1219083D2*
X1431613D1*
X1756437D2*
X2200509D1*
X2529630D2*
X3470089D1*
X3604727D2*
X3703975D1*
X490274Y3402875D2*
X670089D1*
X880362D2*
X1093917D1*
X1219083D2*
X1438887D1*
X1649210D2*
X1689718D1*
X1781290D2*
X2175655D1*
X2504777D2*
X3480587D1*
X3582950D2*
X3703975D1*
X490274Y3378007D2*
X684298D1*
X766105D2*
X796017D1*
X854434D2*
X1093917D1*
X1219083D2*
X1453146D1*
X1534953D2*
X1564815D1*
X1623234D2*
X1714571D1*
X1806143D2*
X1993038D1*
X2120157D2*
X2137325D1*
X2479874D2*
X3010470D1*
X3099795D2*
X3703975D1*
X490274Y3353138D2*
X666573D1*
X783878D2*
X1065743D1*
X1219083D2*
X1435373D1*
X1552726D2*
X1739425D1*
X1831046D2*
X1993038D1*
X2455021D2*
X2995285D1*
X3114982D2*
X3703975D1*
X490274Y3328269D2*
X662765D1*
X787686D2*
X1038449D1*
X1237101D2*
X1431563D1*
X1556534D2*
X1764327D1*
X1855899D2*
X1993038D1*
X2430167D2*
X2992990D1*
X3117325D2*
X3184591D1*
X3278849D2*
X3703975D1*
X490274Y3303400D2*
X669795D1*
X1261954D2*
X1438594D1*
X1568253D2*
X1789181D1*
X1880753D2*
X1993038D1*
X2405265D2*
X3001681D1*
X3108585D2*
X3171163D1*
X3292325D2*
X3469161D1*
X3594327D2*
X3703975D1*
X490274Y3278531D2*
X684933D1*
X1286857D2*
X1453781D1*
X1634318D2*
X1814034D1*
X1905606D2*
X1993038D1*
X2380411D2*
X3011007D1*
X3099259D2*
X3169894D1*
X3293546D2*
X3469161D1*
X3594327D2*
X3703975D1*
X490274Y3253663D2*
X666769D1*
X1652530D2*
X1838937D1*
X1930509D2*
X2003634D1*
X2355558D2*
X2995479D1*
X3114835D2*
X3179953D1*
X3283487D2*
X3469161D1*
X3594327D2*
X3703975D1*
X490274Y3228794D2*
X662715D1*
X1656534D2*
X1863790D1*
X1950675D2*
X1993770D1*
X2330655D2*
X2992891D1*
X3117374D2*
X3219406D1*
X3244034D2*
X3469161D1*
X3594327D2*
X3703975D1*
X490274Y3203925D2*
X582833D1*
X1649747D2*
X1885958D1*
X1952189D2*
X1994991D1*
X2305802D2*
X3001339D1*
X3108927D2*
X3469161D1*
X3594327D2*
X3703975D1*
X490274Y3179056D2*
X557930D1*
X1633634D2*
X1885958D1*
X1952189D2*
X2008175D1*
X2278361D2*
X3011543D1*
X3098722D2*
X3703975D1*
X490274Y3154188D2*
X533077D1*
X1652286D2*
X1885958D1*
X1952189D2*
X2198507D1*
X2264738D2*
X2995626D1*
X3114639D2*
X3703975D1*
X490274Y3129319D2*
X508251D1*
X1656583D2*
X1885958D1*
X1952189D2*
X2198507D1*
X2264738D2*
X2992843D1*
X3117423D2*
X3703975D1*
X1650041Y3104450D2*
X1885958D1*
X1952189D2*
X2198507D1*
X2264738D2*
X3001046D1*
X3109219D2*
X3502755D1*
X3560782D2*
X3703975D1*
X1632999Y3079581D2*
X1885958D1*
X1952189D2*
X2198507D1*
X2264738D2*
X3012130D1*
X3098135D2*
X3476681D1*
X3586857D2*
X3703975D1*
X1652091Y3054713D2*
X1885958D1*
X1952189D2*
X2198507D1*
X2264738D2*
X2995822D1*
X3114445D2*
X3469307D1*
X3594181D2*
X3703975D1*
X1656583Y3029844D2*
X1885958D1*
X1952189D2*
X2198507D1*
X2264738D2*
X2992794D1*
X3117471D2*
X3472873D1*
X3590665D2*
X3703975D1*
X1650285Y3004975D2*
X1885958D1*
X1952189D2*
X2198507D1*
X2264738D2*
X3000753D1*
X3109562D2*
X3490109D1*
X3573429D2*
X3703975D1*
X1632266Y2980106D2*
X1885958D1*
X1952189D2*
X2198507D1*
X2264738D2*
X3012715D1*
X3097550D2*
X3703975D1*
X1651846Y2955238D2*
X1885958D1*
X1952189D2*
X2198507D1*
X2264738D2*
X2996017D1*
X3114298D2*
X3703975D1*
X1094669Y2930369D2*
X1114425D1*
X1198625D2*
X1237130D1*
X1656583D2*
X1885958D1*
X1952189D2*
X2198507D1*
X2264738D2*
X2972042D1*
X3117521D2*
X3703975D1*
X1069766Y2905500D2*
X1261983D1*
X1650529D2*
X1885958D1*
X1952189D2*
X2198507D1*
X2264738D2*
X2947139D1*
X3109854D2*
X3703975D1*
X1044913Y2880631D2*
X1286837D1*
X1631583D2*
X1885958D1*
X1952189D2*
X2198507D1*
X2264738D2*
X2922286D1*
X3117715D2*
X3703975D1*
X1020059Y2855762D2*
X1312862D1*
X1651651D2*
X1885958D1*
X1952189D2*
X2198507D1*
X2264738D2*
X2897433D1*
X3117715D2*
X3703975D1*
X995157Y2830894D2*
X1359883D1*
X1656631D2*
X1885958D1*
X1952189D2*
X2198507D1*
X2264738D2*
X2872579D1*
X3117715D2*
X3703975D1*
X970303Y2806025D2*
X1335030D1*
X1650822D2*
X1885958D1*
X1952189D2*
X2198507D1*
X2264738D2*
X2847677D1*
X3117715D2*
X3703975D1*
X945450Y2781156D2*
X1310177D1*
X1630802D2*
X1885958D1*
X1952189D2*
X2198507D1*
X2264738D2*
X2822823D1*
X2970646D2*
X2992550D1*
X3117715D2*
X3703975D1*
X927091Y2756287D2*
X1285274D1*
X1651407D2*
X1885958D1*
X1952189D2*
X2198507D1*
X2264738D2*
X2797970D1*
X2945791D2*
X3703975D1*
X927091Y2731419D2*
X1131906D1*
X1181094D2*
X1260421D1*
X1656631D2*
X1885958D1*
X1952189D2*
X2198507D1*
X2264738D2*
X2773067D1*
X2920938D2*
X3031026D1*
X3079289D2*
X3703975D1*
X927091Y2706550D2*
X1102559D1*
X1210490D2*
X1235567D1*
X1651066D2*
X1885958D1*
X1952189D2*
X2198507D1*
X2264738D2*
X2748214D1*
X2896037D2*
X3001290D1*
X3108975D2*
X3703975D1*
X927091Y2681681D2*
X1094259D1*
X1656631D2*
X1885958D1*
X1952189D2*
X2198507D1*
X2264738D2*
X2723361D1*
X2871182D2*
X2992891D1*
X3117374D2*
X3703975D1*
X927091Y2656812D2*
X1096945D1*
X1656631D2*
X1885958D1*
X1952189D2*
X2198507D1*
X2264738D2*
X2512814D1*
X2637979D2*
X2652071D1*
X2846329D2*
X2995529D1*
X3473819D2*
X3703975D1*
X927091Y2631944D2*
X1112667D1*
X1656631D2*
X1885958D1*
X1952189D2*
X2198507D1*
X2264738D2*
X2512814D1*
X2824063D2*
X3011154D1*
X3504142D2*
X3703975D1*
X927091Y2607075D2*
X1210909D1*
X1656631D2*
X1885958D1*
X1952189D2*
X2198507D1*
X2264738D2*
X2512814D1*
X2820743D2*
X3001631D1*
X3512686D2*
X3703975D1*
X927091Y2582206D2*
X1210909D1*
X1409073D2*
X1457541D1*
X1656631D2*
X1885958D1*
X1952189D2*
X2198507D1*
X2264738D2*
X2512814D1*
X2735147D2*
X2755587D1*
X2795255D2*
X2992941D1*
X3510245D2*
X3703975D1*
X927091Y2557337D2*
X1192598D1*
X1384171D2*
X1885958D1*
X1952189D2*
X2198507D1*
X2264738D2*
X2512814D1*
X2719718D2*
X2995333D1*
X3494815D2*
X3703975D1*
X927091Y2532469D2*
X1093966D1*
X1359318D2*
X1885958D1*
X1952189D2*
X2198507D1*
X2264738D2*
X2522042D1*
X2728751D2*
X3010617D1*
X3503849D2*
X3703975D1*
X927091Y2507600D2*
X1093966D1*
X1334463D2*
X1885958D1*
X1952189D2*
X2198507D1*
X2264738D2*
X2513253D1*
X2737541D2*
X3001925D1*
X3512638D2*
X3703975D1*
X927091Y2482731D2*
X1093966D1*
X1309562D2*
X1885958D1*
X1952189D2*
X2198507D1*
X2264738D2*
X2515499D1*
X2735294D2*
X2993038D1*
X3510391D2*
X3703975D1*
X927091Y2457862D2*
X1093966D1*
X1284709D2*
X1885958D1*
X1952189D2*
X1993038D1*
X2264738D2*
X2530538D1*
X2720255D2*
X2995186D1*
X3495353D2*
X3703975D1*
X927091Y2432993D2*
X1093966D1*
X1259854D2*
X1885958D1*
X1952189D2*
X1993038D1*
X2264738D2*
X2522383D1*
X2628409D2*
X3010079D1*
X3426261D2*
X3703975D1*
X927091Y2408125D2*
X1103585D1*
X1235001D2*
X1885958D1*
X1952189D2*
X1993038D1*
X2264738D2*
X2513302D1*
X2637491D2*
X3002266D1*
X3439835D2*
X3703975D1*
X927091Y2383256D2*
X1094454D1*
X1218594D2*
X1885958D1*
X1952189D2*
X1993038D1*
X2264738D2*
X2515353D1*
X2635441D2*
X2993087D1*
X3439835D2*
X3703975D1*
X927091Y2358387D2*
X1096407D1*
X1216642D2*
X1885958D1*
X1952189D2*
X1993038D1*
X2264738D2*
X2530050D1*
X3468937D2*
X3703975D1*
X927091Y2333518D2*
X1111007D1*
X1202042D2*
X1885958D1*
X1952189D2*
X1996602D1*
X2264738D2*
X2522726D1*
X3503165D2*
X3703975D1*
X927091Y2308650D2*
X1103927D1*
X1209073D2*
X1885958D1*
X1952189D2*
X1993185D1*
X2264738D2*
X2513399D1*
X3512491D2*
X3703975D1*
X927091Y2283781D2*
X1094503D1*
X1218497D2*
X1885958D1*
X1952189D2*
X2000459D1*
X2264738D2*
X2515206D1*
X3510685D2*
X3703975D1*
X927091Y2258912D2*
X1096261D1*
X1216789D2*
X1885958D1*
X1952189D2*
X2025655D1*
X2087541D2*
X2125655D1*
X2264738D2*
X2529513D1*
X3496378D2*
X3703975D1*
X927091Y2234043D2*
X1110518D1*
X1202530D2*
X1885958D1*
X1952189D2*
X2198507D1*
X2264738D2*
X2523067D1*
X3502823D2*
X3703975D1*
X927091Y2209175D2*
X1104318D1*
X1208731D2*
X1885958D1*
X1952189D2*
X2198507D1*
X2264738D2*
X2513449D1*
X3512442D2*
X3703975D1*
X927091Y2184306D2*
X1094601D1*
X1218449D2*
X1885958D1*
X1952189D2*
X2198507D1*
X2264738D2*
X2515059D1*
X3510831D2*
X3703975D1*
X927091Y2159437D2*
X1096114D1*
X1216934D2*
X1885958D1*
X1952189D2*
X2198507D1*
X2264738D2*
X2529025D1*
X3496866D2*
X3703975D1*
X927091Y2134568D2*
X1110030D1*
X1203018D2*
X1885958D1*
X1952189D2*
X2198507D1*
X2264738D2*
X2523458D1*
X3502433D2*
X3703975D1*
X927091Y2109699D2*
X1104659D1*
X1208390D2*
X1885958D1*
X1952189D2*
X2198507D1*
X2264738D2*
X2513546D1*
X3512345D2*
X3703975D1*
X927091Y2084831D2*
X1094698D1*
X1218350D2*
X1885958D1*
X1952189D2*
X2198507D1*
X2264738D2*
X2514913D1*
X3510978D2*
X3703975D1*
X918058Y2059962D2*
X1095967D1*
X1217081D2*
X1885958D1*
X1952189D2*
X2198507D1*
X2264738D2*
X2528537D1*
X3497354D2*
X3703975D1*
X893205Y2035093D2*
X1109542D1*
X1203507D2*
X1885958D1*
X1952189D2*
X2198507D1*
X2264738D2*
X2523799D1*
X3502091D2*
X3703975D1*
X868350Y2010224D2*
X1105050D1*
X1207999D2*
X1885958D1*
X1952189D2*
X2198507D1*
X2264738D2*
X2513643D1*
X3512247D2*
X3703975D1*
X843449Y1985356D2*
X1094747D1*
X1218253D2*
X1885958D1*
X1952189D2*
X2198507D1*
X2264738D2*
X2514766D1*
X3511125D2*
X3703975D1*
X818594Y1960487D2*
X1095822D1*
X1217178D2*
X1885958D1*
X1952189D2*
X2198507D1*
X2264738D2*
X2528047D1*
X3497843D2*
X3703975D1*
X808341Y1935618D2*
X1109054D1*
X1203995D2*
X1885958D1*
X1952189D2*
X2198507D1*
X2264738D2*
X2524190D1*
X3501701D2*
X3703975D1*
X808341Y1910749D2*
X1105391D1*
X1207657D2*
X1885958D1*
X1952189D2*
X2198507D1*
X2264738D2*
X2513741D1*
X3512198D2*
X3703975D1*
X808341Y1885881D2*
X1094845D1*
X1218205D2*
X1885958D1*
X1952189D2*
X2198507D1*
X2264738D2*
X2508858D1*
X3511270D2*
X3703975D1*
X863566Y1861012D2*
X1095723D1*
X1217325D2*
X1431466D1*
X1632510D2*
X1885958D1*
X1952189D2*
X2198507D1*
X2264738D2*
X2484005D1*
X3498282D2*
X3703975D1*
X883097Y1836143D2*
X1108614D1*
X1204434D2*
X1431466D1*
X1760245D2*
X1885958D1*
X1952189D2*
X2198507D1*
X2264738D2*
X2473555D1*
X3501310D2*
X3703975D1*
X887785Y1811274D2*
X1105782D1*
X1207266D2*
X1431466D1*
X1785245D2*
X1885958D1*
X1952189D2*
X2198507D1*
X2264738D2*
X2473555D1*
X3512101D2*
X3703975D1*
X881681Y1786406D2*
X1094942D1*
X1218106D2*
X1431466D1*
X1810098D2*
X1885958D1*
X1952189D2*
X2198507D1*
X2264738D2*
X2473555D1*
X3511417D2*
X3703975D1*
X862833Y1761537D2*
X1095577D1*
X1217471D2*
X1431466D1*
X1631778D2*
X1743379D1*
X1831339D2*
X1885958D1*
X1952189D2*
X2198507D1*
X2264738D2*
X2473555D1*
X3498722D2*
X3703975D1*
X882853Y1736668D2*
X1108126D1*
X1204874D2*
X1436398D1*
X1651701D2*
X1767209D1*
X1833438D2*
X1885958D1*
X1952189D2*
X2198507D1*
X2264738D2*
X2473555D1*
X3513077D2*
X3703975D1*
X887785Y1711799D2*
X1212423D1*
X1275577D2*
X1431466D1*
X1656631D2*
X1767209D1*
X1833438D2*
X1885958D1*
X1952189D2*
X2198507D1*
X2264738D2*
X2473555D1*
X3513077D2*
X3703975D1*
X881925Y1686930D2*
X1196358D1*
X1650723D2*
X1767209D1*
X1833438D2*
X1885958D1*
X1952189D2*
X2198507D1*
X2264738D2*
X2473555D1*
X3513077D2*
X3703975D1*
X859903Y1662062D2*
X1196846D1*
X1531046D2*
X1559493D1*
X1628555D2*
X1767209D1*
X1833438D2*
X1885958D1*
X1952189D2*
X2198507D1*
X2264738D2*
X2473555D1*
X3513077D2*
X3703975D1*
X795402Y1637193D2*
X1035030D1*
X1551505D2*
X1767209D1*
X1833438D2*
X1885958D1*
X1952189D2*
X2198507D1*
X2264738D2*
X2473555D1*
X3396963D2*
X3703975D1*
X787785Y1612324D2*
X1010177D1*
X1556631D2*
X1767209D1*
X1833438D2*
X1885958D1*
X1952189D2*
X2198507D1*
X2264738D2*
X2473555D1*
X3421818D2*
X3703975D1*
X1550967Y1587455D2*
X1767209D1*
X1833438D2*
X1885958D1*
X1952189D2*
X2198507D1*
X2264738D2*
X2473555D1*
X3446671D2*
X3703975D1*
X1530314Y1562587D2*
X1557785D1*
X1630314D2*
X1767209D1*
X1833438D2*
X1885958D1*
X1952189D2*
X1993038D1*
X2183487D2*
X2198507D1*
X2264738D2*
X2473555D1*
X3471573D2*
X3703975D1*
X1651261Y1537718D2*
X1767209D1*
X1833438D2*
X1885958D1*
X1952189D2*
X1993038D1*
X2264738D2*
X2473555D1*
X3496427D2*
X3703975D1*
X1656631Y1512849D2*
X1767209D1*
X1833438D2*
X1885958D1*
X1952189D2*
X1993038D1*
X2264738D2*
X2473555D1*
X3514201D2*
X3703975D1*
X1651211Y1487980D2*
X1767209D1*
X1833438D2*
X1885958D1*
X1952189D2*
X1993038D1*
X2264738D2*
X2473555D1*
X3389835D2*
X3417062D1*
X3514883D2*
X3703975D1*
X1630167Y1463112D2*
X1767209D1*
X1833438D2*
X1886593D1*
X1970890D2*
X1993038D1*
X2264151D2*
X2473555D1*
X3389835D2*
X3423654D1*
X3514883D2*
X3703975D1*
X1651017Y1438243D2*
X1767209D1*
X1833438D2*
X1904171D1*
X2246573D2*
X2473555D1*
X3389835D2*
X3423654D1*
X3514883D2*
X3703975D1*
X1656631Y1413374D2*
X1767209D1*
X1833438D2*
X1929025D1*
X2221671D2*
X2473555D1*
X3389835D2*
X3423654D1*
X3514883D2*
X3703975D1*
X1651457Y1388505D2*
X1767209D1*
X1833438D2*
X1953878D1*
X2217423D2*
X2473555D1*
X3389835D2*
X3423654D1*
X3514883D2*
X3703975D1*
X1630949Y1363636D2*
X1767209D1*
X1833438D2*
X1978781D1*
X2202482D2*
X2473555D1*
X3389835D2*
X3423654D1*
X3514883D2*
X3703975D1*
X1650773Y1338768D2*
X1767209D1*
X1833438D2*
X2003634D1*
X2136613D2*
X2473555D1*
X3389835D2*
X3423654D1*
X3514883D2*
X3703975D1*
X1656631Y1313899D2*
X1767209D1*
X1833438D2*
X2072238D1*
X2139738D2*
X2473555D1*
X3389835D2*
X3423654D1*
X3514883D2*
X3703975D1*
X1651701Y1289030D2*
X1767209D1*
X1833438D2*
X2073507D1*
X2139738D2*
X2473555D1*
X3389835D2*
X3423654D1*
X3514883D2*
X3703975D1*
X1631681Y1264161D2*
X1767209D1*
X1833438D2*
X2073507D1*
X2139738D2*
X2473555D1*
X3389835D2*
X3423654D1*
X3514883D2*
X3703975D1*
X1207071Y1239293D2*
X1240499D1*
X1650529D2*
X1767209D1*
X1833438D2*
X2073507D1*
X2139738D2*
X2473555D1*
X3389835D2*
X3423654D1*
X3514883D2*
X3703975D1*
X1204678Y1214424D2*
X1265402D1*
X1656583D2*
X1767209D1*
X1833438D2*
X2073507D1*
X2139738D2*
X2473555D1*
X3389835D2*
X3423654D1*
X3514883D2*
X3703975D1*
X1217374Y1189555D2*
X1290255D1*
X1651895D2*
X1767209D1*
X1833438D2*
X2073507D1*
X2139738D2*
X2473555D1*
X3389835D2*
X3423654D1*
X3514883D2*
X3703975D1*
X1218155Y1164686D2*
X1315109D1*
X1632413D2*
X1767209D1*
X1833438D2*
X2075411D1*
X2163029D2*
X2473555D1*
X3389835D2*
X3423654D1*
X3514883D2*
X3703975D1*
X1207462Y1139818D2*
X1340010D1*
X1650235D2*
X1767209D1*
X1833438D2*
X2096310D1*
X2187882D2*
X2473555D1*
X3389835D2*
X3423654D1*
X3514883D2*
X3703975D1*
X1204239Y1114949D2*
X1364865D1*
X1656583D2*
X1767209D1*
X1833438D2*
X2121211D1*
X2212785D2*
X2473555D1*
X3389835D2*
X3423654D1*
X3514883D2*
X3703975D1*
X1217277Y1090080D2*
X1389718D1*
X1652139D2*
X1767209D1*
X1833438D2*
X2146066D1*
X2237638D2*
X2473555D1*
X3389835D2*
X3423654D1*
X3514883D2*
X3703975D1*
X1218205Y1065211D2*
X1414621D1*
X1633097D2*
X1767209D1*
X1833438D2*
X2170919D1*
X2262491D2*
X2473555D1*
X3389835D2*
X3423654D1*
X3514883D2*
X3703975D1*
X1207803Y1040343D2*
X1438106D1*
X1649991D2*
X1767209D1*
X1833438D2*
X2195773D1*
X2287394D2*
X2473555D1*
X3389835D2*
X3423654D1*
X3514883D2*
X3703975D1*
X887735Y1015474D2*
X1109298D1*
X1203751D2*
X1431514D1*
X1656583D2*
X1767209D1*
X1833438D2*
X2220675D1*
X2312247D2*
X2473555D1*
X3389835D2*
X3423654D1*
X3514883D2*
X3703975D1*
X883537Y990605D2*
X1095919D1*
X1217130D2*
X1435762D1*
X1652335D2*
X1767209D1*
X1833438D2*
X2245529D1*
X2337101D2*
X2473555D1*
X3389835D2*
X3423654D1*
X3514883D2*
X3703975D1*
X887785Y965736D2*
X1094747D1*
X1218302D2*
X1454318D1*
X1656631D2*
X1767209D1*
X1833438D2*
X2270382D1*
X2362003D2*
X2473555D1*
X3389835D2*
X3423654D1*
X3514883D2*
X3703975D1*
X887785Y940867D2*
X1104854D1*
X1208194D2*
X1438449D1*
X1656631D2*
X1767209D1*
X1833438D2*
X2295285D1*
X2386857D2*
X2473555D1*
X3389835D2*
X3423654D1*
X3514883D2*
X3703975D1*
X887785Y915999D2*
X1109738D1*
X1203262D2*
X1431563D1*
X1656631D2*
X1767209D1*
X1833438D2*
X2320138D1*
X2411710D2*
X2473555D1*
X3389835D2*
X3423654D1*
X3514883D2*
X3703975D1*
X887785Y891130D2*
X1096066D1*
X1216983D2*
X1435518D1*
X1656631D2*
X1767209D1*
X1833438D2*
X2344991D1*
X2431974D2*
X2473555D1*
X3389835D2*
X3423654D1*
X3514883D2*
X3703975D1*
X887785Y866261D2*
X1094650D1*
X1218399D2*
X1453537D1*
X1656631D2*
X1767209D1*
X1833438D2*
X2367257D1*
X2433487D2*
X2473555D1*
X3389835D2*
X3423654D1*
X3514883D2*
X3703975D1*
X748625Y841392D2*
X1104463D1*
X1208537D2*
X1767209D1*
X1833438D2*
X2367257D1*
X2433487D2*
X2473555D1*
X3389835D2*
X3423654D1*
X3514883D2*
X3703975D1*
X773526Y816524D2*
X1141963D1*
X1171085D2*
X1409005D1*
X3389738D2*
X3423654D1*
X3514883D2*
X3703975D1*
X798379Y791655D2*
X1394845D1*
X3375138D2*
X3421066D1*
X3514883D2*
X3703975D1*
X823234Y766786D2*
X1393185D1*
X3350285D2*
X3396211D1*
X3514883D2*
X3703975D1*
X848135Y741917D2*
X1402657D1*
X3325430D2*
X3371358D1*
X3511173D2*
X3703975D1*
X872990Y717049D2*
X1409493D1*
X3300529D2*
X3346505D1*
X3488077D2*
X3703975D1*
X897843Y692180D2*
X1394991D1*
X3275675D2*
X3302609D1*
X3463175D2*
X3703975D1*
X922745Y667311D2*
X1393087D1*
X3250822D2*
X3279610D1*
X3438322D2*
X3703975D1*
X947598Y642442D2*
X1402315D1*
X3225919D2*
X3277022D1*
X3432462D2*
X3703975D1*
X2274406Y617573D2*
X2335861D1*
X3201066D2*
X3289766D1*
X3361222D2*
X3374093D1*
X3401873D2*
X3703975D1*
X2218399Y592705D2*
X2367257D1*
X3176211D2*
X3703975D1*
X2193497Y567836D2*
X2367306D1*
X3151358D2*
X3703975D1*
X2168643Y542967D2*
X2380635D1*
X3126457D2*
X3703975D1*
X2143790Y518098D2*
X2405490D1*
X3101602D2*
X3703975D1*
X2118887Y493230D2*
X2430391D1*
X3076749D2*
X3703975D1*
X2094034Y468361D2*
X3703975D1*
X1108945Y2535531D2*
X1173349D1*
X1213423Y2575650D1*
X1213408Y2656266D1*
X1210037Y2648277D1*
X1205110Y2640239D1*
X1198988Y2633071D1*
X1191820Y2626949D1*
X1183782Y2622022D1*
X1175073Y2618415D1*
X1165907Y2616215D1*
X1156509Y2615475D1*
X1147112Y2616215D1*
X1137945Y2618415D1*
X1129236Y2622022D1*
X1121198Y2626949D1*
X1114030Y2633071D1*
X1107908Y2640239D1*
X1102982Y2648277D1*
X1099374Y2656986D1*
X1097175Y2666152D1*
X1096434Y2675550D1*
X1097175Y2684948D1*
X1099374Y2694114D1*
X1102982Y2702823D1*
X1107908Y2710861D1*
X1114030Y2718029D1*
X1121198Y2724151D1*
X1129236Y2729077D1*
X1137945Y2732685D1*
X1147112Y2734885D1*
X1156509Y2735625D1*
X1165907Y2734885D1*
X1175073Y2732685D1*
X1183782Y2729077D1*
X1191820Y2724151D1*
X1198988Y2718029D1*
X1205110Y2710861D1*
X1210037Y2702823D1*
X1213644Y2694114D1*
X1215844Y2684948D1*
X1216193Y2682001D1*
X1219255Y2687218D1*
X1222374Y2690870D1*
X1382631Y2851129D1*
X1329126Y2851232D1*
X1322068Y2852635D1*
X1315534Y2855648D1*
X1309883Y2860104D1*
X1225051Y2944936D1*
X1208185Y2944940D1*
X1202190Y2936534D1*
X1195525Y2929869D1*
X1187898Y2924328D1*
X1179499Y2920049D1*
X1170533Y2917135D1*
X1161223Y2915660D1*
X1151795D1*
X1142486Y2917135D1*
X1133520Y2920049D1*
X1125121Y2924328D1*
X1117493Y2929869D1*
X1110828Y2936534D1*
X1105543Y2943778D1*
X924584Y2762799D1*
X924497Y2079262D1*
X923093Y2072205D1*
X920081Y2065671D1*
X915626Y2060020D1*
X805797Y1950190D1*
X805829Y1869689D1*
X815827Y1872136D1*
X825224Y1872877D1*
X834622Y1872136D1*
X843789Y1869937D1*
X852497Y1866329D1*
X860535Y1861403D1*
X867703Y1855281D1*
X873825Y1848113D1*
X878752Y1840075D1*
X882360Y1831366D1*
X884559Y1822199D1*
X885299Y1812802D1*
X884559Y1803404D1*
X882360Y1794238D1*
X878752Y1785529D1*
X873825Y1777491D1*
X867703Y1770323D1*
X860535Y1764201D1*
X858497Y1762839D1*
X864240Y1758483D1*
X870906Y1751818D1*
X876446Y1744190D1*
X880726Y1735791D1*
X883639Y1726825D1*
X885114Y1717516D1*
Y1708088D1*
X883639Y1698778D1*
X880726Y1689812D1*
X876446Y1681413D1*
X870906Y1673786D1*
X864240Y1667121D1*
X856613Y1661580D1*
X848214Y1657301D1*
X839248Y1654387D1*
X829938Y1652912D1*
X820510D1*
X811201Y1654387D1*
X805122Y1656235D1*
X803500Y1651083D1*
X799983Y1644804D1*
X796864Y1641152D1*
X783433Y1627720D1*
X785114Y1617516D1*
Y1608088D1*
X783639Y1598778D1*
X782072Y1593459D1*
X993822Y1593470D1*
X1049121Y1648643D1*
X1055104Y1652640D1*
X1061854Y1655131D1*
X1069000Y1655976D1*
X1201667D1*
X1198696Y1664491D1*
X1197551Y1671714D1*
Y1679029D1*
X1198696Y1686252D1*
X1200957Y1693209D1*
X1204277Y1699726D1*
X1208576Y1705642D1*
X1213748Y1710814D1*
X1219664Y1715113D1*
X1226181Y1718433D1*
X1233138Y1720694D1*
X1240361Y1721839D1*
X1247676D1*
X1254899Y1720694D1*
X1261856Y1718433D1*
X1268373Y1715113D1*
X1274289Y1710814D1*
X1279140Y1705988D1*
X1427689Y1705887D1*
X1432442Y1705134D1*
X1434155Y1708172D1*
Y1717600D1*
X1435630Y1726909D1*
X1438543Y1735875D1*
X1442823Y1744274D1*
X1448364Y1751902D1*
X1449201Y1752808D1*
X1433970Y1752811D1*
Y1872961D1*
X1554119D1*
Y1857776D1*
X1562656Y1864108D1*
X1571055Y1868387D1*
X1580021Y1871301D1*
X1589331Y1872776D1*
X1598759D1*
X1608068Y1871301D1*
X1617034Y1868387D1*
X1625433Y1864108D1*
X1633060Y1858567D1*
X1639726Y1851902D1*
X1645707Y1843487D1*
X1740222Y1843402D1*
X1747280Y1841997D1*
X1753814Y1838986D1*
X1759465Y1834530D1*
X1823602Y1770259D1*
X1827601Y1764276D1*
X1830092Y1757525D1*
X1830937Y1750379D1*
Y830213D1*
X1836577Y832395D1*
X1845744Y834594D1*
X1855142Y835335D1*
X1864539Y834594D1*
X1873706Y832395D1*
X1882415Y828787D1*
X1890453Y823861D1*
X1897621Y817739D1*
X1903743Y810571D1*
X1905105Y808533D1*
X1909461Y814276D1*
X1916126Y820941D1*
X1923753Y826482D1*
X1932152Y830761D1*
X1941118Y833675D1*
X1950428Y835150D1*
X1959856D1*
X1969165Y833675D1*
X1978131Y830761D1*
X1986530Y826482D1*
X1994157Y820941D1*
X2000823Y814276D1*
X2005105Y808533D1*
X2009461Y814276D1*
X2016126Y820941D1*
X2023753Y826482D1*
X2032152Y830761D1*
X2041118Y833675D1*
X2050428Y835150D1*
X2059856D1*
X2069165Y833675D1*
X2078131Y830761D1*
X2086530Y826482D1*
X2094157Y820941D1*
X2100823Y814276D1*
X2105105Y808533D1*
X2109461Y814276D1*
X2116126Y820941D1*
X2123753Y826482D1*
X2132152Y830761D1*
X2141118Y833675D1*
X2150428Y835150D1*
X2159856D1*
X2169165Y833675D1*
X2178131Y830761D1*
X2186530Y826482D1*
X2194157Y820941D1*
X2200823Y814276D1*
X2205105Y808533D1*
X2209461Y814276D1*
X2216126Y820941D1*
X2223753Y826482D1*
X2232152Y830761D1*
X2241118Y833675D1*
X2250428Y835150D1*
X2259856D1*
X2269165Y833675D1*
X2278131Y830761D1*
X2286530Y826482D1*
X2294157Y820941D1*
X2300823Y814276D1*
X2305105Y808533D1*
X2309461Y814276D1*
X2316126Y820941D1*
X2323753Y826482D1*
X2332152Y830761D1*
X2341118Y833675D1*
X2350428Y835150D1*
X2359856D1*
X2369786Y833500D1*
X2369780Y868858D1*
X2083332Y1155440D1*
X2079335Y1161423D1*
X2076844Y1168173D1*
X2075999Y1175319D1*
Y1312672D1*
X2062694Y1325959D1*
X2029199Y1326072D1*
X2022142Y1327476D1*
X2015608Y1330488D1*
X2009957Y1334944D1*
X1895812Y1449220D1*
X1891815Y1455203D1*
X1889324Y1461954D1*
X1888479Y1469100D1*
Y3206648D1*
X1653306Y3441777D1*
X1654119Y3431816D1*
X1653379Y3422419D1*
X1651180Y3413252D1*
X1647572Y3404543D1*
X1642646Y3396505D1*
X1636524Y3389337D1*
X1629356Y3383215D1*
X1621318Y3378289D1*
X1612609Y3374681D1*
X1603442Y3372482D1*
X1594045Y3371741D1*
X1584647Y3372482D1*
X1575480Y3374681D1*
X1566772Y3378289D1*
X1558734Y3383215D1*
X1551566Y3389337D1*
X1545444Y3396505D1*
X1544081Y3398543D1*
X1539726Y3392801D1*
X1533060Y3386135D1*
X1527318Y3381853D1*
X1533060Y3377497D1*
X1539726Y3370832D1*
X1545266Y3363205D1*
X1549546Y3354806D1*
X1552459Y3345840D1*
X1553934Y3336530D1*
Y3327102D1*
X1552214Y3316923D1*
X1567325Y3301690D1*
X1571324Y3295707D1*
X1573816Y3288948D1*
X1575480Y3288951D1*
X1584647Y3291151D1*
X1594045Y3291891D1*
X1603442Y3291151D1*
X1612609Y3288951D1*
X1621318Y3285344D1*
X1629356Y3280417D1*
X1636524Y3274295D1*
X1642646Y3267127D1*
X1647572Y3259089D1*
X1651180Y3250381D1*
X1653379Y3241214D1*
X1654119Y3231816D1*
X1653379Y3222419D1*
X1651180Y3213252D1*
X1647572Y3204543D1*
X1642646Y3196505D1*
X1636524Y3189337D1*
X1629356Y3183215D1*
X1627318Y3181853D1*
X1633060Y3177497D1*
X1639726Y3170832D1*
X1645266Y3163205D1*
X1649546Y3154806D1*
X1652459Y3145840D1*
X1653934Y3136530D1*
Y3127102D1*
X1652459Y3117793D1*
X1649546Y3108827D1*
X1645266Y3100428D1*
X1639726Y3092801D1*
X1633060Y3086135D1*
X1627318Y3081853D1*
X1633060Y3077497D1*
X1639726Y3070832D1*
X1645266Y3063205D1*
X1649546Y3054806D1*
X1652459Y3045840D1*
X1653934Y3036530D1*
Y3027102D1*
X1652459Y3017793D1*
X1649546Y3008827D1*
X1645266Y3000428D1*
X1639726Y2992801D1*
X1633060Y2986135D1*
X1627318Y2981853D1*
X1633060Y2977497D1*
X1639726Y2970832D1*
X1645266Y2963205D1*
X1649546Y2954806D1*
X1652459Y2945840D1*
X1653934Y2936530D1*
Y2927102D1*
X1652459Y2917793D1*
X1649546Y2908827D1*
X1645266Y2900428D1*
X1639726Y2892801D1*
X1633060Y2886135D1*
X1627318Y2881853D1*
X1633060Y2877497D1*
X1639726Y2870832D1*
X1645266Y2863205D1*
X1649546Y2854806D1*
X1652459Y2845840D1*
X1653934Y2836530D1*
Y2827102D1*
X1652459Y2817793D1*
X1649546Y2808827D1*
X1645266Y2800428D1*
X1639726Y2792801D1*
X1633060Y2786135D1*
X1627318Y2781853D1*
X1633060Y2777497D1*
X1639726Y2770832D1*
X1645266Y2763205D1*
X1649546Y2754806D1*
X1652459Y2745840D1*
X1653934Y2736530D1*
Y2727102D1*
X1652459Y2717793D1*
X1649546Y2708827D1*
X1645266Y2700428D1*
X1639726Y2692801D1*
X1638787Y2691786D1*
X1654130Y2691797D1*
Y2571647D1*
X1533980D1*
Y2586832D1*
X1525444Y2580500D1*
X1517045Y2576220D1*
X1508079Y2573307D1*
X1498769Y2571832D1*
X1489341D1*
X1480031Y2573307D1*
X1471066Y2576220D1*
X1462667Y2580500D1*
X1455039Y2586041D1*
X1448374Y2592706D1*
X1442833Y2600333D1*
X1438554Y2608732D1*
X1437080Y2612726D1*
X1214720Y2390367D1*
X1216409Y2380171D1*
Y2370743D1*
X1214934Y2361433D1*
X1212021Y2352467D1*
X1207741Y2344068D1*
X1202201Y2336441D1*
X1195535Y2329776D1*
X1189793Y2325493D1*
X1195535Y2321138D1*
X1202201Y2314472D1*
X1207741Y2306845D1*
X1212021Y2298446D1*
X1214934Y2289480D1*
X1216409Y2280171D1*
Y2270743D1*
X1214934Y2261433D1*
X1212021Y2252467D1*
X1207741Y2244068D1*
X1202201Y2236441D1*
X1195535Y2229776D1*
X1189793Y2225493D1*
X1195535Y2221138D1*
X1202201Y2214472D1*
X1207741Y2206845D1*
X1212021Y2198446D1*
X1214934Y2189480D1*
X1216409Y2180171D1*
Y2170743D1*
X1214934Y2161433D1*
X1212021Y2152467D1*
X1207741Y2144068D1*
X1202201Y2136441D1*
X1195535Y2129776D1*
X1189793Y2125493D1*
X1195535Y2121138D1*
X1202201Y2114472D1*
X1207741Y2106845D1*
X1212021Y2098446D1*
X1214934Y2089480D1*
X1216409Y2080171D1*
Y2070743D1*
X1214934Y2061433D1*
X1212021Y2052467D1*
X1207741Y2044068D1*
X1202201Y2036441D1*
X1195535Y2029776D1*
X1189793Y2025493D1*
X1195535Y2021138D1*
X1202201Y2014472D1*
X1207741Y2006845D1*
X1212021Y1998446D1*
X1214934Y1989480D1*
X1216409Y1980171D1*
Y1970743D1*
X1214934Y1961433D1*
X1212021Y1952467D1*
X1207741Y1944068D1*
X1202201Y1936441D1*
X1195535Y1929776D1*
X1189793Y1925493D1*
X1195535Y1921138D1*
X1202201Y1914472D1*
X1207741Y1906845D1*
X1212021Y1898446D1*
X1214934Y1889480D1*
X1216409Y1880171D1*
Y1870743D1*
X1214934Y1861433D1*
X1212021Y1852467D1*
X1207741Y1844068D1*
X1202201Y1836441D1*
X1195535Y1829776D1*
X1189793Y1825493D1*
X1195535Y1821138D1*
X1202201Y1814472D1*
X1207741Y1806845D1*
X1212021Y1798446D1*
X1214934Y1789480D1*
X1216409Y1780171D1*
Y1770743D1*
X1214934Y1761433D1*
X1212021Y1752467D1*
X1207741Y1744068D1*
X1202201Y1736441D1*
X1195535Y1729776D1*
X1187908Y1724235D1*
X1179509Y1719955D1*
X1170543Y1717042D1*
X1161234Y1715567D1*
X1151806D1*
X1142496Y1717042D1*
X1133530Y1719955D1*
X1125131Y1724235D1*
X1117504Y1729776D1*
X1110839Y1736441D1*
X1105298Y1744068D1*
X1101018Y1752467D1*
X1098105Y1761433D1*
X1096630Y1770743D1*
Y1780171D1*
X1098105Y1789480D1*
X1101018Y1798446D1*
X1105298Y1806845D1*
X1110839Y1814472D1*
X1117504Y1821138D1*
X1123247Y1825420D1*
X1117504Y1829776D1*
X1110839Y1836441D1*
X1105298Y1844068D1*
X1101018Y1852467D1*
X1098105Y1861433D1*
X1096630Y1870743D1*
Y1880171D1*
X1098105Y1889480D1*
X1101018Y1898446D1*
X1105298Y1906845D1*
X1110839Y1914472D1*
X1117504Y1921138D1*
X1123247Y1925420D1*
X1117504Y1929776D1*
X1110839Y1936441D1*
X1105298Y1944068D1*
X1101018Y1952467D1*
X1098105Y1961433D1*
X1096630Y1970743D1*
Y1980171D1*
X1098105Y1989480D1*
X1101018Y1998446D1*
X1105298Y2006845D1*
X1110839Y2014472D1*
X1117504Y2021138D1*
X1123247Y2025420D1*
X1117504Y2029776D1*
X1110839Y2036441D1*
X1105298Y2044068D1*
X1101018Y2052467D1*
X1098105Y2061433D1*
X1096630Y2070743D1*
Y2080171D1*
X1098105Y2089480D1*
X1101018Y2098446D1*
X1105298Y2106845D1*
X1110839Y2114472D1*
X1117504Y2121138D1*
X1123247Y2125420D1*
X1117504Y2129776D1*
X1110839Y2136441D1*
X1105298Y2144068D1*
X1101018Y2152467D1*
X1098105Y2161433D1*
X1096630Y2170743D1*
Y2180171D1*
X1098105Y2189480D1*
X1101018Y2198446D1*
X1105298Y2206845D1*
X1110839Y2214472D1*
X1117504Y2221138D1*
X1123247Y2225420D1*
X1117504Y2229776D1*
X1110839Y2236441D1*
X1105298Y2244068D1*
X1101018Y2252467D1*
X1098105Y2261433D1*
X1096630Y2270743D1*
Y2280171D1*
X1098105Y2289480D1*
X1101018Y2298446D1*
X1105298Y2306845D1*
X1110839Y2314472D1*
X1117504Y2321138D1*
X1123247Y2325420D1*
X1117504Y2329776D1*
X1110839Y2336441D1*
X1105298Y2344068D1*
X1101018Y2352467D1*
X1098105Y2361433D1*
X1096630Y2370743D1*
Y2380171D1*
X1098105Y2389480D1*
X1101018Y2398446D1*
X1105298Y2406845D1*
X1110839Y2414472D1*
X1111676Y2415379D1*
X1096445Y2415382D1*
Y2535531D1*
X1108945D1*
X1208182Y1244777D2*
X1202201Y1236362D1*
X1195535Y1229697D1*
X1189793Y1225415D1*
X1195535Y1221059D1*
X1202201Y1214394D1*
X1207741Y1206766D1*
X1212021Y1198367D1*
X1214934Y1189402D1*
X1216409Y1180092D1*
Y1170664D1*
X1214934Y1161354D1*
X1212021Y1152388D1*
X1207741Y1143990D1*
X1202201Y1136362D1*
X1195535Y1129697D1*
X1189793Y1125415D1*
X1195535Y1121059D1*
X1202201Y1114394D1*
X1207741Y1106766D1*
X1212021Y1098367D1*
X1214934Y1089402D1*
X1216409Y1080092D1*
Y1070664D1*
X1214934Y1061354D1*
X1212021Y1052388D1*
X1207741Y1043990D1*
X1202201Y1036362D1*
X1195535Y1029697D1*
X1189793Y1025415D1*
X1195535Y1021059D1*
X1202201Y1014394D1*
X1207741Y1006766D1*
X1212021Y998367D1*
X1214934Y989402D1*
X1216409Y980092D1*
Y970664D1*
X1214934Y961354D1*
X1212021Y952388D1*
X1207741Y943990D1*
X1202201Y936362D1*
X1195535Y929697D1*
X1189793Y925415D1*
X1195535Y921059D1*
X1202201Y914394D1*
X1207741Y906766D1*
X1212021Y898367D1*
X1214934Y889402D1*
X1216409Y880092D1*
Y870664D1*
X1214934Y861354D1*
X1212021Y852388D1*
X1207741Y843990D1*
X1202201Y836362D1*
X1195535Y829697D1*
X1187908Y824156D1*
X1179509Y819877D1*
X1170543Y816963D1*
X1161234Y815488D1*
X1151806D1*
X1142496Y816963D1*
X1133530Y819877D1*
X1125131Y824156D1*
X1117504Y829697D1*
X1110839Y836362D1*
X1105298Y843990D1*
X1101018Y852388D1*
X1098105Y861354D1*
X1096630Y870664D1*
Y880092D1*
X1098105Y889402D1*
X1101018Y898367D1*
X1105298Y906766D1*
X1110839Y914394D1*
X1117504Y921059D1*
X1123247Y925341D1*
X1117504Y929697D1*
X1110839Y936362D1*
X1105298Y943990D1*
X1101018Y952388D1*
X1098105Y961354D1*
X1096630Y970664D1*
Y980092D1*
X1098105Y989402D1*
X1101018Y998367D1*
X1105298Y1006766D1*
X1110839Y1014394D1*
X1117504Y1021059D1*
X1123247Y1025341D1*
X1117504Y1029697D1*
X1114811Y1032186D1*
X882084Y1032197D1*
X884559Y1022199D1*
X885299Y1012802D1*
X884559Y1003404D1*
X882360Y994238D1*
X878752Y985529D1*
X873825Y977491D1*
X870042Y972853D1*
X885299Y972866D1*
Y852717D1*
X765150D1*
Y867902D1*
X756613Y861570D1*
X748214Y857290D1*
X739248Y854377D1*
X734129Y853398D1*
X950419Y637117D1*
X1408684Y637119D1*
X1403920Y643871D1*
X1399640Y652270D1*
X1396727Y661236D1*
X1395252Y670546D1*
Y679974D1*
X1396727Y689283D1*
X1399640Y698249D1*
X1403920Y706648D1*
X1409461Y714276D1*
X1416126Y720941D1*
X1421869Y725223D1*
X1416126Y729579D1*
X1409461Y736244D1*
X1403920Y743871D1*
X1399640Y752270D1*
X1396727Y761236D1*
X1395252Y770546D1*
Y779974D1*
X1396727Y789283D1*
X1399640Y798249D1*
X1403920Y806648D1*
X1409461Y814276D1*
X1416126Y820941D1*
X1423753Y826482D1*
X1432152Y830761D1*
X1441118Y833675D1*
X1450428Y835150D1*
X1459856D1*
X1469165Y833675D1*
X1478131Y830761D1*
X1486530Y826482D1*
X1494157Y820941D1*
X1500823Y814276D1*
X1505105Y808533D1*
X1509461Y814276D1*
X1516126Y820941D1*
X1523753Y826482D1*
X1532152Y830761D1*
X1541118Y833675D1*
X1550428Y835150D1*
X1559856D1*
X1569165Y833675D1*
X1578131Y830761D1*
X1586530Y826482D1*
X1594157Y820941D1*
X1600823Y814276D1*
X1605105Y808533D1*
X1609461Y814276D1*
X1616126Y820941D1*
X1623753Y826482D1*
X1632152Y830761D1*
X1641118Y833675D1*
X1650428Y835150D1*
X1659856D1*
X1669165Y833675D1*
X1678131Y830761D1*
X1686530Y826482D1*
X1694157Y820941D1*
X1700823Y814276D1*
X1705105Y808533D1*
X1709461Y814276D1*
X1716126Y820941D1*
X1723753Y826482D1*
X1732152Y830761D1*
X1741118Y833675D1*
X1750428Y835150D1*
X1759856D1*
X1769715Y833520D1*
X1769717Y1737741D1*
X1725131Y1782286D1*
X1645780Y1782276D1*
X1639726Y1773870D1*
X1633060Y1767205D1*
X1627318Y1762923D1*
X1633060Y1758567D1*
X1639726Y1751902D1*
X1645266Y1744274D1*
X1649546Y1735875D1*
X1652459Y1726909D1*
X1653934Y1717600D1*
Y1708172D1*
X1652459Y1698862D1*
X1649546Y1689896D1*
X1645266Y1681497D1*
X1639726Y1673870D1*
X1633060Y1667205D1*
X1625433Y1661664D1*
X1617034Y1657385D1*
X1608068Y1654471D1*
X1598759Y1652996D1*
X1589331D1*
X1580021Y1654471D1*
X1571055Y1657385D1*
X1562656Y1661664D1*
X1555029Y1667205D1*
X1548364Y1673870D1*
X1544081Y1679613D1*
X1539726Y1673870D1*
X1533060Y1667205D1*
X1527318Y1662923D1*
X1533060Y1658567D1*
X1539726Y1651902D1*
X1545266Y1644274D1*
X1549546Y1635875D1*
X1552459Y1626909D1*
X1553934Y1617600D1*
Y1608172D1*
X1552459Y1598862D1*
X1549546Y1589896D1*
X1545266Y1581497D1*
X1539726Y1573870D1*
X1533060Y1567205D1*
X1527318Y1562923D1*
X1533060Y1558567D1*
X1539726Y1551902D1*
X1544008Y1546159D1*
X1548364Y1551902D1*
X1555029Y1558567D1*
X1562656Y1564108D1*
X1571055Y1568387D1*
X1580021Y1571301D1*
X1589331Y1572776D1*
X1598759D1*
X1608068Y1571301D1*
X1617034Y1568387D1*
X1625433Y1564108D1*
X1633060Y1558567D1*
X1639726Y1551902D1*
X1645266Y1544274D1*
X1649546Y1535875D1*
X1652459Y1526909D1*
X1653934Y1517600D1*
Y1508172D1*
X1652459Y1498862D1*
X1649546Y1489896D1*
X1645266Y1481497D1*
X1639726Y1473870D1*
X1633060Y1467205D1*
X1627318Y1462923D1*
X1633060Y1458567D1*
X1639726Y1451902D1*
X1645266Y1444274D1*
X1649546Y1435875D1*
X1652459Y1426909D1*
X1653934Y1417600D1*
Y1408172D1*
X1652459Y1398862D1*
X1649546Y1389896D1*
X1645266Y1381497D1*
X1639726Y1373870D1*
X1633060Y1367205D1*
X1627318Y1362923D1*
X1633060Y1358567D1*
X1639726Y1351902D1*
X1645266Y1344274D1*
X1649546Y1335875D1*
X1652459Y1326909D1*
X1653934Y1317600D1*
Y1308172D1*
X1652459Y1298862D1*
X1649546Y1289896D1*
X1645266Y1281497D1*
X1639726Y1273870D1*
X1633060Y1267205D1*
X1627318Y1262923D1*
X1633060Y1258567D1*
X1639726Y1251902D1*
X1645266Y1244274D1*
X1649546Y1235875D1*
X1652459Y1226909D1*
X1653934Y1217600D1*
Y1208172D1*
X1652459Y1198862D1*
X1649546Y1189896D1*
X1645266Y1181497D1*
X1639726Y1173870D1*
X1633060Y1167205D1*
X1627318Y1162923D1*
X1633060Y1158567D1*
X1639726Y1151902D1*
X1645266Y1144274D1*
X1649546Y1135875D1*
X1652459Y1126909D1*
X1653934Y1117600D1*
Y1108172D1*
X1652459Y1098862D1*
X1649546Y1089896D1*
X1645266Y1081497D1*
X1639726Y1073870D1*
X1633060Y1067205D1*
X1627318Y1062923D1*
X1633060Y1058567D1*
X1639726Y1051902D1*
X1645266Y1044274D1*
X1649546Y1035875D1*
X1652459Y1026909D1*
X1653934Y1017600D1*
Y1008172D1*
X1652459Y998862D1*
X1649546Y989896D1*
X1645266Y981497D1*
X1639726Y973870D1*
X1638787Y972856D1*
X1654130Y972866D1*
Y852717D1*
X1533980D1*
Y867902D1*
X1525444Y861570D1*
X1517045Y857290D1*
X1508079Y854377D1*
X1498769Y852902D1*
X1489341D1*
X1480031Y854377D1*
X1471066Y857290D1*
X1462667Y861570D1*
X1455039Y867110D1*
X1448374Y873776D1*
X1442833Y881403D1*
X1438554Y889802D1*
X1435640Y898768D1*
X1434165Y908077D1*
Y917505D1*
X1435640Y926815D1*
X1438554Y935781D1*
X1442833Y944180D1*
X1448374Y951807D1*
X1455039Y958472D1*
X1460874Y962816D1*
X1455029Y967205D1*
X1448364Y973870D1*
X1442823Y981497D1*
X1438543Y989896D1*
X1435630Y998862D1*
X1434155Y1008172D1*
Y1017600D1*
X1435630Y1026909D1*
X1438543Y1035875D1*
X1441102Y1041205D1*
X1237514Y1244794D1*
X1208180Y1244768D1*
X3184152Y3548136D2*
X3291802D1*
Y3427987D1*
X3171652D1*
Y3548136D1*
X3184152D1*
X3291617Y3283348D2*
X3290142Y3274038D1*
X3287228Y3265072D1*
X3282949Y3256673D1*
X3277408Y3249046D1*
X3270743Y3242381D1*
X3263115Y3236840D1*
X3254717Y3232560D1*
X3245751Y3229647D1*
X3236441Y3228172D1*
X3227013D1*
X3217703Y3229647D1*
X3208738Y3232560D1*
X3200339Y3236840D1*
X3192711Y3242381D1*
X3186046Y3249046D1*
X3180505Y3256673D1*
X3176226Y3265072D1*
X3173312Y3274038D1*
X3171837Y3283348D1*
Y3292776D1*
X3173312Y3302085D1*
X3176226Y3311051D1*
X3180505Y3319450D1*
X3186046Y3327077D1*
X3192711Y3333743D1*
X3200339Y3339283D1*
X3208738Y3343563D1*
X3217703Y3346476D1*
X3227013Y3347951D1*
X3236441D1*
X3245751Y3346476D1*
X3254717Y3343563D1*
X3263115Y3339283D1*
X3270743Y3333743D1*
X3277408Y3327077D1*
X3282949Y3319450D1*
X3287228Y3311051D1*
X3290142Y3302085D1*
X3291617Y3292776D1*
Y3283348D1*
X3588660Y3578003D2*
X3471684D1*
Y3694955D1*
X3156906Y3694976D1*
X3126593Y3664806D1*
X3120610Y3660808D1*
X3113860Y3658318D1*
X3111493Y3657848D1*
X3114476Y3644618D1*
X3115217Y3635220D1*
X3114476Y3625823D1*
X3112277Y3616656D1*
X3108669Y3607948D1*
X3103743Y3599909D1*
X3097621Y3592741D1*
X3090453Y3586619D1*
X3088415Y3585257D1*
X3094157Y3580902D1*
X3100823Y3574236D1*
X3106364Y3566609D1*
X3110643Y3558210D1*
X3113556Y3549244D1*
X3115031Y3539934D1*
Y3530507D1*
X3113556Y3521197D1*
X3110643Y3512231D1*
X3106364Y3503832D1*
X3100823Y3496205D1*
X3094157Y3489539D1*
X3086530Y3483999D1*
X3078131Y3479719D1*
X3069165Y3476806D1*
X3059856Y3475331D1*
X3050428D1*
X3041118Y3476806D1*
X3032152Y3479719D1*
X3023753Y3483999D1*
X3016126Y3489539D1*
X3009461Y3496205D1*
X3003920Y3503832D1*
X2999640Y3512231D1*
X2996727Y3521197D1*
X2995252Y3530507D1*
X2995193Y3531999D1*
X2979696Y3516618D1*
X2973713Y3512621D1*
X2966962Y3510130D1*
X2959816Y3509285D1*
X2690432D1*
X2690461Y3491631D1*
X2597870D1*
Y3498516D1*
X2282755Y3183507D1*
X2276772Y3179508D1*
X2270021Y3177017D1*
X2262875Y3176172D1*
X2262240D1*
X2262138Y1466698D1*
X2260734Y1459640D1*
X2257722Y1453106D1*
X2253266Y1447455D1*
X2217475Y1411394D1*
Y1401814D1*
X2215975Y1392349D1*
X2213014Y1383238D1*
X2208665Y1374701D1*
X2203033Y1366949D1*
X2196259Y1360175D1*
X2188507Y1354542D1*
X2179970Y1350193D1*
X2170858Y1347232D1*
X2161394Y1345732D1*
X2151814D1*
X2142349Y1347232D1*
X2133238Y1350193D1*
X2124701Y1354542D1*
X2116949Y1360175D1*
X2110175Y1366949D1*
X2106634Y1371571D1*
X2105341Y1369875D1*
X2129886Y1345214D1*
X2133883Y1339231D1*
X2136374Y1332480D1*
X2137219Y1325335D1*
Y1187982D1*
X2423667Y901417D1*
X2427664Y895434D1*
X2430155Y888684D1*
X2431000Y881538D1*
Y830318D1*
X2441118Y833675D1*
X2450428Y835150D1*
X2459856D1*
X2469165Y833675D1*
X2476039Y831533D1*
X2476135Y1840290D1*
X2477539Y1847348D1*
X2480551Y1853882D1*
X2485007Y1859533D1*
X2516114Y1890642D1*
X2515333Y1900469D1*
X2516073Y1909866D1*
X2518273Y1919033D1*
X2521881Y1927741D1*
X2526807Y1935780D1*
X2532929Y1942948D1*
X2540097Y1949070D1*
X2542135Y1950432D1*
X2536392Y1954787D1*
X2529727Y1961453D1*
X2524186Y1969080D1*
X2519907Y1977479D1*
X2516993Y1986445D1*
X2515518Y1995755D1*
Y2005182D1*
X2516993Y2014492D1*
X2519907Y2023458D1*
X2524186Y2031857D1*
X2529727Y2039484D1*
X2536392Y2046150D1*
X2542135Y2050432D1*
X2536392Y2054787D1*
X2529727Y2061453D1*
X2524186Y2069080D1*
X2519907Y2077479D1*
X2516993Y2086445D1*
X2515518Y2095755D1*
Y2105182D1*
X2516993Y2114492D1*
X2519907Y2123458D1*
X2524186Y2131857D1*
X2529727Y2139484D1*
X2536392Y2146150D1*
X2542135Y2150432D1*
X2536392Y2154787D1*
X2529727Y2161453D1*
X2524186Y2169080D1*
X2519907Y2177479D1*
X2516993Y2186445D1*
X2515518Y2195755D1*
Y2205182D1*
X2516993Y2214492D1*
X2519907Y2223458D1*
X2524186Y2231857D1*
X2529727Y2239484D1*
X2536392Y2246150D1*
X2542135Y2250432D1*
X2536392Y2254787D1*
X2529727Y2261453D1*
X2524186Y2269080D1*
X2519907Y2277479D1*
X2516993Y2286445D1*
X2515518Y2295755D1*
Y2305182D1*
X2516993Y2314492D1*
X2519907Y2323458D1*
X2524186Y2331857D1*
X2529727Y2339484D1*
X2536392Y2346150D1*
X2542135Y2350432D1*
X2536392Y2354787D1*
X2529727Y2361453D1*
X2524186Y2369080D1*
X2519907Y2377479D1*
X2516993Y2386445D1*
X2515518Y2395755D1*
Y2405182D1*
X2516993Y2414492D1*
X2519907Y2423458D1*
X2524186Y2431857D1*
X2529727Y2439484D1*
X2536392Y2446150D1*
X2542135Y2450432D1*
X2536392Y2454787D1*
X2529727Y2461453D1*
X2524186Y2469080D1*
X2519907Y2477479D1*
X2516993Y2486445D1*
X2515518Y2495755D1*
Y2505182D1*
X2516993Y2514492D1*
X2519907Y2523458D1*
X2524186Y2531857D1*
X2529727Y2539484D1*
X2530564Y2540391D1*
X2515333Y2540394D1*
Y2660543D1*
X2635483D1*
Y2645357D1*
X2644020Y2651690D1*
X2652419Y2655970D1*
X2661385Y2658883D1*
X2670694Y2660358D1*
X2680122D1*
X2689432Y2658883D1*
X2698398Y2655970D1*
X2699585Y2655423D1*
X2998043Y2953882D1*
X3001614Y2962493D1*
X3006541Y2970531D1*
X3012663Y2977699D1*
X3019831Y2983822D1*
X3021869Y2985184D1*
X3016126Y2989539D1*
X3009461Y2996205D1*
X3003920Y3003832D1*
X2999640Y3012231D1*
X2996727Y3021197D1*
X2995252Y3030507D1*
Y3039934D1*
X2996727Y3049244D1*
X2999640Y3058210D1*
X3003920Y3066609D1*
X3009461Y3074236D1*
X3016126Y3080902D1*
X3021869Y3085184D1*
X3016126Y3089539D1*
X3009461Y3096205D1*
X3003920Y3103832D1*
X2999640Y3112231D1*
X2996727Y3121197D1*
X2995252Y3130507D1*
Y3139934D1*
X2996727Y3149244D1*
X2999640Y3158210D1*
X3003920Y3166609D1*
X3009461Y3174236D1*
X3016126Y3180902D1*
X3021869Y3185184D1*
X3016126Y3189539D1*
X3009461Y3196205D1*
X3003920Y3203832D1*
X2999640Y3212231D1*
X2996727Y3221197D1*
X2995252Y3230507D1*
Y3239934D1*
X2996727Y3249244D1*
X2999640Y3258210D1*
X3003920Y3266609D1*
X3009461Y3274236D1*
X3016126Y3280902D1*
X3021869Y3285184D1*
X3016126Y3289539D1*
X3009461Y3296205D1*
X3003920Y3303832D1*
X2999640Y3312231D1*
X2996727Y3321197D1*
X2995252Y3330507D1*
Y3339934D1*
X2996727Y3349244D1*
X2999640Y3358210D1*
X3003920Y3366609D1*
X3009461Y3374236D1*
X3016126Y3380902D1*
X3023753Y3386442D1*
X3032152Y3390722D1*
X3041118Y3393635D1*
X3050428Y3395110D1*
X3059856D1*
X3069165Y3393635D1*
X3078131Y3390722D1*
X3086530Y3386442D1*
X3094157Y3380902D1*
X3100823Y3374236D1*
X3106364Y3366609D1*
X3110643Y3358210D1*
X3113556Y3349244D1*
X3115031Y3339934D1*
Y3330507D1*
X3113556Y3321197D1*
X3110643Y3312231D1*
X3106364Y3303832D1*
X3100823Y3296205D1*
X3094157Y3289539D1*
X3088415Y3285257D1*
X3094157Y3280902D1*
X3100823Y3274236D1*
X3106364Y3266609D1*
X3110643Y3258210D1*
X3113556Y3249244D1*
X3115031Y3239934D1*
Y3230507D1*
X3113556Y3221197D1*
X3110643Y3212231D1*
X3106364Y3203832D1*
X3100823Y3196205D1*
X3094157Y3189539D1*
X3088415Y3185257D1*
X3094157Y3180902D1*
X3100823Y3174236D1*
X3106364Y3166609D1*
X3110643Y3158210D1*
X3113556Y3149244D1*
X3115031Y3139934D1*
Y3130507D1*
X3113556Y3121197D1*
X3110643Y3112231D1*
X3106364Y3103832D1*
X3100823Y3096205D1*
X3094157Y3089539D1*
X3088415Y3085257D1*
X3094157Y3080902D1*
X3100823Y3074236D1*
X3106364Y3066609D1*
X3110643Y3058210D1*
X3113556Y3049244D1*
X3115031Y3039934D1*
Y3030507D1*
X3113556Y3021197D1*
X3110643Y3012231D1*
X3106364Y3003832D1*
X3100823Y2996205D1*
X3094157Y2989539D1*
X3088415Y2985257D1*
X3094157Y2980902D1*
X3100823Y2974236D1*
X3106364Y2966609D1*
X3110643Y2958210D1*
X3113556Y2949244D1*
X3115031Y2939934D1*
Y2930507D1*
X3113556Y2921197D1*
X3110643Y2912231D1*
X3106364Y2903832D1*
X3100823Y2896205D1*
X3099986Y2895298D1*
X3115217Y2895295D1*
Y2775146D1*
X2995067D1*
Y2804589D1*
X2991617Y2804610D1*
X2821206Y2634210D1*
X2822039Y2625471D1*
X2821466Y2618180D1*
X2819759Y2611068D1*
X2816959Y2604311D1*
X2813138Y2598075D1*
X2808387Y2592513D1*
X2802825Y2587762D1*
X2796589Y2583941D1*
X2789832Y2581142D1*
X2782720Y2579434D1*
X2775429Y2578861D1*
X2768138Y2579434D1*
X2761026Y2581142D1*
X2754269Y2583941D1*
X2748033Y2587762D1*
X2742471Y2592513D1*
X2737720Y2598075D1*
X2735471Y2601504D1*
X2734743Y2591071D1*
X2732543Y2581904D1*
X2728936Y2573196D1*
X2724009Y2565157D1*
X2717887Y2557990D1*
X2710719Y2551867D1*
X2708681Y2550505D1*
X2714424Y2546150D1*
X2721089Y2539484D1*
X2726630Y2531857D1*
X2730909Y2523458D1*
X2733823Y2514492D1*
X2735298Y2505182D1*
Y2495755D1*
X2733823Y2486445D1*
X2730909Y2477479D1*
X2726630Y2469080D1*
X2721089Y2461453D1*
X2714424Y2454787D1*
X2706797Y2449247D1*
X2698398Y2444967D1*
X2689432Y2442054D1*
X2680122Y2440579D1*
X2670694D1*
X2661385Y2442054D1*
X2652419Y2444967D1*
X2644020Y2449247D1*
X2636392Y2454787D1*
X2629727Y2461453D1*
X2625445Y2467196D1*
X2621089Y2461453D1*
X2614424Y2454787D1*
X2608681Y2450505D1*
X2614424Y2446150D1*
X2621089Y2439484D1*
X2626630Y2431857D1*
X2630909Y2423458D1*
X2633823Y2414492D1*
X2635298Y2405182D1*
Y2395755D1*
X2633823Y2386445D1*
X2631159Y2378154D1*
X2637020Y2380207D1*
X2644165Y2381052D1*
X2721575Y2380958D1*
X2728633Y2379554D1*
X2735167Y2376542D1*
X2740818Y2372087D1*
X2750589Y2362316D1*
X2915318Y2362301D1*
X2920177Y2367133D1*
X2926093Y2371432D1*
X2932610Y2374752D1*
X2939567Y2377013D1*
X2946790Y2378157D1*
X2954105D1*
X2961328Y2377013D1*
X2968285Y2374752D1*
X2974802Y2371432D1*
X2980718Y2367133D1*
X2985890Y2361961D1*
X2990189Y2356045D1*
X2993509Y2349528D1*
X2995770Y2342571D1*
X2996915Y2335348D1*
Y2328033D1*
X2995770Y2320810D1*
X2993509Y2313853D1*
X2990189Y2307336D1*
X2985890Y2301420D1*
X2980718Y2296248D1*
X2976264Y2292925D1*
X2995085Y2274087D1*
X2995807Y2284773D1*
X2998007Y2293940D1*
X3001614Y2302648D1*
X3006541Y2310686D1*
X3012663Y2317854D1*
X3019831Y2323976D1*
X3021869Y2325339D1*
X3016126Y2329694D1*
X3009461Y2336360D1*
X3003920Y2343987D1*
X2999640Y2352386D1*
X2996727Y2361352D1*
X2995252Y2370661D1*
Y2380089D1*
X2996727Y2389399D1*
X2999640Y2398365D1*
X3003920Y2406764D1*
X3009461Y2414391D1*
X3016126Y2421056D1*
X3021869Y2425339D1*
X3016126Y2429694D1*
X3009461Y2436360D1*
X3003920Y2443987D1*
X2999640Y2452386D1*
X2996727Y2461352D1*
X2995252Y2470661D1*
Y2480089D1*
X2996727Y2489399D1*
X2999640Y2498365D1*
X3003920Y2506764D1*
X3009461Y2514391D1*
X3016126Y2521056D1*
X3021869Y2525339D1*
X3016126Y2529694D1*
X3009461Y2536360D1*
X3003920Y2543987D1*
X2999640Y2552386D1*
X2996727Y2561352D1*
X2995252Y2570661D1*
Y2580089D1*
X2996727Y2589399D1*
X2999640Y2598365D1*
X3003920Y2606764D1*
X3009461Y2614391D1*
X3016126Y2621056D1*
X3021869Y2625339D1*
X3016126Y2629694D1*
X3009461Y2636360D1*
X3003920Y2643987D1*
X2999640Y2652386D1*
X2996727Y2661352D1*
X2995252Y2670661D1*
Y2680089D1*
X2996727Y2689399D1*
X2999640Y2698365D1*
X3003920Y2706764D1*
X3009461Y2714391D1*
X3016126Y2721056D1*
X3023753Y2726597D1*
X3032152Y2730877D1*
X3041118Y2733790D1*
X3050428Y2735265D1*
X3059856D1*
X3069165Y2733790D1*
X3078131Y2730877D1*
X3086530Y2726597D1*
X3094157Y2721056D1*
X3100823Y2714391D1*
X3106364Y2706764D1*
X3110643Y2698365D1*
X3113556Y2689399D1*
X3115031Y2680089D1*
Y2670661D1*
X3113556Y2661352D1*
X3111555Y2654858D1*
X3130589Y2673751D1*
X3136572Y2677748D1*
X3143323Y2680239D1*
X3150469Y2681084D1*
X3409147Y2680990D1*
X3416205Y2679585D1*
X3422739Y2676573D1*
X3428390Y2672118D1*
X3441092Y2659803D1*
X3450490Y2660543D1*
X3459887Y2659803D1*
X3469054Y2657604D1*
X3477762Y2653996D1*
X3485801Y2649070D1*
X3492969Y2642948D1*
X3499091Y2635780D1*
X3504017Y2627741D1*
X3507625Y2619033D1*
X3509824Y2609866D1*
X3510564Y2600469D1*
X3509824Y2591071D1*
X3507625Y2581904D1*
X3504017Y2573196D1*
X3499091Y2565157D1*
X3492969Y2557990D1*
X3485801Y2551867D1*
X3483762Y2550505D1*
X3489505Y2546150D1*
X3496171Y2539484D1*
X3501711Y2531857D1*
X3505991Y2523458D1*
X3508904Y2514492D1*
X3510379Y2505182D1*
Y2495755D1*
X3508904Y2486445D1*
X3505991Y2477479D1*
X3501711Y2469080D1*
X3496171Y2461453D1*
X3489505Y2454787D1*
X3481878Y2449247D1*
X3473479Y2444967D1*
X3464513Y2442054D1*
X3455203Y2440579D1*
X3445776D1*
X3436466Y2442054D1*
X3427500Y2444967D1*
X3419101Y2449247D1*
X3411474Y2454787D1*
X3404808Y2461453D1*
X3400526Y2467196D1*
X3395734Y2460979D1*
X3430021Y2426577D1*
X3434020Y2420594D1*
X3436510Y2413844D1*
X3437356Y2406698D1*
Y2359091D1*
X3445776Y2360358D1*
X3455203D1*
X3464513Y2358883D1*
X3473479Y2355970D1*
X3481878Y2351690D1*
X3489505Y2346150D1*
X3496171Y2339484D1*
X3501711Y2331857D1*
X3505991Y2323458D1*
X3508904Y2314492D1*
X3510379Y2305182D1*
Y2295755D1*
X3508904Y2286445D1*
X3505991Y2277479D1*
X3501711Y2269080D1*
X3496171Y2261453D1*
X3489505Y2254787D1*
X3483762Y2250505D1*
X3489505Y2246150D1*
X3496171Y2239484D1*
X3501711Y2231857D1*
X3505991Y2223458D1*
X3508904Y2214492D1*
X3510379Y2205182D1*
Y2195755D1*
X3508904Y2186445D1*
X3505991Y2177479D1*
X3501711Y2169080D1*
X3496171Y2161453D1*
X3489505Y2154787D1*
X3483762Y2150505D1*
X3489505Y2146150D1*
X3496171Y2139484D1*
X3501711Y2131857D1*
X3505991Y2123458D1*
X3508904Y2114492D1*
X3510379Y2105182D1*
Y2095755D1*
X3508904Y2086445D1*
X3505991Y2077479D1*
X3501711Y2069080D1*
X3496171Y2061453D1*
X3489505Y2054787D1*
X3483762Y2050505D1*
X3489505Y2046150D1*
X3496171Y2039484D1*
X3501711Y2031857D1*
X3505991Y2023458D1*
X3508904Y2014492D1*
X3510379Y2005182D1*
Y1995755D1*
X3508904Y1986445D1*
X3505991Y1977479D1*
X3501711Y1969080D1*
X3496171Y1961453D1*
X3489505Y1954787D1*
X3483762Y1950505D1*
X3489505Y1946150D1*
X3496171Y1939484D1*
X3501711Y1931857D1*
X3505991Y1923458D1*
X3508904Y1914492D1*
X3510379Y1905182D1*
Y1895755D1*
X3508904Y1886445D1*
X3505991Y1877479D1*
X3501711Y1869080D1*
X3496171Y1861453D1*
X3489505Y1854787D1*
X3483762Y1850505D1*
X3489505Y1846150D1*
X3496171Y1839484D1*
X3501711Y1831857D1*
X3505991Y1823458D1*
X3508904Y1814492D1*
X3510379Y1805182D1*
Y1795755D1*
X3508904Y1786445D1*
X3505991Y1777479D1*
X3501711Y1769080D1*
X3496171Y1761453D1*
X3495232Y1760438D1*
X3510575Y1760449D1*
Y1640299D1*
X3391352D1*
X3505029Y1526483D1*
X3509028Y1520500D1*
X3511518Y1513749D1*
X3512364Y1506604D1*
X3512269Y754123D1*
X3510866Y747066D1*
X3507853Y740531D1*
X3503398Y734881D1*
X3434517Y666000D1*
X3434461Y659108D1*
X3433316Y651885D1*
X3431055Y644928D1*
X3427735Y638411D1*
X3423436Y632495D1*
X3418264Y627323D1*
X3412348Y623024D1*
X3405831Y619703D1*
X3398874Y617442D1*
X3391651Y616298D1*
X3384336D1*
X3377113Y617442D1*
X3370156Y619703D1*
X3363413Y623175D1*
X3358445Y617306D1*
X3352883Y612555D1*
X3346647Y608734D1*
X3339890Y605934D1*
X3332778Y604227D1*
X3325487Y603654D1*
X3318196Y604227D1*
X3311084Y605934D1*
X3304327Y608734D1*
X3298091Y612555D1*
X3292529Y617306D1*
X3287778Y622867D1*
X3283957Y629104D1*
X3281157Y635861D1*
X3279450Y642972D1*
X3278877Y650264D1*
X3279450Y657555D1*
X3281157Y664667D1*
X3283957Y671424D1*
X3287778Y677660D1*
X3292529Y683222D1*
X3298091Y687972D1*
X3304327Y691794D1*
X3311084Y694593D1*
X3318196Y696301D1*
X3325487Y696874D1*
X3328672Y696749D1*
X3426171Y794236D1*
X3426140Y1481381D1*
X3387356Y1520207D1*
X3387256Y816630D1*
X3385853Y809572D1*
X3382840Y803038D1*
X3378385Y797387D1*
X3057836Y476971D1*
X3051853Y472974D1*
X3045102Y470483D1*
X3037957Y469638D1*
X2466745Y469732D1*
X2459688Y471136D1*
X2453154Y474148D1*
X2447503Y478604D1*
X2377113Y549126D1*
X2373115Y555109D1*
X2370625Y561860D1*
X2369780Y569005D1*
Y617004D1*
X2359856Y615370D1*
X2350428D1*
X2341118Y616845D1*
X2332152Y619759D1*
X2323753Y624038D1*
X2316126Y629579D1*
X2309461Y636244D1*
X2305178Y641987D1*
X2300823Y636244D1*
X2294157Y629579D1*
X2286530Y624038D1*
X2278131Y619759D1*
X2269165Y616845D1*
X2259856Y615370D1*
X2250428D1*
X2240248Y617091D1*
X2067175Y444004D1*
X3706451Y444000D1*
X3706500Y3900299D1*
X559967Y3900251D1*
X563348Y3891374D1*
X566740Y3877240D1*
X567881Y3862749D1*
X566740Y3848260D1*
X563348Y3834126D1*
X557785Y3820697D1*
X550190Y3808303D1*
X540751Y3797249D1*
X529697Y3787810D1*
X517303Y3780215D1*
X503874Y3774652D1*
X489740Y3771260D1*
X487738Y3771022D1*
X487751Y3106354D1*
X586572Y3205055D1*
X592555Y3209054D1*
X599306Y3211545D1*
X606451Y3212390D1*
X668415D1*
X666799Y3217793D1*
X665324Y3227102D1*
Y3236530D1*
X666799Y3245840D1*
X669713Y3254806D1*
X673992Y3263205D1*
X679533Y3270832D1*
X686198Y3277497D1*
X691941Y3281780D1*
X686198Y3286135D1*
X679533Y3292801D1*
X673992Y3300428D1*
X669713Y3308827D1*
X666799Y3317793D1*
X665324Y3327102D1*
Y3336530D1*
X666799Y3345840D1*
X669713Y3354806D1*
X673992Y3363205D1*
X679533Y3370832D1*
X686198Y3377497D1*
X691941Y3381780D1*
X686198Y3386135D1*
X679533Y3392801D1*
X673992Y3400428D1*
X669713Y3408827D1*
X666799Y3417793D1*
X665324Y3427102D1*
Y3436530D1*
X666799Y3445840D1*
X669713Y3454806D1*
X673992Y3463205D1*
X679533Y3470832D1*
X680370Y3471739D1*
X665139Y3471741D1*
Y3591891D1*
X785289D1*
Y3576705D1*
X793825Y3583038D1*
X802224Y3587318D1*
X811190Y3590231D1*
X820500Y3591706D1*
X829928D1*
X839238Y3590231D1*
X848203Y3587318D1*
X856602Y3583038D1*
X864230Y3577497D1*
X870895Y3570832D1*
X876436Y3563205D1*
X880715Y3554806D1*
X883629Y3545840D1*
X885104Y3536530D1*
Y3527102D1*
X883629Y3517793D1*
X880715Y3508827D1*
X876436Y3500428D1*
X870895Y3492801D1*
X864230Y3486135D1*
X858487Y3481853D1*
X864230Y3477497D1*
X870895Y3470832D1*
X876436Y3463205D1*
X880715Y3454806D1*
X883629Y3445840D1*
X885104Y3436530D1*
Y3427102D1*
X883629Y3417793D1*
X880715Y3408827D1*
X876436Y3400428D1*
X870895Y3392801D1*
X864230Y3386135D1*
X856602Y3380594D1*
X848203Y3376315D1*
X839238Y3373402D1*
X829928Y3371927D1*
X820500D1*
X811190Y3373402D1*
X802224Y3376315D1*
X793825Y3380594D1*
X786198Y3386135D1*
X779533Y3392801D1*
X775251Y3398543D1*
X770895Y3392801D1*
X764230Y3386135D1*
X758487Y3381853D1*
X764230Y3377497D1*
X770895Y3370832D1*
X776436Y3363205D1*
X780715Y3354806D1*
X783629Y3345840D1*
X785104Y3336530D1*
Y3327102D1*
X783629Y3317793D1*
X780715Y3308827D1*
X779490Y3306167D1*
X1018823Y3306150D1*
X1061622Y3348820D1*
X1067605Y3352819D1*
X1074356Y3355310D1*
X1081501Y3356155D1*
X1096394D1*
X1096434Y3435625D1*
X1216584D1*
Y3346318D1*
X1284570Y3278308D1*
X1291430Y3278283D1*
X1298654Y3277139D1*
X1305610Y3274878D1*
X1312127Y3271558D1*
X1318043Y3267259D1*
X1322895Y3262433D1*
X1442314Y3262427D1*
X1448364Y3270832D1*
X1455029Y3277497D1*
X1460772Y3281780D1*
X1455029Y3286135D1*
X1448364Y3292801D1*
X1442823Y3300428D1*
X1438543Y3308827D1*
X1435630Y3317793D1*
X1434155Y3327102D1*
Y3336530D1*
X1435630Y3345840D1*
X1438543Y3354806D1*
X1442823Y3363205D1*
X1448364Y3370832D1*
X1455029Y3377497D1*
X1460772Y3381780D1*
X1455029Y3386135D1*
X1448364Y3392801D1*
X1442823Y3400428D1*
X1438543Y3408827D1*
X1435630Y3417793D1*
X1434155Y3427102D1*
Y3436530D1*
X1435630Y3445840D1*
X1438543Y3454806D1*
X1442823Y3463205D1*
X1448364Y3470832D1*
X1449201Y3471739D1*
X1433970Y3471741D1*
Y3591891D1*
X1554119D1*
Y3576705D1*
X1562656Y3583038D1*
X1571055Y3587318D1*
X1580021Y3590231D1*
X1589331Y3591706D1*
X1598759D1*
X1608068Y3590231D1*
X1617034Y3587318D1*
X1625433Y3583038D1*
X1633060Y3577497D1*
X1639726Y3570832D1*
X1645266Y3563205D1*
X1649546Y3554806D1*
X1652459Y3545840D1*
X1653934Y3536530D1*
X1653958Y3527710D1*
X1942366Y3239163D1*
X1946364Y3233180D1*
X1948854Y3226429D1*
X1949699Y3219283D1*
Y1481735D1*
X2000568Y1430909D1*
X2004542Y1438507D1*
X2009606Y1445538D1*
X1995545Y1445545D1*
Y1567663D1*
X2117663D1*
Y1553648D1*
X2124701Y1558665D1*
X2133238Y1563014D1*
X2142349Y1565975D1*
X2151814Y1567475D1*
X2161394D1*
X2170858Y1565975D1*
X2179970Y1563014D1*
X2188507Y1558665D1*
X2196259Y1553033D1*
X2201012Y1548445D1*
Y2271004D1*
X2192493Y2263551D1*
X2184324Y2258545D1*
X2175472Y2254878D1*
X2166155Y2252642D1*
X2156604Y2251890D1*
X2147052Y2252642D1*
X2137735Y2254878D1*
X2128883Y2258545D1*
X2120714Y2263551D1*
X2113428Y2269773D1*
X2106634Y2277916D1*
X2099780Y2269773D1*
X2092493Y2263551D1*
X2084324Y2258545D1*
X2075472Y2254878D1*
X2066155Y2252642D1*
X2056604Y2251890D1*
X2047052Y2252642D1*
X2037735Y2254878D1*
X2028883Y2258545D1*
X2020714Y2263551D1*
X2013428Y2269773D1*
X2007206Y2277059D1*
X2002199Y2285228D1*
X1998533Y2294080D1*
X1996297Y2303398D1*
X1995545Y2312949D1*
X1996297Y2322500D1*
X1998533Y2331818D1*
X2002199Y2340669D1*
X2007206Y2348839D1*
X2009606Y2351883D1*
X1995545Y2351890D1*
Y2474008D1*
X2117663D1*
Y2459993D1*
X2124701Y2465010D1*
X2133238Y2469360D1*
X2142349Y2472320D1*
X2151814Y2473820D1*
X2161394D1*
X2170858Y2472320D1*
X2179970Y2469360D1*
X2188507Y2465010D1*
X2196259Y2459378D1*
X2201012Y2454790D1*
Y3176181D1*
X2199780Y3176118D1*
X2192493Y3169896D1*
X2184324Y3164890D1*
X2175472Y3161223D1*
X2166155Y3158987D1*
X2156604Y3158235D1*
X2147052Y3158987D1*
X2137735Y3161223D1*
X2128883Y3164890D1*
X2120714Y3169896D1*
X2113428Y3176118D1*
X2106634Y3184261D1*
X2099780Y3176118D1*
X2092493Y3169896D1*
X2084324Y3164890D1*
X2075472Y3161223D1*
X2066155Y3158987D1*
X2056604Y3158235D1*
X2047052Y3158987D1*
X2037735Y3161223D1*
X2028883Y3164890D1*
X2020714Y3169896D1*
X2013428Y3176118D1*
X2007206Y3183404D1*
X2002199Y3191573D1*
X1998533Y3200425D1*
X1996297Y3209743D1*
X1995545Y3219294D1*
X1996297Y3228845D1*
X1998533Y3238163D1*
X2002199Y3247014D1*
X2007206Y3255184D1*
X2009606Y3258228D1*
X1995545Y3258235D1*
Y3380353D1*
X2117663D1*
Y3366339D1*
X2124701Y3371356D1*
X2133238Y3375705D1*
X2142349Y3378665D1*
X2151814Y3380165D1*
X2155575Y3380312D1*
X2486772Y3711360D1*
X2492755Y3715357D1*
X2499505Y3717848D1*
X2501871Y3718318D1*
X2504110Y3725491D1*
Y3734518D1*
X2596701D1*
Y3716891D1*
X2923404Y3716865D1*
X2965205Y3758497D1*
X2971188Y3762495D1*
X2977938Y3764986D1*
X2985084Y3765831D1*
X3003492D1*
X3009461Y3774236D1*
X3016126Y3780902D1*
X3023753Y3786442D1*
X3032152Y3790722D1*
X3041118Y3793635D1*
X3050428Y3795110D1*
X3059856D1*
X3069165Y3793635D1*
X3078131Y3790722D1*
X3086530Y3786442D1*
X3094157Y3780902D1*
X3100823Y3774236D1*
X3106364Y3766609D1*
X3110643Y3758210D1*
X3113556Y3749244D1*
X3115041Y3739694D1*
X3126226Y3750350D1*
X3132504Y3753867D1*
X3139429Y3755820D1*
X3144218Y3756197D1*
X3540411Y3756102D1*
X3547469Y3754698D1*
X3554003Y3751686D1*
X3559654Y3747231D1*
X3642545Y3664207D1*
X3646542Y3658224D1*
X3649033Y3651474D1*
X3649878Y3644328D1*
X3649783Y3485660D1*
X3648379Y3478602D1*
X3645367Y3472068D1*
X3640912Y3466417D1*
X3589163Y3414802D1*
X3587268Y3413308D1*
X3582980Y3406689D1*
X3577440Y3399062D1*
X3570774Y3392396D1*
X3563147Y3386856D1*
X3554748Y3382576D1*
X3545782Y3379663D1*
X3536472Y3378188D1*
X3527045D1*
X3517735Y3379663D1*
X3508769Y3382576D1*
X3500370Y3386856D1*
X3492743Y3392396D1*
X3486077Y3399062D1*
X3480537Y3406689D1*
X3476257Y3415088D1*
X3473344Y3424054D1*
X3471869Y3433364D1*
Y3442791D1*
X3473344Y3452101D1*
X3476257Y3461067D1*
X3480537Y3469466D1*
X3486077Y3477093D1*
X3492743Y3483759D1*
X3500370Y3489299D1*
X3508769Y3493579D1*
X3517735Y3496492D1*
X3527045Y3497967D1*
X3536472D1*
X3545782Y3496492D1*
X3554748Y3493579D1*
X3563147Y3489299D1*
X3571248Y3483322D1*
X3588692Y3500774D1*
X3588657Y3577954D1*
X3484184Y3310612D2*
X3591833D1*
Y3190462D1*
X3471684D1*
Y3310612D1*
X3484184D1*
X3591648Y3045823D2*
X3590173Y3036513D1*
X3587260Y3027547D1*
X3582980Y3019148D1*
X3577440Y3011521D1*
X3570774Y3004856D1*
X3563147Y2999315D1*
X3554748Y2995035D1*
X3545782Y2992122D1*
X3536472Y2990647D1*
X3527045D1*
X3517735Y2992122D1*
X3508769Y2995035D1*
X3500370Y2999315D1*
X3492743Y3004856D1*
X3486077Y3011521D1*
X3480537Y3019148D1*
X3476257Y3027547D1*
X3473344Y3036513D1*
X3471869Y3045823D1*
Y3055251D1*
X3473344Y3064560D1*
X3476257Y3073526D1*
X3480537Y3081925D1*
X3486077Y3089552D1*
X3492743Y3096218D1*
X3500370Y3101759D1*
X3508769Y3106038D1*
X3517735Y3108951D1*
X3527045Y3110427D1*
X3536472D1*
X3545782Y3108951D1*
X3554748Y3106038D1*
X3563147Y3101759D1*
X3570774Y3096218D1*
X3577440Y3089552D1*
X3582980Y3081925D1*
X3587260Y3073526D1*
X3590173Y3064560D1*
X3591648Y3055251D1*
Y3045823D1*
D18*
X1156520Y2475457D3*
D19*
Y2375457D3*
Y2275457D3*
Y2175457D3*
Y2075457D3*
Y1975457D3*
Y1875457D3*
Y1775457D3*
D18*
Y1575378D3*
D19*
Y1475378D3*
Y1375378D3*
Y1275378D3*
Y1175378D3*
Y1075378D3*
Y975378D3*
Y875378D3*
D18*
X3231727Y3488062D3*
D19*
Y3388062D3*
Y3288062D3*
D18*
X3531759Y3638077D3*
D19*
Y3538077D3*
Y3438077D3*
D18*
Y3250537D3*
D19*
Y3150537D3*
Y3050537D3*
D18*
X3055142Y1075323D3*
D19*
Y1175323D3*
Y1275323D3*
Y1375323D3*
Y1475323D3*
Y1575323D3*
Y1675323D3*
Y1775323D3*
D18*
Y775260D3*
D19*
Y675260D3*
X2955142Y775260D3*
Y675260D3*
X2855142Y775260D3*
Y675260D3*
X2755142Y775260D3*
Y675260D3*
X2655142Y775260D3*
Y675260D3*
X2555142Y775260D3*
Y675260D3*
X2455142Y775260D3*
Y675260D3*
X2355142Y775260D3*
Y675260D3*
X2255142Y775260D3*
Y675260D3*
X2155142Y775260D3*
Y675260D3*
X2055142Y775260D3*
Y675260D3*
X1955142Y775260D3*
Y675260D3*
X1855142Y775260D3*
Y675260D3*
X1755142Y775260D3*
Y675260D3*
X1655142Y775260D3*
Y675260D3*
X1555142Y775260D3*
Y675260D3*
X1455142Y775260D3*
Y675260D3*
X1355142Y775260D3*
Y675260D3*
D18*
X725224Y1812802D3*
D19*
X825224D3*
X725224Y1712802D3*
X825224D3*
X725224Y1612802D3*
X825224D3*
X725224Y1512802D3*
X825224D3*
X725224Y1412802D3*
X825224D3*
X725224Y1312802D3*
X825224D3*
X725224Y1212802D3*
X825224D3*
X725224Y1112802D3*
X825224D3*
X725224Y1012802D3*
X825224D3*
D18*
X1494045Y1812886D3*
D19*
X1594045D3*
X1494045Y1712886D3*
X1594045D3*
X1494045Y1612886D3*
X1594045D3*
X1494045Y1512886D3*
X1594045D3*
X1494045Y1412886D3*
X1594045D3*
X1494045Y1312886D3*
X1594045D3*
X1494045Y1212886D3*
X1594045D3*
X1494045Y1112886D3*
X1594045D3*
X1494045Y1012886D3*
X1594045D3*
D18*
X725214Y3531816D3*
D19*
X825214D3*
X725214Y3431816D3*
X825214D3*
X725214Y3331816D3*
X825214D3*
X725214Y3231816D3*
X825214D3*
X725214Y3131816D3*
X825214D3*
X725214Y3031816D3*
X825214D3*
X725214Y2931816D3*
X825214D3*
X725214Y2831816D3*
X825214D3*
X725214Y2731816D3*
X825214D3*
D18*
X1494045Y3531816D3*
D19*
X1594045D3*
X1494045Y3431816D3*
X1594045D3*
X1494045Y3331816D3*
X1594045D3*
X1494045Y3231816D3*
X1594045D3*
X1494045Y3131816D3*
X1594045D3*
X1494045Y3031816D3*
X1594045D3*
X1494045Y2931816D3*
X1594045D3*
X1494045Y2831816D3*
X1594045D3*
X1494045Y2731816D3*
X1594045D3*
D18*
X2575408Y2600469D3*
D19*
X2675408D3*
X2575408Y2500469D3*
X2675408D3*
X2575408Y2400469D3*
X2675408D3*
X2575408Y2300469D3*
X2675408D3*
X2575408Y2200469D3*
X2675408D3*
X2575408Y2100469D3*
X2675408D3*
X2575408Y2000469D3*
X2675408D3*
X2575408Y1900469D3*
X2675408D3*
X2575408Y1800469D3*
X2675408D3*
D18*
X3350490Y2600469D3*
D19*
X3450490D3*
X3350490Y2500469D3*
X3450490D3*
X3350490Y2400469D3*
X3450490D3*
X3350490Y2300469D3*
X3450490D3*
X3350490Y2200469D3*
X3450490D3*
X3350490Y2100469D3*
X3450490D3*
X3350490Y2000469D3*
X3450490D3*
X3350490Y1900469D3*
X3450490D3*
X3350490Y1800469D3*
X3450490D3*
D20*
X2056604Y1506604D3*
D21*
Y1406604D3*
Y1306604D3*
X2156604D3*
Y1406604D3*
Y1506604D3*
D20*
X2056604Y3319294D3*
D21*
Y3219294D3*
Y3119294D3*
X2156604D3*
Y3219294D3*
Y3319294D3*
D20*
X2056604Y2412949D3*
D21*
Y2312949D3*
Y2212949D3*
X2156604D3*
Y2312949D3*
Y2412949D3*
D18*
X825224Y2631722D3*
D19*
X725224D3*
D18*
X1594055Y912791D3*
D19*
X1494055D3*
D18*
X1594055Y2631722D3*
D19*
X1494055D3*
D18*
X825224Y912791D3*
D19*
X725224D3*
D18*
X3450500Y1700374D3*
D19*
X3350500D3*
D18*
X2675419D3*
D19*
X2575419D3*
X2937946Y1175319D3*
Y1075308D3*
D18*
X1156509Y3375550D3*
D19*
Y3275550D3*
Y3175550D3*
Y3075550D3*
Y2975550D3*
Y2875550D3*
Y2775550D3*
Y2675550D3*
D18*
X3055142Y2835220D3*
D19*
Y2935220D3*
Y3035220D3*
Y3135220D3*
Y3235220D3*
Y3335220D3*
Y3435220D3*
Y3535220D3*
Y3635220D3*
Y3735220D3*
D18*
Y1975375D3*
D19*
Y2075375D3*
Y2175375D3*
Y2275375D3*
Y2375375D3*
Y2475375D3*
Y2575375D3*
Y2675375D3*
D22*
X2644165Y3606824D3*
Y3539895D3*
X2550406Y3619325D3*
Y3686255D3*
M02*
