M48
INCH
T01C0.0191
T02C0.0433
T03C0.0449
T04C0.1004
%
T01
X+012440Y+016754
X+012872Y+016254
X+013336Y+015191
X+013832Y+014237
X+027004Y+013128
X+027629Y+013878
X+029379Y+021192
X+029317Y+022317
X+029504Y+023317
X+027754Y+026255
X+013815Y+030318
X+013315Y+031318
X+012878Y+032318
X+025067Y+006003
X+026004Y+006003
X+027067Y+006065
X+028004Y+006065
X+033255Y+006503
X+033880Y+006628
T02
X+011565Y+024755
X+011565Y+023755
X+011565Y+022755
X+011565Y+021755
X+011565Y+020755
X+011565Y+019755
X+011565Y+018755
X+011565Y+017755
X+011565Y+015754
X+011565Y+014754
X+011565Y+013754
X+011565Y+012754
X+011565Y+011754
X+011565Y+010754
X+011565Y+009754
X+011565Y+008754
X+013551Y+007753
X+013551Y+006753
X+014551Y+006753
X+015551Y+006753
X+016551Y+006753
X+017551Y+006753
X+018551Y+006753
X+019551Y+006753
X+020551Y+006753
X+021551Y+006753
X+022551Y+006753
X+023551Y+006753
X+024551Y+006753
X+025551Y+006753
X+026551Y+006753
X+027551Y+006753
X+028551Y+006753
X+029551Y+006753
X+030551Y+006753
X+030551Y+007753
X+029551Y+007753
X+028551Y+007753
X+027551Y+007753
X+026551Y+007753
X+025551Y+007753
X+024551Y+007753
X+023551Y+007753
X+022551Y+007753
X+021551Y+007753
X+020551Y+007753
X+019551Y+007753
X+018551Y+007753
X+017551Y+007753
X+016551Y+007753
X+015551Y+007753
X+014551Y+007753
X+014941Y+009128
X+015941Y+009128
X+015940Y+010129
X+015940Y+011129
X+015940Y+012129
X+015940Y+013129
X+015940Y+014129
X+015940Y+015129
X+015940Y+016129
X+015940Y+017129
X+015940Y+018129
X+014940Y+018129
X+014940Y+017129
X+014940Y+016129
X+014940Y+015129
X+014940Y+014129
X+014940Y+013129
X+014940Y+012129
X+014940Y+011129
X+014940Y+010129
X+008252Y+010128
X+008252Y+011128
X+008252Y+012128
X+008252Y+013128
X+008252Y+014128
X+007252Y+014128
X+007252Y+013128
X+007252Y+012128
X+007252Y+011128
X+007252Y+010128
X+007252Y+009128
X+008252Y+009128
X+008252Y+015128
X+007252Y+015128
X+007252Y+016128
X+007252Y+017128
X+007252Y+018128
X+008252Y+018128
X+008252Y+017128
X+008252Y+016128
X+008252Y+026317
X+007252Y+026317
X+007252Y+027318
X+007252Y+028318
X+007252Y+029318
X+007252Y+030318
X+007252Y+031318
X+007252Y+032318
X+007252Y+033318
X+007252Y+034318
X+007252Y+035318
X+008252Y+035318
X+008252Y+034318
X+008252Y+033318
X+008252Y+032318
X+008252Y+031318
X+008252Y+030318
X+008252Y+029318
X+008252Y+028318
X+008252Y+027318
X+011565Y+027755
X+011565Y+028755
X+011565Y+029755
X+011565Y+030755
X+011565Y+031755
X+011565Y+032755
X+011565Y+033755
X+014940Y+033318
X+014940Y+034318
X+014940Y+035318
X+015940Y+035318
X+015940Y+034318
X+015940Y+033318
X+015940Y+032318
X+014940Y+032318
X+014940Y+031318
X+015940Y+031318
X+015940Y+030318
X+014940Y+030318
X+014940Y+029318
X+014940Y+028318
X+015940Y+028318
X+015940Y+029318
X+015940Y+027318
X+014940Y+027318
X+014941Y+026317
X+015941Y+026317
X+011565Y+026755
X+025754Y+026005
X+025754Y+025005
X+026754Y+025005
X+026754Y+026005
X+026754Y+024005
X+025754Y+024005
X+025754Y+023005
X+026754Y+023005
X+026754Y+022005
X+025754Y+022005
X+025754Y+021005
X+026754Y+021005
X+026754Y+020005
X+026754Y+019005
X+026754Y+018005
X+025754Y+018005
X+025754Y+019005
X+025754Y+020005
X+025754Y+017004
X+026754Y+017004
X+030551Y+016753
X+030551Y+015753
X+030551Y+014753
X+030551Y+013753
X+030551Y+012753
X+030551Y+011753
X+030551Y+010753
X+029379Y+010753
X+029379Y+011753
X+030551Y+017753
X+030551Y+019754
X+030551Y+020754
X+030551Y+021754
X+030551Y+022754
X+030551Y+023754
X+030551Y+024754
X+030551Y+025754
X+030551Y+026754
X+030551Y+028352
X+030551Y+029352
X+030551Y+030352
X+030551Y+031352
X+030551Y+032352
X+030551Y+033352
X+030551Y+034352
X+030551Y+035352
X+030551Y+036352
X+030551Y+037352
X+032317Y+034881
X+032317Y+033881
X+032317Y+032881
X+035318Y+032505
X+035318Y+031505
X+035318Y+030505
X+035318Y+034381
X+035318Y+035381
X+035318Y+036381
X+034505Y+026005
X+034505Y+025005
X+033505Y+025005
X+033505Y+026005
X+033505Y+024005
X+033505Y+023005
X+033505Y+022005
X+033505Y+021005
X+034505Y+021005
X+034505Y+020005
X+034505Y+019005
X+034505Y+018005
X+033505Y+018005
X+033505Y+019005
X+033505Y+020005
X+034505Y+022005
X+034505Y+023005
X+034505Y+024005
X+034505Y+017004
X+033505Y+017004
T03
X+020566Y+015066
X+020566Y+014066
X+020566Y+013066
X+021566Y+013066
X+021566Y+014066
X+021566Y+015066
X+021566Y+022129
X+020566Y+022129
X+020566Y+023129
X+020566Y+024129
X+021566Y+024129
X+021566Y+023129
X+021566Y+031193
X+020566Y+031193
X+020566Y+032193
X+020566Y+033193
X+021566Y+033193
X+021566Y+032193
T04
X+038627Y+038627
X+004753Y+038627
X+004753Y+004753
X+038627Y+004752
T00
M30
