M48
INCH
T01C0.018
T02C0.0433
T03C0.1004
%
T01
X+010316Y+004940
X+009316Y+006378
X+008440Y+006878
X+009441Y+008628
X+013977Y+004940
X+015629Y+004565
X+016566Y+004753
X+017441Y+004753
X+017441Y+006378
X+016566Y+006440
X+015879Y+006440
X+015402Y+008378
X+017441Y+007878
T02
X+005753Y+009441
X+005753Y+008441
X+005753Y+007441
X+006753Y+007441
X+006753Y+008441
X+006753Y+009441
X+017817Y+009440
X+017817Y+008440
X+018817Y+008440
X+018817Y+009440
X+018817Y+010440
X+017817Y+010440
T03
X+005378Y+005190
X+015381Y+010195
T00
M30
