G04 DipTrace 2.4.0.2*
%INTop.gbr*%
%MOIN*%
%ADD14C,0.013*%
%ADD17R,0.0394X0.0433*%
%ADD18R,0.0433X0.0394*%
%ADD19R,0.0394X0.0335*%
%ADD20R,0.0669X0.0669*%
%ADD21C,0.0669*%
%ADD22R,0.0787X0.0236*%
%ADD23C,0.04*%
%FSLAX44Y44*%
G04*
G70*
G90*
G75*
G01*
%LNTop*%
%LPD*%
X18754Y4940D2*
D14*
X18129D1*
X13977Y8878D2*
Y9530D1*
X13691Y9816D1*
X12485D1*
X13977Y8878D2*
X14816D1*
X14879Y8941D1*
X16317D1*
X17817Y10440D1*
X10316Y5878D2*
Y5378D1*
Y4940D1*
X5753Y9441D2*
Y10459D1*
X5708Y10503D1*
X11878Y4440D2*
X10816D1*
X10316Y4940D1*
X9172D1*
X9066Y4833D1*
X10316Y8378D2*
X9691D1*
X9441Y8628D1*
X6378Y10503D2*
X7190D1*
X13977Y7878D2*
X14629D1*
X14816Y7690D1*
X15209D1*
X13977Y7378D2*
X14566D1*
X14879Y7065D1*
X15209D1*
Y6940D1*
X13977Y6878D2*
X14628D1*
X15254Y6253D1*
Y5940D1*
X15272D1*
X13977Y6378D2*
X14628D1*
X14816Y6190D1*
Y5315D1*
X14941Y5190D1*
X15272D1*
X13977Y5378D2*
Y5878D1*
Y5378D2*
Y4940D1*
X12548Y4440D2*
X13477D1*
X13977Y4940D1*
X17347Y5566D2*
X17441D1*
Y4753D1*
X13977Y8378D2*
X14772D1*
X14879Y8271D1*
X17817Y9440D2*
X17316D1*
X16254Y8378D1*
X15402D1*
X14985D1*
X14879Y8271D1*
X17441Y4753D2*
X17379D1*
X16941Y4315D1*
X15879D1*
X15629Y4565D1*
X17347Y7316D2*
X17441D1*
Y6378D1*
Y7316D2*
Y7878D1*
X18754Y6565D2*
X18129D1*
X10316Y8878D2*
X9753D1*
X9378Y9253D1*
X8834D1*
X8753Y9172D1*
Y9253D1*
X6940D1*
X6753Y9441D1*
X8753Y9172D2*
Y10066D1*
X8315Y10503D1*
X7860D1*
X10316Y8878D2*
Y9441D1*
X10691Y9816D1*
X11816D1*
X7815Y5565D2*
X8422D1*
X8440Y5583D1*
X9066Y5503D2*
X8521D1*
X8440Y5583D1*
X7815Y5565D2*
X7253D1*
X6253Y6565D1*
X5315D1*
X4940Y6940D1*
Y10441D1*
X5378Y10878D1*
X7690D1*
X8065Y10503D1*
X7860D1*
X10316Y7378D2*
X6815D1*
X6753Y7441D1*
X7815Y6234D2*
X6959D1*
X6753Y6440D1*
Y7440D1*
Y7441D1*
X10316Y7878D2*
X9628D1*
X9066Y8440D1*
X8816D1*
X8753Y8503D1*
X7003D1*
X6940Y8441D1*
X6753D1*
X10316Y6378D2*
X9316D1*
X8440Y6253D2*
Y6878D1*
X10316D2*
X8440D1*
X16566Y7690D2*
X15879D1*
X16566D2*
Y8128D1*
X16879Y8440D1*
X17817D1*
Y8315D1*
X18129Y8003D1*
Y7235D1*
X15879Y6940D2*
X16564D1*
X16566Y6942D1*
X18817Y8440D2*
Y7297D1*
X18754Y7235D1*
X16566Y6942D2*
Y6440D1*
X15941Y5940D2*
X16566D1*
X17816D1*
X18129Y5628D1*
Y5609D1*
X15941Y5940D2*
Y6378D1*
X15879Y6440D1*
X15941Y5190D2*
X16564D1*
X16566Y5192D1*
Y4753D1*
X18754Y5609D2*
Y5628D1*
X19192D1*
X19504Y5940D1*
Y9753D1*
X18817Y10440D1*
D23*
X10316Y4940D3*
X9441Y8628D3*
X13977Y4940D3*
X17441Y4753D3*
X15629Y4565D3*
X17441Y6378D3*
Y7878D3*
X15402Y8378D3*
X9316Y6378D3*
X8440Y6878D3*
X16566Y6440D3*
X15879D3*
X16566Y4753D3*
D17*
X18754Y4940D3*
Y5609D3*
Y6565D3*
Y7235D3*
X14879Y8941D3*
Y8271D3*
X9066Y5503D3*
Y4833D3*
D18*
X7190Y10503D3*
X7860D3*
D19*
X16566Y5940D3*
Y5192D3*
X17347Y5566D3*
X16566Y7690D3*
Y6942D3*
X17347Y7316D3*
D20*
X5753Y9441D3*
D21*
X6753D3*
X5753Y8441D3*
X6753D3*
X5753Y7441D3*
X6753D3*
D20*
X18817Y8440D3*
D21*
X17817D3*
X18817Y9440D3*
X17817D3*
X18817Y10440D3*
X17817D3*
D17*
X8440Y5583D3*
Y6253D3*
D18*
X11878Y4440D3*
X12548D3*
D17*
X8753Y8503D3*
Y9172D3*
D18*
X11816Y9816D3*
X12485D3*
X15879Y6940D3*
X15209D3*
D17*
X18129Y4940D3*
Y5609D3*
Y6565D3*
Y7235D3*
D18*
X15879Y7690D3*
X15209D3*
X15941Y5940D3*
X15272D3*
X15941Y5190D3*
X15272D3*
D17*
X7815Y5565D3*
Y6234D3*
D18*
X6378Y10503D3*
X5708D3*
D22*
X10316Y8878D3*
Y8378D3*
Y7878D3*
Y7378D3*
Y6878D3*
Y6378D3*
Y5878D3*
Y5378D3*
X13977D3*
Y5878D3*
Y6378D3*
Y6878D3*
Y7378D3*
Y7878D3*
Y8378D3*
Y8878D3*
M02*
