G04 DipTrace 2.4.0.2*
%INTopSilk.gbr*%
%MOIN*%
%ADD10C,0.0098*%
%ADD16C,0.007*%
%ADD42C,0.0077*%
%ADD43C,0.0046*%
%ADD44C,0.0062*%
%FSLAX44Y44*%
G04*
G70*
G90*
G75*
G01*
%LNTopSilk*%
%LPD*%
X6856Y10346D2*
D10*
Y10661D1*
X16858Y6157D2*
Y4976D1*
X17055D1*
Y6157D1*
X16858D1*
Y7907D2*
Y6726D1*
X17055D1*
Y7907D1*
X16858D1*
X7253Y9941D2*
X5253D1*
Y6941D1*
X7253D1*
Y9941D1*
X17317Y7940D2*
X19317D1*
Y10940D1*
X17317D1*
Y7940D1*
X10886Y9206D2*
Y5050D1*
X13407Y9206D2*
Y5050D1*
X10959Y5065D2*
X13396D1*
X10959Y9191D2*
X11771D1*
X12459D2*
X13396D1*
X11823Y9144D2*
G03X12470Y9144I324J35D01*
G01*
X7503Y7940D2*
D16*
X8253D1*
X16769Y9297D2*
D43*
X16740Y9282D1*
X16711Y9253D1*
X16697Y9225D1*
Y9168D1*
X16711Y9139D1*
X16740Y9110D1*
X16769Y9096D1*
X16812Y9081D1*
X16884D1*
X16926Y9096D1*
X16955Y9110D1*
X16984Y9139D1*
X16998Y9168D1*
Y9225D1*
X16984Y9253D1*
X16955Y9282D1*
X16926Y9297D1*
X16884D1*
Y9225D1*
X16697Y9590D2*
X16998D1*
X16697Y9389D1*
X16998D1*
X16697Y9683D2*
X16998D1*
Y9783D1*
X16984Y9826D1*
X16955Y9855D1*
X16926Y9870D1*
X16884Y9884D1*
X16812D1*
X16769Y9870D1*
X16740Y9855D1*
X16711Y9826D1*
X16697Y9783D1*
Y9683D1*
X16966Y8153D2*
D44*
X16813Y8555D1*
X16660Y8153D1*
X16717Y8287D2*
X16909D1*
X19598Y8617D2*
Y8215D1*
X19770D1*
X19827Y8235D1*
X19846Y8254D1*
X19865Y8292D1*
Y8349D1*
X19846Y8388D1*
X19827Y8407D1*
X19770Y8426D1*
X19827Y8445D1*
X19846Y8464D1*
X19865Y8502D1*
Y8541D1*
X19846Y8579D1*
X19827Y8598D1*
X19770Y8617D1*
X19598D1*
Y8426D2*
X19770D1*
X19598Y9680D2*
X19865D1*
X19598Y9278D1*
X19865D1*
X19598Y10680D2*
X19751Y10489D1*
Y10278D1*
X19903Y10680D2*
X19751Y10489D1*
X16464Y10776D2*
D43*
X16579Y10475D1*
X16694Y10776D1*
X16787D2*
X16801Y10762D1*
X16815Y10776D1*
X16801Y10791D1*
X16787Y10776D1*
X16801Y10676D2*
Y10475D1*
X16908Y10676D2*
Y10475D1*
Y10619D2*
X16951Y10662D1*
X16980Y10676D1*
X17023D1*
X17052Y10662D1*
X17066Y10619D1*
Y10475D1*
X19478Y4944D2*
D42*
Y4634D1*
X19980D1*
Y4944D1*
X19717Y4634D2*
Y4825D1*
X19645Y5099D2*
X19980D1*
X19741D2*
X19669Y5170D1*
X19645Y5218D1*
Y5290D1*
X19669Y5338D1*
X19741Y5362D1*
X19980D1*
X19717Y5803D2*
X19669Y5755D1*
X19645Y5707D1*
Y5636D1*
X19669Y5588D1*
X19717Y5540D1*
X19789Y5516D1*
X19837D1*
X19908Y5540D1*
X19956Y5588D1*
X19980Y5636D1*
Y5707D1*
X19956Y5755D1*
X19908Y5803D1*
X19932Y5982D2*
X19956Y5958D1*
X19980Y5982D1*
X19956Y6006D1*
X19932Y5982D1*
X19478Y6646D2*
X19980D1*
X19645Y6801D2*
X19980D1*
X19741D2*
X19669Y6873D1*
X19645Y6921D1*
Y6992D1*
X19669Y7040D1*
X19741Y7064D1*
X19980D1*
X4501Y9292D2*
D44*
X4463Y9273D1*
X4425Y9234D1*
X4406Y9196D1*
Y9120D1*
X4425Y9081D1*
X4463Y9043D1*
X4501Y9024D1*
X4559Y9005D1*
X4655D1*
X4712Y9024D1*
X4750Y9043D1*
X4788Y9081D1*
X4808Y9120D1*
Y9196D1*
X4788Y9234D1*
X4750Y9273D1*
X4712Y9292D1*
X4655D1*
Y9196D1*
X4406Y9683D2*
X4808D1*
X4406Y9415D1*
X4808D1*
X4406Y9807D2*
X4808D1*
Y9941D1*
X4788Y9998D1*
X4750Y10037D1*
X4712Y10056D1*
X4655Y10075D1*
X4559D1*
X4501Y10056D1*
X4463Y10037D1*
X4425Y9998D1*
X4406Y9941D1*
Y9807D1*
X4422Y8619D2*
D42*
Y8116D1*
X4589D1*
X4661Y8141D1*
X4709Y8188D1*
X4733Y8236D1*
X4757Y8308D1*
Y8428D1*
X4733Y8499D1*
X4709Y8547D1*
X4661Y8595D1*
X4589Y8619D1*
X4422D1*
X4214Y7596D2*
Y7093D1*
X4382D1*
X4454Y7118D1*
X4502Y7165D1*
X4525Y7213D1*
X4549Y7284D1*
Y7404D1*
X4525Y7476D1*
X4502Y7524D1*
X4454Y7572D1*
X4382Y7596D1*
X4214D1*
X5014D2*
X4704D1*
Y7093D1*
X5014D1*
X4704Y7356D2*
X4895D1*
X7548Y7488D2*
D44*
X7720D1*
X7778Y7508D1*
X7797Y7527D1*
X7816Y7565D1*
Y7603D1*
X7797Y7641D1*
X7778Y7661D1*
X7720Y7680D1*
X7548D1*
Y7278D1*
X7682Y7488D2*
X7816Y7278D1*
X8188Y7680D2*
X7940D1*
Y7278D1*
X8188D1*
X7940Y7488D2*
X8093D1*
X7752Y8649D2*
X7924D1*
X7981Y8668D1*
X8001Y8687D1*
X8020Y8725D1*
Y8764D1*
X8001Y8802D1*
X7981Y8821D1*
X7924Y8840D1*
X7752D1*
Y8438D1*
X7886Y8649D2*
X8020Y8438D1*
X7495Y9752D2*
X7648Y9350D1*
X7801Y9752D1*
X7925D2*
X7944Y9733D1*
X7963Y9752D1*
X7944Y9771D1*
X7925Y9752D1*
X7944Y9618D2*
Y9350D1*
X8087Y9618D2*
Y9350D1*
Y9542D2*
X8144Y9599D1*
X8183Y9618D1*
X8240D1*
X8278Y9599D1*
X8297Y9542D1*
Y9350D1*
X4338Y5968D2*
D43*
X4194D1*
X4151Y5954D1*
X4137Y5925D1*
Y5882D1*
X4151Y5853D1*
X4194Y5810D1*
X4338D2*
X4137D1*
X4367Y5502D2*
X4395Y5517D1*
X4424Y5546D1*
X4438Y5574D1*
Y5631D1*
X4424Y5660D1*
X4395Y5689D1*
X4367Y5703D1*
X4324Y5718D1*
X4252D1*
X4209Y5703D1*
X4180Y5689D1*
X4151Y5660D1*
X4137Y5631D1*
Y5574D1*
X4151Y5546D1*
X4180Y5517D1*
X4209Y5502D1*
X4438Y5118D2*
X4137D1*
Y5026D2*
X4438Y4825D1*
Y4646D2*
X4424Y4675D1*
X4395Y4703D1*
X4367Y4718D1*
X4324Y4732D1*
X4252D1*
X4209Y4718D1*
X4180Y4703D1*
X4151Y4675D1*
X4137Y4646D1*
Y4588D1*
X4151Y4560D1*
X4180Y4531D1*
X4209Y4517D1*
X4252Y4502D1*
X4324D1*
X4367Y4517D1*
X4395Y4531D1*
X4424Y4560D1*
X4438Y4588D1*
Y4646D1*
X11762Y10589D2*
X11877Y10288D1*
X11991Y10589D1*
X12256Y10445D2*
X12227Y10474D1*
X12199Y10488D1*
X12156D1*
X12127Y10474D1*
X12098Y10445D1*
X12084Y10402D1*
Y10374D1*
X12098Y10331D1*
X12127Y10302D1*
X12156Y10288D1*
X12199D1*
X12227Y10302D1*
X12256Y10331D1*
X12521Y10445D2*
X12493Y10474D1*
X12464Y10488D1*
X12421D1*
X12392Y10474D1*
X12364Y10445D1*
X12349Y10402D1*
Y10374D1*
X12364Y10331D1*
X12392Y10302D1*
X12421Y10288D1*
X12464D1*
X12493Y10302D1*
X12521Y10331D1*
X12054Y4954D2*
X12040Y4983D1*
X12011Y5012D1*
X11983Y5026D1*
X11925D1*
X11896Y5012D1*
X11868Y4983D1*
X11853Y4954D1*
X11839Y4911D1*
Y4839D1*
X11853Y4796D1*
X11868Y4768D1*
X11896Y4739D1*
X11925Y4724D1*
X11983D1*
X12011Y4739D1*
X12040Y4768D1*
X12054Y4796D1*
Y4839D1*
X11983D1*
X12348Y5026D2*
Y4724D1*
X12147Y5026D1*
Y4724D1*
X12440Y5026D2*
Y4724D1*
X12541D1*
X12584Y4739D1*
X12613Y4768D1*
X12627Y4796D1*
X12641Y4839D1*
Y4911D1*
X12627Y4954D1*
X12613Y4983D1*
X12584Y5012D1*
X12541Y5026D1*
X12440D1*
M02*
