G04 DipTrace 2.4.0.2*
%INBottom.gbr*%
%MOIN*%
%ADD14C,0.013*%
%ADD15C,0.025*%
%ADD20R,0.0669X0.0669*%
%ADD21C,0.0669*%
%ADD23C,0.04*%
%FSLAX44Y44*%
G04*
G70*
G90*
G75*
G01*
%LNBottom*%
%LPD*%
X10316Y4940D2*
D14*
X10191D1*
X9441Y8628D2*
X9503D1*
X13977Y4940D2*
X14254D1*
X17441Y4753D2*
X17379D1*
X15629Y4565D2*
Y4753D1*
X15754D1*
X17441Y6378D2*
X17504D1*
X17441Y7878D2*
Y7940D1*
X15402Y8378D2*
Y8418D1*
X15379Y8440D1*
X9316Y6378D2*
X5502D1*
X5128Y6753D1*
Y7816D1*
X5753Y8441D1*
X8440Y6878D2*
X6315D1*
X5753Y7441D1*
X16566Y6440D2*
X16879D1*
X18879Y8440D1*
X18817D1*
X15879Y6440D2*
Y8816D1*
X17004Y9941D1*
X18316D1*
X18817Y9440D1*
X16566Y4753D2*
X19379Y7565D1*
Y9878D1*
X18817Y10440D1*
D23*
X10316Y4940D3*
X9441Y8628D3*
X13977Y4940D3*
X17441Y4753D3*
X15629Y4565D3*
X17441Y6378D3*
Y7878D3*
X15402Y8378D3*
X9316Y6378D3*
X8440Y6878D3*
X16566Y6440D3*
X15879D3*
X16566Y4753D3*
X4840Y10442D2*
D15*
X10667D1*
X4840Y10193D2*
X10667D1*
X4840Y9945D2*
X6401D1*
X7104D2*
X10667D1*
X4840Y9696D2*
X6187D1*
X7319D2*
X10667D1*
X4840Y9447D2*
X6128D1*
X7377D2*
X10667D1*
X4840Y9199D2*
X6179D1*
X7326D2*
X10667D1*
X4840Y8950D2*
X5413D1*
X6092D2*
X6382D1*
X7123D2*
X10667D1*
X4840Y8701D2*
X5187D1*
X7319D2*
X10667D1*
X4840Y8453D2*
X5128D1*
X7377D2*
X10667D1*
X4840Y8204D2*
X5026D1*
X7330D2*
X10667D1*
X7131Y7955D2*
X10667D1*
X7315Y7706D2*
X10667D1*
X7377Y7458D2*
X10667D1*
X7330Y7209D2*
X8089D1*
X8791D2*
X10667D1*
X8924Y6960D2*
X10667D1*
X9666Y6712D2*
X10667D1*
X4840Y6463D2*
X4925D1*
X9799D2*
X10667D1*
X4840Y6214D2*
X5175D1*
X9776D2*
X10667D1*
X5908Y5966D2*
X9077D1*
X9557D2*
X10667D1*
X6166Y5717D2*
X10667D1*
X6287Y5468D2*
X10667D1*
X6330Y5220D2*
X10667D1*
X6303Y4971D2*
X10667D1*
X6201Y4722D2*
X10667D1*
X5990Y4474D2*
X10667D1*
X7339Y9316D2*
X7301Y9198D1*
X7239Y9090D1*
X7156Y8997D1*
X7083Y8944D1*
X7142Y8896D1*
X7228Y8806D1*
X7294Y8699D1*
X7335Y8582D1*
X7352Y8441D1*
X7339Y8316D1*
X7301Y8198D1*
X7239Y8090D1*
X7156Y7997D1*
X7083Y7944D1*
X7142Y7896D1*
X7228Y7806D1*
X7294Y7699D1*
X7335Y7582D1*
X7352Y7441D1*
X7339Y7316D1*
X7305Y7209D1*
X8116Y7208D1*
X8148Y7239D1*
X8255Y7304D1*
X8374Y7338D1*
X8499Y7339D1*
X8619Y7307D1*
X8727Y7244D1*
X8814Y7155D1*
X8874Y7046D1*
X8903Y6924D1*
X8905Y6878D1*
X8889Y6754D1*
X8869Y6708D1*
X8991D1*
X9023Y6740D1*
X9130Y6804D1*
X9250Y6838D1*
X9374Y6839D1*
X9495Y6807D1*
X9602Y6744D1*
X9689Y6655D1*
X9749Y6546D1*
X9778Y6425D1*
X9781Y6378D1*
X9764Y6255D1*
X9715Y6140D1*
X9638Y6042D1*
X9537Y5969D1*
X9420Y5925D1*
X9296Y5913D1*
X9174Y5935D1*
X9061Y5989D1*
X8993Y6048D1*
X5726D1*
X5862Y5980D1*
X5964Y5907D1*
X6055Y5822D1*
X6134Y5725D1*
X6199Y5618D1*
X6249Y5504D1*
X6283Y5384D1*
X6304Y5190D1*
X6296Y5066D1*
X6270Y4943D1*
X6229Y4825D1*
X6172Y4714D1*
X6101Y4611D1*
X6017Y4519D1*
X5924Y4442D1*
X7690Y4440D1*
X10691D1*
Y10691D1*
X4815D1*
X4821Y7938D1*
X4894Y8049D1*
X5168Y8322D1*
X5153Y8432D1*
X5164Y8556D1*
X5201Y8675D1*
X5261Y8784D1*
X5343Y8879D1*
X5443Y8954D1*
X5556Y9007D1*
X5677Y9035D1*
X5802Y9038D1*
X5924Y9015D1*
X6040Y8967D1*
X6142Y8896D1*
X6228Y8806D1*
X6251Y8769D1*
X6343Y8879D1*
X6421Y8937D1*
X6356Y8991D1*
X6272Y9082D1*
X6208Y9190D1*
X6168Y9308D1*
X6153Y9432D1*
X6164Y9556D1*
X6201Y9675D1*
X6261Y9784D1*
X6343Y9879D1*
X6443Y9954D1*
X6556Y10007D1*
X6677Y10035D1*
X6802Y10038D1*
X6924Y10015D1*
X7040Y9967D1*
X7142Y9896D1*
X7228Y9806D1*
X7294Y9699D1*
X7335Y9582D1*
X7352Y9441D1*
X7339Y9316D1*
X4816Y5926D2*
X4910Y5990D1*
X5022Y6045D1*
X5140Y6085D1*
X5306Y6112D1*
X4894Y6519D1*
X4824Y6626D1*
X4835Y6601D1*
X4815Y6566D1*
Y5929D1*
X13591Y10380D2*
X14449D1*
X16312D2*
X17195D1*
X19437D2*
X19730D1*
X13591Y10131D2*
X14434D1*
X16331D2*
X16703D1*
X19616D2*
X19731D1*
X13591Y9882D2*
X14484D1*
X16277D2*
X16453D1*
X13591Y9633D2*
X14621D1*
X13591Y9385D2*
X14906D1*
X15855D2*
X15956D1*
X16941D2*
X18195D1*
X13591Y9136D2*
X15707D1*
X16691D2*
X18273D1*
X13591Y8887D2*
X15531D1*
X16441D2*
X17391D1*
X13591Y8639D2*
X15523D1*
X16234D2*
X17227D1*
X13591Y8390D2*
X15523D1*
X16234D2*
X17195D1*
X13591Y8141D2*
X15523D1*
X16234D2*
X17273D1*
X13591Y7893D2*
X15523D1*
X16234D2*
X17547D1*
X13591Y7644D2*
X15523D1*
X16234D2*
X17590D1*
X18573D2*
X18965D1*
X13591Y7395D2*
X15523D1*
X16234D2*
X17344D1*
X18323D2*
X18719D1*
X13591Y7147D2*
X15523D1*
X16234D2*
X17094D1*
X18077D2*
X18469D1*
X19452D2*
X19730D1*
X13591Y6898D2*
X15523D1*
X16234D2*
X16461D1*
X16674D2*
X16844D1*
X17827D2*
X18219D1*
X19202D2*
X19730D1*
X13591Y6649D2*
X15437D1*
X17577D2*
X17973D1*
X18956D2*
X19730D1*
X13591Y6401D2*
X15391D1*
X17331D2*
X17723D1*
X18706D2*
X19730D1*
X13591Y6152D2*
X15488D1*
X17066D2*
X17473D1*
X18456D2*
X19730D1*
X13591Y5903D2*
X17227D1*
X18210D2*
X19730D1*
X13591Y5654D2*
X16977D1*
X17960D2*
X19730D1*
X13591Y5406D2*
X16727D1*
X17710D2*
X19730D1*
X13591Y5157D2*
X16312D1*
X17464D2*
X19730D1*
X13591Y4908D2*
X16102D1*
X17214D2*
X19730D1*
X13591Y4660D2*
X16086D1*
X17046D2*
X19730D1*
X18342Y9040D2*
X18369D1*
X18272Y9190D1*
X18232Y9308D1*
X18217Y9432D1*
X18229Y9560D1*
X18066Y9611D1*
X17141D1*
X16207Y8677D1*
X16209Y6765D1*
X16380Y6866D1*
X16500Y6901D1*
X16625Y6902D1*
X16745Y6869D1*
X16809Y6832D1*
X17087Y7116D1*
X17814Y7842D1*
X17759Y7844D1*
X17636Y7869D1*
X17522Y7918D1*
X17420Y7991D1*
X17336Y8082D1*
X17272Y8190D1*
X17232Y8308D1*
X17217Y8432D1*
X17228Y8556D1*
X17265Y8675D1*
X17325Y8784D1*
X17407Y8879D1*
X17507Y8954D1*
X17620Y9007D1*
X17741Y9035D1*
X17866Y9038D1*
X17988Y9015D1*
X18104Y8967D1*
X18220Y8882D1*
X18217Y9040D1*
X18342D1*
X19053Y7841D2*
X18748D1*
X17112Y6207D1*
X17006Y6136D1*
X16912Y6112D1*
X16888Y6105D1*
X16787Y6031D1*
X16671Y5987D1*
X16547Y5976D1*
X16424Y5998D1*
X16312Y6051D1*
X16220Y6130D1*
X16201Y6105D1*
X16100Y6031D1*
X15983Y5987D1*
X15859Y5976D1*
X15736Y5998D1*
X15624Y6051D1*
X15530Y6133D1*
X15461Y6237D1*
X15422Y6355D1*
X15415Y6479D1*
X15442Y6601D1*
X15501Y6711D1*
X15552Y6765D1*
X15549Y7815D1*
Y8816D1*
X15572Y8938D1*
X15645Y9049D1*
X16771Y10174D1*
X16873Y10244D1*
X17004Y10271D1*
X17242D1*
X17217Y10432D1*
X17228Y10556D1*
X17250Y10627D1*
X16196Y10628D1*
X16252Y10509D1*
X16287Y10389D1*
X16307Y10195D1*
X16299Y10070D1*
X16274Y9948D1*
X16232Y9830D1*
X16175Y9719D1*
X16104Y9616D1*
X16020Y9524D1*
X15924Y9445D1*
X15818Y9378D1*
X15704Y9327D1*
X15584Y9291D1*
X15461Y9272D1*
X15336Y9270D1*
X15212Y9284D1*
X15091Y9315D1*
X14975Y9362D1*
X14867Y9424D1*
X14768Y9501D1*
X14680Y9589D1*
X14605Y9689D1*
X14544Y9798D1*
X14498Y9914D1*
X14468Y10036D1*
X14455Y10160D1*
X14459Y10285D1*
X14479Y10408D1*
X14516Y10527D1*
X14564Y10630D1*
X13566Y10628D1*
Y4503D1*
X16171D1*
X16109Y4667D1*
X16103Y4792D1*
X16130Y4913D1*
X16188Y5023D1*
X16274Y5114D1*
X16380Y5179D1*
X16500Y5213D1*
X16559D1*
X19048Y7701D1*
X19049Y7843D1*
X19382Y10630D2*
X19399Y10582D1*
X19416Y10440D1*
X19404Y10320D1*
X19612Y10111D1*
X19682Y10008D1*
X19709Y9878D1*
Y7565D1*
X19686Y7443D1*
X19612Y7332D1*
X17030Y4749D1*
X17015Y4629D1*
X16958Y4505D1*
X18441Y4503D1*
X19754D1*
Y10628D1*
X19383D1*
D20*
X5753Y9441D3*
D21*
X6753D3*
X5753Y8441D3*
X6753D3*
X5753Y7441D3*
X6753D3*
D20*
X18817Y8440D3*
D21*
X17817D3*
X18817Y9440D3*
X17817D3*
X18817Y10440D3*
X17817D3*
M02*
