G04 DipTrace 2.4.0.2*
%INTopDimension.gbr*%
%MOIN*%
%ADD13C,0.0015*%
%ADD44C,0.0062*%
%FSLAX44Y44*%
G04*
G70*
G90*
G75*
G01*
%LNTopDimension*%
%LPD*%
X5378Y5190D2*
D13*
Y12200D1*
X15381Y10195D2*
Y12200D1*
X10379Y12003D2*
X5771D1*
G36*
X5378D2*
X5771Y12082D1*
Y11925D1*
X5378Y12003D1*
G37*
X10379D2*
D13*
X14987D1*
G36*
X15381D2*
X14987Y11925D1*
Y12082D1*
X15381Y12003D1*
G37*
Y10195D2*
D13*
X20764D1*
X5378Y5190D2*
X20764D1*
X20567Y7693D2*
Y9801D1*
G36*
Y10195D2*
X20645Y9801D1*
X20488D1*
X20567Y10195D1*
G37*
Y7693D2*
D13*
Y5584D1*
G36*
Y5190D2*
X20488Y5584D1*
X20645D1*
X20567Y5190D1*
G37*
X3940Y11253D2*
D13*
Y13513D1*
X20192Y11253D2*
Y13513D1*
X12066Y13316D2*
X4334D1*
G36*
X3940D2*
X4334Y13395D1*
Y13237D1*
X3940Y13316D1*
G37*
X12066D2*
D13*
X19798D1*
G36*
X20192D2*
X19798Y13237D1*
Y13395D1*
X20192Y13316D1*
G37*
X3940Y11253D2*
D13*
X2368D1*
X3940Y4003D2*
X2368D1*
X2565Y7628D2*
Y10860D1*
G36*
Y11253D2*
X2644Y10860D1*
X2486D1*
X2565Y11253D1*
G37*
Y7628D2*
D13*
Y4396D1*
G36*
Y4003D2*
X2486Y4396D1*
X2644D1*
X2565Y4003D1*
G37*
X10362Y12450D2*
D44*
X10401Y12470D1*
X10458Y12527D1*
Y12125D1*
X21090Y7957D2*
X21071Y8015D1*
X21014Y8053D1*
X20918Y8072D1*
X20861D1*
X20765Y8053D1*
X20708Y8015D1*
X20689Y7957D1*
Y7919D1*
X20708Y7862D1*
X20765Y7824D1*
X20861Y7804D1*
X20918D1*
X21014Y7824D1*
X21071Y7862D1*
X21090Y7919D1*
Y7957D1*
X21014Y7824D2*
X20765Y8053D1*
X20727Y7662D2*
X20708Y7681D1*
X20689Y7662D1*
X20708Y7642D1*
X20727Y7662D1*
X21090Y7289D2*
Y7481D1*
X20918Y7500D1*
X20937Y7481D1*
X20957Y7423D1*
Y7366D1*
X20937Y7309D1*
X20899Y7270D1*
X20842Y7251D1*
X20804D1*
X20746Y7270D1*
X20708Y7309D1*
X20689Y7366D1*
Y7423D1*
X20708Y7481D1*
X20727Y7500D1*
X20765Y7519D1*
X11390Y13763D2*
X11429Y13783D1*
X11486Y13840D1*
Y13438D1*
X11629Y13477D2*
X11610Y13457D1*
X11629Y13438D1*
X11648Y13457D1*
X11629Y13477D1*
X12001Y13783D2*
X11982Y13821D1*
X11925Y13840D1*
X11887D1*
X11829Y13821D1*
X11791Y13763D1*
X11772Y13668D1*
Y13572D1*
X11791Y13496D1*
X11829Y13457D1*
X11887Y13438D1*
X11906D1*
X11963Y13457D1*
X12001Y13496D1*
X12020Y13553D1*
Y13572D1*
X12001Y13630D1*
X11963Y13668D1*
X11906Y13687D1*
X11887D1*
X11829Y13668D1*
X11791Y13630D1*
X11772Y13572D1*
X12163Y13744D2*
Y13763D1*
X12182Y13802D1*
X12201Y13821D1*
X12240Y13840D1*
X12316D1*
X12354Y13821D1*
X12373Y13802D1*
X12393Y13763D1*
Y13725D1*
X12373Y13687D1*
X12335Y13630D1*
X12144Y13438D1*
X12412D1*
X12765Y13840D2*
X12574D1*
X12555Y13668D1*
X12574Y13687D1*
X12631Y13706D1*
X12688D1*
X12746Y13687D1*
X12784Y13649D1*
X12803Y13591D1*
Y13553D1*
X12784Y13496D1*
X12746Y13457D1*
X12688Y13438D1*
X12631D1*
X12574Y13457D1*
X12555Y13477D1*
X12535Y13515D1*
X2041Y6972D2*
X2060Y6914D1*
X2118Y6876D1*
X2213Y6857D1*
X2271D1*
X2366Y6876D1*
X2424Y6914D1*
X2443Y6972D1*
Y7010D1*
X2424Y7067D1*
X2366Y7105D1*
X2271Y7125D1*
X2213D1*
X2118Y7105D1*
X2060Y7067D1*
X2041Y7010D1*
Y6972D1*
X2118Y7105D2*
X2366Y6876D1*
X2404Y7267D2*
X2424Y7248D1*
X2443Y7267D1*
X2424Y7287D1*
X2404Y7267D1*
X2443Y7487D2*
X2041Y7678D1*
Y7410D1*
X2137Y7821D2*
X2118D1*
X2079Y7840D1*
X2060Y7859D1*
X2041Y7897D1*
Y7974D1*
X2060Y8012D1*
X2079Y8031D1*
X2118Y8050D1*
X2156D1*
X2194Y8031D1*
X2251Y7993D1*
X2443Y7802D1*
Y8069D1*
X2041Y8422D2*
Y8231D1*
X2213Y8212D1*
X2194Y8231D1*
X2175Y8289D1*
Y8346D1*
X2194Y8403D1*
X2232Y8442D1*
X2290Y8461D1*
X2328D1*
X2385Y8442D1*
X2424Y8403D1*
X2443Y8346D1*
Y8289D1*
X2424Y8231D1*
X2404Y8212D1*
X2366Y8193D1*
M02*
