G04 DipTrace Beta 2.9.0.1*
G04 Bottom.gbr*
%MOIN*%
G04 #@! TF.FileFunction,Copper,L2,Bot*
G04 #@! TF.Part,Single*
G04 #@! TA.AperFunction,Conductor,NotC*
%ADD13C,0.012992*%
G04 #@! TA.AperFunction,CopperBalancing*
%ADD14C,0.025*%
G04 #@! TA.AperFunction,ComponentPad*
%ADD18R,0.059055X0.059055*%
%ADD19C,0.059055*%
%ADD20R,0.066929X0.066929*%
%ADD21C,0.066929*%
G04 #@! TA.AperFunction,ViaPad*
%ADD27C,0.04*%
%FSLAX26Y26*%
G04*
G70*
G90*
G75*
G01*
G04 Bottom*
%LPD*%
X1637751Y2362751D2*
D13*
Y2231499D1*
X1644000Y2225249D1*
X808524Y2002500D2*
X818898Y2012874D1*
X530000Y1939234D2*
X537618Y1931615D1*
X1431462Y1919114D2*
Y1925365D1*
X1525222Y1106529D2*
X1568976Y1094028D1*
X1512720Y1275297D2*
X1531472Y1269046D1*
X1112678Y894098D2*
X1125180Y912759D1*
X1162684Y1062774D2*
X1156433Y1037772D1*
X1700240Y793500D2*
Y825249D1*
X1162684Y2537929D2*
Y2544180D1*
X1975269Y2718500D2*
Y2694196D1*
X1625232Y2562932D2*
X1606480D1*
X1600230Y2556681D1*
X1212689Y2475423D2*
X1206438D1*
X1193937Y2487924D1*
X1281446Y2031626D2*
Y2025375D1*
X1275196Y2019125D1*
X1200188Y2012874D2*
X1187686D1*
X1181436Y2019125D1*
X775143Y787745D2*
Y624719D1*
X866492Y533370D1*
X631378Y2281652D2*
X691366D1*
X850151Y2122867D1*
X1037671Y1950367D2*
X1243942D1*
X1181436Y825249D2*
X1412710D1*
X1562726Y975265D1*
Y1012769D1*
X1512720Y1062774D1*
X1406459D1*
Y1019020D1*
X1431479Y994000D1*
X1450197D1*
X1406459Y1062774D2*
X1318950D1*
X1062673Y1319051D1*
Y1412811D1*
X1256444Y1606581D1*
Y1937866D1*
X1243942Y1950367D1*
X1650235Y1319051D2*
Y944012D1*
X456360Y1044022D2*
X543869D1*
X643879Y944012D1*
X768892D1*
X968913Y743991D1*
X1450214D1*
X1650235Y944012D1*
X456360Y1144022D2*
X531378D1*
X656381Y1019020D1*
X781394D1*
X843900Y956513D1*
X1487718D1*
X1512720Y981516D1*
X1031420Y1044022D2*
X962751Y1112692D1*
Y1219129D1*
X968913Y1225291D1*
X1125231Y1319051D2*
X1231552D1*
X1375318Y1462816D1*
X1631483D1*
X1500251Y2056500D2*
Y2143999D1*
X1531501Y2175249D1*
X456360Y1344022D2*
X612657D1*
X912657Y1044022D1*
X1031420D1*
X918908Y1094028D2*
Y1612832D1*
X1150251Y1844175D1*
X456360Y1244022D2*
X625148D1*
X847025Y1022146D1*
X468861Y487714D2*
Y581474D1*
X768892Y881505D1*
X1006500Y1175249D2*
X1081500D1*
X1119000Y1137749D1*
X1894000Y1162751D2*
X1850256Y1119007D1*
Y725239D1*
X1681488Y556471D1*
Y539619D1*
X1677759D1*
X1750245Y1156534D2*
Y706487D1*
X1606480Y562722D1*
Y532157D1*
X1677759Y460879D1*
D27*
X1637751Y2362751D3*
X1644000Y2225249D3*
X808524Y2002500D3*
X530000Y1939234D3*
X1431462Y1919114D3*
X1525222Y1106529D3*
X1512720Y1275297D3*
X1112678Y894098D3*
X1162684Y1062774D3*
X1700240Y793500D3*
X1162684Y2537929D3*
X1975269Y2718500D3*
X1625232Y2562932D3*
X1212689Y2475423D3*
X1281446Y2031626D3*
X1200188Y2012874D3*
X775143Y787745D3*
X631378Y2281652D3*
X1037671Y1950367D3*
X1243942D3*
D3*
X1181436Y825249D3*
X1450197Y994000D3*
X1650235Y1319051D3*
Y944012D3*
X1512720Y981516D3*
X1031420Y1044022D3*
X968913Y1225291D3*
X1125231Y1319051D3*
X1631483Y1462816D3*
X1500251Y2056500D3*
X1531501Y2175249D3*
X1031420Y1044022D3*
X918908Y1094028D3*
X1150251Y1844175D3*
X847025Y1022146D3*
X468861Y487714D3*
X768892Y881505D3*
X1006500Y1175249D3*
X1119000Y1137749D3*
X1894000Y1162751D3*
X1750245Y1156534D3*
X446552Y2875600D2*
D14*
X2085302D1*
X446552Y2850731D2*
X2085302D1*
X446552Y2825862D2*
X559912D1*
X745772D2*
X2085302D1*
X446552Y2800993D2*
X559912D1*
X755537D2*
X2085302D1*
X446552Y2776125D2*
X559912D1*
X753193D2*
X2085302D1*
X446552Y2751256D2*
X559912D1*
X736396D2*
X2085302D1*
X446552Y2726387D2*
X561084D1*
X675849D2*
X2085302D1*
X446552Y2701518D2*
X561865D1*
X675458D2*
X2085302D1*
X446552Y2676650D2*
X575537D1*
X661786D2*
X2085302D1*
X446552Y2651781D2*
X2085302D1*
X446552Y2626912D2*
X2085302D1*
X446552Y2602043D2*
X2085302D1*
X446552Y2577175D2*
X2085302D1*
X446552Y2552306D2*
X2085302D1*
X446552Y2527437D2*
X1714209D1*
X1784442D2*
X1792794D1*
X1862958D2*
X2085302D1*
X446552Y2502568D2*
X1694677D1*
X1882490D2*
X2085302D1*
X446552Y2477699D2*
X1690772D1*
X1886396D2*
X2085302D1*
X446552Y2452831D2*
X1698974D1*
X1935224D2*
X2085302D1*
X446552Y2427962D2*
X1696630D1*
X1959442D2*
X2085302D1*
X446552Y2403093D2*
X1612256D1*
X1663349D2*
X1690772D1*
X1965302D2*
X2085302D1*
X446552Y2378224D2*
X1591552D1*
X1684052D2*
X1696493D1*
X1959442D2*
X2085302D1*
X446552Y2353356D2*
X1589600D1*
X1685614D2*
X1720849D1*
X1777412D2*
X1799756D1*
X1856318D2*
X1878661D1*
X1934833D2*
X2085302D1*
X446552Y2328487D2*
X1602100D1*
X1673114D2*
X2085302D1*
X446552Y2303618D2*
X588037D1*
X718428D2*
X1602100D1*
X1673114D2*
X2085302D1*
X446552Y2278749D2*
X582568D1*
X743428D2*
X1602100D1*
X1673114D2*
X1966552D1*
X446552Y2253881D2*
X591552D1*
X768428D2*
X1602100D1*
X1683272D2*
X1966552D1*
X446552Y2229012D2*
X694677D1*
X793037D2*
X1595068D1*
X1693037D2*
X1965381D1*
X446552Y2204143D2*
X719677D1*
X818037D2*
X1492724D1*
X1570381D2*
X1600146D1*
X1687958D2*
X1966161D1*
X446552Y2179274D2*
X744677D1*
X843037D2*
X1482568D1*
X1580146D2*
X1634521D1*
X1653720D2*
X1966552D1*
X446552Y2154406D2*
X769286D1*
X977802D2*
X1466552D1*
X1575458D2*
X1966552D1*
X446552Y2129537D2*
X791942D1*
X987177D2*
X1464600D1*
X1542646D2*
X2085302D1*
X446552Y2104668D2*
X794677D1*
X984442D2*
X1464600D1*
X1535614D2*
X2085302D1*
X446552Y2079799D2*
X811865D1*
X974677D2*
X1457568D1*
X1543037D2*
X2085302D1*
X446552Y2054930D2*
X871240D1*
X986396D2*
X1451318D1*
X1549286D2*
X2085302D1*
X446552Y2030062D2*
X872021D1*
X985614D2*
X1459521D1*
X1541084D2*
X2085302D1*
X446552Y2005193D2*
X886084D1*
X971552D2*
X2085302D1*
X446552Y1980324D2*
X999756D1*
X1282100D2*
X2085302D1*
X446552Y1955455D2*
X988818D1*
X1292646D2*
X2085302D1*
X446552Y1930587D2*
X993114D1*
X1291865D2*
X2085302D1*
X446552Y1905718D2*
X1022021D1*
X1053193D2*
X1220849D1*
X1291865D2*
X2085302D1*
X446552Y1880849D2*
X1119286D1*
X1181318D2*
X1220849D1*
X1291865D2*
X2085302D1*
X884052Y1855980D2*
X1102881D1*
X1197724D2*
X1220849D1*
X1291865D2*
X2085302D1*
X884052Y1831112D2*
X1088037D1*
X1197333D2*
X1220849D1*
X1291865D2*
X2085302D1*
X884052Y1806243D2*
X1063037D1*
X1179756D2*
X1220849D1*
X1291865D2*
X2085302D1*
X884052Y1781374D2*
X1038428D1*
X1136786D2*
X1220849D1*
X1291865D2*
X2085302D1*
X884052Y1756505D2*
X1013428D1*
X1111786D2*
X1220849D1*
X1291865D2*
X2085302D1*
X884052Y1731636D2*
X988428D1*
X1086786D2*
X1220849D1*
X1291865D2*
X2085302D1*
X884052Y1706768D2*
X963818D1*
X1062177D2*
X1220849D1*
X1291865D2*
X2085302D1*
X884052Y1681899D2*
X938818D1*
X1037177D2*
X1220849D1*
X1291865D2*
X2085302D1*
X884052Y1657030D2*
X913818D1*
X1012177D2*
X1220849D1*
X1291865D2*
X2085302D1*
X987568Y1632161D2*
X1220849D1*
X1291865D2*
X2085302D1*
X962568Y1607293D2*
X1207958D1*
X1291865D2*
X2085302D1*
X954365Y1582424D2*
X1182958D1*
X1281318D2*
X2085302D1*
X954365Y1557555D2*
X1158349D1*
X1256709D2*
X2085302D1*
X954365Y1532686D2*
X1133349D1*
X1231709D2*
X2085302D1*
X954365Y1507818D2*
X1108349D1*
X1206709D2*
X1617333D1*
X1645982D2*
X2085302D1*
X954365Y1482949D2*
X1083740D1*
X1182100D2*
X1346240D1*
X1675849D2*
X2085302D1*
X954365Y1458080D2*
X1058740D1*
X1157100D2*
X1321240D1*
X1680146D2*
X2085302D1*
X954365Y1433211D2*
X1034130D1*
X1132100D2*
X1296630D1*
X1669990D2*
X2085302D1*
X954365Y1408343D2*
X1027100D1*
X1107490D2*
X1271630D1*
X1369990D2*
X2085302D1*
X954365Y1383474D2*
X1027100D1*
X1098114D2*
X1246630D1*
X1344990D2*
X2085302D1*
X954365Y1358605D2*
X1027100D1*
X1152021D2*
X1222021D1*
X1320381D2*
X1623193D1*
X1677021D2*
X2085302D1*
X954365Y1333736D2*
X1027100D1*
X1295381D2*
X1603661D1*
X1696942D2*
X2085302D1*
X954365Y1308867D2*
X1028661D1*
X1270381D2*
X1602490D1*
X1698114D2*
X2085302D1*
X954365Y1283999D2*
X1048584D1*
X1158272D2*
X1614600D1*
X1685614D2*
X2085302D1*
X1003193Y1259130D2*
X1073584D1*
X1171942D2*
X1614600D1*
X1685614D2*
X2085302D1*
X1016865Y1234261D2*
X1098193D1*
X1196552D2*
X1614600D1*
X1685614D2*
X2085302D1*
X1040693Y1209392D2*
X1123193D1*
X1221552D2*
X1614600D1*
X1685614D2*
X2085302D1*
X1121552Y1184524D2*
X1148193D1*
X1246552D2*
X1614600D1*
X1685614D2*
X1710693D1*
X1789912D2*
X1850537D1*
X1937568D2*
X2085302D1*
X1162568Y1159655D2*
X1173202D1*
X1271161D2*
X1614600D1*
X1685614D2*
X1701315D1*
X1799286D2*
X1841552D1*
X1943037D2*
X2085302D1*
X1032100Y1134786D2*
X1070068D1*
X1168037D2*
X1197802D1*
X1296161D2*
X1614600D1*
X1685614D2*
X1706786D1*
X1793818D2*
X1818896D1*
X1933661D2*
X2085302D1*
X1014521Y1109917D2*
X1079442D1*
X1158661D2*
X1222802D1*
X1321161D2*
X1614600D1*
X1685614D2*
X1714600D1*
X1785614D2*
X1814600D1*
X1890302D2*
X2085302D1*
X1055928Y1085049D2*
X1247412D1*
X1539521D2*
X1614600D1*
X1685614D2*
X1714600D1*
X1785614D2*
X1814600D1*
X1885614D2*
X2085302D1*
X1077412Y1060180D2*
X1272412D1*
X1564521D2*
X1614600D1*
X1685614D2*
X1714600D1*
X1785614D2*
X1814600D1*
X1885614D2*
X2085302D1*
X1079756Y1035311D2*
X1298193D1*
X1589130D2*
X1614600D1*
X1685614D2*
X1714600D1*
X1785614D2*
X1814600D1*
X1885614D2*
X2085302D1*
X894600Y1010442D2*
X996630D1*
X1066084D2*
X1372021D1*
X1598114D2*
X1614541D1*
X1685614D2*
X1714600D1*
X1785614D2*
X1814600D1*
X1885614D2*
X2085302D1*
X1598114Y985573D2*
X1614541D1*
X1685614D2*
X1714600D1*
X1785614D2*
X1814600D1*
X1885614D2*
X2085302D1*
X1594990Y960705D2*
X1604442D1*
X1696161D2*
X1714600D1*
X1785614D2*
X1814600D1*
X1885614D2*
X2085302D1*
X1572333Y935836D2*
X1592724D1*
X1698505D2*
X1714572D1*
X1785614D2*
X1814600D1*
X1885614D2*
X2085302D1*
X884052Y910967D2*
X1449365D1*
X1547724D2*
X1568114D1*
X1685614D2*
X1714600D1*
X1785614D2*
X1814600D1*
X1885614D2*
X2085302D1*
X884052Y886098D2*
X1424365D1*
X1522724D2*
X1543114D1*
X1641474D2*
X1714600D1*
X1785614D2*
X1814600D1*
X1885614D2*
X2085302D1*
X900849Y861230D2*
X1149365D1*
X1213349D2*
X1399365D1*
X1497724D2*
X1518114D1*
X1616474D2*
X1714600D1*
X1785614D2*
X1814600D1*
X1885614D2*
X2085302D1*
X925849Y836361D2*
X1133740D1*
X1473114D2*
X1493505D1*
X1591865D2*
X1714600D1*
X1785614D2*
X1814600D1*
X1885614D2*
X2085302D1*
X950458Y811492D2*
X1134521D1*
X1448114D2*
X1468505D1*
X1566865D2*
X1714600D1*
X1785614D2*
X1814600D1*
X1885614D2*
X2085302D1*
X975458Y786623D2*
X1152881D1*
X1209833D2*
X1443505D1*
X1541865D2*
X1714600D1*
X1785614D2*
X1814600D1*
X1885614D2*
X2085302D1*
X884052Y761755D2*
X901919D1*
X1517256D2*
X1714600D1*
X1785614D2*
X1814600D1*
X1885614D2*
X2085302D1*
X884052Y736886D2*
X926709D1*
X1492256D2*
X1714600D1*
X1785614D2*
X1812646D1*
X1885614D2*
X2085302D1*
X884052Y712017D2*
X958349D1*
X1461005D2*
X1706786D1*
X1882881D2*
X2085302D1*
X884052Y687148D2*
X1681786D1*
X1861396D2*
X2085302D1*
X884052Y662280D2*
X1656786D1*
X1836396D2*
X2085302D1*
X884052Y637411D2*
X1632177D1*
X1811786D2*
X2085302D1*
X884052Y612542D2*
X1607177D1*
X1786786D2*
X2085302D1*
X884052Y587673D2*
X1582177D1*
X1787958D2*
X2085302D1*
X884052Y562804D2*
X1570849D1*
X1809833D2*
X2085302D1*
X884052Y537936D2*
X1210302D1*
X1365302D2*
X1570849D1*
X1814912D2*
X2085302D1*
X884052Y513067D2*
X1210302D1*
X1365302D2*
X1577100D1*
X1858272D2*
X2085302D1*
X913740Y488198D2*
X1209521D1*
X1365693D2*
X1601318D1*
X1886786D2*
X2085302D1*
X924286Y463329D2*
X1209521D1*
X1366084D2*
X1619286D1*
X1893818D2*
X2085302D1*
X575102Y2849898D2*
X674657D1*
Y2844819D1*
X683492Y2848152D1*
X695846Y2849877D1*
X708277Y2848825D1*
X720165Y2845051D1*
X730925Y2838739D1*
X740021Y2830202D1*
X747003Y2819865D1*
X751524Y2808239D1*
X753398Y2793870D1*
X752009Y2781474D1*
X747912Y2769692D1*
X741310Y2759108D1*
X732529Y2750248D1*
X722005Y2743550D1*
X710261Y2739345D1*
X697878Y2737845D1*
X685470Y2739121D1*
X674759Y2742738D1*
X674657Y2737843D1*
X669579D1*
X672783Y2729499D1*
X674657Y2715130D1*
X673269Y2702734D1*
X669172Y2690951D1*
X662570Y2680367D1*
X653789Y2671508D1*
X643265Y2664810D1*
X631521Y2660605D1*
X619138Y2659105D1*
X606730Y2660381D1*
X594911Y2664371D1*
X584268Y2670877D1*
X575328Y2679577D1*
X568534Y2690039D1*
X564224Y2701745D1*
X562612Y2714114D1*
X563776Y2726534D1*
X567537Y2738018D1*
X562602Y2737843D1*
Y2849898D1*
X575102D1*
X881486Y508287D2*
X889287Y505811D1*
X900047Y499499D1*
X909143Y490962D1*
X916125Y480625D1*
X920646Y468999D1*
X922520Y454630D1*
X921348Y444171D1*
X1213043Y443958D1*
X1212651Y459367D1*
X1211075Y471753D1*
X1211529Y484231D1*
X1212690Y493958D1*
Y537719D1*
X1218810Y548264D1*
X1225190Y550219D1*
X1271675D1*
X1288756Y551906D1*
X1303072Y550219D1*
X1350203D1*
X1360748Y544100D1*
X1362703Y537719D1*
Y491235D1*
X1364398Y475213D1*
X1362719Y460118D1*
X1362703Y443579D1*
X1450203Y443958D1*
X1624031D1*
X1621740Y459864D1*
X1622650Y469567D1*
X1583148Y508825D1*
X1576173Y519109D1*
X1573484Y532157D1*
Y562722D1*
X1575824Y574925D1*
X1583148Y586054D1*
X1717112Y720017D1*
X1717249Y1124066D1*
X1708444Y1136165D1*
X1704535Y1147999D1*
X1703911Y1160445D1*
X1706613Y1172612D1*
X1712450Y1183622D1*
X1721001Y1192688D1*
X1731654Y1199156D1*
X1743642Y1202563D1*
X1756104Y1202664D1*
X1768144Y1199451D1*
X1778900Y1193156D1*
X1787597Y1184230D1*
X1793612Y1173315D1*
X1796512Y1161194D1*
X1796745Y1156534D1*
X1795075Y1144184D1*
X1790185Y1132722D1*
X1783154Y1123883D1*
X1783168Y706105D1*
X1799577Y721224D1*
X1817531Y739178D1*
X1817260Y900239D1*
Y1119007D1*
X1819600Y1131210D1*
X1826924Y1142339D1*
X1847640Y1163054D1*
X1850367Y1178828D1*
X1856205Y1189839D1*
X1864756Y1198904D1*
X1875408Y1205373D1*
X1887396Y1208780D1*
X1899858Y1208881D1*
X1911899Y1205668D1*
X1922655Y1199373D1*
X1931352Y1190446D1*
X1937366Y1179531D1*
X1940266Y1167411D1*
X1940500Y1162751D1*
X1938829Y1150400D1*
X1933940Y1138938D1*
X1926181Y1129185D1*
X1916110Y1121844D1*
X1904451Y1117441D1*
X1894757Y1116543D1*
X1883357Y1105445D1*
X1883252Y725239D1*
X1880912Y713035D1*
X1873588Y701907D1*
X1766693Y595012D1*
X1779294Y590801D1*
X1790054Y584488D1*
X1799150Y575951D1*
X1806131Y565614D1*
X1810652Y553988D1*
X1812526Y539619D1*
X1811138Y527223D1*
X1807041Y515441D1*
X1800164Y504580D1*
X1809694Y510745D1*
X1821361Y515161D1*
X1833715Y516886D1*
X1846146Y515835D1*
X1858034Y512060D1*
X1868794Y505748D1*
X1877890Y497211D1*
X1884871Y486874D1*
X1889392Y475248D1*
X1891266Y460879D1*
X1889878Y448483D1*
X1888214Y443697D1*
X2075203Y443958D1*
X2088094D1*
X2087782Y568958D1*
Y2144349D1*
X2060047Y2144139D1*
X2051992Y2142861D1*
X2039509Y2142579D1*
X2025282Y2144139D1*
X1981520D1*
X1970975Y2150259D1*
X1969020Y2156639D1*
X1968980Y2203301D1*
X1967404Y2215686D1*
X1967858Y2228164D1*
X1969017Y2233902D1*
X1969020Y2281652D1*
X1975139Y2292197D1*
X1981520Y2294152D1*
X2028004D1*
X2045085Y2295839D1*
X2059402Y2294152D1*
X2088160D1*
X2087782Y2381652D1*
Y2900469D1*
X443857D1*
Y1868828D1*
X606357Y1869108D1*
X868903D1*
X879448Y1862988D1*
X881403Y1856608D1*
Y1121843D1*
X885912Y1131528D1*
Y1612832D1*
X888252Y1625035D1*
X895576Y1636164D1*
X1103566Y1844152D1*
X1106618Y1860252D1*
X1112455Y1871262D1*
X1121007Y1880328D1*
X1131659Y1886797D1*
X1143647Y1890203D1*
X1156109Y1890304D1*
X1168150Y1887092D1*
X1178906Y1880797D1*
X1187602Y1871870D1*
X1193617Y1860955D1*
X1196517Y1848835D1*
X1196751Y1844175D1*
X1195080Y1831824D1*
X1190190Y1820362D1*
X1182432Y1810609D1*
X1172361Y1803268D1*
X1160702Y1798865D1*
X1151008Y1797967D1*
X996806Y1644066D1*
X951783Y1599043D1*
X951904Y1268692D1*
X962310Y1271320D1*
X974772Y1271421D1*
X986812Y1268209D1*
X997568Y1261913D1*
X1006265Y1252987D1*
X1012280Y1242072D1*
X1015180Y1229951D1*
X1014840Y1221046D1*
X1024399Y1218167D1*
X1035155Y1211871D1*
X1038688Y1208245D1*
X1081500D1*
X1093703Y1205906D1*
X1104832Y1198581D1*
X1118919Y1184495D1*
X1124858Y1183879D1*
X1136899Y1180667D1*
X1147655Y1174371D1*
X1156352Y1165445D1*
X1162366Y1154530D1*
X1165266Y1142409D1*
X1165500Y1137749D1*
X1163829Y1125399D1*
X1158940Y1113937D1*
X1151181Y1104184D1*
X1141110Y1096843D1*
X1129451Y1092440D1*
X1117042Y1091290D1*
X1104774Y1093479D1*
X1093528Y1098848D1*
X1084110Y1107009D1*
X1077198Y1117381D1*
X1073290Y1129214D1*
X1072879Y1137382D1*
X1067770Y1142315D1*
X1038681Y1141684D1*
X1028610Y1134343D1*
X1016951Y1129940D1*
X1004542Y1128790D1*
X995724Y1130364D1*
X1003760Y1118345D1*
X1031657Y1090449D1*
X1037278Y1090152D1*
X1049319Y1086940D1*
X1060075Y1080644D1*
X1068772Y1071718D1*
X1074786Y1060803D1*
X1077686Y1048682D1*
X1077920Y1044022D1*
X1076249Y1031672D1*
X1071360Y1020210D1*
X1063601Y1010457D1*
X1053530Y1003115D1*
X1041871Y998713D1*
X1029462Y997563D1*
X1017194Y999752D1*
X1005948Y1005121D1*
X999178Y1010987D1*
X912657Y1011026D1*
X900127Y1013575D1*
X902701Y1012639D1*
X891854Y1009795D1*
X886965Y998333D1*
X881388Y991323D1*
X893900Y989509D1*
X1389604D1*
X1383127Y995688D1*
X1376152Y1005971D1*
X1373463Y1019020D1*
Y1029567D1*
X1318950Y1029778D1*
X1306747Y1032118D1*
X1295618Y1039442D1*
X1039341Y1295719D1*
X1032366Y1306003D1*
X1029677Y1319051D1*
Y1412811D1*
X1032017Y1425014D1*
X1039341Y1436143D1*
X1223576Y1620378D1*
X1223448Y1908534D1*
X1218470Y1911466D1*
X1211701Y1917332D1*
X1070114Y1917371D1*
X1059781Y1909461D1*
X1048122Y1905058D1*
X1035713Y1903908D1*
X1023445Y1906097D1*
X1012198Y1911466D1*
X1002781Y1919627D1*
X995869Y1929999D1*
X991961Y1941832D1*
X991336Y1954278D1*
X994038Y1966445D1*
X999875Y1977455D1*
X1008427Y1986521D1*
X1019079Y1992990D1*
X1031067Y1996396D1*
X1043529Y1996497D1*
X1055570Y1993285D1*
X1066325Y1986990D1*
X1069858Y1983364D1*
X1211499D1*
X1214698Y1986521D1*
X1225350Y1992990D1*
X1237339Y1996396D1*
X1249801Y1996497D1*
X1261841Y1993285D1*
X1272597Y1986990D1*
X1281294Y1978063D1*
X1287308Y1967148D1*
X1290209Y1955028D1*
X1289241Y1941491D1*
X1289440Y1712866D1*
Y1606581D1*
X1287100Y1594378D1*
X1279776Y1583249D1*
X1095541Y1399014D1*
X1095987Y1355205D1*
X1106639Y1361673D1*
X1118627Y1365080D1*
X1131089Y1365181D1*
X1143130Y1361969D1*
X1153886Y1355673D1*
X1157419Y1352047D1*
X1217810D1*
X1351986Y1486148D1*
X1362269Y1493123D1*
X1375318Y1495812D1*
X1598365D1*
X1612891Y1505438D1*
X1624879Y1508845D1*
X1637341Y1508946D1*
X1649382Y1505734D1*
X1660138Y1499438D1*
X1668835Y1490512D1*
X1674849Y1479597D1*
X1677749Y1467476D1*
X1677983Y1462816D1*
X1676312Y1450466D1*
X1671423Y1439004D1*
X1663664Y1429251D1*
X1653593Y1421909D1*
X1641934Y1417507D1*
X1629525Y1416357D1*
X1617257Y1418546D1*
X1606010Y1423915D1*
X1599241Y1429781D1*
X1388904Y1429820D1*
X1254885Y1295719D1*
X1244601Y1288744D1*
X1231552Y1286055D1*
X1157412Y1285486D1*
X1148915Y1279291D1*
X1332664Y1095724D1*
X1512720Y1095770D1*
X1524924Y1093430D1*
X1536052Y1086106D1*
X1586058Y1036101D1*
X1593033Y1025818D1*
X1595722Y1012769D1*
Y975265D1*
X1593382Y963062D1*
X1586058Y951933D1*
X1436042Y801917D1*
X1425759Y794944D1*
X1412710Y792253D1*
X1213617Y791684D1*
X1203546Y784343D1*
X1191887Y779940D1*
X1179478Y778790D1*
X1167210Y780979D1*
X1155963Y786348D1*
X1146546Y794509D1*
X1139634Y804881D1*
X1135726Y816714D1*
X1135101Y829160D1*
X1137803Y841327D1*
X1143640Y852337D1*
X1152192Y861403D1*
X1162844Y867871D1*
X1174832Y871278D1*
X1187294Y871379D1*
X1199335Y868167D1*
X1210091Y861871D1*
X1213623Y858245D1*
X1399014D1*
X1464232Y923434D1*
X881077Y923517D1*
X881403Y878092D1*
X982535Y777033D1*
X1436492Y776987D1*
X1603936Y944375D1*
X1603900Y947923D1*
X1606602Y960089D1*
X1612440Y971100D1*
X1616983Y975916D1*
X1617239Y1106512D1*
Y1286591D1*
X1608433Y1298682D1*
X1604525Y1310516D1*
X1603900Y1322962D1*
X1606602Y1335129D1*
X1612440Y1346139D1*
X1620991Y1355205D1*
X1631643Y1361673D1*
X1643631Y1365080D1*
X1656093Y1365181D1*
X1668134Y1361969D1*
X1678890Y1355673D1*
X1687587Y1346747D1*
X1693601Y1335832D1*
X1696501Y1323711D1*
X1696735Y1319051D1*
X1695064Y1306701D1*
X1690175Y1295239D1*
X1683143Y1286400D1*
X1683231Y976472D1*
X1687587Y971707D1*
X1693601Y960793D1*
X1696501Y948672D1*
X1696735Y944012D1*
X1695064Y931661D1*
X1690175Y920199D1*
X1682416Y910446D1*
X1672345Y903105D1*
X1660686Y898702D1*
X1650992Y897804D1*
X1496790Y743903D1*
X1473546Y720659D1*
X1463262Y713685D1*
X1450214Y710995D1*
X968913D1*
X956710Y713335D1*
X945581Y720659D1*
X881224Y785017D1*
X881403Y508560D1*
X1882639Y2469474D2*
X1878542Y2457692D1*
X1871665Y2446831D1*
X1881196Y2452996D1*
X1892862Y2457412D1*
X1905217Y2459136D1*
X1917647Y2458085D1*
X1929535Y2454311D1*
X1940295Y2447999D1*
X1949391Y2439462D1*
X1956373Y2429125D1*
X1960894Y2417499D1*
X1962768Y2403130D1*
X1961379Y2390734D1*
X1957282Y2378951D1*
X1950680Y2368367D1*
X1941899Y2359508D1*
X1931375Y2352810D1*
X1919631Y2348605D1*
X1907248Y2347105D1*
X1894840Y2348381D1*
X1883021Y2352371D1*
X1872378Y2358877D1*
X1867629Y2363499D1*
X1863159Y2359508D1*
X1852635Y2352810D1*
X1840891Y2348605D1*
X1828508Y2347105D1*
X1816100Y2348381D1*
X1804281Y2352371D1*
X1793638Y2358877D1*
X1788888Y2363499D1*
X1784419Y2359508D1*
X1773895Y2352810D1*
X1762151Y2348605D1*
X1749768Y2347105D1*
X1737360Y2348381D1*
X1725541Y2352371D1*
X1714898Y2358877D1*
X1705958Y2367577D1*
X1699164Y2378039D1*
X1694854Y2389745D1*
X1693241Y2402114D1*
X1694406Y2414534D1*
X1698287Y2426388D1*
X1704697Y2437089D1*
X1709815Y2442445D1*
X1705958Y2446318D1*
X1699164Y2456780D1*
X1694854Y2468486D1*
X1693241Y2480854D1*
X1694406Y2493274D1*
X1698287Y2505129D1*
X1704697Y2515829D1*
X1713316Y2524848D1*
X1723715Y2531736D1*
X1735382Y2536152D1*
X1747736Y2537877D1*
X1760167Y2536825D1*
X1772055Y2533051D1*
X1782815Y2526739D1*
X1788215Y2521671D1*
X1802455Y2531736D1*
X1814122Y2536152D1*
X1826476Y2537877D1*
X1838907Y2536825D1*
X1850795Y2533051D1*
X1861555Y2526739D1*
X1870651Y2518202D1*
X1877633Y2507865D1*
X1882154Y2496239D1*
X1884028Y2481870D1*
X1882639Y2469474D1*
X983530Y2031731D2*
X979433Y2019949D1*
X972831Y2009365D1*
X964050Y2000505D1*
X953526Y1993807D1*
X941782Y1989602D1*
X929399Y1988102D1*
X916991Y1989378D1*
X905172Y1993369D1*
X894529Y1999874D1*
X885589Y2008575D1*
X878795Y2019037D1*
X874486Y2030743D1*
X872873Y2043112D1*
X874037Y2055531D1*
X877919Y2067386D1*
X885676Y2079496D1*
X874786Y2072547D1*
X863042Y2068343D1*
X850659Y2066843D1*
X838251Y2068118D1*
X826432Y2072109D1*
X815789Y2078614D1*
X806849Y2087315D1*
X800055Y2097777D1*
X795745Y2109483D1*
X794133Y2121852D1*
X795042Y2131555D1*
X677940Y2248415D1*
X663559Y2248087D1*
X653488Y2240745D1*
X641829Y2236343D1*
X629420Y2235193D1*
X617152Y2237382D1*
X605906Y2242751D1*
X596488Y2250912D1*
X589576Y2261283D1*
X585668Y2273117D1*
X585043Y2285563D1*
X587745Y2297730D1*
X593583Y2308740D1*
X602134Y2317806D1*
X612786Y2324274D1*
X624774Y2327681D1*
X637236Y2327782D1*
X649277Y2324570D1*
X660033Y2318274D1*
X663566Y2314648D1*
X691366D1*
X703570Y2312308D1*
X714698Y2304984D1*
X841480Y2178202D1*
X848627Y2178874D1*
X861058Y2177823D1*
X872946Y2174049D1*
X883706Y2167736D1*
X889106Y2162668D1*
X903346Y2172734D1*
X915013Y2177150D1*
X927367Y2178874D1*
X939798Y2177823D1*
X951686Y2174049D1*
X962446Y2167736D1*
X971542Y2159199D1*
X978524Y2148862D1*
X983045Y2137236D1*
X984919Y2122867D1*
X983530Y2110471D1*
X979433Y2098689D1*
X972831Y2088105D1*
X968715Y2083951D1*
X978524Y2070122D1*
X983045Y2058496D1*
X984919Y2044127D1*
X983530Y2031731D1*
X1670747Y2330329D2*
Y2263142D1*
X1681352Y2252945D1*
X1687366Y2242030D1*
X1690266Y2229909D1*
X1690500Y2225249D1*
X1688829Y2212899D1*
X1683940Y2201437D1*
X1676181Y2191684D1*
X1666110Y2184343D1*
X1654451Y2179940D1*
X1642042Y2178790D1*
X1629774Y2180979D1*
X1618528Y2186348D1*
X1609110Y2194509D1*
X1602198Y2204881D1*
X1598290Y2216714D1*
X1597665Y2229160D1*
X1600367Y2241327D1*
X1604928Y2249929D1*
X1604755Y2330327D1*
X1595949Y2342382D1*
X1592041Y2354215D1*
X1591416Y2366661D1*
X1594118Y2378828D1*
X1599955Y2389839D1*
X1608507Y2398904D1*
X1619159Y2405373D1*
X1631147Y2408780D1*
X1643609Y2408881D1*
X1655650Y2405668D1*
X1666406Y2399373D1*
X1675102Y2390446D1*
X1681117Y2379531D1*
X1684017Y2367411D1*
X1684251Y2362751D1*
X1682580Y2350400D1*
X1677690Y2338938D1*
X1670659Y2330100D1*
X1211759Y1983404D2*
X1214698Y1986521D1*
X1225350Y1992990D1*
X1237339Y1996396D1*
X1249801Y1996497D1*
X1261841Y1993285D1*
X1272597Y1986990D1*
X1281294Y1978063D1*
X1287308Y1967148D1*
X1290209Y1955028D1*
X1289241Y1941491D1*
X1467255Y2088921D2*
Y2143999D1*
X1469594Y2156202D1*
X1485167Y2179160D1*
X1487869Y2191327D1*
X1493706Y2202337D1*
X1502257Y2211403D1*
X1512909Y2217871D1*
X1524898Y2221278D1*
X1537360Y2221379D1*
X1549400Y2218167D1*
X1560156Y2211871D1*
X1568853Y2202945D1*
X1574867Y2192030D1*
X1577768Y2179909D1*
X1578001Y2175249D1*
X1576331Y2162899D1*
X1571441Y2151437D1*
X1563682Y2141684D1*
X1553612Y2134343D1*
X1541953Y2129940D1*
X1533034Y2129114D1*
X1533247Y2088920D1*
X1537602Y2084196D1*
X1543617Y2073281D1*
X1546517Y2061160D1*
X1546751Y2056500D1*
X1545080Y2044150D1*
X1540190Y2032688D1*
X1532432Y2022934D1*
X1522361Y2015593D1*
X1510702Y2011190D1*
X1498293Y2010041D1*
X1486025Y2012230D1*
X1474778Y2017598D1*
X1465361Y2025760D1*
X1458449Y2036131D1*
X1454541Y2047965D1*
X1453916Y2060411D1*
X1456618Y2072577D1*
X1462455Y2083588D1*
X1466999Y2088404D1*
X1032215Y1090110D2*
X1037278Y1090152D1*
X1049319Y1086940D1*
X1060075Y1080644D1*
X1068772Y1071718D1*
X1074786Y1060803D1*
X1077686Y1048682D1*
X1077920Y1044022D1*
X1076249Y1031672D1*
X1071360Y1020210D1*
X1063601Y1010457D1*
X1053530Y1003115D1*
X1041871Y998713D1*
X1029462Y997563D1*
X1017194Y999752D1*
X1005948Y1005121D1*
X999178Y1010987D1*
D18*
X618630Y2793870D3*
D19*
Y2715130D3*
X697370D3*
Y2793870D3*
D18*
X866492Y533370D3*
D19*
X787752D3*
X709012D3*
Y454630D3*
X787752D3*
X866492D3*
D18*
X1835239Y539619D3*
D19*
X1756499D3*
X1677759D3*
Y460879D3*
X1756499D3*
X1835239D3*
D18*
X1906740Y2481870D3*
D19*
X1828000D3*
X1749260D3*
Y2403130D3*
X1828000D3*
X1906740D3*
D20*
X456360Y1044022D3*
D21*
Y1144022D3*
Y1244022D3*
Y1344022D3*
D18*
X850151Y2044127D3*
D19*
X928891D3*
Y2122867D3*
X850151D3*
M02*
