M48
INCH
T01C0.02
T02C0.036
T03C0.0433
T04C0.1004
%
T01
X+016378Y+023628
X+016440Y+022252
X+015315Y+021752
X+015003Y+020565
X+014315Y+019191
X+012814Y+020316
X+012002Y+020129
X+012439Y+019504
X+011503Y+018442
X+010377Y+019504
X+008085Y+020025
X+005300Y+019392
X+006314Y+022817
X+011627Y+025379
X+012127Y+024754
X+016252Y+025629
X+019753Y+027185
X+016315Y+014628
X+016502Y+013191
X+015127Y+012753
X+015252Y+011065
X+015127Y+009815
X+014502Y+009940
X+016502Y+009440
X+017002Y+007935
X+017502Y+011565
X+018940Y+011628
X+011627Y+010628
X+011190Y+011377
X+010065Y+011752
X+009689Y+012253
X+009189Y+010940
X+008470Y+010221
X+007689Y+008815
X+007751Y+007877
X+011127Y+008941
X+011814Y+008252
X+010314Y+010440
X+011252Y+013191
X+004689Y+004877
T02
X+006186Y+027939
X+006186Y+027151
X+006974Y+027151
X+006974Y+027939
X+008502Y+021229
X+008502Y+020441
X+009289Y+020441
X+009289Y+021229
X+017493Y+024031
X+017493Y+024819
X+018280Y+024819
X+019067Y+024819
X+019067Y+024031
X+018280Y+024031
X+018352Y+005396
X+018352Y+004609
X+017565Y+004609
X+017565Y+005396
X+016778Y+005396
X+016778Y+004609
X+008665Y+004546
X+007878Y+004546
X+007878Y+005334
X+007090Y+005334
X+007090Y+004546
X+008665Y+005334
T03
X+004564Y+010440
X+004564Y+011440
X+004564Y+012440
X+004564Y+013440
T04
X+006380Y+016125
X+012877Y+004752
X+020440Y+022191
T00
M30
