G04 DipTrace Beta 2.9.0.1*
G04 Top.gbr*
%MOIN*%
G04 #@! TF.FileFunction,Copper,L1,Top*
G04 #@! TF.Part,Single*
%AMOUTLINE0*
4,1,4,
0.03,-0.015,
0.03,0.015,
-0.03,0.015,
-0.03,-0.015,
0.03,-0.015,
0*%
%AMOUTLINE1*
4,1,4,
-0.011,0.025,
-0.011,-0.025,
0.011,-0.025,
0.011,0.025,
-0.011,0.025,
0*%
%AMOUTLINE2*
4,1,4,
-0.025,0.011,
-0.025,-0.011,
0.025,-0.011,
0.025,0.011,
-0.025,0.011,
0*%
G04 #@! TA.AperFunction,Conductor,NotC*
%ADD13C,0.012992*%
G04 #@! TA.AperFunction,SMDPad,CuDef*
%ADD15R,0.03937X0.043307*%
%ADD16R,0.043307X0.03937*%
%ADD17R,0.03937X0.033465*%
G04 #@! TA.AperFunction,ComponentPad*
%ADD18R,0.059055X0.059055*%
%ADD19C,0.059055*%
%ADD20R,0.066929X0.066929*%
%ADD21C,0.066929*%
G04 #@! TA.AperFunction,SMDPad,CuDef*
%ADD25R,0.035433X0.03937*%
%ADD26R,0.043307X0.020079*%
G04 #@! TA.AperFunction,ViaPad*
%ADD27C,0.04*%
G04 #@! TA.AperFunction,SMDPad,CuDef*
%ADD50OUTLINE0*%
%ADD51OUTLINE1*%
%ADD52OUTLINE2*%
%FSLAX26Y26*%
G04*
G70*
G90*
G75*
G01*
G04 Top*
%LPD*%
X1098000Y2291744D2*
D13*
X1071256D1*
X1006499Y2356501D1*
Y2627760D1*
X846509Y2787749D1*
X703491D1*
X697370Y2793870D1*
X618630Y2715130D2*
Y2678130D1*
X675249Y2621510D1*
X831500D1*
X900249Y2552761D1*
Y2384012D1*
X1027761Y2256500D1*
X1094252D1*
X1098000Y2260248D1*
X1749260Y2403130D2*
X1678130D1*
X1637751Y2362751D1*
X1644000Y2225249D2*
X1544001D1*
X1481500Y2287751D1*
X1439993D1*
X1436000Y2291744D1*
X750000Y2002500D2*
X808524D1*
X530000D2*
Y1939234D1*
X1431102Y1856201D2*
X1431462Y1919114D1*
X1516223Y1143500D2*
X1525222Y1106529D1*
X1412749Y1194000D2*
X1512720Y1275297D1*
X1072052Y894098D2*
X1112678D1*
X1215899Y1044000D2*
X1162684Y1062774D1*
X1772223Y793500D2*
X1700240D1*
X1164535Y2594500D2*
Y2537929D1*
X1162684D1*
X1917465Y2718500D2*
X1975269D1*
X1368898Y1768799D2*
X1308576D1*
X1287697Y1789678D1*
X1368898Y1768799D2*
Y1775291D1*
X1425211Y1831605D1*
Y1856201D1*
X1431102D1*
X1506470Y1856608D2*
X1431509D1*
X1431102Y1856201D1*
X1618982Y2606686D2*
Y2569182D1*
X1625232Y2562932D1*
X1251252Y2413500D2*
Y2436860D1*
X1212689Y2475423D1*
X1282748Y2075500D2*
Y2032928D1*
X1281446Y2031626D1*
X1219756Y2075500D2*
Y2032442D1*
X1200188Y2012874D1*
X678474Y1131500D2*
X681383Y1113564D1*
Y912759D1*
X775143Y818999D1*
Y787745D1*
X1828000Y2403130D2*
Y2359251D1*
X1769000Y2300251D1*
X1550249D1*
X1494000Y2356500D1*
X1437764D1*
X1436000Y2354736D1*
X1906740Y2403130D2*
Y2369240D1*
X1800251Y2262751D1*
X1537749D1*
X1481500Y2319000D1*
X1440240D1*
X1436000Y2323240D1*
X1828000Y2481870D2*
X1831504D1*
Y2699469D1*
X1850535Y2718500D1*
X1828000Y2481870D2*
Y2647694D1*
X1625232Y2850462D1*
X675222D1*
X618630Y2793870D1*
X1831504Y2481870D2*
Y2650441D1*
X1375206D1*
X1343953Y2619188D1*
Y2415287D1*
X1345740Y2413500D1*
X675222Y2850462D2*
X631467Y2894217D1*
X518866D1*
X462610Y2837961D1*
Y2535425D1*
X468142Y2529894D1*
X595535Y2402500D1*
X468142Y2529894D2*
X462610D1*
Y2450420D1*
X631378Y2281652D1*
X462610Y2450420D2*
Y1925365D1*
X506365Y1881610D1*
X968913D1*
X1037671Y1950367D1*
X1243942D2*
X1268945D1*
X1318950Y2000373D1*
Y2070794D1*
X1314244Y2075500D1*
X1243942Y1950367D2*
Y2082810D1*
X1251252Y2075500D1*
X1215899Y844000D2*
X1200186D1*
X1181436Y825249D1*
X1450197Y994000D2*
X1412749D1*
X1552052Y2606686D2*
X1487651D1*
X1487465Y2606500D1*
X1098000Y2134264D2*
X1094000Y2130264D1*
Y1406487D1*
X1181436Y1319051D1*
X1650235D1*
Y944012D2*
X1412749D1*
Y944000D1*
Y1044000D2*
X1450249D1*
X1475249Y1019000D1*
X1881500D1*
X1944000Y1081500D1*
Y1706500D1*
X1487751Y2162749D1*
X1439010D1*
X1436000Y2165760D1*
X1512720Y981516D2*
X1450236Y1044000D1*
X1215899Y994000D2*
X1168951D1*
X1118929Y1044022D1*
X1031420D1*
X968913Y1225291D2*
Y1262663D1*
X1025302Y1319051D1*
X1125231D1*
X1631483Y1462816D2*
X1800251Y1631584D1*
Y1756500D1*
X1500251Y2056500D1*
X1531501Y2175249D2*
X1506501Y2200249D1*
X1438993D1*
X1436000Y2197256D1*
X1215899Y1094000D2*
Y1100251D1*
X925131D1*
X918908Y1094028D1*
X1150251Y1844175D2*
Y2068987D1*
X1156764Y2075500D1*
X847025Y1022146D2*
X918908Y1094028D1*
X1287749Y2408047D2*
X1282748Y2413049D1*
Y2413500D1*
X1231465Y2594500D2*
Y2575409D1*
X1281500Y2525374D1*
Y2414748D1*
X1368898Y1856201D2*
X1325201D1*
X1324794Y1856608D1*
X1287697D1*
X1275196D1*
X1250193Y1831605D1*
Y1712843D1*
X1268945Y1694091D1*
X1362751D1*
Y1692308D1*
X1364533Y1694091D1*
X1368898Y1856201D2*
Y1994180D1*
X1350203Y2012874D1*
Y2071037D1*
X1345740Y2075500D1*
X1377236D2*
Y2060849D1*
X1581478Y1856608D1*
Y1787850D1*
X1568946Y1775319D1*
X1437622D1*
X1431102Y1768799D1*
X1506470Y1789678D2*
Y1775349D1*
X1437652D1*
X1431462Y1694091D2*
X1462715D1*
X1506470Y1737845D1*
Y1789678D1*
X1835239Y460879D2*
X1848424D1*
X1912762Y525218D1*
Y812748D1*
X1887761Y837749D1*
X1857123D1*
X1850276Y830902D1*
X1613000Y822965D2*
Y863001D1*
X1656499Y906500D1*
X1812749D1*
X1844000Y875249D1*
Y837177D1*
X1850276Y830902D1*
X1613000Y863001D2*
X1606248D1*
X1575249Y894000D1*
X1412749D1*
X756526Y1094098D2*
X793928Y1131500D1*
X1037752D1*
X1100252Y1194000D1*
X1215899D1*
X709012Y454630D2*
Y456461D1*
X525117D1*
Y462711D1*
X493864D1*
X468861Y487714D1*
X768892Y881505D2*
Y1094098D1*
X756526D1*
X525117Y529640D2*
X531367Y535891D1*
Y1175115D1*
X656501Y1300249D1*
X750252D1*
X794001Y1256500D1*
Y1212749D1*
X769001Y1187749D1*
Y1181377D1*
X756526Y1168902D1*
X794001Y1212749D2*
X825251Y1181500D1*
X1000249D1*
X1006500Y1175249D1*
X1119000Y1137749D2*
X1194000D1*
X1200251Y1144000D1*
X1215899D1*
X525117Y529640D2*
X705282D1*
X709012Y533370D1*
X787752D2*
Y706500D1*
X789786D1*
X838251Y754965D1*
X994000Y931500D2*
Y950346D1*
X1006417Y962764D1*
X1193987D1*
X1212751Y944000D1*
X1215899D1*
X994000Y931500D2*
X931500D1*
X838251Y838251D1*
Y754965D1*
Y688035D2*
Y656000D1*
X925159Y569092D1*
Y481463D1*
X898325Y454630D1*
X866492D1*
X838251Y688035D2*
X844003D1*
X994000Y856697D2*
Y825252D1*
X1012752Y806500D1*
X1094001D1*
X1181501Y894000D1*
X1215899D1*
X838251Y688035D2*
X887751Y737535D1*
Y812749D1*
X931501Y856500D1*
X993803D1*
X994000Y856697D1*
X1806501Y1194038D2*
X1775214D1*
X1737751Y1231501D1*
X1606501D1*
X1594276Y1219276D1*
Y1180902D1*
Y1219276D2*
X1582050Y1231501D1*
X1544001D1*
X1456500Y1144000D1*
X1412749D1*
X1806501Y1194038D2*
X1812714Y1200251D1*
X1856500D1*
X1894000Y1162751D1*
X1806501Y1127109D2*
X1795828D1*
X1731470Y1062751D1*
X1612751D1*
X1594276Y1081226D1*
Y1106098D1*
Y1081777D2*
X1556499Y1044000D1*
X1481500D1*
X1431500Y1094000D1*
X1412749D1*
X1594276Y1106098D2*
Y1100575D1*
X1650235Y1156534D1*
X1750245D1*
X1756499Y539619D2*
Y644001D1*
X1751392Y649108D1*
X1650251Y750249D1*
X1618786D1*
X1613000Y756035D1*
X1751392Y649108D2*
X1761608D1*
X1850276Y737776D1*
Y756098D1*
X1412749Y844000D2*
X1487749D1*
X1562749Y769000D1*
X1600035D1*
X1613000Y756035D1*
X530000Y2152500D2*
X531239D1*
X581500Y2202761D1*
X699739D1*
X750000Y2152500D1*
X662465Y2402500D2*
Y2378046D1*
X750000Y2290510D1*
Y2152500D1*
X662465Y2402500D2*
X794260D1*
X965260Y2231500D1*
X1095252D1*
X1098000Y2228752D1*
X928891Y2044127D2*
Y2047860D1*
X1050172Y2169140D1*
X1094619D1*
X1098000Y2165760D1*
X1377236Y2413500D2*
X1375249D1*
Y2493999D1*
X1412751Y2531500D1*
Y2598715D1*
X1420535Y2606500D1*
X1749260Y2481870D2*
X1519370D1*
X1451000Y2413500D1*
X1375249D1*
X928891Y2122867D2*
X1000167Y2194143D1*
X1101113D1*
X1098000Y2197256D1*
D27*
X1637751Y2362751D3*
X1644000Y2225249D3*
X808524Y2002500D3*
X530000Y1939234D3*
X1431462Y1919114D3*
X1525222Y1106529D3*
X1512720Y1275297D3*
X1112678Y894098D3*
X1162684Y1062774D3*
X1700240Y793500D3*
X1162684Y2537929D3*
X1975269Y2718500D3*
X1625232Y2562932D3*
X1212689Y2475423D3*
X1281446Y2031626D3*
X1200188Y2012874D3*
X775143Y787745D3*
X631378Y2281652D3*
X1037671Y1950367D3*
X1243942D3*
D3*
X1181436Y825249D3*
X1450197Y994000D3*
X1650235Y1319051D3*
Y944012D3*
X1512720Y981516D3*
X1031420Y1044022D3*
X968913Y1225291D3*
X1125231Y1319051D3*
X1631483Y1462816D3*
X1500251Y2056500D3*
X1531501Y2175249D3*
X1031420Y1044022D3*
X918908Y1094028D3*
X1150251Y1844175D3*
X847025Y1022146D3*
X468861Y487714D3*
X768892Y881505D3*
X1006500Y1175249D3*
X1119000Y1137749D3*
X1894000Y1162751D3*
X1750245Y1156534D3*
D15*
X1506470Y1856608D3*
Y1789678D3*
X1287697Y1856608D3*
Y1789678D3*
D16*
X1850535Y2718500D3*
X1917465D3*
X1231465Y2594500D3*
X1164535D3*
D17*
X1850276Y756098D3*
Y830902D3*
X1772223Y793500D3*
X1594276Y1106098D3*
Y1180902D3*
X1516223Y1143500D3*
X756526Y1094098D3*
Y1168902D3*
X678474Y1131500D3*
X994000Y931500D3*
Y856697D3*
X1072052Y894098D3*
D16*
X1618982Y2606686D3*
X1552052D3*
D18*
X618630Y2793870D3*
D19*
Y2715130D3*
X697370D3*
Y2793870D3*
D18*
X866492Y533370D3*
D19*
X787752D3*
X709012D3*
Y454630D3*
X787752D3*
X866492D3*
D18*
X1835239Y539619D3*
D19*
X1756499D3*
X1677759D3*
Y460879D3*
X1756499D3*
X1835239D3*
D18*
X1906740Y2481870D3*
D19*
X1828000D3*
X1749260D3*
Y2403130D3*
X1828000D3*
X1906740D3*
D20*
X456360Y1044022D3*
D21*
Y1144022D3*
Y1244022D3*
Y1344022D3*
D18*
X850151Y2044127D3*
D19*
X928891D3*
Y2122867D3*
X850151D3*
D15*
X525117Y462711D3*
Y529640D3*
X838251Y688035D3*
Y754965D3*
D16*
X1431462Y1694091D3*
X1364533D3*
D15*
X1806501Y1194038D3*
Y1127109D3*
X1613000Y756035D3*
Y822965D3*
D16*
X1487465Y2606500D3*
X1420535D3*
X662465Y2402500D3*
X595535D3*
D50*
X750000Y2002500D3*
X530000D3*
X750000Y2152500D3*
X530000D3*
D51*
X1156764Y2075500D3*
X1188260D3*
X1219756D3*
X1251252D3*
X1282748D3*
X1314244D3*
X1345740D3*
X1377236D3*
D52*
X1436000Y2134264D3*
Y2165760D3*
Y2197256D3*
Y2228752D3*
Y2260248D3*
Y2291744D3*
Y2323240D3*
Y2354736D3*
D51*
X1377236Y2413500D3*
X1345740D3*
X1314244D3*
X1282748D3*
X1251252D3*
X1219756D3*
X1188260D3*
X1156764D3*
D52*
X1098000Y2354736D3*
Y2323240D3*
Y2291744D3*
Y2260248D3*
Y2228752D3*
Y2197256D3*
Y2165760D3*
Y2134264D3*
D25*
X1368898Y1856201D3*
Y1768799D3*
X1431102D3*
Y1856201D3*
D26*
X1412749Y844000D3*
Y894000D3*
Y944000D3*
Y994000D3*
Y1044000D3*
Y1094000D3*
Y1144000D3*
Y1194000D3*
X1215899D3*
Y1144000D3*
Y1094000D3*
Y1044000D3*
Y994000D3*
Y944000D3*
Y894000D3*
Y844000D3*
M02*
