G04 DipTrace Beta 2.9.0.1*
G04 TopAssy.gbr*
%MOIN*%
G04 #@! TF.FileFunction,Drawing,Top*
G04 #@! TF.Part,Single*
%ADD10C,0.009843*%
%ADD23C,0.008*%
%ADD24C,0.005*%
%ADD12C,0.003*%
%FSLAX26Y26*%
G04*
G70*
G90*
G75*
G01*
G04 TopAssy*
%LPD*%
X396515Y954652D2*
D10*
Y1433392D1*
X700620Y2177500D2*
D23*
X739988Y2138120D1*
Y2016880D2*
X700620Y1977500D1*
X579380D2*
X540012Y2016880D1*
Y2138120D2*
X579380Y2177500D1*
X564988Y2027500D2*
D24*
Y2059980D1*
X554964Y2077900D1*
X564988Y2086560D2*
Y2121400D1*
G36*
X1147768Y2104510D2*
X1165810D1*
Y2065516D1*
X1147768D1*
Y2104510D1*
G37*
G36*
X1179273D2*
X1197276D1*
Y2065516D1*
X1179273D1*
Y2104510D1*
G37*
G36*
X1210740D2*
X1228782D1*
Y2065516D1*
X1210740D1*
Y2104510D1*
G37*
G36*
X1242246D2*
X1260288D1*
Y2065516D1*
X1242246D1*
Y2104510D1*
G37*
G36*
X1273751D2*
X1291793D1*
Y2065516D1*
X1273751D1*
Y2104510D1*
G37*
G36*
X1305257D2*
X1323260D1*
Y2065516D1*
X1305257D1*
Y2104510D1*
G37*
G36*
X1336724D2*
X1354766D1*
Y2065516D1*
X1336724D1*
Y2104510D1*
G37*
G36*
X1368229D2*
X1386271D1*
Y2065516D1*
X1368229D1*
Y2104510D1*
G37*
G36*
X1406990Y2143271D2*
X1446023D1*
Y2125306D1*
X1406990D1*
Y2143271D1*
G37*
G36*
Y2174776D2*
X1446023D1*
Y2156773D1*
X1406990D1*
Y2174776D1*
G37*
G36*
Y2206243D2*
X1446023D1*
Y2188279D1*
X1406990D1*
Y2206243D1*
G37*
G36*
Y2237749D2*
X1446023D1*
Y2219784D1*
X1406990D1*
Y2237749D1*
G37*
G36*
Y2269254D2*
X1446023D1*
Y2251290D1*
X1406990D1*
Y2269254D1*
G37*
G36*
Y2300760D2*
X1446023D1*
Y2282757D1*
X1406990D1*
Y2300760D1*
G37*
G36*
Y2332227D2*
X1446023D1*
Y2314262D1*
X1406990D1*
Y2332227D1*
G37*
G36*
Y2363732D2*
X1446023D1*
Y2345768D1*
X1406990D1*
Y2363732D1*
G37*
G36*
X1368229Y2423484D2*
X1386271D1*
Y2384529D1*
X1368229D1*
Y2423484D1*
G37*
G36*
X1336724D2*
X1354766D1*
Y2384529D1*
X1336724D1*
Y2423484D1*
G37*
G36*
X1305257D2*
X1323260D1*
Y2384529D1*
X1305257D1*
Y2423484D1*
G37*
G36*
X1273751D2*
X1291793D1*
Y2384529D1*
X1273751D1*
Y2423484D1*
G37*
G36*
X1242246D2*
X1260288D1*
Y2384529D1*
X1242246D1*
Y2423484D1*
G37*
G36*
X1210740D2*
X1228782D1*
Y2384529D1*
X1210740D1*
Y2423484D1*
G37*
G36*
X1179273D2*
X1197276D1*
Y2384529D1*
X1179273D1*
Y2423484D1*
G37*
G36*
X1147768D2*
X1165810D1*
Y2384529D1*
X1147768D1*
Y2423484D1*
G37*
G36*
X1088016Y2363732D2*
X1127010D1*
Y2345768D1*
X1088016D1*
Y2363732D1*
G37*
G36*
Y2332227D2*
X1127010D1*
Y2314262D1*
X1088016D1*
Y2332227D1*
G37*
G36*
Y2300760D2*
X1127010D1*
Y2282757D1*
X1088016D1*
Y2300760D1*
G37*
G36*
Y2269254D2*
X1127010D1*
Y2251290D1*
X1088016D1*
Y2269254D1*
G37*
G36*
Y2237749D2*
X1127010D1*
Y2219784D1*
X1088016D1*
Y2237749D1*
G37*
G36*
Y2206243D2*
X1127010D1*
Y2188279D1*
X1088016D1*
Y2206243D1*
G37*
G36*
Y2174776D2*
X1127010D1*
Y2156773D1*
X1088016D1*
Y2174776D1*
G37*
G36*
Y2143271D2*
X1127010D1*
Y2125306D1*
X1088016D1*
Y2143271D1*
G37*
X1208030Y824118D2*
D23*
X1420618D1*
Y1207976D1*
X1208030D1*
Y824118D1*
X363143Y1094600D2*
D12*
X383239D1*
Y1103222D1*
X382266Y1106096D1*
X381316Y1107047D1*
X379414Y1107997D1*
X376540D1*
X374617Y1107047D1*
X373666Y1106096D1*
X372716Y1103222D1*
X371743Y1106096D1*
X370792Y1107047D1*
X368891Y1107997D1*
X366968D1*
X365066Y1107047D1*
X364094Y1106096D1*
X363143Y1103222D1*
Y1094600D1*
X372716D2*
Y1103222D1*
X363143Y1119921D2*
X364094Y1117998D1*
X366017Y1116096D1*
X367918Y1115124D1*
X370792Y1114173D1*
X375590D1*
X378442Y1115124D1*
X380365Y1116096D1*
X382266Y1117998D1*
X383239Y1119921D1*
Y1123746D1*
X382266Y1125647D1*
X380365Y1127570D1*
X378442Y1128521D1*
X375590Y1129472D1*
X370792D1*
X367918Y1128521D1*
X366017Y1127570D1*
X364094Y1125647D1*
X363143Y1123746D1*
Y1119921D1*
X383239Y1150968D2*
X363143Y1143297D1*
X383239Y1135647D1*
X376540Y1138521D2*
Y1148094D1*
X372716Y1157144D2*
Y1165744D1*
X371743Y1168618D1*
X370792Y1169590D1*
X368891Y1170541D1*
X366968D1*
X365066Y1169590D1*
X364094Y1168618D1*
X363143Y1165744D1*
Y1157144D1*
X383239D1*
X372716Y1163842D2*
X383239Y1170541D1*
X363143Y1176717D2*
X383239D1*
Y1183415D1*
X382266Y1186289D1*
X380365Y1188213D1*
X378442Y1189163D1*
X375590Y1190114D1*
X370792D1*
X367918Y1189163D1*
X366017Y1188213D1*
X364094Y1186289D1*
X363143Y1183415D1*
Y1176717D1*
Y1228155D2*
Y1215730D1*
X383239D1*
Y1228155D1*
X372716Y1215730D2*
Y1223379D1*
X363143Y1234330D2*
X383239D1*
Y1241029D1*
X382266Y1243903D1*
X380365Y1245826D1*
X378442Y1246777D1*
X375590Y1247728D1*
X370792D1*
X367918Y1246777D1*
X366017Y1245826D1*
X364094Y1243903D1*
X363143Y1241029D1*
Y1234330D1*
X367918Y1268251D2*
X366017Y1267301D1*
X364094Y1265377D1*
X363143Y1263476D1*
Y1259651D1*
X364094Y1257728D1*
X366017Y1255827D1*
X367918Y1254854D1*
X370792Y1253903D1*
X375590D1*
X378442Y1254854D1*
X380365Y1255827D1*
X382266Y1257728D1*
X383239Y1259651D1*
Y1263476D1*
X382266Y1265377D1*
X380365Y1267301D1*
X378442Y1268251D1*
X375590D1*
Y1263476D1*
X363143Y1286852D2*
Y1274427D1*
X383239D1*
Y1286852D1*
X372716Y1274427D2*
Y1282076D1*
M02*
