G04 DipTrace Beta 2.9.0.1*
G04 TopPaste.gbr*
%MOIN*%
G04 #@! TF.FileFunction,Paste,Top*
G04 #@! TF.Part,Single*
%AMOUTLINE0*
4,1,4,
0.03,-0.015,
0.03,0.015,
-0.03,0.015,
-0.03,-0.015,
0.03,-0.015,
0*%
%AMOUTLINE1*
4,1,4,
-0.011,0.025,
-0.011,-0.025,
0.011,-0.025,
0.011,0.025,
-0.011,0.025,
0*%
%AMOUTLINE2*
4,1,4,
-0.025,0.011,
-0.025,-0.011,
0.025,-0.011,
0.025,0.011,
-0.025,0.011,
0*%
%ADD35R,0.035307X0.012079*%
%ADD37R,0.027433X0.03137*%
%ADD43R,0.03137X0.025465*%
%ADD45R,0.035307X0.03137*%
%ADD47R,0.03137X0.035307*%
%ADD50OUTLINE0*%
%ADD51OUTLINE1*%
%ADD52OUTLINE2*%
%FSLAX26Y26*%
G04*
G70*
G90*
G75*
G01*
G04 TopPaste*
%LPD*%
D47*
X1506470Y1856608D3*
Y1789678D3*
X1287697Y1856608D3*
Y1789678D3*
D45*
X1850535Y2718500D3*
X1917465D3*
X1231465Y2594500D3*
X1164535D3*
D43*
X1850276Y756098D3*
Y830902D3*
X1772223Y793500D3*
X1594276Y1106098D3*
Y1180902D3*
X1516223Y1143500D3*
X756526Y1094098D3*
Y1168902D3*
X678474Y1131500D3*
X994000Y931500D3*
Y856697D3*
X1072052Y894098D3*
D45*
X1618982Y2606686D3*
X1552052D3*
D47*
X525117Y462711D3*
Y529640D3*
X838251Y688035D3*
Y754965D3*
D45*
X1431462Y1694091D3*
X1364533D3*
D47*
X1806501Y1194038D3*
Y1127109D3*
X1613000Y756035D3*
Y822965D3*
D45*
X1487465Y2606500D3*
X1420535D3*
X662465Y2402500D3*
X595535D3*
D50*
X750000Y2002500D3*
X530000D3*
X750000Y2152500D3*
X530000D3*
D51*
X1156764Y2075500D3*
X1188260D3*
X1219756D3*
X1251252D3*
X1282748D3*
X1314244D3*
X1345740D3*
X1377236D3*
D52*
X1436000Y2134264D3*
Y2165760D3*
Y2197256D3*
Y2228752D3*
Y2260248D3*
Y2291744D3*
Y2323240D3*
Y2354736D3*
D51*
X1377236Y2413500D3*
X1345740D3*
X1314244D3*
X1282748D3*
X1251252D3*
X1219756D3*
X1188260D3*
X1156764D3*
D52*
X1098000Y2354736D3*
Y2323240D3*
Y2291744D3*
Y2260248D3*
Y2228752D3*
Y2197256D3*
Y2165760D3*
Y2134264D3*
D37*
X1368898Y1856201D3*
Y1768799D3*
X1431102D3*
Y1856201D3*
D35*
X1412749Y844000D3*
Y894000D3*
Y944000D3*
Y994000D3*
Y1044000D3*
Y1094000D3*
Y1144000D3*
Y1194000D3*
X1215899D3*
Y1144000D3*
Y1094000D3*
Y1044000D3*
Y994000D3*
Y944000D3*
Y894000D3*
Y844000D3*
M02*
