G04 DipTrace Beta 2.9.0.1*
G04 TopSilk.gbr*
%MOIN*%
G04 #@! TF.FileFunction,Legend,Top*
G04 #@! TF.Part,Single*
%ADD10C,0.009843*%
%ADD11C,0.006*%
%ADD22C,1.3E-5*%
%ADD23C,0.008*%
%ADD48C,0.007*%
%FSLAX26Y26*%
G04*
G70*
G90*
G75*
G01*
G04 TopSilk*
%LPD*%
X1821078Y734419D2*
D10*
Y852555D1*
X1801433D1*
Y734419D1*
X1821078D1*
X1565078Y1084419D2*
Y1202555D1*
X1545433D1*
Y1084419D1*
X1565078D1*
X727328Y1072419D2*
Y1190555D1*
X707683D1*
Y1072419D1*
X727328D1*
X1023198Y953180D2*
Y835043D1*
X1042843D1*
Y953180D1*
X1023198D1*
X1652446Y2622434D2*
Y2590938D1*
X744614Y2841114D2*
X571386D1*
Y2667886D1*
X744614D1*
Y2841114D1*
X913736Y407386D2*
X661768D1*
Y580614D1*
X913736D1*
Y407386D1*
X1882483Y413635D2*
X1630514D1*
Y586864D1*
X1882483D1*
Y413635D1*
X1953984Y2355886D2*
X1702016D1*
Y2529114D1*
X1953984D1*
Y2355886D1*
X406355Y994005D2*
X506360D1*
Y1394040D1*
X406355D1*
Y994005D1*
X802907Y2170112D2*
X976135D1*
Y1996883D1*
X802907D1*
Y2170112D1*
X589992Y2077500D2*
D22*
G02X589992Y2077500I50008J0D01*
G01*
X739988Y2126320D2*
D23*
Y2027500D1*
X700620Y1977500D2*
X579380D1*
X540012Y2028680D2*
Y2126320D1*
X579380Y2177500D2*
X700620D1*
X1144858Y2136500D2*
D22*
G02X1144858Y2136500I14143J0D01*
G01*
X1129027Y2382473D2*
D11*
X1404973D1*
Y2106527D1*
X1142995D1*
X1129027Y2120495D2*
Y2382473D1*
Y2120495D2*
X1142995Y2106527D1*
X1470866Y1895177D2*
D10*
X1329134D1*
Y1729823D1*
X1470866D1*
Y1895177D1*
X1352761D2*
X1329134Y1877468D1*
X1249362Y824118D2*
D11*
Y1207976D1*
X1379287D1*
Y824118D1*
X1249362D2*
X1284785D1*
X1379287D2*
X1343864D1*
X1284785D2*
G02X1343864Y824118I29539J-6677D01*
G01*
X543853Y2226432D2*
D48*
X565353D1*
X572538Y2228863D1*
X574969Y2231240D1*
X577346Y2235993D1*
Y2240802D1*
X574969Y2245555D1*
X572538Y2247987D1*
X565353Y2250363D1*
X543853D1*
Y2200123D1*
X560599Y2226432D2*
X577346Y2200123D1*
X591346Y2219247D2*
X620031D1*
Y2224055D1*
X617654Y2228863D1*
X615278Y2231240D1*
X610469Y2233617D1*
X603284D1*
X598531Y2231240D1*
X593723Y2226432D1*
X591346Y2219247D1*
Y2214493D1*
X593723Y2207308D1*
X598531Y2202555D1*
X603284Y2200123D1*
X610469D1*
X615278Y2202555D1*
X620031Y2207308D1*
X660339Y2226432D2*
X657963Y2231240D1*
X650778Y2233617D1*
X643593D1*
X636407Y2231240D1*
X634031Y2226432D1*
X636407Y2221678D1*
X641216Y2219247D1*
X653154Y2216870D1*
X657963Y2214493D1*
X660339Y2209685D1*
Y2207308D1*
X657963Y2202555D1*
X650778Y2200123D1*
X643593D1*
X636407Y2202555D1*
X634031Y2207308D1*
X674339Y2219247D2*
X703024D1*
Y2224055D1*
X700647Y2228863D1*
X698271Y2231240D1*
X693462Y2233617D1*
X686277D1*
X681524Y2231240D1*
X676716Y2226432D1*
X674339Y2219247D1*
Y2214493D1*
X676716Y2207308D1*
X681524Y2202555D1*
X686277Y2200123D1*
X693462D1*
X698271Y2202555D1*
X703024Y2207308D1*
X724209Y2250363D2*
Y2209685D1*
X726586Y2202555D1*
X731394Y2200123D1*
X736147D1*
X717024Y2233617D2*
X733771D1*
X1091452Y2461123D2*
X1072273Y2511363D1*
X1053150Y2461123D1*
X1060335Y2477870D2*
X1084267D1*
X1122199Y2511363D2*
Y2461123D1*
X1105452Y2511363D2*
X1138945D1*
X1191192Y2461123D2*
Y2511363D1*
X1172069Y2461123D1*
X1152945Y2511363D1*
Y2461123D1*
X1236253Y2511363D2*
X1205192D1*
Y2461123D1*
X1236253D1*
X1205192Y2487432D2*
X1224315D1*
X1286123Y2499425D2*
X1283747Y2504178D1*
X1278938Y2508987D1*
X1274185Y2511363D1*
X1264623D1*
X1259815Y2508987D1*
X1255062Y2504178D1*
X1252630Y2499425D1*
X1250253Y2492240D1*
Y2480247D1*
X1252630Y2473117D1*
X1255062Y2468308D1*
X1259815Y2463555D1*
X1264623Y2461123D1*
X1274185D1*
X1278938Y2463555D1*
X1283747Y2468308D1*
X1286123Y2473117D1*
Y2480247D1*
X1274185D1*
X1338425Y2461123D2*
X1319247Y2511363D1*
X1300123Y2461123D1*
X1307308Y2477870D2*
X1331240D1*
X1357233Y2511308D2*
X1383487D1*
X1369172Y2492185D1*
X1376357D1*
X1381110Y2489808D1*
X1383487Y2487432D1*
X1385918Y2480247D1*
Y2475493D1*
X1383487Y2468308D1*
X1378733Y2463500D1*
X1371548Y2461123D1*
X1364363D1*
X1357233Y2463500D1*
X1354857Y2465932D1*
X1352425Y2470685D1*
X1402350Y2499370D2*
Y2501746D1*
X1404727Y2506555D1*
X1407103Y2508931D1*
X1411912Y2511308D1*
X1421474D1*
X1426227Y2508931D1*
X1428603Y2506555D1*
X1431035Y2501746D1*
Y2496993D1*
X1428603Y2492185D1*
X1423850Y2485055D1*
X1399918Y2461123D1*
X1433412D1*
X1459350Y2511308D2*
X1452220Y2508931D1*
X1449788Y2504178D1*
Y2499370D1*
X1452220Y2494617D1*
X1456973Y2492185D1*
X1466535Y2489808D1*
X1473720Y2487432D1*
X1478473Y2482623D1*
X1480850Y2477870D1*
Y2470685D1*
X1478473Y2465932D1*
X1476097Y2463500D1*
X1468912Y2461123D1*
X1459350D1*
X1452220Y2463500D1*
X1449788Y2465932D1*
X1447412Y2470685D1*
Y2477870D1*
X1449788Y2482623D1*
X1454597Y2487432D1*
X1461727Y2489808D1*
X1471288Y2492185D1*
X1476097Y2494617D1*
X1478473Y2499370D1*
Y2504178D1*
X1476097Y2508931D1*
X1468912Y2511308D1*
X1459350D1*
X608534Y2898772D2*
Y2858580D1*
X624480Y2889177D2*
Y2891078D1*
X626381Y2894925D1*
X628282Y2896826D1*
X632129Y2898727D1*
X639778D1*
X643581Y2896826D1*
X645482Y2894925D1*
X647428Y2891078D1*
Y2887275D1*
X645482Y2883429D1*
X641679Y2877725D1*
X622534Y2858580D1*
X649329D1*
X692025Y2889221D2*
X690123Y2893024D1*
X686277Y2896870D1*
X682474Y2898772D1*
X674825D1*
X670978Y2896870D1*
X667176Y2893024D1*
X665230Y2889221D1*
X663329Y2883473D1*
Y2873878D1*
X665230Y2868174D1*
X667176Y2864328D1*
X670978Y2860525D1*
X674825Y2858580D1*
X682474D1*
X686277Y2860525D1*
X690123Y2864328D1*
X692025Y2868174D1*
X441251Y2830021D2*
X456549Y2789829D1*
X471848Y2830021D1*
X514544Y2820470D2*
X512643Y2824273D1*
X508796Y2828120D1*
X504993Y2830021D1*
X497344D1*
X493497Y2828120D1*
X489695Y2824273D1*
X487749Y2820470D1*
X485848Y2814722D1*
Y2805127D1*
X487749Y2799424D1*
X489695Y2795577D1*
X493497Y2791774D1*
X497344Y2789829D1*
X504993D1*
X508796Y2791774D1*
X512643Y2795577D1*
X514544Y2799424D1*
X557240Y2820470D2*
X555338Y2824273D1*
X551492Y2828120D1*
X547689Y2830021D1*
X540040D1*
X536193Y2828120D1*
X532391Y2824273D1*
X530445Y2820470D1*
X528544Y2814722D1*
Y2805127D1*
X530445Y2799424D1*
X532391Y2795577D1*
X536193Y2791774D1*
X540040Y2789829D1*
X547689D1*
X551492Y2791774D1*
X555338Y2795577D1*
X557240Y2799424D1*
X474295Y2724273D2*
X470492Y2728120D1*
X464744Y2730021D1*
X457095D1*
X451347Y2728120D1*
X447500Y2724273D1*
Y2720470D1*
X449445Y2716624D1*
X451347Y2714722D1*
X455149Y2712821D1*
X466645Y2708974D1*
X470492Y2707073D1*
X472393Y2705127D1*
X474295Y2701325D1*
Y2695577D1*
X470492Y2691774D1*
X464744Y2689829D1*
X457095D1*
X451347Y2691774D1*
X447500Y2695577D1*
X516991Y2720470D2*
X515089Y2724273D1*
X511243Y2728120D1*
X507440Y2730021D1*
X499791D1*
X495944Y2728120D1*
X492141Y2724273D1*
X490196Y2720470D1*
X488295Y2714722D1*
Y2705127D1*
X490196Y2699424D1*
X492141Y2695577D1*
X495944Y2691774D1*
X499791Y2689829D1*
X507440D1*
X511243Y2691774D1*
X515089Y2695577D1*
X516991Y2699424D1*
X530991Y2730021D2*
Y2689829D1*
X553939D1*
X786795Y2811774D2*
X782992Y2815621D1*
X777244Y2817522D1*
X769595D1*
X763847Y2815621D1*
X760000Y2811774D1*
Y2807972D1*
X761945Y2804125D1*
X763847Y2802224D1*
X767649Y2800322D1*
X779145Y2796476D1*
X782992Y2794574D1*
X784893Y2792629D1*
X786795Y2788826D1*
Y2783078D1*
X782992Y2779276D1*
X777244Y2777330D1*
X769595D1*
X763847Y2779276D1*
X760000Y2783078D1*
X800795Y2817522D2*
Y2777330D1*
X814192D1*
X819940Y2779276D1*
X823787Y2783078D1*
X825688Y2786925D1*
X827589Y2792629D1*
Y2802224D1*
X825688Y2807972D1*
X823787Y2811774D1*
X819940Y2815621D1*
X814192Y2817522D1*
X800795D1*
X872231Y2777330D2*
X856888Y2817522D1*
X841589Y2777330D1*
X847337Y2790728D2*
X866483D1*
X794947Y2714220D2*
X793045Y2718022D1*
X789199Y2721869D1*
X785396Y2723770D1*
X777747D1*
X773900Y2721869D1*
X770097Y2718022D1*
X768152Y2714220D1*
X766251Y2708472D1*
Y2698877D1*
X768152Y2693173D1*
X770097Y2689326D1*
X773900Y2685524D1*
X777747Y2683578D1*
X785396D1*
X789199Y2685524D1*
X793045Y2689326D1*
X794947Y2693173D1*
Y2698877D1*
X785396D1*
X835741Y2723770D2*
Y2683578D1*
X808947Y2723770D1*
Y2683578D1*
X849741Y2723770D2*
Y2683578D1*
X863139D1*
X868887Y2685524D1*
X872733Y2689326D1*
X874635Y2693173D1*
X876536Y2698877D1*
Y2708472D1*
X874635Y2714220D1*
X872733Y2718022D1*
X868887Y2721869D1*
X863139Y2723770D1*
X849741D1*
X838078Y1914814D2*
X834276Y1912913D1*
X830429Y1909066D1*
X828528Y1905264D1*
Y1897614D1*
X830429Y1893768D1*
X834276Y1889965D1*
X838078Y1888020D1*
X843826Y1886118D1*
X853421D1*
X859125Y1888020D1*
X862972Y1889965D1*
X866774Y1893768D1*
X868720Y1897614D1*
Y1905264D1*
X866774Y1909066D1*
X862972Y1912913D1*
X859125Y1914814D1*
X853421D1*
Y1905264D1*
X828528Y1955609D2*
X868720D1*
X828528Y1928814D1*
X868720D1*
X828528Y1969609D2*
X868720D1*
Y1983006D1*
X866774Y1988754D1*
X862972Y1992601D1*
X859125Y1994502D1*
X853421Y1996403D1*
X843826D1*
X838078Y1994502D1*
X834276Y1992601D1*
X830429Y1988754D1*
X828528Y1983006D1*
Y1969609D1*
X831381Y2195809D2*
X871573Y2211107D1*
X831381Y2226406D1*
X840931Y2269102D2*
X837129Y2267200D1*
X833282Y2263354D1*
X831381Y2259551D1*
Y2251902D1*
X833282Y2248055D1*
X837129Y2244252D1*
X840931Y2242307D1*
X846679Y2240406D1*
X856274D1*
X861978Y2242307D1*
X865825Y2244252D1*
X869627Y2248055D1*
X871573Y2251902D1*
Y2259551D1*
X869627Y2263354D1*
X865825Y2267200D1*
X861978Y2269102D1*
X840931Y2311798D2*
X837129Y2309896D1*
X833282Y2306049D1*
X831381Y2302247D1*
Y2294598D1*
X833282Y2290751D1*
X837129Y2286948D1*
X840931Y2285003D1*
X846679Y2283102D1*
X856274D1*
X861978Y2285003D1*
X865825Y2286948D1*
X869627Y2290751D1*
X871573Y2294598D1*
Y2302247D1*
X869627Y2306049D1*
X865825Y2309896D1*
X861978Y2311798D1*
X934232Y1887085D2*
Y1904285D1*
X932287Y1910033D1*
X930385Y1911979D1*
X926583Y1913880D1*
X922736D1*
X918934Y1911979D1*
X916988Y1910033D1*
X915087Y1904285D1*
Y1887085D1*
X955279D1*
X934232Y1900483D2*
X955279Y1913880D1*
X915087Y1927880D2*
X955279Y1954675D1*
X915087D2*
X955279Y1927880D1*
X915087Y1968675D2*
X955279D1*
Y1982072D1*
X953333Y1987820D1*
X949531Y1991667D1*
X945684Y1993568D1*
X939980Y1995469D1*
X930385D1*
X924637Y1993568D1*
X920835Y1991667D1*
X916988Y1987820D1*
X915087Y1982072D1*
Y1968675D1*
X908795Y2206758D2*
X948987D1*
X908795Y2193361D2*
Y2220156D1*
Y2234156D2*
X948987Y2260950D1*
X908795D2*
X948987Y2234156D1*
X908795Y2274950D2*
X948987D1*
Y2288348D1*
X947042Y2294096D1*
X943239Y2297942D1*
X939393Y2299844D1*
X933689Y2301745D1*
X924094D1*
X918346Y2299844D1*
X914543Y2297942D1*
X910697Y2294096D1*
X908795Y2288348D1*
Y2274950D1*
X1800091Y2539495D2*
X1840283Y2554793D1*
X1800091Y2570092D1*
X1809641Y2612788D2*
X1805839Y2610887D1*
X1801992Y2607040D1*
X1800091Y2603237D1*
Y2595588D1*
X1801992Y2591741D1*
X1805839Y2587939D1*
X1809641Y2585993D1*
X1815389Y2584092D1*
X1824984D1*
X1830688Y2585993D1*
X1834535Y2587939D1*
X1838337Y2591741D1*
X1840283Y2595588D1*
Y2603237D1*
X1838337Y2607040D1*
X1834535Y2610887D1*
X1830688Y2612788D1*
X1809641Y2655484D2*
X1805839Y2653583D1*
X1801992Y2649736D1*
X1800091Y2645933D1*
Y2638284D1*
X1801992Y2634437D1*
X1805839Y2630635D1*
X1809641Y2628689D1*
X1815389Y2626788D1*
X1824984D1*
X1830688Y2628689D1*
X1834535Y2630635D1*
X1838337Y2634437D1*
X1840283Y2638284D1*
Y2645933D1*
X1838337Y2649736D1*
X1834535Y2653583D1*
X1830688Y2655484D1*
X1894290Y2564792D2*
X1890487Y2562891D1*
X1886640Y2559044D1*
X1884739Y2555241D1*
Y2547592D1*
X1886640Y2543745D1*
X1890487Y2539943D1*
X1894290Y2537997D1*
X1900038Y2536096D1*
X1909632D1*
X1915336Y2537997D1*
X1919183Y2539943D1*
X1922986Y2543745D1*
X1924931Y2547592D1*
Y2555241D1*
X1922986Y2559044D1*
X1919183Y2562891D1*
X1915336Y2564792D1*
X1909632D1*
Y2555241D1*
X1884739Y2605586D2*
X1924931D1*
X1884739Y2578792D1*
X1924931D1*
X1884739Y2619586D2*
X1924931D1*
Y2632984D1*
X1922985Y2638732D1*
X1919183Y2642579D1*
X1915336Y2644480D1*
X1909632Y2646381D1*
X1900038D1*
X1894290Y2644480D1*
X1890487Y2642579D1*
X1886640Y2638732D1*
X1884739Y2632984D1*
Y2619586D1*
X1727987Y2562889D2*
X1724140Y2559087D1*
X1722239Y2553339D1*
Y2545689D1*
X1724140Y2539941D1*
X1727987Y2536095D1*
X1731790D1*
X1735636Y2538040D1*
X1737538Y2539941D1*
X1739439Y2543744D1*
X1743286Y2555240D1*
X1745187Y2559087D1*
X1747132Y2560988D1*
X1750935Y2562889D1*
X1756683D1*
X1760486Y2559087D1*
X1762431Y2553339D1*
Y2545689D1*
X1760485Y2539941D1*
X1756683Y2536095D1*
X1731790Y2605585D2*
X1727987Y2603684D1*
X1724140Y2599837D1*
X1722239Y2596035D1*
Y2588385D1*
X1724140Y2584539D1*
X1727987Y2580736D1*
X1731790Y2578791D1*
X1737538Y2576889D1*
X1747132D1*
X1752836Y2578790D1*
X1756683Y2580736D1*
X1760486Y2584538D1*
X1762431Y2588385D1*
Y2596035D1*
X1760485Y2599837D1*
X1756683Y2603684D1*
X1752836Y2605585D1*
X1722239Y2619585D2*
X1762431D1*
X1722239Y2646380D2*
X1749034Y2619585D1*
X1739439Y2629136D2*
X1762431Y2646380D1*
X1924931Y2248637D2*
X1884739D1*
X1924931Y2233338D1*
X1884739Y2218040D1*
X1924931D1*
X1884739Y2274133D2*
X1886640Y2270286D1*
X1890487Y2266483D1*
X1894290Y2264538D1*
X1900038Y2262637D1*
X1909632D1*
X1915336Y2264538D1*
X1919183Y2266483D1*
X1922986Y2270286D1*
X1924931Y2274133D1*
Y2281782D1*
X1922985Y2285585D1*
X1919183Y2289431D1*
X1915336Y2291333D1*
X1909632Y2293234D1*
X1900038D1*
X1894290Y2291333D1*
X1890487Y2289431D1*
X1886640Y2285585D1*
X1884739Y2281782D1*
Y2274133D1*
X1890487Y2334028D2*
X1886640Y2330226D1*
X1884739Y2324478D1*
Y2316829D1*
X1886640Y2311081D1*
X1890487Y2307234D1*
X1894290D1*
X1898136Y2309179D1*
X1900038Y2311081D1*
X1901939Y2314883D1*
X1905786Y2326379D1*
X1907687Y2330226D1*
X1909632Y2332127D1*
X1913435Y2334028D1*
X1919183D1*
X1922985Y2330226D1*
X1924931Y2324478D1*
Y2316829D1*
X1922985Y2311081D1*
X1919183Y2307234D1*
X1884739Y2348028D2*
X1924931D1*
X1843682Y2248637D2*
X1803490D1*
X1843682Y2233338D1*
X1803490Y2218040D1*
X1843682D1*
X1803490Y2262637D2*
X1843682D1*
X1809238Y2303431D2*
X1805391Y2299629D1*
X1803490Y2293881D1*
Y2286231D1*
X1805391Y2280483D1*
X1809238Y2276637D1*
X1813040D1*
X1816887Y2278582D1*
X1818788Y2280483D1*
X1820690Y2284286D1*
X1824536Y2295782D1*
X1826438Y2299629D1*
X1828383Y2301530D1*
X1832186Y2303431D1*
X1837934D1*
X1841736Y2299629D1*
X1843682Y2293881D1*
Y2286231D1*
X1841736Y2280483D1*
X1837934Y2276637D1*
X1803490Y2328927D2*
X1805391Y2325081D1*
X1809238Y2321278D1*
X1813040Y2319333D1*
X1818788Y2317431D1*
X1828383D1*
X1834087Y2319333D1*
X1837934Y2321278D1*
X1841736Y2325081D1*
X1843682Y2328927D1*
Y2336577D1*
X1841736Y2340379D1*
X1837934Y2344226D1*
X1834087Y2346127D1*
X1828383Y2348028D1*
X1818788D1*
X1813040Y2346127D1*
X1809238Y2344226D1*
X1805391Y2340379D1*
X1803490Y2336577D1*
Y2328927D1*
X1727987Y2297687D2*
X1724140Y2293885D1*
X1722239Y2288137D1*
Y2280487D1*
X1724140Y2274739D1*
X1727987Y2270893D1*
X1731790D1*
X1735636Y2272838D1*
X1737538Y2274739D1*
X1739439Y2278542D1*
X1743286Y2290038D1*
X1745187Y2293885D1*
X1747132Y2295786D1*
X1750935Y2297687D1*
X1756683D1*
X1760486Y2293885D1*
X1762431Y2288137D1*
Y2280487D1*
X1760485Y2274739D1*
X1756683Y2270893D1*
X1727987Y2338482D2*
X1724140Y2334679D1*
X1722239Y2328931D1*
Y2321282D1*
X1724140Y2315534D1*
X1727987Y2311687D1*
X1731790D1*
X1735636Y2313633D1*
X1737538Y2315534D1*
X1739439Y2319336D1*
X1743286Y2330832D1*
X1745187Y2334679D1*
X1747132Y2336580D1*
X1750935Y2338482D1*
X1756683D1*
X1760485Y2334679D1*
X1762431Y2328931D1*
Y2321282D1*
X1760486Y2315534D1*
X1756683Y2311687D1*
X522510Y1059755D2*
X526357Y1061701D1*
X532105Y1067405D1*
Y1027257D1*
X546105Y1067449D2*
X561404Y1048303D1*
Y1027257D1*
X576703Y1067449D2*
X561404Y1048303D1*
X524456Y1157864D2*
Y1159766D1*
X526357Y1163612D1*
X528259Y1165514D1*
X532105Y1167415D1*
X539755D1*
X543557Y1165514D1*
X545458Y1163612D1*
X547404Y1159766D1*
Y1155963D1*
X545458Y1152116D1*
X541656Y1146413D1*
X522510Y1127267D1*
X549305D1*
X563305Y1167459D2*
X578604Y1148314D1*
Y1127267D1*
X593902Y1167459D2*
X578604Y1148314D1*
X526357Y1267425D2*
X547360D1*
X535908Y1252127D1*
X541656D1*
X545458Y1250226D1*
X547360Y1248324D1*
X549305Y1242576D1*
Y1238774D1*
X547360Y1233026D1*
X543557Y1229179D1*
X537809Y1227278D1*
X532061D1*
X526357Y1229179D1*
X524456Y1231124D1*
X522510Y1234927D1*
X563305Y1267470D2*
X578604Y1248324D1*
Y1227278D1*
X593902Y1267470D2*
X578604Y1248324D1*
X541656Y1327288D2*
Y1367436D1*
X522510Y1340686D1*
X551206D1*
X565206Y1367480D2*
X580505Y1348335D1*
Y1327288D1*
X595804Y1367480D2*
X580505Y1348335D1*
X1613924Y2424720D2*
X1610077Y2420917D1*
X1608176Y2415169D1*
Y2407520D1*
X1610077Y2401772D1*
X1613924Y2397925D1*
X1617727D1*
X1621573Y2399871D1*
X1623475Y2401772D1*
X1625376Y2405575D1*
X1629223Y2417071D1*
X1631124Y2420917D1*
X1633069Y2422819D1*
X1636872Y2424720D1*
X1642620D1*
X1646423Y2420917D1*
X1648368Y2415169D1*
Y2407520D1*
X1646422Y2401772D1*
X1642620Y2397925D1*
X1629223Y2438720D2*
Y2455964D1*
X1627321Y2461668D1*
X1625376Y2463613D1*
X1621573Y2465515D1*
X1615825D1*
X1612023Y2463613D1*
X1610077Y2461668D1*
X1608176Y2455964D1*
Y2438720D1*
X1648368D1*
X1608176Y2479515D2*
X1648368D1*
X1006327Y2005920D2*
X1035023D1*
X1040771Y2007821D1*
X1044573Y2011668D1*
X1046519Y2017416D1*
Y2021219D1*
X1044573Y2026967D1*
X1040771Y2030813D1*
X1035023Y2032715D1*
X1006327D1*
X1046519Y2077356D2*
X1006327Y2062013D1*
X1046519Y2046715D1*
X1033122Y2052463D2*
Y2071608D1*
X1025472Y2091356D2*
Y2108556D1*
X1023527Y2114304D1*
X1021626Y2116249D1*
X1017823Y2118151D1*
X1013976D1*
X1010174Y2116249D1*
X1008228Y2114304D1*
X1006327Y2108556D1*
Y2091356D1*
X1046519D1*
X1025472Y2104753D2*
X1046519Y2118151D1*
X1006327Y2145548D2*
X1046519D1*
X1006327Y2132151D2*
Y2158945D1*
X1897655Y478444D2*
X1901502Y480390D1*
X1907250Y486093D1*
Y445946D1*
X1951891D2*
X1936548Y486138D1*
X1921250Y445946D1*
X1926998Y459343D2*
X1946143D1*
X582613Y479843D2*
X603616D1*
X592164Y464544D1*
X597912D1*
X601714Y462643D1*
X603616Y460742D1*
X605561Y454994D1*
Y451191D1*
X603616Y445443D1*
X599813Y441596D1*
X594065Y439695D1*
X588317D1*
X582613Y441596D1*
X580712Y443542D1*
X578766Y447344D1*
X619561Y479887D2*
Y439695D1*
X636805D1*
X642553Y441641D1*
X644454Y443542D1*
X646356Y447344D1*
Y453092D1*
X644454Y456939D1*
X642553Y458840D1*
X636805Y460742D1*
X642553Y462687D1*
X644454Y464588D1*
X646356Y468391D1*
Y472238D1*
X644454Y476040D1*
X642553Y477986D1*
X636805Y479887D1*
X619561D1*
Y460742D2*
X636805D1*
X582613Y554851D2*
X603616D1*
X592164Y539552D1*
X597912D1*
X601714Y537651D1*
X603616Y535750D1*
X605561Y530002D1*
Y526199D1*
X603616Y520451D1*
X599813Y516604D1*
X594065Y514703D1*
X588317D1*
X582613Y516604D1*
X580712Y518550D1*
X578766Y522352D1*
X650203Y514703D2*
X634860Y554895D1*
X619561Y514703D1*
X625309Y528100D2*
X644454D1*
X1728887Y634711D2*
X1732734Y636656D1*
X1738482Y642360D1*
Y602212D1*
X1752482Y642404D2*
Y602212D1*
X1769726D1*
X1775474Y604158D1*
X1777375Y606059D1*
X1779277Y609861D1*
Y615609D1*
X1777375Y619456D1*
X1775474Y621357D1*
X1769726Y623259D1*
X1775474Y625204D1*
X1777375Y627105D1*
X1779277Y630908D1*
Y634755D1*
X1777375Y638557D1*
X1775474Y640503D1*
X1769726Y642404D1*
X1752482D1*
Y623259D2*
X1769726D1*
X957499Y545344D2*
X955598Y549147D1*
X951751Y552994D1*
X947949Y554895D1*
X940299D1*
X936452Y552994D1*
X932650Y549147D1*
X930704Y545344D1*
X928803Y539596D1*
Y530002D1*
X930704Y524298D1*
X932650Y520451D1*
X936452Y516648D1*
X940299Y514703D1*
X947949D1*
X951751Y516648D1*
X955598Y520451D1*
X957499Y524298D1*
Y530002D1*
X947949D1*
X998294Y554895D2*
Y514703D1*
X971499Y554895D1*
Y514703D1*
X1012294Y554895D2*
Y514703D1*
X1025691D1*
X1031439Y516648D1*
X1035286Y520451D1*
X1037187Y524298D1*
X1039088Y530002D1*
Y539596D1*
X1037187Y545344D1*
X1035286Y549147D1*
X1031439Y552994D1*
X1025691Y554895D1*
X1012294D1*
X1543313Y470292D2*
Y472194D1*
X1545214Y476040D1*
X1547115Y477942D1*
X1550962Y479843D1*
X1558612D1*
X1562414Y477942D1*
X1564315Y476040D1*
X1566261Y472194D1*
Y468391D1*
X1564315Y464544D1*
X1560513Y458840D1*
X1541367Y439695D1*
X1568162D1*
X1612804D2*
X1597461Y479887D1*
X1582162Y439695D1*
X1587910Y453092D2*
X1607056D1*
X766679Y602212D2*
Y642360D1*
X747534Y615609D1*
X776230D1*
X820871Y602212D2*
X805529Y642404D1*
X790230Y602212D1*
X795978Y615609D2*
X815123D1*
X954199Y439695D2*
Y479843D1*
X935054Y453092D1*
X963750D1*
X977750Y479887D2*
Y439695D1*
X994994D1*
X1000742Y441641D1*
X1002643Y443542D1*
X1004544Y447344D1*
Y453092D1*
X1002643Y456939D1*
X1000742Y458840D1*
X994994Y460742D1*
X1000742Y462687D1*
X1002643Y464588D1*
X1004544Y468391D1*
Y472238D1*
X1002643Y476040D1*
X1000742Y477986D1*
X994994Y479887D1*
X977750D1*
Y460742D2*
X994994D1*
X1543313Y551551D2*
Y553452D1*
X1545214Y557299D1*
X1547115Y559200D1*
X1550962Y561101D1*
X1558612D1*
X1562414Y559200D1*
X1564315Y557299D1*
X1566261Y553452D1*
Y549650D1*
X1564315Y545803D1*
X1560513Y540099D1*
X1541367Y520954D1*
X1568162D1*
X1582162Y561146D2*
Y520954D1*
X1599406D1*
X1605154Y522899D1*
X1607056Y524800D1*
X1608957Y528603D1*
Y534351D1*
X1607056Y538198D1*
X1605154Y540099D1*
X1599406Y542000D1*
X1605154Y543946D1*
X1607056Y545847D1*
X1608957Y549650D1*
Y553496D1*
X1607056Y557299D1*
X1605154Y559244D1*
X1599406Y561146D1*
X1582162D1*
Y542000D2*
X1599406D1*
X1926351Y551595D2*
X1924450Y555398D1*
X1920603Y559244D1*
X1916800Y561146D1*
X1909151D1*
X1905304Y559244D1*
X1901502Y555398D1*
X1899556Y551595D1*
X1897655Y545847D1*
Y536252D1*
X1899556Y530548D1*
X1901502Y526702D1*
X1905304Y522899D1*
X1909151Y520954D1*
X1916800D1*
X1920603Y522899D1*
X1924450Y526702D1*
X1926351Y530548D1*
Y536252D1*
X1916800D1*
X1967145Y561146D2*
Y520954D1*
X1940351Y561146D1*
Y520954D1*
X1981145Y561146D2*
Y520954D1*
X1994543D1*
X2000291Y522899D1*
X2004138Y526702D1*
X2006039Y530548D1*
X2007940Y536252D1*
Y545847D1*
X2006039Y551595D1*
X2004138Y555398D1*
X2000291Y559244D1*
X1994543Y561146D1*
X1981145D1*
M02*
