G04 DipTrace 3.0.0.1*
G04 Maxon_Brushless_Driver_v2.0-version2.GBS*
%MOIN*%
G04 #@! TF.FileFunction,Soldermask,Bot*
G04 #@! TF.Part,Single*
%ADD22C,0.1004*%
%ADD23C,0.11811*%
%ADD24C,0.1181*%
%ADD28R,0.051307X0.04737*%
%ADD30C,0.074929*%
%ADD32R,0.074929X0.074929*%
%ADD34R,0.12611X0.12611*%
%ADD36C,0.12611*%
%ADD38R,0.059181X0.067055*%
%FSLAX26Y26*%
G04*
G70*
G90*
G75*
G01*
G04 BotMask*
%LPD*%
D38*
X1143596Y1900240D3*
X1068793D3*
D22*
X475251Y2262751D3*
X2262751Y2262938D3*
Y475251D3*
X475251D3*
D36*
X943862Y1100316D3*
Y934962D3*
X1160398Y1265671D3*
Y934962D3*
Y1100316D3*
D34*
X943862Y1265671D3*
D23*
X656461D3*
Y934962D3*
D36*
X1793951Y1100316D3*
Y1265671D3*
X1577416Y934962D3*
Y1265671D3*
Y1100316D3*
D34*
X1793951Y934962D3*
D23*
X2081353D3*
Y1265671D3*
D32*
X1518923Y556509D3*
D30*
Y456509D3*
X1418923Y556509D3*
Y456509D3*
X1318923Y556509D3*
Y456509D3*
X1218923Y556509D3*
Y456509D3*
X1118923Y556509D3*
Y456509D3*
X1018923Y556509D3*
Y456509D3*
X918923Y556509D3*
Y456509D3*
X818923Y556509D3*
Y456509D3*
X718923Y556509D3*
Y456509D3*
X618923Y556509D3*
Y456509D3*
D38*
X1068990Y2012740D3*
X1143793D3*
D28*
X1193888Y812786D3*
X1260818D3*
D32*
X712588Y2125425D3*
D30*
Y2225425D3*
X812588Y2125425D3*
Y2225425D3*
X912588Y2125425D3*
Y2225425D3*
X1012588Y2125425D3*
Y2225425D3*
X1112588Y2125425D3*
Y2225425D3*
X1212588Y2125425D3*
Y2225425D3*
X1312588Y2125425D3*
Y2225425D3*
X1412588Y2125425D3*
Y2225425D3*
X1512588Y2125425D3*
Y2225425D3*
D32*
X762588Y725425D3*
D30*
X862588D3*
X962588D3*
X1062588D3*
X1162588D3*
X1262588D3*
X1362588D3*
X1462588D3*
D34*
X1962720Y2044165D3*
D36*
Y1878811D3*
Y1713457D3*
Y1548102D3*
X1746185D3*
Y1713457D3*
Y1878811D3*
Y2044165D3*
D23*
X2250122Y1548102D3*
Y2044165D3*
D34*
X775094Y1769136D3*
D36*
Y1603782D3*
X991630D3*
Y1769136D3*
D24*
X487362Y1686459D3*
M02*
