G04 DipTrace 3.0.0.1*
G04 arm_arduino_shield_lay_V9.GBL*
%MOIN*%
G04 #@! TF.FileFunction,Copper,L2,Bot*
G04 #@! TF.Part,Single*
G04 #@! TA.AperFunction,Conductor*
%ADD14C,0.019685*%
%ADD15C,0.008*%
G04 #@! TA.AperFunction,CopperBalancing*
%ADD16C,0.025*%
G04 #@! TA.AperFunction,ComponentPad*
%ADD17R,0.066929X0.066929*%
%ADD18C,0.066929*%
G04 #@! TA.AperFunction,ViaPad*
%ADD20C,0.04*%
%FSLAX26Y26*%
G04*
G70*
G90*
G75*
G01*
G04 Bottom*
%LPD*%
X750295Y850298D2*
D14*
X975319D1*
X1131585D1*
X1394113Y1012815D2*
Y1125327D1*
X1400364Y1131577D1*
Y1356601D2*
X1406614D1*
Y1694136D1*
Y1925411D1*
Y2019171D2*
Y2531724D1*
Y2744247D1*
Y2975521D2*
X1175340Y3206795D1*
X744045D1*
X569026Y3381814D1*
Y3556832D1*
X606530Y3594336D1*
X1306604D1*
X1343963Y3556976D1*
Y3531520D1*
X1825408Y2819276D2*
D15*
X1750421Y2894262D1*
X1681643D1*
X1487873D1*
X1406614Y2975521D1*
X1362860Y2531724D2*
X1406614D1*
X1387862Y1694136D2*
X1406614D1*
X975319Y881551D2*
Y850298D1*
X2031680Y3531829D2*
X2069184D1*
X2106688Y3494325D1*
Y3388064D1*
X2050432Y3331808D1*
X1762902D1*
X1681643Y3250550D1*
Y2894262D1*
X1043963Y3431520D2*
X1199930Y3275552D1*
X1306604D1*
X1562881Y3019276D1*
Y2731745D2*
Y2000419D1*
Y1831651D2*
Y1750129D1*
X1718999Y1594010D1*
X1975249D1*
X2156500Y1412760D1*
Y662992D1*
X2181717Y637776D1*
X1243963Y3431520D2*
Y3413201D1*
X1637888Y3019276D1*
Y2731745D2*
Y2000419D1*
Y1831651D2*
Y1725390D1*
X1731768Y1631510D1*
X1987749D1*
X2281500Y1337760D1*
Y637992D1*
X2281717Y637776D1*
X1143963Y3431520D2*
Y3419441D1*
X1269100Y3294304D1*
X1325356D1*
X1600385Y3019276D1*
Y2731745D2*
Y2000419D1*
Y1831651D2*
Y1737625D1*
X1725249Y1612760D1*
X1981500D1*
X2231499Y1362761D1*
Y587993D1*
X2281717Y537776D1*
X843963Y3431520D2*
X838104D1*
X1037825Y3231798D1*
X1262849D1*
X1487873Y3006774D1*
Y2737996D2*
Y2000419D1*
Y1831651D2*
Y1775136D1*
X1706499Y1556510D1*
X1962749D1*
X2100249Y1419010D1*
Y619243D1*
X2081717Y637776D1*
X2381717Y1025306D2*
X2419231D1*
X2431722Y1012815D1*
Y769039D1*
X2162749Y2244010D2*
Y1681510D1*
X2081500Y1931510D2*
Y1650259D1*
X2181499Y1550260D1*
X2287749Y2300260D2*
Y1750260D1*
X2237749Y2281510D2*
X2231499D1*
Y1769010D1*
X2256499Y2250260D2*
Y1787759D1*
X2262749Y1794009D1*
X2206499Y2250260D2*
Y1731510D1*
X2131499Y1919010D2*
Y1712760D1*
X2043999Y1819010D2*
Y1612761D1*
X2106500Y1550260D1*
X1631499Y1125260D2*
Y587558D1*
X1581717Y537776D1*
X1825249Y1319004D2*
X1700243D1*
X1575249Y1194010D1*
Y1125260D2*
Y731308D1*
X1481717Y637776D1*
X1925249Y1319004D2*
X1919005D1*
X1868999Y1369010D1*
X1687751D1*
X1525249Y1206509D1*
Y1131510D2*
Y756510D1*
X1431499Y662760D1*
Y587993D1*
X1481717Y537776D1*
X1056500Y1319004D2*
Y1325260D1*
X1144000D1*
X1187749Y1281510D1*
Y1237760D1*
X1181500Y1125260D2*
Y637992D1*
X1181717Y637776D1*
X956500Y1319004D2*
X1006507Y1369010D1*
X1156500D1*
X1237749Y1287760D1*
Y1244009D1*
Y1137760D2*
X1231499D1*
Y587558D1*
X1181717Y537776D1*
X956500Y1419004D2*
X843993D1*
X831500Y1406510D1*
Y1206509D1*
X837749Y1200260D1*
X844000Y781509D2*
X937983D1*
X1081717Y637776D1*
X1056500Y1819010D2*
X1037749D1*
Y1806509D1*
X994000Y1762760D1*
X800249D1*
X834625Y728385D2*
X837749Y731510D1*
X875248D1*
X968983Y637776D1*
X981717D1*
X1056500Y2119010D2*
X1006500Y2069010D1*
X850251D1*
X775249Y1994009D1*
X956500Y2119010D2*
X862749D1*
X737749Y1994010D1*
X956500Y2219010D2*
X881500D1*
X712749Y2050260D1*
X1056567Y2619276D2*
Y2437954D1*
X687749Y2069136D1*
Y2056714D1*
X681538Y2062925D1*
X2381717Y925306D2*
Y794042D1*
X2356714Y769039D1*
X1056567Y2919276D2*
X1044265D1*
X994000Y2869010D1*
X869000D1*
X656499Y2656509D1*
X956567Y2919276D2*
X863014D1*
X631499Y2687760D1*
X956567Y3019276D2*
X950051Y3012760D1*
X918999D1*
X662749Y2756510D1*
X943963Y3431520D2*
X938114D1*
X1112833Y3256801D1*
X1287852D1*
X1525377Y3019276D1*
Y2731745D2*
Y2000419D1*
Y1831509D2*
Y1762633D1*
X1712749Y1575260D1*
X1969000D1*
X2131499Y1412761D1*
Y587993D1*
X2181717Y537776D1*
X781717Y637776D2*
X756484D1*
X656499Y737761D1*
Y1069009D1*
Y1169009D1*
Y1869009D1*
Y1969010D1*
Y2525260D1*
X800251Y2669010D1*
X893999D1*
Y2750259D1*
X912751Y2769010D1*
X1081500D1*
X1187749Y2875260D1*
X1693999D1*
X1800248Y2769010D1*
X1875673D1*
X1925408Y2719276D1*
X1056567D2*
Y2719077D1*
X1006500Y2669010D1*
X893999D1*
X1056500Y1919010D2*
X1006499Y1869009D1*
X656499D1*
X1925249Y1919010D2*
X1875249Y1969010D1*
X656499D1*
X1056500Y1119004D2*
X1056495D1*
X1006500Y1069009D1*
X656499D1*
X1925249Y1119004D2*
Y1125259D1*
X1881499Y1169009D1*
X656499D1*
D20*
X750295Y850298D3*
X1131585D3*
X1394113Y1012815D3*
X1400364Y1131577D3*
Y1356601D3*
X1406614Y1925411D3*
Y2019171D3*
Y2744247D3*
Y2975521D3*
D3*
D16*
X1362860Y2531724D3*
X1387862Y1694136D3*
X975319Y881551D3*
X1562881Y3019276D3*
Y2731745D3*
Y2000419D3*
Y1831651D3*
X1637888Y3019276D3*
Y2731745D3*
Y2000419D3*
Y1831651D3*
X1600385Y3019276D3*
Y2731745D3*
Y2000419D3*
Y1831651D3*
X1487873Y3006774D3*
Y2737996D3*
Y2000419D3*
Y1831651D3*
X2162749Y2244010D3*
Y1681510D3*
X2081500Y1931510D3*
X2181499Y1550260D3*
X2287749Y2300260D3*
Y1750260D3*
X2237749Y2281510D3*
X2231499Y1769010D3*
X2256499Y2250260D3*
X2262749Y1794009D3*
X2206499Y2250260D3*
Y1731510D3*
X2131499Y1919010D3*
Y1712760D3*
X2043999Y1819010D3*
X2106500Y1550260D3*
X1631499Y1125260D3*
X1575249Y1194010D3*
Y1125260D3*
X1525249Y1206509D3*
Y1131510D3*
X1187749Y1237760D3*
X1181500Y1125260D3*
X1237749Y1244009D3*
Y1137760D3*
X837749Y1200260D3*
X844000Y781509D3*
X800249Y1762760D3*
X834625Y728385D3*
X775249Y1994009D3*
X737749Y1994010D3*
X712749Y2050260D3*
X681538Y2062925D3*
X656499Y2656509D3*
X631499Y2687760D3*
X662749Y2756510D3*
X1525377Y3019276D3*
Y2731745D3*
Y2000419D3*
Y1831509D3*
X440323Y3625391D2*
X585176D1*
X1327969D2*
X2447724D1*
X440371Y3600522D2*
X558808D1*
X1354287D2*
X2332003D1*
X2418936D2*
X2447724D1*
X440420Y3575654D2*
X535469D1*
X1387051D2*
X1400899D1*
X1606436D2*
X1888252D1*
X2094131D2*
X2316084D1*
X2434854D2*
X2447714D1*
X440469Y3550785D2*
X530196D1*
X1606436D2*
X1872286D1*
X2095840D2*
X2313301D1*
X440518Y3525916D2*
X530196D1*
X1606436D2*
X1869503D1*
X2120743D2*
X2321552D1*
X2429385D2*
X2447703D1*
X440567Y3501047D2*
X530196D1*
X1606436D2*
X1877706D1*
X2138907D2*
X2332588D1*
X2418350D2*
X2447724D1*
X440615Y3476178D2*
X530196D1*
X1286465D2*
X1318379D1*
X1369522D2*
X1401436D1*
X1606436D2*
X1888839D1*
X2139688D2*
X2316231D1*
X2434707D2*
X2447714D1*
X440664Y3451310D2*
X530196D1*
X1303067D2*
X1384883D1*
X1603067D2*
X1872480D1*
X2139688D2*
X2313252D1*
X440713Y3426441D2*
X530196D1*
X1306192D2*
X1381709D1*
X1606192D2*
X1869454D1*
X2139688D2*
X2321211D1*
X2429727D2*
X2447705D1*
X440762Y3401572D2*
X530196D1*
X1301211D2*
X1389522D1*
X1598428D2*
X1877412D1*
X2139688D2*
X2333175D1*
X2417764D2*
X2447724D1*
X440811Y3376703D2*
X530538D1*
X1326064D2*
X1417159D1*
X1470743D2*
X1517159D1*
X1570743D2*
X1905587D1*
X1957755D2*
X2005587D1*
X2137491D2*
X2316427D1*
X2434512D2*
X2447714D1*
X440860Y3351835D2*
X545136D1*
X1350967D2*
X1737324D1*
X2116104D2*
X2313203D1*
X440908Y3326966D2*
X569991D1*
X1375820D2*
X1712423D1*
X2091202D2*
X2320919D1*
X2430020D2*
X2447705D1*
X440958Y3302097D2*
X594844D1*
X1400675D2*
X1687568D1*
X2059804D2*
X2333760D1*
X2417178D2*
X2447724D1*
X441007Y3277228D2*
X619747D1*
X1425576D2*
X1662715D1*
X1753946D2*
X2316622D1*
X2434316D2*
X2447714D1*
X441055Y3252360D2*
X644600D1*
X1450430D2*
X1648702D1*
X1729092D2*
X2313155D1*
X562735Y3227491D2*
X669454D1*
X1475283D2*
X1648652D1*
X1714639D2*
X2320625D1*
X2430312D2*
X2447706D1*
X562735Y3202622D2*
X694356D1*
X1500186D2*
X1648652D1*
X1714639D2*
X2334395D1*
X2416543D2*
X2447724D1*
X562735Y3177753D2*
X719698D1*
X1525039D2*
X1648652D1*
X1714639D2*
X2316816D1*
X2434122D2*
X2447713D1*
X562735Y3152885D2*
X1175362D1*
X1549892D2*
X1648652D1*
X1714639D2*
X2313155D1*
X562735Y3128016D2*
X1200215D1*
X1574795D2*
X1648652D1*
X1714639D2*
X2320332D1*
X2430606D2*
X2447706D1*
X558780Y3103147D2*
X1225118D1*
X1599648D2*
X1648652D1*
X1714639D2*
X2335030D1*
X2415908D2*
X2447724D1*
X562636Y3078278D2*
X894112D1*
X1019034D2*
X1043428D1*
X1069717D2*
X1249971D1*
X1624503D2*
X1648652D1*
X1714639D2*
X1762959D1*
X1887881D2*
X1912276D1*
X1938589D2*
X2317012D1*
X2433927D2*
X2447713D1*
X555606Y3053409D2*
X894112D1*
X1108340D2*
X1274824D1*
X1714639D2*
X1762959D1*
X1977188D2*
X2313106D1*
X441495Y3028541D2*
X460203D1*
X540323D2*
X889180D1*
X1118301D2*
X1299727D1*
X1714639D2*
X1762959D1*
X1987148D2*
X2320039D1*
X2430899D2*
X2447706D1*
X558584Y3003672D2*
X864278D1*
X1116934D2*
X1324580D1*
X1714639D2*
X1762959D1*
X1985782D2*
X2335664D1*
X2415274D2*
X2447724D1*
X562636Y2978803D2*
X839424D1*
X1103311D2*
X1349434D1*
X1714639D2*
X1762959D1*
X1972159D2*
X2317207D1*
X2433731D2*
X2447713D1*
X555850Y2953934D2*
X814571D1*
X1107999D2*
X1362959D1*
X1714639D2*
X1773995D1*
X1976846D2*
X2313056D1*
X441690Y2929066D2*
X460908D1*
X539639D2*
X789668D1*
X1118203D2*
X1402266D1*
X1714639D2*
X1763740D1*
X1987051D2*
X2319795D1*
X2431143D2*
X2447707D1*
X558388Y2904197D2*
X764815D1*
X1117080D2*
X1175655D1*
X1985928D2*
X2336348D1*
X2414591D2*
X2447724D1*
X562686Y2879328D2*
X739961D1*
X1103799D2*
X1146211D1*
X1972598D2*
X2317451D1*
X2433487D2*
X2447711D1*
X556143Y2854459D2*
X715059D1*
X1025088D2*
X1121308D1*
X1876455D2*
X2313056D1*
X441885Y2829591D2*
X461592D1*
X538955D2*
X690206D1*
X875186D2*
X894991D1*
X1018106D2*
X1096455D1*
X1187686D2*
X1694063D1*
X1886954D2*
X2319503D1*
X2431436D2*
X2447707D1*
X558144Y2804722D2*
X665352D1*
X850332D2*
X895919D1*
X1017227D2*
X1071602D1*
X1162832D2*
X1718916D1*
X1886075D2*
X2337031D1*
X2413907D2*
X2447724D1*
X562686Y2779853D2*
X629024D1*
X825479D2*
X877950D1*
X1137979D2*
X1374239D1*
X1439004D2*
X1743770D1*
X1910440D2*
X2317647D1*
X2433291D2*
X2447711D1*
X556387Y2754984D2*
X621308D1*
X800576D2*
X861396D1*
X1113076D2*
X1358858D1*
X1671719D2*
X1768672D1*
X1976064D2*
X2313056D1*
X442080Y2730115D2*
X467354D1*
X533194D2*
X628243D1*
X775723D2*
X861007D1*
X1118056D2*
X1359835D1*
X1679336D2*
X1763936D1*
X1986856D2*
X2319259D1*
X2431680D2*
X2447709D1*
X442129Y2705247D2*
X594160D1*
X750870D2*
X861007D1*
X1117374D2*
X1367793D1*
X1670888D2*
X1764619D1*
X1986220D2*
X2313008D1*
X442178Y2680378D2*
X590694D1*
X725967D2*
X765987D1*
X1104678D2*
X1367793D1*
X1670888D2*
X1777266D1*
X1973526D2*
X2313008D1*
X442227Y2655509D2*
X607100D1*
X701114D2*
X741133D1*
X1106827D2*
X1367793D1*
X1670888D2*
X1775118D1*
X1975675D2*
X2313008D1*
X442276Y2630640D2*
X624824D1*
X688175D2*
X716280D1*
X1117959D2*
X1367793D1*
X1670888D2*
X1764034D1*
X1986759D2*
X2313008D1*
X442324Y2605772D2*
X691377D1*
X1117471D2*
X1367793D1*
X1670888D2*
X1764472D1*
X1986319D2*
X2313008D1*
X442374Y2580903D2*
X666524D1*
X1105118D2*
X1367793D1*
X1670888D2*
X1776827D1*
X1973965D2*
X2447724D1*
X442423Y2556034D2*
X641671D1*
X1089541D2*
X1329854D1*
X1670888D2*
X2338984D1*
X2411954D2*
X2447724D1*
X442471Y2531165D2*
X463740D1*
X536807D2*
X624092D1*
X1089541D2*
X1321358D1*
X1670888D2*
X2318232D1*
X2432656D2*
X2447710D1*
X557510Y2506297D2*
X623507D1*
X1089541D2*
X1330782D1*
X1670888D2*
X2313008D1*
X562735Y2481428D2*
X623507D1*
X1089541D2*
X1367793D1*
X1670888D2*
X2318575D1*
X2432364D2*
X2447710D1*
X557168Y2456559D2*
X623507D1*
X1089541D2*
X1367793D1*
X1670888D2*
X2339766D1*
X2411172D2*
X2447724D1*
X442667Y2431690D2*
X464815D1*
X535684D2*
X623507D1*
X1088907D2*
X1367793D1*
X1670888D2*
X2318476D1*
X2432461D2*
X2447710D1*
X442715Y2406822D2*
X623507D1*
X1071035D2*
X1367793D1*
X1670888D2*
X2313008D1*
X442764Y2381953D2*
X623507D1*
X1046182D2*
X1367793D1*
X1670888D2*
X2318331D1*
X2432608D2*
X2447710D1*
X562735Y2357084D2*
X623507D1*
X1021328D2*
X1367793D1*
X1670888D2*
X2339228D1*
X2411709D2*
X2447724D1*
X562735Y2332215D2*
X623507D1*
X996427D2*
X1367793D1*
X1670888D2*
X2262911D1*
X2432217D2*
X2447709D1*
X562735Y2307346D2*
X623507D1*
X971572D2*
X1367793D1*
X1670888D2*
X2206026D1*
X562735Y2282478D2*
X623507D1*
X946719D2*
X1367793D1*
X1670888D2*
X2153877D1*
X2432852D2*
X2447710D1*
X562735Y2257609D2*
X623507D1*
X1104874D2*
X1367793D1*
X1670888D2*
X1762812D1*
X1973623D2*
X2123702D1*
X2412442D2*
X2447724D1*
X553311Y2232740D2*
X623507D1*
X1117374D2*
X1367793D1*
X1670888D2*
X1762812D1*
X1986123D2*
X2122920D1*
X2431924D2*
X2447709D1*
X562247Y2207871D2*
X623507D1*
X1117911D2*
X1367793D1*
X1670888D2*
X1762812D1*
X1986660D2*
X2129756D1*
X560147Y2183003D2*
X623507D1*
X1106924D2*
X1367793D1*
X1670888D2*
X1762812D1*
X1975675D2*
X2129756D1*
X2433047D2*
X2447711D1*
X545255Y2158134D2*
X623507D1*
X1104434D2*
X1367793D1*
X1670888D2*
X1777315D1*
X1973184D2*
X2129756D1*
X2413175D2*
X2447724D1*
X552969Y2133265D2*
X623507D1*
X1117227D2*
X1367793D1*
X1670888D2*
X1764522D1*
X1985976D2*
X2129756D1*
X2431680D2*
X2447709D1*
X562198Y2108396D2*
X623507D1*
X1118008D2*
X1367793D1*
X1670888D2*
X1763740D1*
X1986759D2*
X2129756D1*
X560293Y2083528D2*
X623507D1*
X1107315D2*
X1367793D1*
X1670888D2*
X1774434D1*
X1976064D2*
X2129756D1*
X2433291D2*
X2447711D1*
X545743Y2058659D2*
X623507D1*
X1041787D2*
X1367793D1*
X1670888D2*
X1777755D1*
X1872744D2*
X2129756D1*
X2413907D2*
X2447724D1*
X552627Y2033790D2*
X623507D1*
X1017129D2*
X1359980D1*
X1670888D2*
X1764619D1*
X1885879D2*
X2129756D1*
X2431436D2*
X2447707D1*
X562148Y2008921D2*
X623507D1*
X1018106D2*
X1358760D1*
X1678458D2*
X1763643D1*
X1886856D2*
X2129756D1*
X560440Y1984052D2*
X623507D1*
X1905850D2*
X2129756D1*
X2433487D2*
X2447711D1*
X546280Y1959184D2*
X623507D1*
X1972256D2*
X2051534D1*
X2111465D2*
X2129756D1*
X2414591D2*
X2447724D1*
X552236Y1934315D2*
X623507D1*
X1116983D2*
X1358467D1*
X1454727D2*
X1764766D1*
X1985732D2*
X2040108D1*
X2431143D2*
X2447707D1*
X562051Y1909446D2*
X623507D1*
X1118203D2*
X1360469D1*
X1452774D2*
X1763545D1*
X1986954D2*
X2046846D1*
X560587Y1884577D2*
X623507D1*
X1108096D2*
X1367793D1*
X1445450D2*
X1773652D1*
X1976846D2*
X2048507D1*
X2433731D2*
X2447713D1*
X546768Y1859709D2*
X623507D1*
X1103018D2*
X1367793D1*
X1445450D2*
X1458277D1*
X1667471D2*
X1778731D1*
X1971768D2*
X2048507D1*
X551895Y1834840D2*
X623507D1*
X689492D2*
X896163D1*
X1116836D2*
X1367793D1*
X1679239D2*
X1764912D1*
X1985587D2*
X2005879D1*
X561954Y1809971D2*
X623507D1*
X689492D2*
X894747D1*
X1118252D2*
X1367793D1*
X1672793D2*
X1763496D1*
X1987003D2*
X2003584D1*
X560732Y1785102D2*
X623507D1*
X689492D2*
X765791D1*
X1108438D2*
X1367793D1*
X1670888D2*
X1773311D1*
X1977188D2*
X2011007D1*
X547256Y1760234D2*
X623507D1*
X689492D2*
X758858D1*
X1070840D2*
X1367793D1*
X1445450D2*
X1458741D1*
X1670888D2*
X1810908D1*
X1839631D2*
X1910908D1*
X1939631D2*
X2011007D1*
X551504Y1735365D2*
X623507D1*
X689492D2*
X769991D1*
X1009903D2*
X1367793D1*
X1445450D2*
X1482003D1*
X1673526D2*
X2011007D1*
X2326260D2*
X2447724D1*
X561904Y1710496D2*
X623507D1*
X689492D2*
X1349971D1*
X1445450D2*
X1506904D1*
X1698428D2*
X2011007D1*
X2241836D2*
X2447724D1*
X560879Y1685627D2*
X623507D1*
X689492D2*
X1347286D1*
X1445450D2*
X1531759D1*
X1723282D2*
X2011007D1*
X2204043D2*
X2447724D1*
X547696Y1660759D2*
X623507D1*
X689492D2*
X1365206D1*
X1445450D2*
X1556612D1*
X2198282D2*
X2330879D1*
X2432559D2*
X2447710D1*
X551114Y1635890D2*
X623507D1*
X689492D2*
X1367793D1*
X1445450D2*
X1581514D1*
X2141495D2*
X2320186D1*
X561807Y1611021D2*
X623507D1*
X689492D2*
X1367793D1*
X1445450D2*
X1606367D1*
X2166348D2*
X2320967D1*
X560976Y1586152D2*
X623507D1*
X689492D2*
X1367793D1*
X1445450D2*
X1631220D1*
X2199259D2*
X2333808D1*
X2429629D2*
X2447705D1*
X548184Y1561283D2*
X623507D1*
X689492D2*
X1367793D1*
X1445450D2*
X1656123D1*
X2221377D2*
X2331270D1*
X2432168D2*
X2447709D1*
X444424Y1536415D2*
X623507D1*
X689492D2*
X1367793D1*
X1445450D2*
X1680976D1*
X2220450D2*
X2320283D1*
X444472Y1511546D2*
X623507D1*
X689492D2*
X1367793D1*
X1445450D2*
X1962080D1*
X2153360D2*
X2320870D1*
X444522Y1486677D2*
X623507D1*
X689492D2*
X1367793D1*
X1445450D2*
X1986983D1*
X2178213D2*
X2333370D1*
X2430068D2*
X2447705D1*
X562735Y1461808D2*
X623507D1*
X689492D2*
X894063D1*
X1100967D2*
X1367793D1*
X1445450D2*
X1762812D1*
X1969717D2*
X2011836D1*
X2203067D2*
X2331660D1*
X2431778D2*
X2447709D1*
X562735Y1436940D2*
X623507D1*
X689492D2*
X816328D1*
X1116202D2*
X1367793D1*
X1445450D2*
X1762812D1*
X1984951D2*
X2036690D1*
X2227920D2*
X2320381D1*
X562735Y1412071D2*
X623507D1*
X689492D2*
X799043D1*
X1118545D2*
X1367793D1*
X1445450D2*
X1762812D1*
X1987295D2*
X2061543D1*
X2252823D2*
X2320723D1*
X562735Y1387202D2*
X623507D1*
X689492D2*
X798507D1*
X1183927D2*
X1362862D1*
X1445450D2*
X1660323D1*
X1978555D2*
X2067256D1*
X2277676D2*
X2332930D1*
X2430508D2*
X2447706D1*
X562735Y1362333D2*
X623507D1*
X689492D2*
X798507D1*
X1208780D2*
X1351728D1*
X1449014D2*
X1635469D1*
X1969180D2*
X2067256D1*
X2302530D2*
X2332051D1*
X2431387D2*
X2447707D1*
X559854Y1337465D2*
X623507D1*
X689492D2*
X798507D1*
X1233682D2*
X1355488D1*
X1445255D2*
X1610567D1*
X1984804D2*
X2067256D1*
X562392Y1312596D2*
X623507D1*
X689492D2*
X798507D1*
X1258535D2*
X1382881D1*
X1417862D2*
X1585713D1*
X1987344D2*
X2067256D1*
X553848Y1287727D2*
X623507D1*
X689492D2*
X798507D1*
X1110147D2*
X1135908D1*
X1270743D2*
X1560860D1*
X1978896D2*
X2067256D1*
X2314492D2*
X2332491D1*
X2430948D2*
X2447707D1*
X543790Y1262858D2*
X623507D1*
X689492D2*
X798507D1*
X999892D2*
X1032979D1*
X1080020D2*
X1154756D1*
X1274404D2*
X1535958D1*
X1868643D2*
X1901728D1*
X1948770D2*
X2067256D1*
X2314492D2*
X2332491D1*
X2430948D2*
X2447707D1*
X559659Y1237990D2*
X623507D1*
X689492D2*
X798507D1*
X1015860D2*
X1146260D1*
X1278751D2*
X1499727D1*
X1884610D2*
X2067256D1*
X562442Y1213121D2*
X623507D1*
X689492D2*
X798458D1*
X1018692D2*
X1155049D1*
X1264052D2*
X1484346D1*
X1887392D2*
X2067256D1*
X554190Y1188252D2*
X623507D1*
X1907900D2*
X2067256D1*
X2314492D2*
X2332100D1*
X2431339D2*
X2447707D1*
X543203Y1163383D2*
X623507D1*
X1968056D2*
X2067256D1*
X2314492D2*
X2332881D1*
X2430508D2*
X2447706D1*
X559512Y1138514D2*
X623507D1*
X1670644D2*
X1766035D1*
X1984463D2*
X2067256D1*
X562491Y1113646D2*
X623507D1*
X1671231D2*
X1763056D1*
X1987442D2*
X2067256D1*
X554483Y1088777D2*
X623507D1*
X1664492D2*
X1770967D1*
X1979531D2*
X2067256D1*
X2314492D2*
X2331660D1*
X2431778D2*
X2447709D1*
X542618Y1063908D2*
X623507D1*
X1664492D2*
X1783028D1*
X1967471D2*
X2067256D1*
X2314492D2*
X2333320D1*
X2430118D2*
X2447705D1*
X559316Y1039039D2*
X623507D1*
X1664492D2*
X1766231D1*
X1984268D2*
X2067256D1*
X562539Y1014171D2*
X623507D1*
X1664492D2*
X1763008D1*
X1987491D2*
X2067256D1*
X554776Y989302D2*
X623507D1*
X1664492D2*
X1770675D1*
X1979824D2*
X2067256D1*
X2314492D2*
X2331270D1*
X542031Y964433D2*
X623507D1*
X1664492D2*
X1797920D1*
X1852579D2*
X1897920D1*
X1952579D2*
X2067256D1*
X559122Y939564D2*
X623507D1*
X1664492D2*
X2067256D1*
X562539Y914696D2*
X623507D1*
X1664492D2*
X2067256D1*
X555068Y889827D2*
X623507D1*
X1664492D2*
X2067256D1*
X541396Y864958D2*
X623507D1*
X1664492D2*
X2067256D1*
X2314492D2*
X2348702D1*
X558927Y840089D2*
X623507D1*
X1664492D2*
X2067256D1*
X2314492D2*
X2348702D1*
X562588Y815220D2*
X623507D1*
X1664492D2*
X2067256D1*
X555362Y790352D2*
X623507D1*
X1664492D2*
X2067256D1*
X540762Y765483D2*
X623507D1*
X1664492D2*
X2067256D1*
X558731Y740614D2*
X623507D1*
X1664492D2*
X2067256D1*
X562636Y715745D2*
X632881D1*
X1664492D2*
X2067256D1*
X555655Y690877D2*
X657783D1*
X1712051D2*
X1751387D1*
X1812051D2*
X1851387D1*
X1912051D2*
X1951387D1*
X2012051D2*
X2051387D1*
X446133Y666008D2*
X469942D1*
X530606D2*
X682636D1*
X446182Y641139D2*
X707491D1*
X446231Y616270D2*
X723262D1*
X446280Y591402D2*
X741231D1*
X446328Y566533D2*
X726583D1*
X446377Y541664D2*
X719404D1*
X446427Y516795D2*
X723067D1*
X452815Y2360407D2*
X560228D1*
Y2240493D1*
X544848D1*
X548778Y2235692D1*
X553693Y2227669D1*
X557294Y2218978D1*
X559491Y2209829D1*
X560228Y2200450D1*
X559491Y2191071D1*
X557294Y2181923D1*
X553693Y2173231D1*
X548778Y2165209D1*
X542668Y2158054D1*
X535513Y2151944D1*
X533327Y2150483D1*
X539210Y2146042D1*
X545864Y2139388D1*
X551394Y2131777D1*
X555664Y2123395D1*
X558572Y2114446D1*
X560043Y2105155D1*
Y2095745D1*
X558572Y2086454D1*
X555664Y2077505D1*
X551394Y2069123D1*
X545864Y2061512D1*
X539210Y2054858D1*
X533327Y2050483D1*
X539210Y2046042D1*
X545864Y2039388D1*
X551394Y2031777D1*
X555664Y2023395D1*
X558572Y2014446D1*
X560043Y2005155D1*
Y1995745D1*
X558572Y1986454D1*
X555664Y1977505D1*
X551394Y1969123D1*
X545864Y1961512D1*
X539210Y1954858D1*
X533327Y1950483D1*
X539210Y1946042D1*
X545864Y1939388D1*
X551394Y1931777D1*
X555664Y1923395D1*
X558572Y1914446D1*
X560043Y1905155D1*
Y1895745D1*
X558572Y1886454D1*
X555664Y1877505D1*
X551394Y1869123D1*
X545864Y1861512D1*
X539210Y1854858D1*
X533327Y1850483D1*
X539210Y1846042D1*
X545864Y1839388D1*
X551394Y1831777D1*
X555664Y1823395D1*
X558572Y1814446D1*
X560043Y1805155D1*
Y1795745D1*
X558572Y1786454D1*
X555664Y1777505D1*
X551394Y1769123D1*
X545864Y1761512D1*
X539210Y1754858D1*
X533327Y1750483D1*
X539210Y1746042D1*
X545864Y1739388D1*
X551394Y1731777D1*
X555664Y1723395D1*
X558572Y1714446D1*
X560043Y1705155D1*
Y1695745D1*
X558572Y1686454D1*
X555664Y1677505D1*
X551394Y1669123D1*
X545864Y1661512D1*
X539210Y1654858D1*
X533327Y1650483D1*
X539210Y1646042D1*
X545864Y1639388D1*
X551394Y1631777D1*
X555664Y1623395D1*
X558572Y1614446D1*
X560043Y1605155D1*
Y1595745D1*
X558572Y1586454D1*
X555664Y1577505D1*
X551394Y1569123D1*
X545864Y1561512D1*
X539210Y1554858D1*
X531598Y1549328D1*
X523217Y1545058D1*
X514268Y1542150D1*
X504976Y1540678D1*
X495567D1*
X486276Y1542150D1*
X477327Y1545058D1*
X468945Y1549328D1*
X461333Y1554858D1*
X454680Y1561512D1*
X449150Y1569123D1*
X444879Y1577505D1*
X441824Y1587193D1*
X442041Y1479049D1*
X560226Y1479064D1*
Y1359151D1*
X544845D1*
X548776Y1354349D1*
X553690Y1346327D1*
X557291Y1337635D1*
X559488Y1328487D1*
X560226Y1319108D1*
X559488Y1309728D1*
X557291Y1300580D1*
X553690Y1291888D1*
X548776Y1283866D1*
X542665Y1276711D1*
X535510Y1270601D1*
X533324Y1269140D1*
X539207Y1264699D1*
X545861Y1258046D1*
X551391Y1250434D1*
X555661Y1242052D1*
X558570Y1233104D1*
X560041Y1223812D1*
Y1214403D1*
X558570Y1205112D1*
X555661Y1196163D1*
X551391Y1187781D1*
X545861Y1180169D1*
X539207Y1173516D1*
X533324Y1169140D1*
X539207Y1164699D1*
X545861Y1158046D1*
X551391Y1150434D1*
X555661Y1142052D1*
X558570Y1133104D1*
X560041Y1123812D1*
Y1114403D1*
X558570Y1105112D1*
X555661Y1096163D1*
X551391Y1087781D1*
X545861Y1080169D1*
X539207Y1073516D1*
X533324Y1069140D1*
X539207Y1064699D1*
X545861Y1058046D1*
X551391Y1050434D1*
X555661Y1042052D1*
X558570Y1033104D1*
X560041Y1023812D1*
Y1014403D1*
X558570Y1005112D1*
X555661Y996163D1*
X551391Y987781D1*
X545861Y980169D1*
X539207Y973516D1*
X533324Y969140D1*
X539207Y964699D1*
X545861Y958046D1*
X551391Y950434D1*
X555661Y942052D1*
X558570Y933104D1*
X560041Y923812D1*
Y914403D1*
X558570Y905112D1*
X555661Y896163D1*
X551391Y887781D1*
X545861Y880169D1*
X539207Y873516D1*
X533324Y869140D1*
X539207Y864699D1*
X545861Y858046D1*
X551391Y850434D1*
X555661Y842052D1*
X558570Y833104D1*
X560041Y823812D1*
Y814403D1*
X558570Y805112D1*
X555661Y796163D1*
X551391Y787781D1*
X545861Y780169D1*
X539207Y773516D1*
X533324Y769140D1*
X539207Y764699D1*
X545861Y758046D1*
X551391Y750434D1*
X555661Y742052D1*
X558570Y733104D1*
X560041Y723812D1*
Y714403D1*
X558570Y705112D1*
X555661Y696163D1*
X551391Y687781D1*
X545861Y680169D1*
X539207Y673516D1*
X531596Y667986D1*
X523214Y663715D1*
X514265Y660807D1*
X504974Y659336D1*
X495564D1*
X486273Y660807D1*
X477324Y663715D1*
X468942Y667986D1*
X461331Y673516D1*
X454677Y680169D1*
X449147Y687781D1*
X444877Y696163D1*
X443571Y699699D1*
X444000Y494009D1*
X740728D1*
X736125Y498837D1*
X730594Y506449D1*
X726324Y514831D1*
X723416Y523780D1*
X721945Y533071D1*
Y542480D1*
X723416Y551772D1*
X726324Y560720D1*
X730594Y569102D1*
X736125Y576714D1*
X742778Y583367D1*
X748661Y587743D1*
X742778Y592184D1*
X736125Y598837D1*
X730594Y606449D1*
X726324Y614831D1*
X723416Y623780D1*
X722466Y628671D1*
X633312Y717958D1*
X629329Y723919D1*
X626849Y730643D1*
X626007Y737761D1*
X626101Y2527652D1*
X627499Y2534682D1*
X630500Y2541192D1*
X634937Y2546822D1*
X780448Y2692197D1*
X786408Y2696180D1*
X793133Y2698660D1*
X800251Y2699503D1*
X863483D1*
X863601Y2752651D1*
X864999Y2759681D1*
X868000Y2766190D1*
X872437Y2771820D1*
X892948Y2792197D1*
X898916Y2796184D1*
X899545Y2800748D1*
X897348Y2809896D1*
X896610Y2819276D1*
X897348Y2828655D1*
X899806Y2838510D1*
X881647Y2838518D1*
X695244Y2652131D1*
X693583Y2644459D1*
X691241Y2638807D1*
X688045Y2633591D1*
X684071Y2628937D1*
X679417Y2624963D1*
X674201Y2621766D1*
X668549Y2619425D1*
X662598Y2617997D1*
X656499Y2617517D1*
X650399Y2617997D1*
X644449Y2619425D1*
X638797Y2621766D1*
X633580Y2624963D1*
X628927Y2628937D1*
X624953Y2633591D1*
X621756Y2638807D1*
X619415Y2644459D1*
X617890Y2651228D1*
X611126Y2654513D1*
X606176Y2658110D1*
X601849Y2662437D1*
X598252Y2667387D1*
X595475Y2672839D1*
X593584Y2678657D1*
X592627Y2684701D1*
Y2690819D1*
X593584Y2696862D1*
X595475Y2702681D1*
X598252Y2708133D1*
X601849Y2713083D1*
X606176Y2717409D1*
X611126Y2721007D1*
X616577Y2723783D1*
X622396Y2725675D1*
X627097Y2726472D1*
X632483Y2731867D1*
X628007Y2738808D1*
X625665Y2744461D1*
X624238Y2750411D1*
X623757Y2756510D1*
X624238Y2762610D1*
X625665Y2768560D1*
X628007Y2774213D1*
X631203Y2779429D1*
X635177Y2784083D1*
X639831Y2788056D1*
X645047Y2791253D1*
X650699Y2793594D1*
X658348Y2795223D1*
X896581Y3033466D1*
X896610Y3079232D1*
X1016524D1*
Y3063852D1*
X1021325Y3067782D1*
X1029348Y3072697D1*
X1038039Y3076298D1*
X1047188Y3078495D1*
X1056567Y3079232D1*
X1065946Y3078495D1*
X1075094Y3076298D1*
X1083786Y3072697D1*
X1091808Y3067782D1*
X1098963Y3061672D1*
X1105073Y3054517D1*
X1109988Y3046495D1*
X1113589Y3037803D1*
X1115786Y3028655D1*
X1116524Y3019276D1*
X1115786Y3009896D1*
X1113589Y3000748D1*
X1109988Y2992056D1*
X1105073Y2984034D1*
X1098963Y2976879D1*
X1091808Y2970769D1*
X1089622Y2969308D1*
X1095505Y2964867D1*
X1102159Y2958214D1*
X1107689Y2950602D1*
X1111959Y2942220D1*
X1114867Y2933272D1*
X1116339Y2923980D1*
Y2914571D1*
X1114867Y2905280D1*
X1111959Y2896331D1*
X1107689Y2887949D1*
X1102159Y2880337D1*
X1095505Y2873684D1*
X1087894Y2868154D1*
X1079512Y2863883D1*
X1070563Y2860975D1*
X1061272Y2859504D1*
X1051862D1*
X1042571Y2860975D1*
X1033622Y2863883D1*
X1032504Y2864399D1*
X1013803Y2845824D1*
X1011915Y2844336D1*
X1011959Y2842220D1*
X1014867Y2833272D1*
X1016339Y2823980D1*
Y2814571D1*
X1014867Y2805280D1*
X1013125Y2799488D1*
X1068854Y2799503D1*
X1167946Y2898446D1*
X1173907Y2902429D1*
X1180631Y2904909D1*
X1187749Y2905752D1*
X1433306D1*
X1409861Y2929152D1*
X1402966Y2929172D1*
X1395761Y2930314D1*
X1388823Y2932568D1*
X1382322Y2935881D1*
X1376420Y2940168D1*
X1371261Y2945327D1*
X1366974Y2951228D1*
X1363661Y2957730D1*
X1361407Y2964668D1*
X1360451Y2970302D1*
X1160261Y3170488D1*
X741194Y3170572D1*
X735563Y3171465D1*
X730140Y3173227D1*
X725060Y3175815D1*
X720448Y3179167D1*
X621125Y3278329D1*
X541398Y3358217D1*
X538046Y3362829D1*
X535458Y3367909D1*
X533696Y3373332D1*
X532803Y3378963D1*
X532692Y3519314D1*
X532803Y3559682D1*
X533696Y3565314D1*
X535458Y3570736D1*
X538046Y3575816D1*
X541398Y3580429D1*
X580837Y3620029D1*
X585173Y3623731D1*
X590034Y3626710D1*
X595302Y3628892D1*
X600846Y3630223D1*
X606530Y3630671D1*
X1309454Y3630559D1*
X1315085Y3629667D1*
X1320508Y3627906D1*
X1325588Y3625316D1*
X1330201Y3621965D1*
X1364441Y3587885D1*
X1371182Y3584941D1*
X1379205Y3580026D1*
X1386360Y3573916D1*
X1392470Y3566761D1*
X1393930Y3564575D1*
X1398371Y3570458D1*
X1405025Y3577112D1*
X1412636Y3582642D1*
X1421018Y3586912D1*
X1429967Y3589820D1*
X1439259Y3591291D1*
X1448668D1*
X1457959Y3589820D1*
X1466908Y3586912D1*
X1475290Y3582642D1*
X1482902Y3577112D1*
X1483996Y3576100D1*
X1484007Y3591476D1*
X1603920D1*
Y3471563D1*
X1588539D1*
X1592470Y3466761D1*
X1597385Y3458739D1*
X1600986Y3450047D1*
X1603182Y3440899D1*
X1603920Y3431520D1*
X1603182Y3422140D1*
X1600986Y3412992D1*
X1597385Y3404301D1*
X1592470Y3396278D1*
X1586360Y3389123D1*
X1579205Y3383013D1*
X1571182Y3378098D1*
X1562491Y3374497D1*
X1553343Y3372301D1*
X1543963Y3371563D1*
X1534584Y3372301D1*
X1525436Y3374497D1*
X1516744Y3378098D1*
X1508722Y3383013D1*
X1501567Y3389123D1*
X1495457Y3396278D1*
X1493996Y3398465D1*
X1489555Y3392581D1*
X1482902Y3385928D1*
X1475290Y3380398D1*
X1466908Y3376127D1*
X1457959Y3373219D1*
X1448668Y3371748D1*
X1439259D1*
X1429967Y3373219D1*
X1421018Y3376127D1*
X1412636Y3380398D1*
X1405025Y3385928D1*
X1398371Y3392581D1*
X1392841Y3400193D1*
X1388571Y3408575D1*
X1385663Y3417524D1*
X1384192Y3426815D1*
Y3436224D1*
X1385663Y3445516D1*
X1388571Y3454465D1*
X1392841Y3462846D1*
X1398371Y3470458D1*
X1405025Y3477112D1*
X1410908Y3481487D1*
X1405025Y3485928D1*
X1398371Y3492581D1*
X1393996Y3498465D1*
X1389555Y3492581D1*
X1382902Y3485928D1*
X1375290Y3480398D1*
X1366908Y3476127D1*
X1357959Y3473219D1*
X1348668Y3471748D1*
X1339259D1*
X1329967Y3473219D1*
X1321018Y3476127D1*
X1312636Y3480398D1*
X1305025Y3485928D1*
X1298371Y3492581D1*
X1293996Y3498465D1*
X1289555Y3492581D1*
X1282902Y3485928D1*
X1277018Y3481552D1*
X1282902Y3477112D1*
X1289555Y3470458D1*
X1295085Y3462846D1*
X1299356Y3454465D1*
X1302264Y3445516D1*
X1303735Y3436224D1*
Y3426815D1*
X1302264Y3417524D1*
X1299356Y3408575D1*
X1296891Y3403417D1*
X1642245Y3058041D1*
X1649938Y3056360D1*
X1651160Y3055908D1*
X1651245Y3252942D1*
X1652643Y3259972D1*
X1655644Y3266482D1*
X1660081Y3272112D1*
X1743098Y3354995D1*
X1749059Y3358978D1*
X1755783Y3361458D1*
X1762902Y3362301D1*
X2037755D1*
X2036385Y3372058D1*
X2026975D1*
X2017684Y3373529D1*
X2008735Y3376437D1*
X2000353Y3380707D1*
X1992741Y3386238D1*
X1986088Y3392891D1*
X1981713Y3398774D1*
X1977272Y3392891D1*
X1970618Y3386238D1*
X1963007Y3380707D1*
X1954625Y3376437D1*
X1945676Y3373529D1*
X1936385Y3372058D1*
X1926975D1*
X1917684Y3373529D1*
X1908735Y3376437D1*
X1900353Y3380707D1*
X1892741Y3386238D1*
X1886088Y3392891D1*
X1880558Y3400503D1*
X1876287Y3408885D1*
X1873379Y3417833D1*
X1871908Y3427125D1*
Y3436534D1*
X1873379Y3445825D1*
X1876287Y3454774D1*
X1880558Y3463156D1*
X1886088Y3470768D1*
X1892741Y3477421D1*
X1898625Y3481797D1*
X1892741Y3486238D1*
X1886088Y3492891D1*
X1880558Y3500503D1*
X1876287Y3508885D1*
X1873379Y3517833D1*
X1871908Y3527125D1*
Y3536534D1*
X1873379Y3545825D1*
X1876287Y3554774D1*
X1880558Y3563156D1*
X1886088Y3570768D1*
X1892741Y3577421D1*
X1900353Y3582951D1*
X1908735Y3587222D1*
X1917684Y3590130D1*
X1926975Y3591601D1*
X1936385D1*
X1945676Y3590130D1*
X1954625Y3587222D1*
X1963007Y3582951D1*
X1970618Y3577421D1*
X1971713Y3576409D1*
X1971723Y3591786D1*
X2091636D1*
Y3552479D1*
X2129874Y3514129D1*
X2133857Y3508169D1*
X2136337Y3501444D1*
X2137180Y3494316D1*
X2137085Y3385672D1*
X2135688Y3378642D1*
X2132686Y3372133D1*
X2128249Y3366503D1*
X2070235Y3308622D1*
X2064274Y3304639D1*
X2057550Y3302159D1*
X2050432Y3301316D1*
X1775579D1*
X1712130Y3237913D1*
X1712135Y2924719D1*
X1752814Y2924660D1*
X1759844Y2923262D1*
X1764273Y2921427D1*
X1765636Y2923980D1*
X1767108Y2933272D1*
X1770016Y2942220D1*
X1774286Y2950602D1*
X1779816Y2958214D1*
X1780828Y2959308D1*
X1765451Y2959319D1*
Y3079232D1*
X1885365D1*
Y3063852D1*
X1890167Y3067782D1*
X1898189Y3072697D1*
X1906881Y3076298D1*
X1916029Y3078495D1*
X1925408Y3079232D1*
X1934787Y3078495D1*
X1943936Y3076298D1*
X1952627Y3072697D1*
X1960650Y3067782D1*
X1967804Y3061672D1*
X1973915Y3054517D1*
X1978829Y3046495D1*
X1982430Y3037803D1*
X1984627Y3028655D1*
X1985365Y3019276D1*
X1984627Y3009896D1*
X1982430Y3000748D1*
X1978829Y2992056D1*
X1973915Y2984034D1*
X1967804Y2976879D1*
X1960650Y2970769D1*
X1958463Y2969308D1*
X1964346Y2964867D1*
X1971000Y2958214D1*
X1976530Y2950602D1*
X1980801Y2942220D1*
X1983709Y2933272D1*
X1985180Y2923980D1*
Y2914571D1*
X1983709Y2905280D1*
X1980801Y2896331D1*
X1976530Y2887949D1*
X1971000Y2880337D1*
X1964346Y2873684D1*
X1956735Y2868154D1*
X1948353Y2863883D1*
X1939404Y2860975D1*
X1930113Y2859504D1*
X1920703D1*
X1911412Y2860975D1*
X1902463Y2863883D1*
X1894081Y2868154D1*
X1886470Y2873684D1*
X1879816Y2880337D1*
X1875441Y2886220D1*
X1871000Y2880337D1*
X1864346Y2873684D1*
X1858463Y2869308D1*
X1864346Y2864867D1*
X1871000Y2858214D1*
X1876530Y2850602D1*
X1880801Y2842220D1*
X1883709Y2833272D1*
X1885180Y2823980D1*
Y2814571D1*
X1883709Y2805280D1*
X1881749Y2798902D1*
X1887343Y2797181D1*
X1893596Y2793680D1*
X1897235Y2790572D1*
X1910458Y2777348D1*
X1920703Y2779047D1*
X1930113D1*
X1939404Y2777576D1*
X1948353Y2774668D1*
X1956735Y2770398D1*
X1964346Y2764867D1*
X1971000Y2758214D1*
X1976530Y2750602D1*
X1980801Y2742220D1*
X1983709Y2733272D1*
X1985180Y2723980D1*
Y2714571D1*
X1983709Y2705280D1*
X1980801Y2696331D1*
X1976530Y2687949D1*
X1971000Y2680337D1*
X1964346Y2673684D1*
X1958463Y2669308D1*
X1964346Y2664867D1*
X1971000Y2658214D1*
X1976530Y2650602D1*
X1980801Y2642220D1*
X1983709Y2633272D1*
X1985180Y2623980D1*
Y2614571D1*
X1983709Y2605280D1*
X1980801Y2596331D1*
X1976530Y2587949D1*
X1971000Y2580337D1*
X1964346Y2573684D1*
X1956735Y2568154D1*
X1948353Y2563883D1*
X1939404Y2560975D1*
X1930113Y2559504D1*
X1920703D1*
X1911412Y2560975D1*
X1902463Y2563883D1*
X1894081Y2568154D1*
X1886470Y2573684D1*
X1879816Y2580337D1*
X1875441Y2586220D1*
X1871000Y2580337D1*
X1864346Y2573684D1*
X1856735Y2568154D1*
X1848353Y2563883D1*
X1839404Y2560975D1*
X1830113Y2559504D1*
X1820703D1*
X1811412Y2560975D1*
X1802463Y2563883D1*
X1794081Y2568154D1*
X1786470Y2573684D1*
X1779816Y2580337D1*
X1774286Y2587949D1*
X1770016Y2596331D1*
X1767108Y2605280D1*
X1765636Y2614571D1*
Y2623980D1*
X1767108Y2633272D1*
X1770016Y2642220D1*
X1774286Y2650602D1*
X1779816Y2658214D1*
X1786470Y2664867D1*
X1792353Y2669243D1*
X1786470Y2673684D1*
X1779816Y2680337D1*
X1774286Y2687949D1*
X1770016Y2696331D1*
X1767108Y2705280D1*
X1765636Y2714571D1*
Y2723980D1*
X1767108Y2733272D1*
X1770016Y2742220D1*
X1774787Y2751352D1*
X1681356Y2844780D1*
X1200395Y2844768D1*
X1107146Y2751534D1*
X1111959Y2742220D1*
X1114867Y2733272D1*
X1116339Y2723980D1*
Y2714571D1*
X1114867Y2705280D1*
X1111959Y2696331D1*
X1107689Y2687949D1*
X1102159Y2680337D1*
X1095505Y2673684D1*
X1089622Y2669308D1*
X1095505Y2664867D1*
X1102159Y2658214D1*
X1107689Y2650602D1*
X1111959Y2642220D1*
X1114867Y2633272D1*
X1116339Y2623980D1*
Y2614571D1*
X1114867Y2605280D1*
X1111959Y2596331D1*
X1107689Y2587949D1*
X1102159Y2580337D1*
X1095505Y2573684D1*
X1087043Y2567678D1*
X1086965Y2435562D1*
X1085567Y2428531D1*
X1082566Y2422022D1*
X1078129Y2416392D1*
X940677Y2278942D1*
X1016457Y2278967D1*
Y2263587D1*
X1021259Y2267517D1*
X1029281Y2272432D1*
X1037972Y2276033D1*
X1047121Y2278230D1*
X1056500Y2278967D1*
X1065879Y2278230D1*
X1075028Y2276033D1*
X1083719Y2272432D1*
X1091741Y2267517D1*
X1098896Y2261407D1*
X1105007Y2254252D1*
X1109921Y2246230D1*
X1113522Y2237538D1*
X1115719Y2228390D1*
X1116457Y2219010D1*
X1115719Y2209631D1*
X1113522Y2200483D1*
X1109921Y2191791D1*
X1105007Y2183769D1*
X1098896Y2176614D1*
X1091741Y2170504D1*
X1089555Y2169043D1*
X1095438Y2164602D1*
X1102092Y2157949D1*
X1107622Y2150337D1*
X1111892Y2141955D1*
X1114801Y2133007D1*
X1116272Y2123715D1*
Y2114306D1*
X1114801Y2105014D1*
X1111892Y2096066D1*
X1107622Y2087684D1*
X1102092Y2080072D1*
X1095438Y2073419D1*
X1087827Y2067888D1*
X1079445Y2063618D1*
X1070496Y2060710D1*
X1061205Y2059239D1*
X1051795D1*
X1041566Y2060975D1*
X1026303Y2045824D1*
X1020344Y2041841D1*
X1013609Y2039358D1*
X1013522Y2037538D1*
X1015719Y2028390D1*
X1016457Y2019010D1*
X1015719Y2009631D1*
X1013159Y1999500D1*
X1364458Y1999503D1*
X1361407Y2008318D1*
X1360265Y2015522D1*
Y2022819D1*
X1361407Y2030024D1*
X1363661Y2036962D1*
X1366974Y2043463D1*
X1370281Y2048122D1*
X1370280Y2493438D1*
X1362860Y2492732D1*
X1356760Y2493213D1*
X1350810Y2494640D1*
X1345157Y2496982D1*
X1339941Y2500178D1*
X1335287Y2504152D1*
X1331314Y2508806D1*
X1328117Y2514022D1*
X1325776Y2519675D1*
X1324348Y2525625D1*
X1323867Y2531724D1*
X1324348Y2537824D1*
X1325776Y2543774D1*
X1328117Y2549427D1*
X1331314Y2554643D1*
X1335287Y2559297D1*
X1339941Y2563270D1*
X1345157Y2566467D1*
X1350810Y2568808D1*
X1356760Y2570236D1*
X1362860Y2570717D1*
X1370285Y2569972D1*
X1370280Y2715269D1*
X1366974Y2719954D1*
X1363661Y2726455D1*
X1361407Y2733394D1*
X1360265Y2740598D1*
Y2747895D1*
X1361407Y2755100D1*
X1363661Y2762038D1*
X1366974Y2768539D1*
X1371261Y2774441D1*
X1376420Y2779600D1*
X1382322Y2783887D1*
X1388823Y2787199D1*
X1395761Y2789454D1*
X1402966Y2790596D1*
X1410262D1*
X1417467Y2789454D1*
X1424406Y2787199D1*
X1430907Y2783887D1*
X1436808Y2779600D1*
X1441967Y2774441D1*
X1446255Y2768539D1*
X1449567Y2762038D1*
X1452125Y2753576D1*
X1456327Y2760915D1*
X1460301Y2765568D1*
X1464954Y2769542D1*
X1470171Y2772739D1*
X1475823Y2775080D1*
X1481773Y2776508D1*
X1487873Y2776988D1*
X1493972Y2776508D1*
X1499923Y2775080D1*
X1505575Y2772739D1*
X1512192Y2768438D1*
X1519277Y2770257D1*
X1525377Y2770738D1*
X1531476Y2770257D1*
X1537427Y2768829D1*
X1544091Y2765921D1*
X1550831Y2768829D1*
X1556781Y2770257D1*
X1562881Y2770738D1*
X1568980Y2770257D1*
X1574930Y2768829D1*
X1581594Y2765921D1*
X1588335Y2768829D1*
X1594285Y2770257D1*
X1600385Y2770738D1*
X1606484Y2770257D1*
X1612434Y2768829D1*
X1619098Y2765921D1*
X1625839Y2768829D1*
X1631789Y2770257D1*
X1637888Y2770738D1*
X1643988Y2770257D1*
X1649938Y2768829D1*
X1655591Y2766488D1*
X1660807Y2763291D1*
X1665461Y2759318D1*
X1669434Y2754664D1*
X1672631Y2749448D1*
X1674972Y2743795D1*
X1676400Y2737845D1*
X1676881Y2731745D1*
X1676400Y2725646D1*
X1674972Y2719696D1*
X1672631Y2714043D1*
X1668375Y2707483D1*
X1668381Y2024762D1*
X1672631Y2018121D1*
X1674972Y2012469D1*
X1676400Y2006518D1*
X1676844Y1999499D1*
X1768559Y1999503D1*
X1766030Y2009631D1*
X1765293Y2019010D1*
X1766030Y2028390D1*
X1768227Y2037538D1*
X1771828Y2046230D1*
X1776743Y2054252D1*
X1782853Y2061407D1*
X1790008Y2067517D1*
X1792194Y2068978D1*
X1786311Y2073419D1*
X1779657Y2080072D1*
X1774127Y2087684D1*
X1769857Y2096066D1*
X1766949Y2105014D1*
X1765478Y2114306D1*
Y2123715D1*
X1766949Y2133007D1*
X1769857Y2141955D1*
X1774127Y2150337D1*
X1779657Y2157949D1*
X1780669Y2159043D1*
X1765293Y2159054D1*
Y2278967D1*
X1885206D1*
Y2263587D1*
X1890008Y2267517D1*
X1898030Y2272432D1*
X1906722Y2276033D1*
X1915870Y2278230D1*
X1925249Y2278967D1*
X1934629Y2278230D1*
X1943777Y2276033D1*
X1952469Y2272432D1*
X1960491Y2267517D1*
X1967646Y2261407D1*
X1973756Y2254252D1*
X1978671Y2246230D1*
X1982272Y2237538D1*
X1984469Y2228390D1*
X1985206Y2219010D1*
X1984469Y2209631D1*
X1982272Y2200483D1*
X1978671Y2191791D1*
X1973756Y2183769D1*
X1967646Y2176614D1*
X1960491Y2170504D1*
X1958304Y2169043D1*
X1964188Y2164602D1*
X1970841Y2157949D1*
X1976371Y2150337D1*
X1980642Y2141955D1*
X1983550Y2133007D1*
X1985021Y2123715D1*
Y2114306D1*
X1983550Y2105014D1*
X1980642Y2096066D1*
X1976371Y2087684D1*
X1970841Y2080072D1*
X1964188Y2073419D1*
X1956576Y2067888D1*
X1948194Y2063618D1*
X1939245Y2060710D1*
X1929954Y2059239D1*
X1920545D1*
X1911253Y2060710D1*
X1902304Y2063618D1*
X1893923Y2067888D1*
X1886311Y2073419D1*
X1879657Y2080072D1*
X1875282Y2085955D1*
X1870841Y2080072D1*
X1864188Y2073419D1*
X1858304Y2069043D1*
X1864188Y2064602D1*
X1870841Y2057949D1*
X1876371Y2050337D1*
X1880642Y2041955D1*
X1883550Y2033007D1*
X1885021Y2023715D1*
Y2014306D1*
X1883550Y2005014D1*
X1881654Y1998810D1*
X1886919Y1997181D1*
X1893172Y1993680D1*
X1896811Y1990572D1*
X1910311Y1977072D1*
X1920545Y1978782D1*
X1929954D1*
X1939245Y1977311D1*
X1948194Y1974403D1*
X1956576Y1970133D1*
X1964188Y1964602D1*
X1970841Y1957949D1*
X1976371Y1950337D1*
X1980642Y1941955D1*
X1983550Y1933007D1*
X1985021Y1923715D1*
Y1914306D1*
X1983550Y1905014D1*
X1980642Y1896066D1*
X1976371Y1887684D1*
X1970841Y1880072D1*
X1964188Y1873419D1*
X1958304Y1869043D1*
X1964188Y1864602D1*
X1970841Y1857949D1*
X1976371Y1850337D1*
X1980642Y1841955D1*
X1983550Y1833007D1*
X1985021Y1823715D1*
Y1814306D1*
X1983550Y1805014D1*
X1980642Y1796066D1*
X1976371Y1787684D1*
X1970841Y1780072D1*
X1964188Y1773419D1*
X1956576Y1767888D1*
X1948194Y1763618D1*
X1939245Y1760710D1*
X1929954Y1759239D1*
X1920545D1*
X1911253Y1760710D1*
X1902304Y1763618D1*
X1893923Y1767888D1*
X1886311Y1773419D1*
X1879657Y1780072D1*
X1875282Y1785955D1*
X1870841Y1780072D1*
X1864188Y1773419D1*
X1856576Y1767888D1*
X1848194Y1763618D1*
X1839245Y1760710D1*
X1829954Y1759239D1*
X1820545D1*
X1811253Y1760710D1*
X1802304Y1763618D1*
X1793923Y1767888D1*
X1786311Y1773419D1*
X1779657Y1780072D1*
X1774127Y1787684D1*
X1769857Y1796066D1*
X1766949Y1805014D1*
X1765478Y1814306D1*
Y1823715D1*
X1766949Y1833007D1*
X1769857Y1841955D1*
X1774127Y1850337D1*
X1779657Y1857949D1*
X1786311Y1864602D1*
X1792194Y1868978D1*
X1786311Y1873419D1*
X1779657Y1880072D1*
X1774127Y1887684D1*
X1769857Y1896066D1*
X1766949Y1905014D1*
X1765478Y1914306D1*
Y1923715D1*
X1766949Y1933007D1*
X1768591Y1938521D1*
X1451177Y1938518D1*
X1452534Y1932684D1*
X1453106Y1925411D1*
X1452534Y1918138D1*
X1450831Y1911043D1*
X1448039Y1904303D1*
X1444227Y1898084D1*
X1442948Y1896459D1*
X1442949Y1375240D1*
X1445571Y1367454D1*
X1446713Y1360249D1*
Y1352953D1*
X1445571Y1345748D1*
X1443316Y1338810D1*
X1440004Y1332308D1*
X1435717Y1326407D1*
X1430558Y1321248D1*
X1424656Y1316961D1*
X1418155Y1313648D1*
X1411217Y1311394D1*
X1404012Y1310252D1*
X1396715D1*
X1389510Y1311394D1*
X1382572Y1313648D1*
X1376071Y1316961D1*
X1370169Y1321248D1*
X1365010Y1326407D1*
X1360723Y1332308D1*
X1357411Y1338810D1*
X1355156Y1345748D1*
X1354014Y1352953D1*
Y1360249D1*
X1355156Y1367454D1*
X1357411Y1374392D1*
X1360723Y1380894D1*
X1365010Y1386795D1*
X1370270Y1392033D1*
X1370160Y1659394D1*
X1364944Y1662591D1*
X1360290Y1666564D1*
X1356316Y1671218D1*
X1353119Y1676434D1*
X1350778Y1682087D1*
X1349350Y1688037D1*
X1348870Y1694136D1*
X1349350Y1700236D1*
X1350778Y1706186D1*
X1353119Y1711839D1*
X1356316Y1717055D1*
X1360290Y1721709D1*
X1364944Y1725682D1*
X1370280Y1728934D1*
Y1896432D1*
X1366974Y1901118D1*
X1363661Y1907619D1*
X1361407Y1914558D1*
X1360265Y1921762D1*
Y1929059D1*
X1361407Y1936264D1*
X1362046Y1938529D1*
X1113189Y1938518D1*
X1115719Y1928390D1*
X1116457Y1919010D1*
X1115719Y1909631D1*
X1113522Y1900483D1*
X1109921Y1891791D1*
X1105007Y1883769D1*
X1098896Y1876614D1*
X1091741Y1870504D1*
X1089555Y1869043D1*
X1095438Y1864602D1*
X1102092Y1857949D1*
X1107622Y1850337D1*
X1111892Y1841955D1*
X1114801Y1833007D1*
X1116272Y1823715D1*
Y1814306D1*
X1114801Y1805014D1*
X1111892Y1796066D1*
X1107622Y1787684D1*
X1102092Y1780072D1*
X1095438Y1773419D1*
X1087827Y1767888D1*
X1079445Y1763618D1*
X1070496Y1760710D1*
X1061205Y1759239D1*
X1051795D1*
X1042504Y1760710D1*
X1036782Y1762428D1*
X1013803Y1739573D1*
X1007844Y1735591D1*
X1001118Y1733110D1*
X994000Y1732268D1*
X824517D1*
X817951Y1728017D1*
X812299Y1725676D1*
X806349Y1724248D1*
X800249Y1723768D1*
X794150Y1724248D1*
X788199Y1725676D1*
X782547Y1728017D1*
X777331Y1731214D1*
X772677Y1735188D1*
X768703Y1739841D1*
X765507Y1745058D1*
X763165Y1750710D1*
X761738Y1756660D1*
X761257Y1762760D1*
X761738Y1768860D1*
X763165Y1774810D1*
X765507Y1780462D1*
X768703Y1785678D1*
X772677Y1790332D1*
X777331Y1794306D1*
X782547Y1797503D1*
X788199Y1799844D1*
X794150Y1801272D1*
X800249Y1801752D1*
X806349Y1801272D1*
X812299Y1799844D1*
X817951Y1797503D1*
X824512Y1793247D1*
X902349Y1793252D1*
X899478Y1800483D1*
X897281Y1809631D1*
X896543Y1819010D1*
X897281Y1828390D1*
X899841Y1838521D1*
X687016Y1838517D1*
X686991Y1199526D1*
X798735Y1199501D1*
X799238Y1206360D1*
X801009Y1213240D1*
X801102Y1408903D1*
X802500Y1415933D1*
X805501Y1422442D1*
X809938Y1428072D1*
X824190Y1442190D1*
X830151Y1446173D1*
X836875Y1448654D1*
X843993Y1449496D1*
X896581D1*
X896543Y1478961D1*
X1016457D1*
Y1463677D1*
X1025173Y1470126D1*
X1033555Y1474396D1*
X1042504Y1477304D1*
X1051795Y1478776D1*
X1061205D1*
X1070496Y1477304D1*
X1079445Y1474396D1*
X1087827Y1470126D1*
X1095438Y1464596D1*
X1102092Y1457942D1*
X1107622Y1450331D1*
X1111892Y1441949D1*
X1114801Y1433000D1*
X1116272Y1423709D1*
Y1414299D1*
X1114801Y1405008D1*
X1113159Y1399493D1*
X1158892Y1399408D1*
X1165923Y1398010D1*
X1172432Y1395009D1*
X1178062Y1390572D1*
X1260936Y1307563D1*
X1264919Y1301602D1*
X1267399Y1294878D1*
X1268241Y1287751D1*
Y1268277D1*
X1272492Y1261711D1*
X1274833Y1256059D1*
X1276261Y1250109D1*
X1276741Y1244009D1*
X1276261Y1237909D1*
X1274833Y1231959D1*
X1272492Y1226307D1*
X1269295Y1221091D1*
X1265322Y1216437D1*
X1260668Y1212463D1*
X1255451Y1209266D1*
X1249799Y1206925D1*
X1243849Y1205497D1*
X1237749Y1205017D1*
X1231650Y1205497D1*
X1225699Y1206925D1*
X1220047Y1209266D1*
X1216451Y1211381D1*
X1210668Y1206214D1*
X1205451Y1203017D1*
X1199799Y1200676D1*
X1195127Y1199503D1*
X1486919Y1199501D1*
X1486257Y1206509D1*
X1486738Y1212609D1*
X1488165Y1218559D1*
X1490507Y1224211D1*
X1493703Y1229428D1*
X1497677Y1234081D1*
X1502331Y1238055D1*
X1507547Y1241252D1*
X1513199Y1243593D1*
X1520848Y1245222D1*
X1667948Y1392197D1*
X1673908Y1396180D1*
X1680633Y1398660D1*
X1687751Y1399503D1*
X1765339D1*
X1765293Y1478961D1*
X1885206D1*
Y1463677D1*
X1893923Y1470126D1*
X1902304Y1474396D1*
X1911253Y1477304D1*
X1920545Y1478776D1*
X1929954D1*
X1939245Y1477304D1*
X1948194Y1474396D1*
X1956576Y1470126D1*
X1964188Y1464596D1*
X1970841Y1457942D1*
X1976371Y1450331D1*
X1980642Y1441949D1*
X1983550Y1433000D1*
X1985021Y1423709D1*
Y1414299D1*
X1983550Y1405008D1*
X1980642Y1396059D1*
X1976371Y1387677D1*
X1970841Y1380066D1*
X1964188Y1373412D1*
X1958304Y1369037D1*
X1964188Y1364596D1*
X1970841Y1357942D1*
X1976371Y1350331D1*
X1980642Y1341949D1*
X1983550Y1333000D1*
X1985021Y1323709D1*
Y1314299D1*
X1983550Y1305008D1*
X1980642Y1296059D1*
X1976371Y1287677D1*
X1970841Y1280066D1*
X1964188Y1273412D1*
X1956576Y1267882D1*
X1948194Y1263612D1*
X1939245Y1260703D1*
X1929954Y1259232D1*
X1920545D1*
X1911253Y1260703D1*
X1902304Y1263612D1*
X1893923Y1267882D1*
X1886311Y1273412D1*
X1879657Y1280066D1*
X1875282Y1285949D1*
X1870841Y1280066D1*
X1864188Y1273412D1*
X1858304Y1269037D1*
X1864188Y1264596D1*
X1870841Y1257942D1*
X1876371Y1250331D1*
X1880642Y1241949D1*
X1883550Y1233000D1*
X1885021Y1223709D1*
Y1214299D1*
X1883550Y1205008D1*
X1881908Y1199493D1*
X1888617Y1198659D1*
X1895343Y1196178D1*
X1901302Y1192196D1*
X1915455Y1178176D1*
X1925249Y1178961D1*
X1934629Y1178223D1*
X1943777Y1176026D1*
X1952469Y1172425D1*
X1960491Y1167510D1*
X1967646Y1161400D1*
X1973756Y1154245D1*
X1978671Y1146223D1*
X1982272Y1137531D1*
X1984469Y1128383D1*
X1985206Y1119004D1*
X1984469Y1109625D1*
X1982272Y1100476D1*
X1978671Y1091785D1*
X1973756Y1083762D1*
X1967646Y1076608D1*
X1960491Y1070497D1*
X1958304Y1069037D1*
X1964188Y1064596D1*
X1970841Y1057942D1*
X1976371Y1050331D1*
X1980642Y1041949D1*
X1983550Y1033000D1*
X1985021Y1023709D1*
Y1014299D1*
X1983550Y1005008D1*
X1980642Y996059D1*
X1976371Y987677D1*
X1970841Y980066D1*
X1964188Y973412D1*
X1956576Y967882D1*
X1948194Y963612D1*
X1939245Y960703D1*
X1929954Y959232D1*
X1920545D1*
X1911253Y960703D1*
X1902304Y963612D1*
X1893923Y967882D1*
X1886311Y973412D1*
X1879657Y980066D1*
X1875282Y985949D1*
X1870841Y980066D1*
X1864188Y973412D1*
X1856576Y967882D1*
X1848194Y963612D1*
X1839245Y960703D1*
X1829954Y959232D1*
X1820545D1*
X1811253Y960703D1*
X1802304Y963612D1*
X1793923Y967882D1*
X1786311Y973412D1*
X1779657Y980066D1*
X1774127Y987677D1*
X1769857Y996059D1*
X1766949Y1005008D1*
X1765478Y1014299D1*
Y1023709D1*
X1766949Y1033000D1*
X1769857Y1041949D1*
X1774127Y1050331D1*
X1779657Y1057942D1*
X1786311Y1064596D1*
X1792194Y1068971D1*
X1786311Y1073412D1*
X1779657Y1080066D1*
X1774127Y1087677D1*
X1769857Y1096059D1*
X1766949Y1105008D1*
X1765478Y1114299D1*
Y1123709D1*
X1766949Y1133000D1*
X1768591Y1138514D1*
X1668168Y1138517D1*
X1670010Y1131360D1*
X1670491Y1125260D1*
X1670010Y1119160D1*
X1668583Y1113210D1*
X1666241Y1107558D1*
X1661986Y1100997D1*
X1661991Y694352D1*
X1667720Y696076D1*
X1677012Y697547D1*
X1686421D1*
X1695713Y696076D1*
X1704661Y693168D1*
X1713043Y688898D1*
X1720655Y683367D1*
X1727308Y676714D1*
X1731684Y670831D1*
X1736125Y676714D1*
X1742778Y683367D1*
X1750390Y688898D1*
X1758772Y693168D1*
X1767720Y696076D1*
X1777012Y697547D1*
X1786421D1*
X1795713Y696076D1*
X1804661Y693168D1*
X1813043Y688898D1*
X1820655Y683367D1*
X1827308Y676714D1*
X1831684Y670831D1*
X1836125Y676714D1*
X1842778Y683367D1*
X1850390Y688898D1*
X1858772Y693168D1*
X1867720Y696076D1*
X1877012Y697547D1*
X1886421D1*
X1895713Y696076D1*
X1904661Y693168D1*
X1913043Y688898D1*
X1920655Y683367D1*
X1927308Y676714D1*
X1931684Y670831D1*
X1936125Y676714D1*
X1942778Y683367D1*
X1950390Y688898D1*
X1958772Y693168D1*
X1967720Y696076D1*
X1977012Y697547D1*
X1986421D1*
X1995713Y696076D1*
X2004661Y693168D1*
X2013043Y688898D1*
X2020655Y683367D1*
X2027308Y676714D1*
X2031684Y670831D1*
X2036125Y676714D1*
X2042778Y683367D1*
X2050390Y688898D1*
X2058772Y693168D1*
X2067720Y696076D1*
X2069759Y696482D1*
X2069757Y1406402D1*
X1950146Y1525992D1*
X1704106Y1526113D1*
X1697076Y1527510D1*
X1690567Y1530512D1*
X1684937Y1534949D1*
X1464686Y1755333D1*
X1460703Y1761293D1*
X1458223Y1768018D1*
X1457381Y1775136D1*
Y1807314D1*
X1453130Y1813949D1*
X1450789Y1819601D1*
X1449361Y1825551D1*
X1448881Y1831651D1*
X1449361Y1837751D1*
X1450789Y1843701D1*
X1453130Y1849353D1*
X1456327Y1854570D1*
X1460301Y1859223D1*
X1464954Y1863197D1*
X1470171Y1866394D1*
X1475823Y1868735D1*
X1481773Y1870163D1*
X1487873Y1870643D1*
X1493972Y1870163D1*
X1499923Y1868735D1*
X1506734Y1865744D1*
X1513327Y1868593D1*
X1519277Y1870021D1*
X1525377Y1870501D1*
X1531476Y1870021D1*
X1537427Y1868593D1*
X1543966Y1865755D1*
X1550831Y1868735D1*
X1556781Y1870163D1*
X1562881Y1870643D1*
X1568980Y1870163D1*
X1574930Y1868735D1*
X1581594Y1865827D1*
X1588335Y1868735D1*
X1594285Y1870163D1*
X1600385Y1870643D1*
X1606484Y1870163D1*
X1612434Y1868735D1*
X1619098Y1865827D1*
X1625839Y1868735D1*
X1631789Y1870163D1*
X1637888Y1870643D1*
X1643988Y1870163D1*
X1649938Y1868735D1*
X1655591Y1866394D1*
X1660807Y1863197D1*
X1665461Y1859223D1*
X1669434Y1854570D1*
X1672631Y1849353D1*
X1674972Y1843701D1*
X1676400Y1837751D1*
X1676881Y1831651D1*
X1676400Y1825551D1*
X1674972Y1819601D1*
X1672631Y1813949D1*
X1668375Y1807388D1*
X1668381Y1738047D1*
X1744420Y1661980D1*
X1990142Y1661908D1*
X1997172Y1660510D1*
X2003681Y1657509D1*
X2009318Y1653064D1*
X2013507Y1650261D1*
Y1794744D1*
X2009256Y1801308D1*
X2006915Y1806961D1*
X2005487Y1812911D1*
X2005007Y1819010D1*
X2005487Y1825110D1*
X2006915Y1831060D1*
X2009256Y1836713D1*
X2012453Y1841929D1*
X2016427Y1846583D1*
X2021080Y1850556D1*
X2026297Y1853753D1*
X2031949Y1856094D1*
X2037899Y1857522D1*
X2043999Y1858003D1*
X2051001Y1857343D1*
X2051008Y1907241D1*
X2046757Y1913808D1*
X2044416Y1919461D1*
X2042988Y1925411D1*
X2042508Y1931510D1*
X2042988Y1937610D1*
X2044416Y1943560D1*
X2046757Y1949213D1*
X2049954Y1954429D1*
X2053928Y1959083D1*
X2058581Y1963056D1*
X2063798Y1966253D1*
X2069450Y1968594D1*
X2075400Y1970022D1*
X2081500Y1970503D1*
X2087600Y1970022D1*
X2093550Y1968594D1*
X2099202Y1966253D1*
X2104419Y1963056D1*
X2109072Y1959083D1*
X2113570Y1953644D1*
X2119449Y1956094D1*
X2125399Y1957522D1*
X2132252Y1957972D1*
X2132257Y2219743D1*
X2128007Y2226308D1*
X2125665Y2231961D1*
X2124238Y2237911D1*
X2123757Y2244010D1*
X2124238Y2250110D1*
X2125665Y2256060D1*
X2128007Y2261713D1*
X2131203Y2266929D1*
X2135177Y2271583D1*
X2139831Y2275556D1*
X2145047Y2278753D1*
X2150699Y2281094D1*
X2156650Y2282522D1*
X2162749Y2283003D1*
X2168849Y2282522D1*
X2174799Y2281094D1*
X2180071Y2278928D1*
X2186126Y2283507D1*
X2191577Y2286283D1*
X2199402Y2288573D1*
X2201726Y2296432D1*
X2204503Y2301883D1*
X2208100Y2306833D1*
X2212427Y2311160D1*
X2217377Y2314757D1*
X2222828Y2317534D1*
X2228647Y2319425D1*
X2234690Y2320382D1*
X2240808D1*
X2246852Y2319425D1*
X2252769Y2317490D1*
X2256203Y2323178D1*
X2260177Y2327832D1*
X2264831Y2331806D1*
X2270047Y2335003D1*
X2275699Y2337344D1*
X2281650Y2338772D1*
X2287749Y2339252D1*
X2293849Y2338772D1*
X2299799Y2337344D1*
X2305451Y2335003D1*
X2310668Y2331806D1*
X2315322Y2327832D1*
X2318236Y2324522D1*
X2322045Y2333867D1*
X2326959Y2341890D1*
X2333070Y2349045D1*
X2340224Y2355155D1*
X2342411Y2356615D1*
X2336528Y2361056D1*
X2329874Y2367710D1*
X2324344Y2375322D1*
X2320073Y2383703D1*
X2317165Y2392652D1*
X2315694Y2401944D1*
Y2411353D1*
X2317165Y2420644D1*
X2320073Y2429593D1*
X2324344Y2437975D1*
X2329874Y2445587D1*
X2336528Y2452240D1*
X2342411Y2456615D1*
X2336528Y2461056D1*
X2329874Y2467710D1*
X2324344Y2475322D1*
X2320073Y2483703D1*
X2317165Y2492652D1*
X2315694Y2501944D1*
Y2511353D1*
X2317165Y2520644D1*
X2320073Y2529593D1*
X2324344Y2537975D1*
X2329874Y2545587D1*
X2336528Y2552240D1*
X2344139Y2557770D1*
X2352521Y2562041D1*
X2361470Y2564949D1*
X2370761Y2566420D1*
X2380171D1*
X2389462Y2564949D1*
X2398411Y2562041D1*
X2406793Y2557770D1*
X2414404Y2552240D1*
X2421058Y2545587D1*
X2426588Y2537975D1*
X2430858Y2529593D1*
X2433766Y2520644D1*
X2435238Y2511353D1*
Y2501944D1*
X2433766Y2492652D1*
X2430858Y2483703D1*
X2426588Y2475322D1*
X2421058Y2467710D1*
X2414404Y2461056D1*
X2408521Y2456681D1*
X2414404Y2452240D1*
X2421058Y2445587D1*
X2426588Y2437975D1*
X2430858Y2429593D1*
X2433766Y2420644D1*
X2435238Y2411353D1*
Y2401944D1*
X2433766Y2392652D1*
X2430858Y2383703D1*
X2426588Y2375322D1*
X2421058Y2367710D1*
X2414404Y2361056D1*
X2408521Y2356681D1*
X2414404Y2352240D1*
X2421058Y2345587D1*
X2426588Y2337975D1*
X2430858Y2329593D1*
X2433766Y2320644D1*
X2435238Y2311353D1*
Y2301944D1*
X2433766Y2292652D1*
X2430858Y2283703D1*
X2426588Y2275322D1*
X2421058Y2267710D1*
X2414404Y2261056D1*
X2408521Y2256681D1*
X2414404Y2252240D1*
X2421058Y2245587D1*
X2426588Y2237975D1*
X2430858Y2229593D1*
X2433766Y2220644D1*
X2435238Y2211353D1*
Y2201944D1*
X2433766Y2192652D1*
X2430858Y2183703D1*
X2426588Y2175322D1*
X2421058Y2167710D1*
X2414404Y2161056D1*
X2408521Y2156681D1*
X2414404Y2152240D1*
X2421058Y2145587D1*
X2426588Y2137975D1*
X2430858Y2129593D1*
X2433766Y2120644D1*
X2435238Y2111353D1*
Y2101944D1*
X2433766Y2092652D1*
X2430858Y2083703D1*
X2426588Y2075322D1*
X2421058Y2067710D1*
X2414404Y2061056D1*
X2408521Y2056681D1*
X2414404Y2052240D1*
X2421058Y2045587D1*
X2426588Y2037975D1*
X2430858Y2029593D1*
X2433766Y2020644D1*
X2435238Y2011353D1*
Y2001944D1*
X2433766Y1992652D1*
X2430858Y1983703D1*
X2426588Y1975322D1*
X2421058Y1967710D1*
X2414404Y1961056D1*
X2408521Y1956681D1*
X2414404Y1952240D1*
X2421058Y1945587D1*
X2426588Y1937975D1*
X2430858Y1929593D1*
X2433766Y1920644D1*
X2435238Y1911353D1*
Y1901944D1*
X2433766Y1892652D1*
X2430858Y1883703D1*
X2426588Y1875322D1*
X2421058Y1867710D1*
X2420046Y1866615D1*
X2435423Y1866605D1*
Y1746692D1*
X2326585D1*
X2325664Y1741157D1*
X2323773Y1735339D1*
X2320996Y1729887D1*
X2317399Y1724937D1*
X2313072Y1720610D1*
X2308122Y1717013D1*
X2302671Y1714236D1*
X2296852Y1712345D1*
X2290808Y1711388D1*
X2284690D1*
X2278647Y1712345D1*
X2272828Y1714236D1*
X2267377Y1717013D1*
X2262427Y1720610D1*
X2258100Y1724937D1*
X2254503Y1729887D1*
X2251622Y1735618D1*
X2245467Y1732635D1*
X2245010Y1725411D1*
X2243583Y1719461D1*
X2241241Y1713808D1*
X2238045Y1708592D1*
X2234071Y1703938D1*
X2229417Y1699965D1*
X2224201Y1696768D1*
X2218549Y1694427D1*
X2212598Y1692999D1*
X2206499Y1692518D1*
X2199988Y1693080D1*
X2201261Y1687610D1*
X2201741Y1681510D1*
X2201261Y1675411D1*
X2199833Y1669461D1*
X2197492Y1663808D1*
X2194295Y1658592D1*
X2190322Y1653938D1*
X2185668Y1649965D1*
X2180451Y1646768D1*
X2174799Y1644427D1*
X2168849Y1642999D1*
X2162749Y1642518D1*
X2156650Y1642999D1*
X2150699Y1644427D1*
X2145047Y1646768D1*
X2139831Y1649965D1*
X2135177Y1653938D1*
X2131203Y1658592D1*
X2128007Y1663808D1*
X2125665Y1669461D1*
X2124436Y1674413D1*
X2116577Y1676736D1*
X2111991Y1679029D1*
X2111992Y1662907D1*
X2185891Y1588991D1*
X2193549Y1587344D1*
X2199201Y1585003D1*
X2204417Y1581806D1*
X2209071Y1577832D1*
X2213045Y1573178D1*
X2216241Y1567962D1*
X2218583Y1562310D1*
X2220010Y1556360D1*
X2220491Y1550260D1*
X2220010Y1544160D1*
X2218583Y1538210D1*
X2216241Y1532558D1*
X2213045Y1527341D1*
X2209071Y1522688D1*
X2204417Y1518714D1*
X2199201Y1515517D1*
X2193549Y1513176D1*
X2187598Y1511748D1*
X2181499Y1511268D1*
X2175399Y1511748D1*
X2169449Y1513176D1*
X2163797Y1515517D1*
X2158580Y1518714D1*
X2153927Y1522688D1*
X2149953Y1527341D1*
X2146756Y1532558D1*
X2144016Y1539626D1*
X2141243Y1532558D1*
X2136720Y1525660D1*
X2304686Y1357563D1*
X2308669Y1351602D1*
X2311150Y1344878D1*
X2311992Y1337760D1*
Y809000D1*
X2317776Y814631D1*
X2325387Y820161D1*
X2333769Y824432D1*
X2342718Y827340D1*
X2351224Y828718D1*
Y865379D1*
X2321760Y865349D1*
Y985262D1*
X2337140D1*
X2333210Y990064D1*
X2328295Y998087D1*
X2324694Y1006778D1*
X2322497Y1015927D1*
X2321760Y1025306D1*
X2322497Y1034685D1*
X2324694Y1043833D1*
X2328295Y1052525D1*
X2333210Y1060547D1*
X2339320Y1067702D1*
X2346475Y1073812D1*
X2348661Y1075273D1*
X2342778Y1079714D1*
X2336125Y1086367D1*
X2330594Y1093979D1*
X2326324Y1102361D1*
X2323416Y1111310D1*
X2321945Y1120601D1*
Y1130010D1*
X2323416Y1139302D1*
X2326324Y1148251D1*
X2330594Y1156633D1*
X2336125Y1164244D1*
X2342778Y1170898D1*
X2348661Y1175273D1*
X2342778Y1179714D1*
X2336125Y1186367D1*
X2330594Y1193979D1*
X2326324Y1202361D1*
X2323416Y1211310D1*
X2321945Y1220601D1*
Y1230010D1*
X2323416Y1239302D1*
X2326324Y1248251D1*
X2330594Y1256633D1*
X2336125Y1264244D1*
X2342778Y1270898D1*
X2348661Y1275273D1*
X2342778Y1279714D1*
X2336125Y1286367D1*
X2330594Y1293979D1*
X2326324Y1302361D1*
X2323416Y1311310D1*
X2321945Y1320601D1*
Y1330010D1*
X2323416Y1339302D1*
X2326324Y1348251D1*
X2330594Y1356633D1*
X2336125Y1364244D1*
X2342778Y1370898D1*
X2348661Y1375273D1*
X2342778Y1379714D1*
X2336125Y1386367D1*
X2330594Y1393979D1*
X2326324Y1402361D1*
X2323416Y1411310D1*
X2321945Y1420601D1*
Y1430010D1*
X2323416Y1439302D1*
X2326324Y1448251D1*
X2330594Y1456633D1*
X2336125Y1464244D1*
X2342778Y1470898D1*
X2348661Y1475273D1*
X2342778Y1479714D1*
X2336125Y1486367D1*
X2330594Y1493979D1*
X2326324Y1502361D1*
X2323416Y1511310D1*
X2321945Y1520601D1*
Y1530010D1*
X2323416Y1539302D1*
X2326324Y1548251D1*
X2330594Y1556633D1*
X2336125Y1564244D1*
X2342778Y1570898D1*
X2348661Y1575273D1*
X2342778Y1579714D1*
X2336125Y1586367D1*
X2330594Y1593979D1*
X2326324Y1602361D1*
X2323416Y1611310D1*
X2321945Y1620601D1*
Y1630010D1*
X2323416Y1639302D1*
X2326324Y1648251D1*
X2330594Y1656633D1*
X2336125Y1664244D1*
X2342778Y1670898D1*
X2350390Y1676428D1*
X2358772Y1680698D1*
X2367720Y1683606D1*
X2377012Y1685077D1*
X2386421D1*
X2395713Y1683606D1*
X2404661Y1680698D1*
X2413043Y1676428D1*
X2420655Y1670898D1*
X2427308Y1664244D1*
X2432839Y1656633D1*
X2437109Y1648251D1*
X2440017Y1639302D1*
X2441488Y1630010D1*
Y1620601D1*
X2440017Y1611310D1*
X2437109Y1602361D1*
X2432839Y1593979D1*
X2427308Y1586367D1*
X2420655Y1579714D1*
X2414772Y1575339D1*
X2420655Y1570898D1*
X2427308Y1564244D1*
X2432839Y1556633D1*
X2437109Y1548251D1*
X2440017Y1539302D1*
X2441488Y1530010D1*
Y1520601D1*
X2440017Y1511310D1*
X2437109Y1502361D1*
X2432839Y1493979D1*
X2427308Y1486367D1*
X2420655Y1479714D1*
X2414772Y1475339D1*
X2420655Y1470898D1*
X2427308Y1464244D1*
X2432839Y1456633D1*
X2437109Y1448251D1*
X2440017Y1439302D1*
X2441488Y1430010D1*
Y1420601D1*
X2440017Y1411310D1*
X2437109Y1402361D1*
X2432839Y1393979D1*
X2427308Y1386367D1*
X2420655Y1379714D1*
X2414772Y1375339D1*
X2420655Y1370898D1*
X2427308Y1364244D1*
X2432839Y1356633D1*
X2437109Y1348251D1*
X2440017Y1339302D1*
X2441488Y1330010D1*
Y1320601D1*
X2440017Y1311310D1*
X2437109Y1302361D1*
X2432839Y1293979D1*
X2427308Y1286367D1*
X2420655Y1279714D1*
X2414772Y1275339D1*
X2420655Y1270898D1*
X2427308Y1264244D1*
X2432839Y1256633D1*
X2437109Y1248251D1*
X2440017Y1239302D1*
X2441488Y1230010D1*
Y1220601D1*
X2440017Y1211310D1*
X2437109Y1202361D1*
X2432839Y1193979D1*
X2427308Y1186367D1*
X2420655Y1179714D1*
X2414772Y1175339D1*
X2420655Y1170898D1*
X2427308Y1164244D1*
X2432839Y1156633D1*
X2437109Y1148251D1*
X2440017Y1139302D1*
X2441488Y1130010D1*
Y1120601D1*
X2440017Y1111310D1*
X2437109Y1102361D1*
X2432839Y1093979D1*
X2427308Y1086367D1*
X2420655Y1079714D1*
X2414772Y1075339D1*
X2420655Y1070898D1*
X2427308Y1064244D1*
X2432839Y1056633D1*
X2435916Y1050839D1*
X2440793Y1046867D1*
X2450241Y1037417D1*
X2450249Y3650308D1*
X437798Y3650260D1*
X440315Y2360407D1*
X452815D1*
X1006467Y1285949D2*
X1002092Y1280066D1*
X995438Y1273412D1*
X989555Y1269037D1*
X995438Y1264596D1*
X1002092Y1257942D1*
X1007622Y1250331D1*
X1011892Y1241949D1*
X1014801Y1233000D1*
X1016272Y1223709D1*
Y1214299D1*
X1014801Y1205008D1*
X1013159Y1199493D1*
X1180180Y1199501D1*
X1172828Y1201736D1*
X1167377Y1204513D1*
X1162427Y1208110D1*
X1158100Y1212437D1*
X1154503Y1217387D1*
X1151726Y1222839D1*
X1149835Y1228657D1*
X1148878Y1234701D1*
Y1240819D1*
X1149835Y1246862D1*
X1151726Y1252681D1*
X1154503Y1258133D1*
X1157262Y1262022D1*
X1157257Y1268864D1*
X1131350Y1294786D1*
X1111333Y1294768D1*
X1107622Y1287677D1*
X1102092Y1280066D1*
X1095438Y1273412D1*
X1087827Y1267882D1*
X1079445Y1263612D1*
X1070496Y1260703D1*
X1061205Y1259232D1*
X1051795D1*
X1042504Y1260703D1*
X1033555Y1263612D1*
X1025173Y1267882D1*
X1017562Y1273412D1*
X1010908Y1280066D1*
X1006533Y1285949D1*
X452812Y3241749D2*
X560226D1*
Y3121836D1*
X544845D1*
X548776Y3117034D1*
X553690Y3109012D1*
X557291Y3100320D1*
X559488Y3091172D1*
X560226Y3081793D1*
X559488Y3072413D1*
X557291Y3063265D1*
X553690Y3054573D1*
X548776Y3046551D1*
X542665Y3039396D1*
X535510Y3033286D1*
X533324Y3031825D1*
X539207Y3027385D1*
X545861Y3020731D1*
X551391Y3013119D1*
X555661Y3004738D1*
X558570Y2995789D1*
X560041Y2986497D1*
Y2977088D1*
X558570Y2967797D1*
X555661Y2958848D1*
X551391Y2950466D1*
X545861Y2942854D1*
X539207Y2936201D1*
X533324Y2931825D1*
X539207Y2927385D1*
X545861Y2920731D1*
X551391Y2913119D1*
X555661Y2904738D1*
X558570Y2895789D1*
X560041Y2886497D1*
Y2877088D1*
X558570Y2867797D1*
X555661Y2858848D1*
X551391Y2850466D1*
X545861Y2842854D1*
X539207Y2836201D1*
X533324Y2831825D1*
X539207Y2827385D1*
X545861Y2820731D1*
X551391Y2813119D1*
X555661Y2804738D1*
X558570Y2795789D1*
X560041Y2786497D1*
Y2777088D1*
X558570Y2767797D1*
X555661Y2758848D1*
X551391Y2750466D1*
X545861Y2742854D1*
X539207Y2736201D1*
X531596Y2730671D1*
X523214Y2726400D1*
X514265Y2723492D1*
X504974Y2722021D1*
X495564D1*
X486273Y2723492D1*
X477324Y2726400D1*
X468942Y2730671D1*
X461331Y2736201D1*
X454677Y2742854D1*
X449147Y2750466D1*
X444877Y2758848D1*
X441969Y2767797D1*
X440497Y2777088D1*
Y2786497D1*
X441969Y2795789D1*
X444877Y2804738D1*
X449147Y2813119D1*
X454677Y2820731D1*
X461331Y2827385D1*
X467214Y2831760D1*
X461331Y2836201D1*
X454677Y2842854D1*
X449147Y2850466D1*
X444877Y2858848D1*
X441969Y2867797D1*
X440497Y2877088D1*
Y2886497D1*
X441969Y2895789D1*
X444877Y2904738D1*
X449147Y2913119D1*
X454677Y2920731D1*
X461331Y2927385D1*
X467214Y2931760D1*
X461331Y2936201D1*
X454677Y2942854D1*
X449147Y2950466D1*
X444877Y2958848D1*
X441969Y2967797D1*
X440497Y2977088D1*
Y2986497D1*
X441969Y2995789D1*
X444877Y3004738D1*
X449147Y3013119D1*
X454677Y3020731D1*
X461331Y3027385D1*
X467214Y3031760D1*
X461331Y3036201D1*
X454677Y3042854D1*
X449147Y3050466D1*
X444877Y3058848D1*
X441969Y3067797D1*
X440497Y3077088D1*
Y3086497D1*
X441969Y3095789D1*
X444877Y3104738D1*
X449147Y3113119D1*
X454677Y3120731D1*
X455689Y3121825D1*
X440312Y3121836D1*
Y3241749D1*
X452812D1*
X560041Y2477088D2*
X558570Y2467797D1*
X555661Y2458848D1*
X551391Y2450466D1*
X545861Y2442854D1*
X539207Y2436201D1*
X531596Y2430671D1*
X523214Y2426400D1*
X514265Y2423492D1*
X504974Y2422021D1*
X495564D1*
X486273Y2423492D1*
X477324Y2426400D1*
X468942Y2430671D1*
X461331Y2436201D1*
X454677Y2442854D1*
X449147Y2450466D1*
X444877Y2458848D1*
X441969Y2467797D1*
X440497Y2477088D1*
Y2486497D1*
X441969Y2495789D1*
X444877Y2504738D1*
X449147Y2513119D1*
X454677Y2520731D1*
X461331Y2527385D1*
X468942Y2532915D1*
X477324Y2537185D1*
X486273Y2540093D1*
X495564Y2541564D1*
X504974D1*
X514265Y2540093D1*
X523214Y2537185D1*
X531596Y2532915D1*
X539207Y2527385D1*
X545861Y2520731D1*
X551391Y2513119D1*
X555661Y2504738D1*
X558570Y2495789D1*
X560041Y2486497D1*
Y2477088D1*
X2328009Y2716694D2*
X2330890D1*
X2326959Y2721496D1*
X2322045Y2729518D1*
X2318444Y2738210D1*
X2316247Y2747358D1*
X2315509Y2756738D1*
X2316247Y2766117D1*
X2318444Y2775265D1*
X2322045Y2783957D1*
X2326959Y2791979D1*
X2333070Y2799134D1*
X2340224Y2805244D1*
X2342411Y2806705D1*
X2336528Y2811146D1*
X2329874Y2817799D1*
X2324344Y2825411D1*
X2320073Y2833793D1*
X2317165Y2842741D1*
X2315694Y2852033D1*
Y2861442D1*
X2317165Y2870734D1*
X2320073Y2879682D1*
X2324344Y2888064D1*
X2329874Y2895676D1*
X2336528Y2902329D1*
X2342411Y2906705D1*
X2336528Y2911146D1*
X2329874Y2917799D1*
X2324344Y2925411D1*
X2320073Y2933793D1*
X2317165Y2942741D1*
X2315694Y2952033D1*
Y2961442D1*
X2317165Y2970734D1*
X2320073Y2979682D1*
X2324344Y2988064D1*
X2329874Y2995676D1*
X2336528Y3002329D1*
X2342411Y3006705D1*
X2336528Y3011146D1*
X2329874Y3017799D1*
X2324344Y3025411D1*
X2320073Y3033793D1*
X2317165Y3042741D1*
X2315694Y3052033D1*
Y3061442D1*
X2317165Y3070734D1*
X2320073Y3079682D1*
X2324344Y3088064D1*
X2329874Y3095676D1*
X2336528Y3102329D1*
X2342411Y3106705D1*
X2336528Y3111146D1*
X2329874Y3117799D1*
X2324344Y3125411D1*
X2320073Y3133793D1*
X2317165Y3142741D1*
X2315694Y3152033D1*
Y3161442D1*
X2317165Y3170734D1*
X2320073Y3179682D1*
X2324344Y3188064D1*
X2329874Y3195676D1*
X2336528Y3202329D1*
X2342411Y3206705D1*
X2336528Y3211146D1*
X2329874Y3217799D1*
X2324344Y3225411D1*
X2320073Y3233793D1*
X2317165Y3242741D1*
X2315694Y3252033D1*
Y3261442D1*
X2317165Y3270734D1*
X2320073Y3279682D1*
X2324344Y3288064D1*
X2329874Y3295676D1*
X2336528Y3302329D1*
X2342411Y3306705D1*
X2336528Y3311146D1*
X2329874Y3317799D1*
X2324344Y3325411D1*
X2320073Y3333793D1*
X2317165Y3342741D1*
X2315694Y3352033D1*
Y3361442D1*
X2317165Y3370734D1*
X2320073Y3379682D1*
X2324344Y3388064D1*
X2329874Y3395676D1*
X2336528Y3402329D1*
X2342411Y3406705D1*
X2336528Y3411146D1*
X2329874Y3417799D1*
X2324344Y3425411D1*
X2320073Y3433793D1*
X2317165Y3442741D1*
X2315694Y3452033D1*
Y3461442D1*
X2317165Y3470734D1*
X2320073Y3479682D1*
X2324344Y3488064D1*
X2329874Y3495676D1*
X2336528Y3502329D1*
X2342411Y3506705D1*
X2336528Y3511146D1*
X2329874Y3517799D1*
X2324344Y3525411D1*
X2320073Y3533793D1*
X2317165Y3542741D1*
X2315694Y3552033D1*
Y3561442D1*
X2317165Y3570734D1*
X2320073Y3579682D1*
X2324344Y3588064D1*
X2329874Y3595676D1*
X2336528Y3602329D1*
X2344139Y3607860D1*
X2352521Y3612130D1*
X2361470Y3615038D1*
X2370761Y3616509D1*
X2380171D1*
X2389462Y3615038D1*
X2398411Y3612130D1*
X2406793Y3607860D1*
X2414404Y3602329D1*
X2421058Y3595676D1*
X2426588Y3588064D1*
X2430858Y3579682D1*
X2433766Y3570734D1*
X2435238Y3561442D1*
Y3552033D1*
X2433766Y3542741D1*
X2430858Y3533793D1*
X2426588Y3525411D1*
X2421058Y3517799D1*
X2414404Y3511146D1*
X2408521Y3506770D1*
X2414404Y3502329D1*
X2421058Y3495676D1*
X2426588Y3488064D1*
X2430858Y3479682D1*
X2433766Y3470734D1*
X2435238Y3461442D1*
Y3452033D1*
X2433766Y3442741D1*
X2430858Y3433793D1*
X2426588Y3425411D1*
X2421058Y3417799D1*
X2414404Y3411146D1*
X2408521Y3406770D1*
X2414404Y3402329D1*
X2421058Y3395676D1*
X2426588Y3388064D1*
X2430858Y3379682D1*
X2433766Y3370734D1*
X2435238Y3361442D1*
Y3352033D1*
X2433766Y3342741D1*
X2430858Y3333793D1*
X2426588Y3325411D1*
X2421058Y3317799D1*
X2414404Y3311146D1*
X2408521Y3306770D1*
X2414404Y3302329D1*
X2421058Y3295676D1*
X2426588Y3288064D1*
X2430858Y3279682D1*
X2433766Y3270734D1*
X2435238Y3261442D1*
Y3252033D1*
X2433766Y3242741D1*
X2430858Y3233793D1*
X2426588Y3225411D1*
X2421058Y3217799D1*
X2414404Y3211146D1*
X2408521Y3206770D1*
X2414404Y3202329D1*
X2421058Y3195676D1*
X2426588Y3188064D1*
X2430858Y3179682D1*
X2433766Y3170734D1*
X2435238Y3161442D1*
Y3152033D1*
X2433766Y3142741D1*
X2430858Y3133793D1*
X2426588Y3125411D1*
X2421058Y3117799D1*
X2414404Y3111146D1*
X2408521Y3106770D1*
X2414404Y3102329D1*
X2421058Y3095676D1*
X2426588Y3088064D1*
X2430858Y3079682D1*
X2433766Y3070734D1*
X2435238Y3061442D1*
Y3052033D1*
X2433766Y3042741D1*
X2430858Y3033793D1*
X2426588Y3025411D1*
X2421058Y3017799D1*
X2414404Y3011146D1*
X2408521Y3006770D1*
X2414404Y3002329D1*
X2421058Y2995676D1*
X2426588Y2988064D1*
X2430858Y2979682D1*
X2433766Y2970734D1*
X2435238Y2961442D1*
Y2952033D1*
X2433766Y2942741D1*
X2430858Y2933793D1*
X2426588Y2925411D1*
X2421058Y2917799D1*
X2414404Y2911146D1*
X2408521Y2906770D1*
X2414404Y2902329D1*
X2421058Y2895676D1*
X2426588Y2888064D1*
X2430858Y2879682D1*
X2433766Y2870734D1*
X2435238Y2861442D1*
Y2852033D1*
X2433766Y2842741D1*
X2430858Y2833793D1*
X2426588Y2825411D1*
X2421058Y2817799D1*
X2414404Y2811146D1*
X2408521Y2806770D1*
X2414404Y2802329D1*
X2421058Y2795676D1*
X2426588Y2788064D1*
X2430858Y2779682D1*
X2433766Y2770734D1*
X2435238Y2761442D1*
Y2752033D1*
X2433766Y2742741D1*
X2430858Y2733793D1*
X2426588Y2725411D1*
X2421058Y2717799D1*
X2420046Y2716705D1*
X2435423Y2716694D1*
Y2596781D1*
X2315509D1*
Y2716694D1*
X2328009D1*
D17*
X500272Y2300450D3*
D18*
Y2200450D3*
Y2100450D3*
Y2000450D3*
Y1900450D3*
Y1800450D3*
Y1700450D3*
Y1600450D3*
D17*
X500269Y1419108D3*
D18*
Y1319108D3*
Y1219108D3*
Y1119108D3*
Y1019108D3*
Y919108D3*
Y819108D3*
Y719108D3*
D17*
X2381717Y925306D3*
D18*
Y1025306D3*
Y1125306D3*
Y1225306D3*
Y1325306D3*
Y1425306D3*
Y1525306D3*
Y1625306D3*
D17*
Y637776D3*
D18*
Y537776D3*
X2281717Y637776D3*
Y537776D3*
X2181717Y637776D3*
Y537776D3*
X2081717Y637776D3*
Y537776D3*
X1981717Y637776D3*
Y537776D3*
X1881717Y637776D3*
Y537776D3*
X1781717Y637776D3*
Y537776D3*
X1681717Y637776D3*
Y537776D3*
X1581717Y637776D3*
Y537776D3*
X1481717Y637776D3*
Y537776D3*
X1381717Y637776D3*
Y537776D3*
X1281717Y637776D3*
Y537776D3*
X1181717Y637776D3*
Y537776D3*
X1081717Y637776D3*
Y537776D3*
X981717Y637776D3*
Y537776D3*
X881717Y637776D3*
Y537776D3*
X781717Y637776D3*
Y537776D3*
X681717Y637776D3*
Y537776D3*
D17*
X956567Y3019276D3*
D18*
X1056567D3*
X956567Y2919276D3*
X1056567D3*
X956567Y2819276D3*
X1056567D3*
X956567Y2719276D3*
X1056567D3*
X956567Y2619276D3*
X1056567D3*
D17*
X1825408Y3019276D3*
D18*
X1925408D3*
X1825408Y2919276D3*
X1925408D3*
X1825408Y2819276D3*
X1925408D3*
X1825408Y2719276D3*
X1925408D3*
X1825408Y2619276D3*
X1925408D3*
D17*
X956500Y2219010D3*
D18*
X1056500D3*
X956500Y2119010D3*
X1056500D3*
X956500Y2019010D3*
X1056500D3*
X956500Y1919010D3*
X1056500D3*
X956500Y1819010D3*
X1056500D3*
D17*
X1825249Y2219010D3*
D18*
X1925249D3*
X1825249Y2119010D3*
X1925249D3*
X1825249Y2019010D3*
X1925249D3*
X1825249Y1919010D3*
X1925249D3*
X1825249Y1819010D3*
X1925249D3*
D17*
X956500Y1419004D3*
D18*
X1056500D3*
X956500Y1319004D3*
X1056500D3*
X956500Y1219004D3*
X1056500D3*
X956500Y1119004D3*
X1056500D3*
X956500Y1019004D3*
X1056500D3*
D17*
X1825249Y1419004D3*
D18*
X1925249D3*
X1825249Y1319004D3*
X1925249D3*
X1825249Y1219004D3*
X1925249D3*
X1825249Y1119004D3*
X1925249D3*
X1825249Y1019004D3*
X1925249D3*
D17*
X500269Y3181793D3*
D18*
Y3081793D3*
Y2981793D3*
Y2881793D3*
Y2781793D3*
Y2681793D3*
Y2581793D3*
Y2481793D3*
D17*
X2375466Y2656738D3*
D18*
Y2756738D3*
Y2856738D3*
Y2956738D3*
Y3056738D3*
Y3156738D3*
Y3256738D3*
Y3356738D3*
Y3456738D3*
Y3556738D3*
D17*
Y1806648D3*
D18*
Y1906648D3*
Y2006648D3*
Y2106648D3*
Y2206648D3*
Y2306648D3*
Y2406648D3*
Y2506648D3*
D17*
X1543963Y3531520D3*
D18*
Y3431520D3*
X1443963Y3531520D3*
Y3431520D3*
X1343963Y3531520D3*
Y3431520D3*
X1243963Y3531520D3*
Y3431520D3*
X1143963Y3531520D3*
Y3431520D3*
X1043963Y3531520D3*
Y3431520D3*
X943963Y3531520D3*
Y3431520D3*
X843963Y3531520D3*
Y3431520D3*
X743963Y3531520D3*
Y3431520D3*
X643963Y3531520D3*
Y3431520D3*
D17*
X2031680Y3531829D3*
D18*
Y3431829D3*
X1931680Y3531829D3*
Y3431829D3*
X1831680Y3531829D3*
Y3431829D3*
X2356714Y769039D3*
X2431722D3*
M02*
