G04 DipTrace 3.0.0.1*
G04 arm_arduino_shield_lay_V9.GBO*
%MOIN*%
G04 #@! TF.FileFunction,Legend,Bot*
G04 #@! TF.Part,Single*
%ADD15C,0.008*%
%ADD35C,0.006176*%
%FSLAX26Y26*%
G04*
G70*
G90*
G75*
G01*
G04 BotSilk*
%LPD*%
X844055Y3638091D2*
D15*
X525272D1*
X844055D2*
Y3606837D1*
X2363557Y2346227D2*
D35*
Y2306035D1*
Y2327082D2*
X2359710Y2330928D1*
X2355908Y2332830D1*
X2350160D1*
X2346357Y2330928D1*
X2342511Y2327082D1*
X2340609Y2321334D1*
Y2317531D1*
X2342511Y2311783D1*
X2346357Y2307980D1*
X2350160Y2306035D1*
X2355908D1*
X2359710Y2307980D1*
X2363557Y2311783D1*
X2322510Y2346227D2*
Y2313684D1*
X2320609Y2307980D1*
X2316762Y2306035D1*
X2312959D1*
X2328258Y2332830D2*
X2314861D1*
X1552399Y3236840D2*
X1556202Y3234938D1*
X1560049Y3231092D1*
X1561950Y3227289D1*
Y3219640D1*
X1560049Y3215793D1*
X1556202Y3211991D1*
X1552399Y3210045D1*
X1546651Y3208144D1*
X1537057D1*
X1531353Y3210045D1*
X1527506Y3211991D1*
X1523704Y3215793D1*
X1521758Y3219640D1*
Y3227289D1*
X1523704Y3231092D1*
X1527506Y3234938D1*
X1531353Y3236840D1*
X1561950Y3249191D2*
X1560049Y3251092D1*
X1561950Y3253038D1*
X1563896Y3251092D1*
X1561950Y3249191D1*
X1548553Y3251092D2*
X1521758D1*
X1548553Y3265389D2*
X1521758D1*
X1540903D2*
X1546651Y3271137D1*
X1548553Y3274984D1*
Y3280688D1*
X1546651Y3284535D1*
X1540903Y3286436D1*
X1521758D1*
X1541832Y3298787D2*
Y3320895D1*
X1554257Y3333246D2*
X1556202Y3337093D1*
X1561906Y3342841D1*
X1521758D1*
X1554257Y3355193D2*
X1556202Y3359039D1*
X1561906Y3364787D1*
X1521758D1*
X1234996Y3171833D2*
X1194804D1*
Y3185231D1*
X1196750Y3190979D1*
X1200552Y3194825D1*
X1204399Y3196727D1*
X1210103Y3198628D1*
X1219697D1*
X1225445Y3196727D1*
X1229248Y3194825D1*
X1233095Y3190979D1*
X1234996Y3185231D1*
Y3171833D1*
Y3210979D2*
X1194804D1*
X1215851Y3223331D2*
Y3240531D1*
X1217796Y3246279D1*
X1219697Y3248224D1*
X1223500Y3250125D1*
X1227347D1*
X1231149Y3248224D1*
X1233095Y3246279D1*
X1234996Y3240531D1*
Y3223331D1*
X1194804D1*
X1215851Y3236728D2*
X1194804Y3250125D1*
X1214878Y3262477D2*
Y3284585D1*
X1225401Y3298881D2*
X1227302D1*
X1231149Y3300783D1*
X1233050Y3302684D1*
X1234952Y3306531D1*
Y3314180D1*
X1233050Y3317983D1*
X1231149Y3319884D1*
X1227302Y3321829D1*
X1223500D1*
X1219653Y3319884D1*
X1213949Y3316081D1*
X1194804Y3296936D1*
Y3323731D1*
X1225401Y3338027D2*
X1227302D1*
X1231149Y3339929D1*
X1233051Y3341830D1*
X1234952Y3345677D1*
Y3353326D1*
X1233051Y3357129D1*
X1231149Y3359030D1*
X1227303Y3360975D1*
X1223500D1*
X1219653Y3359030D1*
X1213949Y3355227D1*
X1194804Y3336082D1*
Y3362877D1*
X1150198Y3219862D2*
Y3195013D1*
X1110006D1*
Y3219863D1*
X1131053Y3195013D2*
Y3210312D1*
X1150198Y3259009D2*
X1110006D1*
X1150198Y3232214D1*
X1110006D1*
X1130080Y3271360D2*
Y3293468D1*
X1140603Y3307765D2*
X1142505D1*
X1146351Y3309666D1*
X1148253Y3311567D1*
X1150154Y3315414D1*
Y3323063D1*
X1148253Y3326866D1*
X1146351Y3328767D1*
X1142505Y3330713D1*
X1138702D1*
X1134855Y3328767D1*
X1129151Y3324965D1*
X1110006Y3305819D1*
Y3332614D1*
X1150154Y3348812D2*
Y3369814D1*
X1134855Y3358362D1*
Y3364110D1*
X1132954Y3367913D1*
X1131053Y3369814D1*
X1125305Y3371760D1*
X1121502D1*
X1115754Y3369814D1*
X1111907Y3366012D1*
X1110006Y3360264D1*
Y3354516D1*
X1111907Y3348812D1*
X1113853Y3346911D1*
X1117655Y3344965D1*
X1051098Y3162197D2*
X1010906D1*
Y3175595D1*
X1012852Y3181343D1*
X1016654Y3185189D1*
X1020501Y3187091D1*
X1026205Y3188992D1*
X1035800D1*
X1041548Y3187091D1*
X1045350Y3185189D1*
X1049197Y3181343D1*
X1051098Y3175595D1*
Y3162197D1*
Y3201343D2*
X1010906D1*
X1041548Y3242391D2*
X1045350Y3240489D1*
X1049197Y3236643D1*
X1051098Y3232840D1*
Y3225191D1*
X1049197Y3221344D1*
X1045350Y3217542D1*
X1041548Y3215596D1*
X1035800Y3213695D1*
X1026205D1*
X1020501Y3215596D1*
X1016654Y3217542D1*
X1012852Y3221344D1*
X1010906Y3225191D1*
Y3232840D1*
X1012852Y3236643D1*
X1016654Y3240489D1*
X1020501Y3242391D1*
X1026205D1*
Y3232840D1*
X1043405Y3254742D2*
X1045350Y3258589D1*
X1051054Y3264337D1*
X1010906D1*
X1030980Y3276688D2*
Y3298796D1*
X1041504Y3313093D2*
X1043405D1*
X1047252Y3314994D1*
X1049153Y3316896D1*
X1051054Y3320742D1*
Y3328392D1*
X1049153Y3332194D1*
X1047252Y3334095D1*
X1043405Y3336041D1*
X1039602D1*
X1035756Y3334095D1*
X1030052Y3330293D1*
X1010906Y3311148D1*
Y3337942D1*
Y3369439D2*
X1051054D1*
X1024304Y3350294D1*
Y3378989D1*
X956349Y3145971D2*
X916157D1*
Y3159368D1*
X918103Y3165116D1*
X921905Y3168963D1*
X925752Y3170864D1*
X931456Y3172766D1*
X941050D1*
X946798Y3170864D1*
X950601Y3168963D1*
X954448Y3165116D1*
X956349Y3159368D1*
Y3145971D1*
Y3185117D2*
X916157D1*
X946798Y3226164D2*
X950601Y3224263D1*
X954448Y3220416D1*
X956349Y3216614D1*
Y3208964D1*
X954448Y3205118D1*
X950601Y3201315D1*
X946798Y3199370D1*
X941050Y3197468D1*
X931456D1*
X925752Y3199370D1*
X921905Y3201315D1*
X918103Y3205118D1*
X916157Y3208964D1*
Y3216614D1*
X918103Y3220416D1*
X921905Y3224263D1*
X925752Y3226164D1*
X931456D1*
Y3216614D1*
X946754Y3240461D2*
X948655D1*
X952502Y3242362D1*
X954404Y3244264D1*
X956305Y3248111D1*
Y3255760D1*
X954404Y3259562D1*
X952502Y3261464D1*
X948655Y3263409D1*
X944853D1*
X941006Y3261464D1*
X935302Y3257661D1*
X916157Y3238516D1*
Y3265310D1*
X936231Y3277662D2*
Y3299770D1*
X946754Y3314066D2*
X948655D1*
X952502Y3315968D1*
X954404Y3317869D1*
X956305Y3321716D1*
Y3329365D1*
X954404Y3333168D1*
X952502Y3335069D1*
X948655Y3337014D1*
X944853D1*
X941006Y3335069D1*
X935302Y3331266D1*
X916157Y3312121D1*
Y3338916D1*
X956305Y3374215D2*
Y3355114D1*
X939105Y3353212D1*
X941006Y3355114D1*
X942952Y3360862D1*
Y3366566D1*
X941006Y3372314D1*
X937204Y3376160D1*
X931456Y3378062D1*
X927653D1*
X921905Y3376160D1*
X918058Y3372314D1*
X916157Y3366566D1*
Y3360862D1*
X918058Y3355114D1*
X920004Y3353213D1*
X923806Y3351267D1*
X837754Y3084878D2*
Y3102078D1*
X839699Y3107826D1*
X841600Y3109771D1*
X845403Y3111673D1*
X849250D1*
X853052Y3109771D1*
X854998Y3107826D1*
X856899Y3102078D1*
Y3084878D1*
X816707D1*
X837754Y3098275D2*
X816707Y3111673D1*
X856899Y3148873D2*
Y3124024D1*
X816707D1*
Y3148873D1*
X837754Y3124024D2*
Y3139323D1*
X816707Y3191866D2*
X856899Y3176523D1*
X816707Y3161225D1*
X830104Y3166973D2*
Y3186118D1*
X856899Y3204217D2*
X816707D1*
Y3217615D1*
X818652Y3223363D1*
X822455Y3227209D1*
X826302Y3229111D1*
X832006Y3231012D1*
X841600D1*
X847348Y3229111D1*
X851151Y3227209D1*
X854998Y3223363D1*
X856899Y3217615D1*
Y3204217D1*
Y3243363D2*
X837754Y3258662D1*
X816707D1*
X856899Y3273961D2*
X837754Y3258662D1*
X836781Y3286312D2*
Y3308420D1*
X847304Y3322717D2*
X849205D1*
X853052Y3324618D1*
X854953Y3326519D1*
X856855Y3330366D1*
Y3338015D1*
X854953Y3341818D1*
X853052Y3343719D1*
X849205Y3345665D1*
X845403D1*
X841556Y3343719D1*
X835852Y3339917D1*
X816707Y3320771D1*
Y3347566D1*
X851151Y3382865D2*
X854953Y3380964D1*
X856855Y3375216D1*
Y3371413D1*
X854953Y3365665D1*
X849205Y3361818D1*
X839655Y3359917D1*
X830104D1*
X822455Y3361819D1*
X818608Y3365665D1*
X816707Y3371413D1*
Y3373315D1*
X818608Y3379018D1*
X822455Y3382865D1*
X828203Y3384766D1*
X830104D1*
X835852Y3382865D1*
X839655Y3379018D1*
X841556Y3373315D1*
Y3371413D1*
X839655Y3365665D1*
X835852Y3361818D1*
X830104Y3359917D1*
X1358405Y3609726D2*
Y3590624D1*
X1341205Y3588723D1*
X1343106Y3590625D1*
X1345051Y3596373D1*
Y3602076D1*
X1343106Y3607824D1*
X1339303Y3611671D1*
X1333555Y3613572D1*
X1329753D1*
X1324005Y3611671D1*
X1320158Y3607824D1*
X1318257Y3602076D1*
Y3596373D1*
X1320158Y3590625D1*
X1322104Y3588723D1*
X1325906Y3586778D1*
X1358449Y3625924D2*
X1318257Y3641222D1*
X1358449Y3656521D1*
X1355197Y3309469D2*
X1359000Y3307568D1*
X1362847Y3303721D1*
X1364748Y3299918D1*
Y3292269D1*
X1362847Y3288422D1*
X1359000Y3284620D1*
X1355197Y3282674D1*
X1349449Y3280773D1*
X1339855D1*
X1334151Y3282674D1*
X1330304Y3284620D1*
X1326501Y3288422D1*
X1324556Y3292269D1*
Y3299919D1*
X1326501Y3303721D1*
X1330304Y3307568D1*
X1334151Y3309469D1*
X1339855D1*
Y3299919D1*
X1364748Y3348615D2*
X1324556D1*
X1364748Y3321820D1*
X1324556D1*
X1364748Y3360966D2*
X1324556Y3360967D1*
Y3374364D1*
X1326501Y3380112D1*
X1330304Y3383959D1*
X1334151Y3385860D1*
X1339855Y3387761D1*
X1349449D1*
X1355197Y3385860D1*
X1359000Y3383959D1*
X1362847Y3380112D1*
X1364748Y3374364D1*
Y3360966D1*
X502614Y3478234D2*
X506461Y3474432D1*
X508362Y3468684D1*
Y3461034D1*
X506461Y3455286D1*
X502614Y3451440D1*
X498812D1*
X494965Y3453385D1*
X493064Y3455286D1*
X491162Y3459089D1*
X487316Y3470585D1*
X485414Y3474432D1*
X483469Y3476333D1*
X479666Y3478234D1*
X473918D1*
X470116Y3474432D1*
X468170Y3468684D1*
Y3461034D1*
X470116Y3455286D1*
X473918Y3451440D1*
X468170Y3521183D2*
X508362D1*
X468170Y3505884D1*
X508362Y3490586D1*
X468170D1*
X488244Y3533534D2*
Y3555642D1*
X468170Y3598635D2*
X508362Y3583292D1*
X468170Y3567993D1*
X481567Y3573741D2*
Y3592887D1*
X468170Y3618635D2*
X508318Y3637781D1*
Y3610986D1*
M02*
