G04 DipTrace 3.0.0.1*
G04 arm_arduino_shield_lay_V9.GTL*
%MOIN*%
G04 #@! TF.FileFunction,Copper,L1,Top*
G04 #@! TF.Part,Single*
G04 #@! TA.AperFunction,Conductor*
%ADD14C,0.019685*%
%ADD15C,0.008*%
G04 #@! TA.AperFunction,ViaPad*
%ADD16C,0.025*%
G04 #@! TA.AperFunction,ComponentPad*
%ADD17R,0.066929X0.066929*%
%ADD18C,0.066929*%
%ADD19R,0.03937X0.043307*%
G04 #@! TA.AperFunction,ViaPad*
%ADD20C,0.04*%
%FSLAX26Y26*%
G04*
G70*
G90*
G75*
G01*
G04 Top*
%LPD*%
X2381717Y637776D2*
D14*
Y537776D1*
Y475259D1*
X2337962Y431504D1*
X650285D1*
X581528Y500261D1*
Y681530D1*
X750295Y850298D1*
X1131585D2*
X1231596D1*
X1310034Y928736D1*
X1394113Y1012815D1*
X1400364Y1131577D2*
Y1181583D1*
Y1269092D1*
Y1356601D1*
X1406614Y1925411D2*
Y1981667D1*
Y1985521D1*
Y2019171D1*
Y2744247D2*
Y2869260D1*
Y2975521D1*
X956567Y2819276D2*
D15*
Y2838007D1*
X987820Y2869260D1*
X1406614D1*
X956500Y2019010D2*
X968908D1*
X1019073Y2069176D1*
X1262849D1*
X1350358Y1981667D1*
X1406614D1*
X1825249Y2019010D2*
Y2031672D1*
X1481622D1*
X1431617Y1981667D1*
X1402760D1*
X1406614Y1985521D1*
X956500Y1219004D2*
Y1225270D1*
X1000322Y1269092D1*
X1400364D1*
X1825249Y1219004D2*
X1800323D1*
X1681643Y1100324D1*
X1519126D1*
X1437867Y1181583D1*
X1400364D1*
X956567Y2619276D2*
Y2594231D1*
X1019073Y2531724D1*
X1362860D1*
X1825408Y2619276D2*
X1737857Y2531724D1*
X1362860D1*
X956500Y1819010D2*
Y1787963D1*
X1050327Y1694136D1*
X1387862D1*
X1825249Y1819010D2*
Y1800239D1*
X1712896Y1687886D1*
X1394113D1*
X1387862Y1694136D1*
X956500Y1019004D2*
Y900370D1*
X975319Y881551D1*
X1825249Y1019004D2*
Y1018907D1*
X1719147Y912804D1*
X1325966D1*
X1310034Y928736D1*
X2237951Y3504999D2*
Y3500576D1*
X2194197Y3544331D1*
X2044181D1*
X2031680Y3531829D1*
X1931680D1*
X2237951Y3367484D2*
X2027257D1*
X1981675Y3413067D1*
Y3481824D1*
X2031680Y3531829D1*
X1562881Y3019276D2*
Y2731745D1*
Y2000419D2*
Y1831651D1*
X1543963Y3431520D2*
Y3406982D1*
X1850411Y3100534D1*
X2231669D1*
X2375466Y2956738D1*
X1637888Y3019276D2*
Y2731745D1*
Y2000419D2*
Y1831651D1*
X1600385Y3019276D2*
Y2731745D1*
Y2000419D2*
Y1831651D1*
X1487873Y3006774D2*
Y2737996D1*
Y2000419D2*
Y1831651D1*
X956567Y2719276D2*
X887749D1*
Y1969010D1*
Y1919010D1*
Y1169010D1*
Y1119004D1*
Y643808D1*
X881717Y637776D1*
X956500Y1119004D2*
X887749D1*
X956500Y1919010D2*
X887749D1*
X1825249D2*
Y1906509D1*
X1687749Y1769009D1*
X1294000D1*
X1093999Y1969010D1*
X887749D1*
X1825408Y2719276D2*
Y2694009D1*
X1181499D1*
X1106499Y2769009D1*
X918999D1*
X887749Y2737760D1*
Y2719276D1*
X1825249Y1119004D2*
Y1137759D1*
X1756500Y1069009D1*
X1175251D1*
X1075249Y1169010D1*
X887749D1*
X1925249Y2219010D2*
X2287828D1*
X2375466Y2306648D1*
X843963Y3531520D2*
X863025Y3550581D1*
X831554D1*
Y3556832D1*
X806551Y3581835D1*
X619031D1*
X587749Y3550552D1*
Y1687928D1*
X500272Y1600450D1*
X1825249Y2219010D2*
X1893999Y2287760D1*
X2119000D1*
X2162749Y2244010D1*
Y1681510D2*
X2156499D1*
Y1012558D1*
X1781717Y637776D1*
X1056500Y1419004D2*
X1687822D1*
X2375466Y2106648D1*
X1825249Y2119010D2*
Y2112761D1*
X1869000Y2069010D1*
X1944000D1*
X2081500Y1931510D1*
X2181499Y1550260D2*
Y956509D1*
X1912749Y687760D1*
X1862749D1*
X1831499Y656509D1*
Y575259D1*
X1794016Y537776D1*
X1781717D1*
X1925249Y1419004D2*
Y1556432D1*
X2375466Y2006648D1*
X1825408Y3019276D2*
X1875675Y2969009D1*
X1981500D1*
X2287749Y2662760D1*
Y2300260D1*
Y1750260D2*
Y844010D1*
X2131499Y687760D1*
Y587558D1*
X2081717Y537776D1*
X1825408Y2919276D2*
Y2906352D1*
X1862749Y2869010D1*
X1962749D1*
X1975249Y2856510D1*
Y2837760D1*
X2237749Y2575260D1*
Y2281510D1*
X2231499Y1769010D2*
Y887558D1*
X1981717Y637776D1*
X1925408Y2919276D2*
X1962484D1*
X2262749Y2619010D1*
Y2250260D1*
X2256499D1*
X2262749Y1794009D2*
Y887760D1*
X2031499Y656509D1*
Y587558D1*
X1981717Y537776D1*
X1925408Y2619276D2*
X2118734D1*
X2206499Y2531510D1*
Y2250260D1*
Y1731510D2*
Y937760D1*
X1931499Y662760D1*
Y587558D1*
X1881717Y537776D1*
X1925249Y2119010D2*
X1931499D1*
X2131499Y1919010D1*
Y1712760D2*
Y1087558D1*
X1681717Y637776D1*
X1925249Y1819010D2*
X2043999D1*
X2106500Y1550260D2*
Y1112761D1*
X1943999Y950260D1*
X1912749D1*
X1631499Y669009D1*
Y587993D1*
X1681717Y537776D1*
X1825249Y1419004D2*
X1768993D1*
X1687749Y1337760D1*
Y1181510D1*
X1631499Y1125260D1*
X1575249Y1194010D2*
Y1125260D1*
X1525249Y1206509D2*
Y1131510D1*
X1925249Y1019004D2*
X1925243D1*
X1737749Y831510D1*
X1575451D1*
X1381717Y637776D1*
X1056500Y1019004D2*
Y862992D1*
X1281717Y637776D1*
X1187749Y1237760D2*
Y1119010D1*
X1181500Y1125260D1*
X1237749Y1244009D2*
Y1137760D1*
X837749Y1200260D2*
Y787760D1*
X844000Y781509D1*
X800249Y1762760D2*
Y762760D1*
X834625Y728385D1*
X775249Y1994009D2*
Y994088D1*
X500269Y719108D1*
X737749Y1994010D2*
Y1056588D1*
X500269Y819108D1*
X712749Y2050260D2*
Y1131588D1*
X500269Y919108D1*
X681538Y2062925D2*
Y1200377D1*
X500269Y1019108D1*
X656499Y2656509D2*
Y1375337D1*
X500269Y1219108D1*
X631499Y2687760D2*
Y1450337D1*
X500269Y1319108D1*
X662749Y2756510D2*
X656500D1*
X606499Y2706509D1*
Y1525337D1*
X500269Y1419108D1*
X500272Y2300450D2*
Y2368988D1*
X437749Y2431510D1*
Y2819273D1*
X500269Y2881793D1*
X1056500Y2219010D2*
X1731500D1*
X1781500Y2169010D1*
X2337828D1*
X2375466Y2206648D1*
X1925408Y3019276D2*
X2012928D1*
X2375466Y2656738D1*
X1056567Y3019276D2*
X1281765D1*
X1331499Y3069009D1*
X2163194D1*
X2375466Y2856738D1*
X1525377Y3019276D2*
Y2731745D1*
Y2000419D2*
Y1831509D1*
X2375466Y3556738D2*
X2356619D1*
X2237951Y3438070D1*
X2037920D1*
X2031680Y3431829D1*
X2375466Y3456738D2*
Y3438070D1*
X2237951Y3300555D1*
X2062954D1*
X1931680Y3431829D1*
D20*
X750295Y850298D3*
X1131585D3*
X1394113Y1012815D3*
X1400364Y1131577D3*
Y1356601D3*
X1406614Y1925411D3*
Y2019171D3*
Y2744247D3*
Y2975521D3*
D3*
D16*
X1362860Y2531724D3*
X1387862Y1694136D3*
X975319Y881551D3*
X1562881Y3019276D3*
Y2731745D3*
Y2000419D3*
Y1831651D3*
X1637888Y3019276D3*
Y2731745D3*
Y2000419D3*
Y1831651D3*
X1600385Y3019276D3*
Y2731745D3*
Y2000419D3*
Y1831651D3*
X1487873Y3006774D3*
Y2737996D3*
Y2000419D3*
Y1831651D3*
X2162749Y2244010D3*
Y1681510D3*
X2081500Y1931510D3*
X2181499Y1550260D3*
X2287749Y2300260D3*
Y1750260D3*
X2237749Y2281510D3*
X2231499Y1769010D3*
X2256499Y2250260D3*
X2262749Y1794009D3*
X2206499Y2250260D3*
Y1731510D3*
X2131499Y1919010D3*
Y1712760D3*
X2043999Y1819010D3*
X2106500Y1550260D3*
X1631499Y1125260D3*
X1575249Y1194010D3*
Y1125260D3*
X1525249Y1206509D3*
Y1131510D3*
X1187749Y1237760D3*
X1181500Y1125260D3*
X1237749Y1244009D3*
Y1137760D3*
X837749Y1200260D3*
X844000Y781509D3*
X800249Y1762760D3*
X834625Y728385D3*
X775249Y1994009D3*
X737749Y1994010D3*
X712749Y2050260D3*
X681538Y2062925D3*
X656499Y2656509D3*
X631499Y2687760D3*
X662749Y2756510D3*
X1525377Y3019276D3*
Y2731745D3*
Y2000419D3*
Y1831509D3*
D17*
X500272Y2300450D3*
D18*
Y2200450D3*
Y2100450D3*
Y2000450D3*
Y1900450D3*
Y1800450D3*
Y1700450D3*
Y1600450D3*
D17*
X500269Y1419108D3*
D18*
Y1319108D3*
Y1219108D3*
Y1119108D3*
Y1019108D3*
Y919108D3*
Y819108D3*
Y719108D3*
D17*
X2381717Y925306D3*
D18*
Y1025306D3*
Y1125306D3*
Y1225306D3*
Y1325306D3*
Y1425306D3*
Y1525306D3*
Y1625306D3*
D17*
Y637776D3*
D18*
Y537776D3*
X2281717Y637776D3*
Y537776D3*
X2181717Y637776D3*
Y537776D3*
X2081717Y637776D3*
Y537776D3*
X1981717Y637776D3*
Y537776D3*
X1881717Y637776D3*
Y537776D3*
X1781717Y637776D3*
Y537776D3*
X1681717Y637776D3*
Y537776D3*
X1581717Y637776D3*
Y537776D3*
X1481717Y637776D3*
Y537776D3*
X1381717Y637776D3*
Y537776D3*
X1281717Y637776D3*
Y537776D3*
X1181717Y637776D3*
Y537776D3*
X1081717Y637776D3*
Y537776D3*
X981717Y637776D3*
Y537776D3*
X881717Y637776D3*
Y537776D3*
X781717Y637776D3*
Y537776D3*
X681717Y637776D3*
Y537776D3*
D17*
X956567Y3019276D3*
D18*
X1056567D3*
X956567Y2919276D3*
X1056567D3*
X956567Y2819276D3*
X1056567D3*
X956567Y2719276D3*
X1056567D3*
X956567Y2619276D3*
X1056567D3*
D17*
X1825408Y3019276D3*
D18*
X1925408D3*
X1825408Y2919276D3*
X1925408D3*
X1825408Y2819276D3*
X1925408D3*
X1825408Y2719276D3*
X1925408D3*
X1825408Y2619276D3*
X1925408D3*
D17*
X956500Y2219010D3*
D18*
X1056500D3*
X956500Y2119010D3*
X1056500D3*
X956500Y2019010D3*
X1056500D3*
X956500Y1919010D3*
X1056500D3*
X956500Y1819010D3*
X1056500D3*
D17*
X1825249Y2219010D3*
D18*
X1925249D3*
X1825249Y2119010D3*
X1925249D3*
X1825249Y2019010D3*
X1925249D3*
X1825249Y1919010D3*
X1925249D3*
X1825249Y1819010D3*
X1925249D3*
D17*
X956500Y1419004D3*
D18*
X1056500D3*
X956500Y1319004D3*
X1056500D3*
X956500Y1219004D3*
X1056500D3*
X956500Y1119004D3*
X1056500D3*
X956500Y1019004D3*
X1056500D3*
D17*
X1825249Y1419004D3*
D18*
X1925249D3*
X1825249Y1319004D3*
X1925249D3*
X1825249Y1219004D3*
X1925249D3*
X1825249Y1119004D3*
X1925249D3*
X1825249Y1019004D3*
X1925249D3*
D17*
X500269Y3181793D3*
D18*
Y3081793D3*
Y2981793D3*
Y2881793D3*
Y2781793D3*
Y2681793D3*
Y2581793D3*
Y2481793D3*
D17*
X2375466Y2656738D3*
D18*
Y2756738D3*
Y2856738D3*
Y2956738D3*
Y3056738D3*
Y3156738D3*
Y3256738D3*
Y3356738D3*
Y3456738D3*
Y3556738D3*
D17*
Y1806648D3*
D18*
Y1906648D3*
Y2006648D3*
Y2106648D3*
Y2206648D3*
Y2306648D3*
Y2406648D3*
Y2506648D3*
D19*
X2237951Y3438070D3*
Y3504999D3*
Y3300555D3*
Y3367484D3*
D17*
X1543963Y3531520D3*
D18*
Y3431520D3*
X1443963Y3531520D3*
Y3431520D3*
X1343963Y3531520D3*
Y3431520D3*
X1243963Y3531520D3*
Y3431520D3*
X1143963Y3531520D3*
Y3431520D3*
X1043963Y3531520D3*
Y3431520D3*
X943963Y3531520D3*
Y3431520D3*
X843963Y3531520D3*
Y3431520D3*
X743963Y3531520D3*
Y3431520D3*
X643963Y3531520D3*
Y3431520D3*
D17*
X2031680Y3531829D3*
D18*
Y3431829D3*
X1931680Y3531829D3*
Y3431829D3*
X1831680Y3531829D3*
Y3431829D3*
X2356714Y769039D3*
X2431722D3*
M02*
