M48
INCH
T01C0.013
T02C0.0191
T03C0.0433
%
T01
X+013629Y+025317
X+014879Y+027380
X+015254Y+027317
X+015629Y+027317
X+016004Y+027317
X+016379Y+027317
X+016379Y+030193
X+016004Y+030193
X+015629Y+030193
X+015254Y+030193
X+014879Y+030068
X+006627Y+027565
X+006315Y+026878
X+006565Y+026565
X+006815Y+020629
X+007127Y+020503
X+007377Y+019940
X+007752Y+019940
X+008002Y+017628
X+008377Y+012003
X+009753Y+008816
X+008440Y+007815
X+008346Y+007284
X+011815Y+011253
X+012377Y+011378
X+012377Y+012440
X+011877Y+012378
X+015252Y+012065
X+015752Y+011940
X+015752Y+011253
X+015252Y+011315
X+016315Y+011253
X+013879Y+016941
X+014879Y+018317
X+015254Y+018315
X+015629Y+018317
X+016004Y+018317
X+016379Y+018317
X+016379Y+020004
X+016004Y+020004
X+015629Y+020004
X+015254Y+020004
X+014879Y+020004
X+020440Y+018190
X+020815Y+019315
X+021315Y+019190
X+022315Y+017690
X+022627Y+017940
X+022877Y+017503
X+022065Y+017315
X+021627Y+016815
X+021315Y+017128
X+021065Y+015503
X+021815Y+015503
X+021627Y+022440
X+022065Y+022503
X+022377Y+022815
X+022565Y+022503
X+022877Y+023003
T02
X+007503Y+008503
X+011316Y+008503
X+013941Y+010128
X+014004Y+011316
X+014004Y+013566
X+014066Y+019254
X+014066Y+020192
X+014066Y+027442
X+014066Y+029755
T03
X+005003Y+023005
X+005003Y+022005
X+005003Y+021005
X+005003Y+020005
X+005003Y+019005
X+005003Y+018005
X+005003Y+017005
X+005003Y+016005
X+005003Y+014191
X+005003Y+013191
X+005003Y+012191
X+005003Y+011191
X+005003Y+010191
X+005003Y+009191
X+005003Y+008191
X+005003Y+007191
X+006817Y+006378
X+006817Y+005378
X+007817Y+005378
X+008817Y+005378
X+009817Y+005378
X+010817Y+005378
X+011817Y+005378
X+012817Y+005378
X+013817Y+005378
X+014817Y+005378
X+015817Y+005378
X+016817Y+005378
X+017817Y+005378
X+018817Y+005378
X+019817Y+005378
X+020817Y+005378
X+020817Y+006378
X+019817Y+006378
X+018817Y+006378
X+017817Y+006378
X+016817Y+006378
X+015817Y+006378
X+014817Y+006378
X+013817Y+006378
X+012817Y+006378
X+011817Y+006378
X+010817Y+006378
X+009817Y+006378
X+008817Y+006378
X+007817Y+006378
X+009565Y+010190
X+009565Y+011190
X+009565Y+012190
X+009565Y+013190
X+010565Y+013190
X+010565Y+012190
X+010565Y+011190
X+010565Y+010190
X+010565Y+014190
X+009565Y+014190
X+009565Y+018190
X+009565Y+019190
X+009565Y+020190
X+009565Y+021190
X+009565Y+022190
X+010565Y+022190
X+010565Y+021190
X+010565Y+020190
X+010565Y+019190
X+010565Y+018190
X+018252Y+018190
X+018252Y+019190
X+018252Y+020190
X+018252Y+021190
X+018252Y+022190
X+019252Y+022190
X+019252Y+021190
X+019252Y+020190
X+019252Y+019190
X+019252Y+018190
X+019252Y+014190
X+018252Y+014190
X+018252Y+013190
X+018252Y+012190
X+018252Y+011190
X+019252Y+011190
X+019252Y+012190
X+019252Y+013190
X+019252Y+010190
X+018252Y+010190
X+021817Y+006378
X+021817Y+005378
X+022817Y+005378
X+022817Y+006378
X+023817Y+006378
X+023817Y+005378
X+023567Y+007690
X+024317Y+007690
X+023817Y+009253
X+023817Y+010253
X+023817Y+011253
X+023817Y+012253
X+023817Y+013253
X+023817Y+014253
X+023817Y+015253
X+023817Y+016253
X+023755Y+018066
X+023755Y+019066
X+023755Y+020066
X+023755Y+021066
X+023755Y+022066
X+023755Y+023066
X+023755Y+024066
X+023755Y+025066
X+023755Y+026567
X+023755Y+027567
X+023755Y+028567
X+023755Y+029567
X+023755Y+030567
X+023755Y+031567
X+023755Y+032567
X+023755Y+033567
X+023755Y+034567
X+023755Y+035567
X+020317Y+035318
X+019317Y+035318
X+018317Y+035318
X+018317Y+034318
X+019317Y+034318
X+020317Y+034318
X+019254Y+030193
X+019254Y+029193
X+019254Y+028193
X+018254Y+028193
X+018254Y+027193
X+018254Y+026193
X+019254Y+026193
X+019254Y+027193
X+018254Y+029193
X+018254Y+030193
X+015440Y+034315
X+015440Y+035315
X+014440Y+035315
X+014440Y+034315
X+013440Y+034315
X+012440Y+034315
X+011440Y+034315
X+011440Y+035315
X+012440Y+035315
X+013440Y+035315
X+010440Y+035315
X+009440Y+035315
X+009440Y+034315
X+010440Y+034315
X+008440Y+034315
X+007440Y+034315
X+006440Y+034315
X+006440Y+035315
X+007440Y+035315
X+008440Y+035315
X+005003Y+031818
X+005003Y+030818
X+005003Y+029818
X+005003Y+028818
X+005003Y+027818
X+005003Y+026818
X+005003Y+025818
X+005003Y+024818
X+009566Y+026193
X+009566Y+027193
X+010566Y+027193
X+010566Y+028193
X+009566Y+028193
X+009566Y+029193
X+010566Y+029193
X+010566Y+030193
X+009566Y+030193
X+010566Y+026193
T00
M30
