G04 DipTrace 3.0.0.1*
G04 drive-encoder-steven-version2.GTL*
%MOIN*%
G04 #@! TF.FileFunction,Copper,L1,Top*
G04 #@! TF.Part,Single*
G04 #@! TA.AperFunction,Conductor*
%ADD14C,0.008*%
%ADD17R,0.03937X0.043307*%
%ADD18R,0.033465X0.03937*%
G04 #@! TA.AperFunction,ComponentPad*
%ADD19R,0.066929X0.066929*%
%ADD20C,0.066929*%
%ADD21R,0.043307X0.03937*%
%ADD22R,0.051181X0.07874*%
%ADD24R,0.019685X0.066929*%
%ADD25R,0.066929X0.019685*%
%ADD26R,0.061024X0.023622*%
%ADD29R,0.043307X0.020079*%
%ADD30R,0.07874X0.015748*%
G04 #@! TA.AperFunction,ViaPad*
%ADD31C,0.04*%
%FSLAX26Y26*%
G04*
G70*
G90*
G75*
G01*
G04 Top*
%LPD*%
X863067Y1056598D2*
D14*
X888080D1*
X900571Y1069089D1*
Y1266835D1*
X932962Y1299226D1*
X781808Y1056588D2*
X863056D1*
X863067Y1056598D1*
Y956598D2*
X938096Y881570D1*
X1188101D1*
X1406874Y1100343D1*
Y1256609D1*
X1331866Y1331617D1*
X1264566D1*
X1263671Y1330722D1*
X781808Y956577D2*
X863046D1*
X863067Y956598D1*
X1059917Y906598D2*
X1038059D1*
X1006832Y937825D1*
Y1187852D1*
X988080Y1206604D1*
Y1244108D1*
X1169349Y931575D2*
X1084894D1*
X1059917Y906598D1*
Y1006598D2*
X1044077D1*
X1025584Y1025092D1*
Y1244108D1*
X1019576D1*
X1188101Y1006583D2*
X1059933D1*
X1059917Y1006598D1*
X932962Y1393714D2*
X825188D1*
X813080Y1381606D1*
X739902D1*
X738080Y1383428D1*
X673741D1*
X669297Y1387873D1*
X606790Y1512886D2*
Y1500385D1*
X554638D1*
X529635Y1525387D1*
X1113080Y1669108D2*
Y1575801D1*
X1114064Y1574816D1*
X738080Y1450357D2*
X681776D1*
X556676Y1325257D1*
X475238D1*
X706801Y1525387D2*
X669297D1*
X656795Y1512886D1*
X700550Y2181690D2*
X663062D1*
X644294Y2200458D1*
X2144349Y677374D2*
X2117373D1*
X2106948Y687799D1*
X1444276Y678343D2*
X1376454D1*
X1301486D1*
X1300517Y677374D1*
X1376454Y678343D2*
Y719052D1*
X600437Y672092D2*
X616085D1*
X625542Y681549D1*
X863067Y806598D2*
X831777D1*
X819312Y819063D1*
X1059917Y956598D2*
X1100613D1*
X1113093Y969079D1*
X1114064Y1244108D2*
Y1306614D1*
X1051072Y1244108D2*
X1050587Y1307100D1*
X1294362Y1185091D2*
X1341606D1*
X1369370Y1212854D1*
X713051Y1908505D2*
X677375D1*
X650545Y1881675D1*
X1082568Y1574816D2*
Y1630920D1*
X1056837Y1656651D1*
Y1800416D1*
X1075589Y1819168D1*
X1113080D1*
X1175579D1*
X1275579D1*
Y1769108D1*
X1175579Y1736037D2*
Y1819168D1*
X1113080Y1736037D2*
Y1819168D1*
Y1856685D1*
X1013083Y1956682D1*
X1275579Y1819168D2*
X1375518D1*
X1513089Y1681597D1*
X913148Y2181690D2*
X1294378D1*
X1319365Y2156703D1*
Y2081138D1*
X1369000Y2031503D1*
X900571Y1908505D2*
X902399D1*
X994331Y2000437D1*
X1025584D1*
X1075589Y1950432D1*
X1287929D1*
X1369000Y2031503D1*
X1263671Y1519698D2*
X1350056D1*
X1438127Y1431627D1*
X1563119D1*
X1613089Y1481597D1*
X1263671Y1488202D2*
X1356550D1*
X1431877Y1412875D1*
X1675652D1*
X1694404Y1431627D1*
Y1506635D1*
X1669402Y1531638D1*
X1563049D1*
X1513089Y1581597D1*
X1275579Y1702178D2*
Y1644108D1*
X629965Y544034D2*
Y586165D1*
X637839Y594039D1*
X850587Y544045D2*
Y550306D1*
X900571Y600290D1*
Y662797D1*
X731803Y831564D1*
Y1081591D1*
X763056Y1112844D1*
X856822D1*
X863067Y1106598D1*
X850587Y544045D2*
X629975D1*
X629965Y544034D1*
X563035D2*
Y594039D1*
X850587Y644045D2*
Y687778D1*
X713051Y825314D1*
Y1087841D1*
X781808Y1156598D1*
X863067D1*
X850587Y644045D2*
X750555D1*
X675547Y719052D1*
X550534D1*
X519281Y687799D1*
Y587789D1*
X563035Y544034D1*
X1264934Y544035D2*
Y597503D1*
X1263115Y599322D1*
X1050587Y544045D2*
X1106816Y600274D1*
Y675324D1*
X1031835Y750306D1*
X950576D1*
X919323Y781559D1*
Y856567D1*
X869291Y906598D1*
X863067D1*
X1050587Y544045D2*
X1264925D1*
X1264934Y544035D1*
X1331864D2*
Y593266D1*
X1337919Y599322D1*
X1050587Y644045D2*
Y706551D1*
X1025584Y731554D1*
X944325D1*
X900571Y775308D1*
Y844066D1*
X888038Y856598D1*
X863067D1*
X1050587Y644045D2*
Y625293D1*
X1000581Y575287D1*
Y525282D1*
X1031835Y494029D1*
X1281857D1*
X1331864Y544035D1*
X1475631Y544034D2*
Y594244D1*
X1481677Y600290D1*
X1694425Y544045D2*
X1694394D1*
X1456879Y781559D1*
X1031835D1*
X1019333Y794060D1*
Y837815D1*
X1038085Y856567D1*
X1059886D1*
X1059917Y856598D1*
X1694425Y544045D2*
X1475642D1*
X1475631Y544034D1*
X1408702D2*
Y598462D1*
X1406874Y600290D1*
X1694425Y644045D2*
X1619396D1*
X1463130Y800311D1*
X1066205D1*
X1059917Y806598D1*
X1694425Y644045D2*
X1744409Y594060D1*
Y519031D1*
X1719407Y494029D1*
X1458707D1*
X1408702Y544034D1*
X2106948D2*
Y599322D1*
X1106843Y1050337D2*
Y1056588D1*
X1059928D1*
X1059917Y1056598D1*
X1894425Y544045D2*
X2106937D1*
X2106948Y544034D1*
X2173877D2*
Y591448D1*
X2181751Y599322D1*
X1113093Y1106593D2*
X1059923D1*
X1059917Y1106598D1*
X1894425Y644045D2*
X1981934D1*
X2063193Y725303D1*
X2206958D1*
X2231961Y700301D1*
Y575287D1*
X2200707Y544034D1*
X2173877D1*
X932962Y1362218D2*
X874916D1*
X788059Y1275361D1*
X444273D1*
X425521Y1256609D1*
Y1174974D1*
X475238Y1125257D1*
X1208552Y1574816D2*
X1273217D1*
X1275579Y1577178D1*
X1613089Y1581597D2*
Y1581699D1*
X1563140Y1631648D1*
X1481882D1*
X1425626Y1575392D1*
X1277365D1*
X1275579Y1577178D1*
X813080Y1594108D2*
X813098D1*
X850566Y1556640D1*
Y1450379D1*
X875568Y1425377D1*
X932795D1*
X932962Y1425210D1*
X813080Y1594126D2*
X575537Y1831669D1*
Y2056693D1*
X650545Y2131701D1*
X700539D1*
X700550Y2131690D1*
X475526Y2056693D2*
X575537D1*
X913148Y2131690D2*
X1168812D1*
X1169000Y2131503D1*
X813080Y1656608D2*
X825606D1*
X869318Y1612896D1*
Y1469131D1*
X881819Y1456630D1*
X932886D1*
X932962Y1456706D1*
X813080Y1656608D2*
X781852D1*
X594289Y1844171D1*
Y1969184D1*
Y2050442D1*
X625537Y2081690D1*
X700550D1*
X644294Y1969184D2*
X594289D1*
X913148Y2081690D2*
X1219188D1*
X1269000Y2131503D1*
X932962Y1330722D2*
X880924D1*
X775558Y1225356D1*
X475336D1*
X475238Y1225257D1*
X1175579Y1669108D2*
X1175600D1*
Y1576273D1*
X1177056Y1574816D1*
X700550Y2031690D2*
Y1987936D1*
X713051Y1975434D1*
X750555D1*
X769307Y1956682D1*
X813080Y1723537D2*
X829942D1*
X863067Y1756661D1*
X813080Y1527178D2*
Y1493612D1*
Y1448535D1*
Y1493612D2*
X801083D1*
X763056Y1531638D1*
X1059917Y1156598D2*
X1100592D1*
X1113093Y1169100D1*
X1106843D1*
X1081840Y1194102D1*
Y1243379D1*
X1082568Y1244108D1*
X1113093Y1169100D2*
X1144346Y1200353D1*
Y1242894D1*
X1145560Y1244108D1*
X863067Y1006598D2*
X819328D1*
X1175579Y1669108D2*
X1219310D1*
X1225605Y1675403D1*
X475238Y1025257D2*
X594211D1*
X756806Y1187852D1*
X794310D1*
X831814Y1225356D1*
X913148Y2031690D2*
Y1988012D1*
X900571Y1975434D1*
X913148Y2031690D2*
X1031835D1*
X1094341Y1969184D1*
X1206681D1*
X1269000Y2031503D1*
X1294362Y1137846D2*
X1238106D1*
X1175600Y1200353D1*
Y1242651D1*
X1177056Y1244108D1*
X1294362Y1232335D2*
X1220325D1*
X1208552Y1244108D1*
D31*
X669297Y1387873D3*
X606790Y1512886D3*
X669297Y1387873D3*
X656795Y1512886D3*
X644294Y2200458D3*
X2106948Y687799D3*
X1376454Y719052D3*
X625542Y681549D3*
X819312Y819063D3*
X1113093Y969079D3*
X1114064Y1306614D3*
X1050587Y1307100D3*
X1369370Y1212854D3*
X650545Y1881675D3*
X1013083Y1956682D3*
X1106843Y1050337D3*
X1113093Y1106593D3*
X769307Y1956682D3*
X863067Y1756661D3*
X763056Y1531638D3*
X1113093Y1169100D3*
X819328Y1006598D3*
X1225605Y1675403D3*
X831814Y1225356D3*
D17*
X1113080Y1669108D3*
Y1736037D3*
X738080Y1450357D3*
Y1383428D3*
X1175579Y1669108D3*
Y1736037D3*
X713051Y1975434D3*
Y1908505D3*
X900571Y1975434D3*
Y1908505D3*
X1275579Y1769108D3*
Y1702178D3*
D18*
X563035Y594039D3*
X637839D3*
X600437Y672092D3*
X1263115Y599322D3*
X1337919D3*
X1300517Y677374D3*
X2106948Y599322D3*
X2181751D3*
X2144349Y677374D3*
X1406874Y600290D3*
X1481677D3*
X1444276Y678343D3*
D19*
X475238Y825257D3*
D20*
Y925257D3*
Y1025257D3*
Y1125257D3*
Y1225257D3*
Y1325257D3*
D19*
X1050587Y644045D3*
D20*
Y544045D3*
X950587Y644045D3*
Y544045D3*
X850587Y644045D3*
Y544045D3*
D19*
X1894425Y644045D3*
D20*
Y544045D3*
X1794425Y644045D3*
Y544045D3*
X1694425Y644045D3*
Y544045D3*
D19*
X1613089Y1481597D3*
D20*
X1513089D3*
X1613089Y1581597D3*
X1513089D3*
X1613089Y1681597D3*
X1513089D3*
D19*
X1169000Y2031503D3*
D20*
Y2131503D3*
X1269000Y2031503D3*
Y2131503D3*
X1369000Y2031503D3*
Y2131503D3*
X1469000Y2031503D3*
Y2131503D3*
X1569000Y2031503D3*
Y2131503D3*
X781808Y1056588D3*
Y956577D3*
X1169349Y931575D3*
X1188101Y1006583D3*
X475526Y2056693D3*
X644294Y1969184D3*
D17*
X813080Y1381606D3*
Y1448535D3*
X1275579Y1644108D3*
Y1577178D3*
X813080Y1594108D3*
Y1527178D3*
D21*
X2106948Y544034D3*
X2173877D3*
X1475631D3*
X1408702D3*
D17*
X813080Y1656608D3*
Y1723537D3*
D21*
X1331864Y544035D3*
X1264934D3*
X563035Y544034D3*
X629965D3*
D22*
X706801Y1525387D3*
Y1838379D3*
X529635D3*
Y1525387D3*
D24*
X988080Y1244108D3*
X1019576D3*
X1051072D3*
X1082568D3*
X1114064D3*
X1145560D3*
X1177056D3*
X1208552D3*
D25*
X1263671Y1299226D3*
Y1330722D3*
Y1362218D3*
Y1393714D3*
Y1425210D3*
Y1456706D3*
Y1488202D3*
Y1519698D3*
D24*
X1208552Y1574816D3*
X1177056D3*
X1145560D3*
X1114064D3*
X1082568D3*
X1051072D3*
X1019576D3*
X988080D3*
D25*
X932962Y1519698D3*
Y1488202D3*
Y1456706D3*
Y1425210D3*
Y1393714D3*
Y1362218D3*
Y1330722D3*
Y1299226D3*
D26*
X700550Y2031690D3*
Y2081690D3*
Y2131690D3*
Y2181690D3*
X913148D3*
Y2131690D3*
Y2081690D3*
Y2031690D3*
D29*
X863067Y1156598D3*
Y1106598D3*
Y1056598D3*
Y1006598D3*
Y956598D3*
Y906598D3*
Y856598D3*
Y806598D3*
X1059917D3*
Y856598D3*
Y906598D3*
Y956598D3*
Y1006598D3*
Y1056598D3*
Y1106598D3*
Y1156598D3*
D30*
X1294362Y1137846D3*
Y1185091D3*
Y1232335D3*
M02*
