G04 DipTrace 3.0.0.1*
G04 drive-encoder-steven-version2.GTO*
%MOIN*%
G04 #@! TF.FileFunction,Legend,Top*
G04 #@! TF.Part,Single*
%ADD10C,0.009843*%
%ADD16C,0.006*%
%ADD23O,0.016422X0.016542*%
%ADD27C,0.005906*%
%ADD60C,0.006176*%
%FSLAX26Y26*%
G04*
G70*
G90*
G75*
G01*
G04 TopSilk*
%LPD*%
X1259831Y1802572D2*
D10*
X1291327D1*
X541356Y623237D2*
X659492D1*
Y642882D1*
X541356D1*
Y623237D1*
X1241436Y628519D2*
X1359572D1*
Y648164D1*
X1241436D1*
Y628519D1*
X2085268D2*
X2203404D1*
Y648164D1*
X2085268D1*
Y628519D1*
X1385194Y629488D2*
X1503331D1*
Y649133D1*
X1385194D1*
Y629488D1*
X425236Y775285D2*
X525238D1*
Y1375230D1*
X425236D1*
Y775285D1*
X1100587Y494045D2*
X800587D1*
Y694045D1*
X1100587D1*
Y494045D1*
X1944425D2*
X1644425D1*
Y694045D1*
X1944425D1*
Y494045D1*
X1463089Y1431597D2*
X1663089D1*
Y1731597D1*
X1463089D1*
Y1431597D1*
X1119000Y2181503D2*
X1619000D1*
Y1981503D1*
X1119000D1*
Y2181503D1*
X519799Y1583441D2*
X716637D1*
Y1780326D1*
X519799D1*
Y1583441D1*
X559171Y1681883D2*
G02X559171Y1681883I59046J0D01*
G01*
X986103Y1295300D2*
X1214466D1*
Y1523624D1*
X986103D1*
Y1295300D1*
D23*
X954988Y1243647D3*
G36*
X986103Y1295300D2*
X1017596D1*
X986103Y1326793D1*
Y1295300D1*
G37*
X735789Y2016930D2*
D10*
X776723D1*
X736966Y2017920D2*
Y2198233D1*
X873175D1*
Y2015746D1*
X841107D1*
X843268Y2014756D2*
G03X774562Y2012601I-34403J505D01*
G01*
X1026455Y1176480D2*
D27*
Y792622D1*
X896530D1*
Y1176480D1*
X1026455D2*
X991031D1*
X896530D2*
X931953D1*
X991031D2*
G02X931953Y1176480I-29539J6677D01*
G01*
G36*
X1559407Y988596D2*
Y1012596D1*
X1576407Y1022596D1*
X1633407D1*
X1650407Y1012596D1*
Y988596D1*
D1*
X1559407D1*
G37*
G36*
X1576407Y1034596D2*
Y1056596D1*
X1587407Y1063596D1*
Y1209596D1*
X1595407Y1207596D1*
X1622407Y1164596D1*
Y1063596D1*
X1633407Y1056596D1*
Y1034596D1*
X1576407D1*
G37*
G36*
X1602407Y1216596D2*
X1590407Y1220596D1*
X1579407Y1230596D1*
X1575407Y1245596D1*
X1579407Y1260596D1*
X1590407Y1271596D1*
X1604407Y1275596D1*
X1619407Y1271596D1*
X1630407Y1260596D1*
X1634407Y1245596D1*
X1631407Y1234596D1*
X1722407Y1086596D1*
X1734407Y1082596D1*
X1745407Y1071596D1*
X1749407Y1056596D1*
X1745407Y1042596D1*
X1734407Y1031596D1*
X1719407Y1027596D1*
X1704407Y1031596D1*
X1693407Y1042596D1*
X1689407Y1057596D1*
X1692407Y1069596D1*
X1602407Y1216596D1*
G37*
G36*
X1725407Y1101596D2*
X1728407Y1096596D1*
X1741407Y1092596D1*
X1752407Y1079596D1*
X1805407Y1167596D1*
Y1218596D1*
X1799407Y1223596D1*
D1*
X1725407Y1101596D1*
G37*
G36*
X1816407Y1222596D2*
X1808407Y1230596D1*
X1803407Y1245596D1*
X1807407Y1260596D1*
X1818407Y1271596D1*
X1833407Y1275596D1*
X1848407Y1271596D1*
X1859407Y1260596D1*
X1863407Y1245596D1*
X1859407Y1231596D1*
X1850407Y1222596D1*
Y1105596D1*
X1833407Y1110596D1*
X1816407Y1105596D1*
Y1222596D1*
G37*
G36*
X1802407Y1062596D2*
X1803407Y1057596D1*
X1815407Y1044596D1*
X1819407Y1043596D1*
X1816407Y1040596D1*
Y991596D1*
X1799407Y988596D1*
X1787407Y1048596D1*
X1802407Y1062596D1*
G37*
G36*
X1813407Y1086596D2*
X1810407Y1074596D1*
X1813407Y1062596D1*
X1822407Y1053596D1*
X1833407Y1050596D1*
X1839407Y1052596D1*
X1851407Y1039596D1*
X1850407Y991596D1*
X1868407Y988596D1*
X1879407Y1048596D1*
X1856407Y1071596D1*
X1857407Y1075596D1*
X1854407Y1085596D1*
X1845407Y1094596D1*
X1833407Y1097596D1*
X1821407Y1094596D1*
X1813407Y1086596D1*
G37*
X1269365Y1103841D2*
D10*
X1319360D1*
X1269365Y1266341D2*
X1319360D1*
X1238112Y1122593D2*
Y1247588D1*
X1350612Y1122593D2*
Y1247588D1*
X438022Y1925429D2*
D16*
X644294D1*
X475526Y2012938D2*
X638043D1*
X438022Y1950432D2*
Y1925429D1*
X638043Y2037941D2*
Y2012938D1*
X656795Y912823D2*
X781808D1*
X656795Y937825D2*
Y912823D1*
X675547Y1012833D2*
X781808D1*
X675547Y1037836D2*
Y1012833D1*
X1281861Y881570D2*
X1156848D1*
X1281861Y906572D2*
Y881570D1*
X1313114Y969079D2*
X1188101D1*
X1313114Y994081D2*
Y969079D1*
X1141328Y2224440D2*
D60*
X1137481Y2220638D1*
X1135580Y2214890D1*
Y2207241D1*
X1137481Y2201492D1*
X1141328Y2197646D1*
X1145131D1*
X1148977Y2199591D1*
X1150879Y2201492D1*
X1152780Y2205295D1*
X1156627Y2216791D1*
X1158528Y2220638D1*
X1160474Y2222539D1*
X1164276Y2224440D1*
X1170024D1*
X1173827Y2220638D1*
X1175772Y2214890D1*
Y2207240D1*
X1173827Y2201492D1*
X1170024Y2197646D1*
X1145131Y2265488D2*
X1141328Y2263586D1*
X1137481Y2259740D1*
X1135580Y2255937D1*
Y2248288D1*
X1137481Y2244441D1*
X1141328Y2240638D1*
X1145131Y2238693D1*
X1150879Y2236792D1*
X1160474D1*
X1166177Y2238693D1*
X1170024Y2240638D1*
X1173827Y2244441D1*
X1175772Y2248288D1*
Y2255937D1*
X1173827Y2259740D1*
X1170024Y2263586D1*
X1166177Y2265488D1*
X1135580Y2277839D2*
X1175772D1*
Y2300787D1*
X1241328Y2224442D2*
X1237481Y2220639D1*
X1235580Y2214891D1*
Y2207242D1*
X1237481Y2201494D1*
X1241328Y2197647D1*
X1245131D1*
X1248977Y2199593D1*
X1250879Y2201494D1*
X1252780Y2205296D1*
X1256627Y2216792D1*
X1258528Y2220639D1*
X1260474Y2222540D1*
X1264276Y2224442D1*
X1270024D1*
X1273827Y2220639D1*
X1275772Y2214891D1*
Y2207242D1*
X1273827Y2201494D1*
X1270024Y2197647D1*
X1235580Y2236793D2*
X1275772D1*
Y2250190D1*
X1273827Y2255938D1*
X1270024Y2259785D1*
X1266177Y2261686D1*
X1260474Y2263588D1*
X1250879D1*
X1245131Y2261686D1*
X1241328Y2259785D1*
X1237481Y2255938D1*
X1235580Y2250190D1*
Y2236793D1*
X1275772Y2306580D2*
X1235580Y2291238D1*
X1275772Y2275939D1*
X1262375Y2281687D2*
Y2300832D1*
X1241831Y1847646D2*
X1282023Y1862944D1*
X1241831Y1878243D1*
Y1890594D2*
X1243732Y1892496D1*
X1241831Y1894441D1*
X1239885Y1892496D1*
X1241831Y1890594D1*
X1255228Y1892496D2*
X1282023Y1892495D1*
X1260976Y1927839D2*
X1257129Y1925938D1*
X1255228Y1920190D1*
Y1914442D1*
X1257129Y1908694D1*
X1260976Y1906792D1*
X1264779Y1908694D1*
X1266724Y1912540D1*
X1268625Y1922091D1*
X1270527Y1925938D1*
X1274373Y1927839D1*
X1276275D1*
X1280077Y1925938D1*
X1282023Y1920190D1*
Y1914442D1*
X1280077Y1908694D1*
X1276275Y1906792D1*
X1255228Y1949741D2*
X1257129Y1945938D1*
X1260976Y1942092D1*
X1266724Y1940190D1*
X1270527D1*
X1276275Y1942092D1*
X1280077Y1945938D1*
X1282023Y1949741D1*
Y1955489D1*
X1280077Y1959336D1*
X1276275Y1963138D1*
X1270527Y1965084D1*
X1266724D1*
X1260976Y1963138D1*
X1257129Y1959336D1*
X1255228Y1955489D1*
Y1949741D1*
X1351380Y2226342D2*
X1347578Y2224440D1*
X1343731Y2220594D1*
X1341829Y2216791D1*
Y2209142D1*
X1343731Y2205295D1*
X1347577Y2201492D1*
X1351380Y2199547D1*
X1357128Y2197646D1*
X1366723D1*
X1372427Y2199547D1*
X1376273Y2201492D1*
X1380076Y2205295D1*
X1382021Y2209142D1*
Y2216791D1*
X1380076Y2220594D1*
X1376273Y2224440D1*
X1372427Y2226342D1*
X1366723D1*
Y2216791D1*
X1341829Y2265488D2*
X1382021D1*
X1341829Y2238693D1*
X1382021D1*
X1341829Y2277839D2*
X1382021D1*
Y2291236D1*
X1380076Y2296984D1*
X1376273Y2300831D1*
X1372427Y2302732D1*
X1366723Y2304634D1*
X1357128D1*
X1351380Y2302732D1*
X1347578Y2300831D1*
X1343731Y2296984D1*
X1341829Y2291236D1*
Y2277839D1*
X1345131Y1876342D2*
X1341328Y1874440D1*
X1337481Y1870594D1*
X1335580Y1866791D1*
Y1859142D1*
X1337481Y1855295D1*
X1341328Y1851492D1*
X1345131Y1849547D1*
X1350879Y1847646D1*
X1360473D1*
X1366177Y1849547D1*
X1370024Y1851492D1*
X1373827Y1855295D1*
X1375772Y1859142D1*
Y1866791D1*
X1373827Y1870594D1*
X1370024Y1874440D1*
X1366177Y1876342D1*
X1360474D1*
Y1866791D1*
X1335580Y1888693D2*
X1337481Y1890594D1*
X1335580Y1892540D1*
X1333635Y1890594D1*
X1335580Y1888693D1*
X1348977Y1890594D2*
X1375772D1*
X1354725Y1925938D2*
X1350879Y1924036D1*
X1348977Y1918288D1*
Y1912540D1*
X1350879Y1906792D1*
X1354726Y1904891D1*
X1358528Y1906792D1*
X1360474Y1910639D1*
X1362375Y1920190D1*
X1364276Y1924036D1*
X1368123Y1925938D1*
X1370024D1*
X1373827Y1924036D1*
X1375772Y1918288D1*
Y1912540D1*
X1373827Y1906792D1*
X1370024Y1904891D1*
X1348977Y1947840D2*
X1350879Y1944037D1*
X1354725Y1940190D1*
X1360474Y1938289D1*
X1364276D1*
X1370024Y1940190D1*
X1373827Y1944037D1*
X1375772Y1947840D1*
Y1953588D1*
X1373827Y1957434D1*
X1370024Y1961237D1*
X1364276Y1963183D1*
X1360474D1*
X1354725Y1961237D1*
X1350879Y1957435D1*
X1348977Y1953588D1*
Y1947840D1*
X1141831Y1853896D2*
X1182023Y1869195D1*
X1141831Y1884494D1*
X1151381Y1925541D2*
X1147579Y1923640D1*
X1143732Y1919793D1*
X1141831Y1915990D1*
Y1908341D1*
X1143732Y1904494D1*
X1147579Y1900692D1*
X1151381Y1898746D1*
X1157129Y1896845D1*
X1166724D1*
X1172428Y1898746D1*
X1176275Y1900692D1*
X1180077Y1904494D1*
X1182023Y1908341D1*
Y1915990D1*
X1180077Y1919793D1*
X1176275Y1923640D1*
X1172428Y1925541D1*
X1151381Y1966588D2*
X1147579Y1964687D1*
X1143732Y1960840D1*
X1141831Y1957038D1*
Y1949388D1*
X1143732Y1945542D1*
X1147579Y1941739D1*
X1151381Y1939793D1*
X1157129Y1937892D1*
X1166724D1*
X1172428Y1939793D1*
X1176275Y1941739D1*
X1180077Y1945542D1*
X1182023Y1949388D1*
Y1957038D1*
X1180077Y1960840D1*
X1176275Y1964687D1*
X1172428Y1966588D1*
X547695Y2063849D2*
X543892Y2067696D1*
X538144Y2069597D1*
X530495D1*
X524747Y2067696D1*
X520900Y2063849D1*
Y2060047D1*
X522846Y2056200D1*
X524747Y2054298D1*
X528549Y2052397D1*
X540046Y2048550D1*
X543892Y2046649D1*
X545794Y2044704D1*
X547695Y2040901D1*
Y2035153D1*
X543892Y2031351D1*
X538144Y2029405D1*
X530495D1*
X524747Y2031351D1*
X520900Y2035153D1*
X588742Y2060047D2*
X586841Y2063849D1*
X582994Y2067696D1*
X579192Y2069597D1*
X571542D1*
X567696Y2067696D1*
X563893Y2063849D1*
X561948Y2060047D1*
X560046Y2054298D1*
Y2044704D1*
X561948Y2039000D1*
X563893Y2035153D1*
X567696Y2031351D1*
X571542Y2029405D1*
X579192D1*
X582994Y2031351D1*
X586841Y2035153D1*
X588742Y2039000D1*
X601094Y2069597D2*
Y2029405D1*
X624042D1*
X478938Y1976340D2*
X475135Y1980187D1*
X469387Y1982088D1*
X461738D1*
X455990Y1980187D1*
X452143Y1976340D1*
Y1972537D1*
X454088Y1968691D1*
X455990Y1966789D1*
X459792Y1964888D1*
X471288Y1961041D1*
X475135Y1959140D1*
X477036Y1957195D1*
X478938Y1953392D1*
Y1947644D1*
X475135Y1943841D1*
X469387Y1941896D1*
X461738D1*
X455990Y1943841D1*
X452143Y1947644D1*
X491289Y1982088D2*
Y1941896D1*
X504686D1*
X510434Y1943841D1*
X514281Y1947644D1*
X516182Y1951491D1*
X518084Y1957195D1*
Y1966789D1*
X516182Y1972537D1*
X514281Y1976340D1*
X510434Y1980187D1*
X504686Y1982088D1*
X491289D1*
X561077Y1941896D2*
X545734Y1982088D1*
X530435Y1941896D1*
X536183Y1955293D2*
X555328D1*
X1212319Y931933D2*
X1233322D1*
X1221870Y916635D1*
X1227618D1*
X1231420Y914734D1*
X1233322Y912832D1*
X1235267Y907084D1*
Y903282D1*
X1233322Y897534D1*
X1229519Y893687D1*
X1223771Y891786D1*
X1218023D1*
X1212319Y893687D1*
X1210418Y895632D1*
X1208472Y899435D1*
X1247618Y931978D2*
X1262917Y912832D1*
Y891786D1*
X1278216Y931978D2*
X1262917Y912832D1*
X1258871Y979295D2*
Y1019443D1*
X1239726Y992692D1*
X1268422D1*
X1280773Y1019487D2*
X1296072Y1000341D1*
Y979295D1*
X1311370Y1019487D2*
X1296072Y1000341D1*
X672861Y953636D2*
Y955537D1*
X674763Y959384D1*
X676664Y961285D1*
X680511Y963187D1*
X688160D1*
X691963Y961285D1*
X693864Y959384D1*
X695809Y955537D1*
Y951735D1*
X693864Y947888D1*
X690061Y942184D1*
X670916Y923039D1*
X697711D1*
X710062Y963231D2*
X725361Y944086D1*
Y923039D1*
X740659Y963231D2*
X725361Y944086D1*
X683417Y1055548D2*
X687264Y1057493D1*
X693012Y1063197D1*
Y1023049D1*
X705363Y1063241D2*
X720662Y1044096D1*
Y1023049D1*
X735961Y1063241D2*
X720662Y1044096D1*
X1668581Y718279D2*
Y739281D1*
X1683880Y727829D1*
Y733577D1*
X1685781Y737380D1*
X1687682Y739281D1*
X1693430Y741226D1*
X1697233D1*
X1702981Y739281D1*
X1706828Y735478D1*
X1708729Y729730D1*
Y723982D1*
X1706828Y718279D1*
X1704882Y716377D1*
X1701079Y714432D1*
X1668537Y753578D2*
X1708729D1*
Y770822D1*
X1706783Y776570D1*
X1704882Y778471D1*
X1701080Y780372D1*
X1695331D1*
X1691485Y778471D1*
X1689583Y776570D1*
X1687682Y770822D1*
X1685737Y776570D1*
X1683835Y778471D1*
X1680033Y780372D1*
X1676186D1*
X1672384Y778471D1*
X1670438Y776570D1*
X1668537Y770822D1*
Y753578D1*
X1687682D2*
Y770822D1*
X1778098Y743128D2*
X1774295Y741226D1*
X1770449Y737380D1*
X1768547Y733577D1*
Y725928D1*
X1770449Y722081D1*
X1774295Y718279D1*
X1778098Y716333D1*
X1783846Y714432D1*
X1793441D1*
X1799144Y716333D1*
X1802991Y718279D1*
X1806794Y722081D1*
X1808739Y725928D1*
Y733577D1*
X1806794Y737380D1*
X1802991Y741226D1*
X1799145Y743128D1*
X1793441D1*
Y733577D1*
X1768547Y782274D2*
X1808739D1*
X1768547Y755479D1*
X1808739D1*
X1768547Y794625D2*
X1808739D1*
Y808022D1*
X1806794Y813770D1*
X1802991Y817617D1*
X1799145Y819518D1*
X1793441Y821420D1*
X1783846D1*
X1778098Y819519D1*
X1774295Y817617D1*
X1770449Y813770D1*
X1768547Y808022D1*
Y794625D1*
X1908750Y733577D2*
X1868602D1*
X1895352Y714432D1*
X1895353Y743128D1*
X1868558Y755479D2*
X1908750D1*
Y772723D1*
X1906804Y778471D1*
X1904903Y780372D1*
X1901101Y782274D1*
X1895352D1*
X1891506Y780372D1*
X1889604Y778471D1*
X1887703Y772723D1*
X1885758Y778471D1*
X1883856Y780372D1*
X1880054Y782274D1*
X1876207D1*
X1872405Y780372D1*
X1870459Y778471D1*
X1868558Y772723D1*
Y755479D1*
X1887703D2*
Y772723D1*
X1668581Y411996D2*
Y432999D1*
X1683880Y421547D1*
Y427295D1*
X1685781Y431098D1*
X1687682Y432999D1*
X1693430Y434944D1*
X1697233D1*
X1702981Y432999D1*
X1706828Y429196D1*
X1708729Y423448D1*
Y417700D1*
X1706828Y411996D1*
X1704882Y410095D1*
X1701079Y408150D1*
X1708729Y477937D2*
X1668537Y462594D1*
X1708729Y447296D1*
X1695331Y453044D2*
Y472189D1*
X1768547Y408150D2*
X1808739Y423448D1*
X1768547Y438747D1*
X1778098Y479794D2*
X1774295Y477893D1*
X1770449Y474046D1*
X1768547Y470244D1*
Y462594D1*
X1770449Y458748D1*
X1774295Y454945D1*
X1778098Y452999D1*
X1783846Y451098D1*
X1793441D1*
X1799145Y452999D1*
X1802991Y454945D1*
X1806794Y458747D1*
X1808739Y462594D1*
Y470244D1*
X1806794Y474046D1*
X1802991Y477893D1*
X1799145Y479794D1*
X1915000Y427295D2*
X1874853D1*
X1901603Y408150D1*
Y436846D1*
X1915000Y479838D2*
X1874808Y464496D1*
X1915000Y449197D1*
X1901603Y454945D2*
Y474090D1*
X826141Y714432D2*
X824196Y718279D1*
X818492Y724027D1*
X858640D1*
X818448Y736378D2*
X858640D1*
Y753622D1*
X856694Y759370D1*
X854793Y761271D1*
X850990Y763173D1*
X845242D1*
X841396Y761271D1*
X839494Y759370D1*
X837593Y753622D1*
X835647Y759370D1*
X833746Y761271D1*
X829944Y763173D1*
X826097D1*
X822294Y761271D1*
X820349Y759370D1*
X818448Y753622D1*
Y736378D1*
X837593D2*
Y753622D1*
X928009Y743128D2*
X924206Y741226D1*
X920359Y737380D1*
X918458Y733577D1*
Y725928D1*
X920359Y722081D1*
X924206Y718279D1*
X928009Y716333D1*
X933757Y714432D1*
X943351D1*
X949055Y716333D1*
X952902Y718279D1*
X956705Y722081D1*
X958650Y725928D1*
Y733577D1*
X956705Y737380D1*
X952902Y741226D1*
X949055Y743128D1*
X943351D1*
Y733577D1*
X918458Y755479D2*
X958650D1*
Y768876D1*
X956705Y774624D1*
X952902Y778471D1*
X949055Y780372D1*
X943351Y782274D1*
X933757D1*
X928009Y780372D1*
X924206Y778471D1*
X920359Y774624D1*
X918458Y768876D1*
Y755479D1*
X1028063Y716377D2*
X1026162D1*
X1022315Y718279D1*
X1020414Y720180D1*
X1018513Y724027D1*
Y731676D1*
X1020414Y735478D1*
X1022315Y737380D1*
X1026162Y739325D1*
X1029965D1*
X1033811Y737380D1*
X1039515Y733577D1*
X1058661Y714432D1*
Y741226D1*
X1018469Y753578D2*
X1058661D1*
Y770822D1*
X1056715Y776570D1*
X1054814Y778471D1*
X1051011Y780372D1*
X1045263D1*
X1041416Y778471D1*
X1039515Y776570D1*
X1037614Y770822D1*
X1035668Y776570D1*
X1033767Y778471D1*
X1029965Y780372D1*
X1026118D1*
X1022315Y778471D1*
X1020370Y776570D1*
X1018469Y770822D1*
Y753578D1*
X1037614D2*
Y770822D1*
X826141Y408150D2*
X824196Y411996D1*
X818492Y417744D1*
X858640D1*
Y460737D2*
X818448Y445394D1*
X858640Y430096D1*
X845242Y435844D2*
Y454989D1*
X918458Y408150D2*
X958650Y423448D1*
X918458Y438747D1*
X928009Y479794D2*
X924206Y477893D1*
X920359Y474046D1*
X918458Y470244D1*
Y462594D1*
X920359Y458748D1*
X924206Y454945D1*
X928009Y452999D1*
X933757Y451098D1*
X943351D1*
X949055Y452999D1*
X952902Y454945D1*
X956705Y458747D1*
X958650Y462594D1*
Y470244D1*
X956705Y474046D1*
X952902Y477893D1*
X949055Y479794D1*
X1034314Y410095D2*
X1032413D1*
X1028566Y411996D1*
X1026665Y413898D1*
X1024763Y417744D1*
Y425394D1*
X1026665Y429196D1*
X1028566Y431098D1*
X1032413Y433043D1*
X1036215D1*
X1040062Y431098D1*
X1045766Y427295D1*
X1064911Y408150D1*
Y434944D1*
Y477937D2*
X1024719Y462594D1*
X1064911Y447296D1*
X1051514Y453044D2*
Y472189D1*
X1681303Y1683882D2*
X1698503D1*
X1704251Y1685828D1*
X1706196Y1687729D1*
X1708098Y1691531D1*
Y1695378D1*
X1706196Y1699181D1*
X1704251Y1701126D1*
X1698503Y1703028D1*
X1681303D1*
Y1662836D1*
X1694700Y1683882D2*
X1708098Y1662836D1*
X1747244Y1697280D2*
X1743441Y1701126D1*
X1737693Y1703028D1*
X1730044D1*
X1724296Y1701126D1*
X1720449Y1697280D1*
Y1693477D1*
X1722395Y1689630D1*
X1724296Y1687729D1*
X1728098Y1685828D1*
X1739595Y1681981D1*
X1743441Y1680080D1*
X1745343Y1678134D1*
X1747244Y1674332D1*
Y1668584D1*
X1743441Y1664781D1*
X1737693Y1662836D1*
X1730044D1*
X1724296Y1664781D1*
X1720449Y1668584D1*
X1772993Y1703028D2*
Y1662836D1*
X1759595Y1703028D2*
X1786390D1*
X1708098Y1597269D2*
X1704295Y1601116D1*
X1698547Y1603017D1*
X1690898D1*
X1685150Y1601116D1*
X1681303Y1597269D1*
Y1593466D1*
X1683249Y1589620D1*
X1685150Y1587718D1*
X1688952Y1585817D1*
X1700448Y1581970D1*
X1704295Y1580069D1*
X1706196Y1578124D1*
X1708098Y1574321D1*
Y1568573D1*
X1704295Y1564771D1*
X1698547Y1562825D1*
X1690898D1*
X1685150Y1564771D1*
X1681303Y1568573D1*
X1749145Y1593466D2*
X1747244Y1597269D1*
X1743397Y1601116D1*
X1739595Y1603017D1*
X1731945D1*
X1728098Y1601116D1*
X1724296Y1597269D1*
X1722350Y1593466D1*
X1720449Y1587718D1*
Y1578124D1*
X1722350Y1572420D1*
X1724296Y1568573D1*
X1728098Y1564771D1*
X1731945Y1562825D1*
X1739595D1*
X1743397Y1564771D1*
X1747244Y1568573D1*
X1749145Y1572420D1*
X1761496Y1603017D2*
Y1562825D1*
X1788291Y1603017D2*
X1761496Y1576222D1*
X1771047Y1585817D2*
X1788291Y1562825D1*
X1711900Y1462815D2*
Y1503007D1*
X1696602Y1462815D1*
X1681303Y1503007D1*
Y1462815D1*
X1724252Y1503007D2*
Y1462815D1*
X1763398Y1497259D2*
X1759595Y1501105D1*
X1753847Y1503007D1*
X1746198D1*
X1740450Y1501105D1*
X1736603Y1497259D1*
Y1493456D1*
X1738549Y1489609D1*
X1740450Y1487708D1*
X1744252Y1485807D1*
X1755748Y1481960D1*
X1759595Y1480059D1*
X1761496Y1478113D1*
X1763398Y1474311D1*
Y1468563D1*
X1759595Y1464760D1*
X1753847Y1462815D1*
X1746198D1*
X1740450Y1464760D1*
X1736603Y1468563D1*
X1787245Y1503007D2*
X1783398Y1501105D1*
X1779596Y1497259D1*
X1777650Y1493456D1*
X1775749Y1487708D1*
Y1478113D1*
X1777650Y1472409D1*
X1779596Y1468563D1*
X1783398Y1464760D1*
X1787245Y1462815D1*
X1794895D1*
X1798697Y1464760D1*
X1802544Y1468563D1*
X1804445Y1472409D1*
X1806346Y1478113D1*
Y1487708D1*
X1804445Y1493456D1*
X1802544Y1497259D1*
X1798697Y1501105D1*
X1794895Y1503007D1*
X1787245D1*
X1366213Y1687226D2*
X1364312Y1691029D1*
X1360465Y1694876D1*
X1356662Y1696777D1*
X1349013D1*
X1345166Y1694876D1*
X1341364Y1691029D1*
X1339418Y1687226D1*
X1337517Y1681478D1*
Y1671883D1*
X1339418Y1666180D1*
X1341364Y1662333D1*
X1345166Y1658530D1*
X1349013Y1656585D1*
X1356662D1*
X1360465Y1658530D1*
X1364312Y1662333D1*
X1366213Y1666180D1*
Y1671883D1*
X1356662D1*
X1405359Y1696777D2*
Y1656585D1*
X1378564Y1696777D1*
Y1656585D1*
X1417710Y1696777D2*
Y1656585D1*
X1431108D1*
X1436856Y1658530D1*
X1440703Y1662333D1*
X1442604Y1666180D1*
X1444505Y1671883D1*
Y1681478D1*
X1442604Y1687226D1*
X1440703Y1691029D1*
X1436856Y1694876D1*
X1431108Y1696777D1*
X1417710D1*
X1355613Y1556574D2*
Y1596766D1*
X1340314Y1556574D1*
X1325016Y1596766D1*
Y1556574D1*
X1379460Y1596766D2*
X1375614Y1594865D1*
X1371811Y1591018D1*
X1369866Y1587216D1*
X1367964Y1581468D1*
Y1571873D1*
X1369866Y1566169D1*
X1371811Y1562322D1*
X1375614Y1558520D1*
X1379460Y1556574D1*
X1387110D1*
X1390912Y1558520D1*
X1394759Y1562322D1*
X1396660Y1566169D1*
X1398561Y1571873D1*
Y1581468D1*
X1396660Y1587216D1*
X1394759Y1591018D1*
X1390912Y1594865D1*
X1387110Y1596766D1*
X1379460D1*
X1437708Y1591018D2*
X1433905Y1594865D1*
X1428157Y1596766D1*
X1420508D1*
X1414760Y1594865D1*
X1410913Y1591018D1*
Y1587216D1*
X1412858Y1583369D1*
X1414760Y1581468D1*
X1418562Y1579567D1*
X1430058Y1575720D1*
X1433905Y1573818D1*
X1435806Y1571873D1*
X1437708Y1568070D1*
Y1562322D1*
X1433905Y1558520D1*
X1428157Y1556574D1*
X1420508D1*
X1414760Y1558520D1*
X1410913Y1562322D1*
X1450059Y1596766D2*
Y1556574D1*
X1337517Y1490505D2*
X1352816Y1450313D1*
X1368114Y1490505D1*
X1409162Y1480955D2*
X1407260Y1484757D1*
X1403414Y1488604D1*
X1399611Y1490505D1*
X1391962D1*
X1388115Y1488604D1*
X1384312Y1484757D1*
X1382367Y1480955D1*
X1380466Y1475207D1*
Y1465612D1*
X1382367Y1459908D1*
X1384312Y1456061D1*
X1388115Y1452259D1*
X1391962Y1450313D1*
X1399611D1*
X1403414Y1452259D1*
X1407260Y1456061D1*
X1409162Y1459908D1*
X1450209Y1480955D2*
X1448308Y1484757D1*
X1444461Y1488604D1*
X1440658Y1490505D1*
X1433009D1*
X1429162Y1488604D1*
X1425360Y1484757D1*
X1423414Y1480955D1*
X1421513Y1475207D1*
Y1465612D1*
X1423414Y1459908D1*
X1425360Y1456061D1*
X1429162Y1452259D1*
X1433009Y1450313D1*
X1440658D1*
X1444461Y1452259D1*
X1448308Y1456061D1*
X1450209Y1459908D1*
X543684Y1346740D2*
Y1306548D1*
X557081D1*
X562829Y1308494D1*
X566676Y1312296D1*
X568577Y1316143D1*
X570478Y1321847D1*
Y1331442D1*
X568577Y1337190D1*
X566676Y1340992D1*
X562829Y1344839D1*
X557081Y1346740D1*
X543684D1*
X596227D2*
Y1306548D1*
X582830Y1346740D2*
X609624D1*
X621976Y1327595D2*
X639176D1*
X644924Y1329540D1*
X646869Y1331442D1*
X648770Y1335244D1*
Y1339091D1*
X646869Y1342893D1*
X644924Y1344839D1*
X639176Y1346740D1*
X621976D1*
Y1306548D1*
X635373Y1327595D2*
X648770Y1306548D1*
X557081Y1246730D2*
Y1206538D1*
X543684Y1246730D2*
X570478D1*
X582830D2*
X609624Y1206538D1*
Y1246730D2*
X582830Y1206538D1*
X633472Y1246730D2*
X629625Y1244828D1*
X625823Y1240982D1*
X623877Y1237179D1*
X621976Y1231431D1*
Y1221836D1*
X623877Y1216132D1*
X625823Y1212286D1*
X629625Y1208483D1*
X633472Y1206538D1*
X641121D1*
X644924Y1208483D1*
X648770Y1212286D1*
X650672Y1216132D1*
X652573Y1221836D1*
Y1231431D1*
X650672Y1237179D1*
X648770Y1240982D1*
X644924Y1244828D1*
X641121Y1246730D1*
X633472D1*
X543684Y1127574D2*
X560884D1*
X566632Y1129519D1*
X568577Y1131421D1*
X570478Y1135223D1*
Y1139070D1*
X568577Y1142872D1*
X566632Y1144818D1*
X560884Y1146719D1*
X543684D1*
Y1106527D1*
X557081Y1127574D2*
X570478Y1106527D1*
X582830Y1146719D2*
X609624Y1106527D1*
Y1146719D2*
X582830Y1106527D1*
X621976Y1146719D2*
Y1106527D1*
X537433Y1052959D2*
X552732Y1012767D1*
X568030Y1052959D1*
X609078Y1043409D2*
X607176Y1047211D1*
X603330Y1051058D1*
X599527Y1052959D1*
X591878D1*
X588031Y1051058D1*
X584228Y1047211D1*
X582283Y1043409D1*
X580382Y1037661D1*
Y1028066D1*
X582283Y1022362D1*
X584228Y1018515D1*
X588031Y1014713D1*
X591878Y1012767D1*
X599527D1*
X603330Y1014713D1*
X607176Y1018515D1*
X609078Y1022362D1*
X650125Y1043409D2*
X648224Y1047211D1*
X644377Y1051058D1*
X640574Y1052959D1*
X632925D1*
X629078Y1051058D1*
X625276Y1047211D1*
X623330Y1043409D1*
X621429Y1037661D1*
Y1028066D1*
X623330Y1022362D1*
X625276Y1018515D1*
X629078Y1014713D1*
X632925Y1012767D1*
X640574D1*
X644377Y1014713D1*
X648224Y1018515D1*
X650125Y1022362D1*
X566129Y943398D2*
X564228Y947201D1*
X560381Y951048D1*
X556578Y952949D1*
X548929D1*
X545082Y951048D1*
X541280Y947201D1*
X539334Y943398D1*
X537433Y937650D1*
Y928055D1*
X539334Y922352D1*
X541280Y918505D1*
X545082Y914702D1*
X548929Y912757D1*
X556578D1*
X560381Y914702D1*
X564228Y918505D1*
X566129Y922352D1*
X591878Y952949D2*
Y912757D1*
X578480Y952949D2*
X605275D1*
X644421Y947201D2*
X640619Y951048D1*
X634870Y952949D1*
X627221D1*
X621473Y951048D1*
X617626Y947201D1*
Y943398D1*
X619572Y939551D1*
X621473Y937650D1*
X625276Y935749D1*
X636772Y931902D1*
X640619Y930001D1*
X642520Y928055D1*
X644421Y924253D1*
Y918505D1*
X640619Y914702D1*
X634870Y912757D1*
X627221D1*
X621473Y914702D1*
X617626Y918505D1*
X566129Y843388D2*
X564228Y847190D1*
X560381Y851037D1*
X556578Y852938D1*
X548929D1*
X545082Y851037D1*
X541280Y847190D1*
X539334Y843388D1*
X537433Y837640D1*
Y828045D1*
X539334Y822341D1*
X541280Y818494D1*
X545082Y814692D1*
X548929Y812746D1*
X556578D1*
X560381Y814692D1*
X564228Y818494D1*
X566129Y822341D1*
Y828045D1*
X556578D1*
X605275Y852938D2*
Y812746D1*
X578480Y852938D1*
Y812746D1*
X617626Y852938D2*
Y812746D1*
X631024D1*
X636772Y814692D1*
X640619Y818494D1*
X642520Y822341D1*
X644421Y828045D1*
Y837640D1*
X642520Y843388D1*
X640619Y847190D1*
X636772Y851037D1*
X631024Y852938D1*
X617626D1*
M02*
