G04 DipTrace 3.0.0.1*
G04 battery-fuel_gauge_V2.GTS*
%MOIN*%
G04 #@! TF.FileFunction,Soldermask,Top*
G04 #@! TF.Part,Single*
%AMOUTLINE1*
4,1,12,
0.066969,0.050236,
0.066969,0.036378,
0.040394,0.036378,
0.040394,-0.036378,
0.066969,-0.036378,
0.066969,-0.050236,
-0.066969,-0.050236,
-0.066969,-0.036378,
-0.040394,-0.036378,
-0.040394,0.036378,
-0.066969,0.036378,
-0.066969,0.050236,
0.066969,0.050236,
0*%
%AMOUTLINE4*
4,1,16,
-0.049252,0.04748,
0.049252,0.04748,
0.049252,-0.04748,
0.02752,-0.04748,
0.02752,-0.031339,
0.023662,-0.031339,
0.023662,-0.04748,
0.001929,-0.04748,
0.001929,-0.031339,
-0.001929,-0.031339,
-0.001929,-0.04748,
-0.023662,-0.04748,
-0.023662,-0.031339,
-0.02752,-0.031339,
-0.02752,-0.04748,
-0.049252,-0.04748,
-0.049252,0.04748,
0*%
%AMOUTLINE7*
4,1,16,
0.04748,0.049252,
0.04748,-0.049252,
-0.04748,-0.049252,
-0.04748,-0.02752,
-0.031339,-0.02752,
-0.031339,-0.023662,
-0.04748,-0.023662,
-0.04748,-0.001929,
-0.031339,-0.001929,
-0.031339,0.001929,
-0.04748,0.001929,
-0.04748,0.023662,
-0.031339,0.023662,
-0.031339,0.02752,
-0.04748,0.02752,
-0.04748,0.049252,
0.04748,0.049252,
0*%
%AMOUTLINE10*
4,1,5,
0.01874,-0.00752,
-0.01874,-0.00752,
-0.01874,0.00752,
0.013627,0.00752,
0.01874,0.002407,
0.01874,-0.00752,
0*%
%ADD38R,0.033544X0.01504*%
%ADD40R,0.028819X0.021733*%
%ADD42R,0.021733X0.028819*%
%ADD44R,0.304016X0.404016*%
%ADD46C,0.070945*%
%ADD48R,0.070945X0.070945*%
%ADD50R,0.055197X0.063071*%
%ADD52R,0.047323X0.043386*%
%ADD54O,0.01189X0.037481*%
%ADD60OUTLINE1*%
%ADD63OUTLINE4*%
%ADD66OUTLINE7*%
%ADD69OUTLINE10*%
%FSLAX26Y26*%
G04*
G70*
G90*
G75*
G01*
G04 TopMask*
%LPD*%
D54*
X666831Y1172194D3*
X682579D3*
X698327D3*
X714075D3*
X729823D3*
X745571D3*
Y1327706D3*
X729823D3*
X714075D3*
X698327D3*
X682579D3*
X666831D3*
D60*
X706201Y1249950D3*
D52*
X710235Y1424949D3*
X777164D3*
X560236Y1524952D3*
X627166D3*
X678987Y1087450D3*
X745916D3*
X614666D3*
X547736D3*
X777164Y1524950D3*
X710235D3*
X627166Y1474950D3*
X560236D3*
Y1424950D3*
X627166D3*
X777163Y1474948D3*
X710234D3*
D50*
X550049Y787450D3*
X624852D3*
D52*
X552166Y849950D3*
X485236D3*
X622736D3*
X689666D3*
X485236Y906201D3*
X552166D3*
X689666D3*
X622736D3*
X553986Y956201D3*
X620915D3*
D48*
X468701Y1718701D3*
D46*
Y1618701D3*
Y1518701D3*
Y1418701D3*
Y1318701D3*
Y1218701D3*
D52*
X785236Y656201D3*
X852166D3*
D44*
X1062450Y1393702D3*
Y793702D3*
D42*
X569586Y587697D3*
X543995D3*
X518404D3*
X492814D3*
D63*
X531200Y507776D3*
D40*
X743946Y492815D3*
Y518406D3*
Y543996D3*
Y569587D3*
D66*
X664025Y531201D3*
D52*
X566486Y656201D3*
X633415D3*
X852166Y581201D3*
X785236D3*
Y712450D3*
X852166D3*
D69*
X691782Y682135D3*
D38*
X689814Y662450D3*
Y642765D3*
X735089D3*
Y662450D3*
Y682135D3*
D52*
X566486Y712450D3*
X633415D3*
M02*
