G04 DipTrace 3.0.0.1*
G04 arduino-shield_lay.GTL*
%MOIN*%
G04 #@! TF.FileFunction,Copper,L1,Top*
G04 #@! TF.Part,Single*
G04 #@! TA.AperFunction,Conductor*
%ADD14C,0.008*%
G04 #@! TA.AperFunction,ComponentPad*
%ADD18R,0.066929X0.066929*%
%ADD19C,0.066929*%
%ADD20R,0.068898X0.068898*%
%ADD21C,0.068898*%
G04 #@! TA.AperFunction,ViaPad*
%ADD23C,0.04*%
%FSLAX26Y26*%
G04*
G70*
G90*
G75*
G01*
G04 Top*
%LPD*%
X1156509Y3075550D2*
D14*
Y3075518D1*
X1231717Y3000311D1*
Y2050654D1*
X1156520Y1975457D1*
X1156509Y2975550D2*
X1168969D1*
X1075251Y3069268D1*
Y3331795D1*
X1025245Y3381801D1*
X775198D1*
X725214Y3331816D1*
X2056604Y3319294D2*
X2087857Y3288041D1*
X1544050D1*
X1494045Y3338046D1*
Y3331816D1*
X2056604Y1506604D2*
X2044102D1*
X1987846Y1562860D1*
Y2244192D1*
X2056604Y2312949D1*
Y3219294D2*
X2050364D1*
X1981596Y3150526D1*
Y2487957D1*
X2056604Y2412949D1*
Y1406604D2*
X2062844D1*
X2112860Y1356588D1*
X2225371D1*
X2394139Y1525356D1*
Y2219199D1*
X2575408Y2400469D1*
X3055142Y675260D2*
X3056702D1*
X3713028Y1331585D1*
Y3034143D1*
Y3305961D1*
Y3381801D1*
X3663022Y3431806D1*
X3538030D1*
X3531759Y3438077D1*
X3713028Y3034143D2*
X3548152D1*
X3531759Y3050537D1*
X3713028Y3305961D2*
X3249626D1*
X3231727Y3288062D1*
X1244018Y1675371D2*
Y1669121D1*
X781543D1*
X725224Y1612802D1*
X3350490Y2400469D2*
X3356719D1*
X3406745Y2350442D1*
X3644270D1*
X3681774Y2312938D1*
Y1400343D1*
X3056692Y775260D1*
X3055142D1*
Y675260D1*
X2056604Y1406604D2*
Y1506604D1*
Y2312949D2*
Y2412949D1*
Y3219294D2*
Y3319294D1*
X3231727Y3488062D2*
Y3481811D1*
X3106714Y3356798D1*
X3076719D1*
X3055142Y3335220D1*
X3531759Y3638077D2*
X3294234Y3400552D1*
Y3356798D1*
X3275482Y3338046D1*
X3200474D1*
X3112965Y3250537D1*
X3070458D1*
X3055142Y3235220D1*
X3531759Y3250537D2*
X3525508D1*
X3412996Y3138025D1*
X3052337D1*
X3055142Y3135220D1*
X1594045Y1212886D2*
Y1200332D1*
X1687815Y1106562D1*
Y894039D1*
X1731570Y850285D1*
X2256625D1*
X2306630Y800280D1*
Y723772D1*
X2355142Y675260D1*
X1594045Y2931816D2*
X1687752D1*
X1812828Y2806740D1*
Y1025303D1*
X1862833Y975298D1*
X2437894D1*
X2537904Y875287D1*
Y792497D1*
X2555142Y775260D1*
X3450490Y2000469D2*
X3469189D1*
X3563012Y1906646D1*
Y1456598D1*
X3019205Y912791D1*
X2875440D1*
X2800432Y837783D1*
Y729970D1*
X2855142Y675260D1*
X1594045Y1312886D2*
X1587752D1*
X1706567Y1194071D1*
Y900290D1*
X1737820Y869037D1*
X2261365D1*
X2355142Y775260D1*
X1594045Y3031816D2*
X1787773D1*
X1831580Y2988009D1*
Y1037804D1*
X1875335Y994050D1*
X2456646D1*
X2600411Y850285D1*
Y729991D1*
X2655142Y675260D1*
X3450490Y2100469D2*
X3581764Y1969194D1*
Y1444097D1*
X3025455Y887789D1*
X2900442D1*
X2844186Y831533D1*
Y786215D1*
X2855142Y775260D1*
X1594045Y1512886D2*
Y1506614D1*
X1744071Y1356588D1*
Y919042D1*
X1756572Y906541D1*
X2323861D1*
X2455142Y775260D1*
X1594045Y3231816D2*
X1669031D1*
X1869084Y3031764D1*
Y1062807D1*
X1900337Y1031554D1*
X2506651D1*
X2700421Y837783D1*
Y729980D1*
X2755142Y675260D1*
X3450490Y2300469D2*
X3619268Y2131690D1*
Y1419094D1*
X3031706Y831533D1*
X2981701D1*
X2944197Y794029D1*
Y764315D1*
X2955142Y775260D1*
X1594045Y1412886D2*
Y1400353D1*
X1725319Y1269079D1*
Y906541D1*
X1744071Y887789D1*
X2306630D1*
X2400390Y794029D1*
Y730012D1*
X2455142Y675260D1*
X1594045Y3131816D2*
X1737778D1*
X1850332Y3019262D1*
Y1050306D1*
X1887836Y1012802D1*
X2469147D1*
X2650416Y831533D1*
Y779986D1*
X2655142Y775260D1*
X3450490Y2200469D2*
Y2194186D1*
X3600516Y2044160D1*
Y1431596D1*
X3031706Y862786D1*
X2956698D1*
X2900442Y806530D1*
Y729959D1*
X2955142Y675260D1*
X2156604Y3119294D2*
Y3113033D1*
X2144113Y3125524D1*
X2175366D1*
X2225371Y3175529D1*
Y3369299D1*
X2194118Y3400552D1*
X1662781D1*
X1594045Y3331816D1*
X3350490Y2300469D2*
X3150437D1*
X3125466Y2325440D1*
X2956698D1*
Y2331690D1*
X2950448D1*
X2912944Y2369194D1*
Y3306793D1*
X2475398Y3744339D1*
X1419037D1*
X1281522Y3606824D1*
Y3231816D1*
X1287773D1*
Y1623807D1*
Y669016D1*
X1344029Y612760D1*
X1575303D1*
X1600306Y637762D1*
Y730096D1*
X1555142Y775260D1*
X1287234Y1625366D2*
X1287773Y1623807D1*
X1555142Y675260D2*
X1511394Y631512D1*
X1425287D1*
X1400285Y656514D1*
Y694018D1*
X1369031Y725272D1*
X1331528D1*
X1306525Y750274D1*
Y812781D1*
X1331528Y837783D1*
Y3131774D1*
Y3625576D1*
X1431538Y3725587D1*
X2462896D1*
X2887941Y3300542D1*
Y2275434D1*
X2931696Y2231680D1*
X3106714D1*
X3137925Y2200469D1*
X3350490D1*
X1333601Y1519105D2*
X1331528Y3131774D1*
X3055142Y1175323D2*
X2937950D1*
X2937946Y1175319D1*
X3055142Y1075323D2*
X2937961D1*
X2937946Y1075308D1*
X725214Y2731816D2*
X706546D1*
X675209Y2700479D1*
Y2612970D1*
X1112722Y2175457D1*
X1156520D1*
X2600411Y600259D2*
X2562907Y562755D1*
X1319026D1*
X1212765Y669016D1*
Y1419133D1*
X1156520Y1475378D1*
X3350490Y1800469D2*
X3275398D1*
X3225476Y1850390D1*
X3031706D1*
X2762928Y1581612D1*
Y1387841D1*
X2706672Y606509D2*
X2712923D1*
X2650416Y544003D1*
X1287773D1*
X1162760Y669016D1*
Y869138D1*
X1156520Y875378D1*
X825224Y1812802D2*
Y1800385D1*
X781470Y1756630D1*
X700211D1*
X581449Y1637867D1*
Y825282D1*
X937736Y468995D1*
X3194223D1*
X3387993Y662765D1*
X825214Y3531816D2*
X843976D1*
X1087752Y3775592D1*
X2550406D1*
X2962949Y3363049D1*
Y2762986D1*
X3044207Y2681727D1*
X3048790D1*
X3055142Y2675375D1*
X1594045Y1112886D2*
Y1106572D1*
X1669063Y1031554D1*
Y887789D1*
X1725319Y831533D1*
X2200369D1*
X2256642Y775260D1*
X2255142D1*
X1594045Y2831816D2*
X1725245D1*
X1794076Y2762986D1*
Y1012802D1*
X1850332Y956546D1*
X2425392D1*
X2506651Y875287D1*
Y723751D1*
X2555142Y675260D1*
X3450490Y1900469D2*
X3469178D1*
X3544260Y1825387D1*
Y1469100D1*
X3012954Y937794D1*
X2850437D1*
X2762928Y850285D1*
Y783046D1*
X2755142Y775260D1*
X1469105Y1212886D2*
X1494045D1*
X3350490Y2000469D2*
X3325550Y2025408D1*
X2844186D1*
Y3281790D1*
X2437894Y3688083D1*
X1469042D1*
X1419037Y3638077D1*
Y2931816D1*
Y1212886D1*
Y869037D1*
X1455142Y832932D1*
Y775260D1*
X1494045Y2931816D2*
X1419037D1*
X2575408Y2000469D2*
X2581722D1*
X2631664Y2050411D1*
X2794181D1*
X2819184Y2025408D1*
X2844186D1*
X1494045Y1212886D2*
X1419037D1*
X2156604Y3319294D2*
Y3313033D1*
X2106609Y3263038D1*
Y2413072D1*
Y1556598D1*
X2156604Y1506604D1*
X2106609Y2413072D2*
X2156480D1*
X2156604Y2412949D1*
X825224Y1012802D2*
X843976D1*
X906483Y950295D1*
Y537752D1*
X956488Y487747D1*
X3162970D1*
X3325487Y650264D1*
X1594045Y1012886D2*
Y1019063D1*
X1650311Y962797D1*
Y881791D1*
X1649461Y880941D1*
X1755142Y775260D1*
X825214Y2731816D2*
Y2737993D1*
X775219Y2787988D1*
Y3156777D1*
X750217Y3181780D1*
X687710D1*
X643955Y3225534D1*
Y3638077D1*
X800222Y3794344D1*
X2569157D1*
X2987951Y3375550D1*
Y3102411D1*
X3055142Y3035220D1*
X1594045Y2731816D2*
Y2712991D1*
X1614705Y2692331D1*
X1639707D1*
X1675314Y2656724D1*
Y2525461D1*
X1638829Y2488976D1*
X1594045D1*
Y2006646D1*
X1550301Y1962902D1*
Y856535D1*
X1587804Y819031D1*
X1675314D1*
X1700316Y794029D1*
Y756525D1*
X1731570Y725272D1*
X1805154D1*
X1855142Y775260D1*
X2675408Y1800469D2*
X2669084D1*
Y1769047D1*
X2650416Y1750379D1*
X2487899D1*
X2437894Y1800385D1*
Y2187925D1*
X2506651Y2256682D1*
X2606661D1*
X2625413Y2275434D1*
Y2519210D1*
X2656667Y2550463D1*
X2700421D1*
X2775429Y2625471D1*
X725214Y2831816D2*
Y2800490D1*
X775219Y2750484D1*
Y2719231D1*
X806472Y2687978D1*
X868979D1*
X875230Y2681727D1*
Y2556747D1*
X1156520Y2275457D1*
X2506651Y600259D2*
X2500400D1*
X2481648Y581507D1*
X1331528D1*
X1244018Y669016D1*
Y1487879D1*
X1156520Y1575378D1*
X3350490Y1900469D2*
X3000526D1*
X2700421Y1600364D1*
Y1312833D1*
X2800432Y606509D2*
X2719173Y525251D1*
X1262770D1*
X1100253Y687768D1*
Y919112D1*
X1156520Y975378D1*
X3350490Y2100469D2*
X3331790Y2119168D1*
X2937946D1*
X2862938Y2194176D1*
Y3294291D1*
X2450395Y3706835D1*
X1444039D1*
X1381533Y3644328D1*
Y3031764D1*
Y1423715D1*
Y837783D1*
X1400285Y819031D1*
Y730117D1*
X1455142Y675260D1*
X1383215Y1423715D2*
X1381533D1*
D23*
X1244018Y1675371D3*
X1287773Y3231816D3*
X2950448Y2331690D3*
X1287234Y1625366D3*
X2931696Y2231680D3*
X1331528Y3131774D3*
D3*
X1333601Y1519105D3*
X2600411Y600259D3*
X2762928Y1387841D3*
X2706672Y606509D3*
X3387993Y662765D3*
X3325487Y650264D3*
X2775429Y2625471D3*
X2506651Y600259D3*
X2700421Y1312833D3*
X2800432Y606509D3*
X1381533Y3031764D3*
D3*
X2937946Y2119168D3*
X1383215Y1423715D3*
D18*
X1156520Y2475457D3*
D19*
Y2375457D3*
Y2275457D3*
Y2175457D3*
Y2075457D3*
Y1975457D3*
Y1875457D3*
Y1775457D3*
D18*
Y1575378D3*
D19*
Y1475378D3*
Y1375378D3*
Y1275378D3*
Y1175378D3*
Y1075378D3*
Y975378D3*
Y875378D3*
D18*
X3231727Y3488062D3*
D19*
Y3388062D3*
Y3288062D3*
D18*
X3531759Y3638077D3*
D19*
Y3538077D3*
Y3438077D3*
D18*
Y3250537D3*
D19*
Y3150537D3*
Y3050537D3*
D18*
X3055142Y1075323D3*
D19*
Y1175323D3*
Y1275323D3*
Y1375323D3*
Y1475323D3*
Y1575323D3*
Y1675323D3*
Y1775323D3*
D18*
Y775260D3*
D19*
Y675260D3*
X2955142Y775260D3*
Y675260D3*
X2855142Y775260D3*
Y675260D3*
X2755142Y775260D3*
Y675260D3*
X2655142Y775260D3*
Y675260D3*
X2555142Y775260D3*
Y675260D3*
X2455142Y775260D3*
Y675260D3*
X2355142Y775260D3*
Y675260D3*
X2255142Y775260D3*
Y675260D3*
X2155142Y775260D3*
Y675260D3*
X2055142Y775260D3*
Y675260D3*
X1955142Y775260D3*
Y675260D3*
X1855142Y775260D3*
Y675260D3*
X1755142Y775260D3*
Y675260D3*
X1655142Y775260D3*
Y675260D3*
X1555142Y775260D3*
Y675260D3*
X1455142Y775260D3*
Y675260D3*
X1355142Y775260D3*
Y675260D3*
D18*
X725224Y1812802D3*
D19*
X825224D3*
X725224Y1712802D3*
X825224D3*
X725224Y1612802D3*
X825224D3*
X725224Y1512802D3*
X825224D3*
X725224Y1412802D3*
X825224D3*
X725224Y1312802D3*
X825224D3*
X725224Y1212802D3*
X825224D3*
X725224Y1112802D3*
X825224D3*
X725224Y1012802D3*
X825224D3*
D18*
X1494045Y1812886D3*
D19*
X1594045D3*
X1494045Y1712886D3*
X1594045D3*
X1494045Y1612886D3*
X1594045D3*
X1494045Y1512886D3*
X1594045D3*
X1494045Y1412886D3*
X1594045D3*
X1494045Y1312886D3*
X1594045D3*
X1494045Y1212886D3*
X1594045D3*
X1494045Y1112886D3*
X1594045D3*
X1494045Y1012886D3*
X1594045D3*
D18*
X725214Y3531816D3*
D19*
X825214D3*
X725214Y3431816D3*
X825214D3*
X725214Y3331816D3*
X825214D3*
X725214Y3231816D3*
X825214D3*
X725214Y3131816D3*
X825214D3*
X725214Y3031816D3*
X825214D3*
X725214Y2931816D3*
X825214D3*
X725214Y2831816D3*
X825214D3*
X725214Y2731816D3*
X825214D3*
D18*
X1494045Y3531816D3*
D19*
X1594045D3*
X1494045Y3431816D3*
X1594045D3*
X1494045Y3331816D3*
X1594045D3*
X1494045Y3231816D3*
X1594045D3*
X1494045Y3131816D3*
X1594045D3*
X1494045Y3031816D3*
X1594045D3*
X1494045Y2931816D3*
X1594045D3*
X1494045Y2831816D3*
X1594045D3*
X1494045Y2731816D3*
X1594045D3*
D18*
X2575408Y2600469D3*
D19*
X2675408D3*
X2575408Y2500469D3*
X2675408D3*
X2575408Y2400469D3*
X2675408D3*
X2575408Y2300469D3*
X2675408D3*
X2575408Y2200469D3*
X2675408D3*
X2575408Y2100469D3*
X2675408D3*
X2575408Y2000469D3*
X2675408D3*
X2575408Y1900469D3*
X2675408D3*
X2575408Y1800469D3*
X2675408D3*
D18*
X3350490Y2600469D3*
D19*
X3450490D3*
X3350490Y2500469D3*
X3450490D3*
X3350490Y2400469D3*
X3450490D3*
X3350490Y2300469D3*
X3450490D3*
X3350490Y2200469D3*
X3450490D3*
X3350490Y2100469D3*
X3450490D3*
X3350490Y2000469D3*
X3450490D3*
X3350490Y1900469D3*
X3450490D3*
X3350490Y1800469D3*
X3450490D3*
D20*
X2056604Y1506604D3*
D21*
Y1406604D3*
Y1306604D3*
X2156604D3*
Y1406604D3*
Y1506604D3*
D20*
X2056604Y3319294D3*
D21*
Y3219294D3*
Y3119294D3*
X2156604D3*
Y3219294D3*
Y3319294D3*
D20*
X2056604Y2412949D3*
D21*
Y2312949D3*
Y2212949D3*
X2156604D3*
Y2312949D3*
Y2412949D3*
D18*
X825224Y2631722D3*
D19*
X725224D3*
D18*
X1594055Y912791D3*
D19*
X1494055D3*
D18*
X1594055Y2631722D3*
D19*
X1494055D3*
D18*
X825224Y912791D3*
D19*
X725224D3*
D18*
X3450500Y1700374D3*
D19*
X3350500D3*
D18*
X2675419D3*
D19*
X2575419D3*
X2937946Y1175319D3*
Y1075308D3*
D18*
X1156509Y3375550D3*
D19*
Y3275550D3*
Y3175550D3*
Y3075550D3*
Y2975550D3*
Y2875550D3*
Y2775550D3*
Y2675550D3*
D18*
X3055142Y2835220D3*
D19*
Y2935220D3*
Y3035220D3*
Y3135220D3*
Y3235220D3*
Y3335220D3*
Y3435220D3*
Y3535220D3*
Y3635220D3*
Y3735220D3*
D18*
Y1975375D3*
D19*
Y2075375D3*
Y2175375D3*
Y2275375D3*
Y2375375D3*
Y2475375D3*
Y2575375D3*
Y2675375D3*
M02*
