G04 DipTrace Beta 2.9.0.1*
G04 TopPaste.gbr*
%MOIN*%
G04 #@! TF.FileFunction,Paste,Top*
G04 #@! TF.Part,Single*
%ADD31R,0.07074X0.015622*%
%ADD37R,0.03137X0.025465*%
%ADD39R,0.03137X0.035307*%
%ADD41R,0.035307X0.03137*%
%FSLAX26Y26*%
G04*
G70*
G90*
G75*
G01*
G04 TopPaste*
%LPD*%
D41*
X1900408Y500261D3*
X1833479D3*
X1894157Y687781D3*
X1827228D3*
X1525369Y856549D3*
X1592298D3*
X681530Y987812D3*
X614601D3*
D39*
X962810Y937807D3*
Y1004736D3*
D37*
X1650382Y575269D3*
Y500466D3*
X1728434Y537867D3*
X1644131Y762789D3*
Y687986D3*
X1722184Y725387D3*
D41*
X744037Y625274D3*
X810966D3*
X850298Y725285D3*
X917227D3*
X900303Y1006564D3*
X833374D3*
X837797Y937807D3*
X904726D3*
X869050Y625274D3*
X935979D3*
X1569123Y687781D3*
X1502194D3*
X1900408Y575269D3*
X1833479D3*
X1894157Y762789D3*
X1827228D3*
X1569123D3*
X1502194D3*
X1575374Y575269D3*
X1508445D3*
X1575374Y500261D3*
X1508445D3*
D39*
X850298Y787791D3*
Y854720D3*
D31*
X1031567Y862799D3*
Y812799D3*
Y762799D3*
Y712799D3*
Y662799D3*
Y612799D3*
Y562799D3*
Y512799D3*
X1397709D3*
Y562799D3*
Y612799D3*
Y662799D3*
Y712799D3*
Y762799D3*
Y812799D3*
Y862799D3*
M02*
