G04 DipTrace Beta 2.9.0.1*
G04 Top.gbr*
%MOIN*%
G04 #@! TF.FileFunction,Copper,L1,Top*
G04 #@! TF.Part,Single*
G04 #@! TA.AperFunction,Conductor,NotC*
%ADD14C,0.012992*%
G04 #@! TA.AperFunction,SMDPad,CuDef*
%ADD17R,0.043307X0.03937*%
%ADD18R,0.03937X0.043307*%
%ADD19R,0.03937X0.033465*%
G04 #@! TA.AperFunction,ComponentPad*
%ADD20R,0.059055X0.059055*%
%ADD21C,0.059055*%
G04 #@! TA.AperFunction,SMDPad,CuDef*
%ADD22R,0.07874X0.023622*%
G04 #@! TA.AperFunction,ViaPad*
%ADD23C,0.04*%
%FSLAX26Y26*%
G04*
G70*
G90*
G75*
G01*
G04 Top*
%LPD*%
X1900408Y575269D2*
D14*
Y500261D1*
X1397709Y862799D2*
X1525369D1*
Y856549D1*
X1569123Y900303D1*
X1650382D1*
X1764108Y1014029D1*
X1821668D1*
X1031567Y562799D2*
Y512799D1*
Y469008D1*
X600272Y900303D2*
Y973483D1*
X614601Y987812D1*
X1031567Y812799D2*
X981556D1*
X925306Y869050D1*
X614601Y987812D2*
X569018D1*
X900303Y1006564D2*
X960982D1*
X962810Y1004736D1*
X869050Y625274D2*
X810966D1*
X1397709Y762799D2*
X1512878D1*
X1512867Y762789D1*
X1502194D1*
X1397709Y712799D2*
X1450345D1*
X1475364Y687781D1*
X1502194D1*
X1397709Y662799D2*
X1450340D1*
X1508445Y604694D1*
Y575269D1*
X1397709Y612799D2*
X1444084D1*
X1462862Y594021D1*
Y512762D1*
X1475364Y500261D1*
X1508445D1*
X1722184Y725387D2*
X1775293Y725285D1*
X1728434Y537867D2*
Y537765D1*
X1787896D1*
X1397709Y512799D2*
Y562799D1*
Y512799D2*
Y469008D1*
Y812799D2*
Y812794D1*
X1462862D1*
X1548543D1*
X1592298Y856549D1*
X1742928D1*
X1821668Y935289D1*
X1894157Y762789D2*
Y687781D1*
X679012Y900303D2*
Y985294D1*
X681530Y987812D1*
X1031567Y862799D2*
X1000314D1*
X962810Y900303D1*
Y937807D1*
X904726D1*
X850298Y787791D2*
Y725285D1*
X744037Y625274D2*
X581520D1*
X531514Y675280D1*
Y1006564D1*
X569018Y1044068D1*
X662778D1*
X681530Y1025316D1*
Y987812D1*
X850298Y787791D2*
X794042D1*
X731535Y994063D2*
X687781D1*
X681530Y987812D1*
X731535Y994063D2*
X750287D1*
X800293Y1044068D1*
X994063D1*
X1012815Y1025316D1*
Y950308D1*
X1000314Y937807D1*
X962810D1*
X679012Y742823D2*
X680316D1*
X792214Y854720D1*
X850298D1*
Y856549D1*
X994063Y712783D1*
X1031551D1*
X1031567Y712799D1*
X837797Y937807D2*
Y1002142D1*
X833374Y1006564D1*
X1031567Y762799D2*
X981551D1*
X887802Y856549D1*
Y887802D1*
X837797Y937807D1*
X679012Y821563D2*
X684049D1*
X725285Y862799D1*
Y919055D1*
X737786Y931556D1*
X837797D1*
Y937807D1*
X1031567Y612799D2*
X956533D1*
X944058Y625274D1*
X935979D1*
Y645854D1*
X919055Y662778D1*
X600272D1*
X556517Y706533D1*
Y777808D1*
X600272Y821563D1*
X1031567Y662799D2*
X987791D1*
X925306Y725285D1*
X917227D1*
X912804D1*
X875301Y687781D1*
X655314D1*
X600272Y742823D1*
X1569123Y762789D2*
X1644131D1*
X1827228D1*
X1821668Y856549D2*
Y835278D1*
X1825400Y831546D1*
Y764617D1*
X1827228Y762789D1*
X1569123Y687781D2*
X1644131D1*
Y687986D1*
X1827228D1*
Y687781D1*
Y654699D1*
X1844152Y637776D1*
X1906659D1*
X1931661Y662778D1*
Y825295D1*
X1900408Y856549D1*
X1575374Y575269D2*
X1650382D1*
X1833479D2*
Y595849D1*
X1850403Y612773D1*
X1912909D1*
X1956664Y656528D1*
Y881551D1*
X1902927Y935289D1*
X1900408D1*
X1650382Y575269D2*
X1833479D1*
X1575374Y500261D2*
X1650177D1*
X1650382Y500466D1*
X1833274D1*
X1833479Y500261D1*
Y473430D1*
X1850403Y456507D1*
X1925411D1*
X1981667Y512762D1*
Y932770D1*
X1900408Y1014029D1*
D23*
X1031567Y469008D3*
X925306Y869050D3*
X569018Y987812D3*
X1775293Y725285D3*
X1787896Y537765D3*
X1397709Y469008D3*
X1462862Y812794D3*
X794042Y787791D3*
X731535Y994063D3*
D3*
D17*
X1900408Y500261D3*
X1833479D3*
X1894157Y687781D3*
X1827228D3*
X1525369Y856549D3*
X1592298D3*
X681530Y987812D3*
X614601D3*
D18*
X962810Y937807D3*
Y1004736D3*
D19*
X1650382Y575269D3*
Y500466D3*
X1728434Y537867D3*
X1644131Y762789D3*
Y687986D3*
X1722184Y725387D3*
D17*
X744037Y625274D3*
X810966D3*
D20*
X600272Y900303D3*
D21*
Y821563D3*
Y742823D3*
X679012D3*
Y821563D3*
Y900303D3*
D20*
X1900408Y856549D3*
D21*
Y935289D3*
Y1014029D3*
X1821668D3*
Y935289D3*
Y856549D3*
D17*
X850298Y725285D3*
X917227D3*
X900303Y1006564D3*
X833374D3*
X837797Y937807D3*
X904726D3*
X869050Y625274D3*
X935979D3*
X1569123Y687781D3*
X1502194D3*
X1900408Y575269D3*
X1833479D3*
X1894157Y762789D3*
X1827228D3*
X1569123D3*
X1502194D3*
X1575374Y575269D3*
X1508445D3*
X1575374Y500261D3*
X1508445D3*
D18*
X850298Y787791D3*
Y854720D3*
D22*
X1031567Y862799D3*
Y812799D3*
Y762799D3*
Y712799D3*
Y662799D3*
Y612799D3*
Y562799D3*
Y512799D3*
X1397709D3*
Y562799D3*
Y612799D3*
Y662799D3*
Y712799D3*
Y762799D3*
Y812799D3*
Y862799D3*
M02*
