G04 DipTrace Beta 2.9.0.1*
G04 TopMask.gbr*
%MOIN*%
G04 #@! TF.FileFunction,Soldermask,Top*
G04 #@! TF.Part,Single*
%ADD25C,0.1004*%
%ADD30R,0.08674X0.031622*%
%ADD32C,0.067055*%
%ADD34R,0.067055X0.067055*%
%ADD36R,0.04737X0.041465*%
%ADD38R,0.04737X0.051307*%
%ADD40R,0.051307X0.04737*%
%FSLAX26Y26*%
G04*
G70*
G90*
G75*
G01*
G04 TopMask*
%LPD*%
D40*
X1900408Y500261D3*
X1833479D3*
X1894157Y687781D3*
X1827228D3*
X1525369Y856549D3*
X1592298D3*
X681530Y987812D3*
X614601D3*
D38*
X962810Y937807D3*
Y1004736D3*
D36*
X1650382Y575269D3*
Y500466D3*
X1728434Y537867D3*
X1644131Y762789D3*
Y687986D3*
X1722184Y725387D3*
D40*
X744037Y625274D3*
X810966D3*
D25*
X675580Y525755D3*
X1175580Y1000755D3*
X1575580D3*
D34*
X600272Y900303D3*
D32*
Y821563D3*
Y742823D3*
X679012D3*
Y821563D3*
Y900303D3*
D34*
X1900408Y856549D3*
D32*
Y935289D3*
Y1014029D3*
X1821668D3*
Y935289D3*
Y856549D3*
D40*
X850298Y725285D3*
X917227D3*
X900303Y1006564D3*
X833374D3*
X837797Y937807D3*
X904726D3*
X869050Y625274D3*
X935979D3*
X1569123Y687781D3*
X1502194D3*
X1900408Y575269D3*
X1833479D3*
X1894157Y762789D3*
X1827228D3*
X1569123D3*
X1502194D3*
X1575374Y575269D3*
X1508445D3*
X1575374Y500261D3*
X1508445D3*
D38*
X850298Y787791D3*
Y854720D3*
D30*
X1031567Y862799D3*
Y812799D3*
Y762799D3*
Y712799D3*
Y662799D3*
Y612799D3*
Y562799D3*
Y512799D3*
X1397709D3*
Y562799D3*
Y612799D3*
Y662799D3*
Y712799D3*
Y762799D3*
Y812799D3*
Y862799D3*
M02*
