G04 DipTrace 3.0.0.1*
G04 mpu9250.GTO*
%MOIN*%
G04 #@! TF.FileFunction,Legend,Top*
G04 #@! TF.Part,Single*
%ADD10C,0.01*%
%ADD22C,0.015754*%
%ADD14C,0.008*%
%FSLAX26Y26*%
G04*
G70*
G90*
G75*
G01*
G04 TopSilk*
%LPD*%
X518703Y918723D2*
D10*
X418701D1*
Y418679D1*
X518703D1*
Y918723D1*
X824951Y449952D2*
X812452Y437452D1*
X699950D1*
X687451Y449952D1*
Y524952D1*
X699950Y537452D1*
X812452D1*
X824951Y524952D1*
Y449952D1*
X688586Y622138D2*
X684651Y626089D1*
X802766Y622191D2*
X798816D1*
X802751Y622138D2*
Y626089D1*
X802766Y740254D2*
X798816D1*
X802766D2*
X802751Y736321D1*
X684636Y740254D2*
X688586D1*
X684636D2*
X684651Y736321D1*
D22*
X704332Y586714D3*
X551268Y829516D2*
D14*
X581412Y838695D1*
X551268Y847874D1*
X558431Y877892D2*
X555579Y876751D1*
X552694Y874443D1*
X551268Y872162D1*
Y867572D1*
X552694Y865264D1*
X555579Y862982D1*
X558431Y861815D1*
X562742Y860674D1*
X569938D1*
X574216Y861815D1*
X577101Y862982D1*
X579953Y865264D1*
X581412Y867572D1*
Y872162D1*
X579953Y874443D1*
X577101Y876751D1*
X574216Y877892D1*
X558431Y907909D2*
X555579Y906769D1*
X552694Y904461D1*
X551268Y902179D1*
Y897590D1*
X552694Y895281D1*
X555579Y893000D1*
X558431Y891833D1*
X562742Y890692D1*
X569938D1*
X574216Y891833D1*
X577101Y893000D1*
X579953Y895281D1*
X581412Y897589D1*
Y902179D1*
X579953Y904461D1*
X577101Y906769D1*
X574216Y907909D1*
X554451Y746720D2*
X551566Y744439D1*
X550140Y740990D1*
Y736400D1*
X551566Y732951D1*
X554451Y730643D1*
X557303D1*
X560188Y731811D1*
X561614Y732951D1*
X563040Y735233D1*
X565925Y742131D1*
X567351Y744439D1*
X568810Y745579D1*
X571662Y746720D1*
X575973D1*
X578825Y744439D1*
X580284Y740990D1*
Y736400D1*
X578825Y732951D1*
X575973Y730643D1*
X550140Y759520D2*
X580284D1*
Y767558D1*
X578825Y771007D1*
X575973Y773315D1*
X573088Y774456D1*
X568810Y775597D1*
X561614D1*
X557303Y774456D1*
X554451Y773315D1*
X551566Y771007D1*
X550140Y767559D1*
Y759520D1*
X580284Y806782D2*
X550140Y797576D1*
X580284Y788397D1*
X570236Y791846D2*
Y803333D1*
X552714Y648458D2*
X549829Y646176D1*
X548403Y642727D1*
Y638138D1*
X549829Y634689D1*
X552714Y632381D1*
X555566D1*
X558451Y633548D1*
X559877Y634689D1*
X561303Y636971D1*
X564188Y643868D1*
X565614Y646176D1*
X567073Y647317D1*
X569925Y648458D1*
X574236D1*
X577088Y646176D1*
X578547Y642727D1*
Y638138D1*
X577088Y634689D1*
X574236Y632381D1*
X555566Y678475D2*
X552714Y677334D1*
X549829Y675026D1*
X548403Y672745D1*
Y668155D1*
X549829Y665847D1*
X552714Y663566D1*
X555566Y662398D1*
X559877Y661258D1*
X567073D1*
X571351Y662398D1*
X574236Y663566D1*
X577088Y665847D1*
X578547Y668155D1*
Y672745D1*
X577088Y675026D1*
X574236Y677334D1*
X571351Y678475D1*
X548403Y691275D2*
X578547D1*
Y705044D1*
X548403Y560958D2*
X578547D1*
X548403Y544881D1*
X578547D1*
X555566Y590975D2*
X552714Y589834D1*
X549829Y587526D1*
X548403Y585245D1*
Y580655D1*
X549829Y578347D1*
X552714Y576066D1*
X555566Y574898D1*
X559877Y573758D1*
X567073D1*
X571351Y574898D1*
X574236Y576066D1*
X577088Y578347D1*
X578547Y580655D1*
Y585245D1*
X577088Y587526D1*
X574236Y589834D1*
X571351Y590975D1*
X556721Y448444D2*
X553869Y447303D1*
X550984Y444995D1*
X549558Y442713D1*
Y438124D1*
X550984Y435816D1*
X553869Y433534D1*
X556721Y432367D1*
X561032Y431226D1*
X568228D1*
X572506Y432367D1*
X575391Y433534D1*
X578243Y435816D1*
X579702Y438124D1*
Y442713D1*
X578243Y444995D1*
X575391Y447303D1*
X572506Y448444D1*
X568228D1*
Y442713D1*
X549558Y477320D2*
X579702D1*
X549558Y461244D1*
X579702D1*
X549558Y490120D2*
X579702D1*
Y498159D1*
X578243Y501608D1*
X575391Y503916D1*
X572506Y505056D1*
X568228Y506197D1*
X561032D1*
X556721Y505056D1*
X553869Y503916D1*
X550984Y501608D1*
X549558Y498159D1*
Y490120D1*
X843340Y444376D2*
X844766Y440927D1*
X849077Y438619D1*
X856240Y437478D1*
X860551D1*
X867714Y438619D1*
X872025Y440927D1*
X873451Y444376D1*
Y446657D1*
X872025Y450106D1*
X867714Y452387D1*
X860551Y453555D1*
X856240D1*
X849077Y452388D1*
X844766Y450106D1*
X843340Y446657D1*
Y444376D1*
X849077Y452388D2*
X867714Y438619D1*
X853355Y466355D2*
X873451Y478983D1*
X853355D2*
X873451Y466355D1*
X847618Y505551D2*
X844766Y504411D1*
X843340Y500962D1*
Y498680D1*
X844766Y495232D1*
X849077Y492923D1*
X856240Y491783D1*
X863403D1*
X869140Y492923D1*
X872025Y495232D1*
X873451Y498680D1*
Y499821D1*
X872025Y503243D1*
X869140Y505551D1*
X864829Y506692D1*
X863403D1*
X859092Y505551D1*
X856240Y503243D1*
X854814Y499821D1*
Y498680D1*
X856240Y495232D1*
X859092Y492923D1*
X863403Y491783D1*
X843340Y525223D2*
X844766Y521800D1*
X847618Y520633D1*
X850503D1*
X853355Y521800D1*
X854814Y524082D1*
X856240Y528671D1*
X857666Y532120D1*
X860551Y534402D1*
X863403Y535542D1*
X867714D1*
X870566Y534402D1*
X872025Y533261D1*
X873451Y529812D1*
Y525223D1*
X872025Y521800D1*
X870566Y520633D1*
X867714Y519492D1*
X863403D1*
X860551Y520633D1*
X857666Y522941D1*
X856240Y526363D1*
X854814Y530953D1*
X853355Y533261D1*
X850503Y534402D1*
X847618D1*
X844766Y533261D1*
X843340Y529812D1*
Y525223D1*
X643340Y444376D2*
X644766Y440927D1*
X649077Y438619D1*
X656240Y437478D1*
X660551D1*
X667714Y438619D1*
X672025Y440927D1*
X673451Y444376D1*
Y446657D1*
X672025Y450106D1*
X667714Y452387D1*
X660551Y453555D1*
X656240D1*
X649077Y452388D1*
X644766Y450106D1*
X643340Y446657D1*
Y444376D1*
X649077Y452388D2*
X667714Y438619D1*
X653355Y466355D2*
X673451Y478983D1*
X653355D2*
X673451Y466355D1*
X647618Y505551D2*
X644766Y504411D1*
X643340Y500962D1*
Y498680D1*
X644766Y495232D1*
X649077Y492923D1*
X656240Y491783D1*
X663403D1*
X669140Y492923D1*
X672025Y495232D1*
X673451Y498680D1*
Y499821D1*
X672025Y503243D1*
X669140Y505551D1*
X664829Y506692D1*
X663403D1*
X659092Y505551D1*
X656240Y503243D1*
X654814Y499821D1*
Y498680D1*
X656240Y495232D1*
X659092Y492923D1*
X663403Y491783D1*
X653355Y534428D2*
X657666Y533261D1*
X660551Y530979D1*
X661977Y527531D1*
Y526390D1*
X660551Y522941D1*
X657666Y520660D1*
X653355Y519492D1*
X651929D1*
X647618Y520660D1*
X644766Y522941D1*
X643340Y526390D1*
Y527531D1*
X644766Y530979D1*
X647618Y533261D1*
X653355Y534428D1*
X660551D1*
X667714Y533261D1*
X672025Y530979D1*
X673451Y527531D1*
Y525249D1*
X672025Y521800D1*
X669140Y520659D1*
X861773Y831512D2*
X891917D1*
Y845281D1*
X861773Y858081D2*
X891917D1*
Y868427D1*
X890458Y871876D1*
X889032Y873017D1*
X886180Y874158D1*
X881869D1*
X878984Y873017D1*
X877558Y871876D1*
X876132Y868427D1*
X874673Y871876D1*
X873247Y873017D1*
X870395Y874158D1*
X867510D1*
X864658Y873017D1*
X863199Y871876D1*
X861773Y868427D1*
Y858081D1*
X876132D2*
Y868427D1*
X868936Y904175D2*
X866084Y903034D1*
X863199Y900726D1*
X861773Y898445D1*
Y893855D1*
X863199Y891547D1*
X866084Y889266D1*
X868936Y888098D1*
X873247Y886958D1*
X880443D1*
X884721Y888098D1*
X887606Y889266D1*
X890458Y891547D1*
X891917Y893855D1*
Y898445D1*
X890458Y900726D1*
X887606Y903034D1*
X884721Y904175D1*
M02*
