G04 DipTrace 2.4.0.2*
%INMRR_Power_V2.GTL*%
%MOIN*%
%ADD13C,0.013*%
%ADD14C,0.0118*%
%ADD15C,0.0124*%
%ADD16C,0.025*%
%ADD17R,0.0433X0.0394*%
%ADD18R,0.0512X0.0591*%
%ADD19R,0.0591X0.0591*%
%ADD20C,0.0591*%
%ADD21R,0.025X0.06*%
%ADD22R,0.1181X0.1181*%
%ADD23C,0.1181*%
%ADD24R,0.0669X0.0669*%
%ADD25C,0.0669*%
%ADD26R,0.0394X0.0433*%
%ADD27R,0.126X0.0709*%
%ADD29R,0.0118X0.0551*%
%ADD32C,0.063*%
%ADD33R,0.063X0.063*%
%ADD35R,0.1555X0.0591*%
%ADD36R,0.3819X0.4094*%
%ADD37R,0.1506X0.485*%
%ADD38C,0.1575*%
%ADD40R,0.0965X0.0984*%
%ADD41R,0.0177X0.0354*%
%ADD42R,0.0276X0.0157*%
%ADD43R,0.0591X0.0512*%
%ADD44R,0.0709X0.126*%
%ADD45R,0.0374X0.0124*%
%ADD46C,0.0591*%
%ADD47C,0.0945*%
%ADD48C,0.04*%
%FSLAX44Y44*%
G04*
G70*
G90*
G75*
G01*
%LNTop*%
%LPD*%
X19658Y23660D2*
D13*
X21033Y25035D1*
Y29160D1*
X20596Y29597D1*
X20108Y31473D2*
D14*
Y31132D1*
D13*
Y29792D1*
X20266Y29634D1*
X20596D1*
Y29597D1*
X19912Y31473D2*
D14*
Y31132D1*
D13*
Y29114D1*
X20128Y28898D1*
Y28065D1*
X20158Y28035D1*
X19715Y31473D2*
D14*
Y31132D1*
D13*
Y29603D1*
X19057Y28945D1*
Y26347D1*
X19412Y25992D1*
X19896D1*
X20128Y26225D1*
Y26755D1*
X20158Y26785D1*
X20533Y28035D2*
Y28865D1*
X20596Y28928D1*
X20533Y28035D2*
Y26785D1*
X19518Y33205D2*
D14*
Y33545D1*
D13*
Y33788D1*
X19207Y34099D1*
Y34654D1*
X19660Y35106D1*
Y36721D1*
X18967Y37414D1*
X17628D1*
X17624Y37410D1*
X21774Y35150D2*
X21231D1*
X19660Y36721D1*
X19783Y26785D2*
Y28035D1*
Y27410D1*
X19408D1*
X24281Y18370D2*
D15*
X24533D1*
D13*
X25834D1*
D15*
X25837Y18368D1*
X22167Y17478D2*
D13*
Y17059D1*
X22149Y16916D1*
X6274Y8916D2*
Y5641D1*
X6336D1*
X10586Y16898D2*
X10086D1*
X9068D1*
X8461Y16291D1*
Y15257D1*
X8490Y15228D1*
X26274Y19541D2*
X26838D1*
X26899Y19601D1*
X23042Y16853D2*
X22211D1*
X22149Y16916D1*
X26274Y19541D2*
X24022D1*
X26274D2*
Y20041D1*
X26024Y20291D1*
X25586D1*
X25524Y20228D1*
X24022Y19541D2*
Y20039D1*
X24211Y20228D1*
X24711D1*
X25837Y18114D2*
D15*
X26089D1*
D13*
X26886D1*
X26899Y18101D1*
Y18853D1*
X26292D1*
X26274Y18872D1*
X26899Y17353D2*
Y11783D1*
X27266Y11416D1*
X25835Y17859D2*
D15*
X26080D1*
D13*
X26336Y17603D1*
X24282Y17858D2*
D15*
X24030D1*
D13*
X23894D1*
X23274Y18478D1*
Y19541D1*
X24281Y18112D2*
D15*
X24029D1*
D13*
X23952D1*
X23711Y18353D1*
Y18791D1*
X19524Y17291D2*
Y16710D1*
X19501Y16688D1*
X22961Y16228D2*
X21461D1*
X21024Y16666D1*
Y18478D1*
X20836D1*
X23709Y16228D2*
Y16851D1*
X23711Y16853D1*
X25836Y17603D2*
D15*
Y17476D1*
D13*
Y17166D1*
X25524Y16853D1*
X23711D1*
X20388Y16056D2*
X19538D1*
X19501Y16019D1*
X8836Y7228D2*
Y6478D1*
X7274Y4916D1*
X6399D1*
X6336Y4853D1*
X22167Y18041D2*
Y19648D1*
X21461Y20353D1*
X14461D1*
X11524Y17416D1*
Y12728D1*
X11774Y12478D1*
X24281Y17603D2*
D15*
X23836D1*
D13*
X23399Y18041D1*
X22836D1*
Y17478D2*
Y18041D1*
X38775Y7603D2*
Y8026D1*
X37011Y9791D1*
X40114Y7642D2*
X38815D1*
X38775Y7603D1*
Y11548D2*
Y12686D1*
X38336Y13125D1*
X40114Y11548D2*
Y13001D1*
X39990Y13125D1*
X9954Y23659D2*
X11329Y25034D1*
Y29159D1*
X10892Y29596D1*
X10405Y31472D2*
D14*
Y31131D1*
D13*
Y29791D1*
X10562Y29633D1*
X10892D1*
Y29596D1*
X10208Y31472D2*
D14*
Y31131D1*
D13*
Y29113D1*
X10424Y28897D1*
Y28064D1*
X10454Y28034D1*
X10011Y31472D2*
D14*
Y31131D1*
D13*
Y29602D1*
X9354Y28944D1*
Y26346D1*
X9708Y25991D1*
X10192D1*
X10424Y26224D1*
Y26754D1*
X10454Y26784D1*
X10829Y28034D2*
Y28864D1*
X10892Y28927D1*
X10829Y28034D2*
Y26784D1*
X9814Y33204D2*
D14*
Y33544D1*
D13*
Y33787D1*
X9503Y34098D1*
Y34653D1*
X9956Y35106D1*
Y36720D1*
X9263Y37413D1*
X7924D1*
X7920Y37409D1*
X12070Y35149D2*
X11527D1*
X9956Y36720D1*
X10079Y26784D2*
Y28034D1*
Y27409D1*
X9704D1*
X10405Y33204D2*
D14*
Y33544D1*
D13*
Y33869D1*
X9956Y34318D1*
X10208Y33204D2*
D14*
Y32863D1*
D13*
Y32834D1*
X10432Y32609D1*
X10696D1*
X10826Y32739D1*
Y34235D1*
X10743Y34318D1*
X9617Y33204D2*
D14*
Y33629D1*
D13*
X9420Y33826D1*
X7730D1*
X7642Y33738D1*
X11420Y33086D2*
Y34428D1*
X10743Y35106D1*
X29447Y23655D2*
X30822Y25030D1*
Y29155D1*
X30384Y29592D1*
X29897Y31468D2*
D14*
Y31127D1*
D13*
Y29787D1*
X30054Y29629D1*
X30384D1*
Y29592D1*
X29700Y31468D2*
D14*
Y31127D1*
D13*
Y29109D1*
X29917Y28893D1*
Y28060D1*
X29947Y28030D1*
X29503Y31468D2*
D14*
Y31127D1*
D13*
Y29598D1*
X28846Y28940D1*
Y26342D1*
X29200Y25987D1*
X29684D1*
X29917Y26220D1*
Y26750D1*
X29947Y26780D1*
X30322Y28030D2*
Y28860D1*
X30384Y28923D1*
X30322Y28030D2*
Y26780D1*
X29306Y33200D2*
D14*
Y33541D1*
D13*
Y33783D1*
X28995Y34094D1*
Y34649D1*
X29448Y35102D1*
Y36716D1*
X28755Y37409D1*
X27417D1*
X27413Y37405D1*
X31562Y35145D2*
X31019D1*
X29448Y36716D1*
X29572Y26780D2*
Y28030D1*
Y27405D1*
X29197D1*
X29897Y33200D2*
D14*
Y33541D1*
D13*
Y33865D1*
X29448Y34314D1*
X29700Y33200D2*
D14*
Y32859D1*
D13*
Y32830D1*
X29924Y32606D1*
X30188D1*
X30318Y32735D1*
Y34231D1*
X30235Y34314D1*
X29109Y33200D2*
D14*
Y33625D1*
D13*
X28913Y33822D1*
X27222D1*
X27134Y33734D1*
X30913Y33082D2*
Y34424D1*
X30235Y35102D1*
X39214Y23655D2*
X40589Y25030D1*
Y29155D1*
X40152Y29592D1*
X39665Y31468D2*
D14*
Y31127D1*
D13*
Y29787D1*
X39822Y29629D1*
X40152D1*
Y29592D1*
X39468Y31468D2*
D14*
Y31127D1*
D13*
Y29109D1*
X39684Y28893D1*
Y28060D1*
X39714Y28030D1*
X39271Y31468D2*
D14*
Y31127D1*
D13*
Y29598D1*
X38613Y28940D1*
Y26342D1*
X38968Y25987D1*
X39452D1*
X39684Y26220D1*
Y26750D1*
X39714Y26780D1*
X40089Y28030D2*
Y28860D1*
X40152Y28923D1*
X40089Y28030D2*
Y26780D1*
X39074Y33200D2*
D14*
Y33541D1*
D13*
Y33783D1*
X38763Y34094D1*
Y34649D1*
X39216Y35102D1*
Y36716D1*
X38523Y37409D1*
X37184D1*
X37180Y37405D1*
X41330Y35145D2*
X40787D1*
X39216Y36716D1*
X39339Y26780D2*
Y28030D1*
Y27405D1*
X38964D1*
X39665Y33200D2*
D14*
Y33541D1*
D13*
Y33865D1*
X39216Y34314D1*
X39468Y33200D2*
D14*
Y32859D1*
D13*
Y32830D1*
X39692Y32606D1*
X39956D1*
X40086Y32735D1*
Y34231D1*
X40003Y34314D1*
X38877Y33200D2*
D14*
Y33625D1*
D13*
X38680Y33822D1*
X36989D1*
X36902Y33734D1*
X40680Y33082D2*
Y34424D1*
X40003Y35102D1*
X20108Y33205D2*
D14*
Y33545D1*
D13*
Y33870D1*
X19660Y34319D1*
X19912Y33205D2*
D14*
Y32864D1*
D13*
Y32835D1*
X20136Y32610D1*
X20400D1*
X20530Y32740D1*
Y34236D1*
X20447Y34319D1*
X19321Y33205D2*
D14*
Y33630D1*
D13*
X19124Y33827D1*
X17433D1*
X17346Y33739D1*
X21124Y33087D2*
Y34429D1*
X20447Y35106D1*
D48*
X21774Y35150D3*
X19408Y27410D3*
X22149Y16916D3*
X26336Y17603D3*
X23711Y18791D3*
X19524Y17291D3*
X12070Y35149D3*
X9704Y27409D3*
X11420Y33086D3*
X31562Y35145D3*
X29197Y27405D3*
X30913Y33082D3*
X41330Y35145D3*
X38964Y27405D3*
X40680Y33082D3*
X21124Y33087D3*
X14871Y31796D2*
D16*
X19366D1*
X14871Y31547D2*
X19366D1*
X14871Y31298D2*
X19366D1*
X14871Y31050D2*
X19362D1*
X14871Y30801D2*
X19362D1*
X14871Y30552D2*
X19362D1*
X14871Y30304D2*
X19362D1*
X14871Y30055D2*
X19362D1*
X14871Y29806D2*
X19362D1*
X14871Y29558D2*
X19178D1*
X14871Y29309D2*
X18928D1*
X19391Y31557D2*
Y32013D1*
X19481D1*
X19480Y32041D1*
X18605Y32042D1*
X14846Y32035D1*
Y29285D1*
X18935Y29286D1*
X19385Y29739D1*
Y31132D1*
X19391Y31257D1*
Y31557D1*
X14871Y35661D2*
X18821D1*
X14871Y35412D2*
X18821D1*
X14871Y35164D2*
X18821D1*
X14871Y34915D2*
X18821D1*
X14871Y34666D2*
X18821D1*
X14871Y34418D2*
X18821D1*
X14871Y34169D2*
X18821D1*
X14871Y33920D2*
X18821D1*
X14871Y33671D2*
X18821D1*
X14871Y33423D2*
X18821D1*
X14871Y33174D2*
X18821D1*
X14846Y35785D2*
Y33160D1*
X18846D1*
Y35910D1*
X14846D1*
Y35785D1*
X14808Y28473D2*
X18702D1*
X20572D2*
X20681D1*
X14808Y28225D2*
X18702D1*
X20572D2*
X20681D1*
X14808Y27976D2*
X18702D1*
X20572D2*
X20681D1*
X14808Y27727D2*
X18702D1*
X20572D2*
X20681D1*
X14808Y27479D2*
X18702D1*
X20572D2*
X20681D1*
X14808Y27230D2*
X18702D1*
X20572D2*
X20681D1*
X14808Y26981D2*
X18702D1*
X20572D2*
X20681D1*
X14808Y26733D2*
X18702D1*
X20572D2*
X20681D1*
X14808Y26484D2*
X18702D1*
X20572D2*
X20681D1*
X14808Y26235D2*
X18721D1*
X20572D2*
X20681D1*
X14808Y25987D2*
X16397D1*
X17138D2*
X18924D1*
X20380D2*
X20678D1*
X14808Y25738D2*
X16014D1*
X17521D2*
X19178D1*
X20130D2*
X20678D1*
X14808Y25489D2*
X15838D1*
X17697D2*
X20678D1*
X14808Y25241D2*
X15752D1*
X17787D2*
X20678D1*
X14808Y24992D2*
X15733D1*
X17806D2*
X20498D1*
X14808Y24743D2*
X15776D1*
X17763D2*
X20248D1*
X20460Y28600D2*
X20548D1*
Y27470D1*
X20114D1*
X20113Y27351D1*
X20548Y27350D1*
Y26220D1*
X20458D1*
X20444Y26128D1*
X20386Y26018D1*
X20129Y25759D1*
X20026Y25689D1*
X19896Y25662D1*
X19412D1*
X19290Y25686D1*
X19178Y25759D1*
X18824Y26113D1*
X18754Y26216D1*
X18727Y26347D1*
Y28726D1*
X18346Y28722D1*
X14783D1*
Y24722D1*
X15811D1*
X15773Y24857D1*
X15758Y24981D1*
X15759Y25106D1*
X15776Y25230D1*
X15807Y25351D1*
X15853Y25467D1*
X15913Y25576D1*
X15986Y25677D1*
X16071Y25769D1*
X16167Y25849D1*
X16272Y25917D1*
X16384Y25972D1*
X16502Y26012D1*
X16625Y26037D1*
X16749Y26048D1*
X16874Y26042D1*
X16997Y26022D1*
X17117Y25986D1*
X17231Y25936D1*
X17339Y25872D1*
X17438Y25795D1*
X17526Y25707D1*
X17603Y25609D1*
X17667Y25502D1*
X17718Y25388D1*
X17754Y25268D1*
X17775Y25145D1*
X17781Y25036D1*
X17773Y24911D1*
X17730Y24725D1*
X18783Y24722D1*
X20256D1*
X20704Y25172D1*
X20703Y28726D1*
X20459Y28722D1*
X20458Y28597D1*
X20111Y19042D2*
X21622D1*
X20111Y18793D2*
X21622D1*
X20111Y18545D2*
X21622D1*
X20111Y18296D2*
X21622D1*
X20111Y18047D2*
X21622D1*
X20111Y17799D2*
X21622D1*
X20111Y17550D2*
X21622D1*
X20111Y17301D2*
X21622D1*
X20111Y17053D2*
X21622D1*
X20111Y16804D2*
X21622D1*
X20111Y16555D2*
X21622D1*
X20765Y16307D2*
X21622D1*
X20765Y16058D2*
X21622D1*
X20085Y16498D2*
X20741D1*
Y15978D1*
X21649D1*
Y19291D1*
X20086D1*
Y16498D1*
X17486Y19355D2*
X19001D1*
X17486Y19106D2*
X19001D1*
X17486Y18857D2*
X19001D1*
X17486Y18609D2*
X19001D1*
X17486Y18360D2*
X19001D1*
X17486Y18111D2*
X19001D1*
X17486Y17863D2*
X19001D1*
X17486Y17614D2*
X19001D1*
X18899Y19603D2*
X17461D1*
Y17416D1*
X19024D1*
Y19603D1*
X18899D1*
X5986Y16105D2*
X8106D1*
X8816D2*
X13501D1*
X7715Y15856D2*
X7883D1*
X9097D2*
X13501D1*
X9281Y15607D2*
X13501D1*
X9359Y15359D2*
X13501D1*
X9363Y15110D2*
X13501D1*
X9289Y14861D2*
X13501D1*
X7715Y14613D2*
X7872D1*
X9109D2*
X13501D1*
X5986Y14364D2*
X13501D1*
X5986Y14115D2*
X13501D1*
X5986Y13866D2*
X13501D1*
X5986Y13618D2*
X13501D1*
X5986Y13369D2*
X13501D1*
X5986Y13120D2*
X13501D1*
X5986Y12872D2*
X13501D1*
X5986Y12623D2*
X13501D1*
X5986Y12374D2*
X13501D1*
X5986Y12126D2*
X13501D1*
X5986Y11877D2*
X13501D1*
X5986Y11628D2*
X13501D1*
X5986Y11380D2*
X13501D1*
X5986Y11131D2*
X13501D1*
X5986Y10882D2*
X13501D1*
X6761Y10634D2*
X13501D1*
X6761Y10385D2*
X13501D1*
X6761Y10136D2*
X13501D1*
X6761Y9887D2*
X13501D1*
X6761Y9639D2*
X13501D1*
X6761Y9390D2*
X13501D1*
X6761Y9141D2*
X13501D1*
X6761Y8893D2*
X13501D1*
X6761Y8644D2*
X13501D1*
X6629Y8395D2*
X13501D1*
X6629Y8147D2*
X13501D1*
X6629Y7898D2*
X13501D1*
X6629Y7649D2*
X13501D1*
X6629Y7401D2*
X13501D1*
X6629Y7152D2*
X13501D1*
X6629Y6903D2*
X13501D1*
X6629Y6655D2*
X13501D1*
X6734Y9397D2*
X6735Y8434D1*
X6606D1*
X6603Y7791D1*
Y6474D1*
X7336Y6478D1*
X13524D1*
Y16353D1*
X8988D1*
X8790Y16153D1*
X8791Y16029D1*
X8935Y15959D1*
X9037Y15886D1*
X9127Y15799D1*
X9203Y15700D1*
X9264Y15592D1*
X9309Y15475D1*
X9336Y15353D1*
X9345Y15228D1*
X9336Y15104D1*
X9309Y14982D1*
X9264Y14865D1*
X9203Y14756D1*
X9127Y14657D1*
X9037Y14571D1*
X8935Y14498D1*
X8824Y14441D1*
X8706Y14401D1*
X8583Y14378D1*
X8458Y14373D1*
X8334Y14387D1*
X8213Y14419D1*
X8098Y14468D1*
X7992Y14533D1*
X7896Y14612D1*
X7813Y14705D1*
X7744Y14810D1*
X7692Y14919D1*
Y14373D1*
X5981D1*
Y16084D1*
X7692D1*
Y15533D1*
X7744Y15647D1*
X7812Y15751D1*
X7896Y15844D1*
X7992Y15924D1*
X8131Y16003D1*
X8132Y16295D1*
X8024Y16353D1*
X5961D1*
Y10818D1*
X6735Y10817D1*
X6731Y9854D1*
X6735Y9442D1*
X6731Y9104D1*
X16486Y15292D2*
X24501D1*
X16486Y15043D2*
X24501D1*
X16486Y14795D2*
X24501D1*
X16486Y14546D2*
X24501D1*
X16486Y14297D2*
X24501D1*
X16486Y14049D2*
X24501D1*
X16486Y13800D2*
X24501D1*
X16486Y13551D2*
X24501D1*
X16486Y13303D2*
X24501D1*
X16486Y13054D2*
X24501D1*
X16486Y12805D2*
X24501D1*
X16486Y12557D2*
X24501D1*
X16486Y12308D2*
X24501D1*
X16486Y12059D2*
X24501D1*
X16486Y11811D2*
X24501D1*
X16486Y11562D2*
X24501D1*
X16486Y11313D2*
X24501D1*
X16486Y11064D2*
X24501D1*
X16486Y10816D2*
X24501D1*
X16486Y10567D2*
X24501D1*
X16486Y10318D2*
X24501D1*
X16486Y10070D2*
X24501D1*
X16486Y9821D2*
X24501D1*
X16486Y9572D2*
X24501D1*
X16486Y9324D2*
X24501D1*
X16486Y9075D2*
X24501D1*
X16486Y8826D2*
X24501D1*
X16486Y8578D2*
X24501D1*
X16486Y8329D2*
X24501D1*
X16486Y8080D2*
X24501D1*
X19963Y15540D2*
X19463Y15537D1*
X18774Y15541D1*
X16461D1*
Y8041D1*
X24524D1*
Y15541D1*
X19965D1*
X24049Y20292D2*
X26184D1*
X24049Y20043D2*
X26184D1*
X24049Y19795D2*
X26184D1*
X24049Y19546D2*
X26184D1*
X24049Y19297D2*
X25786D1*
X24121Y19049D2*
X25786D1*
X24199Y18800D2*
X25786D1*
X24133Y18551D2*
X25786D1*
X24758Y18303D2*
X25360D1*
X24758Y18054D2*
X25360D1*
X24758Y17805D2*
X25360D1*
X25937Y19353D2*
X26211D1*
Y20541D1*
X24024D1*
Y19138D1*
X24085Y19067D1*
X24145Y18958D1*
X24176Y18791D1*
X24159Y18667D1*
X24110Y18553D1*
X24050Y18477D1*
X24154Y18439D1*
X24733D1*
X24734Y17728D1*
X25387D1*
X25383Y18186D1*
X25386Y18441D1*
X25811D1*
X25812Y19353D1*
X25937D1*
X31093Y18230D2*
X36559D1*
X30547Y17981D2*
X36559D1*
X30004Y17732D2*
X36559D1*
X29457Y17484D2*
X36559D1*
X28914Y17235D2*
X36559D1*
X28367Y16986D2*
X36559D1*
X27824Y16738D2*
X36559D1*
X27277Y16489D2*
X36559D1*
X26734Y16240D2*
X36559D1*
X26187Y15991D2*
X36559D1*
X25644Y15743D2*
X36551D1*
X25299Y15494D2*
X36403D1*
X25299Y15245D2*
X36258D1*
X25299Y14997D2*
X36110D1*
X25299Y14748D2*
X35965D1*
X25299Y14499D2*
X35821D1*
X25299Y14251D2*
X35672D1*
X25299Y14002D2*
X35528D1*
X25299Y13753D2*
X35379D1*
X25299Y13505D2*
X35235D1*
X25299Y13256D2*
X35090D1*
X25299Y13007D2*
X34942D1*
X25299Y12759D2*
X34797D1*
X25299Y12510D2*
X34649D1*
X25299Y12261D2*
X34504D1*
X25299Y12012D2*
X34360D1*
X25299Y11764D2*
X34211D1*
X25299Y11515D2*
X34067D1*
X25299Y11266D2*
X33922D1*
X25299Y11018D2*
X33774D1*
X25299Y10769D2*
X33629D1*
X25299Y10520D2*
X33481D1*
X25299Y10272D2*
X33336D1*
X25299Y10023D2*
X33192D1*
X25299Y9774D2*
X33043D1*
X25299Y9526D2*
X32899D1*
X25299Y9277D2*
X32751D1*
X25299Y9028D2*
X32606D1*
X25299Y8780D2*
X32461D1*
X25299Y8531D2*
X32313D1*
X25299Y8282D2*
X32168D1*
X25299Y8033D2*
X32020D1*
X31613Y18478D2*
X25273Y15585D1*
X25274Y7978D1*
X32012D1*
X32865Y9426D1*
X36586Y15761D1*
Y18478D1*
X31613D1*
X35862Y10730D2*
X37494D1*
X35862Y10481D2*
X37783D1*
X35862Y10232D2*
X38072D1*
X35862Y9983D2*
X38361D1*
X35862Y9735D2*
X38650D1*
X35862Y9486D2*
X38939D1*
X35862Y9237D2*
X39228D1*
X35862Y8989D2*
X39517D1*
X35862Y8740D2*
X39806D1*
X35862Y8491D2*
X40096D1*
X35862Y8243D2*
X40385D1*
X35862Y7994D2*
X40674D1*
X35862Y7745D2*
X40689D1*
X35862Y7497D2*
X40689D1*
X35862Y7248D2*
X40689D1*
X35862Y6999D2*
X40689D1*
X35862Y6750D2*
X40689D1*
X35862Y6502D2*
X40689D1*
X35862Y6253D2*
X40689D1*
X40712Y7984D2*
X37230Y10977D1*
X35837Y10978D1*
Y6165D1*
X40713D1*
Y7982D1*
X37361Y5542D2*
X39750D1*
X37361Y5293D2*
X39750D1*
X37361Y5045D2*
X39750D1*
X37361Y4796D2*
X39750D1*
X37361Y4547D2*
X39750D1*
X39649Y5791D2*
X37336D1*
Y4541D1*
X39774D1*
Y5791D1*
X39649D1*
X37310Y13730D2*
X40939D1*
X37392Y13481D2*
X40939D1*
X37478Y13232D2*
X40939D1*
X37564Y12984D2*
X40939D1*
X37646Y12735D2*
X40939D1*
X37732Y12486D2*
X40939D1*
X37814Y12238D2*
X40939D1*
X37900Y11989D2*
X40939D1*
X37986Y11740D2*
X40939D1*
X38068Y11492D2*
X40939D1*
X38153Y11243D2*
X40939D1*
X38239Y10994D2*
X40939D1*
X37200Y13977D2*
X38240Y10915D1*
X40963Y10916D1*
Y13979D1*
X37201D1*
X5167Y31795D2*
X9662D1*
X5167Y31546D2*
X9662D1*
X5167Y31297D2*
X9662D1*
X5167Y31049D2*
X9658D1*
X5167Y30800D2*
X9658D1*
X5167Y30551D2*
X9658D1*
X5167Y30303D2*
X9658D1*
X5167Y30054D2*
X9658D1*
X5167Y29805D2*
X9658D1*
X5167Y29557D2*
X9474D1*
X5167Y29308D2*
X9224D1*
X9687Y31556D2*
Y32012D1*
X9777D1*
X9776Y32040D1*
X8901Y32041D1*
X5142Y32034D1*
Y29284D1*
X9232Y29285D1*
X9681Y29738D1*
Y31131D1*
X9687Y31256D1*
Y31556D1*
X5167Y35660D2*
X9119D1*
X5167Y35411D2*
X9119D1*
X5167Y35163D2*
X9119D1*
X5167Y34914D2*
X9119D1*
X5167Y34665D2*
X9119D1*
X5167Y34417D2*
X9119D1*
X5167Y34168D2*
X9119D1*
X5167Y33919D2*
X9119D1*
X5167Y33670D2*
X9119D1*
X5167Y33422D2*
X9119D1*
X5167Y33173D2*
X9119D1*
X5142Y35784D2*
Y33159D1*
X9142D1*
Y35909D1*
X5142D1*
Y35784D1*
X5104Y28472D2*
X8998D1*
X10868D2*
X10977D1*
X5104Y28224D2*
X8998D1*
X10868D2*
X10977D1*
X5104Y27975D2*
X8998D1*
X10868D2*
X10977D1*
X5104Y27726D2*
X8998D1*
X10868D2*
X10977D1*
X5104Y27478D2*
X8998D1*
X10868D2*
X10977D1*
X5104Y27229D2*
X8998D1*
X10868D2*
X10977D1*
X5104Y26980D2*
X8998D1*
X10868D2*
X10977D1*
X5104Y26732D2*
X8998D1*
X10868D2*
X10977D1*
X5104Y26483D2*
X8998D1*
X10868D2*
X10977D1*
X5104Y26234D2*
X9017D1*
X10868D2*
X10977D1*
X5104Y25986D2*
X6693D1*
X7435D2*
X9220D1*
X10677D2*
X10974D1*
X5104Y25737D2*
X6310D1*
X7817D2*
X9474D1*
X10427D2*
X10974D1*
X5104Y25488D2*
X6135D1*
X7993D2*
X10974D1*
X5104Y25240D2*
X6049D1*
X8083D2*
X10974D1*
X5104Y24991D2*
X6029D1*
X8102D2*
X10795D1*
X5104Y24742D2*
X6072D1*
X8060D2*
X10545D1*
X10756Y28599D2*
X10844D1*
Y27469D1*
X10411D1*
X10409Y27350D1*
X10844Y27349D1*
Y26219D1*
X10755D1*
X10740Y26127D1*
X10682Y26017D1*
X10425Y25758D1*
X10323Y25688D1*
X10192Y25661D1*
X9708D1*
X9586Y25685D1*
X9475Y25758D1*
X9120Y26112D1*
X9051Y26215D1*
X9024Y26346D1*
Y28725D1*
X8642Y28721D1*
X5079D1*
Y24721D1*
X6107D1*
X6069Y24856D1*
X6054Y24980D1*
X6055Y25105D1*
X6072Y25229D1*
X6103Y25350D1*
X6149Y25466D1*
X6209Y25575D1*
X6283Y25677D1*
X6368Y25768D1*
X6463Y25848D1*
X6568Y25916D1*
X6680Y25971D1*
X6799Y26011D1*
X6921Y26036D1*
X7046Y26047D1*
X7170Y26041D1*
X7294Y26021D1*
X7413Y25985D1*
X7528Y25935D1*
X7635Y25871D1*
X7734Y25794D1*
X7822Y25706D1*
X7899Y25608D1*
X7964Y25501D1*
X8014Y25387D1*
X8050Y25267D1*
X8071Y25144D1*
X8077Y25035D1*
X8070Y24910D1*
X8026Y24724D1*
X9079Y24721D1*
X10552D1*
X11000Y25171D1*
Y28725D1*
X10755Y28721D1*
X10754Y28596D1*
X24659Y31791D2*
X29154D1*
X24659Y31542D2*
X29154D1*
X24659Y31294D2*
X29154D1*
X24659Y31045D2*
X29150D1*
X24659Y30796D2*
X29150D1*
X24659Y30547D2*
X29150D1*
X24659Y30299D2*
X29150D1*
X24659Y30050D2*
X29150D1*
X24659Y29801D2*
X29150D1*
X24659Y29553D2*
X28966D1*
X24659Y29304D2*
X28716D1*
X29179Y31552D2*
Y32008D1*
X29269D1*
X29268Y32036D1*
X28393Y32038D1*
X24634Y32030D1*
Y29280D1*
X28724Y29281D1*
X29173Y29734D1*
Y31127D1*
X29179Y31252D1*
Y31552D1*
X24659Y35656D2*
X28609D1*
X24659Y35407D2*
X28609D1*
X24659Y35159D2*
X28609D1*
X24659Y34910D2*
X28609D1*
X24659Y34661D2*
X28609D1*
X24659Y34413D2*
X28609D1*
X24659Y34164D2*
X28609D1*
X24659Y33915D2*
X28609D1*
X24659Y33667D2*
X28609D1*
X24659Y33418D2*
X28609D1*
X24659Y33169D2*
X28609D1*
X24634Y35780D2*
Y33155D1*
X28634D1*
Y35905D1*
X24634D1*
Y35780D1*
X24597Y28469D2*
X28490D1*
X30360D2*
X30469D1*
X24597Y28220D2*
X28490D1*
X30360D2*
X30469D1*
X24597Y27971D2*
X28490D1*
X30360D2*
X30469D1*
X24597Y27722D2*
X28490D1*
X30360D2*
X30469D1*
X24597Y27474D2*
X28490D1*
X30360D2*
X30469D1*
X24597Y27225D2*
X28490D1*
X30360D2*
X30469D1*
X24597Y26976D2*
X28490D1*
X30360D2*
X30469D1*
X24597Y26728D2*
X28490D1*
X30360D2*
X30469D1*
X24597Y26479D2*
X28490D1*
X30360D2*
X30469D1*
X24597Y26230D2*
X28509D1*
X30360D2*
X30469D1*
X24597Y25982D2*
X26185D1*
X26927D2*
X28713D1*
X30169D2*
X30466D1*
X24597Y25733D2*
X25802D1*
X27309D2*
X28966D1*
X29919D2*
X30466D1*
X24597Y25484D2*
X25627D1*
X27485D2*
X30466D1*
X24597Y25236D2*
X25541D1*
X27575D2*
X30466D1*
X24597Y24987D2*
X25521D1*
X27595D2*
X30287D1*
X24597Y24738D2*
X25564D1*
X27552D2*
X30037D1*
X30248Y28595D2*
X30336D1*
Y27465D1*
X29903D1*
X29901Y27346D1*
X30336Y27345D1*
Y26215D1*
X30247D1*
X30232Y26123D1*
X30174Y26013D1*
X29918Y25754D1*
X29815Y25684D1*
X29684Y25658D1*
X29200D1*
X29078Y25681D1*
X28967Y25754D1*
X28612Y26108D1*
X28543Y26211D1*
X28516Y26342D1*
Y28721D1*
X28134Y28717D1*
X24572D1*
Y24717D1*
X25599D1*
X25561Y24852D1*
X25547Y24976D1*
X25548Y25101D1*
X25564Y25225D1*
X25595Y25346D1*
X25642Y25462D1*
X25702Y25571D1*
X25775Y25673D1*
X25860Y25764D1*
X25955Y25844D1*
X26060Y25912D1*
X26173Y25967D1*
X26291Y26007D1*
X26413Y26033D1*
X26538Y26043D1*
X26662Y26037D1*
X26786Y26017D1*
X26905Y25981D1*
X27020Y25931D1*
X27127Y25867D1*
X27226Y25791D1*
X27314Y25702D1*
X27391Y25604D1*
X27456Y25497D1*
X27506Y25383D1*
X27542Y25263D1*
X27564Y25140D1*
X27569Y25031D1*
X27562Y24906D1*
X27519Y24720D1*
X28572Y24717D1*
X30044D1*
X30492Y25167D1*
Y28721D1*
X30247Y28717D1*
X30246Y28592D1*
X34427Y31791D2*
X38922D1*
X34427Y31542D2*
X38922D1*
X34427Y31294D2*
X38922D1*
X34427Y31045D2*
X38918D1*
X34427Y30796D2*
X38918D1*
X34427Y30547D2*
X38918D1*
X34427Y30299D2*
X38918D1*
X34427Y30050D2*
X38918D1*
X34427Y29801D2*
X38918D1*
X34427Y29553D2*
X38734D1*
X34427Y29304D2*
X38484D1*
X38947Y31552D2*
Y32008D1*
X39037D1*
X39036Y32036D1*
X38161Y32038D1*
X34402Y32030D1*
Y29280D1*
X38492Y29281D1*
X38941Y29734D1*
Y31127D1*
X38947Y31252D1*
Y31552D1*
X34427Y35656D2*
X38377D1*
X34427Y35407D2*
X38377D1*
X34427Y35159D2*
X38377D1*
X34427Y34910D2*
X38377D1*
X34427Y34661D2*
X38377D1*
X34427Y34413D2*
X38377D1*
X34427Y34164D2*
X38377D1*
X34427Y33915D2*
X38377D1*
X34427Y33667D2*
X38377D1*
X34427Y33418D2*
X38377D1*
X34427Y33169D2*
X38377D1*
X34402Y35780D2*
Y33155D1*
X38402D1*
Y35905D1*
X34402D1*
Y35780D1*
X34364Y28469D2*
X38258D1*
X40128D2*
X40237D1*
X34364Y28220D2*
X38258D1*
X40128D2*
X40237D1*
X34364Y27971D2*
X38258D1*
X40128D2*
X40237D1*
X34364Y27722D2*
X38258D1*
X40128D2*
X40237D1*
X34364Y27474D2*
X38258D1*
X40128D2*
X40237D1*
X34364Y27225D2*
X38258D1*
X40128D2*
X40237D1*
X34364Y26976D2*
X38258D1*
X40128D2*
X40237D1*
X34364Y26728D2*
X38258D1*
X40128D2*
X40237D1*
X34364Y26479D2*
X38258D1*
X40128D2*
X40237D1*
X34364Y26230D2*
X38277D1*
X40128D2*
X40237D1*
X34364Y25982D2*
X35953D1*
X36694D2*
X38480D1*
X39937D2*
X40234D1*
X34364Y25733D2*
X35570D1*
X37077D2*
X38734D1*
X39687D2*
X40234D1*
X34364Y25484D2*
X35394D1*
X37253D2*
X40234D1*
X34364Y25236D2*
X35308D1*
X37343D2*
X40234D1*
X34364Y24987D2*
X35289D1*
X37362D2*
X40055D1*
X34364Y24738D2*
X35332D1*
X37319D2*
X39805D1*
X40016Y28595D2*
X40104D1*
Y27465D1*
X39671D1*
X39669Y27346D1*
X39729Y27341D1*
X39824Y27345D1*
X40104D1*
Y26215D1*
X40014D1*
X40000Y26123D1*
X39942Y26013D1*
X39685Y25754D1*
X39582Y25684D1*
X39452Y25658D1*
X38968D1*
X38846Y25681D1*
X38734Y25754D1*
X38380Y26108D1*
X38310Y26211D1*
X38284Y26342D1*
Y28721D1*
X37902Y28717D1*
X34339D1*
Y24717D1*
X35367D1*
X35329Y24852D1*
X35314Y24976D1*
X35315Y25101D1*
X35332Y25225D1*
X35363Y25346D1*
X35409Y25462D1*
X35469Y25571D1*
X35542Y25673D1*
X35627Y25764D1*
X35723Y25844D1*
X35828Y25912D1*
X35940Y25967D1*
X36059Y26007D1*
X36181Y26033D1*
X36305Y26043D1*
X36430Y26037D1*
X36553Y26017D1*
X36673Y25981D1*
X36788Y25931D1*
X36895Y25867D1*
X36994Y25791D1*
X37082Y25702D1*
X37159Y25604D1*
X37223Y25497D1*
X37274Y25383D1*
X37310Y25263D1*
X37331Y25140D1*
X37337Y25031D1*
X37329Y24906D1*
X37286Y24720D1*
X38339Y24717D1*
X39812D1*
X40260Y25167D1*
X40259Y28721D1*
X40015Y28717D1*
X40014Y28592D1*
D19*
X20658Y40660D3*
D20*
X19871D3*
Y41447D3*
X20658D3*
D19*
X19660Y35106D3*
D20*
X20447D3*
Y34319D3*
X19660D3*
D21*
X20533Y28035D3*
X20158D3*
X19783D3*
X20533Y26785D3*
X20158D3*
X19783D3*
D22*
X17596Y27910D3*
D23*
X15942D3*
Y30075D3*
X17596D3*
D22*
X15971Y37410D3*
D23*
X17624D3*
Y35244D3*
X15971D3*
D24*
X19658Y23660D3*
D25*
X20658D3*
D26*
X20596Y29597D3*
Y28928D3*
D27*
X17346Y31535D3*
Y33739D3*
X16096Y31535D3*
Y33739D3*
D29*
X19321Y31473D3*
X19518D3*
X19715D3*
X19912D3*
X20108D3*
Y33205D3*
X19912D3*
X19715D3*
X19518D3*
X19321D3*
D26*
X38836Y6335D3*
Y5666D3*
X38211Y6335D3*
Y5666D3*
D32*
X32086Y19853D3*
D33*
Y17853D3*
D32*
X35336Y19853D3*
D33*
Y17853D3*
D17*
X23711Y16853D3*
X23042D3*
D32*
X12211Y5166D3*
D33*
Y7166D3*
D32*
X8836Y5228D3*
D33*
Y7228D3*
D26*
X10086Y16228D3*
Y16898D3*
X10586Y16228D3*
Y16898D3*
X26274Y18872D3*
Y19541D3*
D17*
X22836Y17478D3*
X22167D3*
D35*
X23211Y12416D3*
Y10416D3*
D36*
X27266Y11416D3*
D26*
X6274Y8916D3*
Y9585D3*
D22*
X6836Y15228D3*
D23*
X8490D3*
Y13063D3*
X6836D3*
D22*
X38336Y15291D3*
D23*
X39990D3*
Y13125D3*
X38336D3*
D19*
X6336Y5641D3*
D20*
Y4853D3*
D37*
X11774Y12478D3*
X18169D3*
D38*
X30712Y9791D3*
X37011D3*
D40*
X20774Y15166D3*
D41*
X20388Y16056D3*
X20644Y16054D3*
X20900D3*
X21155Y16052D3*
D42*
X21352Y15453D3*
X20181Y15457D3*
D43*
X26899Y18853D3*
Y19601D3*
Y17353D3*
Y18101D3*
D18*
X23274Y19541D3*
X24022D3*
X22961Y16228D3*
X23709D3*
D44*
X20836Y18478D3*
X18631D3*
D26*
X19501Y16688D3*
Y16019D3*
D17*
X22836Y18041D3*
X22167D3*
D26*
X6274Y11004D3*
Y10335D3*
D45*
X25836Y17603D3*
X25835Y17859D3*
X25837Y18114D3*
Y18368D3*
X24281Y17603D3*
X24282Y17858D3*
X24281Y18112D3*
Y18370D3*
D46*
X17649Y18853D3*
Y18103D3*
X37899Y4853D3*
X39211D3*
X24711Y20228D3*
X25524D3*
D47*
X38775Y7603D3*
Y11548D3*
X40114D3*
Y7642D3*
D19*
X10954Y40659D3*
D20*
X10167D3*
Y41446D3*
X10954D3*
D19*
X9956Y35106D3*
D20*
X10743D3*
Y34318D3*
X9956D3*
D21*
X10829Y28034D3*
X10454D3*
X10079D3*
X10829Y26784D3*
X10454D3*
X10079D3*
D22*
X7892Y27909D3*
D23*
X6238D3*
Y30074D3*
X7892D3*
D22*
X6267Y37409D3*
D23*
X7920D3*
Y35243D3*
X6267D3*
D24*
X9954Y23659D3*
D25*
X10954D3*
D26*
X10892Y29596D3*
Y28927D3*
D27*
X7642Y31534D3*
Y33738D3*
X6392Y31534D3*
Y33738D3*
D29*
X9617Y31472D3*
X9814D3*
X10011D3*
X10208D3*
X10405D3*
Y33204D3*
X10208D3*
X10011D3*
X9814D3*
X9617D3*
D19*
X30447Y40655D3*
D20*
X29659D3*
Y41442D3*
X30447D3*
D19*
X29448Y35102D3*
D20*
X30235D3*
Y34314D3*
X29448D3*
D21*
X30322Y28030D3*
X29947D3*
X29572D3*
X30322Y26780D3*
X29947D3*
X29572D3*
D22*
X27384Y27905D3*
D23*
X25731D3*
Y30070D3*
X27384D3*
D22*
X25759Y37405D3*
D23*
X27413D3*
Y35239D3*
X25759D3*
D24*
X29447Y23655D3*
D25*
X30447D3*
D26*
X30384Y29592D3*
Y28923D3*
D27*
X27134Y31530D3*
Y33734D3*
X25884Y31530D3*
Y33734D3*
D29*
X29109Y31468D3*
X29306D3*
X29503D3*
X29700D3*
X29897D3*
Y33200D3*
X29700D3*
X29503D3*
X29306D3*
X29109D3*
D19*
X40214Y40655D3*
D20*
X39427D3*
Y41442D3*
X40214D3*
D19*
X39216Y35102D3*
D20*
X40003D3*
Y34314D3*
X39216D3*
D21*
X40089Y28030D3*
X39714D3*
X39339D3*
X40089Y26780D3*
X39714D3*
X39339D3*
D22*
X37152Y27905D3*
D23*
X35498D3*
Y30070D3*
X37152D3*
D22*
X35527Y37405D3*
D23*
X37180D3*
Y35239D3*
X35527D3*
D24*
X39214Y23655D3*
D25*
X40214D3*
D26*
X40152Y29592D3*
Y28923D3*
D27*
X36902Y31530D3*
Y33734D3*
X35652Y31530D3*
Y33734D3*
D29*
X38877Y31468D3*
X39074D3*
X39271D3*
X39468D3*
X39665D3*
Y33200D3*
X39468D3*
X39271D3*
X39074D3*
X38877D3*
M02*
