G04 DipTrace 2.4.0.2*
%INMRR_Power_V2.GBO*%
%MOIN*%
%ADD10C,0.0098*%
%ADD34C,0.0154*%
%ADD117C,0.0077*%
%ADD118C,0.0062*%
%ADD119C,0.0093*%
%FSLAX44Y44*%
G04*
G70*
G90*
G75*
G01*
%LNBotSilk*%
%LPD*%
X21131Y41919D2*
D10*
X19398D1*
Y40187D1*
X21131D1*
Y41919D1*
X19187Y33847D2*
X20919D1*
Y35579D1*
X19187D1*
Y33847D1*
X21158Y23160D2*
X19158D1*
Y24160D1*
X21158D1*
Y23160D1*
X19323Y37262D2*
Y37671D1*
X19333Y37274D2*
X21136D1*
Y38636D1*
X19311D1*
Y38315D1*
X19301Y38337D2*
G02X19280Y37650I5J-344D01*
G01*
X18566Y26612D2*
Y27990D1*
X21125Y26612D2*
Y27990D1*
G36*
X18204Y34120D2*
X17964D1*
X17864Y33950D1*
Y33380D1*
X17964Y33210D1*
X18204D1*
D1*
Y34120D1*
G37*
G36*
X17744Y33950D2*
X17524D1*
X17454Y33840D1*
X15994D1*
X16014Y33760D1*
X16444Y33490D1*
X17454D1*
X17524Y33380D1*
X17744D1*
Y33950D1*
G37*
G36*
X15924Y33690D2*
X15884Y33810D1*
X15784Y33920D1*
X15634Y33960D1*
X15484Y33920D1*
X15374Y33810D1*
X15334Y33670D1*
X15374Y33520D1*
X15484Y33410D1*
X15634Y33370D1*
X15744Y33400D1*
X17224Y32490D1*
X17264Y32370D1*
X17374Y32260D1*
X17524Y32220D1*
X17664Y32260D1*
X17774Y32370D1*
X17814Y32520D1*
X17774Y32670D1*
X17664Y32780D1*
X17514Y32820D1*
X17394Y32790D1*
X15924Y33690D1*
G37*
G36*
X17074Y32460D2*
X17124Y32430D1*
X17164Y32300D1*
X17294Y32190D1*
X16414Y31660D1*
X15904D1*
X15854Y31720D1*
D1*
X17074Y32460D1*
G37*
G36*
X15864Y31550D2*
X15784Y31630D1*
X15634Y31680D1*
X15484Y31640D1*
X15374Y31530D1*
X15334Y31380D1*
X15374Y31230D1*
X15484Y31120D1*
X15634Y31080D1*
X15774Y31120D1*
X15864Y31210D1*
X17034D1*
X16984Y31380D1*
X17034Y31550D1*
X15864D1*
G37*
G36*
X17464Y31690D2*
X17514Y31680D1*
X17644Y31560D1*
X17654Y31520D1*
X17684Y31550D1*
X18174D1*
X18204Y31720D1*
X17604Y31840D1*
X17464Y31690D1*
G37*
G36*
X17224Y31580D2*
X17344Y31610D1*
X17464Y31580D1*
X17554Y31490D1*
X17584Y31380D1*
X17564Y31320D1*
X17694Y31200D1*
X18174Y31210D1*
X18204Y31030D1*
X17604Y30920D1*
X17374Y31150D1*
X17334Y31140D1*
X17234Y31170D1*
X17144Y31260D1*
X17114Y31380D1*
X17144Y31500D1*
X17224Y31580D1*
G37*
X30134Y20339D2*
D10*
X14386D1*
Y4591D1*
X30134D1*
Y20339D1*
G36*
X35311Y12298D2*
Y12538D1*
X35141Y12638D1*
X34571D1*
X34401Y12538D1*
Y12298D1*
D1*
X35311D1*
G37*
G36*
X35141Y12758D2*
Y12978D1*
X35031Y13048D1*
Y14508D1*
X34951Y14488D1*
X34681Y14058D1*
Y13048D1*
X34571Y12978D1*
Y12758D1*
X35141D1*
G37*
G36*
X34881Y14578D2*
X35001Y14618D1*
X35111Y14718D1*
X35151Y14868D1*
X35111Y15018D1*
X35001Y15128D1*
X34861Y15168D1*
X34711Y15128D1*
X34601Y15018D1*
X34561Y14868D1*
X34591Y14758D1*
X33681Y13278D1*
X33561Y13238D1*
X33451Y13128D1*
X33411Y12978D1*
X33451Y12838D1*
X33561Y12728D1*
X33711Y12688D1*
X33861Y12728D1*
X33971Y12838D1*
X34011Y12988D1*
X33981Y13108D1*
X34881Y14578D1*
G37*
G36*
X33651Y13428D2*
X33621Y13378D1*
X33491Y13338D1*
X33381Y13208D1*
X32851Y14088D1*
Y14598D1*
X32911Y14648D1*
D1*
X33651Y13428D1*
G37*
G36*
X32741Y14638D2*
X32821Y14718D1*
X32871Y14868D1*
X32831Y15018D1*
X32721Y15128D1*
X32571Y15168D1*
X32421Y15128D1*
X32311Y15018D1*
X32271Y14868D1*
X32311Y14728D1*
X32401Y14638D1*
Y13468D1*
X32571Y13518D1*
X32741Y13468D1*
Y14638D1*
G37*
G36*
X32881Y13038D2*
X32871Y12988D1*
X32751Y12858D1*
X32711Y12848D1*
X32741Y12818D1*
Y12328D1*
X32911Y12298D1*
X33031Y12898D1*
X32881Y13038D1*
G37*
G36*
X32771Y13278D2*
X32801Y13158D1*
X32771Y13038D1*
X32681Y12948D1*
X32571Y12918D1*
X32511Y12938D1*
X32391Y12808D1*
X32401Y12328D1*
X32221Y12298D1*
X32111Y12898D1*
X32341Y13128D1*
X32331Y13168D1*
X32361Y13268D1*
X32451Y13358D1*
X32571Y13388D1*
X32691Y13358D1*
X32771Y13278D1*
G37*
X11427Y41919D2*
D10*
X9695D1*
Y40186D1*
X11427D1*
Y41919D1*
X9483Y33846D2*
X11216D1*
Y35578D1*
X9483D1*
Y33846D1*
X11454Y23159D2*
X9454D1*
Y24159D1*
X11454D1*
Y23159D1*
X9619Y37261D2*
Y37670D1*
X9629Y37273D2*
X11432D1*
Y38635D1*
X9607D1*
Y38314D1*
X9598Y38336D2*
G02X9576Y37649I5J-344D01*
G01*
X8862Y26611D2*
Y27989D1*
X11421Y26611D2*
Y27989D1*
G36*
X8500Y34119D2*
X8260D1*
X8160Y33949D1*
Y33379D1*
X8260Y33209D1*
X8500D1*
D1*
Y34119D1*
G37*
G36*
X8040Y33949D2*
X7820D1*
X7750Y33839D1*
X6290D1*
X6310Y33759D1*
X6740Y33489D1*
X7750D1*
X7820Y33379D1*
X8040D1*
Y33949D1*
G37*
G36*
X6220Y33689D2*
X6180Y33809D1*
X6080Y33919D1*
X5930Y33959D1*
X5780Y33919D1*
X5670Y33809D1*
X5630Y33669D1*
X5670Y33519D1*
X5780Y33409D1*
X5930Y33369D1*
X6040Y33399D1*
X7520Y32489D1*
X7560Y32369D1*
X7670Y32259D1*
X7820Y32219D1*
X7960Y32259D1*
X8070Y32369D1*
X8110Y32519D1*
X8070Y32669D1*
X7960Y32779D1*
X7810Y32819D1*
X7690Y32789D1*
X6220Y33689D1*
G37*
G36*
X7370Y32459D2*
X7420Y32429D1*
X7460Y32299D1*
X7590Y32189D1*
X6710Y31659D1*
X6200D1*
X6150Y31719D1*
D1*
X7370Y32459D1*
G37*
G36*
X6160Y31549D2*
X6080Y31629D1*
X5930Y31679D1*
X5780Y31639D1*
X5670Y31529D1*
X5630Y31379D1*
X5670Y31229D1*
X5780Y31119D1*
X5930Y31079D1*
X6070Y31119D1*
X6160Y31209D1*
X7330D1*
X7280Y31379D1*
X7330Y31549D1*
X6160D1*
G37*
G36*
X7760Y31689D2*
X7810Y31679D1*
X7940Y31559D1*
X7950Y31519D1*
X7980Y31549D1*
X8470D1*
X8500Y31719D1*
X7900Y31839D1*
X7760Y31689D1*
G37*
G36*
X7520Y31579D2*
X7640Y31609D1*
X7760Y31579D1*
X7850Y31489D1*
X7880Y31379D1*
X7860Y31319D1*
X7990Y31199D1*
X8470Y31209D1*
X8500Y31029D1*
X7900Y30919D1*
X7670Y31149D1*
X7630Y31139D1*
X7530Y31169D1*
X7440Y31259D1*
X7410Y31379D1*
X7440Y31499D1*
X7520Y31579D1*
G37*
X30919Y41915D2*
D10*
X29187D1*
Y40182D1*
X30919D1*
Y41915D1*
X28976Y33842D2*
X30708D1*
Y35574D1*
X28976D1*
Y33842D1*
X30947Y23155D2*
X28947D1*
Y24155D1*
X30947D1*
Y23155D1*
X29111Y37257D2*
Y37666D1*
X29121Y37269D2*
X30924D1*
Y38631D1*
X29100D1*
Y38310D1*
X29090Y38332D2*
G02X29068Y37645I5J-344D01*
G01*
X28355Y26608D2*
Y27985D1*
X30914Y26608D2*
Y27985D1*
G36*
X27992Y34115D2*
X27752D1*
X27652Y33945D1*
Y33375D1*
X27752Y33205D1*
X27992D1*
D1*
Y34115D1*
G37*
G36*
X27532Y33945D2*
X27312D1*
X27242Y33835D1*
X25782D1*
X25802Y33755D1*
X26232Y33485D1*
X27242D1*
X27312Y33375D1*
X27532D1*
Y33945D1*
G37*
G36*
X25712Y33685D2*
X25672Y33805D1*
X25572Y33915D1*
X25422Y33955D1*
X25272Y33915D1*
X25162Y33805D1*
X25122Y33665D1*
X25162Y33515D1*
X25272Y33405D1*
X25422Y33365D1*
X25532Y33395D1*
X27012Y32485D1*
X27052Y32365D1*
X27162Y32255D1*
X27312Y32215D1*
X27452Y32255D1*
X27562Y32365D1*
X27602Y32515D1*
X27562Y32665D1*
X27452Y32775D1*
X27302Y32815D1*
X27182Y32785D1*
X25712Y33685D1*
G37*
G36*
X26862Y32455D2*
X26912Y32425D1*
X26952Y32295D1*
X27082Y32185D1*
X26202Y31655D1*
X25692D1*
X25642Y31715D1*
D1*
X26862Y32455D1*
G37*
G36*
X25652Y31545D2*
X25572Y31625D1*
X25422Y31675D1*
X25272Y31635D1*
X25162Y31525D1*
X25122Y31375D1*
X25162Y31225D1*
X25272Y31115D1*
X25422Y31075D1*
X25562Y31115D1*
X25652Y31205D1*
X26822D1*
X26772Y31375D1*
X26822Y31545D1*
X25652D1*
G37*
G36*
X27252Y31685D2*
X27302Y31675D1*
X27432Y31555D1*
X27442Y31515D1*
X27472Y31545D1*
X27962D1*
X27992Y31715D1*
X27392Y31835D1*
X27252Y31685D1*
G37*
G36*
X27012Y31575D2*
X27132Y31605D1*
X27252Y31575D1*
X27342Y31485D1*
X27372Y31375D1*
X27352Y31315D1*
X27482Y31195D1*
X27962Y31205D1*
X27992Y31025D1*
X27392Y30915D1*
X27162Y31145D1*
X27122Y31135D1*
X27022Y31165D1*
X26932Y31255D1*
X26902Y31375D1*
X26932Y31495D1*
X27012Y31575D1*
G37*
X40687Y41915D2*
D10*
X38954D1*
Y40182D1*
X40687D1*
Y41915D1*
X38743Y33842D2*
X40476D1*
Y35574D1*
X38743D1*
Y33842D1*
X40714Y23155D2*
X38714D1*
Y24155D1*
X40714D1*
Y23155D1*
X38879Y37257D2*
Y37666D1*
X38889Y37269D2*
X40692D1*
Y38631D1*
X38867D1*
Y38310D1*
X38857Y38332D2*
G02X38836Y37645I5J-344D01*
G01*
X38122Y26608D2*
Y27985D1*
X40681Y26608D2*
Y27985D1*
G36*
X37760Y34115D2*
X37520D1*
X37420Y33945D1*
Y33375D1*
X37520Y33205D1*
X37760D1*
D1*
Y34115D1*
G37*
G36*
X37300Y33945D2*
X37080D1*
X37010Y33835D1*
X35550D1*
X35570Y33755D1*
X36000Y33485D1*
X37010D1*
X37080Y33375D1*
X37300D1*
Y33945D1*
G37*
G36*
X35480Y33685D2*
X35440Y33805D1*
X35340Y33915D1*
X35190Y33955D1*
X35040Y33915D1*
X34930Y33805D1*
X34890Y33665D1*
X34930Y33515D1*
X35040Y33405D1*
X35190Y33365D1*
X35300Y33395D1*
X36780Y32485D1*
X36820Y32365D1*
X36930Y32255D1*
X37080Y32215D1*
X37220Y32255D1*
X37330Y32365D1*
X37370Y32515D1*
X37330Y32665D1*
X37220Y32775D1*
X37070Y32815D1*
X36950Y32785D1*
X35480Y33685D1*
G37*
G36*
X36630Y32455D2*
X36680Y32425D1*
X36720Y32295D1*
X36850Y32185D1*
X35970Y31655D1*
X35460D1*
X35410Y31715D1*
D1*
X36630Y32455D1*
G37*
G36*
X35420Y31545D2*
X35340Y31625D1*
X35190Y31675D1*
X35040Y31635D1*
X34930Y31525D1*
X34890Y31375D1*
X34930Y31225D1*
X35040Y31115D1*
X35190Y31075D1*
X35330Y31115D1*
X35420Y31205D1*
X36590D1*
X36540Y31375D1*
X36590Y31545D1*
X35420D1*
G37*
G36*
X37020Y31685D2*
X37070Y31675D1*
X37200Y31555D1*
X37210Y31515D1*
X37240Y31545D1*
X37730D1*
X37760Y31715D1*
X37160Y31835D1*
X37020Y31685D1*
G37*
G36*
X36780Y31575D2*
X36900Y31605D1*
X37020Y31575D1*
X37110Y31485D1*
X37140Y31375D1*
X37120Y31315D1*
X37250Y31195D1*
X37730Y31205D1*
X37760Y31025D1*
X37160Y30915D1*
X36930Y31145D1*
X36890Y31135D1*
X36790Y31165D1*
X36700Y31255D1*
X36670Y31375D1*
X36700Y31495D1*
X36780Y31575D1*
G37*
X14591Y41367D2*
D118*
X14552Y41405D1*
X14533Y41463D1*
Y41539D1*
X14552Y41596D1*
X14591Y41635D1*
X14629D1*
X14667Y41616D1*
X14686Y41596D1*
X14705Y41558D1*
X14744Y41444D1*
X14763Y41405D1*
X14782Y41386D1*
X14820Y41367D1*
X14878D1*
X14916Y41405D1*
X14935Y41463D1*
Y41539D1*
X14916Y41596D1*
X14878Y41635D1*
X14533Y41243D2*
X14935D1*
X14744D2*
X14686Y41186D1*
X14667Y41148D1*
Y41090D1*
X14686Y41052D1*
X14744Y41033D1*
X14935D1*
X14667Y40680D2*
X14935D1*
X14725D2*
X14686Y40718D1*
X14667Y40757D1*
Y40814D1*
X14686Y40852D1*
X14725Y40890D1*
X14782Y40910D1*
X14820D1*
X14878Y40890D1*
X14916Y40852D1*
X14935Y40814D1*
Y40757D1*
X14916Y40718D1*
X14878Y40680D1*
X14667Y40557D2*
X14935D1*
X14744D2*
X14686Y40499D1*
X14667Y40461D1*
Y40404D1*
X14686Y40365D1*
X14744Y40346D1*
X14935D1*
X14744D2*
X14686Y40289D1*
X14667Y40250D1*
Y40193D1*
X14686Y40155D1*
X14744Y40135D1*
X14935D1*
X14667Y40012D2*
X14935D1*
X14744D2*
X14686Y39954D1*
X14667Y39916D1*
Y39859D1*
X14686Y39820D1*
X14744Y39801D1*
X14935D1*
X14744D2*
X14686Y39744D1*
X14667Y39705D1*
Y39648D1*
X14686Y39610D1*
X14744Y39590D1*
X14935D1*
X14667Y39237D2*
X14935D1*
X14725D2*
X14686Y39275D1*
X14667Y39314D1*
Y39371D1*
X14686Y39409D1*
X14725Y39447D1*
X14782Y39467D1*
X14820D1*
X14878Y39447D1*
X14916Y39409D1*
X14935Y39371D1*
Y39314D1*
X14916Y39275D1*
X14878Y39237D1*
X14667Y39114D2*
X14935D1*
X14744D2*
X14686Y39056D1*
X14667Y39018D1*
Y38961D1*
X14686Y38922D1*
X14744Y38903D1*
X14935D1*
X14744D2*
X14686Y38846D1*
X14667Y38807D1*
Y38750D1*
X14686Y38712D1*
X14744Y38692D1*
X14935D1*
X14667Y38339D2*
X14935D1*
X14725D2*
X14686Y38377D1*
X14667Y38416D1*
Y38473D1*
X14686Y38511D1*
X14725Y38549D1*
X14782Y38569D1*
X14820D1*
X14878Y38549D1*
X14916Y38511D1*
X14935Y38473D1*
Y38416D1*
X14916Y38377D1*
X14878Y38339D1*
X14533Y38216D2*
X14935D1*
X14744D2*
X14686Y38158D1*
X14667Y38120D1*
Y38062D1*
X14686Y38024D1*
X14744Y38005D1*
X14935D1*
X14533Y37493D2*
X14935D1*
X14533Y37225D2*
X14935D1*
X14725Y37493D2*
Y37225D1*
X14667Y37006D2*
X14686Y37044D1*
X14725Y37083D1*
X14782Y37102D1*
X14820D1*
X14878Y37083D1*
X14916Y37044D1*
X14935Y37006D1*
Y36949D1*
X14916Y36910D1*
X14878Y36872D1*
X14820Y36853D1*
X14782D1*
X14725Y36872D1*
X14686Y36910D1*
X14667Y36949D1*
Y37006D1*
X14725Y36519D2*
X14686Y36538D1*
X14667Y36595D1*
Y36653D1*
X14686Y36710D1*
X14725Y36729D1*
X14763Y36710D1*
X14782Y36672D1*
X14801Y36576D1*
X14820Y36538D1*
X14859Y36519D1*
X14878D1*
X14916Y36538D1*
X14935Y36595D1*
Y36653D1*
X14916Y36710D1*
X14878Y36729D1*
X14725Y36185D2*
X14686Y36204D1*
X14667Y36261D1*
Y36319D1*
X14686Y36376D1*
X14725Y36395D1*
X14763Y36376D1*
X14782Y36338D1*
X14801Y36242D1*
X14820Y36204D1*
X14859Y36185D1*
X14878D1*
X14916Y36204D1*
X14935Y36261D1*
Y36319D1*
X14916Y36376D1*
X14878Y36395D1*
X14667Y35832D2*
X14935D1*
X14725D2*
X14686Y35870D1*
X14667Y35908D1*
Y35965D1*
X14686Y36004D1*
X14725Y36042D1*
X14782Y36061D1*
X14820D1*
X14878Y36042D1*
X14916Y36004D1*
X14935Y35965D1*
Y35908D1*
X14916Y35870D1*
X14878Y35832D1*
X14533Y35708D2*
X14552Y35689D1*
X14533Y35670D1*
X14514Y35689D1*
X14533Y35708D1*
X14667Y35689D2*
X14935D1*
X14667Y35546D2*
X14935D1*
X14744D2*
X14686Y35489D1*
X14667Y35450D1*
Y35393D1*
X14686Y35355D1*
X14744Y35336D1*
X14935D1*
X14565Y27723D2*
X14967D1*
X14565Y27456D2*
X14833Y27723D1*
X14737Y27628D2*
X14967Y27456D1*
X14699Y27103D2*
X14967D1*
X14756D2*
X14718Y27141D1*
X14699Y27179D1*
Y27236D1*
X14718Y27275D1*
X14756Y27313D1*
X14814Y27332D1*
X14852D1*
X14909Y27313D1*
X14947Y27275D1*
X14967Y27236D1*
Y27179D1*
X14947Y27141D1*
X14909Y27103D1*
X14699Y26979D2*
X14967D1*
X14814D2*
X14756Y26960D1*
X14718Y26922D1*
X14699Y26883D1*
Y26826D1*
X14814Y26702D2*
Y26473D1*
X14775D1*
X14737Y26492D1*
X14718Y26511D1*
X14699Y26549D1*
Y26607D1*
X14718Y26645D1*
X14756Y26683D1*
X14814Y26702D1*
X14852D1*
X14909Y26683D1*
X14947Y26645D1*
X14967Y26607D1*
Y26549D1*
X14947Y26511D1*
X14909Y26473D1*
X14814Y26349D2*
Y26120D1*
X14775D1*
X14737Y26139D1*
X14718Y26158D1*
X14699Y26196D1*
Y26254D1*
X14718Y26292D1*
X14756Y26330D1*
X14814Y26349D1*
X14852D1*
X14909Y26330D1*
X14947Y26292D1*
X14967Y26254D1*
Y26196D1*
X14947Y26158D1*
X14909Y26120D1*
X14699Y25996D2*
X14967D1*
X14775D2*
X14718Y25939D1*
X14699Y25900D1*
Y25843D1*
X14718Y25805D1*
X14775Y25786D1*
X14967D1*
X14775D2*
X14718Y25728D1*
X14699Y25690D1*
Y25633D1*
X14718Y25594D1*
X14775Y25575D1*
X14967D1*
X14565Y25062D2*
X14967D1*
X14565Y24794D2*
X14967D1*
X14756Y25062D2*
Y24794D1*
X14699Y24441D2*
X14967D1*
X14756D2*
X14718Y24479D1*
X14699Y24518D1*
Y24575D1*
X14718Y24613D1*
X14756Y24651D1*
X14814Y24671D1*
X14852D1*
X14909Y24651D1*
X14947Y24613D1*
X14967Y24575D1*
Y24518D1*
X14947Y24479D1*
X14909Y24441D1*
X14565Y24318D2*
X14967D1*
X14699Y23965D2*
X14967D1*
X14756D2*
X14718Y24003D1*
X14699Y24041D1*
Y24098D1*
X14718Y24137D1*
X14756Y24175D1*
X14814Y24194D1*
X14852D1*
X14909Y24175D1*
X14947Y24137D1*
X14967Y24098D1*
Y24041D1*
X14947Y24003D1*
X14909Y23965D1*
X14565Y23841D2*
X14967D1*
X14756D2*
X14718Y23803D1*
X14699Y23765D1*
Y23707D1*
X14718Y23669D1*
X14756Y23631D1*
X14814Y23612D1*
X14852D1*
X14909Y23631D1*
X14947Y23669D1*
X14967Y23707D1*
Y23765D1*
X14947Y23803D1*
X14909Y23841D1*
X14565Y23488D2*
X14584Y23469D1*
X14565Y23450D1*
X14545Y23469D1*
X14565Y23488D1*
X14699Y23469D2*
X14967D1*
X21632Y41672D2*
D119*
X22235Y41443D1*
X21632Y41213D1*
X22235Y41028D2*
X21633Y40626D1*
X21776Y40010D2*
X21719Y40039D1*
X21661Y40096D1*
X21632Y40154D1*
Y40268D1*
X21661Y40326D1*
X21719Y40383D1*
X21776Y40412D1*
X21862Y40441D1*
X22006D1*
X22091Y40412D1*
X22149Y40383D1*
X22206Y40326D1*
X22235Y40268D1*
Y40154D1*
X22206Y40096D1*
X22149Y40039D1*
X22091Y40010D1*
X22235Y38783D2*
X21632D1*
X22235Y39012D1*
X21632Y39242D1*
X22235D1*
X21833Y38454D2*
X21862Y38511D1*
X21920Y38569D1*
X22006Y38598D1*
X22063D1*
X22149Y38569D1*
X22206Y38511D1*
X22235Y38454D1*
Y38368D1*
X22206Y38310D1*
X22149Y38253D1*
X22063Y38224D1*
X22006D1*
X21920Y38253D1*
X21862Y38310D1*
X21833Y38368D1*
Y38454D1*
Y38039D2*
X22235D1*
X21948D2*
X21862Y37953D1*
X21833Y37895D1*
Y37809D1*
X21862Y37752D1*
X21948Y37723D1*
X22235D1*
X21632Y37538D2*
X21661Y37509D1*
X21632Y37480D1*
X21603Y37509D1*
X21632Y37538D1*
X21833Y37509D2*
X22235D1*
X21632Y37209D2*
X22121D1*
X22206Y37180D1*
X22235Y37122D1*
Y37065D1*
X21833Y37295D2*
Y37094D1*
Y36737D2*
X21862Y36794D1*
X21920Y36852D1*
X22006Y36880D1*
X22063D1*
X22149Y36852D1*
X22206Y36794D1*
X22235Y36737D1*
Y36651D1*
X22206Y36593D1*
X22149Y36536D1*
X22063Y36507D1*
X22006D1*
X21920Y36536D1*
X21862Y36593D1*
X21833Y36651D1*
Y36737D1*
Y36322D2*
X22235D1*
X22006D2*
X21920Y36292D1*
X21862Y36235D1*
X21833Y36178D1*
Y36091D1*
X21805Y29315D2*
D117*
X21781D1*
X21733Y29291D1*
X21709Y29268D1*
X21686Y29220D1*
Y29124D1*
X21709Y29076D1*
X21733Y29053D1*
X21781Y29028D1*
X21829D1*
X21877Y29053D1*
X21948Y29100D1*
X22188Y29340D1*
Y29005D1*
X21686Y28706D2*
X21709Y28778D1*
X21781Y28826D1*
X21901Y28850D1*
X21973D1*
X22092Y28826D1*
X22164Y28778D1*
X22188Y28706D1*
Y28659D1*
X22164Y28587D1*
X22092Y28540D1*
X21973Y28515D1*
X21901D1*
X21781Y28540D1*
X21709Y28587D1*
X21686Y28659D1*
Y28706D1*
X21781Y28540D2*
X22092Y28826D1*
X21781Y28361D2*
X21757Y28313D1*
X21686Y28241D1*
X22188D1*
X21686Y27800D2*
Y28038D1*
X21901Y28062D1*
X21877Y28038D1*
X21853Y27967D1*
Y27895D1*
X21877Y27823D1*
X21924Y27775D1*
X21996Y27752D1*
X22044D1*
X22116Y27775D1*
X22164Y27823D1*
X22188Y27895D1*
Y27967D1*
X22164Y28038D1*
X22139Y28062D1*
X22092Y28087D1*
X22188Y27597D2*
X21686Y27262D1*
X21805Y27084D2*
X21781D1*
X21733Y27060D1*
X21709Y27036D1*
X21686Y26988D1*
Y26892D1*
X21709Y26845D1*
X21733Y26821D1*
X21781Y26797D1*
X21829D1*
X21877Y26821D1*
X21948Y26869D1*
X22188Y27108D1*
Y26773D1*
X21686Y26475D2*
X21709Y26547D1*
X21781Y26595D1*
X21901Y26619D1*
X21973D1*
X22092Y26595D1*
X22164Y26547D1*
X22188Y26475D1*
Y26427D1*
X22164Y26355D1*
X22092Y26308D1*
X21973Y26284D1*
X21901D1*
X21781Y26308D1*
X21709Y26355D1*
X21686Y26427D1*
Y26475D1*
X21781Y26308D2*
X22092Y26595D1*
X21781Y26129D2*
X21757Y26081D1*
X21686Y26009D1*
X22188D1*
X21757Y25568D2*
X21709Y25592D1*
X21686Y25664D1*
Y25711D1*
X21709Y25783D1*
X21781Y25831D1*
X21901Y25855D1*
X22020D1*
X22116Y25831D1*
X22164Y25783D1*
X22188Y25711D1*
Y25687D1*
X22164Y25616D1*
X22116Y25568D1*
X22044Y25544D1*
X22020D1*
X21948Y25568D1*
X21901Y25616D1*
X21877Y25687D1*
Y25711D1*
X21901Y25783D1*
X21948Y25831D1*
X22020Y25855D1*
X27795Y12966D2*
D34*
Y12201D1*
X27842Y12058D1*
X27891Y12010D1*
X27986Y11962D1*
X28082D1*
X28177Y12010D1*
X28225Y12058D1*
X28273Y12201D1*
Y12296D1*
X27486Y12631D2*
Y12153D1*
X27438Y12010D1*
X27342Y11962D1*
X27198D1*
X27103Y12010D1*
X26960Y12153D1*
Y12631D2*
Y11962D1*
X26651Y12631D2*
Y11962D1*
Y12440D2*
X26507Y12584D1*
X26411Y12631D1*
X26268D1*
X26172Y12584D1*
X26125Y12440D1*
Y11962D1*
X24844Y12966D2*
X24461Y12488D1*
Y11962D1*
X24079Y12966D2*
X24461Y12488D1*
X23723Y12058D2*
X23770Y12009D1*
X23723Y11962D1*
X23674Y12009D1*
X23723Y12058D1*
X21723Y12823D2*
X21818Y12919D1*
X21962Y12966D1*
X22153D1*
X22297Y12919D1*
X22393Y12823D1*
Y12728D1*
X22345Y12631D1*
X22297Y12584D1*
X22202Y12536D1*
X21915Y12440D1*
X21818Y12393D1*
X21771Y12344D1*
X21723Y12249D1*
Y12105D1*
X21818Y12010D1*
X21962Y11962D1*
X22153D1*
X22297Y12010D1*
X22393Y12105D1*
X21415Y12966D2*
Y11962D1*
Y12440D2*
X21271Y12584D1*
X21175Y12631D1*
X21031D1*
X20936Y12584D1*
X20888Y12440D1*
Y11962D1*
X20580Y12966D2*
X20532Y12919D1*
X20483Y12966D1*
X20532Y13015D1*
X20580Y12966D1*
X20532Y12631D2*
Y11962D1*
X20175Y12631D2*
Y11962D1*
Y12440D2*
X20031Y12584D1*
X19935Y12631D1*
X19792D1*
X19696Y12584D1*
X19649Y12440D1*
Y11962D1*
X28404Y14587D2*
X28308Y14635D1*
X28164Y14778D1*
Y13774D1*
X27807Y14539D2*
Y14587D1*
X27759Y14683D1*
X27712Y14730D1*
X27616Y14778D1*
X27424D1*
X27329Y14730D1*
X27282Y14683D1*
X27233Y14587D1*
Y14491D1*
X27282Y14395D1*
X27377Y14253D1*
X27856Y13774D1*
X27186D1*
X26877Y14779D2*
X26494Y13774D1*
X26112Y14779D1*
X25803Y13774D2*
X25133Y14778D1*
X24825Y14587D2*
X24728Y14635D1*
X24585Y14778D1*
Y13774D1*
X23702Y14635D2*
X23750Y14730D1*
X23893Y14778D1*
X23988D1*
X24132Y14730D1*
X24228Y14587D1*
X24276Y14348D1*
Y14109D1*
X24228Y13918D1*
X24132Y13822D1*
X23988Y13774D1*
X23941D1*
X23798Y13822D1*
X23702Y13918D1*
X23655Y14061D1*
Y14109D1*
X23702Y14253D1*
X23798Y14348D1*
X23941Y14395D1*
X23988D1*
X24132Y14348D1*
X24228Y14253D1*
X24276Y14109D1*
X23346Y14779D2*
X22963Y13774D1*
X22581Y14779D1*
X21156D2*
Y13965D1*
X21109Y13823D1*
X21013Y13774D1*
X20918D1*
X21300Y14444D2*
X20965D1*
X20370D2*
X20465Y14396D1*
X20561Y14300D1*
X20609Y14157D1*
Y14061D1*
X20561Y13918D1*
X20465Y13823D1*
X20370Y13774D1*
X20226D1*
X20130Y13823D1*
X20035Y13918D1*
X19987Y14061D1*
Y14157D1*
X20035Y14300D1*
X20130Y14396D1*
X20226Y14444D1*
X20370D1*
X18706Y14587D2*
X18610Y14635D1*
X18466Y14778D1*
Y13774D1*
X17535Y14444D2*
X17583Y14300D1*
X17678Y14204D1*
X17822Y14157D1*
X17870D1*
X18013Y14204D1*
X18108Y14300D1*
X18157Y14444D1*
Y14491D1*
X18108Y14635D1*
X18013Y14730D1*
X17870Y14778D1*
X17822D1*
X17678Y14730D1*
X17583Y14635D1*
X17535Y14444D1*
Y14204D1*
X17583Y13965D1*
X17678Y13822D1*
X17822Y13774D1*
X17917D1*
X18061Y13822D1*
X18108Y13918D1*
X17226Y14779D2*
X16844Y13774D1*
X16461Y14779D1*
X28378Y11039D2*
Y11087D1*
X28330Y11183D1*
X28283Y11230D1*
X28187Y11278D1*
X27995D1*
X27900Y11230D1*
X27853Y11183D1*
X27804Y11087D1*
Y10991D1*
X27853Y10895D1*
X27948Y10753D1*
X28427Y10274D1*
X27757D1*
X27160Y11278D2*
X27304Y11230D1*
X27400Y11087D1*
X27448Y10848D1*
Y10704D1*
X27400Y10465D1*
X27304Y10322D1*
X27160Y10274D1*
X27065D1*
X26922Y10322D1*
X26827Y10465D1*
X26778Y10704D1*
Y10848D1*
X26827Y11087D1*
X26922Y11230D1*
X27065Y11278D1*
X27160D1*
X26827Y11087D2*
X27400Y10465D1*
X26469Y11087D2*
X26373Y11135D1*
X26229Y11278D1*
Y10274D1*
X25347Y11278D2*
X25824D1*
X25872Y10848D1*
X25824Y10895D1*
X25681Y10944D1*
X25538D1*
X25394Y10895D1*
X25298Y10800D1*
X25251Y10657D1*
Y10561D1*
X25298Y10418D1*
X25394Y10322D1*
X25538Y10274D1*
X25681D1*
X25824Y10322D1*
X25872Y10370D1*
X25921Y10465D1*
X24942Y10274D2*
X24272Y11278D1*
X23915Y11039D2*
Y11087D1*
X23867Y11183D1*
X23820Y11230D1*
X23723Y11278D1*
X23532D1*
X23437Y11230D1*
X23390Y11183D1*
X23341Y11087D1*
Y10991D1*
X23390Y10895D1*
X23485Y10753D1*
X23963Y10274D1*
X23293D1*
X22697Y11278D2*
X22841Y11230D1*
X22937Y11087D1*
X22985Y10848D1*
Y10704D1*
X22937Y10465D1*
X22841Y10322D1*
X22697Y10274D1*
X22602D1*
X22458Y10322D1*
X22363Y10465D1*
X22315Y10704D1*
Y10848D1*
X22363Y11087D1*
X22458Y11230D1*
X22602Y11278D1*
X22697D1*
X22363Y11087D2*
X22937Y10465D1*
X22006Y11087D2*
X21910Y11135D1*
X21766Y11278D1*
Y10274D1*
X20884Y11135D2*
X20931Y11230D1*
X21075Y11278D1*
X21170D1*
X21314Y11230D1*
X21410Y11087D1*
X21457Y10848D1*
Y10609D1*
X21410Y10418D1*
X21314Y10322D1*
X21170Y10274D1*
X21122D1*
X20980Y10322D1*
X20884Y10418D1*
X20836Y10561D1*
Y10609D1*
X20884Y10753D1*
X20980Y10848D1*
X21122Y10895D1*
X21170D1*
X21314Y10848D1*
X21410Y10753D1*
X21457Y10609D1*
X4887Y41366D2*
D118*
X4848Y41404D1*
X4829Y41462D1*
Y41538D1*
X4848Y41596D1*
X4887Y41634D1*
X4925D1*
X4963Y41615D1*
X4982Y41596D1*
X5001Y41557D1*
X5040Y41443D1*
X5059Y41404D1*
X5078Y41385D1*
X5116Y41366D1*
X5174D1*
X5212Y41404D1*
X5231Y41462D1*
Y41538D1*
X5212Y41596D1*
X5174Y41634D1*
X4829Y41243D2*
X5231D1*
X5040D2*
X4982Y41185D1*
X4963Y41147D1*
Y41089D1*
X4982Y41051D1*
X5040Y41032D1*
X5231D1*
X4963Y40679D2*
X5231D1*
X5021D2*
X4982Y40717D1*
X4963Y40756D1*
Y40813D1*
X4982Y40851D1*
X5021Y40889D1*
X5078Y40909D1*
X5116D1*
X5174Y40889D1*
X5212Y40851D1*
X5231Y40813D1*
Y40756D1*
X5212Y40717D1*
X5174Y40679D1*
X4963Y40556D2*
X5231D1*
X5040D2*
X4982Y40498D1*
X4963Y40460D1*
Y40403D1*
X4982Y40364D1*
X5040Y40345D1*
X5231D1*
X5040D2*
X4982Y40288D1*
X4963Y40249D1*
Y40192D1*
X4982Y40154D1*
X5040Y40134D1*
X5231D1*
X4963Y40011D2*
X5231D1*
X5040D2*
X4982Y39953D1*
X4963Y39915D1*
Y39858D1*
X4982Y39819D1*
X5040Y39800D1*
X5231D1*
X5040D2*
X4982Y39743D1*
X4963Y39704D1*
Y39647D1*
X4982Y39609D1*
X5040Y39589D1*
X5231D1*
X4963Y39236D2*
X5231D1*
X5021D2*
X4982Y39274D1*
X4963Y39313D1*
Y39370D1*
X4982Y39408D1*
X5021Y39446D1*
X5078Y39466D1*
X5116D1*
X5174Y39446D1*
X5212Y39408D1*
X5231Y39370D1*
Y39313D1*
X5212Y39274D1*
X5174Y39236D1*
X4963Y39113D2*
X5231D1*
X5040D2*
X4982Y39055D1*
X4963Y39017D1*
Y38960D1*
X4982Y38921D1*
X5040Y38902D1*
X5231D1*
X5040D2*
X4982Y38845D1*
X4963Y38806D1*
Y38749D1*
X4982Y38711D1*
X5040Y38691D1*
X5231D1*
X4963Y38338D2*
X5231D1*
X5021D2*
X4982Y38376D1*
X4963Y38415D1*
Y38472D1*
X4982Y38510D1*
X5021Y38548D1*
X5078Y38568D1*
X5116D1*
X5174Y38548D1*
X5212Y38510D1*
X5231Y38472D1*
Y38415D1*
X5212Y38376D1*
X5174Y38338D1*
X4829Y38215D2*
X5231D1*
X5040D2*
X4982Y38157D1*
X4963Y38119D1*
Y38061D1*
X4982Y38023D1*
X5040Y38004D1*
X5231D1*
X4829Y37492D2*
X5231D1*
X4829Y37224D2*
X5231D1*
X5021Y37492D2*
Y37224D1*
X4963Y37005D2*
X4982Y37043D1*
X5021Y37082D1*
X5078Y37101D1*
X5116D1*
X5174Y37082D1*
X5212Y37043D1*
X5231Y37005D1*
Y36948D1*
X5212Y36909D1*
X5174Y36871D1*
X5116Y36852D1*
X5078D1*
X5021Y36871D1*
X4982Y36909D1*
X4963Y36948D1*
Y37005D1*
X5021Y36518D2*
X4982Y36537D1*
X4963Y36594D1*
Y36652D1*
X4982Y36709D1*
X5021Y36728D1*
X5059Y36709D1*
X5078Y36671D1*
X5097Y36575D1*
X5116Y36537D1*
X5155Y36518D1*
X5174D1*
X5212Y36537D1*
X5231Y36594D1*
Y36652D1*
X5212Y36709D1*
X5174Y36728D1*
X5021Y36184D2*
X4982Y36203D1*
X4963Y36260D1*
Y36318D1*
X4982Y36375D1*
X5021Y36394D1*
X5059Y36375D1*
X5078Y36337D1*
X5097Y36241D1*
X5116Y36203D1*
X5155Y36184D1*
X5174D1*
X5212Y36203D1*
X5231Y36260D1*
Y36318D1*
X5212Y36375D1*
X5174Y36394D1*
X4963Y35831D2*
X5231D1*
X5021D2*
X4982Y35869D1*
X4963Y35907D1*
Y35964D1*
X4982Y36003D1*
X5021Y36041D1*
X5078Y36060D1*
X5116D1*
X5174Y36041D1*
X5212Y36003D1*
X5231Y35964D1*
Y35907D1*
X5212Y35869D1*
X5174Y35831D1*
X4829Y35707D2*
X4848Y35688D1*
X4829Y35669D1*
X4810Y35688D1*
X4829Y35707D1*
X4963Y35688D2*
X5231D1*
X4963Y35545D2*
X5231D1*
X5040D2*
X4982Y35488D1*
X4963Y35449D1*
Y35392D1*
X4982Y35354D1*
X5040Y35335D1*
X5231D1*
X4861Y27722D2*
X5263D1*
X4861Y27455D2*
X5129Y27722D1*
X5033Y27627D2*
X5263Y27455D1*
X4995Y27102D2*
X5263D1*
X5052D2*
X5014Y27140D1*
X4995Y27178D1*
Y27235D1*
X5014Y27274D1*
X5052Y27312D1*
X5110Y27331D1*
X5148D1*
X5205Y27312D1*
X5243Y27274D1*
X5263Y27235D1*
Y27178D1*
X5243Y27140D1*
X5205Y27102D1*
X4995Y26978D2*
X5263D1*
X5110D2*
X5052Y26959D1*
X5014Y26921D1*
X4995Y26882D1*
Y26825D1*
X5110Y26701D2*
Y26472D1*
X5071D1*
X5033Y26491D1*
X5014Y26510D1*
X4995Y26548D1*
Y26606D1*
X5014Y26644D1*
X5052Y26682D1*
X5110Y26701D1*
X5148D1*
X5205Y26682D1*
X5243Y26644D1*
X5263Y26606D1*
Y26548D1*
X5243Y26510D1*
X5205Y26472D1*
X5110Y26348D2*
Y26119D1*
X5071D1*
X5033Y26138D1*
X5014Y26157D1*
X4995Y26195D1*
Y26253D1*
X5014Y26291D1*
X5052Y26329D1*
X5110Y26348D1*
X5148D1*
X5205Y26329D1*
X5243Y26291D1*
X5263Y26253D1*
Y26195D1*
X5243Y26157D1*
X5205Y26119D1*
X4995Y25995D2*
X5263D1*
X5071D2*
X5014Y25938D1*
X4995Y25899D1*
Y25842D1*
X5014Y25804D1*
X5071Y25785D1*
X5263D1*
X5071D2*
X5014Y25727D1*
X4995Y25689D1*
Y25632D1*
X5014Y25593D1*
X5071Y25574D1*
X5263D1*
X4861Y25061D2*
X5263D1*
X4861Y24793D2*
X5263D1*
X5052Y25061D2*
Y24793D1*
X4995Y24440D2*
X5263D1*
X5052D2*
X5014Y24478D1*
X4995Y24517D1*
Y24574D1*
X5014Y24612D1*
X5052Y24650D1*
X5110Y24670D1*
X5148D1*
X5205Y24650D1*
X5243Y24612D1*
X5263Y24574D1*
Y24517D1*
X5243Y24478D1*
X5205Y24440D1*
X4861Y24317D2*
X5263D1*
X4995Y23964D2*
X5263D1*
X5052D2*
X5014Y24002D1*
X4995Y24040D1*
Y24097D1*
X5014Y24136D1*
X5052Y24174D1*
X5110Y24193D1*
X5148D1*
X5205Y24174D1*
X5243Y24136D1*
X5263Y24097D1*
Y24040D1*
X5243Y24002D1*
X5205Y23964D1*
X4861Y23840D2*
X5263D1*
X5052D2*
X5014Y23802D1*
X4995Y23764D1*
Y23706D1*
X5014Y23668D1*
X5052Y23630D1*
X5110Y23611D1*
X5148D1*
X5205Y23630D1*
X5243Y23668D1*
X5263Y23706D1*
Y23764D1*
X5243Y23802D1*
X5205Y23840D1*
X4861Y23487D2*
X4880Y23468D1*
X4861Y23449D1*
X4841Y23468D1*
X4861Y23487D1*
X4995Y23468D2*
X5263D1*
X11929Y41671D2*
D119*
X12532Y41442D1*
X11929Y41212D1*
X12532Y41027D2*
X11929Y40625D1*
X12072Y40009D2*
X12015Y40038D1*
X11957Y40095D1*
X11929Y40153D1*
Y40267D1*
X11957Y40325D1*
X12015Y40382D1*
X12072Y40411D1*
X12158Y40440D1*
X12302D1*
X12388Y40411D1*
X12445Y40382D1*
X12502Y40325D1*
X12532Y40267D1*
Y40153D1*
X12502Y40095D1*
X12445Y40038D1*
X12388Y40009D1*
X12532Y38782D2*
X11929D1*
X12532Y39011D1*
X11929Y39241D1*
X12532D1*
X12130Y38453D2*
X12158Y38510D1*
X12216Y38568D1*
X12302Y38597D1*
X12359D1*
X12445Y38568D1*
X12502Y38510D1*
X12532Y38453D1*
Y38367D1*
X12502Y38309D1*
X12445Y38252D1*
X12359Y38223D1*
X12302D1*
X12216Y38252D1*
X12158Y38309D1*
X12130Y38367D1*
Y38453D1*
Y38038D2*
X12532D1*
X12244D2*
X12158Y37952D1*
X12130Y37894D1*
Y37808D1*
X12158Y37751D1*
X12244Y37722D1*
X12532D1*
X11929Y37537D2*
X11957Y37508D1*
X11929Y37479D1*
X11899Y37508D1*
X11929Y37537D1*
X12130Y37508D2*
X12532D1*
X11929Y37208D2*
X12417D1*
X12502Y37179D1*
X12532Y37122D1*
Y37064D1*
X12130Y37294D2*
Y37093D1*
Y36736D2*
X12158Y36793D1*
X12216Y36851D1*
X12302Y36879D1*
X12359D1*
X12445Y36851D1*
X12502Y36793D1*
X12532Y36736D1*
Y36650D1*
X12502Y36592D1*
X12445Y36535D1*
X12359Y36506D1*
X12302D1*
X12216Y36535D1*
X12158Y36592D1*
X12130Y36650D1*
Y36736D1*
Y36321D2*
X12532D1*
X12302D2*
X12216Y36291D1*
X12158Y36234D1*
X12130Y36177D1*
Y36090D1*
X12101Y29314D2*
D117*
X12078D1*
X12029Y29290D1*
X12006Y29267D1*
X11982Y29219D1*
Y29123D1*
X12006Y29075D1*
X12029Y29052D1*
X12078Y29027D1*
X12125D1*
X12173Y29052D1*
X12244Y29099D1*
X12484Y29339D1*
Y29004D1*
X11982Y28705D2*
X12006Y28777D1*
X12078Y28825D1*
X12197Y28849D1*
X12269D1*
X12388Y28825D1*
X12460Y28777D1*
X12484Y28705D1*
Y28658D1*
X12460Y28586D1*
X12388Y28539D1*
X12269Y28514D1*
X12197D1*
X12078Y28539D1*
X12006Y28586D1*
X11982Y28658D1*
Y28705D1*
X12078Y28539D2*
X12388Y28825D1*
X12078Y28360D2*
X12053Y28312D1*
X11982Y28240D1*
X12484D1*
X11982Y27799D2*
Y28037D1*
X12197Y28061D1*
X12173Y28037D1*
X12149Y27966D1*
Y27894D1*
X12173Y27822D1*
X12221Y27774D1*
X12293Y27751D1*
X12340D1*
X12412Y27774D1*
X12460Y27822D1*
X12484Y27894D1*
Y27966D1*
X12460Y28037D1*
X12436Y28061D1*
X12388Y28086D1*
X12484Y27596D2*
X11982Y27261D1*
X12101Y27083D2*
X12078D1*
X12029Y27059D1*
X12006Y27035D1*
X11982Y26987D1*
Y26891D1*
X12006Y26844D1*
X12029Y26820D1*
X12078Y26796D1*
X12125D1*
X12173Y26820D1*
X12244Y26868D1*
X12484Y27107D1*
Y26772D1*
X11982Y26474D2*
X12006Y26546D1*
X12078Y26594D1*
X12197Y26618D1*
X12269D1*
X12388Y26594D1*
X12460Y26546D1*
X12484Y26474D1*
Y26426D1*
X12460Y26354D1*
X12388Y26307D1*
X12269Y26283D1*
X12197D1*
X12078Y26307D1*
X12006Y26354D1*
X11982Y26426D1*
Y26474D1*
X12078Y26307D2*
X12388Y26594D1*
X12078Y26128D2*
X12053Y26080D1*
X11982Y26008D1*
X12484D1*
X12053Y25567D2*
X12006Y25591D1*
X11982Y25663D1*
Y25710D1*
X12006Y25782D1*
X12078Y25830D1*
X12197Y25854D1*
X12316D1*
X12412Y25830D1*
X12460Y25782D1*
X12484Y25710D1*
Y25686D1*
X12460Y25615D1*
X12412Y25567D1*
X12340Y25543D1*
X12316D1*
X12244Y25567D1*
X12197Y25615D1*
X12173Y25686D1*
Y25710D1*
X12197Y25782D1*
X12244Y25830D1*
X12316Y25854D1*
X24379Y41362D2*
D118*
X24340Y41400D1*
X24321Y41458D1*
Y41534D1*
X24340Y41592D1*
X24379Y41630D1*
X24417D1*
X24455Y41611D1*
X24474Y41592D1*
X24493Y41554D1*
X24532Y41439D1*
X24551Y41400D1*
X24570Y41381D1*
X24608Y41362D1*
X24666D1*
X24704Y41400D1*
X24723Y41458D1*
Y41534D1*
X24704Y41592D1*
X24666Y41630D1*
X24321Y41239D2*
X24723D1*
X24532D2*
X24474Y41181D1*
X24455Y41143D1*
Y41085D1*
X24474Y41047D1*
X24532Y41028D1*
X24723D1*
X24455Y40675D2*
X24723D1*
X24513D2*
X24474Y40713D1*
X24455Y40752D1*
Y40809D1*
X24474Y40847D1*
X24513Y40885D1*
X24570Y40905D1*
X24608D1*
X24666Y40885D1*
X24704Y40847D1*
X24723Y40809D1*
Y40752D1*
X24704Y40713D1*
X24666Y40675D1*
X24455Y40552D2*
X24723D1*
X24532D2*
X24474Y40494D1*
X24455Y40456D1*
Y40399D1*
X24474Y40360D1*
X24532Y40341D1*
X24723D1*
X24532D2*
X24474Y40284D1*
X24455Y40245D1*
Y40188D1*
X24474Y40150D1*
X24532Y40130D1*
X24723D1*
X24455Y40007D2*
X24723D1*
X24532D2*
X24474Y39949D1*
X24455Y39911D1*
Y39854D1*
X24474Y39815D1*
X24532Y39796D1*
X24723D1*
X24532D2*
X24474Y39739D1*
X24455Y39700D1*
Y39643D1*
X24474Y39605D1*
X24532Y39585D1*
X24723D1*
X24455Y39232D2*
X24723D1*
X24513D2*
X24474Y39270D1*
X24455Y39309D1*
Y39366D1*
X24474Y39404D1*
X24513Y39442D1*
X24570Y39462D1*
X24608D1*
X24666Y39442D1*
X24704Y39404D1*
X24723Y39366D1*
Y39309D1*
X24704Y39270D1*
X24666Y39232D1*
X24455Y39109D2*
X24723D1*
X24532D2*
X24474Y39051D1*
X24455Y39013D1*
Y38956D1*
X24474Y38917D1*
X24532Y38898D1*
X24723D1*
X24532D2*
X24474Y38841D1*
X24455Y38802D1*
Y38745D1*
X24474Y38707D1*
X24532Y38687D1*
X24723D1*
X24455Y38334D2*
X24723D1*
X24513D2*
X24474Y38372D1*
X24455Y38411D1*
Y38468D1*
X24474Y38506D1*
X24513Y38544D1*
X24570Y38564D1*
X24608D1*
X24666Y38544D1*
X24704Y38506D1*
X24723Y38468D1*
Y38411D1*
X24704Y38372D1*
X24666Y38334D1*
X24321Y38211D2*
X24723D1*
X24532D2*
X24474Y38153D1*
X24455Y38115D1*
Y38058D1*
X24474Y38019D1*
X24532Y38000D1*
X24723D1*
X24321Y37488D2*
X24723D1*
X24321Y37220D2*
X24723D1*
X24513Y37488D2*
Y37220D1*
X24455Y37001D2*
X24474Y37039D1*
X24513Y37078D1*
X24570Y37097D1*
X24608D1*
X24666Y37078D1*
X24704Y37039D1*
X24723Y37001D1*
Y36944D1*
X24704Y36905D1*
X24666Y36867D1*
X24608Y36848D1*
X24570D1*
X24513Y36867D1*
X24474Y36905D1*
X24455Y36944D1*
Y37001D1*
X24513Y36514D2*
X24474Y36533D1*
X24455Y36590D1*
Y36648D1*
X24474Y36705D1*
X24513Y36724D1*
X24551Y36705D1*
X24570Y36667D1*
X24589Y36571D1*
X24608Y36533D1*
X24647Y36514D1*
X24666D1*
X24704Y36533D1*
X24723Y36590D1*
Y36648D1*
X24704Y36705D1*
X24666Y36724D1*
X24513Y36180D2*
X24474Y36199D1*
X24455Y36256D1*
Y36314D1*
X24474Y36371D1*
X24513Y36390D1*
X24551Y36371D1*
X24570Y36333D1*
X24589Y36237D1*
X24608Y36199D1*
X24647Y36180D1*
X24666D1*
X24704Y36199D1*
X24723Y36256D1*
Y36314D1*
X24704Y36371D1*
X24666Y36390D1*
X24455Y35827D2*
X24723D1*
X24513D2*
X24474Y35865D1*
X24455Y35903D1*
Y35960D1*
X24474Y35999D1*
X24513Y36037D1*
X24570Y36056D1*
X24608D1*
X24666Y36037D1*
X24704Y35999D1*
X24723Y35960D1*
Y35903D1*
X24704Y35865D1*
X24666Y35827D1*
X24321Y35703D2*
X24340Y35684D1*
X24321Y35665D1*
X24302Y35684D1*
X24321Y35703D1*
X24455Y35684D2*
X24723D1*
X24455Y35541D2*
X24723D1*
X24532D2*
X24474Y35484D1*
X24455Y35445D1*
Y35388D1*
X24474Y35350D1*
X24532Y35331D1*
X24723D1*
X24353Y27719D2*
X24755D1*
X24353Y27451D2*
X24621Y27719D1*
X24525Y27623D2*
X24755Y27451D1*
X24487Y27098D2*
X24755D1*
X24544D2*
X24506Y27136D1*
X24487Y27174D1*
Y27231D1*
X24506Y27270D1*
X24544Y27308D1*
X24602Y27327D1*
X24640D1*
X24697Y27308D1*
X24735Y27270D1*
X24755Y27231D1*
Y27174D1*
X24735Y27136D1*
X24697Y27098D1*
X24487Y26974D2*
X24755D1*
X24602D2*
X24544Y26955D1*
X24506Y26917D1*
X24487Y26878D1*
Y26821D1*
X24602Y26697D2*
Y26468D1*
X24563D1*
X24525Y26487D1*
X24506Y26506D1*
X24487Y26544D1*
Y26602D1*
X24506Y26640D1*
X24544Y26678D1*
X24602Y26697D1*
X24640D1*
X24697Y26678D1*
X24735Y26640D1*
X24755Y26602D1*
Y26544D1*
X24735Y26506D1*
X24697Y26468D1*
X24602Y26344D2*
Y26115D1*
X24563D1*
X24525Y26134D1*
X24506Y26153D1*
X24487Y26191D1*
Y26249D1*
X24506Y26287D1*
X24544Y26325D1*
X24602Y26344D1*
X24640D1*
X24697Y26325D1*
X24735Y26287D1*
X24755Y26249D1*
Y26191D1*
X24735Y26153D1*
X24697Y26115D1*
X24487Y25991D2*
X24755D1*
X24563D2*
X24506Y25934D1*
X24487Y25895D1*
Y25838D1*
X24506Y25800D1*
X24563Y25781D1*
X24755D1*
X24563D2*
X24506Y25723D1*
X24487Y25685D1*
Y25628D1*
X24506Y25589D1*
X24563Y25570D1*
X24755D1*
X24353Y25057D2*
X24755D1*
X24353Y24790D2*
X24755D1*
X24544Y25057D2*
Y24790D1*
X24487Y24437D2*
X24755D1*
X24544D2*
X24506Y24475D1*
X24487Y24513D1*
Y24570D1*
X24506Y24609D1*
X24544Y24647D1*
X24602Y24666D1*
X24640D1*
X24697Y24647D1*
X24735Y24609D1*
X24755Y24570D1*
Y24513D1*
X24735Y24475D1*
X24697Y24437D1*
X24353Y24313D2*
X24755D1*
X24487Y23960D2*
X24755D1*
X24544D2*
X24506Y23998D1*
X24487Y24036D1*
Y24094D1*
X24506Y24132D1*
X24544Y24170D1*
X24602Y24189D1*
X24640D1*
X24697Y24170D1*
X24735Y24132D1*
X24755Y24094D1*
Y24036D1*
X24735Y23998D1*
X24697Y23960D1*
X24353Y23836D2*
X24755D1*
X24544D2*
X24506Y23798D1*
X24487Y23760D1*
Y23703D1*
X24506Y23664D1*
X24544Y23626D1*
X24602Y23607D1*
X24640D1*
X24697Y23626D1*
X24735Y23664D1*
X24755Y23703D1*
Y23760D1*
X24735Y23798D1*
X24697Y23836D1*
X24353Y23483D2*
X24372Y23464D1*
X24353Y23445D1*
X24334Y23464D1*
X24353Y23483D1*
X24487Y23464D2*
X24755D1*
X31421Y41667D2*
D119*
X32024Y41438D1*
X31421Y41208D1*
X32024Y41023D2*
X31421Y40621D1*
X31564Y40005D2*
X31507Y40034D1*
X31449Y40092D1*
X31421Y40149D1*
Y40263D1*
X31449Y40321D1*
X31507Y40378D1*
X31564Y40407D1*
X31650Y40436D1*
X31794D1*
X31880Y40407D1*
X31937Y40378D1*
X31994Y40321D1*
X32024Y40263D1*
Y40149D1*
X31994Y40092D1*
X31937Y40034D1*
X31880Y40005D1*
X32024Y38778D2*
X31421D1*
X32024Y39007D1*
X31421Y39237D1*
X32024D1*
X31622Y38449D2*
X31650Y38506D1*
X31708Y38564D1*
X31794Y38593D1*
X31851D1*
X31937Y38564D1*
X31994Y38506D1*
X32024Y38449D1*
Y38363D1*
X31994Y38305D1*
X31937Y38248D1*
X31851Y38219D1*
X31794D1*
X31708Y38248D1*
X31650Y38305D1*
X31622Y38363D1*
Y38449D1*
Y38034D2*
X32024D1*
X31737D2*
X31650Y37948D1*
X31622Y37890D1*
Y37804D1*
X31650Y37747D1*
X31737Y37718D1*
X32024D1*
X31421Y37533D2*
X31449Y37504D1*
X31421Y37475D1*
X31392Y37504D1*
X31421Y37533D1*
X31622Y37504D2*
X32024D1*
X31421Y37204D2*
X31909D1*
X31994Y37175D1*
X32024Y37118D1*
Y37061D1*
X31622Y37290D2*
Y37089D1*
Y36732D2*
X31650Y36789D1*
X31708Y36847D1*
X31794Y36875D1*
X31851D1*
X31937Y36847D1*
X31994Y36789D1*
X32024Y36732D1*
Y36646D1*
X31994Y36588D1*
X31937Y36531D1*
X31851Y36502D1*
X31794D1*
X31708Y36531D1*
X31650Y36588D1*
X31622Y36646D1*
Y36732D1*
Y36317D2*
X32024D1*
X31794D2*
X31708Y36287D1*
X31650Y36230D1*
X31622Y36173D1*
Y36086D1*
X31593Y29310D2*
D117*
X31570D1*
X31522Y29286D1*
X31498Y29263D1*
X31474Y29215D1*
Y29119D1*
X31498Y29072D1*
X31522Y29048D1*
X31570Y29023D1*
X31617D1*
X31665Y29048D1*
X31737Y29095D1*
X31976Y29335D1*
Y29000D1*
X31474Y28702D2*
X31498Y28773D1*
X31570Y28821D1*
X31689Y28845D1*
X31761D1*
X31880Y28821D1*
X31952Y28773D1*
X31976Y28702D1*
Y28654D1*
X31952Y28582D1*
X31880Y28535D1*
X31761Y28510D1*
X31689D1*
X31570Y28535D1*
X31498Y28582D1*
X31474Y28654D1*
Y28702D1*
X31570Y28535D2*
X31880Y28821D1*
X31570Y28356D2*
X31545Y28308D1*
X31474Y28236D1*
X31976D1*
X31474Y27795D2*
Y28034D1*
X31689Y28057D1*
X31665Y28034D1*
X31641Y27962D1*
Y27890D1*
X31665Y27819D1*
X31713Y27770D1*
X31785Y27747D1*
X31832D1*
X31904Y27770D1*
X31952Y27819D1*
X31976Y27890D1*
Y27962D1*
X31952Y28034D1*
X31928Y28057D1*
X31880Y28082D1*
X31976Y27592D2*
X31474Y27257D1*
X31593Y27079D2*
X31570D1*
X31522Y27055D1*
X31498Y27031D1*
X31474Y26983D1*
Y26887D1*
X31498Y26840D1*
X31522Y26816D1*
X31570Y26792D1*
X31617D1*
X31665Y26816D1*
X31737Y26864D1*
X31976Y27103D1*
Y26768D1*
X31474Y26470D2*
X31498Y26542D1*
X31570Y26590D1*
X31689Y26614D1*
X31761D1*
X31880Y26590D1*
X31952Y26542D1*
X31976Y26470D1*
Y26422D1*
X31952Y26351D1*
X31880Y26303D1*
X31761Y26279D1*
X31689D1*
X31570Y26303D1*
X31498Y26351D1*
X31474Y26422D1*
Y26470D1*
X31570Y26303D2*
X31880Y26590D1*
X31570Y26124D2*
X31545Y26076D1*
X31474Y26004D1*
X31976D1*
X31545Y25563D2*
X31498Y25587D1*
X31474Y25659D1*
Y25706D1*
X31498Y25778D1*
X31570Y25826D1*
X31689Y25850D1*
X31808D1*
X31904Y25826D1*
X31952Y25778D1*
X31976Y25706D1*
Y25683D1*
X31952Y25611D1*
X31904Y25563D1*
X31832Y25539D1*
X31808D1*
X31737Y25563D1*
X31689Y25611D1*
X31665Y25683D1*
Y25706D1*
X31689Y25778D1*
X31737Y25826D1*
X31808Y25850D1*
X34147Y41362D2*
D118*
X34108Y41400D1*
X34089Y41458D1*
Y41534D1*
X34108Y41592D1*
X34147Y41630D1*
X34185D1*
X34223Y41611D1*
X34242Y41592D1*
X34261Y41554D1*
X34300Y41439D1*
X34319Y41400D1*
X34338Y41381D1*
X34376Y41362D1*
X34434D1*
X34472Y41400D1*
X34491Y41458D1*
Y41534D1*
X34472Y41592D1*
X34434Y41630D1*
X34089Y41239D2*
X34491D1*
X34300D2*
X34242Y41181D1*
X34223Y41143D1*
Y41085D1*
X34242Y41047D1*
X34300Y41028D1*
X34491D1*
X34223Y40675D2*
X34491D1*
X34281D2*
X34242Y40713D1*
X34223Y40752D1*
Y40809D1*
X34242Y40847D1*
X34281Y40885D1*
X34338Y40905D1*
X34376D1*
X34434Y40885D1*
X34472Y40847D1*
X34491Y40809D1*
Y40752D1*
X34472Y40713D1*
X34434Y40675D1*
X34223Y40552D2*
X34491D1*
X34300D2*
X34242Y40494D1*
X34223Y40456D1*
Y40399D1*
X34242Y40360D1*
X34300Y40341D1*
X34491D1*
X34300D2*
X34242Y40284D1*
X34223Y40245D1*
Y40188D1*
X34242Y40150D1*
X34300Y40130D1*
X34491D1*
X34223Y40007D2*
X34491D1*
X34300D2*
X34242Y39949D1*
X34223Y39911D1*
Y39854D1*
X34242Y39815D1*
X34300Y39796D1*
X34491D1*
X34300D2*
X34242Y39739D1*
X34223Y39700D1*
Y39643D1*
X34242Y39605D1*
X34300Y39585D1*
X34491D1*
X34223Y39232D2*
X34491D1*
X34281D2*
X34242Y39270D1*
X34223Y39309D1*
Y39366D1*
X34242Y39404D1*
X34281Y39442D1*
X34338Y39462D1*
X34376D1*
X34434Y39442D1*
X34472Y39404D1*
X34491Y39366D1*
Y39309D1*
X34472Y39270D1*
X34434Y39232D1*
X34223Y39109D2*
X34491D1*
X34300D2*
X34242Y39051D1*
X34223Y39013D1*
Y38956D1*
X34242Y38917D1*
X34300Y38898D1*
X34491D1*
X34300D2*
X34242Y38841D1*
X34223Y38802D1*
Y38745D1*
X34242Y38707D1*
X34300Y38687D1*
X34491D1*
X34223Y38334D2*
X34491D1*
X34281D2*
X34242Y38372D1*
X34223Y38411D1*
Y38468D1*
X34242Y38506D1*
X34281Y38544D1*
X34338Y38564D1*
X34376D1*
X34434Y38544D1*
X34472Y38506D1*
X34491Y38468D1*
Y38411D1*
X34472Y38372D1*
X34434Y38334D1*
X34089Y38211D2*
X34491D1*
X34300D2*
X34242Y38153D1*
X34223Y38115D1*
Y38058D1*
X34242Y38019D1*
X34300Y38000D1*
X34491D1*
X34089Y37488D2*
X34491D1*
X34089Y37220D2*
X34491D1*
X34281Y37488D2*
Y37220D1*
X34223Y37001D2*
X34242Y37039D1*
X34281Y37078D1*
X34338Y37097D1*
X34376D1*
X34434Y37078D1*
X34472Y37039D1*
X34491Y37001D1*
Y36944D1*
X34472Y36905D1*
X34434Y36867D1*
X34376Y36848D1*
X34338D1*
X34281Y36867D1*
X34242Y36905D1*
X34223Y36944D1*
Y37001D1*
X34281Y36514D2*
X34242Y36533D1*
X34223Y36590D1*
Y36648D1*
X34242Y36705D1*
X34281Y36724D1*
X34319Y36705D1*
X34338Y36667D1*
X34357Y36571D1*
X34376Y36533D1*
X34415Y36514D1*
X34434D1*
X34472Y36533D1*
X34491Y36590D1*
Y36648D1*
X34472Y36705D1*
X34434Y36724D1*
X34281Y36180D2*
X34242Y36199D1*
X34223Y36256D1*
Y36314D1*
X34242Y36371D1*
X34281Y36390D1*
X34319Y36371D1*
X34338Y36333D1*
X34357Y36237D1*
X34376Y36199D1*
X34415Y36180D1*
X34434D1*
X34472Y36199D1*
X34491Y36256D1*
Y36314D1*
X34472Y36371D1*
X34434Y36390D1*
X34223Y35827D2*
X34491D1*
X34281D2*
X34242Y35865D1*
X34223Y35903D1*
Y35960D1*
X34242Y35999D1*
X34281Y36037D1*
X34338Y36056D1*
X34376D1*
X34434Y36037D1*
X34472Y35999D1*
X34491Y35960D1*
Y35903D1*
X34472Y35865D1*
X34434Y35827D1*
X34089Y35703D2*
X34108Y35684D1*
X34089Y35665D1*
X34070Y35684D1*
X34089Y35703D1*
X34223Y35684D2*
X34491D1*
X34223Y35541D2*
X34491D1*
X34300D2*
X34242Y35484D1*
X34223Y35445D1*
Y35388D1*
X34242Y35350D1*
X34300Y35331D1*
X34491D1*
X34121Y27719D2*
X34523D1*
X34121Y27451D2*
X34389Y27719D1*
X34293Y27623D2*
X34523Y27451D1*
X34255Y27098D2*
X34523D1*
X34312D2*
X34274Y27136D1*
X34255Y27174D1*
Y27231D1*
X34274Y27270D1*
X34312Y27308D1*
X34370Y27327D1*
X34408D1*
X34465Y27308D1*
X34503Y27270D1*
X34523Y27231D1*
Y27174D1*
X34503Y27136D1*
X34465Y27098D1*
X34255Y26974D2*
X34523D1*
X34370D2*
X34312Y26955D1*
X34274Y26917D1*
X34255Y26878D1*
Y26821D1*
X34370Y26697D2*
Y26468D1*
X34331D1*
X34293Y26487D1*
X34274Y26506D1*
X34255Y26544D1*
Y26602D1*
X34274Y26640D1*
X34312Y26678D1*
X34370Y26697D1*
X34408D1*
X34465Y26678D1*
X34503Y26640D1*
X34523Y26602D1*
Y26544D1*
X34503Y26506D1*
X34465Y26468D1*
X34370Y26344D2*
Y26115D1*
X34331D1*
X34293Y26134D1*
X34274Y26153D1*
X34255Y26191D1*
Y26249D1*
X34274Y26287D1*
X34312Y26325D1*
X34370Y26344D1*
X34408D1*
X34465Y26325D1*
X34503Y26287D1*
X34523Y26249D1*
Y26191D1*
X34503Y26153D1*
X34465Y26115D1*
X34255Y25991D2*
X34523D1*
X34331D2*
X34274Y25934D1*
X34255Y25895D1*
Y25838D1*
X34274Y25800D1*
X34331Y25781D1*
X34523D1*
X34331D2*
X34274Y25723D1*
X34255Y25685D1*
Y25628D1*
X34274Y25589D1*
X34331Y25570D1*
X34523D1*
X34121Y25057D2*
X34523D1*
X34121Y24790D2*
X34523D1*
X34312Y25057D2*
Y24790D1*
X34255Y24437D2*
X34523D1*
X34312D2*
X34274Y24475D1*
X34255Y24513D1*
Y24570D1*
X34274Y24609D1*
X34312Y24647D1*
X34370Y24666D1*
X34408D1*
X34465Y24647D1*
X34503Y24609D1*
X34523Y24570D1*
Y24513D1*
X34503Y24475D1*
X34465Y24437D1*
X34121Y24313D2*
X34523D1*
X34255Y23960D2*
X34523D1*
X34312D2*
X34274Y23998D1*
X34255Y24036D1*
Y24094D1*
X34274Y24132D1*
X34312Y24170D1*
X34370Y24189D1*
X34408D1*
X34465Y24170D1*
X34503Y24132D1*
X34523Y24094D1*
Y24036D1*
X34503Y23998D1*
X34465Y23960D1*
X34121Y23836D2*
X34523D1*
X34312D2*
X34274Y23798D1*
X34255Y23760D1*
Y23703D1*
X34274Y23664D1*
X34312Y23626D1*
X34370Y23607D1*
X34408D1*
X34465Y23626D1*
X34503Y23664D1*
X34523Y23703D1*
Y23760D1*
X34503Y23798D1*
X34465Y23836D1*
X34121Y23483D2*
X34140Y23464D1*
X34121Y23445D1*
X34101Y23464D1*
X34121Y23483D1*
X34255Y23464D2*
X34523D1*
X41189Y41667D2*
D119*
X41791Y41438D1*
X41189Y41208D1*
X41791Y41023D2*
X41189Y40621D1*
X41332Y40005D2*
X41275Y40034D1*
X41217Y40092D1*
X41189Y40149D1*
Y40263D1*
X41217Y40321D1*
X41275Y40378D1*
X41332Y40407D1*
X41418Y40436D1*
X41562D1*
X41647Y40407D1*
X41705Y40378D1*
X41762Y40321D1*
X41791Y40263D1*
Y40149D1*
X41762Y40092D1*
X41705Y40034D1*
X41647Y40005D1*
X41791Y38778D2*
X41189D1*
X41791Y39007D1*
X41189Y39237D1*
X41791D1*
X41389Y38449D2*
X41418Y38506D1*
X41476Y38564D1*
X41562Y38593D1*
X41619D1*
X41705Y38564D1*
X41762Y38506D1*
X41791Y38449D1*
Y38363D1*
X41762Y38305D1*
X41705Y38248D1*
X41619Y38219D1*
X41562D1*
X41476Y38248D1*
X41418Y38305D1*
X41389Y38363D1*
Y38449D1*
Y38034D2*
X41791D1*
X41504D2*
X41418Y37948D1*
X41389Y37890D1*
Y37804D1*
X41418Y37747D1*
X41504Y37718D1*
X41791D1*
X41189Y37533D2*
X41217Y37504D1*
X41189Y37475D1*
X41159Y37504D1*
X41189Y37533D1*
X41389Y37504D2*
X41791D1*
X41189Y37204D2*
X41677D1*
X41762Y37175D1*
X41791Y37118D1*
Y37061D1*
X41389Y37290D2*
Y37089D1*
Y36732D2*
X41418Y36789D1*
X41476Y36847D1*
X41562Y36875D1*
X41619D1*
X41705Y36847D1*
X41762Y36789D1*
X41791Y36732D1*
Y36646D1*
X41762Y36588D1*
X41705Y36531D1*
X41619Y36502D1*
X41562D1*
X41476Y36531D1*
X41418Y36588D1*
X41389Y36646D1*
Y36732D1*
Y36317D2*
X41791D1*
X41562D2*
X41476Y36287D1*
X41418Y36230D1*
X41389Y36173D1*
Y36086D1*
X41361Y29310D2*
D117*
X41337D1*
X41289Y29286D1*
X41266Y29263D1*
X41242Y29215D1*
Y29119D1*
X41266Y29072D1*
X41289Y29048D1*
X41337Y29023D1*
X41385D1*
X41433Y29048D1*
X41504Y29095D1*
X41744Y29335D1*
Y29000D1*
X41242Y28702D2*
X41266Y28773D1*
X41337Y28821D1*
X41457Y28845D1*
X41529D1*
X41648Y28821D1*
X41720Y28773D1*
X41744Y28702D1*
Y28654D1*
X41720Y28582D1*
X41648Y28535D1*
X41529Y28510D1*
X41457D1*
X41337Y28535D1*
X41266Y28582D1*
X41242Y28654D1*
Y28702D1*
X41337Y28535D2*
X41648Y28821D1*
X41337Y28356D2*
X41313Y28308D1*
X41242Y28236D1*
X41744D1*
X41242Y27795D2*
Y28034D1*
X41457Y28057D1*
X41433Y28034D1*
X41409Y27962D1*
Y27890D1*
X41433Y27819D1*
X41481Y27770D1*
X41552Y27747D1*
X41600D1*
X41672Y27770D1*
X41720Y27819D1*
X41744Y27890D1*
Y27962D1*
X41720Y28034D1*
X41696Y28057D1*
X41648Y28082D1*
X41744Y27592D2*
X41242Y27257D1*
X41361Y27079D2*
X41337D1*
X41289Y27055D1*
X41266Y27031D1*
X41242Y26983D1*
Y26887D1*
X41266Y26840D1*
X41289Y26816D1*
X41337Y26792D1*
X41385D1*
X41433Y26816D1*
X41504Y26864D1*
X41744Y27103D1*
Y26768D1*
X41242Y26470D2*
X41266Y26542D1*
X41337Y26590D1*
X41457Y26614D1*
X41529D1*
X41648Y26590D1*
X41720Y26542D1*
X41744Y26470D1*
Y26422D1*
X41720Y26351D1*
X41648Y26303D1*
X41529Y26279D1*
X41457D1*
X41337Y26303D1*
X41266Y26351D1*
X41242Y26422D1*
Y26470D1*
X41337Y26303D2*
X41648Y26590D1*
X41337Y26124D2*
X41313Y26076D1*
X41242Y26004D1*
X41744D1*
X41313Y25563D2*
X41266Y25587D1*
X41242Y25659D1*
Y25706D1*
X41266Y25778D1*
X41337Y25826D1*
X41457Y25850D1*
X41576D1*
X41672Y25826D1*
X41720Y25778D1*
X41744Y25706D1*
Y25683D1*
X41720Y25611D1*
X41672Y25563D1*
X41600Y25539D1*
X41576D1*
X41504Y25563D1*
X41457Y25611D1*
X41433Y25683D1*
Y25706D1*
X41457Y25778D1*
X41504Y25826D1*
X41576Y25850D1*
M02*
