G04 DipTrace 3.0.0.1*
G04 battery-fuel_gauge_V2.GTL*
%MOIN*%
G04 #@! TF.FileFunction,Copper,L1,Top*
G04 #@! TF.Part,Single*
%AMOUTLINE0*
4,1,12,
0.064961,0.048228,
0.064961,0.038386,
0.038386,0.038386,
0.038386,-0.038386,
0.064961,-0.038386,
0.064961,-0.048228,
-0.064961,-0.048228,
-0.064961,-0.038386,
-0.038386,-0.038386,
-0.038386,0.038386,
-0.064961,0.038386,
-0.064961,0.048228,
0.064961,0.048228,
0*%
%AMOUTLINE3*
4,1,16,
-0.047244,0.045472,
0.047244,0.045472,
0.047244,-0.045472,
0.029528,-0.045472,
0.029528,-0.029331,
0.021654,-0.029331,
0.021654,-0.045472,
0.003937,-0.045472,
0.003937,-0.029331,
-0.003937,-0.029331,
-0.003937,-0.045472,
-0.021654,-0.045472,
-0.021654,-0.029331,
-0.029528,-0.029331,
-0.029528,-0.045472,
-0.047244,-0.045472,
-0.047244,0.045472,
0*%
%AMOUTLINE6*
4,1,16,
0.045472,0.047244,
0.045472,-0.047244,
-0.045472,-0.047244,
-0.045472,-0.029528,
-0.029331,-0.029528,
-0.029331,-0.021654,
-0.045472,-0.021654,
-0.045472,-0.003937,
-0.029331,-0.003937,
-0.029331,0.003937,
-0.045472,0.003937,
-0.045472,0.021654,
-0.029331,0.021654,
-0.029331,0.029528,
-0.045472,0.029528,
-0.045472,0.047244,
0.045472,0.047244,
0*%
%AMOUTLINE9*
4,1,5,
0.016732,-0.005512,
-0.016732,-0.005512,
-0.016732,0.005512,
0.012795,0.005512,
0.016732,0.001575,
0.016732,-0.005512,
0*%
G04 #@! TA.AperFunction,Conductor*
%ADD14C,0.008*%
%ADD15C,0.05*%
%ADD16C,0.007874*%
%ADD17C,0.06*%
G04 #@! TA.AperFunction,CopperBalancing*
%ADD18C,0.025*%
%ADD22O,0.007874X0.033465*%
%ADD23R,0.043307X0.03937*%
%ADD24R,0.051181X0.059055*%
G04 #@! TA.AperFunction,ComponentPad*
%ADD25R,0.066929X0.066929*%
%ADD26C,0.066929*%
%ADD27R,0.3X0.4*%
%ADD30R,0.017717X0.024803*%
%ADD31R,0.024803X0.017717*%
%ADD33R,0.029528X0.011024*%
%ADD59OUTLINE0*%
%ADD62OUTLINE3*%
%ADD65OUTLINE6*%
%ADD68OUTLINE9*%
%FSLAX26Y26*%
G04*
G70*
G90*
G75*
G01*
G04 Top*
%LPD*%
X624852Y787450D2*
D14*
X599950Y812352D1*
Y831200D1*
X618701Y849950D1*
X622736D1*
Y906201D1*
X552166D1*
X468701Y1618701D2*
D15*
X799950D1*
X874950Y1543701D1*
Y1243700D1*
X849950Y1218700D1*
Y831200D1*
X806201Y787450D1*
X624852D1*
X777164Y1424949D2*
D14*
Y1424950D1*
X824950D1*
X777164Y1524950D2*
Y1562452D1*
X774950D1*
X627166Y1524952D2*
X624950Y1527167D1*
Y1562450D1*
X724950Y1218701D2*
X715576Y1228075D1*
X684326D1*
X706201Y1249950D1*
X724950Y1268700D1*
Y1281201D1*
X706201Y1249950D2*
X724950D1*
X706201D2*
X687452Y1268700D1*
Y1281201D1*
X706201Y1249950D2*
X687452D1*
X706201D2*
X687452Y1231201D1*
Y1218701D1*
X706201Y1249950D2*
X724950Y1231201D1*
Y1218701D1*
X745916Y1087450D2*
Y1114666D1*
X756201Y1124950D1*
X547736Y1087450D2*
X506201D1*
X745571Y1172194D2*
Y1210580D1*
X706201Y1249950D1*
X724950Y1137450D2*
X729823D1*
Y1172194D1*
X674950Y1137450D2*
X682579D1*
Y1172194D1*
X614666Y1087450D2*
X664666Y1137450D1*
X674950D1*
X627166Y1424950D2*
X668701D1*
X743946Y569587D2*
X773622D1*
X785236Y581201D1*
X689814Y642765D2*
Y628839D1*
X699952Y618701D1*
X718700D1*
X743700Y593701D1*
Y569834D1*
X743946Y569587D1*
X689814Y662450D2*
X639664D1*
X633415Y656201D1*
X492814Y587697D2*
X468453D1*
X456200Y599950D1*
X599950Y618701D2*
Y622736D1*
X633415Y656201D1*
X852166Y581201D2*
Y656201D1*
X924949D1*
X1062450Y793702D1*
X735089Y642765D2*
Y633562D1*
X749950Y618701D1*
X814666D1*
X852166Y581201D1*
X710235Y1524950D2*
X710234Y1474948D1*
X627166Y1474950D2*
X710234D1*
Y1474948D1*
X560236Y1524952D2*
X549950D1*
X506201Y1568701D1*
X437450D1*
X418701Y1549952D1*
Y1268701D1*
X468701Y1218701D1*
X574950D1*
X618701Y1174950D1*
X664075D1*
D16*
X666831Y1172194D1*
X560236Y1524952D2*
D14*
Y1424950D1*
Y1474950D2*
Y1424950D1*
X777163Y1474948D2*
X749948D1*
X743701Y1468701D1*
Y1431201D1*
X737449Y1424949D1*
X710235D1*
X714075Y1327706D2*
Y1424949D1*
X710235D1*
X531200Y507776D2*
D17*
X576526D1*
X599952Y531201D1*
X664025D1*
X785236Y712450D2*
D14*
Y656201D1*
X735089Y662450D2*
X778987D1*
X785236Y656201D1*
X666831Y1327706D2*
X440945D1*
X449950Y1318701D1*
X468701D1*
X735089Y682135D2*
Y696062D1*
X718701Y712450D1*
X633415D1*
X682579Y1327706D2*
Y1362450D1*
X524952D1*
X468701Y1418701D1*
X698327Y1327706D2*
Y1376574D1*
X687450Y1387450D1*
X531202D1*
X518701Y1399952D1*
Y1506201D1*
X506201Y1518701D1*
X468701D1*
X689666Y849950D2*
Y906201D1*
Y935234D1*
X668698Y956201D1*
X620915D1*
X729823Y1327706D2*
Y1354823D1*
X749950Y1374950D1*
X787452D1*
X806200Y1356202D1*
Y1037450D1*
X781201Y1012452D1*
X612452D1*
X599950Y999950D1*
Y977166D1*
X620915Y956201D1*
X485236Y849950D2*
Y906201D1*
Y935236D1*
X506201Y956201D1*
X553986D1*
X745571Y1327706D2*
D16*
Y1345571D1*
D14*
X756201Y1356201D1*
X781201D1*
X787450Y1349952D1*
Y1049950D1*
X768701Y1031201D1*
X606201D1*
X581201Y1006201D1*
Y981201D1*
X556201Y956201D1*
X553986D1*
X852166Y712450D2*
Y752166D1*
X893700Y793700D1*
Y1199949D1*
X1062450Y1368700D1*
Y1393702D1*
X698327Y1172194D2*
D16*
X714075D1*
X468701Y1718701D2*
D17*
X956252D1*
X1062450Y1612503D1*
Y1393702D1*
X678987Y1087450D2*
D14*
X693701D1*
X706201Y1099950D1*
Y1118701D1*
X698327Y1126575D1*
D16*
Y1172194D1*
X449950Y1131201D2*
D14*
Y1074950D1*
X474950Y1049950D1*
X641487D1*
X678987Y1087450D1*
X550049Y787450D2*
X574950Y812353D1*
Y831201D1*
X556201Y849950D1*
X552166D1*
D18*
X824950Y1424950D3*
X774950Y1562452D3*
X624950Y1562450D3*
X756201Y1124950D3*
X506201Y1087450D3*
X668701Y1424950D3*
X456200Y599950D3*
X599950Y618701D3*
X449950Y1131201D3*
X724950Y1137450D3*
X674950D3*
X687452Y1281201D3*
Y1249950D3*
Y1218701D3*
X724950D3*
Y1249950D3*
Y1281201D3*
X833726Y618832D2*
X959927D1*
X833726Y593963D2*
X959927D1*
X833726Y569095D2*
X959927D1*
X833676Y544226D2*
X959927D1*
X752450Y519357D2*
X936684D1*
X752450Y494488D2*
X911831D1*
X752450Y469620D2*
X886928D1*
X828191Y541823D2*
Y540217D1*
X826049Y539839D1*
X822563Y538063D1*
X818701Y537450D1*
X749902D1*
X749950Y462452D1*
X882226D1*
X962478Y542656D1*
X962450Y643652D1*
X831250Y643701D1*
X831047Y547995D1*
X829839Y544276D1*
X828204Y541830D1*
X824376Y538814D1*
X820656Y537605D1*
X818697Y537452D1*
X828814Y542604D1*
X828206Y541832D1*
X433726Y768832D2*
X553676D1*
X433726Y743963D2*
X553676D1*
X433726Y719095D2*
X553676D1*
X433726Y694226D2*
X566176D1*
X433726Y669357D2*
X566176D1*
X433726Y644488D2*
X566176D1*
X527671Y619620D2*
X561440D1*
X533726Y594751D2*
X566176D1*
X483356Y623599D2*
X525172D1*
X525231Y616860D1*
X528206Y614319D1*
X530250Y610986D1*
X531163Y607183D1*
X531202Y593701D1*
X568654D1*
X567874Y602357D1*
X565713Y607576D1*
X564394Y613070D1*
X563950Y618701D1*
X564394Y624332D1*
X565713Y629826D1*
X568700Y636519D1*
Y712450D1*
X564837Y713062D1*
X561353Y714837D1*
X558587Y717603D1*
X556813Y721088D1*
X556200Y724950D1*
X556201Y788500D1*
X551024Y793700D1*
X431250Y793701D1*
X431201Y625878D1*
X437390Y630646D1*
X442423Y633210D1*
X447795Y634956D1*
X453376Y635839D1*
X459024D1*
X464604Y634956D1*
X469977Y633210D1*
X475009Y630646D1*
X479580Y627324D1*
X483327Y623599D1*
D22*
X666831Y1172194D3*
X682579D3*
X698327D3*
X714075D3*
X729823D3*
X745571D3*
Y1327706D3*
X729823D3*
X714075D3*
X698327D3*
X682579D3*
X666831D3*
D59*
X706201Y1249950D3*
D23*
X710235Y1424949D3*
X777164D3*
X560236Y1524952D3*
X627166D3*
X678987Y1087450D3*
X745916D3*
X614666D3*
X547736D3*
X777164Y1524950D3*
X710235D3*
X627166Y1474950D3*
X560236D3*
Y1424950D3*
X627166D3*
X777163Y1474948D3*
X710234D3*
D24*
X550049Y787450D3*
X624852D3*
D23*
X552166Y849950D3*
X485236D3*
X622736D3*
X689666D3*
X485236Y906201D3*
X552166D3*
X689666D3*
X622736D3*
X553986Y956201D3*
X620915D3*
D25*
X468701Y1718701D3*
D26*
Y1618701D3*
Y1518701D3*
Y1418701D3*
Y1318701D3*
Y1218701D3*
D23*
X785236Y656201D3*
X852166D3*
D27*
X1062450Y1393702D3*
Y793702D3*
D30*
X569586Y587697D3*
X543995D3*
X518404D3*
X492814D3*
D62*
X531200Y507776D3*
D31*
X743946Y492815D3*
Y518406D3*
Y543996D3*
Y569587D3*
D65*
X664025Y531201D3*
D23*
X566486Y656201D3*
X633415D3*
X852166Y581201D3*
X785236D3*
Y712450D3*
X852166D3*
D68*
X691782Y682135D3*
D33*
X689814Y662450D3*
Y642765D3*
X735089D3*
Y662450D3*
Y682135D3*
D23*
X566486Y712450D3*
X633415D3*
M02*
