G04 DipTrace 3.0.0.1*
G04 battery-fuel_gauge_V2.GTO*
%MOIN*%
G04 #@! TF.FileFunction,Legend,Top*
G04 #@! TF.Part,Single*
%ADD10C,0.009843*%
%ADD14C,0.008*%
%ADD19C,0.01*%
%ADD21C,0.007873*%
%ADD29C,0.015754*%
%ADD32C,0.007872*%
%ADD57C,0.006*%
%FSLAX26Y26*%
G04*
G70*
G90*
G75*
G01*
G04 TopSilk*
%LPD*%
X655012Y1309005D2*
D14*
Y1328697D1*
X757377D2*
Y1309005D1*
X655012Y1171204D2*
Y1190895D1*
D21*
Y1159402D3*
X757377Y1277503D2*
D14*
Y1222398D1*
X655012D2*
Y1277503D1*
X757377Y1190895D2*
Y1171204D1*
X602071Y594199D2*
D10*
Y468203D1*
X460334Y594199D2*
Y468203D1*
D29*
X602063Y613875D3*
X750449Y460330D2*
D10*
X624452D1*
X750449Y602067D2*
X624452D1*
D29*
X770125Y460338D3*
X680952Y697886D2*
D14*
X743945D1*
X680952Y627017D2*
X743945D1*
D32*
X669144Y697882D3*
X418701Y1768701D2*
D19*
X518701D1*
Y1168701D1*
X418701D1*
Y1768701D1*
X1111812Y1016262D2*
D57*
X1102633Y1046406D1*
X1093454Y1016262D1*
X1083854D2*
Y1046406D1*
X1073508D1*
X1070059Y1044947D1*
X1068918Y1043521D1*
X1067777Y1040669D1*
Y1036358D1*
X1068918Y1033473D1*
X1070059Y1032047D1*
X1073508Y1030622D1*
X1070059Y1029162D1*
X1068918Y1027736D1*
X1067777Y1024885D1*
Y1021999D1*
X1068918Y1019148D1*
X1070059Y1017688D1*
X1073508Y1016262D1*
X1083854D1*
Y1030622D2*
X1073508D1*
X1039793Y1046406D2*
X1048998Y1016262D1*
X1058177Y1046406D1*
X1054729Y1036358D2*
X1043241D1*
X1022154Y1016262D2*
Y1046406D1*
X1030193Y1016262D2*
X1014116D1*
X1004516Y1031351D2*
X991251D1*
X1114264Y1146215D2*
X1105085Y1176359D1*
X1095906Y1146215D1*
X1086306D2*
Y1176359D1*
X1075959D1*
X1072510Y1174900D1*
X1071370Y1173474D1*
X1070229Y1170622D1*
Y1166311D1*
X1071370Y1163426D1*
X1072510Y1162000D1*
X1075959Y1160574D1*
X1072510Y1159115D1*
X1071370Y1157689D1*
X1070229Y1154837D1*
Y1151952D1*
X1071370Y1149100D1*
X1072510Y1147641D1*
X1075959Y1146215D1*
X1086306D1*
Y1160574D2*
X1075959D1*
X1042244Y1176359D2*
X1051450Y1146215D1*
X1060629Y1176359D1*
X1057180Y1166311D2*
X1045693D1*
X1024606Y1146215D2*
Y1176359D1*
X1032644Y1146215D2*
X1016567D1*
X996647Y1148387D2*
Y1174220D1*
X1006967Y1161320D2*
X986301D1*
M02*
