G04 DipTrace Beta 2.9.0.1*
G04 Bottom.gbr*
%MOIN*%
G04 #@! TF.FileFunction,Copper,L2,Bot*
G04 #@! TF.Part,Single*
G04 #@! TA.AperFunction,Conductor,NotC*
%ADD14C,0.012992*%
G04 #@! TA.AperFunction,CopperBalancing*
%ADD15C,0.025*%
G04 #@! TA.AperFunction,ComponentPad*
%ADD23R,0.066929X0.066929*%
%ADD24C,0.066929*%
G04 #@! TA.AperFunction,ViaPad*
%ADD25C,0.02*%
%FSLAX26Y26*%
G04*
G70*
G90*
G75*
G01*
G04 Bottom*
%LPD*%
X569000Y869000D2*
D14*
Y1064000D1*
Y9374000D2*
Y9464000D1*
Y8674000D2*
Y8764000D1*
Y9024000D2*
Y9114000D1*
Y8324000D2*
Y8414000D1*
Y7624000D2*
Y7714000D1*
Y7014000D2*
Y6924000D1*
Y7274000D2*
Y7364000D1*
Y6664000D2*
Y6574000D1*
Y7974000D2*
Y8064000D1*
Y5964000D2*
Y5874000D1*
Y5264000D2*
Y5174000D1*
Y5614000D2*
Y5524000D1*
Y4824000D2*
Y4914000D1*
Y6314000D2*
Y6224000D1*
Y4214000D2*
Y4124000D1*
Y3514000D2*
Y3424000D1*
Y3864000D2*
Y3774000D1*
Y3164000D2*
Y3074000D1*
Y4564000D2*
Y4474000D1*
Y2374000D2*
Y2464000D1*
Y1764000D2*
Y1674000D1*
Y2024000D2*
Y2114000D1*
Y1324000D2*
Y1414000D1*
Y2814000D2*
Y2724000D1*
D25*
Y9464000D3*
Y9374000D3*
Y9114000D3*
Y9024000D3*
Y8764000D3*
Y8674000D3*
Y8414000D3*
Y8324000D3*
Y8064000D3*
Y7974000D3*
Y7714000D3*
Y7624000D3*
Y7364000D3*
Y7274000D3*
Y7014000D3*
Y6924000D3*
Y6664000D3*
Y6574000D3*
Y6314000D3*
Y6224000D3*
Y5964000D3*
Y5874000D3*
Y5614000D3*
Y5524000D3*
Y5264000D3*
Y5174000D3*
Y4914000D3*
Y4824000D3*
Y4564000D3*
Y4474000D3*
Y4214000D3*
Y4124000D3*
Y3864000D3*
Y3774000D3*
Y3514000D3*
Y3424000D3*
Y3164000D3*
Y3074000D3*
Y2814000D3*
Y2724000D3*
Y2464000D3*
Y2374000D3*
Y2114000D3*
Y2024000D3*
Y1764000D3*
Y1674000D3*
Y1414000D3*
Y1324000D3*
Y1064000D3*
X689000Y1019000D3*
X449000D3*
X689000Y1369000D3*
Y1719000D3*
Y2069000D3*
Y2419000D3*
Y2769000D3*
Y3119000D3*
Y3469000D3*
Y3819000D3*
Y4169000D3*
Y4519000D3*
Y4869000D3*
Y5219000D3*
Y5569000D3*
Y5919000D3*
Y6269000D3*
Y6619000D3*
Y6969000D3*
X684000Y7319000D3*
X689000Y7669000D3*
Y8019000D3*
Y8369000D3*
Y8719000D3*
Y9069000D3*
Y9419000D3*
Y9789000D3*
X449000D3*
Y9419000D3*
Y9069000D3*
Y8369000D3*
Y8719000D3*
Y8019000D3*
Y7669000D3*
Y7319000D3*
Y6969000D3*
Y6619000D3*
Y6269000D3*
Y5919000D3*
Y5569000D3*
Y5219000D3*
Y4869000D3*
Y4519000D3*
Y4169000D3*
Y3819000D3*
Y3469000D3*
Y3119000D3*
Y2769000D3*
Y2419000D3*
Y2069000D3*
Y1719000D3*
Y1369000D3*
X630836Y9926631D2*
D15*
X698883D1*
X628883Y9901762D2*
X698883D1*
X614039Y9876894D2*
X698883D1*
X599000Y9852025D2*
X698883D1*
X599000Y9827156D2*
X698883D1*
X599000Y9802287D2*
X698883D1*
X599000Y9777419D2*
X698883D1*
X599000Y9752550D2*
X698883D1*
X599000Y9727681D2*
X698883D1*
X599000Y9702812D2*
X698883D1*
X599000Y9677944D2*
X698883D1*
X599000Y9653075D2*
X698883D1*
X599000Y9628206D2*
X698883D1*
X599000Y9603337D2*
X698883D1*
X599000Y9578469D2*
X698883D1*
X599000Y9553600D2*
X698883D1*
X599000Y9528731D2*
X698883D1*
X599000Y9503862D2*
X698883D1*
X604664Y9478993D2*
X698883D1*
X606617Y9454125D2*
X698883D1*
X604664Y9429256D2*
X698883D1*
X604664Y9404387D2*
X698883D1*
X607399Y9379518D2*
X698883D1*
X602320Y9354650D2*
X698883D1*
X599000Y9329781D2*
X698883D1*
X599000Y9304912D2*
X698883D1*
X599000Y9280043D2*
X698883D1*
X599000Y9255175D2*
X698883D1*
X599000Y9230306D2*
X698883D1*
X599000Y9205437D2*
X698883D1*
X599000Y9180568D2*
X698883D1*
X599000Y9155699D2*
X698883D1*
X603883Y9130831D2*
X698883D1*
X607008Y9105962D2*
X698883D1*
X604664Y9081093D2*
X698883D1*
X604664Y9056224D2*
X698883D1*
X607399Y9031356D2*
X698883D1*
X603492Y9006487D2*
X698883D1*
X599000Y8981618D2*
X698883D1*
X599000Y8956749D2*
X698883D1*
X599000Y8931881D2*
X698883D1*
X599000Y8907012D2*
X698883D1*
X599000Y8882143D2*
X698883D1*
X599000Y8857274D2*
X698883D1*
X599000Y8832406D2*
X698883D1*
X599000Y8807537D2*
X698883D1*
X602711Y8782668D2*
X698883D1*
X607399Y8757799D2*
X698883D1*
X604664Y8732930D2*
X698883D1*
X604664Y8708062D2*
X698883D1*
X606617Y8683193D2*
X698883D1*
X604273Y8658324D2*
X698883D1*
X599000Y8633455D2*
X698883D1*
X599000Y8608587D2*
X698883D1*
X599000Y8583718D2*
X698883D1*
X599000Y8558849D2*
X698883D1*
X599000Y8533980D2*
X698883D1*
X599000Y8509112D2*
X698883D1*
X599000Y8484243D2*
X698883D1*
X599000Y8459374D2*
X698883D1*
X601539Y8434505D2*
X698883D1*
X607789Y8409636D2*
X698883D1*
X604664Y8384768D2*
X698883D1*
X604664Y8359899D2*
X698883D1*
X606227Y8335030D2*
X698883D1*
X605445Y8310161D2*
X698883D1*
X599000Y8285293D2*
X698883D1*
X599000Y8260424D2*
X698883D1*
X599000Y8235555D2*
X698883D1*
X599000Y8210686D2*
X698883D1*
X599000Y8185818D2*
X698883D1*
X599000Y8160949D2*
X698883D1*
X599000Y8136080D2*
X698883D1*
X599000Y8111211D2*
X698883D1*
X600367Y8086343D2*
X698883D1*
X607789Y8061474D2*
X698883D1*
X604664Y8036605D2*
X698883D1*
X604664Y8011736D2*
X698883D1*
X605836Y7986867D2*
X698883D1*
X605836Y7961999D2*
X698883D1*
X599000Y7937130D2*
X698883D1*
X599000Y7912261D2*
X698883D1*
X599000Y7887392D2*
X698883D1*
X599000Y7862524D2*
X698883D1*
X599000Y7837655D2*
X698883D1*
X599000Y7812786D2*
X698883D1*
X599000Y7787917D2*
X698883D1*
X599000Y7763049D2*
X698883D1*
X599000Y7738180D2*
X698883D1*
X607789Y7713311D2*
X698883D1*
X604664Y7688442D2*
X698883D1*
X604664Y7663573D2*
X698883D1*
X605055Y7638705D2*
X698883D1*
X606617Y7613836D2*
X698883D1*
X599000Y7588967D2*
X698883D1*
X599000Y7564098D2*
X698883D1*
X599000Y7539230D2*
X698883D1*
X599000Y7514361D2*
X698883D1*
X599000Y7489492D2*
X698883D1*
X599000Y7464623D2*
X698883D1*
X599000Y7439755D2*
X698883D1*
X599000Y7414886D2*
X698883D1*
X599000Y7390017D2*
X698883D1*
X607789Y7365148D2*
X698883D1*
X604664Y7340280D2*
X698883D1*
X604664Y7315411D2*
X698883D1*
X604664Y7290542D2*
X698883D1*
X607008Y7265673D2*
X698883D1*
X599000Y7240804D2*
X698883D1*
X599000Y7215936D2*
X698883D1*
X599000Y7191067D2*
X698883D1*
X599000Y7166198D2*
X698883D1*
X599000Y7141329D2*
X698883D1*
X599000Y7116461D2*
X698883D1*
X599000Y7091592D2*
X698883D1*
X599000Y7066723D2*
X698883D1*
X599000Y7041854D2*
X698883D1*
X607789Y7016986D2*
X698883D1*
X604664Y6992117D2*
X698883D1*
X604664Y6967248D2*
X698883D1*
X604664Y6942379D2*
X698883D1*
X607399Y6917510D2*
X698883D1*
X599000Y6892642D2*
X698883D1*
X599000Y6867773D2*
X698883D1*
X599000Y6842904D2*
X698883D1*
X599000Y6818035D2*
X698883D1*
X599000Y6793167D2*
X698883D1*
X599000Y6768298D2*
X698883D1*
X599000Y6743429D2*
X698883D1*
X599000Y6718560D2*
X698883D1*
X599000Y6693692D2*
X698883D1*
X607789Y6668823D2*
X698883D1*
X604664Y6643954D2*
X698883D1*
X604664Y6619085D2*
X698883D1*
X604664Y6594217D2*
X698883D1*
X607789Y6569348D2*
X698883D1*
X599000Y6544479D2*
X698883D1*
X599000Y6519610D2*
X698883D1*
X599000Y6494741D2*
X698883D1*
X599000Y6469873D2*
X698883D1*
X599000Y6445004D2*
X698883D1*
X599000Y6420135D2*
X698883D1*
X599000Y6395266D2*
X698883D1*
X599000Y6370398D2*
X698883D1*
X599000Y6345529D2*
X698883D1*
X607399Y6320660D2*
X698883D1*
X604664Y6295791D2*
X698883D1*
X604664Y6270923D2*
X698883D1*
X604664Y6246054D2*
X698883D1*
X607789Y6221185D2*
X698883D1*
X599000Y6196316D2*
X698883D1*
X599000Y6171448D2*
X698883D1*
X599000Y6146579D2*
X698883D1*
X599000Y6121710D2*
X698883D1*
X599000Y6096841D2*
X698883D1*
X599000Y6071972D2*
X698883D1*
X599000Y6047104D2*
X698883D1*
X599000Y6022235D2*
X698883D1*
X599000Y5997366D2*
X698883D1*
X607008Y5972497D2*
X698883D1*
X604664Y5947629D2*
X698883D1*
X604664Y5922760D2*
X698883D1*
X604664Y5897891D2*
X698883D1*
X607789Y5873022D2*
X698883D1*
X599000Y5848154D2*
X698883D1*
X599000Y5823285D2*
X698883D1*
X599000Y5798416D2*
X698883D1*
X599000Y5773547D2*
X698883D1*
X599000Y5748678D2*
X698883D1*
X599000Y5723810D2*
X698883D1*
X599000Y5698941D2*
X698883D1*
X599000Y5674072D2*
X698883D1*
X599000Y5649203D2*
X698883D1*
X606617Y5624335D2*
X698883D1*
X605055Y5599466D2*
X698883D1*
X604664Y5574597D2*
X698883D1*
X604664Y5549728D2*
X698883D1*
X607789Y5524860D2*
X698883D1*
X599000Y5499991D2*
X698883D1*
X599000Y5475122D2*
X698883D1*
X599000Y5450253D2*
X698883D1*
X599000Y5425385D2*
X698883D1*
X599000Y5400516D2*
X698883D1*
X599000Y5375647D2*
X698883D1*
X599000Y5350778D2*
X698883D1*
X599000Y5325909D2*
X698883D1*
X599000Y5301041D2*
X698883D1*
X605836Y5276172D2*
X698883D1*
X605836Y5251303D2*
X698883D1*
X604664Y5226434D2*
X698883D1*
X604664Y5201566D2*
X698883D1*
X607789Y5176697D2*
X698883D1*
X600367Y5151828D2*
X698883D1*
X599000Y5126959D2*
X698883D1*
X599000Y5102091D2*
X698883D1*
X599000Y5077222D2*
X698883D1*
X599000Y5052353D2*
X698883D1*
X599000Y5027484D2*
X698883D1*
X599000Y5002615D2*
X698883D1*
X599000Y4977747D2*
X698883D1*
X599000Y4952878D2*
X698883D1*
X605055Y4928009D2*
X698883D1*
X606227Y4903140D2*
X698883D1*
X604664Y4878272D2*
X698883D1*
X604664Y4853403D2*
X698883D1*
X607789Y4828534D2*
X698883D1*
X601929Y4803665D2*
X698883D1*
X599000Y4778797D2*
X698883D1*
X599000Y4753928D2*
X698883D1*
X599000Y4729059D2*
X698883D1*
X599000Y4704190D2*
X698883D1*
X599000Y4679322D2*
X698883D1*
X599000Y4654453D2*
X698883D1*
X599000Y4629584D2*
X698883D1*
X599000Y4604715D2*
X698883D1*
X604273Y4579846D2*
X698883D1*
X607008Y4554978D2*
X698883D1*
X604664Y4530109D2*
X698883D1*
X604664Y4505240D2*
X698883D1*
X607399Y4480371D2*
X698883D1*
X603101Y4455503D2*
X698883D1*
X599000Y4430634D2*
X698883D1*
X599000Y4405765D2*
X698883D1*
X599000Y4380896D2*
X698883D1*
X599000Y4356028D2*
X698883D1*
X599000Y4331159D2*
X698883D1*
X599000Y4306290D2*
X698883D1*
X599000Y4281421D2*
X698883D1*
X599000Y4256552D2*
X698883D1*
X603492Y4231684D2*
X698883D1*
X607399Y4206815D2*
X698883D1*
X604664Y4181946D2*
X698883D1*
X604664Y4157077D2*
X698883D1*
X607008Y4132209D2*
X698883D1*
X603883Y4107340D2*
X698883D1*
X599000Y4082471D2*
X698883D1*
X599000Y4057602D2*
X698883D1*
X599000Y4032734D2*
X698883D1*
X599000Y4007865D2*
X698883D1*
X599000Y3982996D2*
X698883D1*
X599000Y3958127D2*
X698883D1*
X599000Y3933259D2*
X698883D1*
X599000Y3908390D2*
X698883D1*
X602320Y3883521D2*
X698883D1*
X607399Y3858652D2*
X698883D1*
X604664Y3833783D2*
X698883D1*
X604664Y3808915D2*
X698883D1*
X606617Y3784046D2*
X698883D1*
X604664Y3759177D2*
X698883D1*
X599000Y3734308D2*
X698883D1*
X599000Y3709440D2*
X698883D1*
X599000Y3684571D2*
X698883D1*
X599000Y3659702D2*
X698883D1*
X599000Y3634833D2*
X698883D1*
X599000Y3609965D2*
X698883D1*
X599000Y3585096D2*
X698883D1*
X599000Y3560227D2*
X698883D1*
X601148Y3535358D2*
X698883D1*
X607789Y3510490D2*
X698883D1*
X604664Y3485621D2*
X698883D1*
X604664Y3460752D2*
X698883D1*
X605836Y3435883D2*
X698883D1*
X605445Y3411014D2*
X698883D1*
X599000Y3386146D2*
X698883D1*
X599000Y3361277D2*
X698883D1*
X599000Y3336408D2*
X698883D1*
X599000Y3311539D2*
X698883D1*
X599000Y3286671D2*
X698883D1*
X599000Y3261802D2*
X698883D1*
X599000Y3236933D2*
X698883D1*
X599000Y3212064D2*
X698883D1*
X599585Y3187196D2*
X698883D1*
X607789Y3162327D2*
X698883D1*
X604664Y3137458D2*
X698883D1*
X604664Y3112589D2*
X698883D1*
X605445Y3087720D2*
X698883D1*
X606227Y3062852D2*
X698883D1*
X599000Y3037983D2*
X698883D1*
X599000Y3013114D2*
X698883D1*
X599000Y2988245D2*
X698883D1*
X599000Y2963377D2*
X698883D1*
X599000Y2938508D2*
X698883D1*
X599000Y2913639D2*
X698883D1*
X599000Y2888770D2*
X698883D1*
X599000Y2863902D2*
X698883D1*
X599000Y2839033D2*
X698883D1*
X608180Y2814164D2*
X698883D1*
X604664Y2789295D2*
X698883D1*
X604664Y2764427D2*
X698883D1*
X604664Y2739558D2*
X698883D1*
X606617Y2714689D2*
X698883D1*
X599000Y2689820D2*
X698883D1*
X599000Y2664951D2*
X698883D1*
X599000Y2640083D2*
X698883D1*
X599000Y2615214D2*
X698883D1*
X599000Y2590345D2*
X698883D1*
X599000Y2565476D2*
X698883D1*
X599000Y2540608D2*
X698883D1*
X599000Y2515739D2*
X698883D1*
X599000Y2490870D2*
X698883D1*
X607789Y2466001D2*
X698883D1*
X604664Y2441133D2*
X698883D1*
X604664Y2416264D2*
X698883D1*
X604664Y2391395D2*
X698883D1*
X607399Y2366526D2*
X698883D1*
X599000Y2341657D2*
X698883D1*
X599000Y2316789D2*
X698883D1*
X599000Y2291920D2*
X698883D1*
X599000Y2267051D2*
X698883D1*
X599000Y2242182D2*
X698883D1*
X599000Y2217314D2*
X698883D1*
X599000Y2192445D2*
X698883D1*
X599000Y2167576D2*
X698883D1*
X599000Y2142707D2*
X698883D1*
X607789Y2117839D2*
X698883D1*
X604664Y2092970D2*
X698883D1*
X604664Y2068101D2*
X698883D1*
X604664Y2043232D2*
X698883D1*
X607399Y2018364D2*
X698883D1*
X599000Y1993495D2*
X698883D1*
X599000Y1968626D2*
X698883D1*
X599000Y1943757D2*
X698883D1*
X599000Y1918888D2*
X698883D1*
X599000Y1894020D2*
X698883D1*
X599000Y1869151D2*
X698883D1*
X599000Y1844282D2*
X698883D1*
X599000Y1819413D2*
X698883D1*
X599000Y1794545D2*
X698883D1*
X607399Y1769676D2*
X698883D1*
X604664Y1744807D2*
X698883D1*
X604664Y1719938D2*
X698883D1*
X604664Y1695070D2*
X698883D1*
X607789Y1670201D2*
X698883D1*
X599000Y1645332D2*
X698883D1*
X599000Y1620463D2*
X698883D1*
X599000Y1595594D2*
X698883D1*
X599000Y1570726D2*
X698883D1*
X599000Y1545857D2*
X698883D1*
X599000Y1520988D2*
X698883D1*
X599000Y1496119D2*
X698883D1*
X599000Y1471251D2*
X698883D1*
X599000Y1446382D2*
X698883D1*
X607399Y1421513D2*
X698883D1*
X604664Y1396644D2*
X698883D1*
X604664Y1371776D2*
X698883D1*
X604664Y1346907D2*
X698883D1*
X607789Y1322038D2*
X698883D1*
X599000Y1297169D2*
X698883D1*
X599000Y1272301D2*
X698883D1*
X599000Y1247432D2*
X698883D1*
X599000Y1222563D2*
X698883D1*
X599000Y1197694D2*
X698883D1*
X599000Y1172825D2*
X698883D1*
X599000Y1147957D2*
X698883D1*
X599000Y1123088D2*
X698883D1*
X599000Y1098219D2*
X698883D1*
X606617Y1073350D2*
X698883D1*
X604664Y1048482D2*
X698883D1*
X604664Y1023613D2*
X698883D1*
X604664Y998744D2*
X698883D1*
X604664Y973875D2*
X698883D1*
X604664Y949007D2*
X698883D1*
X604664Y924138D2*
X698883D1*
X623415Y899269D2*
X698883D1*
X631227Y874400D2*
X698883D1*
X628101Y849531D2*
X698883D1*
X627667Y9906591D2*
X623828Y9894718D1*
X617615Y9883896D1*
X609299Y9874596D1*
X596749Y9866093D1*
X596500Y9764000D1*
Y9487828D1*
X601685Y9480245D1*
X605243Y9468325D1*
X605500Y9464000D1*
X603381Y9451743D1*
X602043Y9449373D1*
X601996Y9389391D1*
X605243Y9378325D1*
X605500Y9374000D1*
X603381Y9361743D1*
X596387Y9350146D1*
X596500Y9137828D1*
X601685Y9130245D1*
X605243Y9118325D1*
X605500Y9114000D1*
X603381Y9101743D1*
X602043Y9099373D1*
X601996Y9039391D1*
X605243Y9028325D1*
X605500Y9024000D1*
X603381Y9011743D1*
X596387Y9000146D1*
X596500Y8787828D1*
X601685Y8780245D1*
X605243Y8768325D1*
X605500Y8764000D1*
X603381Y8751743D1*
X602043Y8749373D1*
X601996Y8689391D1*
X605243Y8678325D1*
X605500Y8674000D1*
X603381Y8661743D1*
X596387Y8650146D1*
X596500Y8437828D1*
X601685Y8430245D1*
X605243Y8418325D1*
X605500Y8414000D1*
X603381Y8401743D1*
X602043Y8399373D1*
X601996Y8339391D1*
X605243Y8328325D1*
X605500Y8324000D1*
X603381Y8311743D1*
X596387Y8300146D1*
X596500Y8087828D1*
X601685Y8080245D1*
X605243Y8068325D1*
X605500Y8064000D1*
X603381Y8051743D1*
X602043Y8049373D1*
X601996Y7989391D1*
X605243Y7978325D1*
X605500Y7974000D1*
X603381Y7961743D1*
X596387Y7950146D1*
X596500Y7737828D1*
X601685Y7730245D1*
X605243Y7718325D1*
X605500Y7714000D1*
X603381Y7701743D1*
X602043Y7699373D1*
X601996Y7639391D1*
X605243Y7628325D1*
X605500Y7624000D1*
X603381Y7611743D1*
X596387Y7600146D1*
X596500Y7387828D1*
X601685Y7380245D1*
X605243Y7368325D1*
X605500Y7364000D1*
X603381Y7351743D1*
X602043Y7349373D1*
X601996Y7289391D1*
X605243Y7278325D1*
X605500Y7274000D1*
X603381Y7261743D1*
X596387Y7250146D1*
X596500Y7037828D1*
X601685Y7030245D1*
X605243Y7018325D1*
X605500Y7014000D1*
X603381Y7001743D1*
X602043Y6999373D1*
X601996Y6939391D1*
X605243Y6928325D1*
X605500Y6924000D1*
X603381Y6911743D1*
X596387Y6900146D1*
X596500Y6687828D1*
X601685Y6680245D1*
X605243Y6668325D1*
X605500Y6664000D1*
X603381Y6651743D1*
X602043Y6649373D1*
X601996Y6589391D1*
X605243Y6578325D1*
X605500Y6574000D1*
X603381Y6561743D1*
X596387Y6550146D1*
X596500Y6337828D1*
X601685Y6330245D1*
X605243Y6318325D1*
X605500Y6314000D1*
X603381Y6301743D1*
X602043Y6299373D1*
X601996Y6239391D1*
X605243Y6228325D1*
X605500Y6224000D1*
X603381Y6211743D1*
X596387Y6200146D1*
X596500Y5987828D1*
X601685Y5980245D1*
X605243Y5968325D1*
X605500Y5964000D1*
X603381Y5951743D1*
X602043Y5949373D1*
X601996Y5889391D1*
X605243Y5878325D1*
X605500Y5874000D1*
X603381Y5861743D1*
X596387Y5850146D1*
X596500Y5637828D1*
X601685Y5630245D1*
X605243Y5618325D1*
X605500Y5614000D1*
X603381Y5601743D1*
X602043Y5599373D1*
X601996Y5539391D1*
X605243Y5528325D1*
X605500Y5524000D1*
X603381Y5511743D1*
X596387Y5500146D1*
X596500Y5287828D1*
X601685Y5280245D1*
X605243Y5268325D1*
X605500Y5264000D1*
X603381Y5251743D1*
X602043Y5249373D1*
X601996Y5189391D1*
X605243Y5178325D1*
X605500Y5174000D1*
X603381Y5161743D1*
X596387Y5150146D1*
X596500Y4937828D1*
X601685Y4930245D1*
X605243Y4918325D1*
X605500Y4914000D1*
X603381Y4901743D1*
X602043Y4899373D1*
X601996Y4839391D1*
X605243Y4828325D1*
X605500Y4824000D1*
X603381Y4811743D1*
X596387Y4800146D1*
X596500Y4587828D1*
X601685Y4580245D1*
X605243Y4568325D1*
X605500Y4564000D1*
X603381Y4551743D1*
X602043Y4549373D1*
X601996Y4489391D1*
X605243Y4478325D1*
X605500Y4474000D1*
X603381Y4461743D1*
X596387Y4450146D1*
X596500Y4237828D1*
X601685Y4230245D1*
X605243Y4218325D1*
X605500Y4214000D1*
X603381Y4201743D1*
X602043Y4199373D1*
X601996Y4139391D1*
X605243Y4128325D1*
X605500Y4124000D1*
X603381Y4111743D1*
X596387Y4100146D1*
X596500Y3887828D1*
X601685Y3880245D1*
X605243Y3868325D1*
X605500Y3864000D1*
X603381Y3851743D1*
X602043Y3849373D1*
X601996Y3789391D1*
X605243Y3778325D1*
X605500Y3774000D1*
X603381Y3761743D1*
X596387Y3750146D1*
X596500Y3537828D1*
X601685Y3530245D1*
X605243Y3518325D1*
X605500Y3514000D1*
X603381Y3501743D1*
X602043Y3499373D1*
X601996Y3439391D1*
X605243Y3428325D1*
X605500Y3424000D1*
X603381Y3411743D1*
X596387Y3400146D1*
X596500Y3187828D1*
X601685Y3180245D1*
X605243Y3168325D1*
X605500Y3164000D1*
X603381Y3151743D1*
X602043Y3149373D1*
X601996Y3089391D1*
X605243Y3078325D1*
X605500Y3074000D1*
X603381Y3061743D1*
X596387Y3050146D1*
X596500Y2837828D1*
X601685Y2830245D1*
X605243Y2818325D1*
X605500Y2814000D1*
X603381Y2801743D1*
X602043Y2799373D1*
X601996Y2739391D1*
X605243Y2728325D1*
X605500Y2724000D1*
X603381Y2711743D1*
X596387Y2700146D1*
X596500Y2487828D1*
X601685Y2480245D1*
X605243Y2468325D1*
X605500Y2464000D1*
X603381Y2451743D1*
X602043Y2449373D1*
X601996Y2389391D1*
X605243Y2378325D1*
X605500Y2374000D1*
X603381Y2361743D1*
X596387Y2350146D1*
X596500Y2137828D1*
X601685Y2130245D1*
X605243Y2118325D1*
X605500Y2114000D1*
X603381Y2101743D1*
X602043Y2099373D1*
X601996Y2039391D1*
X605243Y2028325D1*
X605500Y2024000D1*
X603381Y2011743D1*
X596387Y2000146D1*
X596500Y1787828D1*
X601685Y1780245D1*
X605243Y1768325D1*
X605500Y1764000D1*
X603381Y1751743D1*
X602043Y1749373D1*
X601996Y1689391D1*
X605243Y1678325D1*
X605500Y1674000D1*
X603381Y1661743D1*
X596387Y1650146D1*
X596500Y1437828D1*
X601685Y1430245D1*
X605243Y1418325D1*
X605500Y1414000D1*
X603381Y1401743D1*
X602043Y1399373D1*
X601996Y1339391D1*
X605243Y1328325D1*
X605500Y1324000D1*
X603381Y1311743D1*
X596387Y1300146D1*
X596500Y1087828D1*
X601685Y1080245D1*
X605243Y1068325D1*
X605500Y1064000D1*
X603381Y1051743D1*
X602043Y1049373D1*
X601996Y919079D1*
X607972Y914573D1*
X616560Y905521D1*
X623088Y894888D1*
X627276Y883134D1*
X628965Y869000D1*
X627667Y856591D1*
X623828Y844718D1*
X618975Y836264D1*
X701500Y836500D1*
Y9951500D1*
X619079D1*
X623088Y9944888D1*
X627276Y9933134D1*
X628965Y9919000D1*
X627667Y9906591D1*
X439000Y9926631D2*
X506852D1*
X439000Y9901762D2*
X509196D1*
X439000Y9876894D2*
X523648D1*
X439000Y9852025D2*
X538883D1*
X439000Y9827156D2*
X538883D1*
X439000Y9802287D2*
X538883D1*
X439000Y9777419D2*
X538883D1*
X439000Y9752550D2*
X538883D1*
X439000Y9727681D2*
X538883D1*
X439000Y9702812D2*
X538883D1*
X439000Y9677944D2*
X538883D1*
X439000Y9653075D2*
X538883D1*
X439000Y9628206D2*
X538883D1*
X439000Y9603337D2*
X538883D1*
X439000Y9578469D2*
X538883D1*
X439000Y9553600D2*
X538883D1*
X439000Y9528731D2*
X538883D1*
X439000Y9503862D2*
X538883D1*
X439000Y9478993D2*
X533415D1*
X439000Y9454125D2*
X531461D1*
X439000Y9429256D2*
X533415D1*
X439000Y9404387D2*
X533415D1*
X439000Y9379518D2*
X530289D1*
X439000Y9354650D2*
X535757D1*
X439000Y9329781D2*
X538883D1*
X439000Y9304912D2*
X538883D1*
X439000Y9280043D2*
X538883D1*
X439000Y9255175D2*
X538883D1*
X439000Y9230306D2*
X538883D1*
X439000Y9205437D2*
X538883D1*
X439000Y9180568D2*
X538883D1*
X439000Y9155699D2*
X538883D1*
X439000Y9130831D2*
X534196D1*
X439000Y9105962D2*
X531071D1*
X439000Y9081093D2*
X533415D1*
X439000Y9056224D2*
X533415D1*
X439000Y9031356D2*
X530680D1*
X439000Y9006487D2*
X534585D1*
X439000Y8981618D2*
X538883D1*
X439000Y8956749D2*
X538883D1*
X439000Y8931881D2*
X538883D1*
X439000Y8907012D2*
X538883D1*
X439000Y8882143D2*
X538883D1*
X439000Y8857274D2*
X538883D1*
X439000Y8832406D2*
X538883D1*
X439000Y8807537D2*
X538883D1*
X439000Y8782668D2*
X534976D1*
X439000Y8757799D2*
X530680D1*
X439000Y8732930D2*
X533415D1*
X439000Y8708062D2*
X533415D1*
X439000Y8683193D2*
X531071D1*
X439000Y8658324D2*
X533415D1*
X439000Y8633455D2*
X538883D1*
X439000Y8608587D2*
X538883D1*
X439000Y8583718D2*
X538883D1*
X439000Y8558849D2*
X538883D1*
X439000Y8533980D2*
X538883D1*
X439000Y8509112D2*
X538883D1*
X439000Y8484243D2*
X538883D1*
X439000Y8459374D2*
X538883D1*
X439000Y8434505D2*
X536148D1*
X439000Y8409636D2*
X530289D1*
X439000Y8384768D2*
X533415D1*
X439000Y8359899D2*
X533415D1*
X439000Y8335030D2*
X531852D1*
X439000Y8310161D2*
X532633D1*
X439000Y8285293D2*
X538883D1*
X439000Y8260424D2*
X538883D1*
X439000Y8235555D2*
X538883D1*
X439000Y8210686D2*
X538883D1*
X439000Y8185818D2*
X538883D1*
X439000Y8160949D2*
X538883D1*
X439000Y8136080D2*
X538883D1*
X439000Y8111211D2*
X538883D1*
X439000Y8086343D2*
X537711D1*
X439000Y8061474D2*
X530289D1*
X439000Y8036605D2*
X533415D1*
X439000Y8011736D2*
X533415D1*
X439000Y7986867D2*
X532243D1*
X439000Y7961999D2*
X531852D1*
X439000Y7937130D2*
X538883D1*
X439000Y7912261D2*
X538883D1*
X439000Y7887392D2*
X538883D1*
X439000Y7862524D2*
X538883D1*
X439000Y7837655D2*
X538883D1*
X439000Y7812786D2*
X538883D1*
X439000Y7787917D2*
X538883D1*
X439000Y7763049D2*
X538883D1*
X439000Y7738180D2*
X538883D1*
X439000Y7713311D2*
X529899D1*
X439000Y7688442D2*
X533415D1*
X439000Y7663573D2*
X533415D1*
X439000Y7638705D2*
X533024D1*
X439000Y7613836D2*
X531461D1*
X439000Y7588967D2*
X538883D1*
X439000Y7564098D2*
X538883D1*
X439000Y7539230D2*
X538883D1*
X439000Y7514361D2*
X538883D1*
X439000Y7489492D2*
X538883D1*
X439000Y7464623D2*
X538883D1*
X439000Y7439755D2*
X538883D1*
X439000Y7414886D2*
X538883D1*
X439000Y7390017D2*
X538883D1*
X439000Y7365148D2*
X529899D1*
X439000Y7340280D2*
X533415D1*
X439000Y7315411D2*
X533415D1*
X439000Y7290542D2*
X533415D1*
X439000Y7265673D2*
X531071D1*
X439000Y7240804D2*
X538883D1*
X439000Y7215936D2*
X538883D1*
X439000Y7191067D2*
X538883D1*
X439000Y7166198D2*
X538883D1*
X439000Y7141329D2*
X538883D1*
X439000Y7116461D2*
X538883D1*
X439000Y7091592D2*
X538883D1*
X439000Y7066723D2*
X538883D1*
X439000Y7041854D2*
X538883D1*
X439000Y7016986D2*
X530289D1*
X439000Y6992117D2*
X533415D1*
X439000Y6967248D2*
X533415D1*
X439000Y6942379D2*
X533415D1*
X439000Y6917510D2*
X530680D1*
X439000Y6892642D2*
X538883D1*
X439000Y6867773D2*
X538883D1*
X439000Y6842904D2*
X538883D1*
X439000Y6818035D2*
X538883D1*
X439000Y6793167D2*
X538883D1*
X439000Y6768298D2*
X538883D1*
X439000Y6743429D2*
X538883D1*
X439000Y6718560D2*
X538883D1*
X439000Y6693692D2*
X538883D1*
X439000Y6668823D2*
X530289D1*
X439000Y6643954D2*
X533415D1*
X439000Y6619085D2*
X533415D1*
X439000Y6594217D2*
X533415D1*
X439000Y6569348D2*
X530289D1*
X439000Y6544479D2*
X538883D1*
X439000Y6519610D2*
X538883D1*
X439000Y6494741D2*
X538883D1*
X439000Y6469873D2*
X538883D1*
X439000Y6445004D2*
X538883D1*
X439000Y6420135D2*
X538883D1*
X439000Y6395266D2*
X538883D1*
X439000Y6370398D2*
X538883D1*
X439000Y6345529D2*
X538883D1*
X439000Y6320660D2*
X530680D1*
X439000Y6295791D2*
X533415D1*
X439000Y6270923D2*
X533415D1*
X439000Y6246054D2*
X533415D1*
X439000Y6221185D2*
X530289D1*
X439000Y6196316D2*
X538883D1*
X439000Y6171448D2*
X538883D1*
X439000Y6146579D2*
X538883D1*
X439000Y6121710D2*
X538883D1*
X439000Y6096841D2*
X538883D1*
X439000Y6071972D2*
X538883D1*
X439000Y6047104D2*
X538883D1*
X439000Y6022235D2*
X538883D1*
X439000Y5997366D2*
X538883D1*
X439000Y5972497D2*
X531071D1*
X439000Y5947629D2*
X533415D1*
X439000Y5922760D2*
X533415D1*
X439000Y5897891D2*
X533415D1*
X439000Y5873022D2*
X529899D1*
X439000Y5848154D2*
X538883D1*
X439000Y5823285D2*
X538883D1*
X439000Y5798416D2*
X538883D1*
X439000Y5773547D2*
X538883D1*
X439000Y5748678D2*
X538883D1*
X439000Y5723810D2*
X538883D1*
X439000Y5698941D2*
X538883D1*
X439000Y5674072D2*
X538883D1*
X439000Y5649203D2*
X538883D1*
X439000Y5624335D2*
X531461D1*
X439000Y5599466D2*
X533024D1*
X439000Y5574597D2*
X533415D1*
X439000Y5549728D2*
X533415D1*
X439000Y5524860D2*
X529899D1*
X439000Y5499991D2*
X538883D1*
X439000Y5475122D2*
X538883D1*
X439000Y5450253D2*
X538883D1*
X439000Y5425385D2*
X538883D1*
X439000Y5400516D2*
X538883D1*
X439000Y5375647D2*
X538883D1*
X439000Y5350778D2*
X538883D1*
X439000Y5325909D2*
X538883D1*
X439000Y5301041D2*
X538883D1*
X439000Y5276172D2*
X532243D1*
X439000Y5251303D2*
X532243D1*
X439000Y5226434D2*
X533415D1*
X439000Y5201566D2*
X533415D1*
X439000Y5176697D2*
X530289D1*
X439000Y5151828D2*
X537711D1*
X439000Y5126959D2*
X538883D1*
X439000Y5102091D2*
X538883D1*
X439000Y5077222D2*
X538883D1*
X439000Y5052353D2*
X538883D1*
X439000Y5027484D2*
X538883D1*
X439000Y5002615D2*
X538883D1*
X439000Y4977747D2*
X538883D1*
X439000Y4952878D2*
X538883D1*
X439000Y4928009D2*
X532633D1*
X439000Y4903140D2*
X531852D1*
X439000Y4878272D2*
X533415D1*
X439000Y4853403D2*
X533415D1*
X439000Y4828534D2*
X530289D1*
X439000Y4803665D2*
X536148D1*
X439000Y4778797D2*
X538883D1*
X439000Y4753928D2*
X538883D1*
X439000Y4729059D2*
X538883D1*
X439000Y4704190D2*
X538883D1*
X439000Y4679322D2*
X538883D1*
X439000Y4654453D2*
X538883D1*
X439000Y4629584D2*
X538883D1*
X439000Y4604715D2*
X538883D1*
X439000Y4579846D2*
X533804D1*
X439000Y4554978D2*
X531071D1*
X439000Y4530109D2*
X533415D1*
X439000Y4505240D2*
X533415D1*
X439000Y4480371D2*
X530680D1*
X439000Y4455503D2*
X534976D1*
X439000Y4430634D2*
X538883D1*
X439000Y4405765D2*
X538883D1*
X439000Y4380896D2*
X538883D1*
X439000Y4356028D2*
X538883D1*
X439000Y4331159D2*
X538883D1*
X439000Y4306290D2*
X538883D1*
X439000Y4281421D2*
X538883D1*
X439000Y4256552D2*
X538883D1*
X439000Y4231684D2*
X534585D1*
X439000Y4206815D2*
X530680D1*
X439000Y4181946D2*
X533415D1*
X439000Y4157077D2*
X533415D1*
X439000Y4132209D2*
X531071D1*
X439000Y4107340D2*
X534196D1*
X439000Y4082471D2*
X538883D1*
X439000Y4057602D2*
X538883D1*
X439000Y4032734D2*
X538883D1*
X439000Y4007865D2*
X538883D1*
X439000Y3982996D2*
X538883D1*
X439000Y3958127D2*
X538883D1*
X439000Y3933259D2*
X538883D1*
X439000Y3908390D2*
X538883D1*
X439000Y3883521D2*
X535757D1*
X439000Y3858652D2*
X530289D1*
X439000Y3833783D2*
X533415D1*
X439000Y3808915D2*
X533415D1*
X439000Y3784046D2*
X531461D1*
X439000Y3759177D2*
X533024D1*
X439000Y3734308D2*
X538883D1*
X439000Y3709440D2*
X538883D1*
X439000Y3684571D2*
X538883D1*
X439000Y3659702D2*
X538883D1*
X439000Y3634833D2*
X538883D1*
X439000Y3609965D2*
X538883D1*
X439000Y3585096D2*
X538883D1*
X439000Y3560227D2*
X538883D1*
X439000Y3535358D2*
X536929D1*
X439000Y3510490D2*
X530289D1*
X439000Y3485621D2*
X533415D1*
X439000Y3460752D2*
X533415D1*
X439000Y3435883D2*
X531852D1*
X439000Y3411014D2*
X532243D1*
X439000Y3386146D2*
X538883D1*
X439000Y3361277D2*
X538883D1*
X439000Y3336408D2*
X538883D1*
X439000Y3311539D2*
X538883D1*
X439000Y3286671D2*
X538883D1*
X439000Y3261802D2*
X538883D1*
X439000Y3236933D2*
X538883D1*
X439000Y3212064D2*
X538883D1*
X439000Y3187196D2*
X538492D1*
X439000Y3162327D2*
X529899D1*
X439000Y3137458D2*
X533415D1*
X439000Y3112589D2*
X533415D1*
X439000Y3087720D2*
X532633D1*
X439000Y3062852D2*
X531852D1*
X439000Y3037983D2*
X538883D1*
X439000Y3013114D2*
X538883D1*
X439000Y2988245D2*
X538883D1*
X439000Y2963377D2*
X538883D1*
X439000Y2938508D2*
X538883D1*
X439000Y2913639D2*
X538883D1*
X439000Y2888770D2*
X538883D1*
X439000Y2863902D2*
X538883D1*
X439000Y2839033D2*
X538883D1*
X439000Y2814164D2*
X529899D1*
X439000Y2789295D2*
X533415D1*
X439000Y2764427D2*
X533415D1*
X439000Y2739558D2*
X533415D1*
X439000Y2714689D2*
X531071D1*
X439000Y2689820D2*
X538883D1*
X439000Y2664951D2*
X538883D1*
X439000Y2640083D2*
X538883D1*
X439000Y2615214D2*
X538883D1*
X439000Y2590345D2*
X538883D1*
X439000Y2565476D2*
X538883D1*
X439000Y2540608D2*
X538883D1*
X439000Y2515739D2*
X538883D1*
X439000Y2490870D2*
X538883D1*
X439000Y2466001D2*
X529899D1*
X439000Y2441133D2*
X533415D1*
X439000Y2416264D2*
X533415D1*
X439000Y2391395D2*
X533415D1*
X439000Y2366526D2*
X530680D1*
X439000Y2341657D2*
X538883D1*
X439000Y2316789D2*
X538883D1*
X439000Y2291920D2*
X538883D1*
X439000Y2267051D2*
X538883D1*
X439000Y2242182D2*
X538883D1*
X439000Y2217314D2*
X538883D1*
X439000Y2192445D2*
X538883D1*
X439000Y2167576D2*
X538883D1*
X439000Y2142707D2*
X538883D1*
X439000Y2117839D2*
X530289D1*
X439000Y2092970D2*
X533415D1*
X439000Y2068101D2*
X533415D1*
X439000Y2043232D2*
X533415D1*
X439000Y2018364D2*
X530289D1*
X439000Y1993495D2*
X538883D1*
X439000Y1968626D2*
X538883D1*
X439000Y1943757D2*
X538883D1*
X439000Y1918888D2*
X538883D1*
X439000Y1894020D2*
X538883D1*
X439000Y1869151D2*
X538883D1*
X439000Y1844282D2*
X538883D1*
X439000Y1819413D2*
X538883D1*
X439000Y1794545D2*
X538883D1*
X439000Y1769676D2*
X530289D1*
X439000Y1744807D2*
X533415D1*
X439000Y1719938D2*
X533415D1*
X439000Y1695070D2*
X533415D1*
X439000Y1670201D2*
X530289D1*
X439000Y1645332D2*
X538883D1*
X439000Y1620463D2*
X538883D1*
X439000Y1595594D2*
X538883D1*
X439000Y1570726D2*
X538883D1*
X439000Y1545857D2*
X538883D1*
X439000Y1520988D2*
X538883D1*
X439000Y1496119D2*
X538883D1*
X439000Y1471251D2*
X538883D1*
X439000Y1446382D2*
X538883D1*
X439000Y1421513D2*
X530680D1*
X439000Y1396644D2*
X533415D1*
X439000Y1371776D2*
X533415D1*
X439000Y1346907D2*
X533415D1*
X439000Y1322038D2*
X529899D1*
X439000Y1297169D2*
X538883D1*
X439000Y1272301D2*
X538883D1*
X439000Y1247432D2*
X538883D1*
X439000Y1222563D2*
X538883D1*
X439000Y1197694D2*
X538883D1*
X439000Y1172825D2*
X538883D1*
X439000Y1147957D2*
X538883D1*
X439000Y1123088D2*
X538883D1*
X439000Y1098219D2*
X538883D1*
X439000Y1073350D2*
X531071D1*
X439000Y1048482D2*
X533415D1*
X439000Y1023613D2*
X533415D1*
X439000Y998744D2*
X533415D1*
X439000Y973875D2*
X533415D1*
X439000Y949007D2*
X533415D1*
X439000Y924138D2*
X533415D1*
X439000Y899269D2*
X514664D1*
X439000Y874400D2*
X506852D1*
X439000Y849531D2*
X509976D1*
X541318Y9866000D2*
X529360Y9874007D1*
X520907Y9883184D1*
X514535Y9893912D1*
X510522Y9905727D1*
X509042Y9918115D1*
X510157Y9930543D1*
X513820Y9942471D1*
X518927Y9951677D1*
X436500Y9951500D1*
Y836500D1*
X518921D1*
X514535Y843912D1*
X510522Y855727D1*
X509042Y868115D1*
X510157Y880543D1*
X513820Y892471D1*
X519871Y903382D1*
X528051Y912806D1*
X535825Y918685D1*
X536004Y1048297D1*
X532564Y1061833D1*
X533953Y1074194D1*
X539411Y1085371D1*
X541357Y1087274D1*
X541500Y1300172D1*
X535408Y1309723D1*
X532564Y1321833D1*
X533953Y1334194D1*
X536171Y1338735D1*
X536004Y1398609D1*
X532564Y1411833D1*
X533953Y1424194D1*
X539411Y1435371D1*
X541357Y1437274D1*
X541500Y1650172D1*
X535408Y1659723D1*
X532564Y1671833D1*
X533953Y1684194D1*
X536171Y1688735D1*
X536004Y1748609D1*
X532564Y1761833D1*
X533953Y1774194D1*
X539411Y1785371D1*
X541357Y1787274D1*
X541500Y2000172D1*
X535408Y2009723D1*
X532564Y2021833D1*
X533953Y2034194D1*
X536171Y2038735D1*
X536004Y2098609D1*
X532564Y2111833D1*
X533953Y2124194D1*
X539411Y2135371D1*
X541357Y2137274D1*
X541500Y2350172D1*
X535408Y2359723D1*
X532564Y2371833D1*
X533953Y2384194D1*
X536171Y2388735D1*
X536004Y2448609D1*
X532564Y2461833D1*
X533953Y2474194D1*
X539411Y2485371D1*
X541357Y2487274D1*
X541500Y2700172D1*
X535408Y2709723D1*
X532564Y2721833D1*
X533953Y2734194D1*
X536171Y2738735D1*
X536004Y2798609D1*
X532564Y2811833D1*
X533953Y2824194D1*
X539411Y2835371D1*
X541357Y2837274D1*
X541500Y3050172D1*
X535408Y3059723D1*
X532564Y3071833D1*
X533953Y3084194D1*
X536171Y3088735D1*
X536004Y3148609D1*
X532564Y3161833D1*
X533953Y3174194D1*
X539411Y3185371D1*
X541357Y3187274D1*
X541500Y3400172D1*
X535408Y3409723D1*
X532564Y3421833D1*
X533953Y3434194D1*
X536171Y3438735D1*
X536004Y3498609D1*
X532564Y3511833D1*
X533953Y3524194D1*
X539411Y3535371D1*
X541357Y3537274D1*
X541500Y3750172D1*
X535408Y3759723D1*
X532564Y3771833D1*
X533953Y3784194D1*
X536171Y3788735D1*
X536004Y3848609D1*
X532564Y3861833D1*
X533953Y3874194D1*
X539411Y3885371D1*
X541357Y3887274D1*
X541500Y4100172D1*
X535408Y4109723D1*
X532564Y4121833D1*
X533953Y4134194D1*
X536171Y4138735D1*
X536004Y4198609D1*
X532564Y4211833D1*
X533953Y4224194D1*
X539411Y4235371D1*
X541357Y4237274D1*
X541500Y4450172D1*
X535408Y4459723D1*
X532564Y4471833D1*
X533953Y4484194D1*
X536171Y4488735D1*
X536004Y4548609D1*
X532564Y4561833D1*
X533953Y4574194D1*
X539411Y4585371D1*
X541357Y4587274D1*
X541500Y4800172D1*
X535408Y4809723D1*
X532564Y4821833D1*
X533953Y4834194D1*
X536171Y4838735D1*
X536004Y4898609D1*
X532564Y4911833D1*
X533953Y4924194D1*
X539411Y4935371D1*
X541357Y4937274D1*
X541500Y5150172D1*
X535408Y5159723D1*
X532564Y5171833D1*
X533953Y5184194D1*
X536171Y5188735D1*
X536004Y5248609D1*
X532564Y5261833D1*
X533953Y5274194D1*
X539411Y5285371D1*
X541357Y5287274D1*
X541500Y5500172D1*
X535408Y5509723D1*
X532564Y5521833D1*
X533953Y5534194D1*
X536171Y5538735D1*
X536004Y5598609D1*
X532564Y5611833D1*
X533953Y5624194D1*
X539411Y5635371D1*
X541357Y5637274D1*
X541500Y5850172D1*
X535408Y5859723D1*
X532564Y5871833D1*
X533953Y5884194D1*
X536171Y5888735D1*
X536004Y5948609D1*
X532564Y5961833D1*
X533953Y5974194D1*
X539411Y5985371D1*
X541357Y5987274D1*
X541500Y6200172D1*
X535408Y6209723D1*
X532564Y6221833D1*
X533953Y6234194D1*
X536171Y6238735D1*
X536004Y6298609D1*
X532564Y6311833D1*
X533953Y6324194D1*
X539411Y6335371D1*
X541357Y6337274D1*
X541500Y6550172D1*
X535408Y6559723D1*
X532564Y6571833D1*
X533953Y6584194D1*
X536171Y6588735D1*
X536004Y6648609D1*
X532564Y6661833D1*
X533953Y6674194D1*
X539411Y6685371D1*
X541357Y6687274D1*
X541500Y6900172D1*
X535408Y6909723D1*
X532564Y6921833D1*
X533953Y6934194D1*
X536171Y6938735D1*
X536004Y6998609D1*
X532564Y7011833D1*
X533953Y7024194D1*
X539411Y7035371D1*
X541357Y7037274D1*
X541500Y7250172D1*
X535408Y7259723D1*
X532564Y7271833D1*
X533953Y7284194D1*
X536171Y7288735D1*
X536004Y7348609D1*
X532564Y7361833D1*
X533953Y7374194D1*
X539411Y7385371D1*
X541357Y7387274D1*
X541500Y7600172D1*
X535408Y7609723D1*
X532564Y7621833D1*
X533953Y7634194D1*
X536171Y7638735D1*
X536004Y7698609D1*
X532564Y7711833D1*
X533953Y7724194D1*
X539411Y7735371D1*
X541357Y7737274D1*
X541500Y7950172D1*
X535408Y7959723D1*
X532564Y7971833D1*
X533953Y7984194D1*
X536171Y7988735D1*
X536004Y8048609D1*
X532564Y8061833D1*
X533953Y8074194D1*
X539411Y8085371D1*
X541357Y8087274D1*
X541500Y8300172D1*
X535408Y8309723D1*
X532564Y8321833D1*
X533953Y8334194D1*
X536171Y8338735D1*
X536004Y8398609D1*
X532564Y8411833D1*
X533953Y8424194D1*
X539411Y8435371D1*
X541357Y8437274D1*
X541500Y8650172D1*
X535408Y8659723D1*
X532564Y8671833D1*
X533953Y8684194D1*
X536171Y8688735D1*
X536004Y8748609D1*
X532564Y8761833D1*
X533953Y8774194D1*
X539411Y8785371D1*
X541357Y8787274D1*
X541500Y9000172D1*
X535408Y9009723D1*
X532564Y9021833D1*
X533953Y9034194D1*
X536171Y9038735D1*
X536004Y9098609D1*
X532564Y9111833D1*
X533953Y9124194D1*
X539411Y9135371D1*
X541357Y9137274D1*
X541500Y9350172D1*
X535408Y9359723D1*
X532564Y9371833D1*
X533953Y9384194D1*
X536171Y9388735D1*
X536004Y9448609D1*
X532564Y9461833D1*
X533953Y9474194D1*
X539411Y9485371D1*
X541357Y9487274D1*
X541500Y9865797D1*
D23*
X669000Y9919000D3*
D24*
X569000D3*
X469000D3*
D23*
X669000Y869000D3*
D24*
X569000D3*
X469000D3*
M02*
