M48
INCH
T01C0.0098
T02C0.0433
T03C0.1299
%
T01
X+005690Y+094640
X+005690Y+093740
X+006890Y+094190
X+004490Y+094190
X+005690Y+091140
X+005690Y+090240
X+006890Y+090690
X+004490Y+090690
X+005690Y+087640
X+005690Y+086740
X+006890Y+087190
X+004490Y+087190
X+005690Y+084140
X+005690Y+083240
X+006890Y+083690
X+004490Y+083690
X+005690Y+080640
X+005690Y+079740
X+006890Y+080190
X+004490Y+080190
X+005690Y+077140
X+005690Y+076240
X+006890Y+076690
X+004490Y+076690
X+005690Y+073640
X+005690Y+072740
X+006840Y+073190
X+004490Y+073190
X+005690Y+070140
X+005690Y+069240
X+006890Y+069690
X+004490Y+069690
X+005690Y+066640
X+005690Y+065740
X+006890Y+066190
X+004490Y+066190
X+005690Y+063140
X+005690Y+062240
X+006890Y+062690
X+004490Y+062690
X+005690Y+059640
X+005690Y+058740
X+006890Y+059190
X+004490Y+059190
X+005690Y+056140
X+005690Y+055240
X+006890Y+055690
X+004490Y+055690
X+005690Y+052640
X+005690Y+051740
X+006890Y+052190
X+004490Y+052190
X+005690Y+049140
X+005690Y+048240
X+006890Y+048690
X+004490Y+048690
X+005690Y+045640
X+005690Y+044740
X+006890Y+045190
X+004490Y+045190
X+005690Y+042140
X+005690Y+041240
X+006890Y+041690
X+004490Y+041690
X+005690Y+038640
X+005690Y+037740
X+006890Y+038190
X+004490Y+038190
X+005690Y+035140
X+005690Y+034240
X+006890Y+034690
X+004490Y+034690
X+005690Y+031640
X+005690Y+030740
X+006890Y+031190
X+004490Y+031190
X+005690Y+028140
X+005690Y+027240
X+006890Y+027690
X+004490Y+027690
X+005690Y+024640
X+005690Y+023740
X+006890Y+024190
X+004490Y+024190
X+005690Y+021140
X+005690Y+020240
X+006890Y+020690
X+004490Y+020690
X+005690Y+017640
X+005690Y+016740
X+006890Y+017190
X+004490Y+017190
X+005690Y+014140
X+005690Y+013240
X+006890Y+013690
X+004490Y+013690
X+005690Y+010640
X+006890Y+010190
X+004490Y+010190
X+004490Y+097890
X+006890Y+097890
T02
X+006690Y+099190
X+005690Y+099190
X+004690Y+099190
X+004690Y+008690
X+005690Y+008690
X+006690Y+008690
T03
X+005690Y+101840
X+005690Y+006040
T00
M30
