G04 DipTrace Beta 2.9.0.1*
G04 Top.gbr*
%MOIN*%
G04 #@! TF.FileFunction,Copper,L1,Top*
G04 #@! TF.Part,Single*
G04 #@! TA.AperFunction,Conductor,NotC*
%ADD14C,0.012992*%
G04 #@! TA.AperFunction,CopperBalancing*
%ADD15C,0.025*%
%ADD16C,0.015*%
G04 #@! TA.AperFunction,SMDPad,CuDef*
%ADD20R,0.043307X0.03937*%
%ADD22R,0.059055X0.03937*%
G04 #@! TA.AperFunction,ComponentPad*
%ADD23R,0.066929X0.066929*%
%ADD24C,0.066929*%
G04 #@! TA.AperFunction,ViaPad*
%ADD25C,0.02*%
%FSLAX26Y26*%
G04*
G70*
G90*
G75*
G01*
G04 Top*
%LPD*%
X602465Y9789000D2*
D14*
Y9885535D1*
X569000Y9919000D1*
X472543Y1131008D2*
X501992D1*
X569000Y1064000D1*
X472543Y9531008D2*
X501992D1*
X569000Y9464000D1*
X665457Y9306992D2*
X636008D1*
X569000Y9374000D1*
X472543Y8831008D2*
X501992D1*
X569000Y8764000D1*
X665457Y8606992D2*
X636008D1*
X569000Y8674000D1*
X472543Y9181008D2*
X501992D1*
X569000Y9114000D1*
X665457Y8956992D2*
X636008D1*
X569000Y9024000D1*
X472543Y8481008D2*
X501992D1*
X569000Y8414000D1*
X665457Y8256992D2*
X636008D1*
X569000Y8324000D1*
X472543Y7781008D2*
X501992D1*
X569000Y7714000D1*
X665457Y7556992D2*
X636008D1*
X569000Y7624000D1*
X665457Y6856992D2*
X636008D1*
X569000Y6924000D1*
X472543Y7081008D2*
X501992D1*
X569000Y7014000D1*
X472543Y7431008D2*
X501992D1*
X569000Y7364000D1*
X665457Y7206992D2*
X636008D1*
X569000Y7274000D1*
X665457Y6506992D2*
X636008D1*
X569000Y6574000D1*
X472543Y6731008D2*
X501992D1*
X569000Y6664000D1*
X472543Y8131008D2*
X501992D1*
X569000Y8064000D1*
X665457Y7906992D2*
X636008D1*
X569000Y7974000D1*
X665457Y5806992D2*
X636008D1*
X569000Y5874000D1*
X472543Y6031008D2*
X501992D1*
X569000Y5964000D1*
X665457Y5106992D2*
X636008D1*
X569000Y5174000D1*
X472543Y5331008D2*
X501992D1*
X569000Y5264000D1*
X665457Y5456992D2*
X636008D1*
X569000Y5524000D1*
X472543Y5681008D2*
X501992D1*
X569000Y5614000D1*
X665457Y4756992D2*
X636008D1*
X569000Y4824000D1*
X472543Y4981008D2*
X501992D1*
X569000Y4914000D1*
X665457Y6156992D2*
X636008D1*
X569000Y6224000D1*
X472543Y6381008D2*
X501992D1*
X569000Y6314000D1*
X665457Y4056992D2*
X636008D1*
X569000Y4124000D1*
X472543Y4281008D2*
X501992D1*
X569000Y4214000D1*
X665457Y3356992D2*
X636008D1*
X569000Y3424000D1*
X472543Y3581008D2*
X501992D1*
X569000Y3514000D1*
X665457Y3706992D2*
X636008D1*
X569000Y3774000D1*
X472543Y3931008D2*
X501992D1*
X569000Y3864000D1*
X665457Y3006992D2*
X636008D1*
X569000Y3074000D1*
X472543Y3231008D2*
X501992D1*
X569000Y3164000D1*
X665457Y4406992D2*
X636008D1*
X569000Y4474000D1*
X472543Y4631008D2*
X501992D1*
X569000Y4564000D1*
X665457Y2306992D2*
X636008D1*
X569000Y2374000D1*
X472543Y2531008D2*
X501992D1*
X569000Y2464000D1*
X665457Y1606992D2*
X636008D1*
X569000Y1674000D1*
X472543Y1831008D2*
X501992D1*
X569000Y1764000D1*
X665457Y1956992D2*
X636008D1*
X569000Y2024000D1*
X472543Y2181008D2*
X501992D1*
X569000Y2114000D1*
X665457Y1256992D2*
X636008D1*
X569000Y1324000D1*
X472543Y1481008D2*
X501992D1*
X569000Y1414000D1*
X665457Y2656992D2*
X636008D1*
X569000Y2724000D1*
X472543Y2881008D2*
X501992D1*
X569000Y2814000D1*
X535535Y9789000D2*
Y9786913D1*
X665457Y9656992D1*
D25*
X569000Y9464000D3*
Y9374000D3*
Y9114000D3*
Y9024000D3*
Y8764000D3*
Y8674000D3*
Y8414000D3*
Y8324000D3*
Y8064000D3*
Y7974000D3*
Y7714000D3*
Y7624000D3*
Y7364000D3*
Y7274000D3*
Y7014000D3*
Y6924000D3*
Y6664000D3*
Y6574000D3*
Y6314000D3*
Y6224000D3*
Y5964000D3*
Y5874000D3*
Y5614000D3*
Y5524000D3*
Y5264000D3*
Y5174000D3*
Y4914000D3*
Y4824000D3*
Y4564000D3*
Y4474000D3*
Y4214000D3*
Y4124000D3*
Y3864000D3*
Y3774000D3*
Y3514000D3*
Y3424000D3*
Y3164000D3*
Y3074000D3*
Y2814000D3*
Y2724000D3*
Y2464000D3*
Y2374000D3*
Y2114000D3*
Y2024000D3*
Y1764000D3*
Y1674000D3*
Y1414000D3*
Y1324000D3*
Y1064000D3*
X689000Y1019000D3*
X449000D3*
X689000Y1369000D3*
Y1719000D3*
Y2069000D3*
Y2419000D3*
Y2769000D3*
Y3119000D3*
Y3469000D3*
Y3819000D3*
Y4169000D3*
Y4519000D3*
Y4869000D3*
Y5219000D3*
Y5569000D3*
Y5919000D3*
Y6269000D3*
Y6619000D3*
Y6969000D3*
X684000Y7319000D3*
X689000Y7669000D3*
Y8019000D3*
Y8369000D3*
Y8719000D3*
Y9069000D3*
Y9419000D3*
Y9789000D3*
X449000D3*
Y9419000D3*
Y9069000D3*
Y8369000D3*
Y8719000D3*
Y8019000D3*
Y7669000D3*
Y7319000D3*
Y6969000D3*
Y6619000D3*
Y6269000D3*
Y5919000D3*
Y5569000D3*
Y5219000D3*
Y4869000D3*
Y4519000D3*
Y4169000D3*
Y3819000D3*
Y3469000D3*
Y3119000D3*
Y2769000D3*
Y2419000D3*
Y2069000D3*
Y1719000D3*
Y1369000D3*
X637867Y9852025D2*
D15*
X698883D1*
X653101Y9827156D2*
X698883D1*
X653101Y9802287D2*
X698883D1*
X653101Y9777419D2*
X698883D1*
X653101Y9752550D2*
X698883D1*
X643727Y9727681D2*
X698883D1*
X599000Y9653075D2*
X607085D1*
X599000Y9628206D2*
X607085D1*
X599000Y9603337D2*
X698883D1*
X599000Y9578469D2*
X698883D1*
X599000Y9553600D2*
X607085D1*
X599000Y9528731D2*
X607085D1*
X599000Y9503862D2*
X607085D1*
X604664Y9478993D2*
X698883D1*
X653101Y9454125D2*
X698883D1*
X653101Y9429256D2*
X698883D1*
X653101Y9404387D2*
X698883D1*
X653101Y9379518D2*
X698883D1*
X637476Y9354650D2*
X698883D1*
X599000Y9280043D2*
X607085D1*
X599000Y9255175D2*
X698883D1*
X599000Y9230306D2*
X698883D1*
X599000Y9205437D2*
X607085D1*
X599000Y9180568D2*
X607085D1*
X599000Y9155699D2*
X607085D1*
X603883Y9130831D2*
X698883D1*
X653101Y9105962D2*
X698883D1*
X653101Y9081093D2*
X698883D1*
X653101Y9056224D2*
X698883D1*
X653101Y9031356D2*
X698883D1*
X635524Y9006487D2*
X698883D1*
X599000Y8931881D2*
X607085D1*
X599000Y8907012D2*
X698883D1*
X599000Y8882143D2*
X698883D1*
X599000Y8857274D2*
X607085D1*
X599000Y8832406D2*
X607085D1*
X599000Y8807537D2*
X607085D1*
X602711Y8782668D2*
X698883D1*
X653101Y8757799D2*
X698883D1*
X653101Y8732930D2*
X698883D1*
X653101Y8708062D2*
X698883D1*
X653101Y8683193D2*
X698883D1*
X633961Y8658324D2*
X698883D1*
X599000Y8583718D2*
X607085D1*
X599000Y8558849D2*
X698883D1*
X599000Y8533980D2*
X698883D1*
X599000Y8509112D2*
X607085D1*
X599000Y8484243D2*
X607085D1*
X599000Y8459374D2*
X607085D1*
X601539Y8434505D2*
X698883D1*
X653101Y8409636D2*
X698883D1*
X653101Y8384768D2*
X698883D1*
X653101Y8359899D2*
X698883D1*
X653101Y8335030D2*
X698883D1*
X632008Y8310161D2*
X698883D1*
X599000Y8235555D2*
X607085D1*
X599000Y8210686D2*
X698883D1*
X599000Y8185818D2*
X698883D1*
X599000Y8160949D2*
X607085D1*
X599000Y8136080D2*
X607085D1*
X599000Y8111211D2*
X607085D1*
X653101Y8061474D2*
X698883D1*
X653101Y8036605D2*
X698883D1*
X653101Y8011736D2*
X698883D1*
X653101Y7986867D2*
X698883D1*
X630055Y7961999D2*
X698883D1*
X599000Y7862524D2*
X607085D1*
X599000Y7837655D2*
X698883D1*
X599000Y7812786D2*
X607085D1*
X599000Y7787917D2*
X607085D1*
X599000Y7763049D2*
X607085D1*
X599000Y7738180D2*
X607085D1*
X653101Y7713311D2*
X698883D1*
X653101Y7688442D2*
X698883D1*
X653101Y7663573D2*
X698883D1*
X653101Y7638705D2*
X698883D1*
X628492Y7613836D2*
X698883D1*
X599000Y7514361D2*
X607085D1*
X599000Y7489492D2*
X698883D1*
X599000Y7464623D2*
X607085D1*
X599000Y7439755D2*
X607085D1*
X599000Y7414886D2*
X607085D1*
X599000Y7390017D2*
X607085D1*
X653101Y7365148D2*
X698883D1*
X653101Y7340280D2*
X698883D1*
X653101Y7315411D2*
X698883D1*
X653101Y7290542D2*
X698883D1*
X626539Y7265673D2*
X698883D1*
X599000Y7166198D2*
X607085D1*
X599000Y7141329D2*
X698883D1*
X599000Y7116461D2*
X607085D1*
X599000Y7091592D2*
X607085D1*
X599000Y7066723D2*
X607085D1*
X599000Y7041854D2*
X607085D1*
X607789Y7016986D2*
X698883D1*
X653101Y6992117D2*
X698883D1*
X653101Y6967248D2*
X698883D1*
X653101Y6942379D2*
X698883D1*
X624585Y6917510D2*
X698883D1*
X599000Y6818035D2*
X607085D1*
X599000Y6793167D2*
X698883D1*
X599000Y6768298D2*
X607085D1*
X599000Y6743429D2*
X607085D1*
X599000Y6718560D2*
X607085D1*
X599000Y6693692D2*
X607085D1*
X607789Y6668823D2*
X698883D1*
X653101Y6643954D2*
X698883D1*
X653101Y6619085D2*
X698883D1*
X653101Y6594217D2*
X698883D1*
X622633Y6569348D2*
X698883D1*
X599000Y6469873D2*
X607085D1*
X599000Y6445004D2*
X698883D1*
X599000Y6420135D2*
X607085D1*
X599000Y6395266D2*
X607085D1*
X599000Y6370398D2*
X607085D1*
X599000Y6345529D2*
X607085D1*
X607399Y6320660D2*
X698883D1*
X653101Y6295791D2*
X698883D1*
X653101Y6270923D2*
X698883D1*
X653101Y6246054D2*
X698883D1*
X621071Y6221185D2*
X698883D1*
X599000Y6121710D2*
X607085D1*
X599000Y6096841D2*
X698883D1*
X599000Y6071972D2*
X607085D1*
X599000Y6047104D2*
X607085D1*
X599000Y6022235D2*
X607085D1*
X599000Y5997366D2*
X607085D1*
X607008Y5972497D2*
X698883D1*
X653101Y5947629D2*
X698883D1*
X653101Y5922760D2*
X698883D1*
X653101Y5897891D2*
X698883D1*
X653101Y5873022D2*
X698883D1*
X599000Y5773547D2*
X607085D1*
X599000Y5748678D2*
X698883D1*
X599000Y5723810D2*
X607085D1*
X599000Y5698941D2*
X607085D1*
X599000Y5674072D2*
X607085D1*
X599000Y5649203D2*
X607085D1*
X606617Y5624335D2*
X698883D1*
X653101Y5599466D2*
X698883D1*
X653101Y5574597D2*
X698883D1*
X653101Y5549728D2*
X698883D1*
X653101Y5524860D2*
X698883D1*
X599000Y5425385D2*
X607085D1*
X599000Y5400516D2*
X698883D1*
X599000Y5375647D2*
X607085D1*
X599000Y5350778D2*
X607085D1*
X599000Y5325909D2*
X607085D1*
X599000Y5301041D2*
X607085D1*
X605836Y5276172D2*
X698883D1*
X653101Y5251303D2*
X698883D1*
X653101Y5226434D2*
X698883D1*
X653101Y5201566D2*
X698883D1*
X653101Y5176697D2*
X698883D1*
X599000Y5077222D2*
X607085D1*
X599000Y5052353D2*
X698883D1*
X599000Y5027484D2*
X698883D1*
X599000Y5002615D2*
X607085D1*
X599000Y4977747D2*
X607085D1*
X599000Y4952878D2*
X607085D1*
X605055Y4928009D2*
X698883D1*
X653101Y4903140D2*
X698883D1*
X653101Y4878272D2*
X698883D1*
X653101Y4853403D2*
X698883D1*
X653101Y4828534D2*
X698883D1*
X638648Y4803665D2*
X698883D1*
X599000Y4729059D2*
X607085D1*
X599000Y4704190D2*
X698883D1*
X599000Y4679322D2*
X698883D1*
X599000Y4654453D2*
X607085D1*
X599000Y4629584D2*
X607085D1*
X599000Y4604715D2*
X607085D1*
X604273Y4579846D2*
X698883D1*
X653101Y4554978D2*
X698883D1*
X653101Y4530109D2*
X698883D1*
X653101Y4505240D2*
X698883D1*
X653101Y4480371D2*
X698883D1*
X636696Y4455503D2*
X698883D1*
X599000Y4380896D2*
X607085D1*
X599000Y4356028D2*
X698883D1*
X599000Y4331159D2*
X698883D1*
X599000Y4306290D2*
X607085D1*
X599000Y4281421D2*
X607085D1*
X599000Y4256552D2*
X607085D1*
X603492Y4231684D2*
X698883D1*
X653101Y4206815D2*
X698883D1*
X653101Y4181946D2*
X698883D1*
X653101Y4157077D2*
X698883D1*
X653101Y4132209D2*
X698883D1*
X634743Y4107340D2*
X698883D1*
X599000Y4032734D2*
X607085D1*
X599000Y4007865D2*
X698883D1*
X599000Y3982996D2*
X698883D1*
X599000Y3958127D2*
X607085D1*
X599000Y3933259D2*
X607085D1*
X599000Y3908390D2*
X607085D1*
X602320Y3883521D2*
X698883D1*
X653101Y3858652D2*
X698883D1*
X653101Y3833783D2*
X698883D1*
X653101Y3808915D2*
X698883D1*
X653101Y3784046D2*
X698883D1*
X632789Y3759177D2*
X698883D1*
X599000Y3684571D2*
X607085D1*
X599000Y3659702D2*
X698883D1*
X599000Y3634833D2*
X698883D1*
X599000Y3609965D2*
X607085D1*
X599000Y3585096D2*
X607085D1*
X599000Y3560227D2*
X607085D1*
X653101Y3510490D2*
X698883D1*
X653101Y3485621D2*
X698883D1*
X653101Y3460752D2*
X698883D1*
X653101Y3435883D2*
X698883D1*
X631227Y3411014D2*
X698883D1*
X599000Y3336408D2*
X607085D1*
X599000Y3311539D2*
X607085D1*
X599000Y3286671D2*
X698883D1*
X599000Y3261802D2*
X607085D1*
X599000Y3236933D2*
X607085D1*
X599000Y3212064D2*
X607085D1*
X599585Y3187196D2*
X607175D1*
X653101Y3162327D2*
X698883D1*
X653101Y3137458D2*
X698883D1*
X653101Y3112589D2*
X698883D1*
X653101Y3087720D2*
X698883D1*
X629273Y3062852D2*
X698883D1*
X599000Y2963377D2*
X607085D1*
X599000Y2938508D2*
X698883D1*
X599000Y2913639D2*
X607085D1*
X599000Y2888770D2*
X607085D1*
X599000Y2863902D2*
X607085D1*
X599000Y2839033D2*
X607085D1*
X653101Y2814164D2*
X698883D1*
X653101Y2789295D2*
X698883D1*
X653101Y2764427D2*
X698883D1*
X653101Y2739558D2*
X698883D1*
X627320Y2714689D2*
X698883D1*
X599000Y2615214D2*
X607085D1*
X599000Y2590345D2*
X698883D1*
X599000Y2565476D2*
X607085D1*
X599000Y2540608D2*
X607085D1*
X599000Y2515739D2*
X607085D1*
X599000Y2490870D2*
X607085D1*
X607789Y2466001D2*
X698883D1*
X653101Y2441133D2*
X698883D1*
X653101Y2416264D2*
X698883D1*
X653101Y2391395D2*
X698883D1*
X625757Y2366526D2*
X698883D1*
X599000Y2267051D2*
X607085D1*
X599000Y2242182D2*
X698883D1*
X599000Y2217314D2*
X607085D1*
X599000Y2192445D2*
X607085D1*
X599000Y2167576D2*
X607085D1*
X599000Y2142707D2*
X607085D1*
X607789Y2117839D2*
X698883D1*
X653101Y2092970D2*
X698883D1*
X653101Y2068101D2*
X698883D1*
X653101Y2043232D2*
X698883D1*
X623804Y2018364D2*
X698883D1*
X599000Y1918888D2*
X607085D1*
X599000Y1894020D2*
X698883D1*
X599000Y1869151D2*
X607085D1*
X599000Y1844282D2*
X607085D1*
X599000Y1819413D2*
X607085D1*
X599000Y1794545D2*
X607085D1*
X607399Y1769676D2*
X698883D1*
X653101Y1744807D2*
X698883D1*
X653101Y1719938D2*
X698883D1*
X653101Y1695070D2*
X698883D1*
X621852Y1670201D2*
X698883D1*
X599000Y1570726D2*
X607085D1*
X599000Y1545857D2*
X698883D1*
X599000Y1520988D2*
X607085D1*
X599000Y1496119D2*
X607085D1*
X599000Y1471251D2*
X607085D1*
X599000Y1446382D2*
X607085D1*
X607399Y1421513D2*
X698883D1*
X653101Y1396644D2*
X698883D1*
X653101Y1371776D2*
X698883D1*
X653101Y1346907D2*
X698883D1*
X620289Y1322038D2*
X698883D1*
X599000Y1222563D2*
X607085D1*
X599000Y1197694D2*
X698883D1*
X599000Y1172825D2*
X607085D1*
X599000Y1147957D2*
X607085D1*
X599000Y1123088D2*
X607085D1*
X599000Y1098219D2*
X607085D1*
X606617Y1073350D2*
X698883D1*
X653101Y1048482D2*
X698883D1*
X653101Y1023613D2*
X698883D1*
X653101Y998744D2*
X698883D1*
X653101Y973875D2*
X698883D1*
X599000Y949007D2*
X698883D1*
X599000Y924138D2*
X606696D1*
X605483Y9465185D2*
X650618D1*
Y9372815D1*
X616790D1*
X636249Y9353413D1*
X701226Y9353177D1*
X701484Y9484823D1*
X609429D1*
Y9577193D1*
X701538D1*
X701500Y9611109D1*
X621484Y9610807D1*
X609429D1*
Y9666667D1*
X596550Y9679236D1*
X596500Y9487828D1*
X601685Y9480245D1*
X605428Y9465217D1*
X605483Y9115185D2*
X650618D1*
Y9022815D1*
X616790D1*
X636249Y9003413D1*
X701226Y9003177D1*
X701484Y9134823D1*
X609429D1*
Y9227193D1*
X701538D1*
X701500Y9261109D1*
X621484Y9260807D1*
X609429D1*
Y9286979D1*
X596379Y9299957D1*
X596500Y9137828D1*
X601685Y9130245D1*
X605428Y9115217D1*
X605483Y8765185D2*
X650618D1*
Y8672815D1*
X616790D1*
X636249Y8653413D1*
X701226Y8653177D1*
X701484Y8784823D1*
X609429D1*
Y8877193D1*
X701538D1*
X701500Y8911109D1*
X621484Y8910807D1*
X609429D1*
Y8936979D1*
X596379Y8949957D1*
X596500Y8787828D1*
X601685Y8780245D1*
X605428Y8765217D1*
X605483Y8415185D2*
X650618D1*
Y8322815D1*
X616790D1*
X636249Y8303413D1*
X701226Y8303177D1*
X701484Y8434823D1*
X609429D1*
Y8527193D1*
X701538D1*
X701500Y8561109D1*
X621484Y8560807D1*
X609429D1*
Y8586979D1*
X596379Y8599957D1*
X596500Y8437828D1*
X601685Y8430245D1*
X605428Y8415217D1*
X605483Y8065185D2*
X650618D1*
Y7972815D1*
X616790D1*
X636249Y7953413D1*
X701226Y7953177D1*
X701484Y8084823D1*
X609429D1*
Y8177193D1*
X701538D1*
X701500Y8211109D1*
X621484Y8210807D1*
X609429D1*
Y8236979D1*
X596379Y8249957D1*
X596500Y8087828D1*
X601685Y8080245D1*
X605428Y8065217D1*
X605483Y7715185D2*
X650618D1*
Y7622815D1*
X616790D1*
X636249Y7603413D1*
X701226Y7603177D1*
X701484Y7734823D1*
X609429D1*
Y7827193D1*
X701538D1*
X701500Y7861109D1*
X621484Y7860807D1*
X609429D1*
Y7886979D1*
X596379Y7899957D1*
X596500Y7737828D1*
X601685Y7730245D1*
X605428Y7715217D1*
X605483Y7365185D2*
X650618D1*
Y7272815D1*
X616790D1*
X636249Y7253413D1*
X701226Y7253177D1*
X701484Y7384823D1*
X609429D1*
Y7477193D1*
X701538D1*
X701500Y7511109D1*
X621484Y7510807D1*
X609429D1*
Y7536979D1*
X596379Y7549957D1*
X596500Y7387828D1*
X601685Y7380245D1*
X605428Y7365217D1*
X605483Y7015185D2*
X650618D1*
Y6922815D1*
X616790D1*
X636249Y6903413D1*
X701226Y6903177D1*
X701484Y7034823D1*
X609429D1*
Y7127193D1*
X701538D1*
X701500Y7161109D1*
X621484Y7160807D1*
X609429D1*
Y7186979D1*
X596379Y7199957D1*
X596500Y7037828D1*
X601685Y7030245D1*
X605428Y7015217D1*
X605483Y6665185D2*
X650618D1*
Y6572815D1*
X616790D1*
X636249Y6553413D1*
X701226Y6553177D1*
X701484Y6684823D1*
X609429D1*
Y6777193D1*
X701538D1*
X701500Y6811109D1*
X621484Y6810807D1*
X609429D1*
Y6836979D1*
X596379Y6849957D1*
X596500Y6687828D1*
X601685Y6680245D1*
X605428Y6665217D1*
X605483Y6315185D2*
X650618D1*
Y6222815D1*
X616790D1*
X636249Y6203413D1*
X701226Y6203177D1*
X701484Y6334823D1*
X609429D1*
Y6427193D1*
X701538D1*
X701500Y6461109D1*
X621484Y6460807D1*
X609429D1*
Y6486979D1*
X596379Y6499957D1*
X596500Y6337828D1*
X601685Y6330245D1*
X605428Y6315217D1*
X605483Y5965185D2*
X650618D1*
Y5872815D1*
X616790D1*
X636249Y5853413D1*
X701226Y5853177D1*
X701484Y5984823D1*
X609429D1*
Y6077193D1*
X701538D1*
X701500Y6111109D1*
X621484Y6110807D1*
X609429D1*
Y6136979D1*
X596379Y6149957D1*
X596500Y5987828D1*
X601685Y5980245D1*
X605428Y5965217D1*
X605483Y5615185D2*
X650618D1*
Y5522815D1*
X616790D1*
X636249Y5503413D1*
X701226Y5503177D1*
X701484Y5634823D1*
X609429D1*
Y5727193D1*
X701538D1*
X701500Y5761109D1*
X621484Y5760807D1*
X609429D1*
Y5786979D1*
X596379Y5799957D1*
X596500Y5637828D1*
X601685Y5630245D1*
X605428Y5615217D1*
X605483Y5265185D2*
X650618D1*
Y5172815D1*
X616790D1*
X636249Y5153413D1*
X701226Y5153177D1*
X701484Y5284823D1*
X609429D1*
Y5377193D1*
X701538D1*
X701500Y5411109D1*
X621484Y5410807D1*
X609429D1*
Y5436979D1*
X596379Y5449957D1*
X596500Y5287828D1*
X601685Y5280245D1*
X605428Y5265217D1*
X605483Y4915185D2*
X650618D1*
Y4822815D1*
X616790D1*
X636249Y4803413D1*
X701226Y4803177D1*
X701484Y4934823D1*
X609429D1*
Y5027193D1*
X701538D1*
X701500Y5061109D1*
X621484Y5060807D1*
X609429D1*
Y5086979D1*
X596379Y5099957D1*
X596500Y4937828D1*
X601685Y4930245D1*
X605428Y4915217D1*
X605483Y4565185D2*
X650618D1*
Y4472815D1*
X616790D1*
X636249Y4453413D1*
X701226Y4453177D1*
X701484Y4584823D1*
X609429D1*
Y4677193D1*
X701538D1*
X701500Y4711109D1*
X621484Y4710807D1*
X609429D1*
Y4736979D1*
X596379Y4749957D1*
X596500Y4587828D1*
X601685Y4580245D1*
X605428Y4565217D1*
X605483Y4215185D2*
X650618D1*
Y4122815D1*
X616790D1*
X636249Y4103413D1*
X701226Y4103177D1*
X701484Y4234823D1*
X609429D1*
Y4327193D1*
X701538D1*
X701500Y4361109D1*
X621484Y4360807D1*
X609429D1*
Y4386979D1*
X596379Y4399957D1*
X596500Y4237828D1*
X601685Y4230245D1*
X605428Y4215217D1*
X605483Y3865185D2*
X650618D1*
Y3772815D1*
X616790D1*
X636249Y3753413D1*
X701226Y3753177D1*
X701484Y3884823D1*
X609429D1*
Y3977193D1*
X701538D1*
X701500Y4011109D1*
X621484Y4010807D1*
X609429D1*
Y4036979D1*
X596379Y4049957D1*
X596500Y3887828D1*
X601685Y3880245D1*
X605428Y3865217D1*
X605483Y3515185D2*
X650618D1*
Y3422815D1*
X616790D1*
X636249Y3403413D1*
X701226Y3403177D1*
X701484Y3534823D1*
X609429D1*
Y3627193D1*
X701538D1*
X701500Y3661109D1*
X621484Y3660807D1*
X609429D1*
Y3686979D1*
X596379Y3699957D1*
X596500Y3537828D1*
X601685Y3530245D1*
X605428Y3515217D1*
X605483Y3165185D2*
X650618D1*
Y3072815D1*
X616790D1*
X636249Y3053413D1*
X701226Y3053177D1*
X701484Y3184823D1*
X609429D1*
Y3277193D1*
X701538D1*
X701500Y3311109D1*
X621484Y3310807D1*
X609429D1*
Y3336979D1*
X596379Y3349957D1*
X596500Y3187828D1*
X601685Y3180245D1*
X605428Y3165217D1*
X605483Y2815185D2*
X650618D1*
Y2722815D1*
X616790D1*
X636249Y2703413D1*
X701226Y2703177D1*
X701484Y2834823D1*
X609429D1*
Y2927193D1*
X701538D1*
X701500Y2961109D1*
X621484Y2960807D1*
X609429D1*
Y2986979D1*
X596379Y2999957D1*
X596500Y2837828D1*
X601685Y2830245D1*
X605428Y2815217D1*
X605483Y2465185D2*
X650618D1*
Y2372815D1*
X616790D1*
X636249Y2353413D1*
X701226Y2353177D1*
X701484Y2484823D1*
X609429D1*
Y2577193D1*
X701538D1*
X701500Y2611109D1*
X621484Y2610807D1*
X609429D1*
Y2636979D1*
X596379Y2649957D1*
X596500Y2487828D1*
X601685Y2480245D1*
X605428Y2465217D1*
X605483Y2115185D2*
X650618D1*
Y2022815D1*
X616790D1*
X636249Y2003413D1*
X701226Y2003177D1*
X701484Y2134823D1*
X609429D1*
Y2227193D1*
X701538D1*
X701500Y2261109D1*
X621484Y2260807D1*
X609429D1*
Y2286979D1*
X596379Y2299957D1*
X596500Y2137828D1*
X601685Y2130245D1*
X605428Y2115217D1*
X605483Y1765185D2*
X650618D1*
Y1672815D1*
X616790D1*
X636249Y1653413D1*
X701226Y1653177D1*
X701484Y1784823D1*
X609429D1*
Y1877193D1*
X701538D1*
X701500Y1911109D1*
X621484Y1910807D1*
X609429D1*
Y1936979D1*
X596379Y1949957D1*
X596500Y1787828D1*
X601685Y1780245D1*
X605428Y1765217D1*
X605483Y1415185D2*
X650618D1*
Y1322815D1*
X616790D1*
X636249Y1303413D1*
X701226Y1303177D1*
X701484Y1434823D1*
X609429D1*
Y1527193D1*
X701538D1*
X701500Y1561109D1*
X621484Y1560807D1*
X609429D1*
Y1586979D1*
X596379Y1599957D1*
X596500Y1437828D1*
X601685Y1430245D1*
X605428Y1415217D1*
X605483Y1065185D2*
X650618D1*
Y972815D1*
X596478D1*
X596500Y922203D1*
X609314Y913159D1*
X609035Y928965D1*
X701457D1*
X701484Y1084823D1*
X609429D1*
Y1177193D1*
X701538D1*
X701500Y1211109D1*
X621484Y1210807D1*
X609429D1*
Y1236979D1*
X596379Y1249957D1*
X596500Y1087828D1*
X601685Y1080245D1*
X605428Y1065217D1*
X666070Y9703177D2*
X701226D1*
X701500Y9836500D1*
X701465Y9859035D1*
X635449D1*
X635461Y9835144D1*
X650618Y9835185D1*
Y9742815D1*
X626009D1*
X665762Y9703350D1*
X602465Y9465136D2*
D16*
Y9419000D1*
X650570D1*
X602465Y9115136D2*
Y9069000D1*
X650570D1*
X602465Y8765136D2*
Y8719000D1*
X650570D1*
X602465Y8415136D2*
Y8369000D1*
X650570D1*
X602465Y8065136D2*
Y8019000D1*
X650570D1*
X602465Y7715136D2*
Y7669000D1*
X650570D1*
X602465Y7365136D2*
Y7319000D1*
X650570D1*
X602465Y7015136D2*
Y6969000D1*
X650570D1*
X602465Y6665136D2*
Y6619000D1*
X650570D1*
X602465Y6315136D2*
Y6269000D1*
X650570D1*
X602465Y5965136D2*
Y5919000D1*
X650570D1*
X602465Y5615136D2*
Y5569000D1*
X650570D1*
X602465Y5265136D2*
Y5219000D1*
X650570D1*
X602465Y4915136D2*
Y4869000D1*
X650570D1*
X602465Y4565136D2*
Y4519000D1*
X650570D1*
X602465Y4215136D2*
Y4169000D1*
X650570D1*
X602465Y3865136D2*
Y3819000D1*
X650570D1*
X602465Y3515136D2*
Y3469000D1*
X650570D1*
X602465Y3165136D2*
Y3119000D1*
X650570D1*
X602465Y2815136D2*
Y2769000D1*
X650570D1*
X602465Y2465136D2*
Y2419000D1*
X650570D1*
X602465Y2115136D2*
Y2069000D1*
X650570D1*
X602465Y1765136D2*
Y1719000D1*
X650570D1*
X602465Y1415136D2*
Y1369000D1*
X650570D1*
X602465Y1065136D2*
Y972864D1*
Y1019000D2*
X650570D1*
X665457Y9577144D2*
Y9484871D1*
X609478Y9531008D2*
X665457D1*
Y9227144D2*
Y9134871D1*
X609478Y9181008D2*
X665457D1*
Y8877144D2*
Y8784871D1*
X609478Y8831008D2*
X665457D1*
Y8527144D2*
Y8434871D1*
X609478Y8481008D2*
X665457D1*
Y8177144D2*
Y8084871D1*
X609478Y8131008D2*
X665457D1*
Y7827144D2*
Y7734871D1*
X609478Y7781008D2*
X665457D1*
Y7477144D2*
Y7384871D1*
X609478Y7431008D2*
X665457D1*
Y7127144D2*
Y7034871D1*
X609478Y7081008D2*
X665457D1*
Y6777144D2*
Y6684871D1*
X609478Y6731008D2*
X665457D1*
Y6427144D2*
Y6334871D1*
X609478Y6381008D2*
X665457D1*
Y6077144D2*
Y5984871D1*
X609478Y6031008D2*
X665457D1*
Y5727144D2*
Y5634871D1*
X609478Y5681008D2*
X665457D1*
Y5377144D2*
Y5284871D1*
X609478Y5331008D2*
X665457D1*
Y5027144D2*
Y4934871D1*
X609478Y4981008D2*
X665457D1*
Y4677144D2*
Y4584871D1*
X609478Y4631008D2*
X665457D1*
Y4327144D2*
Y4234871D1*
X609478Y4281008D2*
X665457D1*
Y3977144D2*
Y3884871D1*
X609478Y3931008D2*
X665457D1*
Y3627144D2*
Y3534871D1*
X609478Y3581008D2*
X665457D1*
Y3277144D2*
Y3184871D1*
X609478Y3231008D2*
X665457D1*
Y2927144D2*
Y2834871D1*
X609478Y2881008D2*
X665457D1*
Y2577144D2*
Y2484871D1*
X609478Y2531008D2*
X665457D1*
Y2227144D2*
Y2134871D1*
X609478Y2181008D2*
X665457D1*
Y1877144D2*
Y1784871D1*
X609478Y1831008D2*
X665457D1*
Y1527144D2*
Y1434871D1*
X609478Y1481008D2*
X665457D1*
Y1177144D2*
Y1084871D1*
X609478Y1131008D2*
X665457D1*
X669000Y9919000D2*
Y9859084D1*
Y928916D2*
Y869000D1*
X514196Y9876894D2*
D15*
X523535D1*
X439000Y9852025D2*
X538883D1*
X439000Y9827156D2*
X484976D1*
X439000Y9802287D2*
X484976D1*
X439000Y9777419D2*
X484976D1*
X439000Y9752550D2*
X484976D1*
X439000Y9727681D2*
X538883D1*
X530992Y9702812D2*
X539130D1*
X530992Y9677944D2*
X539130D1*
X530992Y9653075D2*
X539130D1*
X530992Y9628206D2*
X539130D1*
X439000Y9603337D2*
X538883D1*
X439000Y9578469D2*
X538883D1*
X530992Y9553600D2*
X539130D1*
X439000Y9478993D2*
X504899D1*
X439000Y9454125D2*
X484976D1*
X439000Y9429256D2*
X484976D1*
X439000Y9404387D2*
X484976D1*
X439000Y9379518D2*
X484976D1*
X439000Y9354650D2*
X535757D1*
X530992Y9329781D2*
X539130D1*
X530992Y9304912D2*
X539130D1*
X530992Y9280043D2*
X539130D1*
X439000Y9255175D2*
X538883D1*
X439000Y9230306D2*
X538883D1*
X530992Y9205437D2*
X539130D1*
X439000Y9130831D2*
X502945D1*
X439000Y9105962D2*
X484976D1*
X439000Y9081093D2*
X484976D1*
X439000Y9056224D2*
X484976D1*
X439000Y9031356D2*
X484976D1*
X439000Y9006487D2*
X534585D1*
X530992Y8981618D2*
X539130D1*
X530992Y8956749D2*
X539130D1*
X530992Y8931881D2*
X539130D1*
X439000Y8907012D2*
X538883D1*
X439000Y8882143D2*
X538883D1*
X530992Y8857274D2*
X539130D1*
X439000Y8782668D2*
X500992D1*
X439000Y8757799D2*
X484976D1*
X439000Y8732930D2*
X484976D1*
X439000Y8708062D2*
X484976D1*
X439000Y8683193D2*
X484976D1*
X439000Y8658324D2*
X533415D1*
X530992Y8633455D2*
X539130D1*
X530992Y8608587D2*
X539130D1*
X530992Y8583718D2*
X539130D1*
X439000Y8558849D2*
X538883D1*
X439000Y8533980D2*
X538883D1*
X530992Y8509112D2*
X539130D1*
X439000Y8434505D2*
X499429D1*
X439000Y8409636D2*
X484976D1*
X439000Y8384768D2*
X484976D1*
X439000Y8359899D2*
X484976D1*
X439000Y8335030D2*
X484976D1*
X439000Y8310161D2*
X532633D1*
X530992Y8285293D2*
X539130D1*
X530992Y8260424D2*
X539130D1*
X530992Y8235555D2*
X539130D1*
X439000Y8210686D2*
X538883D1*
X439000Y8185818D2*
X538883D1*
X530992Y8160949D2*
X539130D1*
X439000Y8061474D2*
X484976D1*
X439000Y8036605D2*
X484976D1*
X439000Y8011736D2*
X484976D1*
X439000Y7986867D2*
X484976D1*
X439000Y7961999D2*
X531852D1*
X530992Y7937130D2*
X539130D1*
X530992Y7912261D2*
X539130D1*
X530992Y7887392D2*
X539130D1*
X530992Y7862524D2*
X539130D1*
X439000Y7837655D2*
X538883D1*
X530992Y7812786D2*
X539130D1*
X439000Y7713311D2*
X484976D1*
X439000Y7688442D2*
X484976D1*
X439000Y7663573D2*
X484976D1*
X439000Y7638705D2*
X484976D1*
X439000Y7613836D2*
X531461D1*
X530992Y7588967D2*
X539130D1*
X530992Y7564098D2*
X539130D1*
X530992Y7539230D2*
X539130D1*
X530992Y7514361D2*
X539130D1*
X439000Y7489492D2*
X538883D1*
X530992Y7464623D2*
X539130D1*
X439000Y7365148D2*
X484976D1*
X439000Y7340280D2*
X484976D1*
X439000Y7315411D2*
X484976D1*
X439000Y7290542D2*
X484976D1*
X439000Y7265673D2*
X531071D1*
X530992Y7240804D2*
X539130D1*
X530992Y7215936D2*
X539130D1*
X530992Y7191067D2*
X539130D1*
X530992Y7166198D2*
X539130D1*
X439000Y7141329D2*
X538883D1*
X530992Y7116461D2*
X539130D1*
X439000Y7016986D2*
X517008D1*
X439000Y6992117D2*
X484976D1*
X439000Y6967248D2*
X484976D1*
X439000Y6942379D2*
X484976D1*
X439000Y6917510D2*
X530680D1*
X530992Y6892642D2*
X539130D1*
X530992Y6867773D2*
X539130D1*
X530992Y6842904D2*
X539130D1*
X530992Y6818035D2*
X539130D1*
X439000Y6793167D2*
X538883D1*
X530992Y6768298D2*
X539130D1*
X439000Y6668823D2*
X515055D1*
X439000Y6643954D2*
X484976D1*
X439000Y6619085D2*
X484976D1*
X439000Y6594217D2*
X484976D1*
X439000Y6569348D2*
X530289D1*
X530992Y6544479D2*
X539130D1*
X530992Y6519610D2*
X539130D1*
X530992Y6494741D2*
X539130D1*
X530992Y6469873D2*
X539130D1*
X439000Y6445004D2*
X538883D1*
X530992Y6420135D2*
X539130D1*
X439000Y6320660D2*
X513101D1*
X439000Y6295791D2*
X484976D1*
X439000Y6270923D2*
X484976D1*
X439000Y6246054D2*
X484976D1*
X439000Y6221185D2*
X530289D1*
X530992Y6196316D2*
X539130D1*
X530992Y6171448D2*
X539130D1*
X530992Y6146579D2*
X539130D1*
X530992Y6121710D2*
X539130D1*
X439000Y6096841D2*
X538883D1*
X530992Y6071972D2*
X539130D1*
X439000Y5972497D2*
X511539D1*
X439000Y5947629D2*
X484976D1*
X439000Y5922760D2*
X484976D1*
X439000Y5897891D2*
X484976D1*
X439000Y5873022D2*
X484976D1*
X530992Y5848154D2*
X539130D1*
X530992Y5823285D2*
X539130D1*
X530992Y5798416D2*
X539130D1*
X530992Y5773547D2*
X539130D1*
X439000Y5748678D2*
X538883D1*
X530992Y5723810D2*
X539130D1*
X439000Y5624335D2*
X509585D1*
X439000Y5599466D2*
X484976D1*
X439000Y5574597D2*
X484976D1*
X439000Y5549728D2*
X484976D1*
X439000Y5524860D2*
X484976D1*
X530992Y5499991D2*
X539130D1*
X530992Y5475122D2*
X539130D1*
X530992Y5450253D2*
X539130D1*
X530992Y5425385D2*
X539130D1*
X439000Y5400516D2*
X538883D1*
X530992Y5375647D2*
X539130D1*
X531383Y5350778D2*
X539270D1*
X439000Y5276172D2*
X507633D1*
X439000Y5251303D2*
X484976D1*
X439000Y5226434D2*
X484976D1*
X439000Y5201566D2*
X484976D1*
X439000Y5176697D2*
X484976D1*
X530992Y5126959D2*
X539130D1*
X530992Y5102091D2*
X539130D1*
X530992Y5077222D2*
X539130D1*
X439000Y5052353D2*
X538883D1*
X439000Y5027484D2*
X538883D1*
X530992Y5002615D2*
X539130D1*
X439000Y4928009D2*
X505680D1*
X439000Y4903140D2*
X484976D1*
X439000Y4878272D2*
X484976D1*
X439000Y4853403D2*
X484976D1*
X439000Y4828534D2*
X484976D1*
X439000Y4803665D2*
X536148D1*
X530992Y4778797D2*
X539130D1*
X530992Y4753928D2*
X539130D1*
X530992Y4729059D2*
X539130D1*
X439000Y4704190D2*
X538883D1*
X439000Y4679322D2*
X538883D1*
X530992Y4654453D2*
X539130D1*
X439000Y4579846D2*
X504117D1*
X439000Y4554978D2*
X484976D1*
X439000Y4530109D2*
X484976D1*
X439000Y4505240D2*
X484976D1*
X439000Y4480371D2*
X484976D1*
X439000Y4455503D2*
X534976D1*
X530992Y4430634D2*
X539130D1*
X530992Y4405765D2*
X539130D1*
X530992Y4380896D2*
X539130D1*
X439000Y4356028D2*
X538883D1*
X439000Y4331159D2*
X538883D1*
X530992Y4306290D2*
X539130D1*
X439000Y4231684D2*
X502164D1*
X439000Y4206815D2*
X484976D1*
X439000Y4181946D2*
X484976D1*
X439000Y4157077D2*
X484976D1*
X439000Y4132209D2*
X484976D1*
X439000Y4107340D2*
X534196D1*
X530992Y4082471D2*
X539130D1*
X530992Y4057602D2*
X539130D1*
X530992Y4032734D2*
X539130D1*
X439000Y4007865D2*
X538883D1*
X439000Y3982996D2*
X538883D1*
X530992Y3958127D2*
X539130D1*
X439000Y3883521D2*
X500211D1*
X439000Y3858652D2*
X484976D1*
X439000Y3833783D2*
X484976D1*
X439000Y3808915D2*
X484976D1*
X439000Y3784046D2*
X484976D1*
X439000Y3759177D2*
X533024D1*
X530992Y3734308D2*
X539130D1*
X530992Y3709440D2*
X539130D1*
X530992Y3684571D2*
X539130D1*
X439000Y3659702D2*
X538883D1*
X439000Y3634833D2*
X538883D1*
X530992Y3609965D2*
X539130D1*
X439000Y3510490D2*
X484976D1*
X439000Y3485621D2*
X484976D1*
X439000Y3460752D2*
X484976D1*
X439000Y3435883D2*
X484976D1*
X439000Y3411014D2*
X532243D1*
X530992Y3386146D2*
X539130D1*
X530992Y3361277D2*
X539130D1*
X530992Y3336408D2*
X539130D1*
X530992Y3311539D2*
X539130D1*
X439000Y3286671D2*
X538883D1*
X530992Y3261802D2*
X539130D1*
X439000Y3162327D2*
X484976D1*
X439000Y3137458D2*
X484976D1*
X439000Y3112589D2*
X484976D1*
X439000Y3087720D2*
X484976D1*
X439000Y3062852D2*
X531852D1*
X530992Y3037983D2*
X539130D1*
X530992Y3013114D2*
X539130D1*
X530992Y2988245D2*
X539130D1*
X530992Y2963377D2*
X539130D1*
X439000Y2938508D2*
X538883D1*
X530992Y2913639D2*
X539130D1*
X439000Y2814164D2*
X484976D1*
X439000Y2789295D2*
X484976D1*
X439000Y2764427D2*
X484976D1*
X439000Y2739558D2*
X484976D1*
X439000Y2714689D2*
X531071D1*
X530992Y2689820D2*
X539130D1*
X530992Y2664951D2*
X539130D1*
X530992Y2640083D2*
X539130D1*
X530992Y2615214D2*
X539130D1*
X439000Y2590345D2*
X538883D1*
X530992Y2565476D2*
X539130D1*
X439000Y2466001D2*
X517789D1*
X439000Y2441133D2*
X484976D1*
X439000Y2416264D2*
X484976D1*
X439000Y2391395D2*
X484976D1*
X439000Y2366526D2*
X530680D1*
X530992Y2341657D2*
X539130D1*
X530992Y2316789D2*
X539130D1*
X530992Y2291920D2*
X539130D1*
X530992Y2267051D2*
X539130D1*
X439000Y2242182D2*
X538883D1*
X530992Y2217314D2*
X539130D1*
X439000Y2117839D2*
X515836D1*
X439000Y2092970D2*
X484976D1*
X439000Y2068101D2*
X484976D1*
X439000Y2043232D2*
X484976D1*
X439000Y2018364D2*
X530289D1*
X530992Y1993495D2*
X539130D1*
X530992Y1968626D2*
X539130D1*
X530992Y1943757D2*
X539130D1*
X530992Y1918888D2*
X539130D1*
X439000Y1894020D2*
X538883D1*
X530992Y1869151D2*
X539130D1*
X439000Y1769676D2*
X514273D1*
X439000Y1744807D2*
X484976D1*
X439000Y1719938D2*
X484976D1*
X439000Y1695070D2*
X484976D1*
X439000Y1670201D2*
X530289D1*
X530992Y1645332D2*
X539130D1*
X530992Y1620463D2*
X539130D1*
X530992Y1595594D2*
X539130D1*
X530992Y1570726D2*
X539130D1*
X439000Y1545857D2*
X538883D1*
X530992Y1520988D2*
X539130D1*
X439000Y1421513D2*
X512320D1*
X439000Y1396644D2*
X484976D1*
X439000Y1371776D2*
X484976D1*
X439000Y1346907D2*
X484976D1*
X439000Y1322038D2*
X529899D1*
X530992Y1297169D2*
X539130D1*
X530992Y1272301D2*
X539130D1*
X530992Y1247432D2*
X539130D1*
X530992Y1222563D2*
X539130D1*
X439000Y1197694D2*
X538883D1*
X530992Y1172825D2*
X539130D1*
X439000Y1073350D2*
X510367D1*
X439000Y1048482D2*
X484976D1*
X439000Y1023613D2*
X484976D1*
X439000Y998744D2*
X484976D1*
X439000Y973875D2*
X484976D1*
X439000Y949007D2*
X538883D1*
X495055Y924138D2*
X538883D1*
X489882Y9465185D2*
X521210D1*
X501751Y9484587D1*
X436774Y9484823D1*
X436516Y9353177D1*
X528571D1*
Y9260807D1*
X436462D1*
X436500Y9226891D1*
X516516Y9227193D1*
X528571D1*
Y9201021D1*
X541621Y9188043D1*
X541500Y9350172D1*
X535408Y9359723D1*
X532694Y9372992D1*
X487382Y9372815D1*
Y9465185D1*
X489882D1*
Y9115185D2*
X521210D1*
X501751Y9134587D1*
X436774Y9134823D1*
X436516Y9003177D1*
X528571D1*
Y8910807D1*
X436462D1*
X436500Y8876891D1*
X516516Y8877193D1*
X528571D1*
Y8851021D1*
X541621Y8838043D1*
X541500Y9000172D1*
X535408Y9009723D1*
X532694Y9022992D1*
X487382Y9022815D1*
Y9115185D1*
X489882D1*
Y8765185D2*
X521210D1*
X501751Y8784587D1*
X436774Y8784823D1*
X436516Y8653177D1*
X528571D1*
Y8560807D1*
X436462D1*
X436500Y8526891D1*
X516516Y8527193D1*
X528571D1*
Y8501021D1*
X541621Y8488043D1*
X541500Y8650172D1*
X535408Y8659723D1*
X532694Y8672992D1*
X487382Y8672815D1*
Y8765185D1*
X489882D1*
Y8415185D2*
X521210D1*
X501751Y8434587D1*
X436774Y8434823D1*
X436516Y8303177D1*
X528571D1*
Y8210807D1*
X436462D1*
X436500Y8176891D1*
X516516Y8177193D1*
X528571D1*
Y8151021D1*
X541621Y8138043D1*
X541500Y8300172D1*
X535408Y8309723D1*
X532694Y8322992D1*
X487382Y8322815D1*
Y8415185D1*
X489882D1*
Y8065185D2*
X521210D1*
X501751Y8084587D1*
X436774Y8084823D1*
X436516Y7953177D1*
X528571D1*
Y7860807D1*
X436462D1*
X436500Y7826891D1*
X516516Y7827193D1*
X528571D1*
Y7801021D1*
X541621Y7788043D1*
X541500Y7950172D1*
X535408Y7959723D1*
X532694Y7972992D1*
X487382Y7972815D1*
Y8065185D1*
X489882D1*
Y7715185D2*
X521210D1*
X501751Y7734587D1*
X436774Y7734823D1*
X436516Y7603177D1*
X528571D1*
Y7510807D1*
X436462D1*
X436500Y7476891D1*
X516516Y7477193D1*
X528571D1*
Y7451021D1*
X541621Y7438043D1*
X541500Y7600172D1*
X535408Y7609723D1*
X532694Y7622992D1*
X487382Y7622815D1*
Y7715185D1*
X489882D1*
Y7365185D2*
X521210D1*
X501751Y7384587D1*
X436774Y7384823D1*
X436516Y7253177D1*
X528571D1*
Y7160807D1*
X436462D1*
X436500Y7126891D1*
X516516Y7127193D1*
X528571D1*
Y7101021D1*
X541621Y7088043D1*
X541500Y7250172D1*
X535408Y7259723D1*
X532694Y7272992D1*
X487382Y7272815D1*
Y7365185D1*
X489882D1*
Y7015185D2*
X521210D1*
X501751Y7034587D1*
X436774Y7034823D1*
X436516Y6903177D1*
X528571D1*
Y6810807D1*
X436462D1*
X436500Y6776891D1*
X516516Y6777193D1*
X528571D1*
Y6751021D1*
X541621Y6738043D1*
X541500Y6900172D1*
X535408Y6909723D1*
X532694Y6922992D1*
X487382Y6922815D1*
Y7015185D1*
X489882D1*
Y6665185D2*
X521210D1*
X501751Y6684587D1*
X436774Y6684823D1*
X436516Y6553177D1*
X528571D1*
Y6460807D1*
X436462D1*
X436500Y6426891D1*
X516516Y6427193D1*
X528571D1*
Y6401021D1*
X541621Y6388043D1*
X541500Y6550172D1*
X535408Y6559723D1*
X532694Y6572992D1*
X487382Y6572815D1*
Y6665185D1*
X489882D1*
Y6315185D2*
X521210D1*
X501751Y6334587D1*
X436774Y6334823D1*
X436516Y6203177D1*
X528571D1*
Y6110807D1*
X436462D1*
X436500Y6076891D1*
X516516Y6077193D1*
X528571D1*
Y6051021D1*
X541621Y6038043D1*
X541500Y6200172D1*
X535408Y6209723D1*
X532694Y6222992D1*
X487382Y6222815D1*
Y6315185D1*
X489882D1*
Y5965185D2*
X521210D1*
X501751Y5984587D1*
X436774Y5984823D1*
X436516Y5853177D1*
X528571D1*
Y5760807D1*
X436462D1*
X436500Y5726891D1*
X516516Y5727193D1*
X528571D1*
Y5701021D1*
X541621Y5688043D1*
X541500Y5850172D1*
X535408Y5859723D1*
X532694Y5872992D1*
X487382Y5872815D1*
Y5965185D1*
X489882D1*
Y5615185D2*
X521210D1*
X501751Y5634587D1*
X436774Y5634823D1*
X436516Y5503177D1*
X528571D1*
Y5410807D1*
X436462D1*
X436500Y5376891D1*
X516516Y5377193D1*
X528571D1*
Y5351021D1*
X541621Y5338043D1*
X541500Y5500172D1*
X535408Y5509723D1*
X532694Y5522992D1*
X487382Y5522815D1*
Y5615185D1*
X489882D1*
Y5265185D2*
X521210D1*
X501751Y5284587D1*
X436774Y5284823D1*
X436516Y5153177D1*
X528571D1*
Y5060807D1*
X436462D1*
X436500Y5026891D1*
X516516Y5027193D1*
X528571D1*
Y5001021D1*
X541621Y4988043D1*
X541500Y5150172D1*
X535408Y5159723D1*
X532694Y5172992D1*
X487382Y5172815D1*
Y5265185D1*
X489882D1*
Y4915185D2*
X521210D1*
X501751Y4934587D1*
X436774Y4934823D1*
X436516Y4803177D1*
X528571D1*
Y4710807D1*
X436462D1*
X436500Y4676891D1*
X516516Y4677193D1*
X528571D1*
Y4651021D1*
X541621Y4638043D1*
X541500Y4800172D1*
X535408Y4809723D1*
X532694Y4822992D1*
X487382Y4822815D1*
Y4915185D1*
X489882D1*
Y4565185D2*
X521210D1*
X501751Y4584587D1*
X436774Y4584823D1*
X436516Y4453177D1*
X528571D1*
Y4360807D1*
X436462D1*
X436500Y4326891D1*
X516516Y4327193D1*
X528571D1*
Y4301021D1*
X541621Y4288043D1*
X541500Y4450172D1*
X535408Y4459723D1*
X532694Y4472992D1*
X487382Y4472815D1*
Y4565185D1*
X489882D1*
Y4215185D2*
X521210D1*
X501751Y4234587D1*
X436774Y4234823D1*
X436516Y4103177D1*
X528571D1*
Y4010807D1*
X436462D1*
X436500Y3976891D1*
X516516Y3977193D1*
X528571D1*
Y3951021D1*
X541621Y3938043D1*
X541500Y4100172D1*
X535408Y4109723D1*
X532694Y4122992D1*
X487382Y4122815D1*
Y4215185D1*
X489882D1*
Y3865185D2*
X521210D1*
X501751Y3884587D1*
X436774Y3884823D1*
X436516Y3753177D1*
X528571D1*
Y3660807D1*
X436462D1*
X436500Y3626891D1*
X516516Y3627193D1*
X528571D1*
Y3601021D1*
X541621Y3588043D1*
X541500Y3750172D1*
X535408Y3759723D1*
X532694Y3772992D1*
X487382Y3772815D1*
Y3865185D1*
X489882D1*
Y3515185D2*
X521210D1*
X501751Y3534587D1*
X436774Y3534823D1*
X436516Y3403177D1*
X528571D1*
Y3310807D1*
X436462D1*
X436500Y3276891D1*
X516516Y3277193D1*
X528571D1*
Y3251021D1*
X541621Y3238043D1*
X541500Y3400172D1*
X535408Y3409723D1*
X532694Y3422992D1*
X487382Y3422815D1*
Y3515185D1*
X489882D1*
Y3165185D2*
X521210D1*
X501751Y3184587D1*
X436774Y3184823D1*
X436516Y3053177D1*
X528571D1*
Y2960807D1*
X436462D1*
X436500Y2926891D1*
X516516Y2927193D1*
X528571D1*
Y2901021D1*
X541621Y2888043D1*
X541500Y3050172D1*
X535408Y3059723D1*
X532694Y3072992D1*
X487382Y3072815D1*
Y3165185D1*
X489882D1*
Y2815185D2*
X521210D1*
X501751Y2834587D1*
X436774Y2834823D1*
X436516Y2703177D1*
X528571D1*
Y2610807D1*
X436462D1*
X436500Y2576891D1*
X516516Y2577193D1*
X528571D1*
Y2551021D1*
X541621Y2538043D1*
X541500Y2700172D1*
X535408Y2709723D1*
X532694Y2722992D1*
X487382Y2722815D1*
Y2815185D1*
X489882D1*
Y2465185D2*
X521210D1*
X501751Y2484587D1*
X436774Y2484823D1*
X436516Y2353177D1*
X528571D1*
Y2260807D1*
X436462D1*
X436500Y2226891D1*
X516516Y2227193D1*
X528571D1*
Y2201021D1*
X541621Y2188043D1*
X541500Y2350172D1*
X535408Y2359723D1*
X532694Y2372992D1*
X487382Y2372815D1*
Y2465185D1*
X489882D1*
Y2115185D2*
X521210D1*
X501751Y2134587D1*
X436774Y2134823D1*
X436516Y2003177D1*
X528571D1*
Y1910807D1*
X436462D1*
X436500Y1876891D1*
X516516Y1877193D1*
X528571D1*
Y1851021D1*
X541621Y1838043D1*
X541500Y2000172D1*
X535408Y2009723D1*
X532694Y2022992D1*
X487382Y2022815D1*
Y2115185D1*
X489882D1*
Y1765185D2*
X521210D1*
X501751Y1784587D1*
X436774Y1784823D1*
X436516Y1653177D1*
X528571D1*
Y1560807D1*
X436462D1*
X436500Y1526891D1*
X516516Y1527193D1*
X528571D1*
Y1501021D1*
X541621Y1488043D1*
X541500Y1650172D1*
X535408Y1659723D1*
X532694Y1672992D1*
X487382Y1672815D1*
Y1765185D1*
X489882D1*
Y1415185D2*
X521210D1*
X501751Y1434587D1*
X436774Y1434823D1*
X436516Y1303177D1*
X528571D1*
Y1210807D1*
X436462D1*
X436500Y1176891D1*
X516516Y1177193D1*
X528571D1*
Y1151021D1*
X541621Y1138043D1*
X541500Y1300172D1*
X535408Y1309723D1*
X532694Y1322992D1*
X487382Y1322815D1*
Y1415185D1*
X489882D1*
Y1065185D2*
X521210D1*
X501751Y1084587D1*
X436774Y1084823D1*
X436500Y951500D1*
Y919079D1*
X444648Y923797D1*
X456516Y927651D1*
X468924Y928965D1*
X481335Y927682D1*
X493213Y923860D1*
X504041Y917661D1*
X513353Y909356D1*
X519043Y902017D1*
X528051Y912806D1*
X541178Y921823D1*
X541500Y972828D1*
X487382Y972815D1*
Y1065185D1*
X489882D1*
X436437Y9703177D2*
X528571D1*
Y9610807D1*
X436462D1*
X436500Y9576891D1*
X516516Y9577193D1*
X528571D1*
Y9551021D1*
X541621Y9538043D1*
X541500Y9734547D1*
X533021Y9742765D1*
X487382Y9742815D1*
Y9835185D1*
X541678D1*
X541500Y9865797D1*
X529360Y9874007D1*
X519115Y9886201D1*
X512857Y9878106D1*
X503445Y9869916D1*
X492541Y9863849D1*
X480618Y9860172D1*
X468192Y9859041D1*
X455801Y9860507D1*
X443982Y9864504D1*
X436528Y9868604D1*
X436500Y9703453D1*
X535535Y9419000D2*
D16*
Y9372864D1*
X487430Y9419000D2*
X535535D1*
Y9069000D2*
Y9022864D1*
X487430Y9069000D2*
X535535D1*
Y8719000D2*
Y8672864D1*
X487430Y8719000D2*
X535535D1*
Y8369000D2*
Y8322864D1*
X487430Y8369000D2*
X535535D1*
Y8019000D2*
Y7972864D1*
X487430Y8019000D2*
X535535D1*
Y7669000D2*
Y7622864D1*
X487430Y7669000D2*
X535535D1*
Y7319000D2*
Y7272864D1*
X487430Y7319000D2*
X535535D1*
Y6969000D2*
Y6922864D1*
X487430Y6969000D2*
X535535D1*
Y6619000D2*
Y6572864D1*
X487430Y6619000D2*
X535535D1*
Y6269000D2*
Y6222864D1*
X487430Y6269000D2*
X535535D1*
Y5919000D2*
Y5872864D1*
X487430Y5919000D2*
X535535D1*
Y5569000D2*
Y5522864D1*
X487430Y5569000D2*
X535535D1*
Y5219000D2*
Y5172864D1*
X487430Y5219000D2*
X535535D1*
Y4869000D2*
Y4822864D1*
X487430Y4869000D2*
X535535D1*
Y4519000D2*
Y4472864D1*
X487430Y4519000D2*
X535535D1*
Y4169000D2*
Y4122864D1*
X487430Y4169000D2*
X535535D1*
Y3819000D2*
Y3772864D1*
X487430Y3819000D2*
X535535D1*
Y3469000D2*
Y3422864D1*
X487430Y3469000D2*
X535535D1*
Y3119000D2*
Y3072864D1*
X487430Y3119000D2*
X535535D1*
Y2769000D2*
Y2722864D1*
X487430Y2769000D2*
X535535D1*
Y2419000D2*
Y2372864D1*
X487430Y2419000D2*
X535535D1*
Y2069000D2*
Y2022864D1*
X487430Y2069000D2*
X535535D1*
Y1719000D2*
Y1672864D1*
X487430Y1719000D2*
X535535D1*
Y1369000D2*
Y1322864D1*
X487430Y1369000D2*
X535535D1*
Y1019000D2*
Y972864D1*
X487430Y1019000D2*
X535535D1*
X472543Y9703129D2*
Y9610856D1*
Y9656992D2*
X528522D1*
X472543Y9353129D2*
Y9260856D1*
Y9306992D2*
X528522D1*
X472543Y9003129D2*
Y8910856D1*
Y8956992D2*
X528522D1*
X472543Y8653129D2*
Y8560856D1*
Y8606992D2*
X528522D1*
X472543Y8303129D2*
Y8210856D1*
Y8256992D2*
X528522D1*
X472543Y7953129D2*
Y7860856D1*
Y7906992D2*
X528522D1*
X472543Y7603129D2*
Y7510856D1*
Y7556992D2*
X528522D1*
X472543Y7253129D2*
Y7160856D1*
Y7206992D2*
X528522D1*
X472543Y6903129D2*
Y6810856D1*
Y6856992D2*
X528522D1*
X472543Y6553129D2*
Y6460856D1*
Y6506992D2*
X528522D1*
X472543Y6203129D2*
Y6110856D1*
Y6156992D2*
X528522D1*
X472543Y5853129D2*
Y5760856D1*
Y5806992D2*
X528522D1*
X472543Y5503129D2*
Y5410856D1*
Y5456992D2*
X528522D1*
X472543Y5153129D2*
Y5060856D1*
Y5106992D2*
X528522D1*
X472543Y4803129D2*
Y4710856D1*
Y4756992D2*
X528522D1*
X472543Y4453129D2*
Y4360856D1*
Y4406992D2*
X528522D1*
X472543Y4103129D2*
Y4010856D1*
Y4056992D2*
X528522D1*
X472543Y3753129D2*
Y3660856D1*
Y3706992D2*
X528522D1*
X472543Y3403129D2*
Y3310856D1*
Y3356992D2*
X528522D1*
X472543Y3053129D2*
Y2960856D1*
Y3006992D2*
X528522D1*
X472543Y2703129D2*
Y2610856D1*
Y2656992D2*
X528522D1*
X472543Y2353129D2*
Y2260856D1*
Y2306992D2*
X528522D1*
X472543Y2003129D2*
Y1910856D1*
Y1956992D2*
X528522D1*
X472543Y1653129D2*
Y1560856D1*
Y1606992D2*
X528522D1*
X472543Y1303129D2*
Y1210856D1*
Y1256992D2*
X528522D1*
X469000Y9919000D2*
Y9859084D1*
Y928916D2*
Y869000D1*
D20*
X535535Y9419000D3*
X602465D3*
X535535Y9069000D3*
X602465D3*
X535535Y8719000D3*
X602465D3*
X535535Y8369000D3*
X602465D3*
X535535Y8019000D3*
X602465D3*
X535535Y7669000D3*
X602465D3*
X535535Y7319000D3*
X602465D3*
X535535Y6969000D3*
X602465D3*
X535535Y6619000D3*
X602465D3*
X535535Y6269000D3*
X602465D3*
X535535Y5919000D3*
X602465D3*
X535535Y5569000D3*
X602465D3*
X535535Y5219000D3*
X602465D3*
X535535Y4869000D3*
X602465D3*
X535535Y4519000D3*
X602465D3*
X535535Y4169000D3*
X602465D3*
X535535Y3819000D3*
X602465D3*
X535535Y3469000D3*
X602465D3*
X535535Y3119000D3*
X602465D3*
X535535Y2769000D3*
X602465D3*
X535535Y2419000D3*
X602465D3*
X535535Y2069000D3*
X602465D3*
X535535Y1719000D3*
X602465D3*
X535535Y1369000D3*
X602465D3*
X535535Y1019000D3*
X602465D3*
D22*
X472543Y9656992D3*
Y9531008D3*
X665457D3*
Y9656992D3*
X472543Y9306992D3*
Y9181008D3*
X665457D3*
Y9306992D3*
X472543Y8956992D3*
Y8831008D3*
X665457D3*
Y8956992D3*
X472543Y8606992D3*
Y8481008D3*
X665457D3*
Y8606992D3*
X472543Y8256992D3*
Y8131008D3*
X665457D3*
Y8256992D3*
X472543Y7906992D3*
Y7781008D3*
X665457D3*
Y7906992D3*
X472543Y7556992D3*
Y7431008D3*
X665457D3*
Y7556992D3*
X472543Y7206992D3*
Y7081008D3*
X665457D3*
Y7206992D3*
X472543Y6856992D3*
Y6731008D3*
X665457D3*
Y6856992D3*
X472543Y6506992D3*
Y6381008D3*
X665457D3*
Y6506992D3*
X472543Y6156992D3*
Y6031008D3*
X665457D3*
Y6156992D3*
X472543Y5806992D3*
Y5681008D3*
X665457D3*
Y5806992D3*
X472543Y5456992D3*
Y5331008D3*
X665457D3*
Y5456992D3*
X472543Y5106992D3*
Y4981008D3*
X665457D3*
Y5106992D3*
X472543Y4756992D3*
Y4631008D3*
X665457D3*
Y4756992D3*
X472543Y4406992D3*
Y4281008D3*
X665457D3*
Y4406992D3*
X472543Y4056992D3*
Y3931008D3*
X665457D3*
Y4056992D3*
X472543Y3706992D3*
Y3581008D3*
X665457D3*
Y3706992D3*
X472543Y3356992D3*
Y3231008D3*
X665457D3*
Y3356992D3*
X472543Y3006992D3*
Y2881008D3*
X665457D3*
Y3006992D3*
X472543Y2656992D3*
Y2531008D3*
X665457D3*
Y2656992D3*
X472543Y2306992D3*
Y2181008D3*
X665457D3*
Y2306992D3*
X472543Y1956992D3*
Y1831008D3*
X665457D3*
Y1956992D3*
X472543Y1606992D3*
Y1481008D3*
X665457D3*
Y1606992D3*
X472543Y1256992D3*
Y1131008D3*
X665457D3*
Y1256992D3*
D23*
X669000Y9919000D3*
D24*
X569000D3*
X469000D3*
D23*
X669000Y869000D3*
D24*
X569000D3*
X469000D3*
D20*
X602465Y9789000D3*
X535535D3*
M02*
