G04 DipTrace Beta 2.9.0.1*
G04 TopDimension.gbr*
%MOIN*%
G04 #@! TF.FileFunction,Drawing,Top*
G04 #@! TF.Part,Single*
%ADD13C,0.0015*%
%ADD39C,0.006176*%
%FSLAX26Y26*%
G04*
G70*
G90*
G75*
G01*
G04 TopDimension*
%LPD*%
X569000Y9594000D2*
D13*
X918685D1*
X569000Y9244000D2*
X918685D1*
X899000Y9419000D2*
Y9554630D1*
G36*
Y9594000D2*
X906874Y9554630D1*
X891126D1*
X899000Y9594000D1*
G37*
Y9419000D2*
D13*
Y9283370D1*
G36*
Y9244000D2*
X891126Y9283370D1*
X906874D1*
X899000Y9244000D1*
G37*
X758370Y809155D2*
D13*
X1068685D1*
X758370Y9978845D2*
X1068685D1*
X1049000Y5394000D2*
Y848525D1*
G36*
Y809155D2*
X1041126Y848525D1*
X1056874D1*
X1049000Y809155D1*
G37*
Y5394000D2*
D13*
Y9939475D1*
G36*
Y9978845D2*
X1056874Y9939475D1*
X1041126D1*
X1049000Y9978845D1*
G37*
X569000Y10184000D2*
D13*
Y10323685D1*
X664000Y10184000D2*
Y10323685D1*
X569000Y10304000D2*
X664000D1*
X509945D2*
X529630D1*
G36*
X569000D2*
X529630Y10296126D1*
Y10311874D1*
X569000Y10304000D1*
G37*
X723055D2*
D13*
X703370D1*
G36*
X664000D2*
X703370Y10311874D1*
Y10296126D1*
X664000Y10304000D1*
G37*
X861900D2*
D13*
X664000D1*
X569000Y10184000D2*
Y10423685D1*
X633950Y10184000D2*
Y10423685D1*
X569000Y10404000D2*
X633950D1*
X509945D2*
X529630D1*
G36*
X569000D2*
X529630Y10396126D1*
Y10411874D1*
X569000Y10404000D1*
G37*
X693005D2*
D13*
X673320D1*
G36*
X633950D2*
X673320Y10411874D1*
Y10396126D1*
X633950Y10404000D1*
G37*
X831806D2*
D13*
X633950D1*
X569000Y604000D2*
Y354315D1*
X664000Y604000D2*
Y354315D1*
X569000Y374000D2*
X664000D1*
X509945D2*
X529630D1*
G36*
X569000D2*
X529630Y366126D1*
Y381874D1*
X569000Y374000D1*
G37*
X723055D2*
D13*
X703370D1*
G36*
X664000D2*
X703370Y381874D1*
Y366126D1*
X664000Y374000D1*
G37*
X861900D2*
D13*
X664000D1*
X569000Y604000D2*
Y424315D1*
X633950Y604000D2*
Y424315D1*
X569000Y444000D2*
X633950D1*
X509945D2*
X529630D1*
G36*
X569000D2*
X529630Y436126D1*
Y451874D1*
X569000Y444000D1*
G37*
X693005D2*
D13*
X673320D1*
G36*
X633950D2*
X673320Y451874D1*
Y436126D1*
X633950Y444000D1*
G37*
X831806D2*
D13*
X633950D1*
X369000Y5394000D2*
X229315D1*
X744000Y394000D2*
X229315D1*
X249000Y2894000D2*
Y5354630D1*
G36*
Y5394000D2*
X256874Y5354630D1*
X241126D1*
X249000Y5394000D1*
G37*
Y2894000D2*
D13*
Y433370D1*
G36*
Y394000D2*
X241126Y433370D1*
X256874D1*
X249000Y394000D1*
G37*
X369000D2*
D13*
X74315D1*
X394000Y10394000D2*
X74315D1*
X94000Y5394000D2*
Y433370D1*
G36*
Y394000D2*
X86126Y433370D1*
X101874D1*
X94000Y394000D1*
G37*
Y5394000D2*
D13*
Y10354630D1*
G36*
Y10394000D2*
X101874Y10354630D1*
X86126D1*
X94000Y10394000D1*
G37*
X759000Y394000D2*
D13*
X1123685D1*
X569000Y604000D2*
X1123685D1*
X1104000Y499000D2*
Y433370D1*
G36*
Y394000D2*
X1096126Y433370D1*
X1111874D1*
X1104000Y394000D1*
G37*
Y499000D2*
D13*
Y564630D1*
G36*
Y604000D2*
X1111874Y564630D1*
X1096126D1*
X1104000Y604000D1*
G37*
X739000Y10394000D2*
D13*
X943685D1*
X569000Y10184000D2*
X943685D1*
X924000Y10289000D2*
Y10354630D1*
G36*
Y10394000D2*
X931874Y10354630D1*
X916126D1*
X924000Y10394000D1*
G37*
Y10289000D2*
D13*
Y10223370D1*
G36*
Y10184000D2*
X916126Y10223370D1*
X931874D1*
X924000Y10184000D1*
G37*
X569000D2*
D13*
X1178685D1*
X569000Y9594000D2*
X1178685D1*
X1159000Y9889000D2*
Y10144630D1*
G36*
Y10184000D2*
X1166874Y10144630D1*
X1151126D1*
X1159000Y10184000D1*
G37*
Y9889000D2*
D13*
Y9633370D1*
G36*
Y9594000D2*
X1151126Y9633370D1*
X1166874D1*
X1159000Y9594000D1*
G37*
X394000Y10394000D2*
D13*
Y10768685D1*
X744000Y10389000D2*
Y10768685D1*
X569000Y10749000D2*
X433370D1*
G36*
X394000D2*
X433370Y10756874D1*
Y10741126D1*
X394000Y10749000D1*
G37*
X569000D2*
D13*
X704630D1*
G36*
X744000D2*
X704630Y10741126D1*
Y10756874D1*
X744000Y10749000D1*
G37*
X569000Y394000D2*
D13*
Y279315D1*
X744000Y399000D2*
Y279315D1*
X569000Y299000D2*
X744000D1*
X509945D2*
X529630D1*
G36*
X569000D2*
X529630Y291126D1*
Y306874D1*
X569000Y299000D1*
G37*
X803055D2*
D13*
X783370D1*
G36*
X744000D2*
X783370Y306874D1*
Y291126D1*
X744000Y299000D1*
G37*
X569000Y394000D2*
D13*
Y498685D1*
X394000Y299000D2*
Y498685D1*
Y479000D2*
X569000D1*
X334945D2*
X354630D1*
G36*
X394000D2*
X354630Y471126D1*
Y486874D1*
X394000Y479000D1*
G37*
X628055D2*
D13*
X608370D1*
G36*
X569000D2*
X608370Y486874D1*
Y471126D1*
X569000Y479000D1*
G37*
Y604000D2*
D13*
X1213685D1*
X569000Y1194000D2*
X1213685D1*
X1194000Y899000D2*
Y643370D1*
G36*
Y604000D2*
X1186126Y643370D1*
X1201874D1*
X1194000Y604000D1*
G37*
Y899000D2*
D13*
Y1154630D1*
G36*
Y1194000D2*
X1201874Y1154630D1*
X1186126D1*
X1194000Y1194000D1*
G37*
X569000Y10394000D2*
D13*
X149315D1*
X569000Y9919000D2*
X149315D1*
X169000Y10156500D2*
Y10354630D1*
G36*
Y10394000D2*
X176874Y10354630D1*
X161126D1*
X169000Y10394000D1*
G37*
Y10156500D2*
D13*
Y9958370D1*
G36*
Y9919000D2*
X161126Y9958370D1*
X176874D1*
X169000Y9919000D1*
G37*
X569000Y869000D2*
D13*
X294315D1*
X569000Y394000D2*
X294315D1*
X314000Y631500D2*
Y829630D1*
G36*
Y869000D2*
X321874Y829630D1*
X306126D1*
X314000Y869000D1*
G37*
Y631500D2*
D13*
Y433370D1*
G36*
Y394000D2*
X306126Y433370D1*
X321874D1*
X314000Y394000D1*
G37*
X951359Y9465059D2*
D39*
X949457Y9470807D1*
X943709Y9474653D1*
X934159Y9476555D1*
X928411D1*
X918860Y9474653D1*
X913112Y9470807D1*
X911211Y9465059D1*
Y9461256D1*
X913112Y9455508D1*
X918860Y9451705D1*
X928411Y9449760D1*
X934159D1*
X943709Y9451705D1*
X949457Y9455508D1*
X951359Y9461256D1*
Y9465059D1*
X943709Y9451705D2*
X918860Y9474653D1*
X915058Y9435507D2*
X913112Y9437409D1*
X911211Y9435507D1*
X913112Y9433562D1*
X915058Y9435507D1*
X951359Y9417364D2*
Y9396361D1*
X936060Y9407813D1*
Y9402065D1*
X934159Y9398262D1*
X932257Y9396361D1*
X926509Y9394416D1*
X922707D1*
X916959Y9396361D1*
X913112Y9400164D1*
X911211Y9405912D1*
Y9411660D1*
X913112Y9417364D1*
X915058Y9419265D1*
X918860Y9421210D1*
X951359Y9359116D2*
Y9378218D1*
X934159Y9380119D1*
X936060Y9378218D1*
X938005Y9372470D1*
Y9366766D1*
X936060Y9361018D1*
X932257Y9357171D1*
X926509Y9355270D1*
X922707D1*
X916959Y9357171D1*
X913112Y9361018D1*
X911211Y9366766D1*
Y9372470D1*
X913112Y9378218D1*
X915058Y9380119D1*
X918860Y9382064D1*
X1088005Y5417111D2*
X1082257Y5419056D1*
X1078411Y5422859D1*
X1076509Y5428607D1*
Y5430508D1*
X1078411Y5436256D1*
X1082257Y5440059D1*
X1088005Y5442004D1*
X1089907D1*
X1095655Y5440059D1*
X1099457Y5436256D1*
X1101359Y5430508D1*
Y5428607D1*
X1099457Y5422859D1*
X1095655Y5419056D1*
X1088005Y5417111D1*
X1078411D1*
X1068860Y5419056D1*
X1063112Y5422859D1*
X1061211Y5428607D1*
Y5432409D1*
X1063112Y5438157D1*
X1066959Y5440059D1*
X1065058Y5402858D2*
X1063112Y5404759D1*
X1061211Y5402858D1*
X1063112Y5400913D1*
X1065058Y5402858D1*
X1093709Y5388561D2*
X1095655Y5384714D1*
X1101359Y5378966D1*
X1061211D1*
Y5358966D2*
X1101359Y5339820D1*
Y5366615D1*
X724130Y10356359D2*
X718382Y10354457D1*
X714535Y10348709D1*
X712634Y10339159D1*
Y10333411D1*
X714535Y10323860D1*
X718382Y10318112D1*
X724130Y10316211D1*
X727932D1*
X733680Y10318112D1*
X737483Y10323860D1*
X739428Y10333411D1*
Y10339159D1*
X737483Y10348709D1*
X733680Y10354457D1*
X727932Y10356359D1*
X724130D1*
X737483Y10348709D2*
X714535Y10323860D1*
X753681Y10320058D2*
X751780Y10318112D1*
X753681Y10316211D1*
X755626Y10318112D1*
X753681Y10320058D1*
X779474Y10356359D2*
X773726Y10354457D1*
X769879Y10348709D1*
X767978Y10339159D1*
Y10333411D1*
X769879Y10323860D1*
X773726Y10318112D1*
X779474Y10316211D1*
X783276D1*
X789024Y10318112D1*
X792827Y10323860D1*
X794773Y10333411D1*
Y10339159D1*
X792827Y10348709D1*
X789024Y10354457D1*
X783276Y10356359D1*
X779474D1*
X792827Y10348709D2*
X769879Y10323860D1*
X832017Y10343005D2*
X830072Y10337257D1*
X826269Y10333411D1*
X820521Y10331509D1*
X818620D1*
X812872Y10333411D1*
X809069Y10337257D1*
X807124Y10343005D1*
Y10344907D1*
X809069Y10350655D1*
X812872Y10354457D1*
X818620Y10356359D1*
X820521D1*
X826269Y10354457D1*
X830072Y10350655D1*
X832017Y10343005D1*
Y10333411D1*
X830072Y10323860D1*
X826269Y10318112D1*
X820521Y10316211D1*
X816719D1*
X810971Y10318112D1*
X809069Y10321959D1*
X867317Y10356359D2*
X848215D1*
X846314Y10339159D1*
X848215Y10341060D1*
X853964Y10343005D1*
X859667D1*
X865415Y10341060D1*
X869262Y10337257D1*
X871163Y10331509D1*
Y10327707D1*
X869262Y10321959D1*
X865415Y10318112D1*
X859667Y10316211D1*
X853964D1*
X848215Y10318112D1*
X846314Y10320058D1*
X844369Y10323860D1*
X694080Y10456359D2*
X688332Y10454457D1*
X684485Y10448709D1*
X682584Y10439159D1*
Y10433411D1*
X684485Y10423860D1*
X688332Y10418112D1*
X694080Y10416211D1*
X697882D1*
X703630Y10418112D1*
X707433Y10423860D1*
X709378Y10433411D1*
Y10439159D1*
X707433Y10448709D1*
X703630Y10454457D1*
X697882Y10456359D1*
X694080D1*
X707433Y10448709D2*
X684485Y10423860D1*
X723631Y10420058D2*
X721730Y10418112D1*
X723631Y10416211D1*
X725577Y10418112D1*
X723631Y10420058D1*
X749424Y10456359D2*
X743676Y10454457D1*
X739829Y10448709D1*
X737928Y10439159D1*
Y10433411D1*
X739829Y10423860D1*
X743676Y10418112D1*
X749424Y10416211D1*
X753227D1*
X758975Y10418112D1*
X762777Y10423860D1*
X764723Y10433411D1*
Y10439159D1*
X762777Y10448709D1*
X758975Y10454457D1*
X753227Y10456359D1*
X749424D1*
X762777Y10448709D2*
X739829Y10423860D1*
X800022Y10450655D2*
X798121Y10454457D1*
X792373Y10456359D1*
X788570D1*
X782822Y10454457D1*
X778975Y10448709D1*
X777074Y10439159D1*
Y10429608D1*
X778975Y10421959D1*
X782822Y10418112D1*
X788570Y10416211D1*
X790471D1*
X796175Y10418112D1*
X800022Y10421959D1*
X801923Y10427707D1*
Y10429608D1*
X800022Y10435356D1*
X796175Y10439159D1*
X790471Y10441060D1*
X788570D1*
X782822Y10439159D1*
X778975Y10435356D1*
X777074Y10429608D1*
X837223Y10456359D2*
X818121D1*
X816220Y10439159D1*
X818121Y10441060D1*
X823869Y10443005D1*
X829573D1*
X835321Y10441060D1*
X839168Y10437257D1*
X841069Y10431509D1*
Y10427707D1*
X839168Y10421959D1*
X835321Y10418112D1*
X829573Y10416211D1*
X823869D1*
X818121Y10418112D1*
X816220Y10420058D1*
X814275Y10423860D1*
X724130Y426359D2*
X718382Y424457D1*
X714535Y418709D1*
X712634Y409159D1*
Y403411D1*
X714535Y393860D1*
X718382Y388112D1*
X724130Y386211D1*
X727932D1*
X733680Y388112D1*
X737483Y393860D1*
X739428Y403411D1*
Y409159D1*
X737483Y418709D1*
X733680Y424457D1*
X727932Y426359D1*
X724130D1*
X737483Y418709D2*
X714535Y393860D1*
X753681Y390058D2*
X751780Y388112D1*
X753681Y386211D1*
X755626Y388112D1*
X753681Y390058D1*
X779474Y426359D2*
X773726Y424457D1*
X769879Y418709D1*
X767978Y409159D1*
Y403411D1*
X769879Y393860D1*
X773726Y388112D1*
X779474Y386211D1*
X783276D1*
X789024Y388112D1*
X792827Y393860D1*
X794773Y403411D1*
Y409159D1*
X792827Y418709D1*
X789024Y424457D1*
X783276Y426359D1*
X779474D1*
X792827Y418709D2*
X769879Y393860D1*
X832017Y413005D2*
X830072Y407257D1*
X826269Y403411D1*
X820521Y401509D1*
X818620D1*
X812872Y403411D1*
X809069Y407257D1*
X807124Y413005D1*
Y414907D1*
X809069Y420655D1*
X812872Y424457D1*
X818620Y426359D1*
X820521D1*
X826269Y424457D1*
X830072Y420655D1*
X832017Y413005D1*
Y403411D1*
X830072Y393860D1*
X826269Y388112D1*
X820521Y386211D1*
X816719D1*
X810971Y388112D1*
X809069Y391959D1*
X867317Y426359D2*
X848215D1*
X846314Y409159D1*
X848215Y411060D1*
X853964Y413005D1*
X859667D1*
X865415Y411060D1*
X869262Y407257D1*
X871163Y401509D1*
Y397707D1*
X869262Y391959D1*
X865415Y388112D1*
X859667Y386211D1*
X853964D1*
X848215Y388112D1*
X846314Y390058D1*
X844369Y393860D1*
X694080Y496359D2*
X688332Y494457D1*
X684485Y488709D1*
X682584Y479159D1*
Y473411D1*
X684485Y463860D1*
X688332Y458112D1*
X694080Y456211D1*
X697882D1*
X703630Y458112D1*
X707433Y463860D1*
X709378Y473411D1*
Y479159D1*
X707433Y488709D1*
X703630Y494457D1*
X697882Y496359D1*
X694080D1*
X707433Y488709D2*
X684485Y463860D1*
X723631Y460058D2*
X721730Y458112D1*
X723631Y456211D1*
X725577Y458112D1*
X723631Y460058D1*
X749424Y496359D2*
X743676Y494457D1*
X739829Y488709D1*
X737928Y479159D1*
Y473411D1*
X739829Y463860D1*
X743676Y458112D1*
X749424Y456211D1*
X753227D1*
X758975Y458112D1*
X762777Y463860D1*
X764723Y473411D1*
Y479159D1*
X762777Y488709D1*
X758975Y494457D1*
X753227Y496359D1*
X749424D1*
X762777Y488709D2*
X739829Y463860D1*
X800022Y490655D2*
X798121Y494457D1*
X792373Y496359D1*
X788570D1*
X782822Y494457D1*
X778975Y488709D1*
X777074Y479159D1*
Y469608D1*
X778975Y461959D1*
X782822Y458112D1*
X788570Y456211D1*
X790471D1*
X796175Y458112D1*
X800022Y461959D1*
X801923Y467707D1*
Y469608D1*
X800022Y475356D1*
X796175Y479159D1*
X790471Y481060D1*
X788570D1*
X782822Y479159D1*
X778975Y475356D1*
X777074Y469608D1*
X837223Y496359D2*
X818121D1*
X816220Y479159D1*
X818121Y481060D1*
X823869Y483005D1*
X829573D1*
X835321Y481060D1*
X839168Y477257D1*
X841069Y471509D1*
Y467707D1*
X839168Y461959D1*
X835321Y458112D1*
X829573Y456211D1*
X823869D1*
X818121Y458112D1*
X816220Y460058D1*
X814275Y463860D1*
X196641Y2906638D2*
Y2887537D1*
X213841Y2885636D1*
X211940Y2887537D1*
X209995Y2893285D1*
Y2898989D1*
X211940Y2904737D1*
X215743Y2908584D1*
X221491Y2910485D1*
X225293D1*
X231041Y2908584D1*
X234888Y2904737D1*
X236789Y2898989D1*
Y2893285D1*
X234888Y2887537D1*
X232942Y2885636D1*
X229140Y2883691D1*
X49291Y5372717D2*
X47345Y5376564D1*
X41641Y5382312D1*
X81789D1*
X41641Y5406160D2*
X43543Y5400412D1*
X49291Y5396565D1*
X58841Y5394664D1*
X64589D1*
X74140Y5396565D1*
X79888Y5400412D1*
X81789Y5406160D1*
Y5409962D1*
X79888Y5415710D1*
X74140Y5419513D1*
X64589Y5421458D1*
X58841D1*
X49291Y5419513D1*
X43543Y5415710D1*
X41641Y5409962D1*
Y5406160D1*
X49291Y5419513D2*
X74140Y5396565D1*
X1156359Y536459D2*
X1154457Y542207D1*
X1148709Y546053D1*
X1139159Y547955D1*
X1133411D1*
X1123860Y546053D1*
X1118112Y542207D1*
X1116211Y536459D1*
Y532656D1*
X1118112Y526908D1*
X1123860Y523106D1*
X1133411Y521160D1*
X1139159D1*
X1148709Y523106D1*
X1154457Y526908D1*
X1156359Y532656D1*
Y536459D1*
X1148709Y523106D2*
X1123860Y546053D1*
X1120058Y506907D2*
X1118112Y508809D1*
X1116211Y506907D1*
X1118112Y504962D1*
X1120058Y506907D1*
X1146808Y490665D2*
X1148709D1*
X1152556Y488764D1*
X1154457Y486862D1*
X1156359Y483016D1*
Y475366D1*
X1154457Y471564D1*
X1152556Y469663D1*
X1148709Y467717D1*
X1144907D1*
X1141060Y469663D1*
X1135356Y473465D1*
X1116211Y492610D1*
Y465816D1*
X1148709Y453464D2*
X1150655Y449618D1*
X1156359Y443870D1*
X1116211D1*
X976359Y10326459D2*
X974457Y10332207D1*
X968709Y10336053D1*
X959159Y10337955D1*
X953411D1*
X943860Y10336053D1*
X938112Y10332207D1*
X936211Y10326459D1*
Y10322656D1*
X938112Y10316908D1*
X943860Y10313106D1*
X953411Y10311160D1*
X959159D1*
X968709Y10313106D1*
X974457Y10316908D1*
X976359Y10322656D1*
Y10326459D1*
X968709Y10313106D2*
X943860Y10336053D1*
X940058Y10296907D2*
X938112Y10298809D1*
X936211Y10296907D1*
X938112Y10294962D1*
X940058Y10296907D1*
X966808Y10280665D2*
X968709D1*
X972556Y10278764D1*
X974457Y10276862D1*
X976359Y10273016D1*
Y10265366D1*
X974457Y10261564D1*
X972556Y10259663D1*
X968709Y10257717D1*
X964907D1*
X961060Y10259663D1*
X955356Y10263465D1*
X936211Y10282610D1*
Y10255816D1*
X968709Y10243464D2*
X970655Y10239618D1*
X976359Y10233870D1*
X936211D1*
X1211359Y9934108D2*
X1209457Y9939856D1*
X1203709Y9943703D1*
X1194159Y9945604D1*
X1188411D1*
X1178860Y9943703D1*
X1173112Y9939856D1*
X1171211Y9934108D1*
Y9930305D1*
X1173112Y9924557D1*
X1178860Y9920755D1*
X1188411Y9918809D1*
X1194159D1*
X1203709Y9920755D1*
X1209457Y9924557D1*
X1211359Y9930305D1*
Y9934108D1*
X1203709Y9920755D2*
X1178860Y9943703D1*
X1175058Y9904557D2*
X1173112Y9906458D1*
X1171211Y9904557D1*
X1173112Y9902611D1*
X1175058Y9904557D1*
X1211359Y9867312D2*
Y9886413D1*
X1194159Y9888314D1*
X1196060Y9886413D1*
X1198005Y9880665D1*
Y9874961D1*
X1196060Y9869213D1*
X1192257Y9865366D1*
X1186509Y9863465D1*
X1182707D1*
X1176959Y9865366D1*
X1173112Y9869213D1*
X1171211Y9874961D1*
Y9880665D1*
X1173112Y9886413D1*
X1175058Y9888314D1*
X1178860Y9890260D1*
X1198005Y9826220D2*
X1192257Y9828166D1*
X1188411Y9831968D1*
X1186509Y9837716D1*
Y9839618D1*
X1188411Y9845366D1*
X1192257Y9849168D1*
X1198005Y9851114D1*
X1199907D1*
X1205655Y9849168D1*
X1209457Y9845366D1*
X1211359Y9839618D1*
Y9837716D1*
X1209457Y9831968D1*
X1205655Y9828166D1*
X1198005Y9826220D1*
X1188411D1*
X1178860Y9828166D1*
X1173112Y9831968D1*
X1171211Y9837716D1*
Y9841519D1*
X1173112Y9847267D1*
X1176959Y9849168D1*
X522941Y10801359D2*
X517193Y10799457D1*
X513347Y10793709D1*
X511445Y10784159D1*
Y10778411D1*
X513347Y10768860D1*
X517193Y10763112D1*
X522941Y10761211D1*
X526744D1*
X532492Y10763112D1*
X536295Y10768860D1*
X538240Y10778411D1*
Y10784159D1*
X536295Y10793709D1*
X532492Y10799457D1*
X526744Y10801359D1*
X522941D1*
X536295Y10793709D2*
X513347Y10768860D1*
X552493Y10765058D2*
X550591Y10763112D1*
X552493Y10761211D1*
X554438Y10763112D1*
X552493Y10765058D1*
X570636Y10801359D2*
X591639D1*
X580187Y10786060D1*
X585935D1*
X589738Y10784159D1*
X591639Y10782257D1*
X593584Y10776509D1*
Y10772707D1*
X591639Y10766959D1*
X587836Y10763112D1*
X582088Y10761211D1*
X576340D1*
X570636Y10763112D1*
X568735Y10765058D1*
X566790Y10768860D1*
X628884Y10801359D2*
X609782D1*
X607881Y10784159D1*
X609782Y10786060D1*
X615530Y10788005D1*
X621234D1*
X626982Y10786060D1*
X630829Y10782257D1*
X632730Y10776509D1*
Y10772707D1*
X630829Y10766959D1*
X626982Y10763112D1*
X621234Y10761211D1*
X615530D1*
X609782Y10763112D1*
X607881Y10765058D1*
X605936Y10768860D1*
X599468Y351359D2*
X593720Y349457D1*
X589874Y343709D1*
X587972Y334159D1*
Y328411D1*
X589874Y318860D1*
X593720Y313112D1*
X599468Y311211D1*
X603271D1*
X609019Y313112D1*
X612821Y318860D1*
X614767Y328411D1*
Y334159D1*
X612821Y343709D1*
X609019Y349457D1*
X603271Y351359D1*
X599468D1*
X612821Y343709D2*
X589874Y318860D1*
X629020Y315058D2*
X627118Y313112D1*
X629020Y311211D1*
X630965Y313112D1*
X629020Y315058D1*
X643316Y343709D2*
X647163Y345655D1*
X652911Y351359D1*
Y311211D1*
X672912D2*
X692057Y351359D1*
X665263D1*
X727357D2*
X708256D1*
X706354Y334159D1*
X708256Y336060D1*
X714004Y338005D1*
X719707D1*
X725455Y336060D1*
X729302Y332257D1*
X731203Y326509D1*
Y322707D1*
X729302Y316959D1*
X725455Y313112D1*
X719707Y311211D1*
X714004D1*
X708256Y313112D1*
X706354Y315058D1*
X704409Y318860D1*
X424468Y531359D2*
X418720Y529457D1*
X414874Y523709D1*
X412972Y514159D1*
Y508411D1*
X414874Y498860D1*
X418720Y493112D1*
X424468Y491211D1*
X428271D1*
X434019Y493112D1*
X437821Y498860D1*
X439767Y508411D1*
Y514159D1*
X437821Y523709D1*
X434019Y529457D1*
X428271Y531359D1*
X424468D1*
X437821Y523709D2*
X414874Y498860D1*
X454020Y495058D2*
X452118Y493112D1*
X454020Y491211D1*
X455965Y493112D1*
X454020Y495058D1*
X468316Y523709D2*
X472163Y525655D1*
X477911Y531359D1*
Y491211D1*
X497912D2*
X517057Y531359D1*
X490263D1*
X552357D2*
X533256D1*
X531354Y514159D1*
X533256Y516060D1*
X539004Y518005D1*
X544707D1*
X550455Y516060D1*
X554302Y512257D1*
X556203Y506509D1*
Y502707D1*
X554302Y496959D1*
X550455Y493112D1*
X544707Y491211D1*
X539004D1*
X533256Y493112D1*
X531354Y495058D1*
X529409Y498860D1*
X1246359Y944108D2*
X1244457Y949856D1*
X1238709Y953703D1*
X1229159Y955604D1*
X1223411D1*
X1213860Y953703D1*
X1208112Y949856D1*
X1206211Y944108D1*
Y940305D1*
X1208112Y934557D1*
X1213860Y930755D1*
X1223411Y928809D1*
X1229159D1*
X1238709Y930755D1*
X1244457Y934557D1*
X1246359Y940305D1*
Y944108D1*
X1238709Y930755D2*
X1213860Y953703D1*
X1210058Y914557D2*
X1208112Y916458D1*
X1206211Y914557D1*
X1208112Y912611D1*
X1210058Y914557D1*
X1246359Y877312D2*
Y896413D1*
X1229159Y898314D1*
X1231060Y896413D1*
X1233005Y890665D1*
Y884961D1*
X1231060Y879213D1*
X1227257Y875366D1*
X1221509Y873465D1*
X1217707D1*
X1211959Y875366D1*
X1208112Y879213D1*
X1206211Y884961D1*
Y890665D1*
X1208112Y896413D1*
X1210058Y898314D1*
X1213860Y900260D1*
X1233005Y836220D2*
X1227257Y838166D1*
X1223411Y841968D1*
X1221509Y847716D1*
Y849618D1*
X1223411Y855366D1*
X1227257Y859168D1*
X1233005Y861114D1*
X1234907D1*
X1240655Y859168D1*
X1244457Y855366D1*
X1246359Y849618D1*
Y847716D1*
X1244457Y841968D1*
X1240655Y838166D1*
X1233005Y836220D1*
X1223411D1*
X1213860Y838166D1*
X1208112Y841968D1*
X1206211Y847716D1*
Y851519D1*
X1208112Y857267D1*
X1211959Y859168D1*
X116641Y10089918D2*
X118543Y10084170D1*
X124291Y10080323D1*
X133841Y10078422D1*
X139589D1*
X149140Y10080323D1*
X154888Y10084170D1*
X156789Y10089918D1*
Y10093720D1*
X154888Y10099468D1*
X149140Y10103271D1*
X139589Y10105216D1*
X133841D1*
X124291Y10103271D1*
X118543Y10099468D1*
X116641Y10093720D1*
Y10089918D1*
X124291Y10103271D2*
X149140Y10080323D1*
X152942Y10119469D2*
X154888Y10117568D1*
X156789Y10119469D1*
X154888Y10121415D1*
X152942Y10119469D1*
X156789Y10152911D2*
X116641D1*
X143392Y10133766D1*
Y10162462D1*
X156789Y10182463D2*
X116641Y10201608D1*
Y10174813D1*
Y10236907D2*
Y10217806D1*
X133841Y10215905D1*
X131940Y10217806D1*
X129995Y10223554D1*
Y10229258D1*
X131940Y10235006D1*
X135743Y10238853D1*
X141491Y10240754D1*
X145293D1*
X151041Y10238853D1*
X154888Y10235006D1*
X156789Y10229258D1*
Y10223554D1*
X154888Y10217806D1*
X152942Y10215905D1*
X149140Y10213959D1*
X261641Y564918D2*
X263543Y559170D1*
X269291Y555323D1*
X278841Y553422D1*
X284589D1*
X294140Y555323D1*
X299888Y559170D1*
X301789Y564918D1*
Y568720D1*
X299888Y574468D1*
X294140Y578271D1*
X284589Y580216D1*
X278841D1*
X269291Y578271D1*
X263543Y574468D1*
X261641Y568720D1*
Y564918D1*
X269291Y578271D2*
X294140Y555323D1*
X297942Y594469D2*
X299888Y592568D1*
X301789Y594469D1*
X299888Y596415D1*
X297942Y594469D1*
X301789Y627911D2*
X261641D1*
X288392Y608766D1*
Y637462D1*
X301789Y657463D2*
X261641Y676608D1*
Y649813D1*
Y711907D2*
Y692806D1*
X278841Y690905D1*
X276940Y692806D1*
X274995Y698554D1*
Y704258D1*
X276940Y710006D1*
X280743Y713853D1*
X286491Y715754D1*
X290293D1*
X296041Y713853D1*
X299888Y710006D1*
X301789Y704258D1*
Y698554D1*
X299888Y692806D1*
X297942Y690905D1*
X294140Y688959D1*
M02*
