G04 DipTrace Beta 2.9.0.1*
G04 TopPaste.gbr*
%MOIN*%
G04 #@! TF.FileFunction,Paste,Top*
G04 #@! TF.Part,Single*
%ADD35R,0.051055X0.03137*%
%ADD37R,0.035307X0.03137*%
%FSLAX26Y26*%
G04*
G70*
G90*
G75*
G01*
G04 TopPaste*
%LPD*%
D37*
X535535Y9419000D3*
X602465D3*
X535535Y9069000D3*
X602465D3*
X535535Y8719000D3*
X602465D3*
X535535Y8369000D3*
X602465D3*
X535535Y8019000D3*
X602465D3*
X535535Y7669000D3*
X602465D3*
X535535Y7319000D3*
X602465D3*
X535535Y6969000D3*
X602465D3*
X535535Y6619000D3*
X602465D3*
X535535Y6269000D3*
X602465D3*
X535535Y5919000D3*
X602465D3*
X535535Y5569000D3*
X602465D3*
X535535Y5219000D3*
X602465D3*
X535535Y4869000D3*
X602465D3*
X535535Y4519000D3*
X602465D3*
X535535Y4169000D3*
X602465D3*
X535535Y3819000D3*
X602465D3*
X535535Y3469000D3*
X602465D3*
X535535Y3119000D3*
X602465D3*
X535535Y2769000D3*
X602465D3*
X535535Y2419000D3*
X602465D3*
X535535Y2069000D3*
X602465D3*
X535535Y1719000D3*
X602465D3*
X535535Y1369000D3*
X602465D3*
X535535Y1019000D3*
X602465D3*
D35*
X472543Y9656992D3*
Y9531008D3*
X665457D3*
Y9656992D3*
X472543Y9306992D3*
Y9181008D3*
X665457D3*
Y9306992D3*
X472543Y8956992D3*
Y8831008D3*
X665457D3*
Y8956992D3*
X472543Y8606992D3*
Y8481008D3*
X665457D3*
Y8606992D3*
X472543Y8256992D3*
Y8131008D3*
X665457D3*
Y8256992D3*
X472543Y7906992D3*
Y7781008D3*
X665457D3*
Y7906992D3*
X472543Y7556992D3*
Y7431008D3*
X665457D3*
Y7556992D3*
X472543Y7206992D3*
Y7081008D3*
X665457D3*
Y7206992D3*
X472543Y6856992D3*
Y6731008D3*
X665457D3*
Y6856992D3*
X472543Y6506992D3*
Y6381008D3*
X665457D3*
Y6506992D3*
X472543Y6156992D3*
Y6031008D3*
X665457D3*
Y6156992D3*
X472543Y5806992D3*
Y5681008D3*
X665457D3*
Y5806992D3*
X472543Y5456992D3*
Y5331008D3*
X665457D3*
Y5456992D3*
X472543Y5106992D3*
Y4981008D3*
X665457D3*
Y5106992D3*
X472543Y4756992D3*
Y4631008D3*
X665457D3*
Y4756992D3*
X472543Y4406992D3*
Y4281008D3*
X665457D3*
Y4406992D3*
X472543Y4056992D3*
Y3931008D3*
X665457D3*
Y4056992D3*
X472543Y3706992D3*
Y3581008D3*
X665457D3*
Y3706992D3*
X472543Y3356992D3*
Y3231008D3*
X665457D3*
Y3356992D3*
X472543Y3006992D3*
Y2881008D3*
X665457D3*
Y3006992D3*
X472543Y2656992D3*
Y2531008D3*
X665457D3*
Y2656992D3*
X472543Y2306992D3*
Y2181008D3*
X665457D3*
Y2306992D3*
X472543Y1956992D3*
Y1831008D3*
X665457D3*
Y1956992D3*
X472543Y1606992D3*
Y1481008D3*
X665457D3*
Y1606992D3*
X472543Y1256992D3*
Y1131008D3*
X665457D3*
Y1256992D3*
D37*
X602465Y9789000D3*
X535535D3*
M02*
