G04 DipTrace Beta 2.9.0.1*
G04 TopSilk.gbr*
%MOIN*%
G04 #@! TF.FileFunction,Legend,Top*
G04 #@! TF.Part,Single*
%ADD10C,0.009843*%
%ADD18C,0.01*%
%ADD19C,0.008*%
%ADD21C,0.018755*%
%FSLAX26Y26*%
G04*
G70*
G90*
G75*
G01*
G04 TopSilk*
%LPD*%
X487738Y9493989D2*
D10*
X650262D1*
X487738Y9694011D2*
X650262D1*
X462740Y9631501D2*
Y9556499D1*
X675260Y9631501D2*
Y9556499D1*
D21*
X672125Y9497112D3*
X487738Y9143989D2*
D10*
X650262D1*
X487738Y9344011D2*
X650262D1*
X462740Y9281501D2*
Y9206499D1*
X675260Y9281501D2*
Y9206499D1*
D21*
X672125Y9147112D3*
X487738Y8793989D2*
D10*
X650262D1*
X487738Y8994011D2*
X650262D1*
X462740Y8931501D2*
Y8856499D1*
X675260Y8931501D2*
Y8856499D1*
D21*
X672125Y8797112D3*
X487738Y8443989D2*
D10*
X650262D1*
X487738Y8644011D2*
X650262D1*
X462740Y8581501D2*
Y8506499D1*
X675260Y8581501D2*
Y8506499D1*
D21*
X672125Y8447112D3*
X487738Y8093989D2*
D10*
X650262D1*
X487738Y8294011D2*
X650262D1*
X462740Y8231501D2*
Y8156499D1*
X675260Y8231501D2*
Y8156499D1*
D21*
X672125Y8097112D3*
X487738Y7743989D2*
D10*
X650262D1*
X487738Y7944011D2*
X650262D1*
X462740Y7881501D2*
Y7806499D1*
X675260Y7881501D2*
Y7806499D1*
D21*
X672125Y7747112D3*
X487738Y7393989D2*
D10*
X650262D1*
X487738Y7594011D2*
X650262D1*
X462740Y7531501D2*
Y7456499D1*
X675260Y7531501D2*
Y7456499D1*
D21*
X672125Y7397112D3*
X487738Y7043989D2*
D10*
X650262D1*
X487738Y7244011D2*
X650262D1*
X462740Y7181501D2*
Y7106499D1*
X675260Y7181501D2*
Y7106499D1*
D21*
X672125Y7047112D3*
X487738Y6693989D2*
D10*
X650262D1*
X487738Y6894011D2*
X650262D1*
X462740Y6831501D2*
Y6756499D1*
X675260Y6831501D2*
Y6756499D1*
D21*
X672125Y6697112D3*
X487738Y6343989D2*
D10*
X650262D1*
X487738Y6544011D2*
X650262D1*
X462740Y6481501D2*
Y6406499D1*
X675260Y6481501D2*
Y6406499D1*
D21*
X672125Y6347112D3*
X487738Y5993989D2*
D10*
X650262D1*
X487738Y6194011D2*
X650262D1*
X462740Y6131501D2*
Y6056499D1*
X675260Y6131501D2*
Y6056499D1*
D21*
X672125Y5997112D3*
X487738Y5643989D2*
D10*
X650262D1*
X487738Y5844011D2*
X650262D1*
X462740Y5781501D2*
Y5706499D1*
X675260Y5781501D2*
Y5706499D1*
D21*
X672125Y5647112D3*
X487738Y5293989D2*
D10*
X650262D1*
X487738Y5494011D2*
X650262D1*
X462740Y5431501D2*
Y5356499D1*
X675260Y5431501D2*
Y5356499D1*
D21*
X672125Y5297112D3*
X487738Y4943989D2*
D10*
X650262D1*
X487738Y5144011D2*
X650262D1*
X462740Y5081501D2*
Y5006499D1*
X675260Y5081501D2*
Y5006499D1*
D21*
X672125Y4947112D3*
X487738Y4593989D2*
D10*
X650262D1*
X487738Y4794011D2*
X650262D1*
X462740Y4731501D2*
Y4656499D1*
X675260Y4731501D2*
Y4656499D1*
D21*
X672125Y4597112D3*
X487738Y4243989D2*
D10*
X650262D1*
X487738Y4444011D2*
X650262D1*
X462740Y4381501D2*
Y4306499D1*
X675260Y4381501D2*
Y4306499D1*
D21*
X672125Y4247112D3*
X487738Y3893989D2*
D10*
X650262D1*
X487738Y4094011D2*
X650262D1*
X462740Y4031501D2*
Y3956499D1*
X675260Y4031501D2*
Y3956499D1*
D21*
X672125Y3897112D3*
X487738Y3543989D2*
D10*
X650262D1*
X487738Y3744011D2*
X650262D1*
X462740Y3681501D2*
Y3606499D1*
X675260Y3681501D2*
Y3606499D1*
D21*
X672125Y3547112D3*
X487738Y3193989D2*
D10*
X650262D1*
X487738Y3394011D2*
X650262D1*
X462740Y3331501D2*
Y3256499D1*
X675260Y3331501D2*
Y3256499D1*
D21*
X672125Y3197112D3*
X487738Y2843989D2*
D10*
X650262D1*
X487738Y3044011D2*
X650262D1*
X462740Y2981501D2*
Y2906499D1*
X675260Y2981501D2*
Y2906499D1*
D21*
X672125Y2847112D3*
X487738Y2493989D2*
D10*
X650262D1*
X487738Y2694011D2*
X650262D1*
X462740Y2631501D2*
Y2556499D1*
X675260Y2631501D2*
Y2556499D1*
D21*
X672125Y2497112D3*
X487738Y2143989D2*
D10*
X650262D1*
X487738Y2344011D2*
X650262D1*
X462740Y2281501D2*
Y2206499D1*
X675260Y2281501D2*
Y2206499D1*
D21*
X672125Y2147112D3*
X487738Y1793989D2*
D10*
X650262D1*
X487738Y1994011D2*
X650262D1*
X462740Y1931501D2*
Y1856499D1*
X675260Y1931501D2*
Y1856499D1*
D21*
X672125Y1797112D3*
X487738Y1443989D2*
D10*
X650262D1*
X487738Y1644011D2*
X650262D1*
X462740Y1581501D2*
Y1506499D1*
X675260Y1581501D2*
Y1506499D1*
D21*
X672125Y1447112D3*
X487738Y1093989D2*
D10*
X650262D1*
X487738Y1294011D2*
X650262D1*
X462740Y1231501D2*
Y1156499D1*
X675260Y1231501D2*
Y1156499D1*
D21*
X672125Y1097112D3*
X718981Y9969005D2*
D10*
X419019D1*
Y9869000D1*
X718981D1*
Y9969005D1*
Y818995D2*
X419019D1*
Y919000D1*
X718981D1*
Y818995D1*
X474000Y10184000D2*
D18*
G02X474000Y10184000I95000J0D01*
G01*
Y604000D2*
G02X474000Y604000I95000J0D01*
G01*
X544000Y9849000D2*
D19*
X554000D1*
Y9829000D1*
X569000D1*
Y9849000D1*
X584000D1*
Y9829000D1*
X594000D1*
G36*
X559000Y10069000D2*
Y10029000D1*
X539000D1*
X569000Y9999000D1*
X599000Y10029000D1*
X589000D1*
X579000D1*
Y10064000D1*
Y10069000D1*
X559000D1*
G37*
X544000Y954000D2*
D19*
X554000D1*
Y934000D1*
X569000D1*
Y954000D1*
X584000D1*
Y934000D1*
X594000D1*
G36*
X559000Y789000D2*
Y749000D1*
X539000D1*
X569000Y719000D1*
X599000Y749000D1*
X589000D1*
X579000D1*
Y784000D1*
Y789000D1*
X559000D1*
G37*
X468181Y9852688D2*
D19*
Y9826855D1*
X455281Y9839755D2*
X481114D1*
X660281Y9839771D2*
X676862D1*
X468181Y957688D2*
Y931855D1*
X455281Y944755D2*
X481114D1*
X660281Y944771D2*
X676862D1*
M02*
