G04 DipTrace 2.4.0.2*
%INBoost_converter.GBS*%
%MOMM*%
%ADD41C,3.0*%
%ADD42C,3.6*%
%ADD49C,2.604*%
%ADD51C,1.704*%
%ADD59R,1.704X1.504*%
%ADD67C,4.204*%
%ADD71C,1.704*%
%ADD73R,1.704X1.704*%
%ADD75C,3.204*%
%ADD77R,3.204X3.204*%
%ADD83R,1.304X1.204*%
%ADD85R,1.804X1.804*%
%ADD87C,1.804*%
%FSLAX53Y53*%
G04*
G71*
G90*
G75*
G01*
%LNBotMask*%
%LPD*%
D87*
X77415Y50240D3*
D85*
Y45160D3*
D87*
X85671Y50240D3*
D85*
Y45160D3*
D83*
X62969Y48812D3*
X61269D3*
X62913Y47122D3*
X61213D3*
D87*
X26933Y12934D3*
D85*
Y18014D3*
D87*
X18361Y13093D3*
D85*
Y18173D3*
D77*
X13281Y38493D3*
D75*
X17481D3*
Y32993D3*
X13281D3*
D41*
X15381Y45793D3*
D77*
X93291Y38652D3*
D75*
X97490D3*
Y33152D3*
X93291D3*
D41*
X95391Y45952D3*
D73*
X12010Y14141D3*
D71*
Y12141D3*
D67*
X73925Y24681D3*
X89925D3*
D59*
X59579Y46968D3*
Y48868D3*
D51*
X40744Y47700D3*
Y45796D3*
X92179Y12141D3*
X95513D3*
X58683Y51193D3*
X60747D3*
D42*
X68458Y47474D3*
X36458D3*
X68458Y15474D3*
X36348D3*
D41*
X52809Y14998D3*
D49*
X94406Y19124D3*
Y29144D3*
X97806D3*
Y19224D3*
M02*
